<?xml version="1.0" encoding="utf-8" standalone="no"?>
<!DOCTYPE svg PUBLIC "-//W3C//DTD SVG 1.1//EN"
  "http://www.w3.org/Graphics/SVG/1.1/DTD/svg11.dtd">
<!-- Created with matplotlib (https://matplotlib.org/) -->
<svg height="288pt" version="1.1" viewBox="0 0 432 288" width="432pt" xmlns="http://www.w3.org/2000/svg" xmlns:xlink="http://www.w3.org/1999/xlink">
 <defs>
  <style type="text/css">
*{stroke-linecap:butt;stroke-linejoin:round;}
  </style>
 </defs>
 <g id="figure_1">
  <g id="patch_1">
   <path d="M 0 288 
L 432 288 
L 432 0 
L 0 0 
z
" style="fill:#ffffff;"/>
  </g>
  <g id="axes_1">
   <g id="patch_2">
    <path d="M 54 252 
L 388.8 252 
L 388.8 34.56 
L 54 34.56 
z
" style="fill:#ffffff;"/>
   </g>
   <g id="patch_3">
    <path clip-path="url(#pc2c36bd412)" d="M 69.218182 172.860638 
L 69.218182 227.825455 
L 174.907336 227.825455 
z
" style="fill:#aaaaaa;"/>
   </g>
   <g id="patch_4">
    <path clip-path="url(#pc2c36bd412)" d="M 105.040687 136.800432 
L 107.85789 170.606875 
L 145.608419 168.916553 
L 140.537452 132.292906 
z
" style="fill:#aaaaaa;"/>
   </g>
   <g id="patch_5">
    <path clip-path="url(#pc2c36bd412)" d="M 89.827787 58.734545 
L 88.700906 58.734545 
L 97.152516 91.725174 
L 207.412119 122.702872 
L 206.460017 144.125161 
L 276.890108 144.125161 
L 292.666448 58.734545 
L 117.436383 58.734545 
z
" style="fill:#aaaaaa;"/>
   </g>
   <g id="patch_6">
    <path clip-path="url(#pc2c36bd412)" d="M 140.26547 131.113477 
L 119.017086 125.482626 
L 117.98819 124.697617 
L 117.815737 123.414992 
L 123.446588 102.166608 
L 124.231597 101.137712 
L 125.514222 100.965259 
L 146.762607 106.59611 
L 147.791502 107.381119 
L 147.963955 108.663744 
L 142.333104 129.912128 
L 141.548095 130.941024 
z
" style="fill:#f6929c;"/>
   </g>
   <g id="patch_7">
    <path clip-path="url(#pc2c36bd412)" d="M 114.011287 123.999346 
L 92.828237 118.127486 
L 91.808325 117.330839 
L 91.650453 116.046339 
L 97.522314 94.863289 
L 98.31896 93.843377 
L 99.603461 93.685506 
L 120.786511 99.557366 
L 121.806423 100.354013 
L 121.964294 101.638513 
L 116.092434 122.821563 
L 115.295787 123.841475 
z
" style="fill:#f6929c;"/>
   </g>
   <g id="patch_8">
    <path clip-path="url(#pc2c36bd412)" d="M 100.056781 147.327187 
L 78.595831 142.570302 
L 77.535683 141.828042 
L 77.310903 140.553546 
L 82.067788 119.092596 
L 82.810049 118.032447 
L 84.084545 117.807668 
L 105.545495 122.564553 
L 106.605643 123.306813 
L 106.830423 124.581309 
L 102.073538 146.042259 
L 101.331277 147.102408 
z
" style="fill:#f6929c;"/>
   </g>
   <g id="patch_9">
    <path clip-path="url(#pc2c36bd412)" d="M 76.377892 166.539348 
L 70.164695 141.948492 
L 71.804085 141.534279 
L 101.373931 152.253386 
L 102.782187 153.104474 
L 103.758809 154.428766 
L 104.155823 156.025613 
L 103.913075 157.65307 
L 103.067344 159.064552 
L 101.746775 160.046199 
z
" style="fill:#f6929c;"/>
   </g>
   <g id="patch_10">
    <path clip-path="url(#pc2c36bd412)" d="M 371.045455 84.943636 
L 345.002347 67.307549 
L 343.845484 66.137418 
L 343.223023 64.614237 
L 343.229276 62.968788 
L 343.863298 61.450382 
L 345.029024 60.289079 
L 346.549828 59.660834 
L 372.736364 59.58 
L 372.736364 84.943636 
z
" style="fill:#f6929c;"/>
   </g>
   <g id="patch_11">
    <path clip-path="url(#pc2c36bd412)" d="M 343.223023 93.676103 
L 343.223023 68.312466 
L 344.913932 68.312466 
L 370.95704 85.948553 
L 372.113903 87.118685 
L 372.736364 88.641866 
L 372.730111 90.287315 
L 372.096089 91.805721 
L 370.930363 92.967023 
L 369.409559 93.595269 
z
" style="fill:#f6929c;"/>
   </g>
   <g id="patch_12">
    <path clip-path="url(#pc2c36bd412)" d="M 340.609091 84.943636 
L 314.565983 67.307549 
L 313.409121 66.137418 
L 312.78666 64.614237 
L 312.792913 62.968788 
L 313.426934 61.450382 
L 314.59266 60.289079 
L 316.113464 59.660834 
L 342.3 59.58 
L 342.3 84.943636 
z
" style="fill:#f6929c;"/>
   </g>
   <g id="matplotlib.axis_1">
    <g id="xtick_1">
     <g id="line2d_1">
      <defs>
       <path d="M 0 0 
L 0 3.5 
" id="m533df9be7b" style="stroke:#000000;stroke-width:0.8;"/>
      </defs>
      <g>
       <use style="stroke:#000000;stroke-width:0.8;" x="69.218182" xlink:href="#m533df9be7b" y="252"/>
      </g>
     </g>
     <g id="text_1">
      <!-- 0 -->
      <defs>
       <path d="M 31.78125 66.40625 
Q 24.171875 66.40625 20.328125 58.90625 
Q 16.5 51.421875 16.5 36.375 
Q 16.5 21.390625 20.328125 13.890625 
Q 24.171875 6.390625 31.78125 6.390625 
Q 39.453125 6.390625 43.28125 13.890625 
Q 47.125 21.390625 47.125 36.375 
Q 47.125 51.421875 43.28125 58.90625 
Q 39.453125 66.40625 31.78125 66.40625 
z
M 31.78125 74.21875 
Q 44.046875 74.21875 50.515625 64.515625 
Q 56.984375 54.828125 56.984375 36.375 
Q 56.984375 17.96875 50.515625 8.265625 
Q 44.046875 -1.421875 31.78125 -1.421875 
Q 19.53125 -1.421875 13.0625 8.265625 
Q 6.59375 17.96875 6.59375 36.375 
Q 6.59375 54.828125 13.0625 64.515625 
Q 19.53125 74.21875 31.78125 74.21875 
z
" id="DejaVuSans-48"/>
      </defs>
      <g transform="translate(66.036932 266.598437)scale(0.1 -0.1)">
       <use xlink:href="#DejaVuSans-48"/>
      </g>
     </g>
    </g>
    <g id="xtick_2">
     <g id="line2d_2">
      <g>
       <use style="stroke:#000000;stroke-width:0.8;" x="111.490909" xlink:href="#m533df9be7b" y="252"/>
      </g>
     </g>
     <g id="text_2">
      <!-- 250 -->
      <defs>
       <path d="M 19.1875 8.296875 
L 53.609375 8.296875 
L 53.609375 0 
L 7.328125 0 
L 7.328125 8.296875 
Q 12.9375 14.109375 22.625 23.890625 
Q 32.328125 33.6875 34.8125 36.53125 
Q 39.546875 41.84375 41.421875 45.53125 
Q 43.3125 49.21875 43.3125 52.78125 
Q 43.3125 58.59375 39.234375 62.25 
Q 35.15625 65.921875 28.609375 65.921875 
Q 23.96875 65.921875 18.8125 64.3125 
Q 13.671875 62.703125 7.8125 59.421875 
L 7.8125 69.390625 
Q 13.765625 71.78125 18.9375 73 
Q 24.125 74.21875 28.421875 74.21875 
Q 39.75 74.21875 46.484375 68.546875 
Q 53.21875 62.890625 53.21875 53.421875 
Q 53.21875 48.921875 51.53125 44.890625 
Q 49.859375 40.875 45.40625 35.40625 
Q 44.1875 33.984375 37.640625 27.21875 
Q 31.109375 20.453125 19.1875 8.296875 
z
" id="DejaVuSans-50"/>
       <path d="M 10.796875 72.90625 
L 49.515625 72.90625 
L 49.515625 64.59375 
L 19.828125 64.59375 
L 19.828125 46.734375 
Q 21.96875 47.46875 24.109375 47.828125 
Q 26.265625 48.1875 28.421875 48.1875 
Q 40.625 48.1875 47.75 41.5 
Q 54.890625 34.8125 54.890625 23.390625 
Q 54.890625 11.625 47.5625 5.09375 
Q 40.234375 -1.421875 26.90625 -1.421875 
Q 22.3125 -1.421875 17.546875 -0.640625 
Q 12.796875 0.140625 7.71875 1.703125 
L 7.71875 11.625 
Q 12.109375 9.234375 16.796875 8.0625 
Q 21.484375 6.890625 26.703125 6.890625 
Q 35.15625 6.890625 40.078125 11.328125 
Q 45.015625 15.765625 45.015625 23.390625 
Q 45.015625 31 40.078125 35.4375 
Q 35.15625 39.890625 26.703125 39.890625 
Q 22.75 39.890625 18.8125 39.015625 
Q 14.890625 38.140625 10.796875 36.28125 
z
" id="DejaVuSans-53"/>
      </defs>
      <g transform="translate(101.947159 266.598437)scale(0.1 -0.1)">
       <use xlink:href="#DejaVuSans-50"/>
       <use x="63.623047" xlink:href="#DejaVuSans-53"/>
       <use x="127.246094" xlink:href="#DejaVuSans-48"/>
      </g>
     </g>
    </g>
    <g id="xtick_3">
     <g id="line2d_3">
      <g>
       <use style="stroke:#000000;stroke-width:0.8;" x="153.763636" xlink:href="#m533df9be7b" y="252"/>
      </g>
     </g>
     <g id="text_3">
      <!-- 500 -->
      <g transform="translate(144.219886 266.598437)scale(0.1 -0.1)">
       <use xlink:href="#DejaVuSans-53"/>
       <use x="63.623047" xlink:href="#DejaVuSans-48"/>
       <use x="127.246094" xlink:href="#DejaVuSans-48"/>
      </g>
     </g>
    </g>
    <g id="xtick_4">
     <g id="line2d_4">
      <g>
       <use style="stroke:#000000;stroke-width:0.8;" x="196.036364" xlink:href="#m533df9be7b" y="252"/>
      </g>
     </g>
     <g id="text_4">
      <!-- 750 -->
      <defs>
       <path d="M 8.203125 72.90625 
L 55.078125 72.90625 
L 55.078125 68.703125 
L 28.609375 0 
L 18.3125 0 
L 43.21875 64.59375 
L 8.203125 64.59375 
z
" id="DejaVuSans-55"/>
      </defs>
      <g transform="translate(186.492614 266.598437)scale(0.1 -0.1)">
       <use xlink:href="#DejaVuSans-55"/>
       <use x="63.623047" xlink:href="#DejaVuSans-53"/>
       <use x="127.246094" xlink:href="#DejaVuSans-48"/>
      </g>
     </g>
    </g>
    <g id="xtick_5">
     <g id="line2d_5">
      <g>
       <use style="stroke:#000000;stroke-width:0.8;" x="238.309091" xlink:href="#m533df9be7b" y="252"/>
      </g>
     </g>
     <g id="text_5">
      <!-- 1000 -->
      <defs>
       <path d="M 12.40625 8.296875 
L 28.515625 8.296875 
L 28.515625 63.921875 
L 10.984375 60.40625 
L 10.984375 69.390625 
L 28.421875 72.90625 
L 38.28125 72.90625 
L 38.28125 8.296875 
L 54.390625 8.296875 
L 54.390625 0 
L 12.40625 0 
z
" id="DejaVuSans-49"/>
      </defs>
      <g transform="translate(225.584091 266.598437)scale(0.1 -0.1)">
       <use xlink:href="#DejaVuSans-49"/>
       <use x="63.623047" xlink:href="#DejaVuSans-48"/>
       <use x="127.246094" xlink:href="#DejaVuSans-48"/>
       <use x="190.869141" xlink:href="#DejaVuSans-48"/>
      </g>
     </g>
    </g>
    <g id="xtick_6">
     <g id="line2d_6">
      <g>
       <use style="stroke:#000000;stroke-width:0.8;" x="280.581818" xlink:href="#m533df9be7b" y="252"/>
      </g>
     </g>
     <g id="text_6">
      <!-- 1250 -->
      <g transform="translate(267.856818 266.598437)scale(0.1 -0.1)">
       <use xlink:href="#DejaVuSans-49"/>
       <use x="63.623047" xlink:href="#DejaVuSans-50"/>
       <use x="127.246094" xlink:href="#DejaVuSans-53"/>
       <use x="190.869141" xlink:href="#DejaVuSans-48"/>
      </g>
     </g>
    </g>
    <g id="xtick_7">
     <g id="line2d_7">
      <g>
       <use style="stroke:#000000;stroke-width:0.8;" x="322.854545" xlink:href="#m533df9be7b" y="252"/>
      </g>
     </g>
     <g id="text_7">
      <!-- 1500 -->
      <g transform="translate(310.129545 266.598437)scale(0.1 -0.1)">
       <use xlink:href="#DejaVuSans-49"/>
       <use x="63.623047" xlink:href="#DejaVuSans-53"/>
       <use x="127.246094" xlink:href="#DejaVuSans-48"/>
       <use x="190.869141" xlink:href="#DejaVuSans-48"/>
      </g>
     </g>
    </g>
    <g id="xtick_8">
     <g id="line2d_8">
      <g>
       <use style="stroke:#000000;stroke-width:0.8;" x="365.127273" xlink:href="#m533df9be7b" y="252"/>
      </g>
     </g>
     <g id="text_8">
      <!-- 1750 -->
      <g transform="translate(352.402273 266.598437)scale(0.1 -0.1)">
       <use xlink:href="#DejaVuSans-49"/>
       <use x="63.623047" xlink:href="#DejaVuSans-55"/>
       <use x="127.246094" xlink:href="#DejaVuSans-53"/>
       <use x="190.869141" xlink:href="#DejaVuSans-48"/>
      </g>
     </g>
    </g>
   </g>
   <g id="matplotlib.axis_2">
    <g id="ytick_1">
     <g id="line2d_9">
      <defs>
       <path d="M 0 0 
L -3.5 0 
" id="m17e5944a9b" style="stroke:#000000;stroke-width:0.8;"/>
      </defs>
      <g>
       <use style="stroke:#000000;stroke-width:0.8;" x="54" xlink:href="#m17e5944a9b" y="227.825455"/>
      </g>
     </g>
     <g id="text_9">
      <!-- 0 -->
      <g transform="translate(40.6375 231.624673)scale(0.1 -0.1)">
       <use xlink:href="#DejaVuSans-48"/>
      </g>
     </g>
    </g>
    <g id="ytick_2">
     <g id="line2d_10">
      <g>
       <use style="stroke:#000000;stroke-width:0.8;" x="54" xlink:href="#m17e5944a9b" y="194.007273"/>
      </g>
     </g>
     <g id="text_10">
      <!-- 200 -->
      <g transform="translate(27.9125 197.806491)scale(0.1 -0.1)">
       <use xlink:href="#DejaVuSans-50"/>
       <use x="63.623047" xlink:href="#DejaVuSans-48"/>
       <use x="127.246094" xlink:href="#DejaVuSans-48"/>
      </g>
     </g>
    </g>
    <g id="ytick_3">
     <g id="line2d_11">
      <g>
       <use style="stroke:#000000;stroke-width:0.8;" x="54" xlink:href="#m17e5944a9b" y="160.189091"/>
      </g>
     </g>
     <g id="text_11">
      <!-- 400 -->
      <defs>
       <path d="M 37.796875 64.3125 
L 12.890625 25.390625 
L 37.796875 25.390625 
z
M 35.203125 72.90625 
L 47.609375 72.90625 
L 47.609375 25.390625 
L 58.015625 25.390625 
L 58.015625 17.1875 
L 47.609375 17.1875 
L 47.609375 0 
L 37.796875 0 
L 37.796875 17.1875 
L 4.890625 17.1875 
L 4.890625 26.703125 
z
" id="DejaVuSans-52"/>
      </defs>
      <g transform="translate(27.9125 163.98831)scale(0.1 -0.1)">
       <use xlink:href="#DejaVuSans-52"/>
       <use x="63.623047" xlink:href="#DejaVuSans-48"/>
       <use x="127.246094" xlink:href="#DejaVuSans-48"/>
      </g>
     </g>
    </g>
    <g id="ytick_4">
     <g id="line2d_12">
      <g>
       <use style="stroke:#000000;stroke-width:0.8;" x="54" xlink:href="#m17e5944a9b" y="126.370909"/>
      </g>
     </g>
     <g id="text_12">
      <!-- 600 -->
      <defs>
       <path d="M 33.015625 40.375 
Q 26.375 40.375 22.484375 35.828125 
Q 18.609375 31.296875 18.609375 23.390625 
Q 18.609375 15.53125 22.484375 10.953125 
Q 26.375 6.390625 33.015625 6.390625 
Q 39.65625 6.390625 43.53125 10.953125 
Q 47.40625 15.53125 47.40625 23.390625 
Q 47.40625 31.296875 43.53125 35.828125 
Q 39.65625 40.375 33.015625 40.375 
z
M 52.59375 71.296875 
L 52.59375 62.3125 
Q 48.875 64.0625 45.09375 64.984375 
Q 41.3125 65.921875 37.59375 65.921875 
Q 27.828125 65.921875 22.671875 59.328125 
Q 17.53125 52.734375 16.796875 39.40625 
Q 19.671875 43.65625 24.015625 45.921875 
Q 28.375 48.1875 33.59375 48.1875 
Q 44.578125 48.1875 50.953125 41.515625 
Q 57.328125 34.859375 57.328125 23.390625 
Q 57.328125 12.15625 50.6875 5.359375 
Q 44.046875 -1.421875 33.015625 -1.421875 
Q 20.359375 -1.421875 13.671875 8.265625 
Q 6.984375 17.96875 6.984375 36.375 
Q 6.984375 53.65625 15.1875 63.9375 
Q 23.390625 74.21875 37.203125 74.21875 
Q 40.921875 74.21875 44.703125 73.484375 
Q 48.484375 72.75 52.59375 71.296875 
z
" id="DejaVuSans-54"/>
      </defs>
      <g transform="translate(27.9125 130.170128)scale(0.1 -0.1)">
       <use xlink:href="#DejaVuSans-54"/>
       <use x="63.623047" xlink:href="#DejaVuSans-48"/>
       <use x="127.246094" xlink:href="#DejaVuSans-48"/>
      </g>
     </g>
    </g>
    <g id="ytick_5">
     <g id="line2d_13">
      <g>
       <use style="stroke:#000000;stroke-width:0.8;" x="54" xlink:href="#m17e5944a9b" y="92.552727"/>
      </g>
     </g>
     <g id="text_13">
      <!-- 800 -->
      <defs>
       <path d="M 31.78125 34.625 
Q 24.75 34.625 20.71875 30.859375 
Q 16.703125 27.09375 16.703125 20.515625 
Q 16.703125 13.921875 20.71875 10.15625 
Q 24.75 6.390625 31.78125 6.390625 
Q 38.8125 6.390625 42.859375 10.171875 
Q 46.921875 13.96875 46.921875 20.515625 
Q 46.921875 27.09375 42.890625 30.859375 
Q 38.875 34.625 31.78125 34.625 
z
M 21.921875 38.8125 
Q 15.578125 40.375 12.03125 44.71875 
Q 8.5 49.078125 8.5 55.328125 
Q 8.5 64.0625 14.71875 69.140625 
Q 20.953125 74.21875 31.78125 74.21875 
Q 42.671875 74.21875 48.875 69.140625 
Q 55.078125 64.0625 55.078125 55.328125 
Q 55.078125 49.078125 51.53125 44.71875 
Q 48 40.375 41.703125 38.8125 
Q 48.828125 37.15625 52.796875 32.3125 
Q 56.78125 27.484375 56.78125 20.515625 
Q 56.78125 9.90625 50.3125 4.234375 
Q 43.84375 -1.421875 31.78125 -1.421875 
Q 19.734375 -1.421875 13.25 4.234375 
Q 6.78125 9.90625 6.78125 20.515625 
Q 6.78125 27.484375 10.78125 32.3125 
Q 14.796875 37.15625 21.921875 38.8125 
z
M 18.3125 54.390625 
Q 18.3125 48.734375 21.84375 45.5625 
Q 25.390625 42.390625 31.78125 42.390625 
Q 38.140625 42.390625 41.71875 45.5625 
Q 45.3125 48.734375 45.3125 54.390625 
Q 45.3125 60.0625 41.71875 63.234375 
Q 38.140625 66.40625 31.78125 66.40625 
Q 25.390625 66.40625 21.84375 63.234375 
Q 18.3125 60.0625 18.3125 54.390625 
z
" id="DejaVuSans-56"/>
      </defs>
      <g transform="translate(27.9125 96.351946)scale(0.1 -0.1)">
       <use xlink:href="#DejaVuSans-56"/>
       <use x="63.623047" xlink:href="#DejaVuSans-48"/>
       <use x="127.246094" xlink:href="#DejaVuSans-48"/>
      </g>
     </g>
    </g>
    <g id="ytick_6">
     <g id="line2d_14">
      <g>
       <use style="stroke:#000000;stroke-width:0.8;" x="54" xlink:href="#m17e5944a9b" y="58.734545"/>
      </g>
     </g>
     <g id="text_14">
      <!-- 1000 -->
      <g transform="translate(21.55 62.533764)scale(0.1 -0.1)">
       <use xlink:href="#DejaVuSans-49"/>
       <use x="63.623047" xlink:href="#DejaVuSans-48"/>
       <use x="127.246094" xlink:href="#DejaVuSans-48"/>
       <use x="190.869141" xlink:href="#DejaVuSans-48"/>
      </g>
     </g>
    </g>
   </g>
   <g id="line2d_15">
    <path clip-path="url(#pc2c36bd412)" d="M 69.218182 227.825455 
L 373.581818 227.825455 
L 373.581818 58.734545 
L 69.218182 58.734545 
L 69.218182 227.825455 
" style="fill:none;stroke:#000000;stroke-linecap:square;stroke-width:1.5;"/>
   </g>
   <g id="line2d_16">
    <path clip-path="url(#pc2c36bd412)" d="M 69.218182 172.860638 
L 69.218182 227.825455 
L 174.907336 227.825455 
L 69.218182 172.860638 
" style="fill:none;stroke:#000000;stroke-dasharray:5.55,2.4;stroke-dashoffset:0;stroke-width:1.5;"/>
   </g>
   <g id="line2d_17">
    <path clip-path="url(#pc2c36bd412)" d="M 105.040687 136.800432 
L 107.85789 170.606875 
L 145.608419 168.916553 
L 140.537452 132.292906 
L 105.040687 136.800432 
" style="fill:none;stroke:#000000;stroke-dasharray:5.55,2.4;stroke-dashoffset:0;stroke-width:1.5;"/>
   </g>
   <g id="line2d_18">
    <path clip-path="url(#pc2c36bd412)" d="M 89.827787 58.734545 
L 88.700906 58.734545 
L 97.152516 91.725174 
L 207.412119 122.702872 
L 206.460017 144.125161 
L 276.890108 144.125161 
L 292.666448 58.734545 
L 117.436383 58.734545 
L 89.827787 58.734545 
" style="fill:none;stroke:#000000;stroke-dasharray:5.55,2.4;stroke-dashoffset:0;stroke-width:1.5;"/>
   </g>
   <g id="line2d_19">
    <path clip-path="url(#pc2c36bd412)" d="M 140.26547 131.113477 
L 119.017086 125.482626 
L 117.98819 124.697617 
L 117.815737 123.414992 
L 123.446588 102.166608 
L 124.231597 101.137712 
L 125.514222 100.965259 
L 146.762607 106.59611 
L 147.791502 107.381119 
L 147.963955 108.663744 
L 142.333104 129.912128 
L 141.548095 130.941024 
L 140.26547 131.113477 
" style="fill:none;stroke:#ff0000;stroke-linecap:square;stroke-width:1.5;"/>
   </g>
   <g id="line2d_20">
    <path clip-path="url(#pc2c36bd412)" d="M 114.011287 123.999346 
L 92.828237 118.127486 
L 91.808325 117.330839 
L 91.650453 116.046339 
L 97.522314 94.863289 
L 98.31896 93.843377 
L 99.603461 93.685506 
L 120.786511 99.557366 
L 121.806423 100.354013 
L 121.964294 101.638513 
L 116.092434 122.821563 
L 115.295787 123.841475 
L 114.011287 123.999346 
" style="fill:none;stroke:#ff0000;stroke-linecap:square;stroke-width:1.5;"/>
   </g>
   <g id="line2d_21">
    <path clip-path="url(#pc2c36bd412)" d="M 100.056781 147.327187 
L 78.595831 142.570302 
L 77.535683 141.828042 
L 77.310903 140.553546 
L 82.067788 119.092596 
L 82.810049 118.032447 
L 84.084545 117.807668 
L 105.545495 122.564553 
L 106.605643 123.306813 
L 106.830423 124.581309 
L 102.073538 146.042259 
L 101.331277 147.102408 
L 100.056781 147.327187 
" style="fill:none;stroke:#ff0000;stroke-linecap:square;stroke-width:1.5;"/>
   </g>
   <g id="line2d_22">
    <path clip-path="url(#pc2c36bd412)" d="M 76.377892 166.539348 
L 70.164695 141.948492 
L 71.804085 141.534279 
L 101.373931 152.253386 
L 102.782187 153.104474 
L 103.758809 154.428766 
L 104.155823 156.025613 
L 103.913075 157.65307 
L 103.067344 159.064552 
L 101.746775 160.046199 
L 76.377892 166.539348 
" style="fill:none;stroke:#ff0000;stroke-linecap:square;stroke-width:1.5;"/>
   </g>
   <g id="line2d_23">
    <path clip-path="url(#pc2c36bd412)" d="M 371.045455 84.943636 
L 345.002347 67.307549 
L 343.845484 66.137418 
L 343.223023 64.614237 
L 343.229276 62.968788 
L 343.863298 61.450382 
L 345.029024 60.289079 
L 346.549828 59.660834 
L 372.736364 59.58 
L 372.736364 84.943636 
L 371.045455 84.943636 
" style="fill:none;stroke:#ff0000;stroke-linecap:square;stroke-width:1.5;"/>
   </g>
   <g id="line2d_24">
    <path clip-path="url(#pc2c36bd412)" d="M 343.223023 93.676103 
L 343.223023 68.312466 
L 344.913932 68.312466 
L 370.95704 85.948553 
L 372.113903 87.118685 
L 372.736364 88.641866 
L 372.730111 90.287315 
L 372.096089 91.805721 
L 370.930363 92.967023 
L 369.409559 93.595269 
L 343.223023 93.676103 
" style="fill:none;stroke:#ff0000;stroke-linecap:square;stroke-width:1.5;"/>
   </g>
   <g id="line2d_25">
    <path clip-path="url(#pc2c36bd412)" d="M 340.609091 84.943636 
L 314.565983 67.307549 
L 313.409121 66.137418 
L 312.78666 64.614237 
L 312.792913 62.968788 
L 313.426934 61.450382 
L 314.59266 60.289079 
L 316.113464 59.660834 
L 342.3 59.58 
L 342.3 84.943636 
L 340.609091 84.943636 
" style="fill:none;stroke:#ff0000;stroke-linecap:square;stroke-width:1.5;"/>
   </g>
   <g id="line2d_26">
    <path clip-path="url(#pc2c36bd412)" d="M 359.060771 214.298182 
L 163.122856 214.298182 
L 105.445556 184.16549 
L 120.488818 184.118317 
L 158.196091 182.427408 
L 160.275709 181.553519 
L 161.441435 180.392216 
L 162.25894 178.600615 
L 162.32251 176.513617 
L 157.565383 142.103736 
L 158.913208 139.435109 
L 162.170452 127.364147 
L 191.998953 135.736257 
L 191.998953 156.807273 
L 192.246581 157.405099 
L 192.844408 157.652727 
L 289.375371 157.571889 
L 291.490254 156.697155 
L 292.839464 155.262657 
L 293.524786 153.571607 
L 306.226658 84.599073 
L 326.634664 98.160522 
L 328.754792 98.470511 
L 328.793517 106.254765 
L 329.043136 106.84892 
L 329.638953 107.094545 
L 359.060771 107.08411 
L 359.060771 214.298182 
" style="fill:none;stroke:#ff0000;stroke-dasharray:1.5,2.475;stroke-dashoffset:0;stroke-width:1.5;"/>
    <defs>
     <path d="M -3 0 
L 3 0 
M 0 3 
L 0 -3 
" id="m7bf8f6d31f" style="stroke:#ff0000;"/>
    </defs>
    <g clip-path="url(#pc2c36bd412)">
     <use style="fill:#ff0000;stroke:#ff0000;" x="359.060771" xlink:href="#m7bf8f6d31f" y="214.298182"/>
     <use style="fill:#ff0000;stroke:#ff0000;" x="163.122856" xlink:href="#m7bf8f6d31f" y="214.298182"/>
     <use style="fill:#ff0000;stroke:#ff0000;" x="105.445556" xlink:href="#m7bf8f6d31f" y="184.16549"/>
     <use style="fill:#ff0000;stroke:#ff0000;" x="120.488818" xlink:href="#m7bf8f6d31f" y="184.118317"/>
     <use style="fill:#ff0000;stroke:#ff0000;" x="158.196091" xlink:href="#m7bf8f6d31f" y="182.427408"/>
     <use style="fill:#ff0000;stroke:#ff0000;" x="160.275709" xlink:href="#m7bf8f6d31f" y="181.553519"/>
     <use style="fill:#ff0000;stroke:#ff0000;" x="161.441435" xlink:href="#m7bf8f6d31f" y="180.392216"/>
     <use style="fill:#ff0000;stroke:#ff0000;" x="162.25894" xlink:href="#m7bf8f6d31f" y="178.600615"/>
     <use style="fill:#ff0000;stroke:#ff0000;" x="162.32251" xlink:href="#m7bf8f6d31f" y="176.513617"/>
     <use style="fill:#ff0000;stroke:#ff0000;" x="157.565383" xlink:href="#m7bf8f6d31f" y="142.103736"/>
     <use style="fill:#ff0000;stroke:#ff0000;" x="158.913208" xlink:href="#m7bf8f6d31f" y="139.435109"/>
     <use style="fill:#ff0000;stroke:#ff0000;" x="162.170452" xlink:href="#m7bf8f6d31f" y="127.364147"/>
     <use style="fill:#ff0000;stroke:#ff0000;" x="191.998953" xlink:href="#m7bf8f6d31f" y="135.736257"/>
     <use style="fill:#ff0000;stroke:#ff0000;" x="191.998953" xlink:href="#m7bf8f6d31f" y="156.807273"/>
     <use style="fill:#ff0000;stroke:#ff0000;" x="192.246581" xlink:href="#m7bf8f6d31f" y="157.405099"/>
     <use style="fill:#ff0000;stroke:#ff0000;" x="192.844408" xlink:href="#m7bf8f6d31f" y="157.652727"/>
     <use style="fill:#ff0000;stroke:#ff0000;" x="289.375371" xlink:href="#m7bf8f6d31f" y="157.571889"/>
     <use style="fill:#ff0000;stroke:#ff0000;" x="291.490254" xlink:href="#m7bf8f6d31f" y="156.697155"/>
     <use style="fill:#ff0000;stroke:#ff0000;" x="292.839464" xlink:href="#m7bf8f6d31f" y="155.262657"/>
     <use style="fill:#ff0000;stroke:#ff0000;" x="293.524786" xlink:href="#m7bf8f6d31f" y="153.571607"/>
     <use style="fill:#ff0000;stroke:#ff0000;" x="306.226658" xlink:href="#m7bf8f6d31f" y="84.599073"/>
     <use style="fill:#ff0000;stroke:#ff0000;" x="326.634664" xlink:href="#m7bf8f6d31f" y="98.160522"/>
     <use style="fill:#ff0000;stroke:#ff0000;" x="328.754792" xlink:href="#m7bf8f6d31f" y="98.470511"/>
     <use style="fill:#ff0000;stroke:#ff0000;" x="328.793517" xlink:href="#m7bf8f6d31f" y="106.254765"/>
     <use style="fill:#ff0000;stroke:#ff0000;" x="329.043136" xlink:href="#m7bf8f6d31f" y="106.84892"/>
     <use style="fill:#ff0000;stroke:#ff0000;" x="329.638953" xlink:href="#m7bf8f6d31f" y="107.094545"/>
     <use style="fill:#ff0000;stroke:#ff0000;" x="359.060771" xlink:href="#m7bf8f6d31f" y="107.08411"/>
     <use style="fill:#ff0000;stroke:#ff0000;" x="359.060771" xlink:href="#m7bf8f6d31f" y="214.298182"/>
    </g>
   </g>
   <g id="patch_13">
    <path d="M 54 252 
L 54 34.56 
" style="fill:none;stroke:#000000;stroke-linecap:square;stroke-linejoin:miter;stroke-width:0.8;"/>
   </g>
   <g id="patch_14">
    <path d="M 388.8 252 
L 388.8 34.56 
" style="fill:none;stroke:#000000;stroke-linecap:square;stroke-linejoin:miter;stroke-width:0.8;"/>
   </g>
   <g id="patch_15">
    <path d="M 54 252 
L 388.8 252 
" style="fill:none;stroke:#000000;stroke-linecap:square;stroke-linejoin:miter;stroke-width:0.8;"/>
   </g>
   <g id="patch_16">
    <path d="M 54 34.56 
L 388.8 34.56 
" style="fill:none;stroke:#000000;stroke-linecap:square;stroke-linejoin:miter;stroke-width:0.8;"/>
   </g>
  </g>
 </g>
 <defs>
  <clipPath id="pc2c36bd412">
   <rect height="217.44" width="334.8" x="54" y="34.56"/>
  </clipPath>
 </defs>
</svg>
