<?xml version="1.0" encoding="utf-8" standalone="no"?>
<!DOCTYPE svg PUBLIC "-//W3C//DTD SVG 1.1//EN"
  "http://www.w3.org/Graphics/SVG/1.1/DTD/svg11.dtd">
<!-- Created with matplotlib (https://matplotlib.org/) -->
<svg height="288pt" version="1.1" viewBox="0 0 432 288" width="432pt" xmlns="http://www.w3.org/2000/svg" xmlns:xlink="http://www.w3.org/1999/xlink">
 <defs>
  <style type="text/css">
*{stroke-linecap:butt;stroke-linejoin:round;}
  </style>
 </defs>
 <g id="figure_1">
  <g id="patch_1">
   <path d="M 0 288 
L 432 288 
L 432 0 
L 0 0 
z
" style="fill:#ffffff;"/>
  </g>
  <g id="axes_1">
   <g id="patch_2">
    <path d="M 54 252 
L 388.8 252 
L 388.8 34.56 
L 54 34.56 
z
" style="fill:#ffffff;"/>
   </g>
   <g id="patch_3">
    <path clip-path="url(#pc5cd8ddee2)" d="M 69.218182 172.860638 
L 69.218182 227.825455 
L 174.907336 227.825455 
z
" style="fill:#aaaaaa;"/>
   </g>
   <g id="patch_4">
    <path clip-path="url(#pc5cd8ddee2)" d="M 105.040687 136.800432 
L 107.85789 170.606875 
L 145.608419 168.916553 
L 140.537452 132.292906 
z
" style="fill:#aaaaaa;"/>
   </g>
   <g id="patch_5">
    <path clip-path="url(#pc5cd8ddee2)" d="M 89.827787 58.734545 
L 88.700906 58.734545 
L 97.152516 91.725174 
L 207.412119 122.702872 
L 206.460017 144.125161 
L 276.890108 144.125161 
L 292.666448 58.734545 
L 117.436383 58.734545 
z
" style="fill:#aaaaaa;"/>
   </g>
   <g id="patch_6">
    <path clip-path="url(#pc5cd8ddee2)" d="M 139.246561 198.624668 
L 142.084259 170.882436 
L 132.616816 169.904763 
L 129.225399 202.89045 
L 184.54817 208.584387 
L 187.946386 175.603649 
L 179.972265 174.782764 
L 177.115393 202.523023 
z
" style="fill:#f6929c;"/>
   </g>
   <g id="patch_7">
    <path clip-path="url(#pc5cd8ddee2)" d="M 195.900624 221.690533 
L 195.901047 193.803547 
L 186.383262 193.794184 
L 186.365473 226.953752 
L 241.980476 226.989494 
L 242.005533 193.834158 
L 233.989273 193.828836 
L 233.969574 221.715809 
z
" style="fill:#f6929c;"/>
   </g>
   <g id="patch_8">
    <path clip-path="url(#pc5cd8ddee2)" d="M 248.574141 173.758813 
L 259.511252 148.106063 
L 250.759624 144.364764 
L 237.738736 174.860891 
L 288.884317 196.704869 
L 301.910231 166.215486 
L 294.538253 163.066772 
L 283.583415 188.71195 
z
" style="fill:#f6929c;"/>
   </g>
   <g id="patch_9">
    <path clip-path="url(#pc5cd8ddee2)" d="M 273.726472 180.583632 
L 250.504264 170.383479 
L 260.704416 147.161271 
L 283.926624 157.361424 
z
" style="fill:#f6929c;"/>
   </g>
   <g id="patch_10">
    <path clip-path="url(#pc5cd8ddee2)" d="M 165.300223 197.680245 
L 140.104868 194.763372 
L 143.021741 169.568018 
L 168.217096 172.484891 
z
" style="fill:#f6929c;"/>
   </g>
   <g id="patch_11">
    <path clip-path="url(#pc5cd8ddee2)" d="M 93.645042 185.254834 
L 71.134158 173.568341 
L 82.820651 151.057456 
L 105.331535 162.743949 
z
" style="fill:#f6929c;"/>
   </g>
   <g id="patch_12">
    <path clip-path="url(#pc5cd8ddee2)" d="M 265.920225 216.220733 
L 242.422625 206.672077 
L 251.971281 183.174477 
L 275.468881 192.723133 
z
" style="fill:#f6929c;"/>
   </g>
   <g id="patch_13">
    <path clip-path="url(#pc5cd8ddee2)" d="M 95.248486 146.490874 
L 69.885311 146.337833 
L 70.038353 120.974658 
L 95.401527 121.1277 
z
" style="fill:#f6929c;"/>
   </g>
   <g id="patch_14">
    <path clip-path="url(#pc5cd8ddee2)" d="M 122.156965 126.120336 
L 97.958789 118.520182 
L 105.558943 94.322006 
L 129.757119 101.92216 
z
" style="fill:#f6929c;"/>
   </g>
   <g id="patch_15">
    <path clip-path="url(#pc5cd8ddee2)" d="M 166.868041 137.884022 
L 142.239504 131.82191 
L 148.301615 107.193373 
L 172.930153 113.255484 
z
" style="fill:#f6929c;"/>
   </g>
   <g id="patch_16">
    <path clip-path="url(#pc5cd8ddee2)" d="M 172.212794 171.871563 
L 146.127839 169.565857 
L 148.439057 144.307743 
L 150.122932 144.461824 
L 174.450631 164.397672 
L 175.496055 165.668352 
L 175.977129 167.241917 
L 175.820963 168.879951 
L 175.051217 170.334265 
L 173.784519 171.384512 
z
" style="fill:#f6929c;"/>
   </g>
   <g id="patch_17">
    <path clip-path="url(#pc5cd8ddee2)" d="M 179.303808 167.222193 
L 177.73735 166.718461 
L 157.705183 149.852712 
L 174.100671 130.500657 
L 175.390808 131.593689 
L 183.861021 161.884456 
L 183.987296 163.525063 
L 183.477614 165.089595 
L 182.409197 166.341005 
L 180.943925 167.089682 
z
" style="fill:#f6929c;"/>
   </g>
   <g id="patch_18">
    <path clip-path="url(#pc5cd8ddee2)" d="M 190.942491 175.708392 
L 189.315631 175.461681 
L 187.906212 174.612516 
L 186.927784 173.28956 
L 180.496432 147.90494 
L 205.102346 141.751645 
L 205.512565 143.392039 
L 194.721482 172.935694 
L 193.866966 174.341874 
L 192.5403 175.315267 
z
" style="fill:#f6929c;"/>
   </g>
   <g id="patch_19">
    <path clip-path="url(#pc5cd8ddee2)" d="M 200.974853 198.046692 
L 199.330236 197.994004 
L 197.830328 197.317382 
L 196.702387 196.119346 
L 196.117312 194.581418 
L 196.775544 168.403031 
L 222.129078 169.118842 
L 222.081357 170.809077 
L 203.717309 196.344088 
L 202.514995 197.467466 
z
" style="fill:#f6929c;"/>
   </g>
   <g id="patch_20">
    <path clip-path="url(#pc5cd8ddee2)" d="M 281.058252 154.755533 
L 279.434057 154.491845 
L 278.033585 153.628006 
L 277.069027 152.294901 
L 276.686527 150.694516 
L 280.704866 124.817999 
L 305.755973 128.787393 
L 305.491347 130.457467 
L 283.99684 153.419636 
L 282.660079 154.379119 
z
" style="fill:#f6929c;"/>
   </g>
   <g id="patch_21">
    <path clip-path="url(#pc5cd8ddee2)" d="M 286.051844 123.914565 
L 284.440116 123.583093 
L 283.077047 122.661365 
L 282.169161 121.289037 
L 281.854015 119.674038 
L 286.95245 93.988494 
L 311.815357 99.003461 
L 311.481026 100.660988 
L 289.043797 122.702898 
L 287.668029 123.60556 
z
" style="fill:#f6929c;"/>
   </g>
   <g id="patch_22">
    <path clip-path="url(#pc5cd8ddee2)" d="M 278.424873 227.596955 
L 276.779482 227.581719 
L 275.264561 226.939417 
L 274.109639 225.767368 
L 273.489706 224.243157 
L 273.551838 198.056571 
L 298.915096 198.195042 
L 298.905865 199.885926 
L 281.127859 225.832362 
L 279.951429 226.982819 
z
" style="fill:#f6929c;"/>
   </g>
   <g id="patch_23">
    <path clip-path="url(#pc5cd8ddee2)" d="M 69.710995 118.087045 
L 69.422419 92.725051 
L 94.880606 100.890473 
z
" style="fill:#f6929c;"/>
   </g>
   <g id="patch_24">
    <path clip-path="url(#pc5cd8ddee2)" d="M 210.044028 221.234629 
L 207.458944 196.003074 
L 233.552194 201.828507 
z
" style="fill:#f6929c;"/>
   </g>
   <g id="patch_25">
    <path clip-path="url(#pc5cd8ddee2)" d="M 287.678784 93.285166 
L 291.499567 68.210963 
L 315.300176 80.389813 
z
" style="fill:#f6929c;"/>
   </g>
   <g id="patch_26">
    <path clip-path="url(#pc5cd8ddee2)" d="M 297.103455 163.920572 
L 298.350153 138.587594 
L 323.267565 148.278618 
z
" style="fill:#f6929c;"/>
   </g>
   <g id="patch_27">
    <path clip-path="url(#pc5cd8ddee2)" d="M 304.941709 227.4552 
L 296.679328 203.475061 
L 323.413595 203.206059 
z
" style="fill:#f6929c;"/>
   </g>
   <g id="patch_28">
    <path clip-path="url(#pc5cd8ddee2)" d="M 302.796723 203.025147 
L 297.061215 178.318509 
L 323.67969 180.818547 
z
" style="fill:#f6929c;"/>
   </g>
   <g id="patch_29">
    <path clip-path="url(#pc5cd8ddee2)" d="M 306.787809 133.89917 
L 303.608638 108.735567 
L 329.831965 113.944264 
z
" style="fill:#f6929c;"/>
   </g>
   <g id="patch_30">
    <path clip-path="url(#pc5cd8ddee2)" d="M 231.857463 168.068735 
L 225.095229 168.044269 
L 221.524242 162.295995 
L 218.164264 156.427672 
L 221.356891 150.46092 
L 224.759066 144.616694 
L 231.522844 144.398257 
L 238.285078 144.422723 
L 241.856065 150.170996 
L 245.216043 156.03932 
L 242.023416 162.006071 
L 238.621241 167.850298 
z
" style="fill:#f6929c;"/>
   </g>
   <g id="patch_31">
    <path clip-path="url(#pc5cd8ddee2)" d="M 322.590192 180.33097 
L 315.856293 179.659404 
L 309.155818 178.747242 
L 306.370519 172.579851 
L 303.810166 166.321156 
L 307.75861 160.825268 
L 311.8987 155.478359 
L 318.6326 156.149925 
L 325.333075 157.062088 
L 328.118373 163.229479 
L 330.678726 169.488174 
L 326.730282 174.984061 
z
" style="fill:#f6929c;"/>
   </g>
   <g id="patch_32">
    <path clip-path="url(#pc5cd8ddee2)" d="M 325.73506 102.34718 
L 319.005285 101.635471 
L 312.310368 100.683367 
L 309.561897 94.499477 
L 307.038911 88.225625 
L 311.020058 82.753381 
L 315.19196 77.431255 
L 321.921735 78.142965 
L 328.616651 79.095068 
L 331.365123 85.278959 
L 333.888108 91.552811 
L 329.906961 97.025055 
z
" style="fill:#f6929c;"/>
   </g>
   <g id="patch_33">
    <path clip-path="url(#pc5cd8ddee2)" d="M 327.279599 148.729187 
L 320.823474 146.700676 
L 314.449059 144.443413 
L 312.97777 137.838119 
L 311.745306 131.189232 
L 316.730001 126.612355 
L 321.871997 122.220356 
L 328.328122 124.248867 
L 334.702537 126.50613 
L 336.173825 133.111424 
L 337.40629 139.760311 
L 332.421595 144.337188 
z
" style="fill:#f6929c;"/>
   </g>
   <g id="patch_34">
    <path clip-path="url(#pc5cd8ddee2)" d="M 331.90871 206.463015 
L 325.406195 204.588527 
L 318.97993 202.48341 
L 317.352061 195.914951 
L 315.961913 189.297236 
L 320.836417 184.603176 
L 325.87257 180.090201 
L 332.375085 181.964689 
L 338.801351 184.069806 
L 340.429219 190.638265 
L 341.819367 197.25598 
L 336.944864 201.95004 
z
" style="fill:#f6929c;"/>
   </g>
   <g id="patch_35">
    <path clip-path="url(#pc5cd8ddee2)" d="M 343.565326 169.237021 
L 336.85456 168.364076 
L 330.18441 167.251643 
L 327.585075 161.003599 
L 325.213318 154.671029 
L 329.324593 149.295863 
L 333.622966 144.075349 
L 340.333731 144.948294 
L 347.003881 146.060726 
L 349.603216 152.30877 
L 351.974973 158.64134 
L 347.863699 164.016506 
z
" style="fill:#f6929c;"/>
   </g>
   <g id="patch_36">
    <path clip-path="url(#pc5cd8ddee2)" d="M 335.767557 227.28778 
L 332.157594 221.563903 
L 328.75782 215.718545 
L 331.90983 209.730238 
L 335.272217 203.86303 
L 342.034354 203.59864 
L 348.796598 203.577158 
L 352.406561 209.301035 
L 355.806335 215.146392 
L 352.654325 221.134699 
L 349.291938 227.001908 
L 342.529801 227.266298 
z
" style="fill:#f6929c;"/>
   </g>
   <g id="matplotlib.axis_1">
    <g id="xtick_1">
     <g id="line2d_1">
      <defs>
       <path d="M 0 0 
L 0 3.5 
" id="ma4be39c7af" style="stroke:#000000;stroke-width:0.8;"/>
      </defs>
      <g>
       <use style="stroke:#000000;stroke-width:0.8;" x="69.218182" xlink:href="#ma4be39c7af" y="252"/>
      </g>
     </g>
     <g id="text_1">
      <!-- 0 -->
      <defs>
       <path d="M 31.78125 66.40625 
Q 24.171875 66.40625 20.328125 58.90625 
Q 16.5 51.421875 16.5 36.375 
Q 16.5 21.390625 20.328125 13.890625 
Q 24.171875 6.390625 31.78125 6.390625 
Q 39.453125 6.390625 43.28125 13.890625 
Q 47.125 21.390625 47.125 36.375 
Q 47.125 51.421875 43.28125 58.90625 
Q 39.453125 66.40625 31.78125 66.40625 
z
M 31.78125 74.21875 
Q 44.046875 74.21875 50.515625 64.515625 
Q 56.984375 54.828125 56.984375 36.375 
Q 56.984375 17.96875 50.515625 8.265625 
Q 44.046875 -1.421875 31.78125 -1.421875 
Q 19.53125 -1.421875 13.0625 8.265625 
Q 6.59375 17.96875 6.59375 36.375 
Q 6.59375 54.828125 13.0625 64.515625 
Q 19.53125 74.21875 31.78125 74.21875 
z
" id="DejaVuSans-48"/>
      </defs>
      <g transform="translate(66.036932 266.598437)scale(0.1 -0.1)">
       <use xlink:href="#DejaVuSans-48"/>
      </g>
     </g>
    </g>
    <g id="xtick_2">
     <g id="line2d_2">
      <g>
       <use style="stroke:#000000;stroke-width:0.8;" x="111.490909" xlink:href="#ma4be39c7af" y="252"/>
      </g>
     </g>
     <g id="text_2">
      <!-- 250 -->
      <defs>
       <path d="M 19.1875 8.296875 
L 53.609375 8.296875 
L 53.609375 0 
L 7.328125 0 
L 7.328125 8.296875 
Q 12.9375 14.109375 22.625 23.890625 
Q 32.328125 33.6875 34.8125 36.53125 
Q 39.546875 41.84375 41.421875 45.53125 
Q 43.3125 49.21875 43.3125 52.78125 
Q 43.3125 58.59375 39.234375 62.25 
Q 35.15625 65.921875 28.609375 65.921875 
Q 23.96875 65.921875 18.8125 64.3125 
Q 13.671875 62.703125 7.8125 59.421875 
L 7.8125 69.390625 
Q 13.765625 71.78125 18.9375 73 
Q 24.125 74.21875 28.421875 74.21875 
Q 39.75 74.21875 46.484375 68.546875 
Q 53.21875 62.890625 53.21875 53.421875 
Q 53.21875 48.921875 51.53125 44.890625 
Q 49.859375 40.875 45.40625 35.40625 
Q 44.1875 33.984375 37.640625 27.21875 
Q 31.109375 20.453125 19.1875 8.296875 
z
" id="DejaVuSans-50"/>
       <path d="M 10.796875 72.90625 
L 49.515625 72.90625 
L 49.515625 64.59375 
L 19.828125 64.59375 
L 19.828125 46.734375 
Q 21.96875 47.46875 24.109375 47.828125 
Q 26.265625 48.1875 28.421875 48.1875 
Q 40.625 48.1875 47.75 41.5 
Q 54.890625 34.8125 54.890625 23.390625 
Q 54.890625 11.625 47.5625 5.09375 
Q 40.234375 -1.421875 26.90625 -1.421875 
Q 22.3125 -1.421875 17.546875 -0.640625 
Q 12.796875 0.140625 7.71875 1.703125 
L 7.71875 11.625 
Q 12.109375 9.234375 16.796875 8.0625 
Q 21.484375 6.890625 26.703125 6.890625 
Q 35.15625 6.890625 40.078125 11.328125 
Q 45.015625 15.765625 45.015625 23.390625 
Q 45.015625 31 40.078125 35.4375 
Q 35.15625 39.890625 26.703125 39.890625 
Q 22.75 39.890625 18.8125 39.015625 
Q 14.890625 38.140625 10.796875 36.28125 
z
" id="DejaVuSans-53"/>
      </defs>
      <g transform="translate(101.947159 266.598437)scale(0.1 -0.1)">
       <use xlink:href="#DejaVuSans-50"/>
       <use x="63.623047" xlink:href="#DejaVuSans-53"/>
       <use x="127.246094" xlink:href="#DejaVuSans-48"/>
      </g>
     </g>
    </g>
    <g id="xtick_3">
     <g id="line2d_3">
      <g>
       <use style="stroke:#000000;stroke-width:0.8;" x="153.763636" xlink:href="#ma4be39c7af" y="252"/>
      </g>
     </g>
     <g id="text_3">
      <!-- 500 -->
      <g transform="translate(144.219886 266.598437)scale(0.1 -0.1)">
       <use xlink:href="#DejaVuSans-53"/>
       <use x="63.623047" xlink:href="#DejaVuSans-48"/>
       <use x="127.246094" xlink:href="#DejaVuSans-48"/>
      </g>
     </g>
    </g>
    <g id="xtick_4">
     <g id="line2d_4">
      <g>
       <use style="stroke:#000000;stroke-width:0.8;" x="196.036364" xlink:href="#ma4be39c7af" y="252"/>
      </g>
     </g>
     <g id="text_4">
      <!-- 750 -->
      <defs>
       <path d="M 8.203125 72.90625 
L 55.078125 72.90625 
L 55.078125 68.703125 
L 28.609375 0 
L 18.3125 0 
L 43.21875 64.59375 
L 8.203125 64.59375 
z
" id="DejaVuSans-55"/>
      </defs>
      <g transform="translate(186.492614 266.598437)scale(0.1 -0.1)">
       <use xlink:href="#DejaVuSans-55"/>
       <use x="63.623047" xlink:href="#DejaVuSans-53"/>
       <use x="127.246094" xlink:href="#DejaVuSans-48"/>
      </g>
     </g>
    </g>
    <g id="xtick_5">
     <g id="line2d_5">
      <g>
       <use style="stroke:#000000;stroke-width:0.8;" x="238.309091" xlink:href="#ma4be39c7af" y="252"/>
      </g>
     </g>
     <g id="text_5">
      <!-- 1000 -->
      <defs>
       <path d="M 12.40625 8.296875 
L 28.515625 8.296875 
L 28.515625 63.921875 
L 10.984375 60.40625 
L 10.984375 69.390625 
L 28.421875 72.90625 
L 38.28125 72.90625 
L 38.28125 8.296875 
L 54.390625 8.296875 
L 54.390625 0 
L 12.40625 0 
z
" id="DejaVuSans-49"/>
      </defs>
      <g transform="translate(225.584091 266.598437)scale(0.1 -0.1)">
       <use xlink:href="#DejaVuSans-49"/>
       <use x="63.623047" xlink:href="#DejaVuSans-48"/>
       <use x="127.246094" xlink:href="#DejaVuSans-48"/>
       <use x="190.869141" xlink:href="#DejaVuSans-48"/>
      </g>
     </g>
    </g>
    <g id="xtick_6">
     <g id="line2d_6">
      <g>
       <use style="stroke:#000000;stroke-width:0.8;" x="280.581818" xlink:href="#ma4be39c7af" y="252"/>
      </g>
     </g>
     <g id="text_6">
      <!-- 1250 -->
      <g transform="translate(267.856818 266.598437)scale(0.1 -0.1)">
       <use xlink:href="#DejaVuSans-49"/>
       <use x="63.623047" xlink:href="#DejaVuSans-50"/>
       <use x="127.246094" xlink:href="#DejaVuSans-53"/>
       <use x="190.869141" xlink:href="#DejaVuSans-48"/>
      </g>
     </g>
    </g>
    <g id="xtick_7">
     <g id="line2d_7">
      <g>
       <use style="stroke:#000000;stroke-width:0.8;" x="322.854545" xlink:href="#ma4be39c7af" y="252"/>
      </g>
     </g>
     <g id="text_7">
      <!-- 1500 -->
      <g transform="translate(310.129545 266.598437)scale(0.1 -0.1)">
       <use xlink:href="#DejaVuSans-49"/>
       <use x="63.623047" xlink:href="#DejaVuSans-53"/>
       <use x="127.246094" xlink:href="#DejaVuSans-48"/>
       <use x="190.869141" xlink:href="#DejaVuSans-48"/>
      </g>
     </g>
    </g>
    <g id="xtick_8">
     <g id="line2d_8">
      <g>
       <use style="stroke:#000000;stroke-width:0.8;" x="365.127273" xlink:href="#ma4be39c7af" y="252"/>
      </g>
     </g>
     <g id="text_8">
      <!-- 1750 -->
      <g transform="translate(352.402273 266.598437)scale(0.1 -0.1)">
       <use xlink:href="#DejaVuSans-49"/>
       <use x="63.623047" xlink:href="#DejaVuSans-55"/>
       <use x="127.246094" xlink:href="#DejaVuSans-53"/>
       <use x="190.869141" xlink:href="#DejaVuSans-48"/>
      </g>
     </g>
    </g>
   </g>
   <g id="matplotlib.axis_2">
    <g id="ytick_1">
     <g id="line2d_9">
      <defs>
       <path d="M 0 0 
L -3.5 0 
" id="m3082f474e7" style="stroke:#000000;stroke-width:0.8;"/>
      </defs>
      <g>
       <use style="stroke:#000000;stroke-width:0.8;" x="54" xlink:href="#m3082f474e7" y="227.825455"/>
      </g>
     </g>
     <g id="text_9">
      <!-- 0 -->
      <g transform="translate(40.6375 231.624673)scale(0.1 -0.1)">
       <use xlink:href="#DejaVuSans-48"/>
      </g>
     </g>
    </g>
    <g id="ytick_2">
     <g id="line2d_10">
      <g>
       <use style="stroke:#000000;stroke-width:0.8;" x="54" xlink:href="#m3082f474e7" y="194.007273"/>
      </g>
     </g>
     <g id="text_10">
      <!-- 200 -->
      <g transform="translate(27.9125 197.806491)scale(0.1 -0.1)">
       <use xlink:href="#DejaVuSans-50"/>
       <use x="63.623047" xlink:href="#DejaVuSans-48"/>
       <use x="127.246094" xlink:href="#DejaVuSans-48"/>
      </g>
     </g>
    </g>
    <g id="ytick_3">
     <g id="line2d_11">
      <g>
       <use style="stroke:#000000;stroke-width:0.8;" x="54" xlink:href="#m3082f474e7" y="160.189091"/>
      </g>
     </g>
     <g id="text_11">
      <!-- 400 -->
      <defs>
       <path d="M 37.796875 64.3125 
L 12.890625 25.390625 
L 37.796875 25.390625 
z
M 35.203125 72.90625 
L 47.609375 72.90625 
L 47.609375 25.390625 
L 58.015625 25.390625 
L 58.015625 17.1875 
L 47.609375 17.1875 
L 47.609375 0 
L 37.796875 0 
L 37.796875 17.1875 
L 4.890625 17.1875 
L 4.890625 26.703125 
z
" id="DejaVuSans-52"/>
      </defs>
      <g transform="translate(27.9125 163.98831)scale(0.1 -0.1)">
       <use xlink:href="#DejaVuSans-52"/>
       <use x="63.623047" xlink:href="#DejaVuSans-48"/>
       <use x="127.246094" xlink:href="#DejaVuSans-48"/>
      </g>
     </g>
    </g>
    <g id="ytick_4">
     <g id="line2d_12">
      <g>
       <use style="stroke:#000000;stroke-width:0.8;" x="54" xlink:href="#m3082f474e7" y="126.370909"/>
      </g>
     </g>
     <g id="text_12">
      <!-- 600 -->
      <defs>
       <path d="M 33.015625 40.375 
Q 26.375 40.375 22.484375 35.828125 
Q 18.609375 31.296875 18.609375 23.390625 
Q 18.609375 15.53125 22.484375 10.953125 
Q 26.375 6.390625 33.015625 6.390625 
Q 39.65625 6.390625 43.53125 10.953125 
Q 47.40625 15.53125 47.40625 23.390625 
Q 47.40625 31.296875 43.53125 35.828125 
Q 39.65625 40.375 33.015625 40.375 
z
M 52.59375 71.296875 
L 52.59375 62.3125 
Q 48.875 64.0625 45.09375 64.984375 
Q 41.3125 65.921875 37.59375 65.921875 
Q 27.828125 65.921875 22.671875 59.328125 
Q 17.53125 52.734375 16.796875 39.40625 
Q 19.671875 43.65625 24.015625 45.921875 
Q 28.375 48.1875 33.59375 48.1875 
Q 44.578125 48.1875 50.953125 41.515625 
Q 57.328125 34.859375 57.328125 23.390625 
Q 57.328125 12.15625 50.6875 5.359375 
Q 44.046875 -1.421875 33.015625 -1.421875 
Q 20.359375 -1.421875 13.671875 8.265625 
Q 6.984375 17.96875 6.984375 36.375 
Q 6.984375 53.65625 15.1875 63.9375 
Q 23.390625 74.21875 37.203125 74.21875 
Q 40.921875 74.21875 44.703125 73.484375 
Q 48.484375 72.75 52.59375 71.296875 
z
" id="DejaVuSans-54"/>
      </defs>
      <g transform="translate(27.9125 130.170128)scale(0.1 -0.1)">
       <use xlink:href="#DejaVuSans-54"/>
       <use x="63.623047" xlink:href="#DejaVuSans-48"/>
       <use x="127.246094" xlink:href="#DejaVuSans-48"/>
      </g>
     </g>
    </g>
    <g id="ytick_5">
     <g id="line2d_13">
      <g>
       <use style="stroke:#000000;stroke-width:0.8;" x="54" xlink:href="#m3082f474e7" y="92.552727"/>
      </g>
     </g>
     <g id="text_13">
      <!-- 800 -->
      <defs>
       <path d="M 31.78125 34.625 
Q 24.75 34.625 20.71875 30.859375 
Q 16.703125 27.09375 16.703125 20.515625 
Q 16.703125 13.921875 20.71875 10.15625 
Q 24.75 6.390625 31.78125 6.390625 
Q 38.8125 6.390625 42.859375 10.171875 
Q 46.921875 13.96875 46.921875 20.515625 
Q 46.921875 27.09375 42.890625 30.859375 
Q 38.875 34.625 31.78125 34.625 
z
M 21.921875 38.8125 
Q 15.578125 40.375 12.03125 44.71875 
Q 8.5 49.078125 8.5 55.328125 
Q 8.5 64.0625 14.71875 69.140625 
Q 20.953125 74.21875 31.78125 74.21875 
Q 42.671875 74.21875 48.875 69.140625 
Q 55.078125 64.0625 55.078125 55.328125 
Q 55.078125 49.078125 51.53125 44.71875 
Q 48 40.375 41.703125 38.8125 
Q 48.828125 37.15625 52.796875 32.3125 
Q 56.78125 27.484375 56.78125 20.515625 
Q 56.78125 9.90625 50.3125 4.234375 
Q 43.84375 -1.421875 31.78125 -1.421875 
Q 19.734375 -1.421875 13.25 4.234375 
Q 6.78125 9.90625 6.78125 20.515625 
Q 6.78125 27.484375 10.78125 32.3125 
Q 14.796875 37.15625 21.921875 38.8125 
z
M 18.3125 54.390625 
Q 18.3125 48.734375 21.84375 45.5625 
Q 25.390625 42.390625 31.78125 42.390625 
Q 38.140625 42.390625 41.71875 45.5625 
Q 45.3125 48.734375 45.3125 54.390625 
Q 45.3125 60.0625 41.71875 63.234375 
Q 38.140625 66.40625 31.78125 66.40625 
Q 25.390625 66.40625 21.84375 63.234375 
Q 18.3125 60.0625 18.3125 54.390625 
z
" id="DejaVuSans-56"/>
      </defs>
      <g transform="translate(27.9125 96.351946)scale(0.1 -0.1)">
       <use xlink:href="#DejaVuSans-56"/>
       <use x="63.623047" xlink:href="#DejaVuSans-48"/>
       <use x="127.246094" xlink:href="#DejaVuSans-48"/>
      </g>
     </g>
    </g>
    <g id="ytick_6">
     <g id="line2d_14">
      <g>
       <use style="stroke:#000000;stroke-width:0.8;" x="54" xlink:href="#m3082f474e7" y="58.734545"/>
      </g>
     </g>
     <g id="text_14">
      <!-- 1000 -->
      <g transform="translate(21.55 62.533764)scale(0.1 -0.1)">
       <use xlink:href="#DejaVuSans-49"/>
       <use x="63.623047" xlink:href="#DejaVuSans-48"/>
       <use x="127.246094" xlink:href="#DejaVuSans-48"/>
       <use x="190.869141" xlink:href="#DejaVuSans-48"/>
      </g>
     </g>
    </g>
   </g>
   <g id="line2d_15">
    <path clip-path="url(#pc5cd8ddee2)" d="M 69.218182 227.825455 
L 373.581818 227.825455 
L 373.581818 58.734545 
L 69.218182 58.734545 
L 69.218182 227.825455 
" style="fill:none;stroke:#000000;stroke-linecap:square;stroke-width:1.5;"/>
   </g>
   <g id="line2d_16">
    <path clip-path="url(#pc5cd8ddee2)" d="M 69.218182 172.860638 
L 69.218182 227.825455 
L 174.907336 227.825455 
L 69.218182 172.860638 
" style="fill:none;stroke:#000000;stroke-dasharray:5.55,2.4;stroke-dashoffset:0;stroke-width:1.5;"/>
   </g>
   <g id="line2d_17">
    <path clip-path="url(#pc5cd8ddee2)" d="M 105.040687 136.800432 
L 107.85789 170.606875 
L 145.608419 168.916553 
L 140.537452 132.292906 
L 105.040687 136.800432 
" style="fill:none;stroke:#000000;stroke-dasharray:5.55,2.4;stroke-dashoffset:0;stroke-width:1.5;"/>
   </g>
   <g id="line2d_18">
    <path clip-path="url(#pc5cd8ddee2)" d="M 89.827787 58.734545 
L 88.700906 58.734545 
L 97.152516 91.725174 
L 207.412119 122.702872 
L 206.460017 144.125161 
L 276.890108 144.125161 
L 292.666448 58.734545 
L 117.436383 58.734545 
L 89.827787 58.734545 
" style="fill:none;stroke:#000000;stroke-dasharray:5.55,2.4;stroke-dashoffset:0;stroke-width:1.5;"/>
   </g>
   <g id="line2d_19">
    <path clip-path="url(#pc5cd8ddee2)" d="M 139.246561 198.624668 
L 142.084259 170.882436 
L 132.616816 169.904763 
L 129.225399 202.89045 
L 184.54817 208.584387 
L 187.946386 175.603649 
L 179.972265 174.782764 
L 177.115393 202.523023 
L 139.246561 198.624668 
" style="fill:none;stroke:#ff0000;stroke-linecap:square;stroke-width:1.5;"/>
   </g>
   <g id="line2d_20">
    <path clip-path="url(#pc5cd8ddee2)" d="M 195.900624 221.690533 
L 195.901047 193.803547 
L 186.383262 193.794184 
L 186.365473 226.953752 
L 241.980476 226.989494 
L 242.005533 193.834158 
L 233.989273 193.828836 
L 233.969574 221.715809 
L 195.900624 221.690533 
" style="fill:none;stroke:#ff0000;stroke-linecap:square;stroke-width:1.5;"/>
   </g>
   <g id="line2d_21">
    <path clip-path="url(#pc5cd8ddee2)" d="M 248.574141 173.758813 
L 259.511252 148.106063 
L 250.759624 144.364764 
L 237.738736 174.860891 
L 288.884317 196.704869 
L 301.910231 166.215486 
L 294.538253 163.066772 
L 283.583415 188.71195 
L 248.574141 173.758813 
" style="fill:none;stroke:#ff0000;stroke-linecap:square;stroke-width:1.5;"/>
   </g>
   <g id="line2d_22">
    <path clip-path="url(#pc5cd8ddee2)" d="M 273.726472 180.583632 
L 250.504264 170.383479 
L 260.704416 147.161271 
L 283.926624 157.361424 
L 273.726472 180.583632 
" style="fill:none;stroke:#ff0000;stroke-linecap:square;stroke-width:1.5;"/>
   </g>
   <g id="line2d_23">
    <path clip-path="url(#pc5cd8ddee2)" d="M 165.300223 197.680245 
L 140.104868 194.763372 
L 143.021741 169.568018 
L 168.217096 172.484891 
L 165.300223 197.680245 
" style="fill:none;stroke:#ff0000;stroke-linecap:square;stroke-width:1.5;"/>
   </g>
   <g id="line2d_24">
    <path clip-path="url(#pc5cd8ddee2)" d="M 93.645042 185.254834 
L 71.134158 173.568341 
L 82.820651 151.057456 
L 105.331535 162.743949 
L 93.645042 185.254834 
" style="fill:none;stroke:#ff0000;stroke-linecap:square;stroke-width:1.5;"/>
   </g>
   <g id="line2d_25">
    <path clip-path="url(#pc5cd8ddee2)" d="M 265.920225 216.220733 
L 242.422625 206.672077 
L 251.971281 183.174477 
L 275.468881 192.723133 
L 265.920225 216.220733 
" style="fill:none;stroke:#ff0000;stroke-linecap:square;stroke-width:1.5;"/>
   </g>
   <g id="line2d_26">
    <path clip-path="url(#pc5cd8ddee2)" d="M 95.248486 146.490874 
L 69.885311 146.337833 
L 70.038353 120.974658 
L 95.401527 121.1277 
L 95.248486 146.490874 
" style="fill:none;stroke:#ff0000;stroke-linecap:square;stroke-width:1.5;"/>
   </g>
   <g id="line2d_27">
    <path clip-path="url(#pc5cd8ddee2)" d="M 122.156965 126.120336 
L 97.958789 118.520182 
L 105.558943 94.322006 
L 129.757119 101.92216 
L 122.156965 126.120336 
" style="fill:none;stroke:#ff0000;stroke-linecap:square;stroke-width:1.5;"/>
   </g>
   <g id="line2d_28">
    <path clip-path="url(#pc5cd8ddee2)" d="M 166.868041 137.884022 
L 142.239504 131.82191 
L 148.301615 107.193373 
L 172.930153 113.255484 
L 166.868041 137.884022 
" style="fill:none;stroke:#ff0000;stroke-linecap:square;stroke-width:1.5;"/>
   </g>
   <g id="line2d_29">
    <path clip-path="url(#pc5cd8ddee2)" d="M 172.212794 171.871563 
L 146.127839 169.565857 
L 148.439057 144.307743 
L 150.122932 144.461824 
L 174.450631 164.397672 
L 175.496055 165.668352 
L 175.977129 167.241917 
L 175.820963 168.879951 
L 175.051217 170.334265 
L 173.784519 171.384512 
L 172.212794 171.871563 
" style="fill:none;stroke:#ff0000;stroke-linecap:square;stroke-width:1.5;"/>
   </g>
   <g id="line2d_30">
    <path clip-path="url(#pc5cd8ddee2)" d="M 179.303808 167.222193 
L 177.73735 166.718461 
L 157.705183 149.852712 
L 174.100671 130.500657 
L 175.390808 131.593689 
L 183.861021 161.884456 
L 183.987296 163.525063 
L 183.477614 165.089595 
L 182.409197 166.341005 
L 180.943925 167.089682 
L 179.303808 167.222193 
" style="fill:none;stroke:#ff0000;stroke-linecap:square;stroke-width:1.5;"/>
   </g>
   <g id="line2d_31">
    <path clip-path="url(#pc5cd8ddee2)" d="M 190.942491 175.708392 
L 189.315631 175.461681 
L 187.906212 174.612516 
L 186.927784 173.28956 
L 180.496432 147.90494 
L 205.102346 141.751645 
L 205.512565 143.392039 
L 194.721482 172.935694 
L 193.866966 174.341874 
L 192.5403 175.315267 
L 190.942491 175.708392 
" style="fill:none;stroke:#ff0000;stroke-linecap:square;stroke-width:1.5;"/>
   </g>
   <g id="line2d_32">
    <path clip-path="url(#pc5cd8ddee2)" d="M 200.974853 198.046692 
L 199.330236 197.994004 
L 197.830328 197.317382 
L 196.702387 196.119346 
L 196.117312 194.581418 
L 196.775544 168.403031 
L 222.129078 169.118842 
L 222.081357 170.809077 
L 203.717309 196.344088 
L 202.514995 197.467466 
L 200.974853 198.046692 
" style="fill:none;stroke:#ff0000;stroke-linecap:square;stroke-width:1.5;"/>
   </g>
   <g id="line2d_33">
    <path clip-path="url(#pc5cd8ddee2)" d="M 281.058252 154.755533 
L 279.434057 154.491845 
L 278.033585 153.628006 
L 277.069027 152.294901 
L 276.686527 150.694516 
L 280.704866 124.817999 
L 305.755973 128.787393 
L 305.491347 130.457467 
L 283.99684 153.419636 
L 282.660079 154.379119 
L 281.058252 154.755533 
" style="fill:none;stroke:#ff0000;stroke-linecap:square;stroke-width:1.5;"/>
   </g>
   <g id="line2d_34">
    <path clip-path="url(#pc5cd8ddee2)" d="M 286.051844 123.914565 
L 284.440116 123.583093 
L 283.077047 122.661365 
L 282.169161 121.289037 
L 281.854015 119.674038 
L 286.95245 93.988494 
L 311.815357 99.003461 
L 311.481026 100.660988 
L 289.043797 122.702898 
L 287.668029 123.60556 
L 286.051844 123.914565 
" style="fill:none;stroke:#ff0000;stroke-linecap:square;stroke-width:1.5;"/>
   </g>
   <g id="line2d_35">
    <path clip-path="url(#pc5cd8ddee2)" d="M 278.424873 227.596955 
L 276.779482 227.581719 
L 275.264561 226.939417 
L 274.109639 225.767368 
L 273.489706 224.243157 
L 273.551838 198.056571 
L 298.915096 198.195042 
L 298.905865 199.885926 
L 281.127859 225.832362 
L 279.951429 226.982819 
L 278.424873 227.596955 
" style="fill:none;stroke:#ff0000;stroke-linecap:square;stroke-width:1.5;"/>
   </g>
   <g id="line2d_36">
    <path clip-path="url(#pc5cd8ddee2)" d="M 69.710995 118.087045 
L 69.422419 92.725051 
L 94.880606 100.890473 
L 69.710995 118.087045 
" style="fill:none;stroke:#ff0000;stroke-linecap:square;stroke-width:1.5;"/>
   </g>
   <g id="line2d_37">
    <path clip-path="url(#pc5cd8ddee2)" d="M 210.044028 221.234629 
L 207.458944 196.003074 
L 233.552194 201.828507 
L 210.044028 221.234629 
" style="fill:none;stroke:#ff0000;stroke-linecap:square;stroke-width:1.5;"/>
   </g>
   <g id="line2d_38">
    <path clip-path="url(#pc5cd8ddee2)" d="M 287.678784 93.285166 
L 291.499567 68.210963 
L 315.300176 80.389813 
L 287.678784 93.285166 
" style="fill:none;stroke:#ff0000;stroke-linecap:square;stroke-width:1.5;"/>
   </g>
   <g id="line2d_39">
    <path clip-path="url(#pc5cd8ddee2)" d="M 297.103455 163.920572 
L 298.350153 138.587594 
L 323.267565 148.278618 
L 297.103455 163.920572 
" style="fill:none;stroke:#ff0000;stroke-linecap:square;stroke-width:1.5;"/>
   </g>
   <g id="line2d_40">
    <path clip-path="url(#pc5cd8ddee2)" d="M 304.941709 227.4552 
L 296.679328 203.475061 
L 323.413595 203.206059 
L 304.941709 227.4552 
" style="fill:none;stroke:#ff0000;stroke-linecap:square;stroke-width:1.5;"/>
   </g>
   <g id="line2d_41">
    <path clip-path="url(#pc5cd8ddee2)" d="M 302.796723 203.025147 
L 297.061215 178.318509 
L 323.67969 180.818547 
L 302.796723 203.025147 
" style="fill:none;stroke:#ff0000;stroke-linecap:square;stroke-width:1.5;"/>
   </g>
   <g id="line2d_42">
    <path clip-path="url(#pc5cd8ddee2)" d="M 306.787809 133.89917 
L 303.608638 108.735567 
L 329.831965 113.944264 
L 306.787809 133.89917 
" style="fill:none;stroke:#ff0000;stroke-linecap:square;stroke-width:1.5;"/>
   </g>
   <g id="line2d_43">
    <path clip-path="url(#pc5cd8ddee2)" d="M 231.857463 168.068735 
L 225.095229 168.044269 
L 221.524242 162.295995 
L 218.164264 156.427672 
L 221.356891 150.46092 
L 224.759066 144.616694 
L 231.522844 144.398257 
L 238.285078 144.422723 
L 241.856065 150.170996 
L 245.216043 156.03932 
L 242.023416 162.006071 
L 238.621241 167.850298 
L 231.857463 168.068735 
" style="fill:none;stroke:#ff0000;stroke-linecap:square;stroke-width:1.5;"/>
   </g>
   <g id="line2d_44">
    <path clip-path="url(#pc5cd8ddee2)" d="M 322.590192 180.33097 
L 315.856293 179.659404 
L 309.155818 178.747242 
L 306.370519 172.579851 
L 303.810166 166.321156 
L 307.75861 160.825268 
L 311.8987 155.478359 
L 318.6326 156.149925 
L 325.333075 157.062088 
L 328.118373 163.229479 
L 330.678726 169.488174 
L 326.730282 174.984061 
L 322.590192 180.33097 
" style="fill:none;stroke:#ff0000;stroke-linecap:square;stroke-width:1.5;"/>
   </g>
   <g id="line2d_45">
    <path clip-path="url(#pc5cd8ddee2)" d="M 325.73506 102.34718 
L 319.005285 101.635471 
L 312.310368 100.683367 
L 309.561897 94.499477 
L 307.038911 88.225625 
L 311.020058 82.753381 
L 315.19196 77.431255 
L 321.921735 78.142965 
L 328.616651 79.095068 
L 331.365123 85.278959 
L 333.888108 91.552811 
L 329.906961 97.025055 
L 325.73506 102.34718 
" style="fill:none;stroke:#ff0000;stroke-linecap:square;stroke-width:1.5;"/>
   </g>
   <g id="line2d_46">
    <path clip-path="url(#pc5cd8ddee2)" d="M 327.279599 148.729187 
L 320.823474 146.700676 
L 314.449059 144.443413 
L 312.97777 137.838119 
L 311.745306 131.189232 
L 316.730001 126.612355 
L 321.871997 122.220356 
L 328.328122 124.248867 
L 334.702537 126.50613 
L 336.173825 133.111424 
L 337.40629 139.760311 
L 332.421595 144.337188 
L 327.279599 148.729187 
" style="fill:none;stroke:#ff0000;stroke-linecap:square;stroke-width:1.5;"/>
   </g>
   <g id="line2d_47">
    <path clip-path="url(#pc5cd8ddee2)" d="M 331.90871 206.463015 
L 325.406195 204.588527 
L 318.97993 202.48341 
L 317.352061 195.914951 
L 315.961913 189.297236 
L 320.836417 184.603176 
L 325.87257 180.090201 
L 332.375085 181.964689 
L 338.801351 184.069806 
L 340.429219 190.638265 
L 341.819367 197.25598 
L 336.944864 201.95004 
L 331.90871 206.463015 
" style="fill:none;stroke:#ff0000;stroke-linecap:square;stroke-width:1.5;"/>
   </g>
   <g id="line2d_48">
    <path clip-path="url(#pc5cd8ddee2)" d="M 343.565326 169.237021 
L 336.85456 168.364076 
L 330.18441 167.251643 
L 327.585075 161.003599 
L 325.213318 154.671029 
L 329.324593 149.295863 
L 333.622966 144.075349 
L 340.333731 144.948294 
L 347.003881 146.060726 
L 349.603216 152.30877 
L 351.974973 158.64134 
L 347.863699 164.016506 
L 343.565326 169.237021 
" style="fill:none;stroke:#ff0000;stroke-linecap:square;stroke-width:1.5;"/>
   </g>
   <g id="line2d_49">
    <path clip-path="url(#pc5cd8ddee2)" d="M 335.767557 227.28778 
L 332.157594 221.563903 
L 328.75782 215.718545 
L 331.90983 209.730238 
L 335.272217 203.86303 
L 342.034354 203.59864 
L 348.796598 203.577158 
L 352.406561 209.301035 
L 355.806335 215.146392 
L 352.654325 221.134699 
L 349.291938 227.001908 
L 342.529801 227.266298 
L 335.767557 227.28778 
" style="fill:none;stroke:#ff0000;stroke-linecap:square;stroke-width:1.5;"/>
   </g>
   <g id="patch_37">
    <path d="M 54 252 
L 54 34.56 
" style="fill:none;stroke:#000000;stroke-linecap:square;stroke-linejoin:miter;stroke-width:0.8;"/>
   </g>
   <g id="patch_38">
    <path d="M 388.8 252 
L 388.8 34.56 
" style="fill:none;stroke:#000000;stroke-linecap:square;stroke-linejoin:miter;stroke-width:0.8;"/>
   </g>
   <g id="patch_39">
    <path d="M 54 252 
L 388.8 252 
" style="fill:none;stroke:#000000;stroke-linecap:square;stroke-linejoin:miter;stroke-width:0.8;"/>
   </g>
   <g id="patch_40">
    <path d="M 54 34.56 
L 388.8 34.56 
" style="fill:none;stroke:#000000;stroke-linecap:square;stroke-linejoin:miter;stroke-width:0.8;"/>
   </g>
  </g>
 </g>
 <defs>
  <clipPath id="pc5cd8ddee2">
   <rect height="217.44" width="334.8" x="54" y="34.56"/>
  </clipPath>
 </defs>
</svg>
