<?xml version="1.0" encoding="utf-8" standalone="no"?>
<!DOCTYPE svg PUBLIC "-//W3C//DTD SVG 1.1//EN"
  "http://www.w3.org/Graphics/SVG/1.1/DTD/svg11.dtd">
<!-- Created with matplotlib (https://matplotlib.org/) -->
<svg height="288pt" version="1.1" viewBox="0 0 432 288" width="432pt" xmlns="http://www.w3.org/2000/svg" xmlns:xlink="http://www.w3.org/1999/xlink">
 <defs>
  <style type="text/css">
*{stroke-linecap:butt;stroke-linejoin:round;}
  </style>
 </defs>
 <g id="figure_1">
  <g id="patch_1">
   <path d="M 0 288 
L 432 288 
L 432 0 
L 0 0 
z
" style="fill:#ffffff;"/>
  </g>
  <g id="axes_1">
   <g id="patch_2">
    <path d="M 54 252 
L 388.8 252 
L 388.8 34.56 
L 54 34.56 
z
" style="fill:#ffffff;"/>
   </g>
   <g id="patch_3">
    <path clip-path="url(#p957009adaa)" d="M 69.218182 172.860638 
L 69.218182 227.825455 
L 174.907336 227.825455 
z
" style="fill:#aaaaaa;"/>
   </g>
   <g id="patch_4">
    <path clip-path="url(#p957009adaa)" d="M 105.040687 136.800432 
L 107.85789 170.606875 
L 145.608419 168.916553 
L 140.537452 132.292906 
z
" style="fill:#aaaaaa;"/>
   </g>
   <g id="patch_5">
    <path clip-path="url(#p957009adaa)" d="M 89.827787 58.734545 
L 88.700906 58.734545 
L 97.152516 91.725174 
L 207.412119 122.702872 
L 206.460017 144.125161 
L 276.890108 144.125161 
L 292.666448 58.734545 
L 117.436383 58.734545 
z
" style="fill:#aaaaaa;"/>
   </g>
   <g id="patch_6">
    <path clip-path="url(#p957009adaa)" d="M 79.437205 126.09956 
L 80.846677 98.248216 
L 71.341522 97.757958 
L 69.648298 130.874273 
L 125.190457 133.720036 
L 126.890726 100.608316 
L 118.884974 100.197961 
L 117.456252 128.048319 
z
" style="fill:#f6929c;"/>
   </g>
   <g id="patch_7">
    <path clip-path="url(#p957009adaa)" d="M 327.326324 86.79366 
L 327.308231 58.90668 
L 317.790442 58.903636 
L 317.794669 92.063209 
L 373.409684 92.062025 
L 373.412727 58.90668 
L 365.396465 58.90668 
L 365.395282 86.79366 
z
" style="fill:#f6929c;"/>
   </g>
   <g id="patch_8">
    <path clip-path="url(#p957009adaa)" d="M 326.475198 121.1641 
L 326.711561 93.278116 
L 317.194196 93.188227 
L 316.895858 126.346458 
L 372.508568 126.852735 
L 372.814139 93.698797 
L 364.79821 93.625653 
L 364.542571 121.511461 
z
" style="fill:#f6929c;"/>
   </g>
   <g id="patch_9">
    <path clip-path="url(#p957009adaa)" d="M 326.17003 155.266932 
L 327.147477 127.397082 
L 317.635863 127.054267 
L 316.456334 160.192855 
L 372.035942 162.177056 
L 373.222587 129.042952 
L 365.211434 128.756782 
L 364.214722 156.625945 
z
" style="fill:#f6929c;"/>
   </g>
   <g id="patch_10">
    <path clip-path="url(#p957009adaa)" d="M 326.36017 188.659682 
L 327.337618 160.789831 
L 317.826004 160.447017 
L 316.646475 193.585605 
L 372.226083 195.569805 
L 373.412727 162.435702 
L 365.401575 162.149532 
L 364.404863 190.018694 
z
" style="fill:#f6929c;"/>
   </g>
   <g id="patch_11">
    <path clip-path="url(#p957009adaa)" d="M 362.188839 189.246995 
L 340.211911 188.783345 
L 339.02697 188.26298 
L 338.557044 187.057147 
L 339.020694 165.080219 
L 339.541058 163.895277 
L 340.746892 163.425351 
L 362.72382 163.889001 
L 363.908762 164.409366 
L 364.378688 165.615199 
L 363.915038 187.592127 
L 363.394673 188.777069 
z
" style="fill:#f6929c;"/>
   </g>
   <g id="patch_12">
    <path clip-path="url(#p957009adaa)" d="M 362.44311 85.000725 
L 340.463426 84.694422 
L 339.27479 84.182554 
L 338.796243 82.980116 
L 339.102546 61.000432 
L 339.614414 59.811795 
L 340.816852 59.333248 
L 362.796536 59.639551 
L 363.985173 60.151419 
L 364.46372 61.353857 
L 364.157417 83.333541 
L 363.645549 84.522178 
z
" style="fill:#f6929c;"/>
   </g>
   <g id="patch_13">
    <path clip-path="url(#p957009adaa)" d="M 362.191154 153.06038 
L 340.221047 152.342925 
L 339.042195 151.808909 
L 338.586228 150.597728 
L 339.303683 128.627621 
L 339.837699 127.448769 
L 341.04888 126.992802 
L 363.018986 127.710257 
L 364.197839 128.244273 
L 364.653806 129.455454 
L 363.936351 151.425561 
L 363.402335 152.604413 
z
" style="fill:#f6929c;"/>
   </g>
   <g id="patch_14">
    <path clip-path="url(#p957009adaa)" d="M 340.699797 120.98017 
L 339.494844 120.50799 
L 338.976695 119.322078 
L 338.554131 97.344322 
L 339.026311 96.139368 
L 340.212223 95.62122 
L 362.189979 95.198656 
L 363.394932 95.670835 
L 363.913081 96.856748 
L 364.335645 118.834504 
L 363.863465 120.039457 
L 362.677553 120.557606 
z
" style="fill:#f6929c;"/>
   </g>
   <g id="patch_15">
    <path clip-path="url(#p957009adaa)" d="M 91.42013 113.350593 
L 83.109993 89.386961 
L 84.707568 88.832952 
L 115.091452 96.962816 
L 116.56784 97.689324 
L 117.654997 98.924487 
L 118.188204 100.48116 
L 118.086669 102.123485 
L 117.365777 103.602626 
L 116.134756 104.694469 
z
" style="fill:#f6929c;"/>
   </g>
   <g id="patch_16">
    <path clip-path="url(#p957009adaa)" d="M 76.527885 156.024517 
L 69.538982 131.642776 
L 71.164431 131.17685 
L 101.058931 140.954065 
L 102.493435 141.760126 
L 103.511509 143.052823 
L 103.958898 144.636295 
L 103.767815 146.270623 
L 102.967212 147.708182 
L 101.678395 148.731161 
z
" style="fill:#f6929c;"/>
   </g>
   <g id="patch_17">
    <path clip-path="url(#p957009adaa)" d="M 310.716133 107.692529 
L 284.940245 103.072484 
L 289.49213 78.120643 
L 291.155586 78.424102 
L 313.610807 100.447682 
L 314.53889 101.806432 
L 314.877887 103.416593 
L 314.576435 105.034205 
L 313.680207 106.414174 
L 312.324993 107.347415 
z
" style="fill:#f6929c;"/>
   </g>
   <g id="patch_18">
    <path clip-path="url(#p957009adaa)" d="M 287.304918 129.051534 
L 284.894261 103.802716 
L 286.577515 103.642006 
L 314.17893 118.723019 
L 315.441769 119.7779 
L 316.206181 121.235025 
L 316.356346 122.87362 
L 315.86951 124.445412 
L 314.819435 125.712253 
L 313.365227 126.482197 
z
" style="fill:#f6929c;"/>
   </g>
   <g id="patch_19">
    <path clip-path="url(#p957009adaa)" d="M 295.958225 152.269774 
L 279.167771 133.259391 
L 280.43513 132.140027 
L 311.629687 128.118252 
L 313.271385 128.229451 
L 314.746257 128.959033 
L 315.83084 130.196458 
L 316.3608 131.754239 
L 316.255843 133.396349 
L 315.531872 134.873983 
z
" style="fill:#f6929c;"/>
   </g>
   <g id="patch_20">
    <path clip-path="url(#p957009adaa)" d="M 368.175152 227.03925 
L 342.225328 223.525303 
L 345.706404 198.401686 
L 347.381311 198.633757 
L 370.757475 219.677283 
L 371.742794 220.995117 
L 372.150313 222.589315 
L 371.918286 224.218334 
L 371.081868 225.635354 
L 369.767788 226.625675 
z
" style="fill:#f6929c;"/>
   </g>
   <g id="patch_21">
    <path clip-path="url(#p957009adaa)" d="M 98.004364 158.93488 
L 87.919626 176.356258 
L 87.668023 178.351115 
L 87.842234 179.346317 
L 88.75651 181.137087 
L 89.460428 181.861849 
L 91.22376 182.82798 
L 93.223798 183.034581 
L 119.173536 180.527082 
L 118.797137 176.673915 
L 95.461273 178.927769 
L 94.506518 180.250656 
L 92.997403 180.847175 
L 91.405208 180.533845 
L 90.550757 179.857011 
L 89.876619 178.343938 
L 90.1545 176.693882 
L 90.841954 175.803913 
L 92.36831 175.11824 
L 94.018366 175.396121 
L 95.244018 176.548209 
L 118.574259 174.290652 
L 118.259139 171.103603 
L 105.058596 172.378554 
L 103.812454 171.990257 
L 103.276641 171.157293 
L 103.302291 170.167208 
L 106.265487 164.971006 
L 106.903186 163.093751 
L 106.773957 161.115359 
L 106.423291 160.183022 
L 105.216716 158.609836 
L 104.294831 157.964637 
L 102.447521 157.331039 
L 101.467262 157.291466 
L 99.574891 157.774097 
z
" style="fill:#f6929c;"/>
   </g>
   <g id="patch_22">
    <path clip-path="url(#p957009adaa)" d="M 316.544689 166.145185 
L 314.457641 146.123931 
L 313.488139 144.362448 
L 312.762033 143.659919 
L 310.969518 142.749068 
L 309.973984 142.576761 
L 307.979613 142.832178 
L 306.240401 143.841125 
L 286.725451 161.128207 
L 289.295629 164.023506 
L 306.8455 148.478588 
L 306.839871 146.84716 
L 307.709752 145.477281 
L 309.18184 144.794479 
L 310.270952 144.839504 
L 311.70594 145.666945 
L 312.451438 147.164989 
L 312.418709 148.289074 
L 311.587306 149.741203 
L 310.089263 150.486701 
L 308.420448 150.275541 
L 290.877304 165.820148 
L 293.006229 168.212691 
L 302.933772 159.419301 
L 304.170037 159.000621 
L 305.093226 159.359296 
L 305.654666 160.175207 
L 306.313347 166.120558 
L 306.901404 168.01395 
L 308.169259 169.53818 
L 309.001125 170.086101 
L 310.902122 170.649084 
L 312.027175 170.628867 
L 313.893935 170.055102 
L 314.710085 169.510701 
L 315.956931 168.007579 
z
" style="fill:#f6929c;"/>
   </g>
   <g id="patch_23">
    <path clip-path="url(#p957009adaa)" d="M 333.16541 218.157248 
L 344.878257 201.786067 
L 345.320472 199.824638 
L 345.242743 198.817297 
L 344.504859 196.946927 
L 343.873878 196.157851 
L 342.211592 195.026675 
L 340.24068 194.628755 
L 314.170075 194.629939 
L 314.174302 198.501444 
L 337.618757 198.501444 
L 338.696267 197.27647 
L 340.255738 196.827794 
L 341.810436 197.29274 
L 342.595861 198.048583 
L 343.121416 199.619456 
L 342.686193 201.235155 
L 341.916365 202.054913 
L 340.331161 202.590673 
L 338.715462 202.15545 
L 337.606244 200.890868 
L 314.167031 200.895095 
L 314.174302 204.097677 
L 327.436271 204.097677 
L 328.639313 204.603974 
L 329.092566 205.484591 
L 328.971852 206.467625 
L 325.522839 211.35489 
L 324.707623 213.162143 
L 324.646058 215.143796 
L 324.905469 216.105526 
L 325.955216 217.787421 
L 326.810804 218.518257 
L 328.588646 219.326513 
L 329.56056 219.460141 
L 331.490564 219.16167 
z
" style="fill:#f6929c;"/>
   </g>
   <g id="patch_24">
    <path clip-path="url(#p957009adaa)" d="M 278.040593 167.974345 
L 289.741853 151.59488 
L 290.182679 149.633139 
L 290.104237 148.625853 
L 289.36503 146.756006 
L 288.73349 145.967376 
L 287.070405 144.837377 
L 285.099212 144.440852 
L 259.028614 144.460484 
L 259.035581 148.331985 
L 282.480029 148.315395 
L 283.556672 147.089659 
L 285.115826 146.63988 
L 286.670852 147.103725 
L 287.456812 147.859012 
L 287.983479 149.429513 
L 287.549399 151.04552 
L 286.780151 151.865822 
L 285.195327 152.402703 
L 283.57932 151.968624 
L 282.469208 150.704827 
L 259.030004 150.725641 
L 259.039541 153.928217 
L 272.301507 153.918832 
L 273.504906 154.424278 
L 273.958782 155.304574 
L 273.838764 156.287693 
L 270.39321 161.177397 
L 269.579273 162.985227 
L 269.519111 164.966923 
L 269.779202 165.928469 
L 270.830139 167.60962 
L 271.686244 168.339851 
L 273.464658 169.146849 
L 274.436666 169.279789 
L 276.366458 168.979952 
z
" style="fill:#f6929c;"/>
   </g>
   <g id="patch_25">
    <path clip-path="url(#p957009adaa)" d="M 302.599818 193.6679 
L 316.197734 178.825291 
L 316.872784 176.931336 
L 316.916848 175.921962 
L 316.409417 173.976385 
L 315.877984 173.117108 
L 314.363911 171.794105 
L 312.455212 171.161887 
L 286.573943 168.025585 
L 286.112222 171.869461 
L 309.386284 174.690893 
L 310.603382 173.604495 
L 312.205516 173.346755 
L 313.69296 173.995423 
L 314.381715 174.840295 
L 314.714403 176.462999 
L 314.087901 178.014578 
L 313.225014 178.735733 
L 311.586855 179.076827 
L 310.035276 178.450325 
L 309.086306 177.061445 
L 285.816939 174.24484 
L 285.438741 177.425021 
L 298.604323 179.021038 
L 299.73769 179.668436 
L 300.081671 180.597199 
L 299.843531 181.558561 
L 295.831425 185.995233 
L 294.80464 187.691244 
L 294.50504 189.651085 
L 294.646826 190.637044 
L 295.486535 192.433047 
L 296.247952 193.261538 
L 297.915603 194.277875 
L 298.864372 194.527497 
L 300.816268 194.463462 
z
" style="fill:#f6929c;"/>
   </g>
   <g id="patch_26">
    <path clip-path="url(#p957009adaa)" d="M 314.820131 214.475211 
L 313.092116 194.41978 
L 312.154329 192.641209 
L 311.440925 191.925785 
L 309.665017 190.982965 
L 308.672729 190.79285 
L 306.674103 191.012495 
L 304.917094 191.990121 
L 285.095563 208.924801 
L 287.613457 211.865682 
L 305.439011 196.63768 
L 305.462612 195.006413 
L 306.356896 193.652339 
L 307.840981 192.99602 
L 308.929111 193.06055 
L 310.349045 193.913568 
L 311.067585 195.424727 
L 311.014721 196.548046 
L 310.157436 197.985046 
L 308.646276 198.703586 
L 306.981513 198.462561 
L 289.162689 213.690373 
L 291.248408 216.120673 
L 301.331899 207.506556 
L 302.575467 207.110091 
L 303.492082 207.485248 
L 304.038814 208.311087 
L 304.590872 214.267284 
L 305.144913 216.170908 
L 306.385257 217.717609 
L 307.207173 218.280346 
L 309.097779 218.877295 
L 310.223013 218.877238 
L 312.099753 218.33701 
L 312.925526 217.807318 
L 314.199101 216.326776 
z
" style="fill:#f6929c;"/>
   </g>
   <g id="patch_27">
    <path clip-path="url(#p957009adaa)" d="M 286.323795 202.620491 
L 295.40046 184.653285 
L 295.538097 182.64734 
L 295.307516 181.663669 
L 294.292782 179.927848 
L 293.548749 179.244332 
L 291.733278 178.380146 
L 289.724723 178.287733 
L 263.959805 182.268367 
L 264.554936 186.093859 
L 287.724659 182.515255 
L 288.60256 181.140163 
L 290.07527 180.458704 
L 291.682719 180.68089 
L 292.574314 181.307987 
L 293.333491 182.78023 
L 293.149991 184.443429 
L 292.514313 185.371089 
L 291.029465 186.142538 
L 289.366266 185.959039 
L 288.077019 184.878589 
L 264.913122 188.46057 
L 265.409155 191.624513 
L 278.515715 189.600182 
L 279.78194 189.916912 
L 280.364301 190.718024 
L 280.395054 191.707964 
L 277.732459 197.064421 
L 277.202658 198.974933 
L 277.444298 200.942761 
L 277.847469 201.853624 
L 279.141642 203.355574 
L 280.09876 203.947248 
L 281.979143 204.47466 
L 282.960065 204.458367 
L 284.821893 203.868794 
z
" style="fill:#f6929c;"/>
   </g>
   <g id="patch_28">
    <path clip-path="url(#p957009adaa)" d="M 313.128807 85.260568 
L 292.546313 62.775187 
L 317.612727 58.903636 
z
" style="fill:#f6929c;"/>
   </g>
   <g id="patch_29">
    <path clip-path="url(#p957009adaa)" d="M 262.203713 179.772133 
L 247.089958 153.299396 
L 272.392817 155.054214 
z
" style="fill:#f6929c;"/>
   </g>
   <g id="patch_30">
    <path clip-path="url(#p957009adaa)" d="M 241.456308 169.658182 
L 224.547217 144.294545 
L 249.910853 144.294545 
z
" style="fill:#f6929c;"/>
   </g>
   <g id="patch_31">
    <path clip-path="url(#p957009adaa)" d="M 270.821763 217.172727 
L 253.912672 191.809091 
L 279.276308 191.809091 
z
" style="fill:#f6929c;"/>
   </g>
   <g id="patch_32">
    <path clip-path="url(#p957009adaa)" d="M 268.92431 227.176959 
L 276.681225 201.591345 
L 294.278438 226.482498 
z
" style="fill:#f6929c;"/>
   </g>
   <g id="matplotlib.axis_1">
    <g id="xtick_1">
     <g id="line2d_1">
      <defs>
       <path d="M 0 0 
L 0 3.5 
" id="mebe3880781" style="stroke:#000000;stroke-width:0.8;"/>
      </defs>
      <g>
       <use style="stroke:#000000;stroke-width:0.8;" x="69.218182" xlink:href="#mebe3880781" y="252"/>
      </g>
     </g>
     <g id="text_1">
      <!-- 0 -->
      <defs>
       <path d="M 31.78125 66.40625 
Q 24.171875 66.40625 20.328125 58.90625 
Q 16.5 51.421875 16.5 36.375 
Q 16.5 21.390625 20.328125 13.890625 
Q 24.171875 6.390625 31.78125 6.390625 
Q 39.453125 6.390625 43.28125 13.890625 
Q 47.125 21.390625 47.125 36.375 
Q 47.125 51.421875 43.28125 58.90625 
Q 39.453125 66.40625 31.78125 66.40625 
z
M 31.78125 74.21875 
Q 44.046875 74.21875 50.515625 64.515625 
Q 56.984375 54.828125 56.984375 36.375 
Q 56.984375 17.96875 50.515625 8.265625 
Q 44.046875 -1.421875 31.78125 -1.421875 
Q 19.53125 -1.421875 13.0625 8.265625 
Q 6.59375 17.96875 6.59375 36.375 
Q 6.59375 54.828125 13.0625 64.515625 
Q 19.53125 74.21875 31.78125 74.21875 
z
" id="DejaVuSans-48"/>
      </defs>
      <g transform="translate(66.036932 266.598437)scale(0.1 -0.1)">
       <use xlink:href="#DejaVuSans-48"/>
      </g>
     </g>
    </g>
    <g id="xtick_2">
     <g id="line2d_2">
      <g>
       <use style="stroke:#000000;stroke-width:0.8;" x="111.490909" xlink:href="#mebe3880781" y="252"/>
      </g>
     </g>
     <g id="text_2">
      <!-- 250 -->
      <defs>
       <path d="M 19.1875 8.296875 
L 53.609375 8.296875 
L 53.609375 0 
L 7.328125 0 
L 7.328125 8.296875 
Q 12.9375 14.109375 22.625 23.890625 
Q 32.328125 33.6875 34.8125 36.53125 
Q 39.546875 41.84375 41.421875 45.53125 
Q 43.3125 49.21875 43.3125 52.78125 
Q 43.3125 58.59375 39.234375 62.25 
Q 35.15625 65.921875 28.609375 65.921875 
Q 23.96875 65.921875 18.8125 64.3125 
Q 13.671875 62.703125 7.8125 59.421875 
L 7.8125 69.390625 
Q 13.765625 71.78125 18.9375 73 
Q 24.125 74.21875 28.421875 74.21875 
Q 39.75 74.21875 46.484375 68.546875 
Q 53.21875 62.890625 53.21875 53.421875 
Q 53.21875 48.921875 51.53125 44.890625 
Q 49.859375 40.875 45.40625 35.40625 
Q 44.1875 33.984375 37.640625 27.21875 
Q 31.109375 20.453125 19.1875 8.296875 
z
" id="DejaVuSans-50"/>
       <path d="M 10.796875 72.90625 
L 49.515625 72.90625 
L 49.515625 64.59375 
L 19.828125 64.59375 
L 19.828125 46.734375 
Q 21.96875 47.46875 24.109375 47.828125 
Q 26.265625 48.1875 28.421875 48.1875 
Q 40.625 48.1875 47.75 41.5 
Q 54.890625 34.8125 54.890625 23.390625 
Q 54.890625 11.625 47.5625 5.09375 
Q 40.234375 -1.421875 26.90625 -1.421875 
Q 22.3125 -1.421875 17.546875 -0.640625 
Q 12.796875 0.140625 7.71875 1.703125 
L 7.71875 11.625 
Q 12.109375 9.234375 16.796875 8.0625 
Q 21.484375 6.890625 26.703125 6.890625 
Q 35.15625 6.890625 40.078125 11.328125 
Q 45.015625 15.765625 45.015625 23.390625 
Q 45.015625 31 40.078125 35.4375 
Q 35.15625 39.890625 26.703125 39.890625 
Q 22.75 39.890625 18.8125 39.015625 
Q 14.890625 38.140625 10.796875 36.28125 
z
" id="DejaVuSans-53"/>
      </defs>
      <g transform="translate(101.947159 266.598437)scale(0.1 -0.1)">
       <use xlink:href="#DejaVuSans-50"/>
       <use x="63.623047" xlink:href="#DejaVuSans-53"/>
       <use x="127.246094" xlink:href="#DejaVuSans-48"/>
      </g>
     </g>
    </g>
    <g id="xtick_3">
     <g id="line2d_3">
      <g>
       <use style="stroke:#000000;stroke-width:0.8;" x="153.763636" xlink:href="#mebe3880781" y="252"/>
      </g>
     </g>
     <g id="text_3">
      <!-- 500 -->
      <g transform="translate(144.219886 266.598437)scale(0.1 -0.1)">
       <use xlink:href="#DejaVuSans-53"/>
       <use x="63.623047" xlink:href="#DejaVuSans-48"/>
       <use x="127.246094" xlink:href="#DejaVuSans-48"/>
      </g>
     </g>
    </g>
    <g id="xtick_4">
     <g id="line2d_4">
      <g>
       <use style="stroke:#000000;stroke-width:0.8;" x="196.036364" xlink:href="#mebe3880781" y="252"/>
      </g>
     </g>
     <g id="text_4">
      <!-- 750 -->
      <defs>
       <path d="M 8.203125 72.90625 
L 55.078125 72.90625 
L 55.078125 68.703125 
L 28.609375 0 
L 18.3125 0 
L 43.21875 64.59375 
L 8.203125 64.59375 
z
" id="DejaVuSans-55"/>
      </defs>
      <g transform="translate(186.492614 266.598437)scale(0.1 -0.1)">
       <use xlink:href="#DejaVuSans-55"/>
       <use x="63.623047" xlink:href="#DejaVuSans-53"/>
       <use x="127.246094" xlink:href="#DejaVuSans-48"/>
      </g>
     </g>
    </g>
    <g id="xtick_5">
     <g id="line2d_5">
      <g>
       <use style="stroke:#000000;stroke-width:0.8;" x="238.309091" xlink:href="#mebe3880781" y="252"/>
      </g>
     </g>
     <g id="text_5">
      <!-- 1000 -->
      <defs>
       <path d="M 12.40625 8.296875 
L 28.515625 8.296875 
L 28.515625 63.921875 
L 10.984375 60.40625 
L 10.984375 69.390625 
L 28.421875 72.90625 
L 38.28125 72.90625 
L 38.28125 8.296875 
L 54.390625 8.296875 
L 54.390625 0 
L 12.40625 0 
z
" id="DejaVuSans-49"/>
      </defs>
      <g transform="translate(225.584091 266.598437)scale(0.1 -0.1)">
       <use xlink:href="#DejaVuSans-49"/>
       <use x="63.623047" xlink:href="#DejaVuSans-48"/>
       <use x="127.246094" xlink:href="#DejaVuSans-48"/>
       <use x="190.869141" xlink:href="#DejaVuSans-48"/>
      </g>
     </g>
    </g>
    <g id="xtick_6">
     <g id="line2d_6">
      <g>
       <use style="stroke:#000000;stroke-width:0.8;" x="280.581818" xlink:href="#mebe3880781" y="252"/>
      </g>
     </g>
     <g id="text_6">
      <!-- 1250 -->
      <g transform="translate(267.856818 266.598437)scale(0.1 -0.1)">
       <use xlink:href="#DejaVuSans-49"/>
       <use x="63.623047" xlink:href="#DejaVuSans-50"/>
       <use x="127.246094" xlink:href="#DejaVuSans-53"/>
       <use x="190.869141" xlink:href="#DejaVuSans-48"/>
      </g>
     </g>
    </g>
    <g id="xtick_7">
     <g id="line2d_7">
      <g>
       <use style="stroke:#000000;stroke-width:0.8;" x="322.854545" xlink:href="#mebe3880781" y="252"/>
      </g>
     </g>
     <g id="text_7">
      <!-- 1500 -->
      <g transform="translate(310.129545 266.598437)scale(0.1 -0.1)">
       <use xlink:href="#DejaVuSans-49"/>
       <use x="63.623047" xlink:href="#DejaVuSans-53"/>
       <use x="127.246094" xlink:href="#DejaVuSans-48"/>
       <use x="190.869141" xlink:href="#DejaVuSans-48"/>
      </g>
     </g>
    </g>
    <g id="xtick_8">
     <g id="line2d_8">
      <g>
       <use style="stroke:#000000;stroke-width:0.8;" x="365.127273" xlink:href="#mebe3880781" y="252"/>
      </g>
     </g>
     <g id="text_8">
      <!-- 1750 -->
      <g transform="translate(352.402273 266.598437)scale(0.1 -0.1)">
       <use xlink:href="#DejaVuSans-49"/>
       <use x="63.623047" xlink:href="#DejaVuSans-55"/>
       <use x="127.246094" xlink:href="#DejaVuSans-53"/>
       <use x="190.869141" xlink:href="#DejaVuSans-48"/>
      </g>
     </g>
    </g>
   </g>
   <g id="matplotlib.axis_2">
    <g id="ytick_1">
     <g id="line2d_9">
      <defs>
       <path d="M 0 0 
L -3.5 0 
" id="m7303707db1" style="stroke:#000000;stroke-width:0.8;"/>
      </defs>
      <g>
       <use style="stroke:#000000;stroke-width:0.8;" x="54" xlink:href="#m7303707db1" y="227.825455"/>
      </g>
     </g>
     <g id="text_9">
      <!-- 0 -->
      <g transform="translate(40.6375 231.624673)scale(0.1 -0.1)">
       <use xlink:href="#DejaVuSans-48"/>
      </g>
     </g>
    </g>
    <g id="ytick_2">
     <g id="line2d_10">
      <g>
       <use style="stroke:#000000;stroke-width:0.8;" x="54" xlink:href="#m7303707db1" y="194.007273"/>
      </g>
     </g>
     <g id="text_10">
      <!-- 200 -->
      <g transform="translate(27.9125 197.806491)scale(0.1 -0.1)">
       <use xlink:href="#DejaVuSans-50"/>
       <use x="63.623047" xlink:href="#DejaVuSans-48"/>
       <use x="127.246094" xlink:href="#DejaVuSans-48"/>
      </g>
     </g>
    </g>
    <g id="ytick_3">
     <g id="line2d_11">
      <g>
       <use style="stroke:#000000;stroke-width:0.8;" x="54" xlink:href="#m7303707db1" y="160.189091"/>
      </g>
     </g>
     <g id="text_11">
      <!-- 400 -->
      <defs>
       <path d="M 37.796875 64.3125 
L 12.890625 25.390625 
L 37.796875 25.390625 
z
M 35.203125 72.90625 
L 47.609375 72.90625 
L 47.609375 25.390625 
L 58.015625 25.390625 
L 58.015625 17.1875 
L 47.609375 17.1875 
L 47.609375 0 
L 37.796875 0 
L 37.796875 17.1875 
L 4.890625 17.1875 
L 4.890625 26.703125 
z
" id="DejaVuSans-52"/>
      </defs>
      <g transform="translate(27.9125 163.98831)scale(0.1 -0.1)">
       <use xlink:href="#DejaVuSans-52"/>
       <use x="63.623047" xlink:href="#DejaVuSans-48"/>
       <use x="127.246094" xlink:href="#DejaVuSans-48"/>
      </g>
     </g>
    </g>
    <g id="ytick_4">
     <g id="line2d_12">
      <g>
       <use style="stroke:#000000;stroke-width:0.8;" x="54" xlink:href="#m7303707db1" y="126.370909"/>
      </g>
     </g>
     <g id="text_12">
      <!-- 600 -->
      <defs>
       <path d="M 33.015625 40.375 
Q 26.375 40.375 22.484375 35.828125 
Q 18.609375 31.296875 18.609375 23.390625 
Q 18.609375 15.53125 22.484375 10.953125 
Q 26.375 6.390625 33.015625 6.390625 
Q 39.65625 6.390625 43.53125 10.953125 
Q 47.40625 15.53125 47.40625 23.390625 
Q 47.40625 31.296875 43.53125 35.828125 
Q 39.65625 40.375 33.015625 40.375 
z
M 52.59375 71.296875 
L 52.59375 62.3125 
Q 48.875 64.0625 45.09375 64.984375 
Q 41.3125 65.921875 37.59375 65.921875 
Q 27.828125 65.921875 22.671875 59.328125 
Q 17.53125 52.734375 16.796875 39.40625 
Q 19.671875 43.65625 24.015625 45.921875 
Q 28.375 48.1875 33.59375 48.1875 
Q 44.578125 48.1875 50.953125 41.515625 
Q 57.328125 34.859375 57.328125 23.390625 
Q 57.328125 12.15625 50.6875 5.359375 
Q 44.046875 -1.421875 33.015625 -1.421875 
Q 20.359375 -1.421875 13.671875 8.265625 
Q 6.984375 17.96875 6.984375 36.375 
Q 6.984375 53.65625 15.1875 63.9375 
Q 23.390625 74.21875 37.203125 74.21875 
Q 40.921875 74.21875 44.703125 73.484375 
Q 48.484375 72.75 52.59375 71.296875 
z
" id="DejaVuSans-54"/>
      </defs>
      <g transform="translate(27.9125 130.170128)scale(0.1 -0.1)">
       <use xlink:href="#DejaVuSans-54"/>
       <use x="63.623047" xlink:href="#DejaVuSans-48"/>
       <use x="127.246094" xlink:href="#DejaVuSans-48"/>
      </g>
     </g>
    </g>
    <g id="ytick_5">
     <g id="line2d_13">
      <g>
       <use style="stroke:#000000;stroke-width:0.8;" x="54" xlink:href="#m7303707db1" y="92.552727"/>
      </g>
     </g>
     <g id="text_13">
      <!-- 800 -->
      <defs>
       <path d="M 31.78125 34.625 
Q 24.75 34.625 20.71875 30.859375 
Q 16.703125 27.09375 16.703125 20.515625 
Q 16.703125 13.921875 20.71875 10.15625 
Q 24.75 6.390625 31.78125 6.390625 
Q 38.8125 6.390625 42.859375 10.171875 
Q 46.921875 13.96875 46.921875 20.515625 
Q 46.921875 27.09375 42.890625 30.859375 
Q 38.875 34.625 31.78125 34.625 
z
M 21.921875 38.8125 
Q 15.578125 40.375 12.03125 44.71875 
Q 8.5 49.078125 8.5 55.328125 
Q 8.5 64.0625 14.71875 69.140625 
Q 20.953125 74.21875 31.78125 74.21875 
Q 42.671875 74.21875 48.875 69.140625 
Q 55.078125 64.0625 55.078125 55.328125 
Q 55.078125 49.078125 51.53125 44.71875 
Q 48 40.375 41.703125 38.8125 
Q 48.828125 37.15625 52.796875 32.3125 
Q 56.78125 27.484375 56.78125 20.515625 
Q 56.78125 9.90625 50.3125 4.234375 
Q 43.84375 -1.421875 31.78125 -1.421875 
Q 19.734375 -1.421875 13.25 4.234375 
Q 6.78125 9.90625 6.78125 20.515625 
Q 6.78125 27.484375 10.78125 32.3125 
Q 14.796875 37.15625 21.921875 38.8125 
z
M 18.3125 54.390625 
Q 18.3125 48.734375 21.84375 45.5625 
Q 25.390625 42.390625 31.78125 42.390625 
Q 38.140625 42.390625 41.71875 45.5625 
Q 45.3125 48.734375 45.3125 54.390625 
Q 45.3125 60.0625 41.71875 63.234375 
Q 38.140625 66.40625 31.78125 66.40625 
Q 25.390625 66.40625 21.84375 63.234375 
Q 18.3125 60.0625 18.3125 54.390625 
z
" id="DejaVuSans-56"/>
      </defs>
      <g transform="translate(27.9125 96.351946)scale(0.1 -0.1)">
       <use xlink:href="#DejaVuSans-56"/>
       <use x="63.623047" xlink:href="#DejaVuSans-48"/>
       <use x="127.246094" xlink:href="#DejaVuSans-48"/>
      </g>
     </g>
    </g>
    <g id="ytick_6">
     <g id="line2d_14">
      <g>
       <use style="stroke:#000000;stroke-width:0.8;" x="54" xlink:href="#m7303707db1" y="58.734545"/>
      </g>
     </g>
     <g id="text_14">
      <!-- 1000 -->
      <g transform="translate(21.55 62.533764)scale(0.1 -0.1)">
       <use xlink:href="#DejaVuSans-49"/>
       <use x="63.623047" xlink:href="#DejaVuSans-48"/>
       <use x="127.246094" xlink:href="#DejaVuSans-48"/>
       <use x="190.869141" xlink:href="#DejaVuSans-48"/>
      </g>
     </g>
    </g>
   </g>
   <g id="line2d_15">
    <path clip-path="url(#p957009adaa)" d="M 69.218182 227.825455 
L 373.581818 227.825455 
L 373.581818 58.734545 
L 69.218182 58.734545 
L 69.218182 227.825455 
" style="fill:none;stroke:#000000;stroke-linecap:square;stroke-width:1.5;"/>
   </g>
   <g id="line2d_16">
    <path clip-path="url(#p957009adaa)" d="M 69.218182 172.860638 
L 69.218182 227.825455 
L 174.907336 227.825455 
L 69.218182 172.860638 
" style="fill:none;stroke:#000000;stroke-dasharray:5.55,2.4;stroke-dashoffset:0;stroke-width:1.5;"/>
   </g>
   <g id="line2d_17">
    <path clip-path="url(#p957009adaa)" d="M 105.040687 136.800432 
L 107.85789 170.606875 
L 145.608419 168.916553 
L 140.537452 132.292906 
L 105.040687 136.800432 
" style="fill:none;stroke:#000000;stroke-dasharray:5.55,2.4;stroke-dashoffset:0;stroke-width:1.5;"/>
   </g>
   <g id="line2d_18">
    <path clip-path="url(#p957009adaa)" d="M 89.827787 58.734545 
L 88.700906 58.734545 
L 97.152516 91.725174 
L 207.412119 122.702872 
L 206.460017 144.125161 
L 276.890108 144.125161 
L 292.666448 58.734545 
L 117.436383 58.734545 
L 89.827787 58.734545 
" style="fill:none;stroke:#000000;stroke-dasharray:5.55,2.4;stroke-dashoffset:0;stroke-width:1.5;"/>
   </g>
   <g id="line2d_19">
    <path clip-path="url(#p957009adaa)" d="M 79.437205 126.09956 
L 80.846677 98.248216 
L 71.341522 97.757958 
L 69.648298 130.874273 
L 125.190457 133.720036 
L 126.890726 100.608316 
L 118.884974 100.197961 
L 117.456252 128.048319 
L 79.437205 126.09956 
" style="fill:none;stroke:#ff0000;stroke-linecap:square;stroke-width:1.5;"/>
   </g>
   <g id="line2d_20">
    <path clip-path="url(#p957009adaa)" d="M 327.326324 86.79366 
L 327.308231 58.90668 
L 317.790442 58.903636 
L 317.794669 92.063209 
L 373.409684 92.062025 
L 373.412727 58.90668 
L 365.396465 58.90668 
L 365.395282 86.79366 
L 327.326324 86.79366 
" style="fill:none;stroke:#ff0000;stroke-linecap:square;stroke-width:1.5;"/>
   </g>
   <g id="line2d_21">
    <path clip-path="url(#p957009adaa)" d="M 326.475198 121.1641 
L 326.711561 93.278116 
L 317.194196 93.188227 
L 316.895858 126.346458 
L 372.508568 126.852735 
L 372.814139 93.698797 
L 364.79821 93.625653 
L 364.542571 121.511461 
L 326.475198 121.1641 
" style="fill:none;stroke:#ff0000;stroke-linecap:square;stroke-width:1.5;"/>
   </g>
   <g id="line2d_22">
    <path clip-path="url(#p957009adaa)" d="M 326.17003 155.266932 
L 327.147477 127.397082 
L 317.635863 127.054267 
L 316.456334 160.192855 
L 372.035942 162.177056 
L 373.222587 129.042952 
L 365.211434 128.756782 
L 364.214722 156.625945 
L 326.17003 155.266932 
" style="fill:none;stroke:#ff0000;stroke-linecap:square;stroke-width:1.5;"/>
   </g>
   <g id="line2d_23">
    <path clip-path="url(#p957009adaa)" d="M 326.36017 188.659682 
L 327.337618 160.789831 
L 317.826004 160.447017 
L 316.646475 193.585605 
L 372.226083 195.569805 
L 373.412727 162.435702 
L 365.401575 162.149532 
L 364.404863 190.018694 
L 326.36017 188.659682 
" style="fill:none;stroke:#ff0000;stroke-linecap:square;stroke-width:1.5;"/>
   </g>
   <g id="line2d_24">
    <path clip-path="url(#p957009adaa)" d="M 362.188839 189.246995 
L 340.211911 188.783345 
L 339.02697 188.26298 
L 338.557044 187.057147 
L 339.020694 165.080219 
L 339.541058 163.895277 
L 340.746892 163.425351 
L 362.72382 163.889001 
L 363.908762 164.409366 
L 364.378688 165.615199 
L 363.915038 187.592127 
L 363.394673 188.777069 
L 362.188839 189.246995 
" style="fill:none;stroke:#ff0000;stroke-linecap:square;stroke-width:1.5;"/>
   </g>
   <g id="line2d_25">
    <path clip-path="url(#p957009adaa)" d="M 362.44311 85.000725 
L 340.463426 84.694422 
L 339.27479 84.182554 
L 338.796243 82.980116 
L 339.102546 61.000432 
L 339.614414 59.811795 
L 340.816852 59.333248 
L 362.796536 59.639551 
L 363.985173 60.151419 
L 364.46372 61.353857 
L 364.157417 83.333541 
L 363.645549 84.522178 
L 362.44311 85.000725 
" style="fill:none;stroke:#ff0000;stroke-linecap:square;stroke-width:1.5;"/>
   </g>
   <g id="line2d_26">
    <path clip-path="url(#p957009adaa)" d="M 362.191154 153.06038 
L 340.221047 152.342925 
L 339.042195 151.808909 
L 338.586228 150.597728 
L 339.303683 128.627621 
L 339.837699 127.448769 
L 341.04888 126.992802 
L 363.018986 127.710257 
L 364.197839 128.244273 
L 364.653806 129.455454 
L 363.936351 151.425561 
L 363.402335 152.604413 
L 362.191154 153.06038 
" style="fill:none;stroke:#ff0000;stroke-linecap:square;stroke-width:1.5;"/>
   </g>
   <g id="line2d_27">
    <path clip-path="url(#p957009adaa)" d="M 340.699797 120.98017 
L 339.494844 120.50799 
L 338.976695 119.322078 
L 338.554131 97.344322 
L 339.026311 96.139368 
L 340.212223 95.62122 
L 362.189979 95.198656 
L 363.394932 95.670835 
L 363.913081 96.856748 
L 364.335645 118.834504 
L 363.863465 120.039457 
L 362.677553 120.557606 
L 340.699797 120.98017 
" style="fill:none;stroke:#ff0000;stroke-linecap:square;stroke-width:1.5;"/>
   </g>
   <g id="line2d_28">
    <path clip-path="url(#p957009adaa)" d="M 91.42013 113.350593 
L 83.109993 89.386961 
L 84.707568 88.832952 
L 115.091452 96.962816 
L 116.56784 97.689324 
L 117.654997 98.924487 
L 118.188204 100.48116 
L 118.086669 102.123485 
L 117.365777 103.602626 
L 116.134756 104.694469 
L 91.42013 113.350593 
" style="fill:none;stroke:#ff0000;stroke-linecap:square;stroke-width:1.5;"/>
   </g>
   <g id="line2d_29">
    <path clip-path="url(#p957009adaa)" d="M 76.527885 156.024517 
L 69.538982 131.642776 
L 71.164431 131.17685 
L 101.058931 140.954065 
L 102.493435 141.760126 
L 103.511509 143.052823 
L 103.958898 144.636295 
L 103.767815 146.270623 
L 102.967212 147.708182 
L 101.678395 148.731161 
L 76.527885 156.024517 
" style="fill:none;stroke:#ff0000;stroke-linecap:square;stroke-width:1.5;"/>
   </g>
   <g id="line2d_30">
    <path clip-path="url(#p957009adaa)" d="M 310.716133 107.692529 
L 284.940245 103.072484 
L 289.49213 78.120643 
L 291.155586 78.424102 
L 313.610807 100.447682 
L 314.53889 101.806432 
L 314.877887 103.416593 
L 314.576435 105.034205 
L 313.680207 106.414174 
L 312.324993 107.347415 
L 310.716133 107.692529 
" style="fill:none;stroke:#ff0000;stroke-linecap:square;stroke-width:1.5;"/>
   </g>
   <g id="line2d_31">
    <path clip-path="url(#p957009adaa)" d="M 287.304918 129.051534 
L 284.894261 103.802716 
L 286.577515 103.642006 
L 314.17893 118.723019 
L 315.441769 119.7779 
L 316.206181 121.235025 
L 316.356346 122.87362 
L 315.86951 124.445412 
L 314.819435 125.712253 
L 313.365227 126.482197 
L 287.304918 129.051534 
" style="fill:none;stroke:#ff0000;stroke-linecap:square;stroke-width:1.5;"/>
   </g>
   <g id="line2d_32">
    <path clip-path="url(#p957009adaa)" d="M 295.958225 152.269774 
L 279.167771 133.259391 
L 280.43513 132.140027 
L 311.629687 128.118252 
L 313.271385 128.229451 
L 314.746257 128.959033 
L 315.83084 130.196458 
L 316.3608 131.754239 
L 316.255843 133.396349 
L 315.531872 134.873983 
L 295.958225 152.269774 
" style="fill:none;stroke:#ff0000;stroke-linecap:square;stroke-width:1.5;"/>
   </g>
   <g id="line2d_33">
    <path clip-path="url(#p957009adaa)" d="M 368.175152 227.03925 
L 342.225328 223.525303 
L 345.706404 198.401686 
L 347.381311 198.633757 
L 370.757475 219.677283 
L 371.742794 220.995117 
L 372.150313 222.589315 
L 371.918286 224.218334 
L 371.081868 225.635354 
L 369.767788 226.625675 
L 368.175152 227.03925 
" style="fill:none;stroke:#ff0000;stroke-linecap:square;stroke-width:1.5;"/>
   </g>
   <g id="line2d_34">
    <path clip-path="url(#p957009adaa)" d="M 98.004364 158.93488 
L 87.919626 176.356258 
L 87.668023 178.351115 
L 87.842234 179.346317 
L 88.75651 181.137087 
L 89.460428 181.861849 
L 91.22376 182.82798 
L 93.223798 183.034581 
L 119.173536 180.527082 
L 118.797137 176.673915 
L 95.461273 178.927769 
L 94.506518 180.250656 
L 92.997403 180.847175 
L 91.405208 180.533845 
L 90.550757 179.857011 
L 89.876619 178.343938 
L 90.1545 176.693882 
L 90.841954 175.803913 
L 92.36831 175.11824 
L 94.018366 175.396121 
L 95.244018 176.548209 
L 118.574259 174.290652 
L 118.259139 171.103603 
L 105.058596 172.378554 
L 103.812454 171.990257 
L 103.276641 171.157293 
L 103.302291 170.167208 
L 106.265487 164.971006 
L 106.903186 163.093751 
L 106.773957 161.115359 
L 106.423291 160.183022 
L 105.216716 158.609836 
L 104.294831 157.964637 
L 102.447521 157.331039 
L 101.467262 157.291466 
L 99.574891 157.774097 
L 98.004364 158.93488 
" style="fill:none;stroke:#ff0000;stroke-linecap:square;stroke-width:1.5;"/>
   </g>
   <g id="line2d_35">
    <path clip-path="url(#p957009adaa)" d="M 316.544689 166.145185 
L 314.457641 146.123931 
L 313.488139 144.362448 
L 312.762033 143.659919 
L 310.969518 142.749068 
L 309.973984 142.576761 
L 307.979613 142.832178 
L 306.240401 143.841125 
L 286.725451 161.128207 
L 289.295629 164.023506 
L 306.8455 148.478588 
L 306.839871 146.84716 
L 307.709752 145.477281 
L 309.18184 144.794479 
L 310.270952 144.839504 
L 311.70594 145.666945 
L 312.451438 147.164989 
L 312.418709 148.289074 
L 311.587306 149.741203 
L 310.089263 150.486701 
L 308.420448 150.275541 
L 290.877304 165.820148 
L 293.006229 168.212691 
L 302.933772 159.419301 
L 304.170037 159.000621 
L 305.093226 159.359296 
L 305.654666 160.175207 
L 306.313347 166.120558 
L 306.901404 168.01395 
L 308.169259 169.53818 
L 309.001125 170.086101 
L 310.902122 170.649084 
L 312.027175 170.628867 
L 313.893935 170.055102 
L 314.710085 169.510701 
L 315.956931 168.007579 
L 316.544689 166.145185 
" style="fill:none;stroke:#ff0000;stroke-linecap:square;stroke-width:1.5;"/>
   </g>
   <g id="line2d_36">
    <path clip-path="url(#p957009adaa)" d="M 333.16541 218.157248 
L 344.878257 201.786067 
L 345.320472 199.824638 
L 345.242743 198.817297 
L 344.504859 196.946927 
L 343.873878 196.157851 
L 342.211592 195.026675 
L 340.24068 194.628755 
L 314.170075 194.629939 
L 314.174302 198.501444 
L 337.618757 198.501444 
L 338.696267 197.27647 
L 340.255738 196.827794 
L 341.810436 197.29274 
L 342.595861 198.048583 
L 343.121416 199.619456 
L 342.686193 201.235155 
L 341.916365 202.054913 
L 340.331161 202.590673 
L 338.715462 202.15545 
L 337.606244 200.890868 
L 314.167031 200.895095 
L 314.174302 204.097677 
L 327.436271 204.097677 
L 328.639313 204.603974 
L 329.092566 205.484591 
L 328.971852 206.467625 
L 325.522839 211.35489 
L 324.707623 213.162143 
L 324.646058 215.143796 
L 324.905469 216.105526 
L 325.955216 217.787421 
L 326.810804 218.518257 
L 328.588646 219.326513 
L 329.56056 219.460141 
L 331.490564 219.16167 
L 333.16541 218.157248 
" style="fill:none;stroke:#ff0000;stroke-linecap:square;stroke-width:1.5;"/>
   </g>
   <g id="line2d_37">
    <path clip-path="url(#p957009adaa)" d="M 278.040593 167.974345 
L 289.741853 151.59488 
L 290.182679 149.633139 
L 290.104237 148.625853 
L 289.36503 146.756006 
L 288.73349 145.967376 
L 287.070405 144.837377 
L 285.099212 144.440852 
L 259.028614 144.460484 
L 259.035581 148.331985 
L 282.480029 148.315395 
L 283.556672 147.089659 
L 285.115826 146.63988 
L 286.670852 147.103725 
L 287.456812 147.859012 
L 287.983479 149.429513 
L 287.549399 151.04552 
L 286.780151 151.865822 
L 285.195327 152.402703 
L 283.57932 151.968624 
L 282.469208 150.704827 
L 259.030004 150.725641 
L 259.039541 153.928217 
L 272.301507 153.918832 
L 273.504906 154.424278 
L 273.958782 155.304574 
L 273.838764 156.287693 
L 270.39321 161.177397 
L 269.579273 162.985227 
L 269.519111 164.966923 
L 269.779202 165.928469 
L 270.830139 167.60962 
L 271.686244 168.339851 
L 273.464658 169.146849 
L 274.436666 169.279789 
L 276.366458 168.979952 
L 278.040593 167.974345 
" style="fill:none;stroke:#ff0000;stroke-linecap:square;stroke-width:1.5;"/>
   </g>
   <g id="line2d_38">
    <path clip-path="url(#p957009adaa)" d="M 302.599818 193.6679 
L 316.197734 178.825291 
L 316.872784 176.931336 
L 316.916848 175.921962 
L 316.409417 173.976385 
L 315.877984 173.117108 
L 314.363911 171.794105 
L 312.455212 171.161887 
L 286.573943 168.025585 
L 286.112222 171.869461 
L 309.386284 174.690893 
L 310.603382 173.604495 
L 312.205516 173.346755 
L 313.69296 173.995423 
L 314.381715 174.840295 
L 314.714403 176.462999 
L 314.087901 178.014578 
L 313.225014 178.735733 
L 311.586855 179.076827 
L 310.035276 178.450325 
L 309.086306 177.061445 
L 285.816939 174.24484 
L 285.438741 177.425021 
L 298.604323 179.021038 
L 299.73769 179.668436 
L 300.081671 180.597199 
L 299.843531 181.558561 
L 295.831425 185.995233 
L 294.80464 187.691244 
L 294.50504 189.651085 
L 294.646826 190.637044 
L 295.486535 192.433047 
L 296.247952 193.261538 
L 297.915603 194.277875 
L 298.864372 194.527497 
L 300.816268 194.463462 
L 302.599818 193.6679 
" style="fill:none;stroke:#ff0000;stroke-linecap:square;stroke-width:1.5;"/>
   </g>
   <g id="line2d_39">
    <path clip-path="url(#p957009adaa)" d="M 314.820131 214.475211 
L 313.092116 194.41978 
L 312.154329 192.641209 
L 311.440925 191.925785 
L 309.665017 190.982965 
L 308.672729 190.79285 
L 306.674103 191.012495 
L 304.917094 191.990121 
L 285.095563 208.924801 
L 287.613457 211.865682 
L 305.439011 196.63768 
L 305.462612 195.006413 
L 306.356896 193.652339 
L 307.840981 192.99602 
L 308.929111 193.06055 
L 310.349045 193.913568 
L 311.067585 195.424727 
L 311.014721 196.548046 
L 310.157436 197.985046 
L 308.646276 198.703586 
L 306.981513 198.462561 
L 289.162689 213.690373 
L 291.248408 216.120673 
L 301.331899 207.506556 
L 302.575467 207.110091 
L 303.492082 207.485248 
L 304.038814 208.311087 
L 304.590872 214.267284 
L 305.144913 216.170908 
L 306.385257 217.717609 
L 307.207173 218.280346 
L 309.097779 218.877295 
L 310.223013 218.877238 
L 312.099753 218.33701 
L 312.925526 217.807318 
L 314.199101 216.326776 
L 314.820131 214.475211 
" style="fill:none;stroke:#ff0000;stroke-linecap:square;stroke-width:1.5;"/>
   </g>
   <g id="line2d_40">
    <path clip-path="url(#p957009adaa)" d="M 286.323795 202.620491 
L 295.40046 184.653285 
L 295.538097 182.64734 
L 295.307516 181.663669 
L 294.292782 179.927848 
L 293.548749 179.244332 
L 291.733278 178.380146 
L 289.724723 178.287733 
L 263.959805 182.268367 
L 264.554936 186.093859 
L 287.724659 182.515255 
L 288.60256 181.140163 
L 290.07527 180.458704 
L 291.682719 180.68089 
L 292.574314 181.307987 
L 293.333491 182.78023 
L 293.149991 184.443429 
L 292.514313 185.371089 
L 291.029465 186.142538 
L 289.366266 185.959039 
L 288.077019 184.878589 
L 264.913122 188.46057 
L 265.409155 191.624513 
L 278.515715 189.600182 
L 279.78194 189.916912 
L 280.364301 190.718024 
L 280.395054 191.707964 
L 277.732459 197.064421 
L 277.202658 198.974933 
L 277.444298 200.942761 
L 277.847469 201.853624 
L 279.141642 203.355574 
L 280.09876 203.947248 
L 281.979143 204.47466 
L 282.960065 204.458367 
L 284.821893 203.868794 
L 286.323795 202.620491 
" style="fill:none;stroke:#ff0000;stroke-linecap:square;stroke-width:1.5;"/>
   </g>
   <g id="line2d_41">
    <path clip-path="url(#p957009adaa)" d="M 313.128807 85.260568 
L 292.546313 62.775187 
L 317.612727 58.903636 
L 313.128807 85.260568 
" style="fill:none;stroke:#ff0000;stroke-linecap:square;stroke-width:1.5;"/>
   </g>
   <g id="line2d_42">
    <path clip-path="url(#p957009adaa)" d="M 262.203713 179.772133 
L 247.089958 153.299396 
L 272.392817 155.054214 
L 262.203713 179.772133 
" style="fill:none;stroke:#ff0000;stroke-linecap:square;stroke-width:1.5;"/>
   </g>
   <g id="line2d_43">
    <path clip-path="url(#p957009adaa)" d="M 241.456308 169.658182 
L 224.547217 144.294545 
L 249.910853 144.294545 
L 241.456308 169.658182 
" style="fill:none;stroke:#ff0000;stroke-linecap:square;stroke-width:1.5;"/>
   </g>
   <g id="line2d_44">
    <path clip-path="url(#p957009adaa)" d="M 270.821763 217.172727 
L 253.912672 191.809091 
L 279.276308 191.809091 
L 270.821763 217.172727 
" style="fill:none;stroke:#ff0000;stroke-linecap:square;stroke-width:1.5;"/>
   </g>
   <g id="line2d_45">
    <path clip-path="url(#p957009adaa)" d="M 268.92431 227.176959 
L 276.681225 201.591345 
L 294.278438 226.482498 
L 268.92431 227.176959 
" style="fill:none;stroke:#ff0000;stroke-linecap:square;stroke-width:1.5;"/>
   </g>
   <g id="patch_33">
    <path d="M 54 252 
L 54 34.56 
" style="fill:none;stroke:#000000;stroke-linecap:square;stroke-linejoin:miter;stroke-width:0.8;"/>
   </g>
   <g id="patch_34">
    <path d="M 388.8 252 
L 388.8 34.56 
" style="fill:none;stroke:#000000;stroke-linecap:square;stroke-linejoin:miter;stroke-width:0.8;"/>
   </g>
   <g id="patch_35">
    <path d="M 54 252 
L 388.8 252 
" style="fill:none;stroke:#000000;stroke-linecap:square;stroke-linejoin:miter;stroke-width:0.8;"/>
   </g>
   <g id="patch_36">
    <path d="M 54 34.56 
L 388.8 34.56 
" style="fill:none;stroke:#000000;stroke-linecap:square;stroke-linejoin:miter;stroke-width:0.8;"/>
   </g>
  </g>
 </g>
 <defs>
  <clipPath id="p957009adaa">
   <rect height="217.44" width="334.8" x="54" y="34.56"/>
  </clipPath>
 </defs>
</svg>
