<?xml version="1.0" encoding="utf-8" standalone="no"?>
<!DOCTYPE svg PUBLIC "-//W3C//DTD SVG 1.1//EN"
  "http://www.w3.org/Graphics/SVG/1.1/DTD/svg11.dtd">
<!-- Created with matplotlib (https://matplotlib.org/) -->
<svg height="288pt" version="1.1" viewBox="0 0 432 288" width="432pt" xmlns="http://www.w3.org/2000/svg" xmlns:xlink="http://www.w3.org/1999/xlink">
 <defs>
  <style type="text/css">
*{stroke-linecap:butt;stroke-linejoin:round;}
  </style>
 </defs>
 <g id="figure_1">
  <g id="patch_1">
   <path d="M 0 288 
L 432 288 
L 432 0 
L 0 0 
z
" style="fill:#ffffff;"/>
  </g>
  <g id="axes_1">
   <g id="patch_2">
    <path d="M 54 252 
L 388.8 252 
L 388.8 34.56 
L 54 34.56 
z
" style="fill:#ffffff;"/>
   </g>
   <g id="patch_3">
    <path clip-path="url(#p19043b07bf)" d="M 69.218182 172.860638 
L 69.218182 227.825455 
L 174.907336 227.825455 
z
" style="fill:#aaaaaa;"/>
   </g>
   <g id="patch_4">
    <path clip-path="url(#p19043b07bf)" d="M 105.040687 136.800432 
L 107.85789 170.606875 
L 145.608419 168.916553 
L 140.537452 132.292906 
z
" style="fill:#aaaaaa;"/>
   </g>
   <g id="patch_5">
    <path clip-path="url(#p19043b07bf)" d="M 89.827787 58.734545 
L 88.700906 58.734545 
L 97.152516 91.725174 
L 207.412119 122.702872 
L 206.460017 144.125161 
L 276.890108 144.125161 
L 292.666448 58.734545 
L 117.436383 58.734545 
z
" style="fill:#aaaaaa;"/>
   </g>
   <g id="patch_6">
    <path clip-path="url(#p19043b07bf)" d="M 81.858362 128.422124 
L 81.840269 100.535144 
L 72.32248 100.532101 
L 72.326707 133.691673 
L 127.941722 133.69049 
L 127.944765 100.535144 
L 119.928503 100.535144 
L 119.92732 128.422124 
z
" style="fill:#f6929c;"/>
   </g>
   <g id="patch_7">
    <path clip-path="url(#p19043b07bf)" d="M 345.522704 68.439518 
L 373.409684 68.421425 
L 373.412727 58.903636 
L 340.253155 58.907864 
L 340.254338 114.522878 
L 373.409684 114.525922 
L 373.409684 106.50966 
L 345.522704 106.508476 
z
" style="fill:#f6929c;"/>
   </g>
   <g id="patch_8">
    <path clip-path="url(#p19043b07bf)" d="M 310.589856 69.01672 
L 338.470607 68.42704 
L 338.278566 58.911188 
L 305.126047 59.595077 
L 306.267154 115.198383 
L 339.415597 114.521851 
L 339.25129 106.507273 
L 311.370144 107.077681 
z
" style="fill:#f6929c;"/>
   </g>
   <g id="patch_9">
    <path clip-path="url(#p19043b07bf)" d="M 345.522704 124.239518 
L 373.409684 124.221425 
L 373.412727 114.703636 
L 340.253155 114.707864 
L 340.254338 170.322878 
L 373.409684 170.325922 
L 373.409684 162.30966 
L 345.522704 162.308476 
z
" style="fill:#f6929c;"/>
   </g>
   <g id="patch_10">
    <path clip-path="url(#p19043b07bf)" d="M 289.038784 136.148886 
L 294.131075 108.73078 
L 284.775001 106.983726 
L 278.702917 139.582607 
L 333.376462 149.772472 
L 339.454919 117.179078 
L 331.57439 115.710159 
L 326.46315 143.124733 
z
" style="fill:#f6929c;"/>
   </g>
   <g id="patch_11">
    <path clip-path="url(#p19043b07bf)" d="M 370.854558 94.728391 
L 348.8728 94.676941 
L 347.678309 94.178889 
L 347.185853 92.982079 
L 347.237303 71.000321 
L 347.735356 69.80583 
L 348.932165 69.313374 
L 370.913923 69.364824 
L 372.108414 69.862876 
L 372.60087 71.059686 
L 372.54942 93.041444 
L 372.051368 94.235935 
z
" style="fill:#f6929c;"/>
   </g>
   <g id="patch_12">
    <path clip-path="url(#p19043b07bf)" d="M 349.553601 149.953919 
L 348.355672 149.464194 
L 347.854897 148.270841 
L 347.753325 126.289258 
L 348.24305 125.091328 
L 349.436403 124.590553 
L 371.417986 124.488981 
L 372.615915 124.978706 
L 373.11669 126.172059 
L 373.218263 148.153642 
L 372.728537 149.351572 
L 371.535185 149.852346 
z
" style="fill:#f6929c;"/>
   </g>
   <g id="patch_13">
    <path clip-path="url(#p19043b07bf)" d="M 316.019063 94.553267 
L 314.812857 94.084296 
L 314.291554 92.899767 
L 313.810496 70.923214 
L 314.279467 69.717008 
L 315.463996 69.195705 
L 337.44055 68.714648 
L 338.646756 69.183618 
L 339.168058 70.368147 
L 339.649116 92.344701 
L 339.180145 93.550907 
L 337.995616 94.07221 
z
" style="fill:#f6929c;"/>
   </g>
   <g id="patch_14">
    <path clip-path="url(#p19043b07bf)" d="M 95.916201 125.462869 
L 94.707519 125.000317 
L 94.179927 123.818576 
L 93.582058 101.84489 
L 94.044611 100.636208 
L 95.226352 100.108616 
L 117.200038 99.510747 
L 118.40872 99.9733 
L 118.936312 101.155041 
L 119.53418 123.128727 
L 119.071628 124.337409 
L 117.889887 124.865001 
z
" style="fill:#f6929c;"/>
   </g>
   <g id="patch_15">
    <path clip-path="url(#p19043b07bf)" d="M 315.318956 139.221274 
L 289.658826 133.996436 
L 294.796148 109.158521 
L 296.452009 109.50101 
L 318.383179 132.046492 
L 319.279057 133.426688 
L 319.5801 135.044375 
L 319.240696 136.654452 
L 318.312268 138.012966 
L 316.935487 138.914084 
z
" style="fill:#f6929c;"/>
   </g>
   <g id="patch_16">
    <path clip-path="url(#p19043b07bf)" d="M 69.984582 100.045391 
L 69.984582 74.681754 
L 71.675491 74.681754 
L 97.718599 92.317842 
L 98.875461 93.487973 
L 99.497922 95.011154 
L 99.491669 96.656603 
L 98.857647 98.175009 
L 97.691921 99.336311 
L 96.171118 99.964557 
z
" style="fill:#f6929c;"/>
   </g>
   <g id="patch_17">
    <path clip-path="url(#p19043b07bf)" d="M 74.236611 164.092429 
L 72.592382 164.028779 
L 71.097018 163.342174 
L 69.977088 162.136645 
L 69.402278 160.594851 
L 70.235007 134.421434 
L 95.583205 135.30624 
L 95.524218 136.99612 
L 76.990356 162.408145 
L 75.78058 163.523483 
z
" style="fill:#f6929c;"/>
   </g>
   <g id="patch_18">
    <path clip-path="url(#p19043b07bf)" d="M 353.083328 200.016977 
L 351.437879 200.010724 
L 349.919473 199.376702 
L 348.75817 198.210976 
L 348.129925 196.690172 
L 348.049091 170.503636 
L 373.412727 170.503636 
L 373.412727 172.194545 
L 355.77664 198.237653 
L 354.606509 199.394516 
z
" style="fill:#f6929c;"/>
   </g>
   <g id="patch_19">
    <path clip-path="url(#p19043b07bf)" d="M 312.898208 168.497471 
L 302.74451 145.254913 
L 304.294014 144.578 
L 335.219387 150.313531 
L 336.747938 150.922687 
L 337.928112 152.069302 
L 338.581096 153.579651 
L 338.607952 155.224892 
L 338.00461 156.755748 
L 336.862489 157.940271 
z
" style="fill:#f6929c;"/>
   </g>
   <g id="patch_20">
    <path clip-path="url(#p19043b07bf)" d="M 322.942072 191.891346 
L 310.946534 169.543614 
L 312.436383 168.743911 
L 343.723645 171.966062 
L 345.296353 172.449927 
L 346.565176 173.497604 
L 347.337869 174.950356 
L 347.497356 176.588069 
L 347.019471 178.162606 
L 345.976625 179.435402 
z
" style="fill:#f6929c;"/>
   </g>
   <g id="patch_21">
    <path clip-path="url(#p19043b07bf)" d="M 349.732579 210.896112 
L 366.274206 222.366986 
L 368.241926 222.780314 
L 369.248014 222.687782 
L 371.107333 221.922477 
L 371.887047 221.279962 
L 372.99366 219.601224 
L 373.362558 217.624675 
L 372.978054 191.556905 
L 369.107029 191.618055 
L 369.451737 215.059976 
L 370.692421 216.119358 
L 371.163978 217.672064 
L 370.721941 219.23343 
L 369.977728 220.029884 
L 368.414752 220.578479 
L 366.792828 220.167058 
L 365.96184 219.409366 
L 365.402831 217.832211 
L 365.814251 216.210288 
L 367.062387 215.082596 
L 366.71353 191.645979 
L 363.511401 191.700338 
L 363.706394 204.960873 
L 363.21784 206.171229 
L 362.343983 206.637381 
L 361.35928 206.531133 
L 356.421832 203.154351 
L 354.602788 202.365796 
L 352.620444 202.333375 
L 351.662632 202.606898 
L 349.996354 203.681261 
L 349.278177 204.547502 
L 348.496148 206.337036 
L 348.376825 207.31081 
L 348.703641 209.236216 
z
" style="fill:#f6929c;"/>
   </g>
   <g id="patch_22">
    <path clip-path="url(#p19043b07bf)" d="M 291.697125 168.805776 
L 303.893304 152.79142 
L 304.393855 150.844061 
L 304.346221 149.83485 
L 303.664481 147.943292 
L 303.057328 147.135738 
L 301.429539 145.95546 
L 299.47138 145.498902 
L 273.41235 144.722088 
L 273.301043 148.591996 
L 296.735056 149.291623 
L 297.848641 148.099349 
L 299.420807 147.697411 
L 300.960938 148.208545 
L 301.723458 148.98749 
L 302.201901 150.573347 
L 301.718656 152.175338 
L 300.924707 152.971758 
L 299.324222 153.459973 
L 297.72223 152.976729 
L 296.651244 151.679609 
L 273.222344 150.984364 
L 273.13404 154.185736 
L 286.390103 154.581498 
L 287.5775 155.123471 
L 288.004272 156.017222 
L 287.854276 156.996215 
L 284.260954 161.778379 
L 283.392169 163.5605 
L 283.271496 165.539432 
L 283.502091 166.508475 
L 284.501179 168.220948 
L 285.334577 168.976991 
L 287.087507 169.837941 
L 288.055001 170.000513 
L 289.993052 169.75977 
z
" style="fill:#f6929c;"/>
   </g>
   <g id="patch_23">
    <path clip-path="url(#p19043b07bf)" d="M 345.387493 207.064525 
L 347.686968 187.066555 
L 347.122055 185.136884 
L 346.56537 184.293748 
L 345.012723 183.016232 
L 344.078151 182.632366 
L 342.075806 182.449701 
L 340.159333 183.057947 
L 317.363041 195.707276 
L 319.245019 199.090578 
L 339.745505 187.716375 
L 340.093407 186.122464 
L 341.239375 184.973543 
L 342.824418 184.625834 
L 343.877917 184.905711 
L 345.099594 186.024351 
L 345.502888 187.648314 
L 345.227438 188.73862 
L 344.101219 189.976173 
L 342.477255 190.379467 
L 340.893806 189.811824 
L 320.399953 201.187181 
L 321.960061 203.98408 
L 333.556698 197.549965 
L 334.854303 197.409023 
L 335.677877 197.959161 
L 336.049245 198.877318 
L 335.404414 204.824187 
L 335.568366 206.800006 
L 336.475941 208.562687 
L 337.169366 209.277796 
L 338.903274 210.239201 
L 340.005993 210.463172 
L 341.952718 210.307404 
L 342.867417 209.952722 
L 344.410262 208.755379 
z
" style="fill:#f6929c;"/>
   </g>
   <g id="patch_24">
    <path clip-path="url(#p19043b07bf)" d="M 301.587578 193.337854 
L 312.430433 176.377935 
L 312.769723 174.396107 
L 312.639549 173.394193 
L 311.805097 171.564863 
L 311.133811 170.809778 
L 309.414778 169.76686 
L 307.425792 169.472299 
L 281.390747 170.83352 
L 281.596936 174.699533 
L 305.009467 173.476494 
L 306.021606 172.196977 
L 307.555547 171.667558 
L 309.132383 172.050767 
L 309.95617 172.764607 
L 310.562958 174.305924 
L 310.212614 175.942128 
L 309.486599 176.800929 
L 307.931503 177.418655 
L 306.295299 177.068312 
L 305.121622 175.863317 
L 281.714545 177.090304 
L 281.888877 180.288146 
L 295.132788 179.596302 
L 296.360604 180.03915 
L 296.859179 180.894923 
L 296.789912 181.882915 
L 293.600552 186.943452 
L 292.880726 188.790773 
L 292.922623 190.772938 
L 293.231852 191.719826 
L 294.367909 193.344668 
L 295.260458 194.029875 
L 297.078045 194.744285 
L 298.055606 194.827028 
L 299.967412 194.428281 
z
" style="fill:#f6929c;"/>
   </g>
   <g id="patch_25">
    <path clip-path="url(#p19043b07bf)" d="M 326.146953 203.284131 
L 316.438624 220.918039 
L 316.229914 222.917839 
L 316.425454 223.909071 
L 317.377972 225.679796 
L 318.09729 226.389275 
L 319.880962 227.31732 
L 321.884974 227.480928 
L 347.774886 224.416795 
L 347.315837 220.572599 
L 324.033749 223.327017 
L 323.10762 224.670101 
L 321.611662 225.298887 
L 320.013106 225.019818 
L 319.144319 224.361487 
L 318.437846 222.863239 
L 318.680232 221.207597 
L 319.348418 220.303071 
L 320.859698 219.584781 
L 322.515341 219.827167 
L 323.765449 220.952672 
L 347.041835 218.194671 
L 346.658352 215.015123 
L 333.48823 216.573232 
L 332.234037 216.211783 
L 331.680462 215.390516 
L 331.684846 214.400108 
L 334.535783 209.141476 
L 335.133024 207.250962 
L 334.961344 205.2758 
L 334.590739 204.351208 
L 333.350661 202.804293 
L 332.415135 202.179039 
L 330.554646 201.585254 
L 329.573763 201.566739 
L 327.692192 202.089893 
z
" style="fill:#f6929c;"/>
   </g>
   <g id="patch_26">
    <path clip-path="url(#p19043b07bf)" d="M 270.784725 177.90399 
L 283.517447 162.312834 
L 284.083808 160.383587 
L 284.070457 159.37334 
L 283.453315 157.459733 
L 282.873922 156.632035 
L 281.287134 155.397186 
L 279.345599 154.874425 
L 253.327953 153.213544 
L 253.085354 157.077443 
L 276.482116 158.572083 
L 277.635529 157.418294 
L 279.220432 157.069951 
L 280.742326 157.633067 
L 281.477967 158.437445 
L 281.902306 160.038628 
L 281.364964 161.623294 
L 280.54444 162.392306 
L 278.928305 162.825915 
L 277.343639 162.288572 
L 276.317298 160.955848 
L 252.925497 159.465761 
L 252.728581 162.662292 
L 265.963572 163.507774 
L 267.131888 164.089738 
L 267.528078 164.997459 
L 267.344939 165.970797 
L 263.591367 170.628238 
L 262.662593 172.379843 
L 262.474818 174.353539 
L 262.672389 175.329851 
L 263.612776 177.075248 
L 264.420031 177.859144 
L 266.142728 178.779097 
L 267.104146 178.974415 
L 269.049252 178.799593 
z
" style="fill:#f6929c;"/>
   </g>
   <g id="patch_27">
    <path clip-path="url(#p19043b07bf)" d="M 306.562261 223.400751 
L 321.932823 210.40259 
L 322.842628 208.609544 
L 323.014353 207.61391 
L 322.757773 205.619687 
L 322.339611 204.699949 
L 321.005558 203.195603 
L 319.192454 202.326415 
L 293.917952 195.93298 
L 292.97245 199.687257 
L 315.700733 205.437699 
L 317.045789 204.514436 
L 318.667673 204.461972 
L 320.060837 205.29405 
L 320.636877 206.219453 
L 320.761075 207.871247 
L 319.942849 209.33084 
L 318.995467 209.936733 
L 317.327277 210.067308 
L 315.867684 209.249082 
L 315.102526 207.751062 
L 292.378288 202.006004 
L 291.599809 205.112539 
L 304.456657 208.365426 
L 305.498764 209.151338 
L 305.722175 210.116228 
L 305.36403 211.039624 
L 300.821631 214.931623 
L 299.588035 216.483714 
L 299.042293 218.389731 
L 299.057887 219.385711 
L 299.663033 221.273709 
L 300.313226 222.192078 
L 301.83851 223.411712 
L 302.747959 223.779648 
L 304.692214 223.963685 
z
" style="fill:#f6929c;"/>
   </g>
   <g id="patch_28">
    <path clip-path="url(#p19043b07bf)" d="M 276.605987 204.617254 
L 269.37568 180.306008 
L 296.097029 181.179449 
z
" style="fill:#f6929c;"/>
   </g>
   <g id="patch_29">
    <path clip-path="url(#p19043b07bf)" d="M 279.866207 227.534357 
L 279.592453 202.172198 
L 305.045863 210.352498 
z
" style="fill:#f6929c;"/>
   </g>
   <g id="patch_30">
    <path clip-path="url(#p19043b07bf)" d="M 233.879806 169.018257 
L 225.716919 145.004067 
L 252.452072 144.84591 
z
" style="fill:#f6929c;"/>
   </g>
   <g id="patch_31">
    <path clip-path="url(#p19043b07bf)" d="M 271.316401 190.189751 
L 241.011733 186.894533 
L 257.279807 167.435247 
z
" style="fill:#f6929c;"/>
   </g>
   <g id="patch_32">
    <path clip-path="url(#p19043b07bf)" d="M 180.6151 140.478279 
L 179.51763 115.138397 
L 205.223335 122.487554 
z
" style="fill:#f6929c;"/>
   </g>
   <g id="matplotlib.axis_1">
    <g id="xtick_1">
     <g id="line2d_1">
      <defs>
       <path d="M 0 0 
L 0 3.5 
" id="mf1ea0d7631" style="stroke:#000000;stroke-width:0.8;"/>
      </defs>
      <g>
       <use style="stroke:#000000;stroke-width:0.8;" x="69.218182" xlink:href="#mf1ea0d7631" y="252"/>
      </g>
     </g>
     <g id="text_1">
      <!-- 0 -->
      <defs>
       <path d="M 31.78125 66.40625 
Q 24.171875 66.40625 20.328125 58.90625 
Q 16.5 51.421875 16.5 36.375 
Q 16.5 21.390625 20.328125 13.890625 
Q 24.171875 6.390625 31.78125 6.390625 
Q 39.453125 6.390625 43.28125 13.890625 
Q 47.125 21.390625 47.125 36.375 
Q 47.125 51.421875 43.28125 58.90625 
Q 39.453125 66.40625 31.78125 66.40625 
z
M 31.78125 74.21875 
Q 44.046875 74.21875 50.515625 64.515625 
Q 56.984375 54.828125 56.984375 36.375 
Q 56.984375 17.96875 50.515625 8.265625 
Q 44.046875 -1.421875 31.78125 -1.421875 
Q 19.53125 -1.421875 13.0625 8.265625 
Q 6.59375 17.96875 6.59375 36.375 
Q 6.59375 54.828125 13.0625 64.515625 
Q 19.53125 74.21875 31.78125 74.21875 
z
" id="DejaVuSans-48"/>
      </defs>
      <g transform="translate(66.036932 266.598437)scale(0.1 -0.1)">
       <use xlink:href="#DejaVuSans-48"/>
      </g>
     </g>
    </g>
    <g id="xtick_2">
     <g id="line2d_2">
      <g>
       <use style="stroke:#000000;stroke-width:0.8;" x="111.490909" xlink:href="#mf1ea0d7631" y="252"/>
      </g>
     </g>
     <g id="text_2">
      <!-- 250 -->
      <defs>
       <path d="M 19.1875 8.296875 
L 53.609375 8.296875 
L 53.609375 0 
L 7.328125 0 
L 7.328125 8.296875 
Q 12.9375 14.109375 22.625 23.890625 
Q 32.328125 33.6875 34.8125 36.53125 
Q 39.546875 41.84375 41.421875 45.53125 
Q 43.3125 49.21875 43.3125 52.78125 
Q 43.3125 58.59375 39.234375 62.25 
Q 35.15625 65.921875 28.609375 65.921875 
Q 23.96875 65.921875 18.8125 64.3125 
Q 13.671875 62.703125 7.8125 59.421875 
L 7.8125 69.390625 
Q 13.765625 71.78125 18.9375 73 
Q 24.125 74.21875 28.421875 74.21875 
Q 39.75 74.21875 46.484375 68.546875 
Q 53.21875 62.890625 53.21875 53.421875 
Q 53.21875 48.921875 51.53125 44.890625 
Q 49.859375 40.875 45.40625 35.40625 
Q 44.1875 33.984375 37.640625 27.21875 
Q 31.109375 20.453125 19.1875 8.296875 
z
" id="DejaVuSans-50"/>
       <path d="M 10.796875 72.90625 
L 49.515625 72.90625 
L 49.515625 64.59375 
L 19.828125 64.59375 
L 19.828125 46.734375 
Q 21.96875 47.46875 24.109375 47.828125 
Q 26.265625 48.1875 28.421875 48.1875 
Q 40.625 48.1875 47.75 41.5 
Q 54.890625 34.8125 54.890625 23.390625 
Q 54.890625 11.625 47.5625 5.09375 
Q 40.234375 -1.421875 26.90625 -1.421875 
Q 22.3125 -1.421875 17.546875 -0.640625 
Q 12.796875 0.140625 7.71875 1.703125 
L 7.71875 11.625 
Q 12.109375 9.234375 16.796875 8.0625 
Q 21.484375 6.890625 26.703125 6.890625 
Q 35.15625 6.890625 40.078125 11.328125 
Q 45.015625 15.765625 45.015625 23.390625 
Q 45.015625 31 40.078125 35.4375 
Q 35.15625 39.890625 26.703125 39.890625 
Q 22.75 39.890625 18.8125 39.015625 
Q 14.890625 38.140625 10.796875 36.28125 
z
" id="DejaVuSans-53"/>
      </defs>
      <g transform="translate(101.947159 266.598437)scale(0.1 -0.1)">
       <use xlink:href="#DejaVuSans-50"/>
       <use x="63.623047" xlink:href="#DejaVuSans-53"/>
       <use x="127.246094" xlink:href="#DejaVuSans-48"/>
      </g>
     </g>
    </g>
    <g id="xtick_3">
     <g id="line2d_3">
      <g>
       <use style="stroke:#000000;stroke-width:0.8;" x="153.763636" xlink:href="#mf1ea0d7631" y="252"/>
      </g>
     </g>
     <g id="text_3">
      <!-- 500 -->
      <g transform="translate(144.219886 266.598437)scale(0.1 -0.1)">
       <use xlink:href="#DejaVuSans-53"/>
       <use x="63.623047" xlink:href="#DejaVuSans-48"/>
       <use x="127.246094" xlink:href="#DejaVuSans-48"/>
      </g>
     </g>
    </g>
    <g id="xtick_4">
     <g id="line2d_4">
      <g>
       <use style="stroke:#000000;stroke-width:0.8;" x="196.036364" xlink:href="#mf1ea0d7631" y="252"/>
      </g>
     </g>
     <g id="text_4">
      <!-- 750 -->
      <defs>
       <path d="M 8.203125 72.90625 
L 55.078125 72.90625 
L 55.078125 68.703125 
L 28.609375 0 
L 18.3125 0 
L 43.21875 64.59375 
L 8.203125 64.59375 
z
" id="DejaVuSans-55"/>
      </defs>
      <g transform="translate(186.492614 266.598437)scale(0.1 -0.1)">
       <use xlink:href="#DejaVuSans-55"/>
       <use x="63.623047" xlink:href="#DejaVuSans-53"/>
       <use x="127.246094" xlink:href="#DejaVuSans-48"/>
      </g>
     </g>
    </g>
    <g id="xtick_5">
     <g id="line2d_5">
      <g>
       <use style="stroke:#000000;stroke-width:0.8;" x="238.309091" xlink:href="#mf1ea0d7631" y="252"/>
      </g>
     </g>
     <g id="text_5">
      <!-- 1000 -->
      <defs>
       <path d="M 12.40625 8.296875 
L 28.515625 8.296875 
L 28.515625 63.921875 
L 10.984375 60.40625 
L 10.984375 69.390625 
L 28.421875 72.90625 
L 38.28125 72.90625 
L 38.28125 8.296875 
L 54.390625 8.296875 
L 54.390625 0 
L 12.40625 0 
z
" id="DejaVuSans-49"/>
      </defs>
      <g transform="translate(225.584091 266.598437)scale(0.1 -0.1)">
       <use xlink:href="#DejaVuSans-49"/>
       <use x="63.623047" xlink:href="#DejaVuSans-48"/>
       <use x="127.246094" xlink:href="#DejaVuSans-48"/>
       <use x="190.869141" xlink:href="#DejaVuSans-48"/>
      </g>
     </g>
    </g>
    <g id="xtick_6">
     <g id="line2d_6">
      <g>
       <use style="stroke:#000000;stroke-width:0.8;" x="280.581818" xlink:href="#mf1ea0d7631" y="252"/>
      </g>
     </g>
     <g id="text_6">
      <!-- 1250 -->
      <g transform="translate(267.856818 266.598437)scale(0.1 -0.1)">
       <use xlink:href="#DejaVuSans-49"/>
       <use x="63.623047" xlink:href="#DejaVuSans-50"/>
       <use x="127.246094" xlink:href="#DejaVuSans-53"/>
       <use x="190.869141" xlink:href="#DejaVuSans-48"/>
      </g>
     </g>
    </g>
    <g id="xtick_7">
     <g id="line2d_7">
      <g>
       <use style="stroke:#000000;stroke-width:0.8;" x="322.854545" xlink:href="#mf1ea0d7631" y="252"/>
      </g>
     </g>
     <g id="text_7">
      <!-- 1500 -->
      <g transform="translate(310.129545 266.598437)scale(0.1 -0.1)">
       <use xlink:href="#DejaVuSans-49"/>
       <use x="63.623047" xlink:href="#DejaVuSans-53"/>
       <use x="127.246094" xlink:href="#DejaVuSans-48"/>
       <use x="190.869141" xlink:href="#DejaVuSans-48"/>
      </g>
     </g>
    </g>
    <g id="xtick_8">
     <g id="line2d_8">
      <g>
       <use style="stroke:#000000;stroke-width:0.8;" x="365.127273" xlink:href="#mf1ea0d7631" y="252"/>
      </g>
     </g>
     <g id="text_8">
      <!-- 1750 -->
      <g transform="translate(352.402273 266.598437)scale(0.1 -0.1)">
       <use xlink:href="#DejaVuSans-49"/>
       <use x="63.623047" xlink:href="#DejaVuSans-55"/>
       <use x="127.246094" xlink:href="#DejaVuSans-53"/>
       <use x="190.869141" xlink:href="#DejaVuSans-48"/>
      </g>
     </g>
    </g>
   </g>
   <g id="matplotlib.axis_2">
    <g id="ytick_1">
     <g id="line2d_9">
      <defs>
       <path d="M 0 0 
L -3.5 0 
" id="meb44945234" style="stroke:#000000;stroke-width:0.8;"/>
      </defs>
      <g>
       <use style="stroke:#000000;stroke-width:0.8;" x="54" xlink:href="#meb44945234" y="227.825455"/>
      </g>
     </g>
     <g id="text_9">
      <!-- 0 -->
      <g transform="translate(40.6375 231.624673)scale(0.1 -0.1)">
       <use xlink:href="#DejaVuSans-48"/>
      </g>
     </g>
    </g>
    <g id="ytick_2">
     <g id="line2d_10">
      <g>
       <use style="stroke:#000000;stroke-width:0.8;" x="54" xlink:href="#meb44945234" y="194.007273"/>
      </g>
     </g>
     <g id="text_10">
      <!-- 200 -->
      <g transform="translate(27.9125 197.806491)scale(0.1 -0.1)">
       <use xlink:href="#DejaVuSans-50"/>
       <use x="63.623047" xlink:href="#DejaVuSans-48"/>
       <use x="127.246094" xlink:href="#DejaVuSans-48"/>
      </g>
     </g>
    </g>
    <g id="ytick_3">
     <g id="line2d_11">
      <g>
       <use style="stroke:#000000;stroke-width:0.8;" x="54" xlink:href="#meb44945234" y="160.189091"/>
      </g>
     </g>
     <g id="text_11">
      <!-- 400 -->
      <defs>
       <path d="M 37.796875 64.3125 
L 12.890625 25.390625 
L 37.796875 25.390625 
z
M 35.203125 72.90625 
L 47.609375 72.90625 
L 47.609375 25.390625 
L 58.015625 25.390625 
L 58.015625 17.1875 
L 47.609375 17.1875 
L 47.609375 0 
L 37.796875 0 
L 37.796875 17.1875 
L 4.890625 17.1875 
L 4.890625 26.703125 
z
" id="DejaVuSans-52"/>
      </defs>
      <g transform="translate(27.9125 163.98831)scale(0.1 -0.1)">
       <use xlink:href="#DejaVuSans-52"/>
       <use x="63.623047" xlink:href="#DejaVuSans-48"/>
       <use x="127.246094" xlink:href="#DejaVuSans-48"/>
      </g>
     </g>
    </g>
    <g id="ytick_4">
     <g id="line2d_12">
      <g>
       <use style="stroke:#000000;stroke-width:0.8;" x="54" xlink:href="#meb44945234" y="126.370909"/>
      </g>
     </g>
     <g id="text_12">
      <!-- 600 -->
      <defs>
       <path d="M 33.015625 40.375 
Q 26.375 40.375 22.484375 35.828125 
Q 18.609375 31.296875 18.609375 23.390625 
Q 18.609375 15.53125 22.484375 10.953125 
Q 26.375 6.390625 33.015625 6.390625 
Q 39.65625 6.390625 43.53125 10.953125 
Q 47.40625 15.53125 47.40625 23.390625 
Q 47.40625 31.296875 43.53125 35.828125 
Q 39.65625 40.375 33.015625 40.375 
z
M 52.59375 71.296875 
L 52.59375 62.3125 
Q 48.875 64.0625 45.09375 64.984375 
Q 41.3125 65.921875 37.59375 65.921875 
Q 27.828125 65.921875 22.671875 59.328125 
Q 17.53125 52.734375 16.796875 39.40625 
Q 19.671875 43.65625 24.015625 45.921875 
Q 28.375 48.1875 33.59375 48.1875 
Q 44.578125 48.1875 50.953125 41.515625 
Q 57.328125 34.859375 57.328125 23.390625 
Q 57.328125 12.15625 50.6875 5.359375 
Q 44.046875 -1.421875 33.015625 -1.421875 
Q 20.359375 -1.421875 13.671875 8.265625 
Q 6.984375 17.96875 6.984375 36.375 
Q 6.984375 53.65625 15.1875 63.9375 
Q 23.390625 74.21875 37.203125 74.21875 
Q 40.921875 74.21875 44.703125 73.484375 
Q 48.484375 72.75 52.59375 71.296875 
z
" id="DejaVuSans-54"/>
      </defs>
      <g transform="translate(27.9125 130.170128)scale(0.1 -0.1)">
       <use xlink:href="#DejaVuSans-54"/>
       <use x="63.623047" xlink:href="#DejaVuSans-48"/>
       <use x="127.246094" xlink:href="#DejaVuSans-48"/>
      </g>
     </g>
    </g>
    <g id="ytick_5">
     <g id="line2d_13">
      <g>
       <use style="stroke:#000000;stroke-width:0.8;" x="54" xlink:href="#meb44945234" y="92.552727"/>
      </g>
     </g>
     <g id="text_13">
      <!-- 800 -->
      <defs>
       <path d="M 31.78125 34.625 
Q 24.75 34.625 20.71875 30.859375 
Q 16.703125 27.09375 16.703125 20.515625 
Q 16.703125 13.921875 20.71875 10.15625 
Q 24.75 6.390625 31.78125 6.390625 
Q 38.8125 6.390625 42.859375 10.171875 
Q 46.921875 13.96875 46.921875 20.515625 
Q 46.921875 27.09375 42.890625 30.859375 
Q 38.875 34.625 31.78125 34.625 
z
M 21.921875 38.8125 
Q 15.578125 40.375 12.03125 44.71875 
Q 8.5 49.078125 8.5 55.328125 
Q 8.5 64.0625 14.71875 69.140625 
Q 20.953125 74.21875 31.78125 74.21875 
Q 42.671875 74.21875 48.875 69.140625 
Q 55.078125 64.0625 55.078125 55.328125 
Q 55.078125 49.078125 51.53125 44.71875 
Q 48 40.375 41.703125 38.8125 
Q 48.828125 37.15625 52.796875 32.3125 
Q 56.78125 27.484375 56.78125 20.515625 
Q 56.78125 9.90625 50.3125 4.234375 
Q 43.84375 -1.421875 31.78125 -1.421875 
Q 19.734375 -1.421875 13.25 4.234375 
Q 6.78125 9.90625 6.78125 20.515625 
Q 6.78125 27.484375 10.78125 32.3125 
Q 14.796875 37.15625 21.921875 38.8125 
z
M 18.3125 54.390625 
Q 18.3125 48.734375 21.84375 45.5625 
Q 25.390625 42.390625 31.78125 42.390625 
Q 38.140625 42.390625 41.71875 45.5625 
Q 45.3125 48.734375 45.3125 54.390625 
Q 45.3125 60.0625 41.71875 63.234375 
Q 38.140625 66.40625 31.78125 66.40625 
Q 25.390625 66.40625 21.84375 63.234375 
Q 18.3125 60.0625 18.3125 54.390625 
z
" id="DejaVuSans-56"/>
      </defs>
      <g transform="translate(27.9125 96.351946)scale(0.1 -0.1)">
       <use xlink:href="#DejaVuSans-56"/>
       <use x="63.623047" xlink:href="#DejaVuSans-48"/>
       <use x="127.246094" xlink:href="#DejaVuSans-48"/>
      </g>
     </g>
    </g>
    <g id="ytick_6">
     <g id="line2d_14">
      <g>
       <use style="stroke:#000000;stroke-width:0.8;" x="54" xlink:href="#meb44945234" y="58.734545"/>
      </g>
     </g>
     <g id="text_14">
      <!-- 1000 -->
      <g transform="translate(21.55 62.533764)scale(0.1 -0.1)">
       <use xlink:href="#DejaVuSans-49"/>
       <use x="63.623047" xlink:href="#DejaVuSans-48"/>
       <use x="127.246094" xlink:href="#DejaVuSans-48"/>
       <use x="190.869141" xlink:href="#DejaVuSans-48"/>
      </g>
     </g>
    </g>
   </g>
   <g id="line2d_15">
    <path clip-path="url(#p19043b07bf)" d="M 69.218182 227.825455 
L 373.581818 227.825455 
L 373.581818 58.734545 
L 69.218182 58.734545 
L 69.218182 227.825455 
" style="fill:none;stroke:#000000;stroke-linecap:square;stroke-width:1.5;"/>
   </g>
   <g id="line2d_16">
    <path clip-path="url(#p19043b07bf)" d="M 69.218182 172.860638 
L 69.218182 227.825455 
L 174.907336 227.825455 
L 69.218182 172.860638 
" style="fill:none;stroke:#000000;stroke-dasharray:5.55,2.4;stroke-dashoffset:0;stroke-width:1.5;"/>
   </g>
   <g id="line2d_17">
    <path clip-path="url(#p19043b07bf)" d="M 105.040687 136.800432 
L 107.85789 170.606875 
L 145.608419 168.916553 
L 140.537452 132.292906 
L 105.040687 136.800432 
" style="fill:none;stroke:#000000;stroke-dasharray:5.55,2.4;stroke-dashoffset:0;stroke-width:1.5;"/>
   </g>
   <g id="line2d_18">
    <path clip-path="url(#p19043b07bf)" d="M 89.827787 58.734545 
L 88.700906 58.734545 
L 97.152516 91.725174 
L 207.412119 122.702872 
L 206.460017 144.125161 
L 276.890108 144.125161 
L 292.666448 58.734545 
L 117.436383 58.734545 
L 89.827787 58.734545 
" style="fill:none;stroke:#000000;stroke-dasharray:5.55,2.4;stroke-dashoffset:0;stroke-width:1.5;"/>
   </g>
   <g id="line2d_19">
    <path clip-path="url(#p19043b07bf)" d="M 81.858362 128.422124 
L 81.840269 100.535144 
L 72.32248 100.532101 
L 72.326707 133.691673 
L 127.941722 133.69049 
L 127.944765 100.535144 
L 119.928503 100.535144 
L 119.92732 128.422124 
L 81.858362 128.422124 
" style="fill:none;stroke:#ff0000;stroke-linecap:square;stroke-width:1.5;"/>
   </g>
   <g id="line2d_20">
    <path clip-path="url(#p19043b07bf)" d="M 345.522704 68.439518 
L 373.409684 68.421425 
L 373.412727 58.903636 
L 340.253155 58.907864 
L 340.254338 114.522878 
L 373.409684 114.525922 
L 373.409684 106.50966 
L 345.522704 106.508476 
L 345.522704 68.439518 
" style="fill:none;stroke:#ff0000;stroke-linecap:square;stroke-width:1.5;"/>
   </g>
   <g id="line2d_21">
    <path clip-path="url(#p19043b07bf)" d="M 310.589856 69.01672 
L 338.470607 68.42704 
L 338.278566 58.911188 
L 305.126047 59.595077 
L 306.267154 115.198383 
L 339.415597 114.521851 
L 339.25129 106.507273 
L 311.370144 107.077681 
L 310.589856 69.01672 
" style="fill:none;stroke:#ff0000;stroke-linecap:square;stroke-width:1.5;"/>
   </g>
   <g id="line2d_22">
    <path clip-path="url(#p19043b07bf)" d="M 345.522704 124.239518 
L 373.409684 124.221425 
L 373.412727 114.703636 
L 340.253155 114.707864 
L 340.254338 170.322878 
L 373.409684 170.325922 
L 373.409684 162.30966 
L 345.522704 162.308476 
L 345.522704 124.239518 
" style="fill:none;stroke:#ff0000;stroke-linecap:square;stroke-width:1.5;"/>
   </g>
   <g id="line2d_23">
    <path clip-path="url(#p19043b07bf)" d="M 289.038784 136.148886 
L 294.131075 108.73078 
L 284.775001 106.983726 
L 278.702917 139.582607 
L 333.376462 149.772472 
L 339.454919 117.179078 
L 331.57439 115.710159 
L 326.46315 143.124733 
L 289.038784 136.148886 
" style="fill:none;stroke:#ff0000;stroke-linecap:square;stroke-width:1.5;"/>
   </g>
   <g id="line2d_24">
    <path clip-path="url(#p19043b07bf)" d="M 370.854558 94.728391 
L 348.8728 94.676941 
L 347.678309 94.178889 
L 347.185853 92.982079 
L 347.237303 71.000321 
L 347.735356 69.80583 
L 348.932165 69.313374 
L 370.913923 69.364824 
L 372.108414 69.862876 
L 372.60087 71.059686 
L 372.54942 93.041444 
L 372.051368 94.235935 
L 370.854558 94.728391 
" style="fill:none;stroke:#ff0000;stroke-linecap:square;stroke-width:1.5;"/>
   </g>
   <g id="line2d_25">
    <path clip-path="url(#p19043b07bf)" d="M 349.553601 149.953919 
L 348.355672 149.464194 
L 347.854897 148.270841 
L 347.753325 126.289258 
L 348.24305 125.091328 
L 349.436403 124.590553 
L 371.417986 124.488981 
L 372.615915 124.978706 
L 373.11669 126.172059 
L 373.218263 148.153642 
L 372.728537 149.351572 
L 371.535185 149.852346 
L 349.553601 149.953919 
" style="fill:none;stroke:#ff0000;stroke-linecap:square;stroke-width:1.5;"/>
   </g>
   <g id="line2d_26">
    <path clip-path="url(#p19043b07bf)" d="M 316.019063 94.553267 
L 314.812857 94.084296 
L 314.291554 92.899767 
L 313.810496 70.923214 
L 314.279467 69.717008 
L 315.463996 69.195705 
L 337.44055 68.714648 
L 338.646756 69.183618 
L 339.168058 70.368147 
L 339.649116 92.344701 
L 339.180145 93.550907 
L 337.995616 94.07221 
L 316.019063 94.553267 
" style="fill:none;stroke:#ff0000;stroke-linecap:square;stroke-width:1.5;"/>
   </g>
   <g id="line2d_27">
    <path clip-path="url(#p19043b07bf)" d="M 95.916201 125.462869 
L 94.707519 125.000317 
L 94.179927 123.818576 
L 93.582058 101.84489 
L 94.044611 100.636208 
L 95.226352 100.108616 
L 117.200038 99.510747 
L 118.40872 99.9733 
L 118.936312 101.155041 
L 119.53418 123.128727 
L 119.071628 124.337409 
L 117.889887 124.865001 
L 95.916201 125.462869 
" style="fill:none;stroke:#ff0000;stroke-linecap:square;stroke-width:1.5;"/>
   </g>
   <g id="line2d_28">
    <path clip-path="url(#p19043b07bf)" d="M 315.318956 139.221274 
L 289.658826 133.996436 
L 294.796148 109.158521 
L 296.452009 109.50101 
L 318.383179 132.046492 
L 319.279057 133.426688 
L 319.5801 135.044375 
L 319.240696 136.654452 
L 318.312268 138.012966 
L 316.935487 138.914084 
L 315.318956 139.221274 
" style="fill:none;stroke:#ff0000;stroke-linecap:square;stroke-width:1.5;"/>
   </g>
   <g id="line2d_29">
    <path clip-path="url(#p19043b07bf)" d="M 69.984582 100.045391 
L 69.984582 74.681754 
L 71.675491 74.681754 
L 97.718599 92.317842 
L 98.875461 93.487973 
L 99.497922 95.011154 
L 99.491669 96.656603 
L 98.857647 98.175009 
L 97.691921 99.336311 
L 96.171118 99.964557 
L 69.984582 100.045391 
" style="fill:none;stroke:#ff0000;stroke-linecap:square;stroke-width:1.5;"/>
   </g>
   <g id="line2d_30">
    <path clip-path="url(#p19043b07bf)" d="M 74.236611 164.092429 
L 72.592382 164.028779 
L 71.097018 163.342174 
L 69.977088 162.136645 
L 69.402278 160.594851 
L 70.235007 134.421434 
L 95.583205 135.30624 
L 95.524218 136.99612 
L 76.990356 162.408145 
L 75.78058 163.523483 
L 74.236611 164.092429 
" style="fill:none;stroke:#ff0000;stroke-linecap:square;stroke-width:1.5;"/>
   </g>
   <g id="line2d_31">
    <path clip-path="url(#p19043b07bf)" d="M 353.083328 200.016977 
L 351.437879 200.010724 
L 349.919473 199.376702 
L 348.75817 198.210976 
L 348.129925 196.690172 
L 348.049091 170.503636 
L 373.412727 170.503636 
L 373.412727 172.194545 
L 355.77664 198.237653 
L 354.606509 199.394516 
L 353.083328 200.016977 
" style="fill:none;stroke:#ff0000;stroke-linecap:square;stroke-width:1.5;"/>
   </g>
   <g id="line2d_32">
    <path clip-path="url(#p19043b07bf)" d="M 312.898208 168.497471 
L 302.74451 145.254913 
L 304.294014 144.578 
L 335.219387 150.313531 
L 336.747938 150.922687 
L 337.928112 152.069302 
L 338.581096 153.579651 
L 338.607952 155.224892 
L 338.00461 156.755748 
L 336.862489 157.940271 
L 312.898208 168.497471 
" style="fill:none;stroke:#ff0000;stroke-linecap:square;stroke-width:1.5;"/>
   </g>
   <g id="line2d_33">
    <path clip-path="url(#p19043b07bf)" d="M 322.942072 191.891346 
L 310.946534 169.543614 
L 312.436383 168.743911 
L 343.723645 171.966062 
L 345.296353 172.449927 
L 346.565176 173.497604 
L 347.337869 174.950356 
L 347.497356 176.588069 
L 347.019471 178.162606 
L 345.976625 179.435402 
L 322.942072 191.891346 
" style="fill:none;stroke:#ff0000;stroke-linecap:square;stroke-width:1.5;"/>
   </g>
   <g id="line2d_34">
    <path clip-path="url(#p19043b07bf)" d="M 349.732579 210.896112 
L 366.274206 222.366986 
L 368.241926 222.780314 
L 369.248014 222.687782 
L 371.107333 221.922477 
L 371.887047 221.279962 
L 372.99366 219.601224 
L 373.362558 217.624675 
L 372.978054 191.556905 
L 369.107029 191.618055 
L 369.451737 215.059976 
L 370.692421 216.119358 
L 371.163978 217.672064 
L 370.721941 219.23343 
L 369.977728 220.029884 
L 368.414752 220.578479 
L 366.792828 220.167058 
L 365.96184 219.409366 
L 365.402831 217.832211 
L 365.814251 216.210288 
L 367.062387 215.082596 
L 366.71353 191.645979 
L 363.511401 191.700338 
L 363.706394 204.960873 
L 363.21784 206.171229 
L 362.343983 206.637381 
L 361.35928 206.531133 
L 356.421832 203.154351 
L 354.602788 202.365796 
L 352.620444 202.333375 
L 351.662632 202.606898 
L 349.996354 203.681261 
L 349.278177 204.547502 
L 348.496148 206.337036 
L 348.376825 207.31081 
L 348.703641 209.236216 
L 349.732579 210.896112 
" style="fill:none;stroke:#ff0000;stroke-linecap:square;stroke-width:1.5;"/>
   </g>
   <g id="line2d_35">
    <path clip-path="url(#p19043b07bf)" d="M 291.697125 168.805776 
L 303.893304 152.79142 
L 304.393855 150.844061 
L 304.346221 149.83485 
L 303.664481 147.943292 
L 303.057328 147.135738 
L 301.429539 145.95546 
L 299.47138 145.498902 
L 273.41235 144.722088 
L 273.301043 148.591996 
L 296.735056 149.291623 
L 297.848641 148.099349 
L 299.420807 147.697411 
L 300.960938 148.208545 
L 301.723458 148.98749 
L 302.201901 150.573347 
L 301.718656 152.175338 
L 300.924707 152.971758 
L 299.324222 153.459973 
L 297.72223 152.976729 
L 296.651244 151.679609 
L 273.222344 150.984364 
L 273.13404 154.185736 
L 286.390103 154.581498 
L 287.5775 155.123471 
L 288.004272 156.017222 
L 287.854276 156.996215 
L 284.260954 161.778379 
L 283.392169 163.5605 
L 283.271496 165.539432 
L 283.502091 166.508475 
L 284.501179 168.220948 
L 285.334577 168.976991 
L 287.087507 169.837941 
L 288.055001 170.000513 
L 289.993052 169.75977 
L 291.697125 168.805776 
" style="fill:none;stroke:#ff0000;stroke-linecap:square;stroke-width:1.5;"/>
   </g>
   <g id="line2d_36">
    <path clip-path="url(#p19043b07bf)" d="M 345.387493 207.064525 
L 347.686968 187.066555 
L 347.122055 185.136884 
L 346.56537 184.293748 
L 345.012723 183.016232 
L 344.078151 182.632366 
L 342.075806 182.449701 
L 340.159333 183.057947 
L 317.363041 195.707276 
L 319.245019 199.090578 
L 339.745505 187.716375 
L 340.093407 186.122464 
L 341.239375 184.973543 
L 342.824418 184.625834 
L 343.877917 184.905711 
L 345.099594 186.024351 
L 345.502888 187.648314 
L 345.227438 188.73862 
L 344.101219 189.976173 
L 342.477255 190.379467 
L 340.893806 189.811824 
L 320.399953 201.187181 
L 321.960061 203.98408 
L 333.556698 197.549965 
L 334.854303 197.409023 
L 335.677877 197.959161 
L 336.049245 198.877318 
L 335.404414 204.824187 
L 335.568366 206.800006 
L 336.475941 208.562687 
L 337.169366 209.277796 
L 338.903274 210.239201 
L 340.005993 210.463172 
L 341.952718 210.307404 
L 342.867417 209.952722 
L 344.410262 208.755379 
L 345.387493 207.064525 
" style="fill:none;stroke:#ff0000;stroke-linecap:square;stroke-width:1.5;"/>
   </g>
   <g id="line2d_37">
    <path clip-path="url(#p19043b07bf)" d="M 301.587578 193.337854 
L 312.430433 176.377935 
L 312.769723 174.396107 
L 312.639549 173.394193 
L 311.805097 171.564863 
L 311.133811 170.809778 
L 309.414778 169.76686 
L 307.425792 169.472299 
L 281.390747 170.83352 
L 281.596936 174.699533 
L 305.009467 173.476494 
L 306.021606 172.196977 
L 307.555547 171.667558 
L 309.132383 172.050767 
L 309.95617 172.764607 
L 310.562958 174.305924 
L 310.212614 175.942128 
L 309.486599 176.800929 
L 307.931503 177.418655 
L 306.295299 177.068312 
L 305.121622 175.863317 
L 281.714545 177.090304 
L 281.888877 180.288146 
L 295.132788 179.596302 
L 296.360604 180.03915 
L 296.859179 180.894923 
L 296.789912 181.882915 
L 293.600552 186.943452 
L 292.880726 188.790773 
L 292.922623 190.772938 
L 293.231852 191.719826 
L 294.367909 193.344668 
L 295.260458 194.029875 
L 297.078045 194.744285 
L 298.055606 194.827028 
L 299.967412 194.428281 
L 301.587578 193.337854 
" style="fill:none;stroke:#ff0000;stroke-linecap:square;stroke-width:1.5;"/>
   </g>
   <g id="line2d_38">
    <path clip-path="url(#p19043b07bf)" d="M 326.146953 203.284131 
L 316.438624 220.918039 
L 316.229914 222.917839 
L 316.425454 223.909071 
L 317.377972 225.679796 
L 318.09729 226.389275 
L 319.880962 227.31732 
L 321.884974 227.480928 
L 347.774886 224.416795 
L 347.315837 220.572599 
L 324.033749 223.327017 
L 323.10762 224.670101 
L 321.611662 225.298887 
L 320.013106 225.019818 
L 319.144319 224.361487 
L 318.437846 222.863239 
L 318.680232 221.207597 
L 319.348418 220.303071 
L 320.859698 219.584781 
L 322.515341 219.827167 
L 323.765449 220.952672 
L 347.041835 218.194671 
L 346.658352 215.015123 
L 333.48823 216.573232 
L 332.234037 216.211783 
L 331.680462 215.390516 
L 331.684846 214.400108 
L 334.535783 209.141476 
L 335.133024 207.250962 
L 334.961344 205.2758 
L 334.590739 204.351208 
L 333.350661 202.804293 
L 332.415135 202.179039 
L 330.554646 201.585254 
L 329.573763 201.566739 
L 327.692192 202.089893 
L 326.146953 203.284131 
" style="fill:none;stroke:#ff0000;stroke-linecap:square;stroke-width:1.5;"/>
   </g>
   <g id="line2d_39">
    <path clip-path="url(#p19043b07bf)" d="M 270.784725 177.90399 
L 283.517447 162.312834 
L 284.083808 160.383587 
L 284.070457 159.37334 
L 283.453315 157.459733 
L 282.873922 156.632035 
L 281.287134 155.397186 
L 279.345599 154.874425 
L 253.327953 153.213544 
L 253.085354 157.077443 
L 276.482116 158.572083 
L 277.635529 157.418294 
L 279.220432 157.069951 
L 280.742326 157.633067 
L 281.477967 158.437445 
L 281.902306 160.038628 
L 281.364964 161.623294 
L 280.54444 162.392306 
L 278.928305 162.825915 
L 277.343639 162.288572 
L 276.317298 160.955848 
L 252.925497 159.465761 
L 252.728581 162.662292 
L 265.963572 163.507774 
L 267.131888 164.089738 
L 267.528078 164.997459 
L 267.344939 165.970797 
L 263.591367 170.628238 
L 262.662593 172.379843 
L 262.474818 174.353539 
L 262.672389 175.329851 
L 263.612776 177.075248 
L 264.420031 177.859144 
L 266.142728 178.779097 
L 267.104146 178.974415 
L 269.049252 178.799593 
L 270.784725 177.90399 
" style="fill:none;stroke:#ff0000;stroke-linecap:square;stroke-width:1.5;"/>
   </g>
   <g id="line2d_40">
    <path clip-path="url(#p19043b07bf)" d="M 306.562261 223.400751 
L 321.932823 210.40259 
L 322.842628 208.609544 
L 323.014353 207.61391 
L 322.757773 205.619687 
L 322.339611 204.699949 
L 321.005558 203.195603 
L 319.192454 202.326415 
L 293.917952 195.93298 
L 292.97245 199.687257 
L 315.700733 205.437699 
L 317.045789 204.514436 
L 318.667673 204.461972 
L 320.060837 205.29405 
L 320.636877 206.219453 
L 320.761075 207.871247 
L 319.942849 209.33084 
L 318.995467 209.936733 
L 317.327277 210.067308 
L 315.867684 209.249082 
L 315.102526 207.751062 
L 292.378288 202.006004 
L 291.599809 205.112539 
L 304.456657 208.365426 
L 305.498764 209.151338 
L 305.722175 210.116228 
L 305.36403 211.039624 
L 300.821631 214.931623 
L 299.588035 216.483714 
L 299.042293 218.389731 
L 299.057887 219.385711 
L 299.663033 221.273709 
L 300.313226 222.192078 
L 301.83851 223.411712 
L 302.747959 223.779648 
L 304.692214 223.963685 
L 306.562261 223.400751 
" style="fill:none;stroke:#ff0000;stroke-linecap:square;stroke-width:1.5;"/>
   </g>
   <g id="line2d_41">
    <path clip-path="url(#p19043b07bf)" d="M 276.605987 204.617254 
L 269.37568 180.306008 
L 296.097029 181.179449 
L 276.605987 204.617254 
" style="fill:none;stroke:#ff0000;stroke-linecap:square;stroke-width:1.5;"/>
   </g>
   <g id="line2d_42">
    <path clip-path="url(#p19043b07bf)" d="M 279.866207 227.534357 
L 279.592453 202.172198 
L 305.045863 210.352498 
L 279.866207 227.534357 
" style="fill:none;stroke:#ff0000;stroke-linecap:square;stroke-width:1.5;"/>
   </g>
   <g id="line2d_43">
    <path clip-path="url(#p19043b07bf)" d="M 233.879806 169.018257 
L 225.716919 145.004067 
L 252.452072 144.84591 
L 233.879806 169.018257 
" style="fill:none;stroke:#ff0000;stroke-linecap:square;stroke-width:1.5;"/>
   </g>
   <g id="line2d_44">
    <path clip-path="url(#p19043b07bf)" d="M 271.316401 190.189751 
L 241.011733 186.894533 
L 257.279807 167.435247 
L 271.316401 190.189751 
" style="fill:none;stroke:#ff0000;stroke-linecap:square;stroke-width:1.5;"/>
   </g>
   <g id="line2d_45">
    <path clip-path="url(#p19043b07bf)" d="M 180.6151 140.478279 
L 179.51763 115.138397 
L 205.223335 122.487554 
L 180.6151 140.478279 
" style="fill:none;stroke:#ff0000;stroke-linecap:square;stroke-width:1.5;"/>
   </g>
   <g id="patch_33">
    <path d="M 54 252 
L 54 34.56 
" style="fill:none;stroke:#000000;stroke-linecap:square;stroke-linejoin:miter;stroke-width:0.8;"/>
   </g>
   <g id="patch_34">
    <path d="M 388.8 252 
L 388.8 34.56 
" style="fill:none;stroke:#000000;stroke-linecap:square;stroke-linejoin:miter;stroke-width:0.8;"/>
   </g>
   <g id="patch_35">
    <path d="M 54 252 
L 388.8 252 
" style="fill:none;stroke:#000000;stroke-linecap:square;stroke-linejoin:miter;stroke-width:0.8;"/>
   </g>
   <g id="patch_36">
    <path d="M 54 34.56 
L 388.8 34.56 
" style="fill:none;stroke:#000000;stroke-linecap:square;stroke-linejoin:miter;stroke-width:0.8;"/>
   </g>
  </g>
 </g>
 <defs>
  <clipPath id="p19043b07bf">
   <rect height="217.44" width="334.8" x="54" y="34.56"/>
  </clipPath>
 </defs>
</svg>
