<?xml version="1.0" encoding="utf-8" standalone="no"?>
<!DOCTYPE svg PUBLIC "-//W3C//DTD SVG 1.1//EN"
  "http://www.w3.org/Graphics/SVG/1.1/DTD/svg11.dtd">
<!-- Created with matplotlib (https://matplotlib.org/) -->
<svg height="288pt" version="1.1" viewBox="0 0 432 288" width="432pt" xmlns="http://www.w3.org/2000/svg" xmlns:xlink="http://www.w3.org/1999/xlink">
 <defs>
  <style type="text/css">
*{stroke-linecap:butt;stroke-linejoin:round;}
  </style>
 </defs>
 <g id="figure_1">
  <g id="patch_1">
   <path d="M 0 288 
L 432 288 
L 432 0 
L 0 0 
z
" style="fill:#ffffff;"/>
  </g>
  <g id="axes_1">
   <g id="patch_2">
    <path d="M 54 252 
L 388.8 252 
L 388.8 34.56 
L 54 34.56 
z
" style="fill:#ffffff;"/>
   </g>
   <g id="patch_3">
    <path clip-path="url(#pef3dbe0770)" d="M 69.218182 172.860638 
L 69.218182 227.825455 
L 174.907336 227.825455 
z
" style="fill:#aaaaaa;"/>
   </g>
   <g id="patch_4">
    <path clip-path="url(#pef3dbe0770)" d="M 105.040687 136.800432 
L 107.85789 170.606875 
L 145.608419 168.916553 
L 140.537452 132.292906 
z
" style="fill:#aaaaaa;"/>
   </g>
   <g id="patch_5">
    <path clip-path="url(#pef3dbe0770)" d="M 89.827787 58.734545 
L 88.700906 58.734545 
L 97.152516 91.725174 
L 207.412119 122.702872 
L 206.460017 144.125161 
L 276.890108 144.125161 
L 292.666448 58.734545 
L 117.436383 58.734545 
z
" style="fill:#aaaaaa;"/>
   </g>
   <g id="patch_6">
    <path clip-path="url(#pef3dbe0770)" d="M 97.277296 162.996851 
L 69.390316 163.014943 
L 69.387273 172.532733 
L 102.546845 172.528505 
L 102.545662 116.913491 
L 69.390316 116.910447 
L 69.390316 124.926709 
L 97.277296 124.927893 
z
" style="fill:#f6929c;"/>
   </g>
   <g id="patch_7">
    <path clip-path="url(#pef3dbe0770)" d="M 149.97718 170.189357 
L 122.0902 170.20745 
L 122.087156 179.725239 
L 155.246729 179.721012 
L 155.245545 124.105997 
L 122.0902 124.102954 
L 122.0902 132.119215 
L 149.97718 132.120399 
z
" style="fill:#f6929c;"/>
   </g>
   <g id="patch_8">
    <path clip-path="url(#pef3dbe0770)" d="M 183.341525 207.942208 
L 155.454545 207.960301 
L 155.451502 217.47809 
L 188.611075 217.473863 
L 188.609891 161.858848 
L 155.454545 161.855804 
L 155.454545 169.872066 
L 183.341525 169.87325 
z
" style="fill:#f6929c;"/>
   </g>
   <g id="patch_9">
    <path clip-path="url(#pef3dbe0770)" d="M 69.387273 116.732727 
L 69.387273 91.369091 
L 94.750909 91.369091 
L 94.750909 116.732727 
z
" style="fill:#f6929c;"/>
   </g>
   <g id="patch_10">
    <path clip-path="url(#pef3dbe0770)" d="M 69.387273 162.741749 
L 69.387273 137.378113 
L 94.750909 137.378113 
L 94.750909 162.741749 
z
" style="fill:#f6929c;"/>
   </g>
   <g id="patch_11">
    <path clip-path="url(#pef3dbe0770)" d="M 132.201756 205.336364 
L 132.201756 179.972727 
L 157.565393 179.972727 
L 157.565393 205.336364 
z
" style="fill:#f6929c;"/>
   </g>
   <g id="patch_12">
    <path clip-path="url(#pef3dbe0770)" d="M 157.652727 195.36 
L 157.652727 169.996364 
L 183.016364 169.996364 
L 183.016364 195.36 
z
" style="fill:#f6929c;"/>
   </g>
   <g id="patch_13">
    <path clip-path="url(#pef3dbe0770)" d="M 155.454545 161.710909 
L 155.454545 136.347273 
L 180.818182 136.347273 
L 180.818182 161.710909 
z
" style="fill:#f6929c;"/>
   </g>
   <g id="patch_14">
    <path clip-path="url(#pef3dbe0770)" d="M 180.987273 147.905413 
L 180.987273 122.541777 
L 206.350909 122.541777 
L 206.350909 147.905413 
z
" style="fill:#f6929c;"/>
   </g>
   <g id="patch_15">
    <path clip-path="url(#pef3dbe0770)" d="M 188.765455 227.656364 
L 188.765455 202.292727 
L 214.129091 202.292727 
L 214.129091 227.656364 
z
" style="fill:#f6929c;"/>
   </g>
   <g id="patch_16">
    <path clip-path="url(#pef3dbe0770)" d="M 118.198666 198.011866 
L 92.155558 180.375779 
L 90.998696 179.205648 
L 90.376235 177.682467 
L 90.382488 176.037018 
L 91.016509 174.518612 
L 92.182236 173.357309 
L 93.703039 172.729064 
L 119.889575 172.64823 
L 119.889575 198.011866 
z
" style="fill:#f6929c;"/>
   </g>
   <g id="patch_17">
    <path clip-path="url(#pef3dbe0770)" d="M 107.681956 130.067175 
L 106.036507 130.060922 
L 104.518101 129.4269 
L 103.356798 128.261174 
L 102.728553 126.74037 
L 102.647719 100.553834 
L 128.011355 100.553834 
L 128.011355 102.244744 
L 110.375268 128.287851 
L 109.205137 129.444714 
z
" style="fill:#f6929c;"/>
   </g>
   <g id="patch_18">
    <path clip-path="url(#pef3dbe0770)" d="M 208.809704 175.364023 
L 182.766596 157.727936 
L 181.609734 156.557805 
L 180.987273 155.034623 
L 180.993526 153.389174 
L 181.627547 151.870769 
L 182.793274 150.709466 
L 184.314077 150.08122 
L 210.500613 150.000386 
L 210.500613 175.364023 
z
" style="fill:#f6929c;"/>
   </g>
   <g id="patch_19">
    <path clip-path="url(#pef3dbe0770)" d="M 188.765455 202.123636 
L 188.765455 176.76 
L 190.456364 176.76 
L 216.499472 194.396087 
L 217.656334 195.566218 
L 218.278795 197.089399 
L 218.272542 198.734848 
L 217.63852 200.253254 
L 216.472794 201.414557 
L 214.95199 202.042802 
z
" style="fill:#f6929c;"/>
   </g>
   <g id="patch_20">
    <path clip-path="url(#pef3dbe0770)" d="M 226.45597 200.885769 
L 200.412862 183.249682 
L 199.256 182.079551 
L 198.633539 180.55637 
L 198.639792 178.910921 
L 199.273813 177.392515 
L 200.43954 176.231212 
L 201.960343 175.602966 
L 228.146879 175.522133 
L 228.146879 200.885769 
z
" style="fill:#f6929c;"/>
   </g>
   <g id="patch_21">
    <path clip-path="url(#pef3dbe0770)" d="M 215.763727 173.795803 
L 214.118278 173.78955 
L 212.599872 173.155528 
L 211.438569 171.989802 
L 210.810324 170.468998 
L 210.72949 144.282462 
L 236.093126 144.282462 
L 236.093126 145.973371 
L 218.457039 172.016479 
L 217.286908 173.173342 
z
" style="fill:#f6929c;"/>
   </g>
   <g id="patch_22">
    <path clip-path="url(#pef3dbe0770)" d="M 214.289948 223.419666 
L 214.289948 221.728757 
L 231.926035 195.68565 
L 233.096166 194.528787 
L 234.619347 193.906326 
L 236.264796 193.912579 
L 237.783202 194.546601 
L 238.944505 195.712327 
L 239.57275 197.233131 
L 239.653584 223.419666 
z
" style="fill:#f6929c;"/>
   </g>
   <g id="patch_23">
    <path clip-path="url(#pef3dbe0770)" d="M 155.454545 136.178182 
L 155.454545 110.814545 
L 180.818182 119.269091 
z
" style="fill:#f6929c;"/>
   </g>
   <g id="patch_24">
    <path clip-path="url(#pef3dbe0770)" d="M 69.387273 91.2 
L 77.841818 65.836364 
L 94.750909 91.2 
z
" style="fill:#f6929c;"/>
   </g>
   <g id="patch_25">
    <path clip-path="url(#pef3dbe0770)" d="M 243.907827 180.700394 
L 218.544191 172.245849 
L 243.907827 155.336758 
z
" style="fill:#f6929c;"/>
   </g>
   <g id="patch_26">
    <path clip-path="url(#pef3dbe0770)" d="M 246.064491 206.012727 
L 229.1554 180.649091 
L 254.519036 180.649091 
z
" style="fill:#f6929c;"/>
   </g>
   <g id="patch_27">
    <path clip-path="url(#pef3dbe0770)" d="M 253.674131 169.658182 
L 236.76504 144.294545 
L 262.128677 144.294545 
z
" style="fill:#f6929c;"/>
   </g>
   <g id="patch_28">
    <path clip-path="url(#pef3dbe0770)" d="M 239.163692 227.656364 
L 247.618237 202.292727 
L 264.527328 227.656364 
z
" style="fill:#f6929c;"/>
   </g>
   <g id="patch_29">
    <path clip-path="url(#pef3dbe0770)" d="M 269.561767 184.591741 
L 244.19813 176.137196 
L 269.561767 159.228105 
z
" style="fill:#f6929c;"/>
   </g>
   <g id="patch_30">
    <path clip-path="url(#pef3dbe0770)" d="M 257.769688 212.446223 
L 252.899532 207.747694 
L 248.204553 202.881088 
L 249.838479 196.314105 
L 251.705581 189.814588 
L 258.209832 187.946134 
L 264.772081 186.313561 
L 269.642237 191.01209 
L 274.337215 195.878695 
L 272.70329 202.445679 
L 270.836188 208.945195 
L 264.331937 210.81365 
z
" style="fill:#f6929c;"/>
   </g>
   <g id="patch_31">
    <path clip-path="url(#pef3dbe0770)" d="M 284.782608 169.511436 
L 278.215625 167.877511 
L 271.716108 166.010409 
L 269.847654 159.506158 
L 268.215081 152.943909 
L 272.91361 148.073753 
L 277.780215 143.378774 
L 284.347199 145.0127 
L 290.846715 146.879802 
L 292.71517 153.384053 
L 294.347743 159.946302 
L 289.649214 164.816458 
z
" style="fill:#f6929c;"/>
   </g>
   <g id="patch_32">
    <path clip-path="url(#pef3dbe0770)" d="M 278.086651 199.195764 
L 273.216495 194.497235 
L 268.521516 189.630629 
L 270.155442 183.063646 
L 272.022544 176.564129 
L 278.526795 174.695675 
L 285.089044 173.063102 
L 289.9592 177.761631 
L 294.654178 182.628237 
L 293.020253 189.19522 
L 291.153151 195.694737 
L 284.6489 197.563191 
z
" style="fill:#f6929c;"/>
   </g>
   <g id="patch_33">
    <path clip-path="url(#pef3dbe0770)" d="M 278.13279 227.656364 
L 273.262634 222.957835 
L 268.567656 218.091229 
L 270.201581 211.524245 
L 272.068683 205.024729 
L 278.572934 203.156275 
L 285.135183 201.523702 
L 290.005339 206.222231 
L 294.700318 211.088836 
L 293.066392 217.65582 
L 291.19929 224.155336 
L 284.695039 226.023791 
z
" style="fill:#f6929c;"/>
   </g>
   <g id="patch_34">
    <path clip-path="url(#pef3dbe0770)" d="M 288.029667 145.921298 
L 283.159511 141.222769 
L 278.464533 136.356163 
L 280.098458 129.78918 
L 281.96556 123.289663 
L 288.469811 121.421209 
L 295.03206 119.788636 
L 299.902216 124.487165 
L 304.597195 129.353771 
L 302.963269 135.920754 
L 301.096167 142.420271 
L 294.591916 144.288725 
z
" style="fill:#f6929c;"/>
   </g>
   <g id="patch_35">
    <path clip-path="url(#pef3dbe0770)" d="M 292.776791 120.143906 
L 287.906635 115.445377 
L 283.211657 110.578771 
L 284.845582 104.011788 
L 286.712684 97.512271 
L 293.216935 95.643817 
L 299.779184 94.011244 
L 304.64934 98.709773 
L 309.344318 103.576378 
L 307.710393 110.143362 
L 305.843291 116.642878 
L 299.33904 118.511333 
z
" style="fill:#f6929c;"/>
   </g>
   <g id="patch_36">
    <path clip-path="url(#pef3dbe0770)" d="M 297.501814 94.486523 
L 292.631658 89.787994 
L 287.936679 84.921389 
L 289.570605 78.354405 
L 291.437707 71.854889 
L 297.941958 69.986434 
L 304.504207 68.353862 
L 309.374363 73.052391 
L 314.069341 77.918996 
L 312.435416 84.48598 
L 310.568314 90.985496 
L 304.064063 92.853951 
z
" style="fill:#f6929c;"/>
   </g>
   <g id="matplotlib.axis_1">
    <g id="xtick_1">
     <g id="line2d_1">
      <defs>
       <path d="M 0 0 
L 0 3.5 
" id="mc18457eb64" style="stroke:#000000;stroke-width:0.8;"/>
      </defs>
      <g>
       <use style="stroke:#000000;stroke-width:0.8;" x="69.218182" xlink:href="#mc18457eb64" y="252"/>
      </g>
     </g>
     <g id="text_1">
      <!-- 0 -->
      <defs>
       <path d="M 31.78125 66.40625 
Q 24.171875 66.40625 20.328125 58.90625 
Q 16.5 51.421875 16.5 36.375 
Q 16.5 21.390625 20.328125 13.890625 
Q 24.171875 6.390625 31.78125 6.390625 
Q 39.453125 6.390625 43.28125 13.890625 
Q 47.125 21.390625 47.125 36.375 
Q 47.125 51.421875 43.28125 58.90625 
Q 39.453125 66.40625 31.78125 66.40625 
z
M 31.78125 74.21875 
Q 44.046875 74.21875 50.515625 64.515625 
Q 56.984375 54.828125 56.984375 36.375 
Q 56.984375 17.96875 50.515625 8.265625 
Q 44.046875 -1.421875 31.78125 -1.421875 
Q 19.53125 -1.421875 13.0625 8.265625 
Q 6.59375 17.96875 6.59375 36.375 
Q 6.59375 54.828125 13.0625 64.515625 
Q 19.53125 74.21875 31.78125 74.21875 
z
" id="DejaVuSans-48"/>
      </defs>
      <g transform="translate(66.036932 266.598437)scale(0.1 -0.1)">
       <use xlink:href="#DejaVuSans-48"/>
      </g>
     </g>
    </g>
    <g id="xtick_2">
     <g id="line2d_2">
      <g>
       <use style="stroke:#000000;stroke-width:0.8;" x="111.490909" xlink:href="#mc18457eb64" y="252"/>
      </g>
     </g>
     <g id="text_2">
      <!-- 250 -->
      <defs>
       <path d="M 19.1875 8.296875 
L 53.609375 8.296875 
L 53.609375 0 
L 7.328125 0 
L 7.328125 8.296875 
Q 12.9375 14.109375 22.625 23.890625 
Q 32.328125 33.6875 34.8125 36.53125 
Q 39.546875 41.84375 41.421875 45.53125 
Q 43.3125 49.21875 43.3125 52.78125 
Q 43.3125 58.59375 39.234375 62.25 
Q 35.15625 65.921875 28.609375 65.921875 
Q 23.96875 65.921875 18.8125 64.3125 
Q 13.671875 62.703125 7.8125 59.421875 
L 7.8125 69.390625 
Q 13.765625 71.78125 18.9375 73 
Q 24.125 74.21875 28.421875 74.21875 
Q 39.75 74.21875 46.484375 68.546875 
Q 53.21875 62.890625 53.21875 53.421875 
Q 53.21875 48.921875 51.53125 44.890625 
Q 49.859375 40.875 45.40625 35.40625 
Q 44.1875 33.984375 37.640625 27.21875 
Q 31.109375 20.453125 19.1875 8.296875 
z
" id="DejaVuSans-50"/>
       <path d="M 10.796875 72.90625 
L 49.515625 72.90625 
L 49.515625 64.59375 
L 19.828125 64.59375 
L 19.828125 46.734375 
Q 21.96875 47.46875 24.109375 47.828125 
Q 26.265625 48.1875 28.421875 48.1875 
Q 40.625 48.1875 47.75 41.5 
Q 54.890625 34.8125 54.890625 23.390625 
Q 54.890625 11.625 47.5625 5.09375 
Q 40.234375 -1.421875 26.90625 -1.421875 
Q 22.3125 -1.421875 17.546875 -0.640625 
Q 12.796875 0.140625 7.71875 1.703125 
L 7.71875 11.625 
Q 12.109375 9.234375 16.796875 8.0625 
Q 21.484375 6.890625 26.703125 6.890625 
Q 35.15625 6.890625 40.078125 11.328125 
Q 45.015625 15.765625 45.015625 23.390625 
Q 45.015625 31 40.078125 35.4375 
Q 35.15625 39.890625 26.703125 39.890625 
Q 22.75 39.890625 18.8125 39.015625 
Q 14.890625 38.140625 10.796875 36.28125 
z
" id="DejaVuSans-53"/>
      </defs>
      <g transform="translate(101.947159 266.598437)scale(0.1 -0.1)">
       <use xlink:href="#DejaVuSans-50"/>
       <use x="63.623047" xlink:href="#DejaVuSans-53"/>
       <use x="127.246094" xlink:href="#DejaVuSans-48"/>
      </g>
     </g>
    </g>
    <g id="xtick_3">
     <g id="line2d_3">
      <g>
       <use style="stroke:#000000;stroke-width:0.8;" x="153.763636" xlink:href="#mc18457eb64" y="252"/>
      </g>
     </g>
     <g id="text_3">
      <!-- 500 -->
      <g transform="translate(144.219886 266.598437)scale(0.1 -0.1)">
       <use xlink:href="#DejaVuSans-53"/>
       <use x="63.623047" xlink:href="#DejaVuSans-48"/>
       <use x="127.246094" xlink:href="#DejaVuSans-48"/>
      </g>
     </g>
    </g>
    <g id="xtick_4">
     <g id="line2d_4">
      <g>
       <use style="stroke:#000000;stroke-width:0.8;" x="196.036364" xlink:href="#mc18457eb64" y="252"/>
      </g>
     </g>
     <g id="text_4">
      <!-- 750 -->
      <defs>
       <path d="M 8.203125 72.90625 
L 55.078125 72.90625 
L 55.078125 68.703125 
L 28.609375 0 
L 18.3125 0 
L 43.21875 64.59375 
L 8.203125 64.59375 
z
" id="DejaVuSans-55"/>
      </defs>
      <g transform="translate(186.492614 266.598437)scale(0.1 -0.1)">
       <use xlink:href="#DejaVuSans-55"/>
       <use x="63.623047" xlink:href="#DejaVuSans-53"/>
       <use x="127.246094" xlink:href="#DejaVuSans-48"/>
      </g>
     </g>
    </g>
    <g id="xtick_5">
     <g id="line2d_5">
      <g>
       <use style="stroke:#000000;stroke-width:0.8;" x="238.309091" xlink:href="#mc18457eb64" y="252"/>
      </g>
     </g>
     <g id="text_5">
      <!-- 1000 -->
      <defs>
       <path d="M 12.40625 8.296875 
L 28.515625 8.296875 
L 28.515625 63.921875 
L 10.984375 60.40625 
L 10.984375 69.390625 
L 28.421875 72.90625 
L 38.28125 72.90625 
L 38.28125 8.296875 
L 54.390625 8.296875 
L 54.390625 0 
L 12.40625 0 
z
" id="DejaVuSans-49"/>
      </defs>
      <g transform="translate(225.584091 266.598437)scale(0.1 -0.1)">
       <use xlink:href="#DejaVuSans-49"/>
       <use x="63.623047" xlink:href="#DejaVuSans-48"/>
       <use x="127.246094" xlink:href="#DejaVuSans-48"/>
       <use x="190.869141" xlink:href="#DejaVuSans-48"/>
      </g>
     </g>
    </g>
    <g id="xtick_6">
     <g id="line2d_6">
      <g>
       <use style="stroke:#000000;stroke-width:0.8;" x="280.581818" xlink:href="#mc18457eb64" y="252"/>
      </g>
     </g>
     <g id="text_6">
      <!-- 1250 -->
      <g transform="translate(267.856818 266.598437)scale(0.1 -0.1)">
       <use xlink:href="#DejaVuSans-49"/>
       <use x="63.623047" xlink:href="#DejaVuSans-50"/>
       <use x="127.246094" xlink:href="#DejaVuSans-53"/>
       <use x="190.869141" xlink:href="#DejaVuSans-48"/>
      </g>
     </g>
    </g>
    <g id="xtick_7">
     <g id="line2d_7">
      <g>
       <use style="stroke:#000000;stroke-width:0.8;" x="322.854545" xlink:href="#mc18457eb64" y="252"/>
      </g>
     </g>
     <g id="text_7">
      <!-- 1500 -->
      <g transform="translate(310.129545 266.598437)scale(0.1 -0.1)">
       <use xlink:href="#DejaVuSans-49"/>
       <use x="63.623047" xlink:href="#DejaVuSans-53"/>
       <use x="127.246094" xlink:href="#DejaVuSans-48"/>
       <use x="190.869141" xlink:href="#DejaVuSans-48"/>
      </g>
     </g>
    </g>
    <g id="xtick_8">
     <g id="line2d_8">
      <g>
       <use style="stroke:#000000;stroke-width:0.8;" x="365.127273" xlink:href="#mc18457eb64" y="252"/>
      </g>
     </g>
     <g id="text_8">
      <!-- 1750 -->
      <g transform="translate(352.402273 266.598437)scale(0.1 -0.1)">
       <use xlink:href="#DejaVuSans-49"/>
       <use x="63.623047" xlink:href="#DejaVuSans-55"/>
       <use x="127.246094" xlink:href="#DejaVuSans-53"/>
       <use x="190.869141" xlink:href="#DejaVuSans-48"/>
      </g>
     </g>
    </g>
   </g>
   <g id="matplotlib.axis_2">
    <g id="ytick_1">
     <g id="line2d_9">
      <defs>
       <path d="M 0 0 
L -3.5 0 
" id="m1f96d97c75" style="stroke:#000000;stroke-width:0.8;"/>
      </defs>
      <g>
       <use style="stroke:#000000;stroke-width:0.8;" x="54" xlink:href="#m1f96d97c75" y="227.825455"/>
      </g>
     </g>
     <g id="text_9">
      <!-- 0 -->
      <g transform="translate(40.6375 231.624673)scale(0.1 -0.1)">
       <use xlink:href="#DejaVuSans-48"/>
      </g>
     </g>
    </g>
    <g id="ytick_2">
     <g id="line2d_10">
      <g>
       <use style="stroke:#000000;stroke-width:0.8;" x="54" xlink:href="#m1f96d97c75" y="194.007273"/>
      </g>
     </g>
     <g id="text_10">
      <!-- 200 -->
      <g transform="translate(27.9125 197.806491)scale(0.1 -0.1)">
       <use xlink:href="#DejaVuSans-50"/>
       <use x="63.623047" xlink:href="#DejaVuSans-48"/>
       <use x="127.246094" xlink:href="#DejaVuSans-48"/>
      </g>
     </g>
    </g>
    <g id="ytick_3">
     <g id="line2d_11">
      <g>
       <use style="stroke:#000000;stroke-width:0.8;" x="54" xlink:href="#m1f96d97c75" y="160.189091"/>
      </g>
     </g>
     <g id="text_11">
      <!-- 400 -->
      <defs>
       <path d="M 37.796875 64.3125 
L 12.890625 25.390625 
L 37.796875 25.390625 
z
M 35.203125 72.90625 
L 47.609375 72.90625 
L 47.609375 25.390625 
L 58.015625 25.390625 
L 58.015625 17.1875 
L 47.609375 17.1875 
L 47.609375 0 
L 37.796875 0 
L 37.796875 17.1875 
L 4.890625 17.1875 
L 4.890625 26.703125 
z
" id="DejaVuSans-52"/>
      </defs>
      <g transform="translate(27.9125 163.98831)scale(0.1 -0.1)">
       <use xlink:href="#DejaVuSans-52"/>
       <use x="63.623047" xlink:href="#DejaVuSans-48"/>
       <use x="127.246094" xlink:href="#DejaVuSans-48"/>
      </g>
     </g>
    </g>
    <g id="ytick_4">
     <g id="line2d_12">
      <g>
       <use style="stroke:#000000;stroke-width:0.8;" x="54" xlink:href="#m1f96d97c75" y="126.370909"/>
      </g>
     </g>
     <g id="text_12">
      <!-- 600 -->
      <defs>
       <path d="M 33.015625 40.375 
Q 26.375 40.375 22.484375 35.828125 
Q 18.609375 31.296875 18.609375 23.390625 
Q 18.609375 15.53125 22.484375 10.953125 
Q 26.375 6.390625 33.015625 6.390625 
Q 39.65625 6.390625 43.53125 10.953125 
Q 47.40625 15.53125 47.40625 23.390625 
Q 47.40625 31.296875 43.53125 35.828125 
Q 39.65625 40.375 33.015625 40.375 
z
M 52.59375 71.296875 
L 52.59375 62.3125 
Q 48.875 64.0625 45.09375 64.984375 
Q 41.3125 65.921875 37.59375 65.921875 
Q 27.828125 65.921875 22.671875 59.328125 
Q 17.53125 52.734375 16.796875 39.40625 
Q 19.671875 43.65625 24.015625 45.921875 
Q 28.375 48.1875 33.59375 48.1875 
Q 44.578125 48.1875 50.953125 41.515625 
Q 57.328125 34.859375 57.328125 23.390625 
Q 57.328125 12.15625 50.6875 5.359375 
Q 44.046875 -1.421875 33.015625 -1.421875 
Q 20.359375 -1.421875 13.671875 8.265625 
Q 6.984375 17.96875 6.984375 36.375 
Q 6.984375 53.65625 15.1875 63.9375 
Q 23.390625 74.21875 37.203125 74.21875 
Q 40.921875 74.21875 44.703125 73.484375 
Q 48.484375 72.75 52.59375 71.296875 
z
" id="DejaVuSans-54"/>
      </defs>
      <g transform="translate(27.9125 130.170128)scale(0.1 -0.1)">
       <use xlink:href="#DejaVuSans-54"/>
       <use x="63.623047" xlink:href="#DejaVuSans-48"/>
       <use x="127.246094" xlink:href="#DejaVuSans-48"/>
      </g>
     </g>
    </g>
    <g id="ytick_5">
     <g id="line2d_13">
      <g>
       <use style="stroke:#000000;stroke-width:0.8;" x="54" xlink:href="#m1f96d97c75" y="92.552727"/>
      </g>
     </g>
     <g id="text_13">
      <!-- 800 -->
      <defs>
       <path d="M 31.78125 34.625 
Q 24.75 34.625 20.71875 30.859375 
Q 16.703125 27.09375 16.703125 20.515625 
Q 16.703125 13.921875 20.71875 10.15625 
Q 24.75 6.390625 31.78125 6.390625 
Q 38.8125 6.390625 42.859375 10.171875 
Q 46.921875 13.96875 46.921875 20.515625 
Q 46.921875 27.09375 42.890625 30.859375 
Q 38.875 34.625 31.78125 34.625 
z
M 21.921875 38.8125 
Q 15.578125 40.375 12.03125 44.71875 
Q 8.5 49.078125 8.5 55.328125 
Q 8.5 64.0625 14.71875 69.140625 
Q 20.953125 74.21875 31.78125 74.21875 
Q 42.671875 74.21875 48.875 69.140625 
Q 55.078125 64.0625 55.078125 55.328125 
Q 55.078125 49.078125 51.53125 44.71875 
Q 48 40.375 41.703125 38.8125 
Q 48.828125 37.15625 52.796875 32.3125 
Q 56.78125 27.484375 56.78125 20.515625 
Q 56.78125 9.90625 50.3125 4.234375 
Q 43.84375 -1.421875 31.78125 -1.421875 
Q 19.734375 -1.421875 13.25 4.234375 
Q 6.78125 9.90625 6.78125 20.515625 
Q 6.78125 27.484375 10.78125 32.3125 
Q 14.796875 37.15625 21.921875 38.8125 
z
M 18.3125 54.390625 
Q 18.3125 48.734375 21.84375 45.5625 
Q 25.390625 42.390625 31.78125 42.390625 
Q 38.140625 42.390625 41.71875 45.5625 
Q 45.3125 48.734375 45.3125 54.390625 
Q 45.3125 60.0625 41.71875 63.234375 
Q 38.140625 66.40625 31.78125 66.40625 
Q 25.390625 66.40625 21.84375 63.234375 
Q 18.3125 60.0625 18.3125 54.390625 
z
" id="DejaVuSans-56"/>
      </defs>
      <g transform="translate(27.9125 96.351946)scale(0.1 -0.1)">
       <use xlink:href="#DejaVuSans-56"/>
       <use x="63.623047" xlink:href="#DejaVuSans-48"/>
       <use x="127.246094" xlink:href="#DejaVuSans-48"/>
      </g>
     </g>
    </g>
    <g id="ytick_6">
     <g id="line2d_14">
      <g>
       <use style="stroke:#000000;stroke-width:0.8;" x="54" xlink:href="#m1f96d97c75" y="58.734545"/>
      </g>
     </g>
     <g id="text_14">
      <!-- 1000 -->
      <g transform="translate(21.55 62.533764)scale(0.1 -0.1)">
       <use xlink:href="#DejaVuSans-49"/>
       <use x="63.623047" xlink:href="#DejaVuSans-48"/>
       <use x="127.246094" xlink:href="#DejaVuSans-48"/>
       <use x="190.869141" xlink:href="#DejaVuSans-48"/>
      </g>
     </g>
    </g>
   </g>
   <g id="line2d_15">
    <path clip-path="url(#pef3dbe0770)" d="M 69.218182 227.825455 
L 373.581818 227.825455 
L 373.581818 58.734545 
L 69.218182 58.734545 
L 69.218182 227.825455 
" style="fill:none;stroke:#000000;stroke-linecap:square;stroke-width:1.5;"/>
   </g>
   <g id="line2d_16">
    <path clip-path="url(#pef3dbe0770)" d="M 69.218182 172.860638 
L 69.218182 227.825455 
L 174.907336 227.825455 
L 69.218182 172.860638 
" style="fill:none;stroke:#000000;stroke-dasharray:5.55,2.4;stroke-dashoffset:0;stroke-width:1.5;"/>
   </g>
   <g id="line2d_17">
    <path clip-path="url(#pef3dbe0770)" d="M 105.040687 136.800432 
L 107.85789 170.606875 
L 145.608419 168.916553 
L 140.537452 132.292906 
L 105.040687 136.800432 
" style="fill:none;stroke:#000000;stroke-dasharray:5.55,2.4;stroke-dashoffset:0;stroke-width:1.5;"/>
   </g>
   <g id="line2d_18">
    <path clip-path="url(#pef3dbe0770)" d="M 89.827787 58.734545 
L 88.700906 58.734545 
L 97.152516 91.725174 
L 207.412119 122.702872 
L 206.460017 144.125161 
L 276.890108 144.125161 
L 292.666448 58.734545 
L 117.436383 58.734545 
L 89.827787 58.734545 
" style="fill:none;stroke:#000000;stroke-dasharray:5.55,2.4;stroke-dashoffset:0;stroke-width:1.5;"/>
   </g>
   <g id="line2d_19">
    <path clip-path="url(#pef3dbe0770)" d="M 97.277296 162.996851 
L 69.390316 163.014943 
L 69.387273 172.532733 
L 102.546845 172.528505 
L 102.545662 116.913491 
L 69.390316 116.910447 
L 69.390316 124.926709 
L 97.277296 124.927893 
L 97.277296 162.996851 
" style="fill:none;stroke:#ff0000;stroke-linecap:square;stroke-width:1.5;"/>
   </g>
   <g id="line2d_20">
    <path clip-path="url(#pef3dbe0770)" d="M 149.97718 170.189357 
L 122.0902 170.20745 
L 122.087156 179.725239 
L 155.246729 179.721012 
L 155.245545 124.105997 
L 122.0902 124.102954 
L 122.0902 132.119215 
L 149.97718 132.120399 
L 149.97718 170.189357 
" style="fill:none;stroke:#ff0000;stroke-linecap:square;stroke-width:1.5;"/>
   </g>
   <g id="line2d_21">
    <path clip-path="url(#pef3dbe0770)" d="M 183.341525 207.942208 
L 155.454545 207.960301 
L 155.451502 217.47809 
L 188.611075 217.473863 
L 188.609891 161.858848 
L 155.454545 161.855804 
L 155.454545 169.872066 
L 183.341525 169.87325 
L 183.341525 207.942208 
" style="fill:none;stroke:#ff0000;stroke-linecap:square;stroke-width:1.5;"/>
   </g>
   <g id="line2d_22">
    <path clip-path="url(#pef3dbe0770)" d="M 69.387273 116.732727 
L 69.387273 91.369091 
L 94.750909 91.369091 
L 94.750909 116.732727 
L 69.387273 116.732727 
" style="fill:none;stroke:#ff0000;stroke-linecap:square;stroke-width:1.5;"/>
   </g>
   <g id="line2d_23">
    <path clip-path="url(#pef3dbe0770)" d="M 69.387273 162.741749 
L 69.387273 137.378113 
L 94.750909 137.378113 
L 94.750909 162.741749 
L 69.387273 162.741749 
" style="fill:none;stroke:#ff0000;stroke-linecap:square;stroke-width:1.5;"/>
   </g>
   <g id="line2d_24">
    <path clip-path="url(#pef3dbe0770)" d="M 132.201756 205.336364 
L 132.201756 179.972727 
L 157.565393 179.972727 
L 157.565393 205.336364 
L 132.201756 205.336364 
" style="fill:none;stroke:#ff0000;stroke-linecap:square;stroke-width:1.5;"/>
   </g>
   <g id="line2d_25">
    <path clip-path="url(#pef3dbe0770)" d="M 157.652727 195.36 
L 157.652727 169.996364 
L 183.016364 169.996364 
L 183.016364 195.36 
L 157.652727 195.36 
" style="fill:none;stroke:#ff0000;stroke-linecap:square;stroke-width:1.5;"/>
   </g>
   <g id="line2d_26">
    <path clip-path="url(#pef3dbe0770)" d="M 155.454545 161.710909 
L 155.454545 136.347273 
L 180.818182 136.347273 
L 180.818182 161.710909 
L 155.454545 161.710909 
" style="fill:none;stroke:#ff0000;stroke-linecap:square;stroke-width:1.5;"/>
   </g>
   <g id="line2d_27">
    <path clip-path="url(#pef3dbe0770)" d="M 180.987273 147.905413 
L 180.987273 122.541777 
L 206.350909 122.541777 
L 206.350909 147.905413 
L 180.987273 147.905413 
" style="fill:none;stroke:#ff0000;stroke-linecap:square;stroke-width:1.5;"/>
   </g>
   <g id="line2d_28">
    <path clip-path="url(#pef3dbe0770)" d="M 188.765455 227.656364 
L 188.765455 202.292727 
L 214.129091 202.292727 
L 214.129091 227.656364 
L 188.765455 227.656364 
" style="fill:none;stroke:#ff0000;stroke-linecap:square;stroke-width:1.5;"/>
   </g>
   <g id="line2d_29">
    <path clip-path="url(#pef3dbe0770)" d="M 118.198666 198.011866 
L 92.155558 180.375779 
L 90.998696 179.205648 
L 90.376235 177.682467 
L 90.382488 176.037018 
L 91.016509 174.518612 
L 92.182236 173.357309 
L 93.703039 172.729064 
L 119.889575 172.64823 
L 119.889575 198.011866 
L 118.198666 198.011866 
" style="fill:none;stroke:#ff0000;stroke-linecap:square;stroke-width:1.5;"/>
   </g>
   <g id="line2d_30">
    <path clip-path="url(#pef3dbe0770)" d="M 107.681956 130.067175 
L 106.036507 130.060922 
L 104.518101 129.4269 
L 103.356798 128.261174 
L 102.728553 126.74037 
L 102.647719 100.553834 
L 128.011355 100.553834 
L 128.011355 102.244744 
L 110.375268 128.287851 
L 109.205137 129.444714 
L 107.681956 130.067175 
" style="fill:none;stroke:#ff0000;stroke-linecap:square;stroke-width:1.5;"/>
   </g>
   <g id="line2d_31">
    <path clip-path="url(#pef3dbe0770)" d="M 208.809704 175.364023 
L 182.766596 157.727936 
L 181.609734 156.557805 
L 180.987273 155.034623 
L 180.993526 153.389174 
L 181.627547 151.870769 
L 182.793274 150.709466 
L 184.314077 150.08122 
L 210.500613 150.000386 
L 210.500613 175.364023 
L 208.809704 175.364023 
" style="fill:none;stroke:#ff0000;stroke-linecap:square;stroke-width:1.5;"/>
   </g>
   <g id="line2d_32">
    <path clip-path="url(#pef3dbe0770)" d="M 188.765455 202.123636 
L 188.765455 176.76 
L 190.456364 176.76 
L 216.499472 194.396087 
L 217.656334 195.566218 
L 218.278795 197.089399 
L 218.272542 198.734848 
L 217.63852 200.253254 
L 216.472794 201.414557 
L 214.95199 202.042802 
L 188.765455 202.123636 
" style="fill:none;stroke:#ff0000;stroke-linecap:square;stroke-width:1.5;"/>
   </g>
   <g id="line2d_33">
    <path clip-path="url(#pef3dbe0770)" d="M 226.45597 200.885769 
L 200.412862 183.249682 
L 199.256 182.079551 
L 198.633539 180.55637 
L 198.639792 178.910921 
L 199.273813 177.392515 
L 200.43954 176.231212 
L 201.960343 175.602966 
L 228.146879 175.522133 
L 228.146879 200.885769 
L 226.45597 200.885769 
" style="fill:none;stroke:#ff0000;stroke-linecap:square;stroke-width:1.5;"/>
   </g>
   <g id="line2d_34">
    <path clip-path="url(#pef3dbe0770)" d="M 215.763727 173.795803 
L 214.118278 173.78955 
L 212.599872 173.155528 
L 211.438569 171.989802 
L 210.810324 170.468998 
L 210.72949 144.282462 
L 236.093126 144.282462 
L 236.093126 145.973371 
L 218.457039 172.016479 
L 217.286908 173.173342 
L 215.763727 173.795803 
" style="fill:none;stroke:#ff0000;stroke-linecap:square;stroke-width:1.5;"/>
   </g>
   <g id="line2d_35">
    <path clip-path="url(#pef3dbe0770)" d="M 214.289948 223.419666 
L 214.289948 221.728757 
L 231.926035 195.68565 
L 233.096166 194.528787 
L 234.619347 193.906326 
L 236.264796 193.912579 
L 237.783202 194.546601 
L 238.944505 195.712327 
L 239.57275 197.233131 
L 239.653584 223.419666 
L 214.289948 223.419666 
" style="fill:none;stroke:#ff0000;stroke-linecap:square;stroke-width:1.5;"/>
   </g>
   <g id="line2d_36">
    <path clip-path="url(#pef3dbe0770)" d="M 155.454545 136.178182 
L 155.454545 110.814545 
L 180.818182 119.269091 
L 155.454545 136.178182 
" style="fill:none;stroke:#ff0000;stroke-linecap:square;stroke-width:1.5;"/>
   </g>
   <g id="line2d_37">
    <path clip-path="url(#pef3dbe0770)" d="M 69.387273 91.2 
L 77.841818 65.836364 
L 94.750909 91.2 
L 69.387273 91.2 
" style="fill:none;stroke:#ff0000;stroke-linecap:square;stroke-width:1.5;"/>
   </g>
   <g id="line2d_38">
    <path clip-path="url(#pef3dbe0770)" d="M 243.907827 180.700394 
L 218.544191 172.245849 
L 243.907827 155.336758 
L 243.907827 180.700394 
" style="fill:none;stroke:#ff0000;stroke-linecap:square;stroke-width:1.5;"/>
   </g>
   <g id="line2d_39">
    <path clip-path="url(#pef3dbe0770)" d="M 246.064491 206.012727 
L 229.1554 180.649091 
L 254.519036 180.649091 
L 246.064491 206.012727 
" style="fill:none;stroke:#ff0000;stroke-linecap:square;stroke-width:1.5;"/>
   </g>
   <g id="line2d_40">
    <path clip-path="url(#pef3dbe0770)" d="M 253.674131 169.658182 
L 236.76504 144.294545 
L 262.128677 144.294545 
L 253.674131 169.658182 
" style="fill:none;stroke:#ff0000;stroke-linecap:square;stroke-width:1.5;"/>
   </g>
   <g id="line2d_41">
    <path clip-path="url(#pef3dbe0770)" d="M 239.163692 227.656364 
L 247.618237 202.292727 
L 264.527328 227.656364 
L 239.163692 227.656364 
" style="fill:none;stroke:#ff0000;stroke-linecap:square;stroke-width:1.5;"/>
   </g>
   <g id="line2d_42">
    <path clip-path="url(#pef3dbe0770)" d="M 269.561767 184.591741 
L 244.19813 176.137196 
L 269.561767 159.228105 
L 269.561767 184.591741 
" style="fill:none;stroke:#ff0000;stroke-linecap:square;stroke-width:1.5;"/>
   </g>
   <g id="line2d_43">
    <path clip-path="url(#pef3dbe0770)" d="M 257.769688 212.446223 
L 252.899532 207.747694 
L 248.204553 202.881088 
L 249.838479 196.314105 
L 251.705581 189.814588 
L 258.209832 187.946134 
L 264.772081 186.313561 
L 269.642237 191.01209 
L 274.337215 195.878695 
L 272.70329 202.445679 
L 270.836188 208.945195 
L 264.331937 210.81365 
L 257.769688 212.446223 
" style="fill:none;stroke:#ff0000;stroke-linecap:square;stroke-width:1.5;"/>
   </g>
   <g id="line2d_44">
    <path clip-path="url(#pef3dbe0770)" d="M 284.782608 169.511436 
L 278.215625 167.877511 
L 271.716108 166.010409 
L 269.847654 159.506158 
L 268.215081 152.943909 
L 272.91361 148.073753 
L 277.780215 143.378774 
L 284.347199 145.0127 
L 290.846715 146.879802 
L 292.71517 153.384053 
L 294.347743 159.946302 
L 289.649214 164.816458 
L 284.782608 169.511436 
" style="fill:none;stroke:#ff0000;stroke-linecap:square;stroke-width:1.5;"/>
   </g>
   <g id="line2d_45">
    <path clip-path="url(#pef3dbe0770)" d="M 278.086651 199.195764 
L 273.216495 194.497235 
L 268.521516 189.630629 
L 270.155442 183.063646 
L 272.022544 176.564129 
L 278.526795 174.695675 
L 285.089044 173.063102 
L 289.9592 177.761631 
L 294.654178 182.628237 
L 293.020253 189.19522 
L 291.153151 195.694737 
L 284.6489 197.563191 
L 278.086651 199.195764 
" style="fill:none;stroke:#ff0000;stroke-linecap:square;stroke-width:1.5;"/>
   </g>
   <g id="line2d_46">
    <path clip-path="url(#pef3dbe0770)" d="M 278.13279 227.656364 
L 273.262634 222.957835 
L 268.567656 218.091229 
L 270.201581 211.524245 
L 272.068683 205.024729 
L 278.572934 203.156275 
L 285.135183 201.523702 
L 290.005339 206.222231 
L 294.700318 211.088836 
L 293.066392 217.65582 
L 291.19929 224.155336 
L 284.695039 226.023791 
L 278.13279 227.656364 
" style="fill:none;stroke:#ff0000;stroke-linecap:square;stroke-width:1.5;"/>
   </g>
   <g id="line2d_47">
    <path clip-path="url(#pef3dbe0770)" d="M 288.029667 145.921298 
L 283.159511 141.222769 
L 278.464533 136.356163 
L 280.098458 129.78918 
L 281.96556 123.289663 
L 288.469811 121.421209 
L 295.03206 119.788636 
L 299.902216 124.487165 
L 304.597195 129.353771 
L 302.963269 135.920754 
L 301.096167 142.420271 
L 294.591916 144.288725 
L 288.029667 145.921298 
" style="fill:none;stroke:#ff0000;stroke-linecap:square;stroke-width:1.5;"/>
   </g>
   <g id="line2d_48">
    <path clip-path="url(#pef3dbe0770)" d="M 292.776791 120.143906 
L 287.906635 115.445377 
L 283.211657 110.578771 
L 284.845582 104.011788 
L 286.712684 97.512271 
L 293.216935 95.643817 
L 299.779184 94.011244 
L 304.64934 98.709773 
L 309.344318 103.576378 
L 307.710393 110.143362 
L 305.843291 116.642878 
L 299.33904 118.511333 
L 292.776791 120.143906 
" style="fill:none;stroke:#ff0000;stroke-linecap:square;stroke-width:1.5;"/>
   </g>
   <g id="line2d_49">
    <path clip-path="url(#pef3dbe0770)" d="M 297.501814 94.486523 
L 292.631658 89.787994 
L 287.936679 84.921389 
L 289.570605 78.354405 
L 291.437707 71.854889 
L 297.941958 69.986434 
L 304.504207 68.353862 
L 309.374363 73.052391 
L 314.069341 77.918996 
L 312.435416 84.48598 
L 310.568314 90.985496 
L 304.064063 92.853951 
L 297.501814 94.486523 
" style="fill:none;stroke:#ff0000;stroke-linecap:square;stroke-width:1.5;"/>
   </g>
   <g id="patch_37">
    <path d="M 54 252 
L 54 34.56 
" style="fill:none;stroke:#000000;stroke-linecap:square;stroke-linejoin:miter;stroke-width:0.8;"/>
   </g>
   <g id="patch_38">
    <path d="M 388.8 252 
L 388.8 34.56 
" style="fill:none;stroke:#000000;stroke-linecap:square;stroke-linejoin:miter;stroke-width:0.8;"/>
   </g>
   <g id="patch_39">
    <path d="M 54 252 
L 388.8 252 
" style="fill:none;stroke:#000000;stroke-linecap:square;stroke-linejoin:miter;stroke-width:0.8;"/>
   </g>
   <g id="patch_40">
    <path d="M 54 34.56 
L 388.8 34.56 
" style="fill:none;stroke:#000000;stroke-linecap:square;stroke-linejoin:miter;stroke-width:0.8;"/>
   </g>
  </g>
 </g>
 <defs>
  <clipPath id="pef3dbe0770">
   <rect height="217.44" width="334.8" x="54" y="34.56"/>
  </clipPath>
 </defs>
</svg>
