<?xml version="1.0" encoding="utf-8" standalone="no"?>
<!DOCTYPE svg PUBLIC "-//W3C//DTD SVG 1.1//EN"
  "http://www.w3.org/Graphics/SVG/1.1/DTD/svg11.dtd">
<!-- Created with matplotlib (https://matplotlib.org/) -->
<svg height="288pt" version="1.1" viewBox="0 0 432 288" width="432pt" xmlns="http://www.w3.org/2000/svg" xmlns:xlink="http://www.w3.org/1999/xlink">
 <defs>
  <style type="text/css">
*{stroke-linecap:butt;stroke-linejoin:round;}
  </style>
 </defs>
 <g id="figure_1">
  <g id="patch_1">
   <path d="M 0 288 
L 432 288 
L 432 0 
L 0 0 
z
" style="fill:#ffffff;"/>
  </g>
  <g id="axes_1">
   <g id="patch_2">
    <path d="M 54 252 
L 388.8 252 
L 388.8 34.56 
L 54 34.56 
z
" style="fill:#ffffff;"/>
   </g>
   <g id="patch_3">
    <path clip-path="url(#p3ce3b85df9)" d="M 69.218182 172.860638 
L 69.218182 227.825455 
L 174.907336 227.825455 
z
" style="fill:#aaaaaa;"/>
   </g>
   <g id="patch_4">
    <path clip-path="url(#p3ce3b85df9)" d="M 105.040687 136.800432 
L 107.85789 170.606875 
L 145.608419 168.916553 
L 140.537452 132.292906 
z
" style="fill:#aaaaaa;"/>
   </g>
   <g id="patch_5">
    <path clip-path="url(#p3ce3b85df9)" d="M 89.827787 58.734545 
L 88.700906 58.734545 
L 97.152516 91.725174 
L 207.412119 122.702872 
L 206.460017 144.125161 
L 276.890108 144.125161 
L 292.666448 58.734545 
L 117.436383 58.734545 
z
" style="fill:#aaaaaa;"/>
   </g>
   <g id="patch_6">
    <path clip-path="url(#p3ce3b85df9)" d="M 327.417669 87.331432 
L 327.157214 59.445662 
L 317.639758 59.525337 
L 317.932171 92.683621 
L 373.545075 92.199093 
L 373.259969 59.044973 
L 365.24401 59.114642 
L 365.485189 87.000579 
z
" style="fill:#f6929c;"/>
   </g>
   <g id="patch_7">
    <path clip-path="url(#p3ce3b85df9)" d="M 298.499538 87.624918 
L 317.232783 66.967001 
L 310.188461 60.566545 
L 287.900523 85.118634 
L 329.075153 122.504188 
L 351.365633 97.960116 
L 345.4309 92.571294 
L 326.683384 113.216252 
z
" style="fill:#f6929c;"/>
   </g>
   <g id="patch_8">
    <path clip-path="url(#p3ce3b85df9)" d="M 329.054384 138.574276 
L 318.20892 112.882645 
L 309.436821 116.575692 
L 322.316907 147.131553 
L 373.567288 125.534601 
L 360.695543 94.979812 
L 353.308327 98.092606 
L 364.136027 123.791722 
z
" style="fill:#f6929c;"/>
   </g>
   <g id="patch_9">
    <path clip-path="url(#p3ce3b85df9)" d="M 327.314798 169.963441 
L 319.751801 143.121588 
L 310.588218 145.693954 
L 319.56451 177.615474 
L 373.10467 162.566184 
L 364.136522 130.646766 
L 356.41928 132.815783 
L 363.963719 159.662852 
z
" style="fill:#f6929c;"/>
   </g>
   <g id="patch_10">
    <path clip-path="url(#p3ce3b85df9)" d="M 345.691795 181.284394 
L 373.578775 181.266301 
L 373.581818 171.748512 
L 340.422245 171.752739 
L 340.423429 227.367754 
L 373.578775 227.370797 
L 373.578775 219.354536 
L 345.691795 219.353352 
z
" style="fill:#f6929c;"/>
   </g>
   <g id="patch_11">
    <path clip-path="url(#p3ce3b85df9)" d="M 290.144868 136.978406 
L 288.863022 136.800261 
L 288.082587 135.767891 
L 282.546103 114.494724 
L 282.724247 113.212877 
L 283.756617 112.432443 
L 305.029785 106.895958 
L 306.311632 107.074103 
L 307.092066 108.106473 
L 312.62855 129.37964 
L 312.450406 130.661487 
L 311.418036 131.441921 
z
" style="fill:#f6929c;"/>
   </g>
   <g id="patch_12">
    <path clip-path="url(#p3ce3b85df9)" d="M 349.909091 206.67878 
L 348.713437 206.183525 
L 348.218182 204.987871 
L 348.218182 183.006053 
L 348.713437 181.8104 
L 349.909091 181.315144 
L 371.890909 181.315144 
L 373.086563 181.8104 
L 373.581818 183.006053 
L 373.581818 204.987871 
L 373.086563 206.183525 
L 371.890909 206.67878 
z
" style="fill:#f6929c;"/>
   </g>
   <g id="patch_13">
    <path clip-path="url(#p3ce3b85df9)" d="M 361.909677 85.734747 
L 339.970925 84.359439 
L 338.808599 83.790347 
L 338.389121 82.56605 
L 339.764429 60.627297 
L 340.333521 59.464972 
L 341.557818 59.045494 
L 363.496571 60.420802 
L 364.658896 60.989894 
L 365.078374 62.214191 
L 363.703066 84.152943 
L 363.133974 85.315269 
z
" style="fill:#f6929c;"/>
   </g>
   <g id="patch_14">
    <path clip-path="url(#p3ce3b85df9)" d="M 344.124628 164.848441 
L 322.737019 151.214504 
L 323.645948 149.788663 
L 352.516564 137.308177 
L 354.125123 136.961656 
L 355.744126 137.255542 
L 357.128271 138.145307 
L 358.067839 139.496141 
L 358.420472 141.103372 
L 358.132743 142.723479 
z
" style="fill:#f6929c;"/>
   </g>
   <g id="patch_15">
    <path clip-path="url(#p3ce3b85df9)" d="M 297.985142 157.84259 
L 279.793971 140.16788 
L 280.972285 138.955135 
L 311.769345 132.566387 
L 313.414743 132.552077 
L 314.940954 133.167071 
L 316.116737 134.318191 
L 316.76394 135.831025 
L 316.784504 137.476357 
L 316.175316 139.004894 
z
" style="fill:#f6929c;"/>
   </g>
   <g id="patch_16">
    <path clip-path="url(#p3ce3b85df9)" d="M 321.812336 199.854932 
L 303.373202 182.439066 
L 304.53426 181.209791 
L 335.237959 174.386454 
L 336.88299 174.348893 
L 338.41774 174.942257 
L 339.609672 176.076646 
L 340.278191 177.580183 
L 340.322005 179.22506 
L 339.734478 180.762054 
z
" style="fill:#f6929c;"/>
   </g>
   <g id="patch_17">
    <path clip-path="url(#p3ce3b85df9)" d="M 288.328169 178.648887 
L 288.302354 153.285264 
L 289.993262 153.283543 
L 316.054307 170.893113 
L 317.21236 172.062066 
L 317.83637 173.584613 
L 317.831792 175.230067 
L 317.199316 176.749118 
L 316.034773 177.911607 
L 314.514609 178.5414 
z
" style="fill:#f6929c;"/>
   </g>
   <g id="patch_18">
    <path clip-path="url(#p3ce3b85df9)" d="M 334.985494 226.009498 
L 333.381898 225.640685 
L 332.040602 224.687553 
L 318.034764 202.561151 
L 339.507525 189.061722 
L 340.407487 190.49324 
L 339.337908 221.927791 
L 338.963003 223.529972 
L 338.004779 224.867636 
L 336.60842 225.738109 
z
" style="fill:#f6929c;"/>
   </g>
   <g id="patch_19">
    <path clip-path="url(#p3ce3b85df9)" d="M 263.156751 166.461754 
L 249.466637 145.11006 
L 250.890083 144.197386 
L 282.332913 144.986989 
L 283.938369 145.347611 
L 285.284513 146.293885 
L 286.167386 147.682437 
L 286.453218 149.302881 
L 286.0987 150.909698 
L 285.15755 152.259428 
z
" style="fill:#f6929c;"/>
   </g>
   <g id="patch_20">
    <path clip-path="url(#p3ce3b85df9)" d="M 295.437077 208.881744 
L 315.035358 204.286773 
L 316.660532 203.102895 
L 317.265895 202.293999 
L 317.943449 200.400939 
L 317.988848 199.391623 
L 317.48399 197.445378 
L 316.26379 195.847271 
L 296.653952 178.667902 
L 294.105849 181.582648 
L 311.739643 197.032302 
L 313.357339 196.821003 
L 314.825971 197.511206 
L 315.688946 198.885446 
L 315.781612 199.971542 
L 315.14172 201.499412 
L 313.749637 202.427856 
L 312.630397 202.53713 
L 311.085023 201.895469 
L 310.15658 200.503386 
L 310.155626 198.821266 
L 292.522989 183.378246 
L 290.41799 185.791866 
L 300.393006 194.531366 
L 300.964232 195.70497 
L 300.724829 196.666018 
L 299.986225 197.325859 
L 294.171386 198.728961 
L 292.367258 199.551072 
L 291.015064 201.001005 
L 290.57641 201.895321 
L 290.257628 203.852134 
L 290.419547 204.965658 
L 291.224122 206.745169 
L 291.86709 207.486159 
L 293.515435 208.533516 
z
" style="fill:#f6929c;"/>
   </g>
   <g id="patch_21">
    <path clip-path="url(#p3ce3b85df9)" d="M 282.335241 158.784838 
L 263.803374 166.644627 
L 262.403115 168.087551 
L 261.944076 168.987585 
L 261.598204 170.968274 
L 261.725049 171.970616 
L 262.553419 173.802706 
L 264.027536 175.170117 
L 286.272424 188.765758 
L 288.28793 185.460262 
L 268.284376 173.233232 
L 266.726147 173.716464 
L 265.161558 173.285974 
L 264.077524 172.078443 
L 263.80157 171.023909 
L 264.17241 169.409497 
L 265.386395 168.257914 
L 266.470767 167.95996 
L 268.102729 168.329567 
L 269.254312 169.543552 
L 269.541212 171.201026 
L 289.542499 183.421715 
L 291.206544 180.685378 
L 279.89101 173.768839 
L 279.128587 172.709426 
L 279.201126 171.72167 
L 279.816807 170.94587 
L 285.308479 168.57467 
L 286.946588 167.457825 
L 288.032611 165.799124 
L 288.312846 164.843254 
L 288.294331 162.860732 
L 287.94547 161.790942 
L 286.85009 160.174111 
L 286.090513 159.553212 
L 284.28811 158.801318 
z
" style="fill:#f6929c;"/>
   </g>
   <g id="patch_22">
    <path clip-path="url(#p3ce3b85df9)" d="M 275.070414 210.243899 
L 291.726231 198.939468 
L 292.820083 197.252387 
L 293.095866 196.280419 
L 293.05106 194.270258 
L 292.73224 193.311543 
L 291.564302 191.674879 
L 289.85299 190.6193 
L 265.393827 181.595676 
L 264.057612 185.229284 
L 286.052581 193.344936 
L 287.487515 192.568694 
L 289.105886 192.687593 
L 290.403515 193.661975 
L 290.878734 194.642974 
L 290.828014 196.298654 
L 289.8604 197.663801 
L 288.854396 198.166389 
L 287.181738 198.120282 
L 285.816591 197.152669 
L 285.213706 195.582299 
L 263.222192 187.472427 
L 262.120392 190.479521 
L 274.562421 195.070353 
L 275.51582 195.961798 
L 275.636212 196.94487 
L 275.182669 197.825339 
L 270.255095 201.216514 
L 268.864673 202.629833 
L 268.120936 204.467655 
L 268.031391 205.459724 
L 268.434022 207.401019 
L 268.983722 208.382845 
L 270.371857 209.756557 
L 271.237424 210.218365 
L 273.151423 210.606448 
z
" style="fill:#f6929c;"/>
   </g>
   <g id="patch_23">
    <path clip-path="url(#p3ce3b85df9)" d="M 238.39212 173.960023 
L 256.577274 165.328306 
L 257.915651 163.827805 
L 258.336457 162.909274 
L 258.598777 160.915798 
L 258.429917 159.919673 
L 257.525278 158.124018 
L 255.994993 156.81977 
L 233.198352 144.171069 
L 231.323553 147.558354 
L 251.82332 158.933854 
L 253.359862 158.385559 
L 254.941162 158.74991 
L 256.074989 159.910813 
L 256.39502 160.952818 
L 256.092359 162.58139 
L 254.927847 163.782978 
L 253.856956 164.126243 
L 252.210902 163.825551 
L 251.009314 162.661039 
L 250.653005 161.017088 
L 230.15577 149.647828 
L 228.608201 152.451685 
L 240.204431 158.886534 
L 241.010706 159.912967 
L 240.979745 160.9029 
L 240.397214 161.70389 
L 235.010053 164.303803 
L 233.420332 165.488509 
L 232.404981 167.191389 
L 232.165168 168.158192 
L 232.26699 170.138185 
L 232.660505 171.192366 
L 233.82287 172.761731 
L 234.607872 173.350158 
L 236.440283 174.025634 
z
" style="fill:#f6929c;"/>
   </g>
   <g id="patch_24">
    <path clip-path="url(#p3ce3b85df9)" d="M 253.930567 197.915862 
L 265.496924 181.440858 
L 265.921626 179.475562 
L 265.834914 178.468955 
L 265.080377 176.605241 
L 264.442382 175.821824 
L 262.770073 174.70552 
L 260.795691 174.325196 
L 234.726133 174.55892 
L 234.764892 178.430234 
L 258.208414 178.221118 
L 259.274955 176.986581 
L 260.830362 176.524013 
L 262.389145 176.975073 
L 263.181282 177.723881 
L 263.720827 179.290004 
L 263.300033 180.909521 
L 262.537547 181.736112 
L 260.957185 182.28599 
L 259.337668 181.865196 
L 258.217215 180.610558 
L 234.778972 180.823854 
L 234.814809 184.026244 
L 248.07625 183.907952 
L 249.28376 184.403498 
L 249.74485 185.280037 
L 249.632909 186.264109 
L 246.227625 191.181943 
L 245.428562 192.996396 
L 245.384676 194.978519 
L 245.652654 195.937897 
L 246.717361 197.610362 
L 247.579434 198.333537 
L 249.364415 199.125904 
L 250.337482 199.250857 
L 252.264747 198.935183 
z
" style="fill:#f6929c;"/>
   </g>
   <g id="patch_25">
    <path clip-path="url(#p3ce3b85df9)" d="M 188.699426 142.010727 
L 204.423013 129.44191 
L 205.381978 127.674668 
L 205.581127 126.684155 
L 205.379706 124.683608 
L 204.987098 123.752674 
L 203.69509 122.212068 
L 201.906676 121.293151 
L 176.818335 114.204312 
L 175.769536 117.931053 
L 198.330382 124.30684 
L 199.700417 123.421067 
L 201.323131 123.413404 
L 202.69279 124.283631 
L 203.243059 125.224586 
L 203.321603 126.87918 
L 202.463389 128.315624 
L 201.499639 128.895128 
L 199.82848 128.979595 
L 198.392036 128.121381 
L 197.66853 126.602805 
L 175.111579 120.232511 
L 174.247624 123.316367 
L 187.009757 126.922998 
L 188.029767 127.737383 
L 188.226452 128.708074 
L 187.842948 129.621229 
L 183.19482 133.386327 
L 181.918842 134.903766 
L 181.320681 136.793988 
L 181.30877 137.790018 
L 181.861556 139.694005 
L 182.486145 140.629976 
L 183.977173 141.891259 
L 184.876116 142.284165 
L 186.814549 142.521814 
z
" style="fill:#f6929c;"/>
   </g>
   <g id="patch_26">
    <path clip-path="url(#p3ce3b85df9)" d="M 217.749488 173.80662 
L 235.359796 164.055548 
L 236.601807 162.474357 
L 236.9644 161.531328 
L 237.101654 159.525357 
L 236.870885 158.541729 
L 235.85582 156.806104 
L 234.247035 155.600018 
L 210.704636 144.400378 
L 209.045139 147.898184 
L 230.215602 157.970619 
L 231.714884 157.327392 
L 233.315859 157.592231 
L 234.520005 158.680024 
L 234.904515 159.699996 
L 234.7042 161.344297 
L 233.617039 162.616296 
L 232.569687 163.025801 
L 230.908062 162.828543 
L 229.636062 161.741382 
L 229.177735 160.122905 
L 208.01019 150.056539 
L 206.640831 152.951611 
L 218.616457 158.649347 
L 219.485289 159.623399 
L 219.51624 160.613331 
L 218.984894 161.449153 
L 213.770703 164.38058 
L 212.258109 165.662298 
L 211.351139 167.425291 
L 211.1722 168.405189 
L 211.397535 170.374951 
L 211.856146 171.402486 
L 213.114296 172.896159 
L 213.934529 173.434389 
L 215.805564 173.994055 
z
" style="fill:#f6929c;"/>
   </g>
   <g id="patch_27">
    <path clip-path="url(#p3ce3b85df9)" d="M 359.879652 125.707782 
L 336.109186 116.860238 
L 352.880218 96.038954 
z
" style="fill:#f6929c;"/>
   </g>
   <g id="patch_28">
    <path clip-path="url(#p3ce3b85df9)" d="M 308.728457 227.770792 
L 317.183003 202.407156 
L 334.092094 227.770792 
z
" style="fill:#f6929c;"/>
   </g>
   <g id="patch_29">
    <path clip-path="url(#p3ce3b85df9)" d="M 303.912476 227.762444 
L 278.569711 226.733692 
L 288.046052 201.733845 
z
" style="fill:#f6929c;"/>
   </g>
   <g id="patch_30">
    <path clip-path="url(#p3ce3b85df9)" d="M 270.205993 218.235688 
L 245.914008 210.940929 
L 261.306095 189.08053 
z
" style="fill:#f6929c;"/>
   </g>
   <g id="patch_31">
    <path clip-path="url(#p3ce3b85df9)" d="M 206.65184 155.265358 
L 180.992772 147.754991 
L 205.713449 129.919086 
z
" style="fill:#f6929c;"/>
   </g>
   <g id="patch_32">
    <path clip-path="url(#p3ce3b85df9)" d="M 167.138601 135.983596 
L 160.587393 134.287522 
L 154.10586 132.358922 
L 152.299116 125.837259 
L 150.728794 119.259836 
L 155.473257 114.434417 
L 160.384128 109.78576 
L 166.935336 111.481834 
L 173.41687 113.410435 
L 175.223613 119.932097 
L 176.793935 126.50952 
L 172.049473 131.33494 
z
" style="fill:#f6929c;"/>
   </g>
   <g id="patch_33">
    <path clip-path="url(#p3ce3b85df9)" d="M 140.82608 130.862251 
L 134.510246 128.432184 
L 128.290077 125.779021 
L 127.23669 119.094204 
L 126.424532 112.380873 
L 131.686959 108.126292 
L 137.094613 104.06625 
L 143.410447 106.496318 
L 149.630617 109.14948 
L 150.684003 115.834297 
L 151.496162 122.547628 
L 146.233735 126.80221 
z
" style="fill:#f6929c;"/>
   </g>
   <g id="patch_34">
    <path clip-path="url(#p3ce3b85df9)" d="M 116.325185 122.611739 
L 109.901261 120.483787 
L 103.562318 118.128456 
L 102.19324 111.501087 
L 101.063769 104.833801 
L 106.118603 100.334551 
L 111.327725 96.022739 
L 117.751649 98.150691 
L 124.090592 100.506022 
L 125.45967 107.133392 
L 126.589141 113.800677 
L 121.534307 118.299927 
z
" style="fill:#f6929c;"/>
   </g>
   <g id="patch_35">
    <path clip-path="url(#p3ce3b85df9)" d="M 85.785709 94.575004 
L 79.218725 92.941078 
L 72.719209 91.073977 
L 70.850755 84.569726 
L 69.218182 78.007477 
L 73.916711 73.13732 
L 78.783316 68.442342 
L 85.3503 70.076267 
L 91.849816 71.943369 
L 93.718271 78.44762 
L 95.350844 85.009869 
L 90.652315 89.880026 
z
" style="fill:#f6929c;"/>
   </g>
   <g id="patch_36">
    <path clip-path="url(#p3ce3b85df9)" d="M 85.525253 117.290943 
L 81.117509 112.155945 
L 76.900057 106.869973 
L 79.143183 100.485383 
L 81.612075 94.190049 
L 88.262874 92.940303 
L 94.949455 91.930646 
L 99.357199 97.065643 
L 103.574651 102.351615 
L 101.331525 108.736205 
L 98.862633 115.03154 
L 92.211834 116.281286 
z
" style="fill:#f6929c;"/>
   </g>
   <g id="matplotlib.axis_1">
    <g id="xtick_1">
     <g id="line2d_1">
      <defs>
       <path d="M 0 0 
L 0 3.5 
" id="m438e394cfe" style="stroke:#000000;stroke-width:0.8;"/>
      </defs>
      <g>
       <use style="stroke:#000000;stroke-width:0.8;" x="69.218182" xlink:href="#m438e394cfe" y="252"/>
      </g>
     </g>
     <g id="text_1">
      <!-- 0 -->
      <defs>
       <path d="M 31.78125 66.40625 
Q 24.171875 66.40625 20.328125 58.90625 
Q 16.5 51.421875 16.5 36.375 
Q 16.5 21.390625 20.328125 13.890625 
Q 24.171875 6.390625 31.78125 6.390625 
Q 39.453125 6.390625 43.28125 13.890625 
Q 47.125 21.390625 47.125 36.375 
Q 47.125 51.421875 43.28125 58.90625 
Q 39.453125 66.40625 31.78125 66.40625 
z
M 31.78125 74.21875 
Q 44.046875 74.21875 50.515625 64.515625 
Q 56.984375 54.828125 56.984375 36.375 
Q 56.984375 17.96875 50.515625 8.265625 
Q 44.046875 -1.421875 31.78125 -1.421875 
Q 19.53125 -1.421875 13.0625 8.265625 
Q 6.59375 17.96875 6.59375 36.375 
Q 6.59375 54.828125 13.0625 64.515625 
Q 19.53125 74.21875 31.78125 74.21875 
z
" id="DejaVuSans-48"/>
      </defs>
      <g transform="translate(66.036932 266.598437)scale(0.1 -0.1)">
       <use xlink:href="#DejaVuSans-48"/>
      </g>
     </g>
    </g>
    <g id="xtick_2">
     <g id="line2d_2">
      <g>
       <use style="stroke:#000000;stroke-width:0.8;" x="111.490909" xlink:href="#m438e394cfe" y="252"/>
      </g>
     </g>
     <g id="text_2">
      <!-- 250 -->
      <defs>
       <path d="M 19.1875 8.296875 
L 53.609375 8.296875 
L 53.609375 0 
L 7.328125 0 
L 7.328125 8.296875 
Q 12.9375 14.109375 22.625 23.890625 
Q 32.328125 33.6875 34.8125 36.53125 
Q 39.546875 41.84375 41.421875 45.53125 
Q 43.3125 49.21875 43.3125 52.78125 
Q 43.3125 58.59375 39.234375 62.25 
Q 35.15625 65.921875 28.609375 65.921875 
Q 23.96875 65.921875 18.8125 64.3125 
Q 13.671875 62.703125 7.8125 59.421875 
L 7.8125 69.390625 
Q 13.765625 71.78125 18.9375 73 
Q 24.125 74.21875 28.421875 74.21875 
Q 39.75 74.21875 46.484375 68.546875 
Q 53.21875 62.890625 53.21875 53.421875 
Q 53.21875 48.921875 51.53125 44.890625 
Q 49.859375 40.875 45.40625 35.40625 
Q 44.1875 33.984375 37.640625 27.21875 
Q 31.109375 20.453125 19.1875 8.296875 
z
" id="DejaVuSans-50"/>
       <path d="M 10.796875 72.90625 
L 49.515625 72.90625 
L 49.515625 64.59375 
L 19.828125 64.59375 
L 19.828125 46.734375 
Q 21.96875 47.46875 24.109375 47.828125 
Q 26.265625 48.1875 28.421875 48.1875 
Q 40.625 48.1875 47.75 41.5 
Q 54.890625 34.8125 54.890625 23.390625 
Q 54.890625 11.625 47.5625 5.09375 
Q 40.234375 -1.421875 26.90625 -1.421875 
Q 22.3125 -1.421875 17.546875 -0.640625 
Q 12.796875 0.140625 7.71875 1.703125 
L 7.71875 11.625 
Q 12.109375 9.234375 16.796875 8.0625 
Q 21.484375 6.890625 26.703125 6.890625 
Q 35.15625 6.890625 40.078125 11.328125 
Q 45.015625 15.765625 45.015625 23.390625 
Q 45.015625 31 40.078125 35.4375 
Q 35.15625 39.890625 26.703125 39.890625 
Q 22.75 39.890625 18.8125 39.015625 
Q 14.890625 38.140625 10.796875 36.28125 
z
" id="DejaVuSans-53"/>
      </defs>
      <g transform="translate(101.947159 266.598437)scale(0.1 -0.1)">
       <use xlink:href="#DejaVuSans-50"/>
       <use x="63.623047" xlink:href="#DejaVuSans-53"/>
       <use x="127.246094" xlink:href="#DejaVuSans-48"/>
      </g>
     </g>
    </g>
    <g id="xtick_3">
     <g id="line2d_3">
      <g>
       <use style="stroke:#000000;stroke-width:0.8;" x="153.763636" xlink:href="#m438e394cfe" y="252"/>
      </g>
     </g>
     <g id="text_3">
      <!-- 500 -->
      <g transform="translate(144.219886 266.598437)scale(0.1 -0.1)">
       <use xlink:href="#DejaVuSans-53"/>
       <use x="63.623047" xlink:href="#DejaVuSans-48"/>
       <use x="127.246094" xlink:href="#DejaVuSans-48"/>
      </g>
     </g>
    </g>
    <g id="xtick_4">
     <g id="line2d_4">
      <g>
       <use style="stroke:#000000;stroke-width:0.8;" x="196.036364" xlink:href="#m438e394cfe" y="252"/>
      </g>
     </g>
     <g id="text_4">
      <!-- 750 -->
      <defs>
       <path d="M 8.203125 72.90625 
L 55.078125 72.90625 
L 55.078125 68.703125 
L 28.609375 0 
L 18.3125 0 
L 43.21875 64.59375 
L 8.203125 64.59375 
z
" id="DejaVuSans-55"/>
      </defs>
      <g transform="translate(186.492614 266.598437)scale(0.1 -0.1)">
       <use xlink:href="#DejaVuSans-55"/>
       <use x="63.623047" xlink:href="#DejaVuSans-53"/>
       <use x="127.246094" xlink:href="#DejaVuSans-48"/>
      </g>
     </g>
    </g>
    <g id="xtick_5">
     <g id="line2d_5">
      <g>
       <use style="stroke:#000000;stroke-width:0.8;" x="238.309091" xlink:href="#m438e394cfe" y="252"/>
      </g>
     </g>
     <g id="text_5">
      <!-- 1000 -->
      <defs>
       <path d="M 12.40625 8.296875 
L 28.515625 8.296875 
L 28.515625 63.921875 
L 10.984375 60.40625 
L 10.984375 69.390625 
L 28.421875 72.90625 
L 38.28125 72.90625 
L 38.28125 8.296875 
L 54.390625 8.296875 
L 54.390625 0 
L 12.40625 0 
z
" id="DejaVuSans-49"/>
      </defs>
      <g transform="translate(225.584091 266.598437)scale(0.1 -0.1)">
       <use xlink:href="#DejaVuSans-49"/>
       <use x="63.623047" xlink:href="#DejaVuSans-48"/>
       <use x="127.246094" xlink:href="#DejaVuSans-48"/>
       <use x="190.869141" xlink:href="#DejaVuSans-48"/>
      </g>
     </g>
    </g>
    <g id="xtick_6">
     <g id="line2d_6">
      <g>
       <use style="stroke:#000000;stroke-width:0.8;" x="280.581818" xlink:href="#m438e394cfe" y="252"/>
      </g>
     </g>
     <g id="text_6">
      <!-- 1250 -->
      <g transform="translate(267.856818 266.598437)scale(0.1 -0.1)">
       <use xlink:href="#DejaVuSans-49"/>
       <use x="63.623047" xlink:href="#DejaVuSans-50"/>
       <use x="127.246094" xlink:href="#DejaVuSans-53"/>
       <use x="190.869141" xlink:href="#DejaVuSans-48"/>
      </g>
     </g>
    </g>
    <g id="xtick_7">
     <g id="line2d_7">
      <g>
       <use style="stroke:#000000;stroke-width:0.8;" x="322.854545" xlink:href="#m438e394cfe" y="252"/>
      </g>
     </g>
     <g id="text_7">
      <!-- 1500 -->
      <g transform="translate(310.129545 266.598437)scale(0.1 -0.1)">
       <use xlink:href="#DejaVuSans-49"/>
       <use x="63.623047" xlink:href="#DejaVuSans-53"/>
       <use x="127.246094" xlink:href="#DejaVuSans-48"/>
       <use x="190.869141" xlink:href="#DejaVuSans-48"/>
      </g>
     </g>
    </g>
    <g id="xtick_8">
     <g id="line2d_8">
      <g>
       <use style="stroke:#000000;stroke-width:0.8;" x="365.127273" xlink:href="#m438e394cfe" y="252"/>
      </g>
     </g>
     <g id="text_8">
      <!-- 1750 -->
      <g transform="translate(352.402273 266.598437)scale(0.1 -0.1)">
       <use xlink:href="#DejaVuSans-49"/>
       <use x="63.623047" xlink:href="#DejaVuSans-55"/>
       <use x="127.246094" xlink:href="#DejaVuSans-53"/>
       <use x="190.869141" xlink:href="#DejaVuSans-48"/>
      </g>
     </g>
    </g>
   </g>
   <g id="matplotlib.axis_2">
    <g id="ytick_1">
     <g id="line2d_9">
      <defs>
       <path d="M 0 0 
L -3.5 0 
" id="me646314704" style="stroke:#000000;stroke-width:0.8;"/>
      </defs>
      <g>
       <use style="stroke:#000000;stroke-width:0.8;" x="54" xlink:href="#me646314704" y="227.825455"/>
      </g>
     </g>
     <g id="text_9">
      <!-- 0 -->
      <g transform="translate(40.6375 231.624673)scale(0.1 -0.1)">
       <use xlink:href="#DejaVuSans-48"/>
      </g>
     </g>
    </g>
    <g id="ytick_2">
     <g id="line2d_10">
      <g>
       <use style="stroke:#000000;stroke-width:0.8;" x="54" xlink:href="#me646314704" y="194.007273"/>
      </g>
     </g>
     <g id="text_10">
      <!-- 200 -->
      <g transform="translate(27.9125 197.806491)scale(0.1 -0.1)">
       <use xlink:href="#DejaVuSans-50"/>
       <use x="63.623047" xlink:href="#DejaVuSans-48"/>
       <use x="127.246094" xlink:href="#DejaVuSans-48"/>
      </g>
     </g>
    </g>
    <g id="ytick_3">
     <g id="line2d_11">
      <g>
       <use style="stroke:#000000;stroke-width:0.8;" x="54" xlink:href="#me646314704" y="160.189091"/>
      </g>
     </g>
     <g id="text_11">
      <!-- 400 -->
      <defs>
       <path d="M 37.796875 64.3125 
L 12.890625 25.390625 
L 37.796875 25.390625 
z
M 35.203125 72.90625 
L 47.609375 72.90625 
L 47.609375 25.390625 
L 58.015625 25.390625 
L 58.015625 17.1875 
L 47.609375 17.1875 
L 47.609375 0 
L 37.796875 0 
L 37.796875 17.1875 
L 4.890625 17.1875 
L 4.890625 26.703125 
z
" id="DejaVuSans-52"/>
      </defs>
      <g transform="translate(27.9125 163.98831)scale(0.1 -0.1)">
       <use xlink:href="#DejaVuSans-52"/>
       <use x="63.623047" xlink:href="#DejaVuSans-48"/>
       <use x="127.246094" xlink:href="#DejaVuSans-48"/>
      </g>
     </g>
    </g>
    <g id="ytick_4">
     <g id="line2d_12">
      <g>
       <use style="stroke:#000000;stroke-width:0.8;" x="54" xlink:href="#me646314704" y="126.370909"/>
      </g>
     </g>
     <g id="text_12">
      <!-- 600 -->
      <defs>
       <path d="M 33.015625 40.375 
Q 26.375 40.375 22.484375 35.828125 
Q 18.609375 31.296875 18.609375 23.390625 
Q 18.609375 15.53125 22.484375 10.953125 
Q 26.375 6.390625 33.015625 6.390625 
Q 39.65625 6.390625 43.53125 10.953125 
Q 47.40625 15.53125 47.40625 23.390625 
Q 47.40625 31.296875 43.53125 35.828125 
Q 39.65625 40.375 33.015625 40.375 
z
M 52.59375 71.296875 
L 52.59375 62.3125 
Q 48.875 64.0625 45.09375 64.984375 
Q 41.3125 65.921875 37.59375 65.921875 
Q 27.828125 65.921875 22.671875 59.328125 
Q 17.53125 52.734375 16.796875 39.40625 
Q 19.671875 43.65625 24.015625 45.921875 
Q 28.375 48.1875 33.59375 48.1875 
Q 44.578125 48.1875 50.953125 41.515625 
Q 57.328125 34.859375 57.328125 23.390625 
Q 57.328125 12.15625 50.6875 5.359375 
Q 44.046875 -1.421875 33.015625 -1.421875 
Q 20.359375 -1.421875 13.671875 8.265625 
Q 6.984375 17.96875 6.984375 36.375 
Q 6.984375 53.65625 15.1875 63.9375 
Q 23.390625 74.21875 37.203125 74.21875 
Q 40.921875 74.21875 44.703125 73.484375 
Q 48.484375 72.75 52.59375 71.296875 
z
" id="DejaVuSans-54"/>
      </defs>
      <g transform="translate(27.9125 130.170128)scale(0.1 -0.1)">
       <use xlink:href="#DejaVuSans-54"/>
       <use x="63.623047" xlink:href="#DejaVuSans-48"/>
       <use x="127.246094" xlink:href="#DejaVuSans-48"/>
      </g>
     </g>
    </g>
    <g id="ytick_5">
     <g id="line2d_13">
      <g>
       <use style="stroke:#000000;stroke-width:0.8;" x="54" xlink:href="#me646314704" y="92.552727"/>
      </g>
     </g>
     <g id="text_13">
      <!-- 800 -->
      <defs>
       <path d="M 31.78125 34.625 
Q 24.75 34.625 20.71875 30.859375 
Q 16.703125 27.09375 16.703125 20.515625 
Q 16.703125 13.921875 20.71875 10.15625 
Q 24.75 6.390625 31.78125 6.390625 
Q 38.8125 6.390625 42.859375 10.171875 
Q 46.921875 13.96875 46.921875 20.515625 
Q 46.921875 27.09375 42.890625 30.859375 
Q 38.875 34.625 31.78125 34.625 
z
M 21.921875 38.8125 
Q 15.578125 40.375 12.03125 44.71875 
Q 8.5 49.078125 8.5 55.328125 
Q 8.5 64.0625 14.71875 69.140625 
Q 20.953125 74.21875 31.78125 74.21875 
Q 42.671875 74.21875 48.875 69.140625 
Q 55.078125 64.0625 55.078125 55.328125 
Q 55.078125 49.078125 51.53125 44.71875 
Q 48 40.375 41.703125 38.8125 
Q 48.828125 37.15625 52.796875 32.3125 
Q 56.78125 27.484375 56.78125 20.515625 
Q 56.78125 9.90625 50.3125 4.234375 
Q 43.84375 -1.421875 31.78125 -1.421875 
Q 19.734375 -1.421875 13.25 4.234375 
Q 6.78125 9.90625 6.78125 20.515625 
Q 6.78125 27.484375 10.78125 32.3125 
Q 14.796875 37.15625 21.921875 38.8125 
z
M 18.3125 54.390625 
Q 18.3125 48.734375 21.84375 45.5625 
Q 25.390625 42.390625 31.78125 42.390625 
Q 38.140625 42.390625 41.71875 45.5625 
Q 45.3125 48.734375 45.3125 54.390625 
Q 45.3125 60.0625 41.71875 63.234375 
Q 38.140625 66.40625 31.78125 66.40625 
Q 25.390625 66.40625 21.84375 63.234375 
Q 18.3125 60.0625 18.3125 54.390625 
z
" id="DejaVuSans-56"/>
      </defs>
      <g transform="translate(27.9125 96.351946)scale(0.1 -0.1)">
       <use xlink:href="#DejaVuSans-56"/>
       <use x="63.623047" xlink:href="#DejaVuSans-48"/>
       <use x="127.246094" xlink:href="#DejaVuSans-48"/>
      </g>
     </g>
    </g>
    <g id="ytick_6">
     <g id="line2d_14">
      <g>
       <use style="stroke:#000000;stroke-width:0.8;" x="54" xlink:href="#me646314704" y="58.734545"/>
      </g>
     </g>
     <g id="text_14">
      <!-- 1000 -->
      <g transform="translate(21.55 62.533764)scale(0.1 -0.1)">
       <use xlink:href="#DejaVuSans-49"/>
       <use x="63.623047" xlink:href="#DejaVuSans-48"/>
       <use x="127.246094" xlink:href="#DejaVuSans-48"/>
       <use x="190.869141" xlink:href="#DejaVuSans-48"/>
      </g>
     </g>
    </g>
   </g>
   <g id="line2d_15">
    <path clip-path="url(#p3ce3b85df9)" d="M 69.218182 227.825455 
L 373.581818 227.825455 
L 373.581818 58.734545 
L 69.218182 58.734545 
L 69.218182 227.825455 
" style="fill:none;stroke:#000000;stroke-linecap:square;stroke-width:1.5;"/>
   </g>
   <g id="line2d_16">
    <path clip-path="url(#p3ce3b85df9)" d="M 69.218182 172.860638 
L 69.218182 227.825455 
L 174.907336 227.825455 
L 69.218182 172.860638 
" style="fill:none;stroke:#000000;stroke-dasharray:5.55,2.4;stroke-dashoffset:0;stroke-width:1.5;"/>
   </g>
   <g id="line2d_17">
    <path clip-path="url(#p3ce3b85df9)" d="M 105.040687 136.800432 
L 107.85789 170.606875 
L 145.608419 168.916553 
L 140.537452 132.292906 
L 105.040687 136.800432 
" style="fill:none;stroke:#000000;stroke-dasharray:5.55,2.4;stroke-dashoffset:0;stroke-width:1.5;"/>
   </g>
   <g id="line2d_18">
    <path clip-path="url(#p3ce3b85df9)" d="M 89.827787 58.734545 
L 88.700906 58.734545 
L 97.152516 91.725174 
L 207.412119 122.702872 
L 206.460017 144.125161 
L 276.890108 144.125161 
L 292.666448 58.734545 
L 117.436383 58.734545 
L 89.827787 58.734545 
" style="fill:none;stroke:#000000;stroke-dasharray:5.55,2.4;stroke-dashoffset:0;stroke-width:1.5;"/>
   </g>
   <g id="line2d_19">
    <path clip-path="url(#p3ce3b85df9)" d="M 327.417669 87.331432 
L 327.157214 59.445662 
L 317.639758 59.525337 
L 317.932171 92.683621 
L 373.545075 92.199093 
L 373.259969 59.044973 
L 365.24401 59.114642 
L 365.485189 87.000579 
L 327.417669 87.331432 
" style="fill:none;stroke:#ff0000;stroke-linecap:square;stroke-width:1.5;"/>
   </g>
   <g id="line2d_20">
    <path clip-path="url(#p3ce3b85df9)" d="M 298.499538 87.624918 
L 317.232783 66.967001 
L 310.188461 60.566545 
L 287.900523 85.118634 
L 329.075153 122.504188 
L 351.365633 97.960116 
L 345.4309 92.571294 
L 326.683384 113.216252 
L 298.499538 87.624918 
" style="fill:none;stroke:#ff0000;stroke-linecap:square;stroke-width:1.5;"/>
   </g>
   <g id="line2d_21">
    <path clip-path="url(#p3ce3b85df9)" d="M 329.054384 138.574276 
L 318.20892 112.882645 
L 309.436821 116.575692 
L 322.316907 147.131553 
L 373.567288 125.534601 
L 360.695543 94.979812 
L 353.308327 98.092606 
L 364.136027 123.791722 
L 329.054384 138.574276 
" style="fill:none;stroke:#ff0000;stroke-linecap:square;stroke-width:1.5;"/>
   </g>
   <g id="line2d_22">
    <path clip-path="url(#p3ce3b85df9)" d="M 327.314798 169.963441 
L 319.751801 143.121588 
L 310.588218 145.693954 
L 319.56451 177.615474 
L 373.10467 162.566184 
L 364.136522 130.646766 
L 356.41928 132.815783 
L 363.963719 159.662852 
L 327.314798 169.963441 
" style="fill:none;stroke:#ff0000;stroke-linecap:square;stroke-width:1.5;"/>
   </g>
   <g id="line2d_23">
    <path clip-path="url(#p3ce3b85df9)" d="M 345.691795 181.284394 
L 373.578775 181.266301 
L 373.581818 171.748512 
L 340.422245 171.752739 
L 340.423429 227.367754 
L 373.578775 227.370797 
L 373.578775 219.354536 
L 345.691795 219.353352 
L 345.691795 181.284394 
" style="fill:none;stroke:#ff0000;stroke-linecap:square;stroke-width:1.5;"/>
   </g>
   <g id="line2d_24">
    <path clip-path="url(#p3ce3b85df9)" d="M 290.144868 136.978406 
L 288.863022 136.800261 
L 288.082587 135.767891 
L 282.546103 114.494724 
L 282.724247 113.212877 
L 283.756617 112.432443 
L 305.029785 106.895958 
L 306.311632 107.074103 
L 307.092066 108.106473 
L 312.62855 129.37964 
L 312.450406 130.661487 
L 311.418036 131.441921 
L 290.144868 136.978406 
" style="fill:none;stroke:#ff0000;stroke-linecap:square;stroke-width:1.5;"/>
   </g>
   <g id="line2d_25">
    <path clip-path="url(#p3ce3b85df9)" d="M 349.909091 206.67878 
L 348.713437 206.183525 
L 348.218182 204.987871 
L 348.218182 183.006053 
L 348.713437 181.8104 
L 349.909091 181.315144 
L 371.890909 181.315144 
L 373.086563 181.8104 
L 373.581818 183.006053 
L 373.581818 204.987871 
L 373.086563 206.183525 
L 371.890909 206.67878 
L 349.909091 206.67878 
" style="fill:none;stroke:#ff0000;stroke-linecap:square;stroke-width:1.5;"/>
   </g>
   <g id="line2d_26">
    <path clip-path="url(#p3ce3b85df9)" d="M 361.909677 85.734747 
L 339.970925 84.359439 
L 338.808599 83.790347 
L 338.389121 82.56605 
L 339.764429 60.627297 
L 340.333521 59.464972 
L 341.557818 59.045494 
L 363.496571 60.420802 
L 364.658896 60.989894 
L 365.078374 62.214191 
L 363.703066 84.152943 
L 363.133974 85.315269 
L 361.909677 85.734747 
" style="fill:none;stroke:#ff0000;stroke-linecap:square;stroke-width:1.5;"/>
   </g>
   <g id="line2d_27">
    <path clip-path="url(#p3ce3b85df9)" d="M 344.124628 164.848441 
L 322.737019 151.214504 
L 323.645948 149.788663 
L 352.516564 137.308177 
L 354.125123 136.961656 
L 355.744126 137.255542 
L 357.128271 138.145307 
L 358.067839 139.496141 
L 358.420472 141.103372 
L 358.132743 142.723479 
L 344.124628 164.848441 
" style="fill:none;stroke:#ff0000;stroke-linecap:square;stroke-width:1.5;"/>
   </g>
   <g id="line2d_28">
    <path clip-path="url(#p3ce3b85df9)" d="M 297.985142 157.84259 
L 279.793971 140.16788 
L 280.972285 138.955135 
L 311.769345 132.566387 
L 313.414743 132.552077 
L 314.940954 133.167071 
L 316.116737 134.318191 
L 316.76394 135.831025 
L 316.784504 137.476357 
L 316.175316 139.004894 
L 297.985142 157.84259 
" style="fill:none;stroke:#ff0000;stroke-linecap:square;stroke-width:1.5;"/>
   </g>
   <g id="line2d_29">
    <path clip-path="url(#p3ce3b85df9)" d="M 321.812336 199.854932 
L 303.373202 182.439066 
L 304.53426 181.209791 
L 335.237959 174.386454 
L 336.88299 174.348893 
L 338.41774 174.942257 
L 339.609672 176.076646 
L 340.278191 177.580183 
L 340.322005 179.22506 
L 339.734478 180.762054 
L 321.812336 199.854932 
" style="fill:none;stroke:#ff0000;stroke-linecap:square;stroke-width:1.5;"/>
   </g>
   <g id="line2d_30">
    <path clip-path="url(#p3ce3b85df9)" d="M 288.328169 178.648887 
L 288.302354 153.285264 
L 289.993262 153.283543 
L 316.054307 170.893113 
L 317.21236 172.062066 
L 317.83637 173.584613 
L 317.831792 175.230067 
L 317.199316 176.749118 
L 316.034773 177.911607 
L 314.514609 178.5414 
L 288.328169 178.648887 
" style="fill:none;stroke:#ff0000;stroke-linecap:square;stroke-width:1.5;"/>
   </g>
   <g id="line2d_31">
    <path clip-path="url(#p3ce3b85df9)" d="M 334.985494 226.009498 
L 333.381898 225.640685 
L 332.040602 224.687553 
L 318.034764 202.561151 
L 339.507525 189.061722 
L 340.407487 190.49324 
L 339.337908 221.927791 
L 338.963003 223.529972 
L 338.004779 224.867636 
L 336.60842 225.738109 
L 334.985494 226.009498 
" style="fill:none;stroke:#ff0000;stroke-linecap:square;stroke-width:1.5;"/>
   </g>
   <g id="line2d_32">
    <path clip-path="url(#p3ce3b85df9)" d="M 263.156751 166.461754 
L 249.466637 145.11006 
L 250.890083 144.197386 
L 282.332913 144.986989 
L 283.938369 145.347611 
L 285.284513 146.293885 
L 286.167386 147.682437 
L 286.453218 149.302881 
L 286.0987 150.909698 
L 285.15755 152.259428 
L 263.156751 166.461754 
" style="fill:none;stroke:#ff0000;stroke-linecap:square;stroke-width:1.5;"/>
   </g>
   <g id="line2d_33">
    <path clip-path="url(#p3ce3b85df9)" d="M 295.437077 208.881744 
L 315.035358 204.286773 
L 316.660532 203.102895 
L 317.265895 202.293999 
L 317.943449 200.400939 
L 317.988848 199.391623 
L 317.48399 197.445378 
L 316.26379 195.847271 
L 296.653952 178.667902 
L 294.105849 181.582648 
L 311.739643 197.032302 
L 313.357339 196.821003 
L 314.825971 197.511206 
L 315.688946 198.885446 
L 315.781612 199.971542 
L 315.14172 201.499412 
L 313.749637 202.427856 
L 312.630397 202.53713 
L 311.085023 201.895469 
L 310.15658 200.503386 
L 310.155626 198.821266 
L 292.522989 183.378246 
L 290.41799 185.791866 
L 300.393006 194.531366 
L 300.964232 195.70497 
L 300.724829 196.666018 
L 299.986225 197.325859 
L 294.171386 198.728961 
L 292.367258 199.551072 
L 291.015064 201.001005 
L 290.57641 201.895321 
L 290.257628 203.852134 
L 290.419547 204.965658 
L 291.224122 206.745169 
L 291.86709 207.486159 
L 293.515435 208.533516 
L 295.437077 208.881744 
" style="fill:none;stroke:#ff0000;stroke-linecap:square;stroke-width:1.5;"/>
   </g>
   <g id="line2d_34">
    <path clip-path="url(#p3ce3b85df9)" d="M 282.335241 158.784838 
L 263.803374 166.644627 
L 262.403115 168.087551 
L 261.944076 168.987585 
L 261.598204 170.968274 
L 261.725049 171.970616 
L 262.553419 173.802706 
L 264.027536 175.170117 
L 286.272424 188.765758 
L 288.28793 185.460262 
L 268.284376 173.233232 
L 266.726147 173.716464 
L 265.161558 173.285974 
L 264.077524 172.078443 
L 263.80157 171.023909 
L 264.17241 169.409497 
L 265.386395 168.257914 
L 266.470767 167.95996 
L 268.102729 168.329567 
L 269.254312 169.543552 
L 269.541212 171.201026 
L 289.542499 183.421715 
L 291.206544 180.685378 
L 279.89101 173.768839 
L 279.128587 172.709426 
L 279.201126 171.72167 
L 279.816807 170.94587 
L 285.308479 168.57467 
L 286.946588 167.457825 
L 288.032611 165.799124 
L 288.312846 164.843254 
L 288.294331 162.860732 
L 287.94547 161.790942 
L 286.85009 160.174111 
L 286.090513 159.553212 
L 284.28811 158.801318 
L 282.335241 158.784838 
" style="fill:none;stroke:#ff0000;stroke-linecap:square;stroke-width:1.5;"/>
   </g>
   <g id="line2d_35">
    <path clip-path="url(#p3ce3b85df9)" d="M 275.070414 210.243899 
L 291.726231 198.939468 
L 292.820083 197.252387 
L 293.095866 196.280419 
L 293.05106 194.270258 
L 292.73224 193.311543 
L 291.564302 191.674879 
L 289.85299 190.6193 
L 265.393827 181.595676 
L 264.057612 185.229284 
L 286.052581 193.344936 
L 287.487515 192.568694 
L 289.105886 192.687593 
L 290.403515 193.661975 
L 290.878734 194.642974 
L 290.828014 196.298654 
L 289.8604 197.663801 
L 288.854396 198.166389 
L 287.181738 198.120282 
L 285.816591 197.152669 
L 285.213706 195.582299 
L 263.222192 187.472427 
L 262.120392 190.479521 
L 274.562421 195.070353 
L 275.51582 195.961798 
L 275.636212 196.94487 
L 275.182669 197.825339 
L 270.255095 201.216514 
L 268.864673 202.629833 
L 268.120936 204.467655 
L 268.031391 205.459724 
L 268.434022 207.401019 
L 268.983722 208.382845 
L 270.371857 209.756557 
L 271.237424 210.218365 
L 273.151423 210.606448 
L 275.070414 210.243899 
" style="fill:none;stroke:#ff0000;stroke-linecap:square;stroke-width:1.5;"/>
   </g>
   <g id="line2d_36">
    <path clip-path="url(#p3ce3b85df9)" d="M 238.39212 173.960023 
L 256.577274 165.328306 
L 257.915651 163.827805 
L 258.336457 162.909274 
L 258.598777 160.915798 
L 258.429917 159.919673 
L 257.525278 158.124018 
L 255.994993 156.81977 
L 233.198352 144.171069 
L 231.323553 147.558354 
L 251.82332 158.933854 
L 253.359862 158.385559 
L 254.941162 158.74991 
L 256.074989 159.910813 
L 256.39502 160.952818 
L 256.092359 162.58139 
L 254.927847 163.782978 
L 253.856956 164.126243 
L 252.210902 163.825551 
L 251.009314 162.661039 
L 250.653005 161.017088 
L 230.15577 149.647828 
L 228.608201 152.451685 
L 240.204431 158.886534 
L 241.010706 159.912967 
L 240.979745 160.9029 
L 240.397214 161.70389 
L 235.010053 164.303803 
L 233.420332 165.488509 
L 232.404981 167.191389 
L 232.165168 168.158192 
L 232.26699 170.138185 
L 232.660505 171.192366 
L 233.82287 172.761731 
L 234.607872 173.350158 
L 236.440283 174.025634 
L 238.39212 173.960023 
" style="fill:none;stroke:#ff0000;stroke-linecap:square;stroke-width:1.5;"/>
   </g>
   <g id="line2d_37">
    <path clip-path="url(#p3ce3b85df9)" d="M 253.930567 197.915862 
L 265.496924 181.440858 
L 265.921626 179.475562 
L 265.834914 178.468955 
L 265.080377 176.605241 
L 264.442382 175.821824 
L 262.770073 174.70552 
L 260.795691 174.325196 
L 234.726133 174.55892 
L 234.764892 178.430234 
L 258.208414 178.221118 
L 259.274955 176.986581 
L 260.830362 176.524013 
L 262.389145 176.975073 
L 263.181282 177.723881 
L 263.720827 179.290004 
L 263.300033 180.909521 
L 262.537547 181.736112 
L 260.957185 182.28599 
L 259.337668 181.865196 
L 258.217215 180.610558 
L 234.778972 180.823854 
L 234.814809 184.026244 
L 248.07625 183.907952 
L 249.28376 184.403498 
L 249.74485 185.280037 
L 249.632909 186.264109 
L 246.227625 191.181943 
L 245.428562 192.996396 
L 245.384676 194.978519 
L 245.652654 195.937897 
L 246.717361 197.610362 
L 247.579434 198.333537 
L 249.364415 199.125904 
L 250.337482 199.250857 
L 252.264747 198.935183 
L 253.930567 197.915862 
" style="fill:none;stroke:#ff0000;stroke-linecap:square;stroke-width:1.5;"/>
   </g>
   <g id="line2d_38">
    <path clip-path="url(#p3ce3b85df9)" d="M 188.699426 142.010727 
L 204.423013 129.44191 
L 205.381978 127.674668 
L 205.581127 126.684155 
L 205.379706 124.683608 
L 204.987098 123.752674 
L 203.69509 122.212068 
L 201.906676 121.293151 
L 176.818335 114.204312 
L 175.769536 117.931053 
L 198.330382 124.30684 
L 199.700417 123.421067 
L 201.323131 123.413404 
L 202.69279 124.283631 
L 203.243059 125.224586 
L 203.321603 126.87918 
L 202.463389 128.315624 
L 201.499639 128.895128 
L 199.82848 128.979595 
L 198.392036 128.121381 
L 197.66853 126.602805 
L 175.111579 120.232511 
L 174.247624 123.316367 
L 187.009757 126.922998 
L 188.029767 127.737383 
L 188.226452 128.708074 
L 187.842948 129.621229 
L 183.19482 133.386327 
L 181.918842 134.903766 
L 181.320681 136.793988 
L 181.30877 137.790018 
L 181.861556 139.694005 
L 182.486145 140.629976 
L 183.977173 141.891259 
L 184.876116 142.284165 
L 186.814549 142.521814 
L 188.699426 142.010727 
" style="fill:none;stroke:#ff0000;stroke-linecap:square;stroke-width:1.5;"/>
   </g>
   <g id="line2d_39">
    <path clip-path="url(#p3ce3b85df9)" d="M 217.749488 173.80662 
L 235.359796 164.055548 
L 236.601807 162.474357 
L 236.9644 161.531328 
L 237.101654 159.525357 
L 236.870885 158.541729 
L 235.85582 156.806104 
L 234.247035 155.600018 
L 210.704636 144.400378 
L 209.045139 147.898184 
L 230.215602 157.970619 
L 231.714884 157.327392 
L 233.315859 157.592231 
L 234.520005 158.680024 
L 234.904515 159.699996 
L 234.7042 161.344297 
L 233.617039 162.616296 
L 232.569687 163.025801 
L 230.908062 162.828543 
L 229.636062 161.741382 
L 229.177735 160.122905 
L 208.01019 150.056539 
L 206.640831 152.951611 
L 218.616457 158.649347 
L 219.485289 159.623399 
L 219.51624 160.613331 
L 218.984894 161.449153 
L 213.770703 164.38058 
L 212.258109 165.662298 
L 211.351139 167.425291 
L 211.1722 168.405189 
L 211.397535 170.374951 
L 211.856146 171.402486 
L 213.114296 172.896159 
L 213.934529 173.434389 
L 215.805564 173.994055 
L 217.749488 173.80662 
" style="fill:none;stroke:#ff0000;stroke-linecap:square;stroke-width:1.5;"/>
   </g>
   <g id="line2d_40">
    <path clip-path="url(#p3ce3b85df9)" d="M 359.879652 125.707782 
L 336.109186 116.860238 
L 352.880218 96.038954 
L 359.879652 125.707782 
" style="fill:none;stroke:#ff0000;stroke-linecap:square;stroke-width:1.5;"/>
   </g>
   <g id="line2d_41">
    <path clip-path="url(#p3ce3b85df9)" d="M 308.728457 227.770792 
L 317.183003 202.407156 
L 334.092094 227.770792 
L 308.728457 227.770792 
" style="fill:none;stroke:#ff0000;stroke-linecap:square;stroke-width:1.5;"/>
   </g>
   <g id="line2d_42">
    <path clip-path="url(#p3ce3b85df9)" d="M 303.912476 227.762444 
L 278.569711 226.733692 
L 288.046052 201.733845 
L 303.912476 227.762444 
" style="fill:none;stroke:#ff0000;stroke-linecap:square;stroke-width:1.5;"/>
   </g>
   <g id="line2d_43">
    <path clip-path="url(#p3ce3b85df9)" d="M 270.205993 218.235688 
L 245.914008 210.940929 
L 261.306095 189.08053 
L 270.205993 218.235688 
" style="fill:none;stroke:#ff0000;stroke-linecap:square;stroke-width:1.5;"/>
   </g>
   <g id="line2d_44">
    <path clip-path="url(#p3ce3b85df9)" d="M 206.65184 155.265358 
L 180.992772 147.754991 
L 205.713449 129.919086 
L 206.65184 155.265358 
" style="fill:none;stroke:#ff0000;stroke-linecap:square;stroke-width:1.5;"/>
   </g>
   <g id="line2d_45">
    <path clip-path="url(#p3ce3b85df9)" d="M 167.138601 135.983596 
L 160.587393 134.287522 
L 154.10586 132.358922 
L 152.299116 125.837259 
L 150.728794 119.259836 
L 155.473257 114.434417 
L 160.384128 109.78576 
L 166.935336 111.481834 
L 173.41687 113.410435 
L 175.223613 119.932097 
L 176.793935 126.50952 
L 172.049473 131.33494 
L 167.138601 135.983596 
" style="fill:none;stroke:#ff0000;stroke-linecap:square;stroke-width:1.5;"/>
   </g>
   <g id="line2d_46">
    <path clip-path="url(#p3ce3b85df9)" d="M 140.82608 130.862251 
L 134.510246 128.432184 
L 128.290077 125.779021 
L 127.23669 119.094204 
L 126.424532 112.380873 
L 131.686959 108.126292 
L 137.094613 104.06625 
L 143.410447 106.496318 
L 149.630617 109.14948 
L 150.684003 115.834297 
L 151.496162 122.547628 
L 146.233735 126.80221 
L 140.82608 130.862251 
" style="fill:none;stroke:#ff0000;stroke-linecap:square;stroke-width:1.5;"/>
   </g>
   <g id="line2d_47">
    <path clip-path="url(#p3ce3b85df9)" d="M 116.325185 122.611739 
L 109.901261 120.483787 
L 103.562318 118.128456 
L 102.19324 111.501087 
L 101.063769 104.833801 
L 106.118603 100.334551 
L 111.327725 96.022739 
L 117.751649 98.150691 
L 124.090592 100.506022 
L 125.45967 107.133392 
L 126.589141 113.800677 
L 121.534307 118.299927 
L 116.325185 122.611739 
" style="fill:none;stroke:#ff0000;stroke-linecap:square;stroke-width:1.5;"/>
   </g>
   <g id="line2d_48">
    <path clip-path="url(#p3ce3b85df9)" d="M 85.785709 94.575004 
L 79.218725 92.941078 
L 72.719209 91.073977 
L 70.850755 84.569726 
L 69.218182 78.007477 
L 73.916711 73.13732 
L 78.783316 68.442342 
L 85.3503 70.076267 
L 91.849816 71.943369 
L 93.718271 78.44762 
L 95.350844 85.009869 
L 90.652315 89.880026 
L 85.785709 94.575004 
" style="fill:none;stroke:#ff0000;stroke-linecap:square;stroke-width:1.5;"/>
   </g>
   <g id="line2d_49">
    <path clip-path="url(#p3ce3b85df9)" d="M 85.525253 117.290943 
L 81.117509 112.155945 
L 76.900057 106.869973 
L 79.143183 100.485383 
L 81.612075 94.190049 
L 88.262874 92.940303 
L 94.949455 91.930646 
L 99.357199 97.065643 
L 103.574651 102.351615 
L 101.331525 108.736205 
L 98.862633 115.03154 
L 92.211834 116.281286 
L 85.525253 117.290943 
" style="fill:none;stroke:#ff0000;stroke-linecap:square;stroke-width:1.5;"/>
   </g>
   <g id="patch_37">
    <path d="M 54 252 
L 54 34.56 
" style="fill:none;stroke:#000000;stroke-linecap:square;stroke-linejoin:miter;stroke-width:0.8;"/>
   </g>
   <g id="patch_38">
    <path d="M 388.8 252 
L 388.8 34.56 
" style="fill:none;stroke:#000000;stroke-linecap:square;stroke-linejoin:miter;stroke-width:0.8;"/>
   </g>
   <g id="patch_39">
    <path d="M 54 252 
L 388.8 252 
" style="fill:none;stroke:#000000;stroke-linecap:square;stroke-linejoin:miter;stroke-width:0.8;"/>
   </g>
   <g id="patch_40">
    <path d="M 54 34.56 
L 388.8 34.56 
" style="fill:none;stroke:#000000;stroke-linecap:square;stroke-linejoin:miter;stroke-width:0.8;"/>
   </g>
  </g>
 </g>
 <defs>
  <clipPath id="p3ce3b85df9">
   <rect height="217.44" width="334.8" x="54" y="34.56"/>
  </clipPath>
 </defs>
</svg>
