<?xml version="1.0" encoding="utf-8" standalone="no"?>
<!DOCTYPE svg PUBLIC "-//W3C//DTD SVG 1.1//EN"
  "http://www.w3.org/Graphics/SVG/1.1/DTD/svg11.dtd">
<!-- Created with matplotlib (https://matplotlib.org/) -->
<svg height="288pt" version="1.1" viewBox="0 0 432 288" width="432pt" xmlns="http://www.w3.org/2000/svg" xmlns:xlink="http://www.w3.org/1999/xlink">
 <defs>
  <style type="text/css">
*{stroke-linecap:butt;stroke-linejoin:round;}
  </style>
 </defs>
 <g id="figure_1">
  <g id="patch_1">
   <path d="M 0 288 
L 432 288 
L 432 0 
L 0 0 
z
" style="fill:#ffffff;"/>
  </g>
  <g id="axes_1">
   <g id="patch_2">
    <path d="M 54 252 
L 388.8 252 
L 388.8 34.56 
L 54 34.56 
z
" style="fill:#ffffff;"/>
   </g>
   <g id="patch_3">
    <path clip-path="url(#p56e06f3534)" d="M 69.218182 172.860638 
L 69.218182 227.825455 
L 174.907336 227.825455 
z
" style="fill:#aaaaaa;"/>
   </g>
   <g id="patch_4">
    <path clip-path="url(#p56e06f3534)" d="M 105.040687 136.800432 
L 107.85789 170.606875 
L 145.608419 168.916553 
L 140.537452 132.292906 
z
" style="fill:#aaaaaa;"/>
   </g>
   <g id="patch_5">
    <path clip-path="url(#p56e06f3534)" d="M 89.827787 58.734545 
L 88.700906 58.734545 
L 97.152516 91.725174 
L 207.412119 122.702872 
L 206.460017 144.125161 
L 276.890108 144.125161 
L 292.666448 58.734545 
L 117.436383 58.734545 
z
" style="fill:#aaaaaa;"/>
   </g>
   <g id="patch_6">
    <path clip-path="url(#p56e06f3534)" d="M 321.105646 85.367748 
L 340.811925 65.635882 
L 334.083984 58.903636 
L 310.639615 82.353984 
L 349.966205 121.678901 
L 373.412727 98.236684 
L 367.744374 92.568331 
L 348.024465 112.286566 
z
" style="fill:#f6929c;"/>
   </g>
   <g id="patch_7">
    <path clip-path="url(#p56e06f3534)" d="M 294.888378 110.623367 
L 313.223144 89.610982 
L 306.057711 83.346409 
L 284.243371 108.320233 
L 326.125417 144.911545 
L 347.94245 119.945688 
L 341.905749 114.671345 
L 323.556467 135.671047 
z
" style="fill:#f6929c;"/>
   </g>
   <g id="patch_8">
    <path clip-path="url(#p56e06f3534)" d="M 328.97149 162.833352 
L 317.296979 137.507678 
L 308.649506 141.483798 
L 322.515614 171.605025 
L 373.037205 148.354247 
L 359.179469 118.23382 
L 351.897294 121.584996 
L 363.554294 146.918729 
z
" style="fill:#f6929c;"/>
   </g>
   <g id="patch_9">
    <path clip-path="url(#p56e06f3534)" d="M 326.877935 195.964462 
L 320.865209 168.733393 
L 311.5693 170.776526 
L 318.70197 203.15989 
L 373.016403 191.202791 
L 365.891742 158.821992 
L 358.062908 160.545303 
L 364.056808 187.780516 
z
" style="fill:#f6929c;"/>
   </g>
   <g id="patch_10">
    <path clip-path="url(#p56e06f3534)" d="M 274.956916 164.601167 
L 255.590905 144.535236 
L 248.736032 151.138193 
L 271.75113 175.009986 
L 311.792842 136.413469 
L 288.785912 112.539673 
L 283.014243 118.102792 
L 302.366376 138.1821 
z
" style="fill:#f6929c;"/>
   </g>
   <g id="patch_11">
    <path clip-path="url(#p56e06f3534)" d="M 315.008471 126.012547 
L 313.781593 125.600676 
L 297.206109 111.162752 
L 296.629811 110.003983 
L 297.041682 108.777105 
L 311.479606 92.201621 
L 312.638376 91.625323 
L 313.865253 92.037194 
L 330.440737 106.475118 
L 331.017035 107.633887 
L 330.605165 108.860765 
L 316.16724 125.436249 
z
" style="fill:#f6929c;"/>
   </g>
   <g id="patch_12">
    <path clip-path="url(#p56e06f3534)" d="M 357.404163 93.29086 
L 356.177286 92.87899 
L 339.601802 78.441065 
L 339.025504 77.282296 
L 339.437374 76.055418 
L 353.875299 59.479934 
L 355.034068 58.903636 
L 356.260945 59.315507 
L 372.836429 73.753431 
L 373.412727 74.912201 
L 373.000857 76.139078 
L 358.562932 92.714562 
z
" style="fill:#f6929c;"/>
   </g>
   <g id="patch_13">
    <path clip-path="url(#p56e06f3534)" d="M 349.921843 223.328381 
L 348.692697 222.923329 
L 348.109976 221.767776 
L 346.476769 199.846714 
L 346.881821 198.617569 
L 348.037374 198.034847 
L 369.958436 196.401641 
L 371.187581 196.806692 
L 371.770303 197.962245 
L 373.403509 219.883307 
L 372.998457 221.112453 
L 371.842905 221.695174 
z
" style="fill:#f6929c;"/>
   </g>
   <g id="patch_14">
    <path clip-path="url(#p56e06f3534)" d="M 147.831408 132.752096 
L 126.610828 127.017349 
L 125.585786 126.227315 
L 125.41961 124.943862 
L 131.154357 103.723282 
L 131.944391 102.69824 
L 133.227844 102.532064 
L 154.448424 108.266811 
L 155.473466 109.056845 
L 155.639642 110.340298 
L 149.904895 131.560878 
L 149.114861 132.58592 
z
" style="fill:#f6929c;"/>
   </g>
   <g id="patch_15">
    <path clip-path="url(#p56e06f3534)" d="M 299.006501 88.566319 
L 297.361226 88.541626 
L 295.85002 87.890628 
L 294.701854 86.711961 
L 294.090691 85.184212 
L 294.303326 58.998415 
L 319.66537 59.282657 
L 319.646421 60.973459 
L 301.719584 86.81729 
L 300.536562 87.960967 
z
" style="fill:#f6929c;"/>
   </g>
   <g id="patch_16">
    <path clip-path="url(#p56e06f3534)" d="M 350.52072 152.407124 
L 325.31151 149.612533 
L 325.497816 147.931919 
L 345.895982 123.990535 
L 347.186453 122.969643 
L 348.768944 122.518797 
L 350.403685 122.706309 
L 351.842989 123.50377 
L 352.868781 124.790353 
L 353.325637 126.371118 
z
" style="fill:#f6929c;"/>
   </g>
   <g id="patch_17">
    <path clip-path="url(#p56e06f3534)" d="M 337.832167 192.740198 
L 337.441434 191.095053 
L 348.5822 161.681478 
L 349.453336 160.285534 
L 350.791455 159.327946 
L 352.393815 158.953801 
L 354.017634 159.219792 
L 355.41688 160.085616 
L 356.379547 161.420086 
L 362.509339 186.879207 
z
" style="fill:#f6929c;"/>
   </g>
   <g id="patch_18">
    <path clip-path="url(#p56e06f3534)" d="M 317.281846 227.275432 
L 315.663042 226.980457 
L 314.279496 226.089761 
L 313.340835 224.738297 
L 312.989282 223.130829 
L 313.278102 221.510914 
L 314.163532 220.123994 
L 335.568007 205.037918 
L 350.115875 225.814674 
L 348.730758 226.784532 
z
" style="fill:#f6929c;"/>
   </g>
   <g id="patch_19">
    <path clip-path="url(#p56e06f3534)" d="M 91.447458 95.932216 
L 89.802 95.929088 
L 88.282393 95.297955 
L 69.708557 76.838436 
L 87.643357 58.903636 
L 88.83901 60.09929 
L 94.783671 90.985145 
L 94.774289 92.630578 
L 94.137384 94.147776 
L 92.969454 95.306862 
z
" style="fill:#f6929c;"/>
   </g>
   <g id="patch_20">
    <path clip-path="url(#p56e06f3534)" d="M 100.793604 117.80063 
L 96.435366 92.814237 
L 98.101126 92.523688 
L 126.787295 105.422476 
L 128.128015 106.376419 
L 129.002946 107.769988 
L 129.279524 109.392038 
L 128.91584 110.996804 
L 127.966999 112.341141 
L 126.576767 113.221362 
z
" style="fill:#f6929c;"/>
   </g>
   <g id="patch_21">
    <path clip-path="url(#p56e06f3534)" d="M 74.519938 115.118796 
L 94.312666 111.450788 
L 95.99173 110.344667 
L 96.634472 109.565142 
L 97.400322 107.706048 
L 97.493148 106.699985 
L 97.080398 104.732146 
L 95.936721 103.078412 
L 77.156684 84.995639 
L 74.474296 87.787299 
L 91.36184 104.049321 
L 92.987685 103.91435 
L 94.422225 104.672871 
L 95.219602 106.086183 
L 95.261077 107.175436 
L 94.550025 108.671516 
L 93.11581 109.53345 
L 91.992669 109.589955 
L 90.479188 108.876313 
L 89.617254 107.442098 
L 89.695426 105.761794 
L 72.808726 89.506454 
L 70.592523 91.818386 
L 80.145404 101.017424 
L 80.660792 102.216598 
L 80.376449 103.16532 
L 79.607624 103.789688 
L 73.733221 104.917715 
L 71.892419 105.654052 
L 70.473519 107.038775 
L 69.993283 107.911468 
L 69.582808 109.85112 
L 69.692169 110.971027 
L 70.412148 112.786415 
L 71.019549 113.556828 
L 72.616803 114.680562 
z
" style="fill:#f6929c;"/>
   </g>
   <g id="patch_22">
    <path clip-path="url(#p56e06f3534)" d="M 90.282792 116.86765 
L 90.984063 136.985169 
L 91.829772 138.809322 
L 92.505698 139.560255 
L 94.231125 140.592562 
L 95.212406 140.833118 
L 97.219643 140.715855 
L 99.024298 139.829259 
L 119.685022 123.929228 
L 117.320644 120.863565 
L 98.740473 135.161106 
L 98.633573 136.789038 
L 97.671287 138.095662 
L 96.155613 138.675312 
L 95.0722 138.555282 
L 93.697695 137.630844 
L 93.057287 136.084952 
L 93.167463 134.9658 
L 94.097036 133.574468 
L 95.642927 132.934061 
L 97.293205 133.259812 
L 115.866644 118.962118 
L 113.907796 116.428445 
L 103.397436 124.516224 
L 102.135239 124.848645 
L 101.238985 124.427155 
L 100.735153 123.574465 
L 100.488074 117.597844 
L 100.031999 115.668404 
L 98.872284 114.060362 
L 98.080188 113.456374 
L 96.222544 112.763626 
L 95.098776 112.706203 
L 93.19689 113.149857 
L 92.345137 113.636674 
L 90.997595 115.050226 
z
" style="fill:#f6929c;"/>
   </g>
   <g id="patch_23">
    <path clip-path="url(#p56e06f3534)" d="M 296.309395 203.435373 
L 296.055447 223.563509 
L 296.81366 225.425731 
L 297.453199 226.207887 
L 299.127708 227.32089 
L 300.096471 227.607729 
L 302.107012 227.585828 
L 303.951697 226.785848 
L 325.343497 211.883922 
L 323.127224 208.709539 
L 303.889661 222.109486 
L 303.705648 223.730513 
L 302.682456 224.990012 
L 301.140989 225.497102 
L 300.06449 225.325807 
L 298.73539 224.337199 
L 298.169045 222.762666 
L 298.332193 221.650001 
L 299.326727 220.304338 
L 300.901261 219.737993 
L 302.534226 220.141671 
L 321.765072 206.74125 
L 319.928633 204.117498 
L 309.046402 211.697529 
L 307.769856 211.969694 
L 306.894608 211.506158 
L 306.431796 210.630525 
L 306.468544 204.648912 
L 306.10452 202.700007 
L 305.022401 201.038756 
L 304.259851 200.397869 
L 302.437165 199.617769 
L 301.317387 199.507096 
L 299.396594 199.86002 
L 298.522704 200.30588 
L 297.109616 201.653908 
z
" style="fill:#f6929c;"/>
   </g>
   <g id="patch_24">
    <path clip-path="url(#p56e06f3534)" d="M 82.76236 161.901556 
L 100.102284 172.125714 
L 102.095058 172.393311 
L 103.091626 172.227089 
L 104.889672 171.327206 
L 105.620057 170.629125 
L 106.600301 168.873599 
L 106.822939 166.875284 
L 104.523675 140.906266 
L 100.667613 141.251745 
L 102.734207 164.604938 
L 104.049393 165.570274 
L 104.633788 167.084125 
L 104.307696 168.673755 
L 103.624029 169.522749 
L 102.105598 170.184729 
L 100.457824 169.893621 
L 99.573398 169.19905 
L 98.89999 167.667243 
L 99.191098 166.019469 
L 100.352981 164.803098 
L 98.282639 141.455499 
L 95.093164 141.745044 
L 96.262187 154.955389 
L 95.863907 156.198377 
L 95.026672 156.72749 
L 94.036824 156.693899 
L 88.864558 153.689117 
L 86.992479 153.036381 
L 85.013114 153.149736 
L 84.077994 153.492912 
L 82.49518 154.686829 
L 81.842607 155.603509 
L 81.194212 157.445677 
L 81.146777 158.425587 
L 81.614213 160.321768 
z
" style="fill:#f6929c;"/>
   </g>
   <g id="patch_25">
    <path clip-path="url(#p56e06f3534)" d="M 287.451103 167.158427 
L 303.514012 179.290586 
L 305.463354 179.78336 
L 306.472367 179.731698 
L 308.361188 179.042414 
L 309.166313 178.432042 
L 310.340084 176.799556 
L 310.788823 174.839589 
L 311.461614 148.777667 
L 307.591293 148.681807 
L 306.98521 172.118426 
L 308.181918 173.227243 
L 308.590129 174.797793 
L 308.085147 176.339951 
L 307.309252 177.105574 
L 305.725317 177.590343 
L 304.121409 177.113497 
L 303.321827 176.322733 
L 302.827227 174.724209 
L 303.304073 173.120301 
L 304.596908 172.044146 
L 305.19863 148.612658 
L 301.996931 148.537134 
L 301.654084 161.79467 
L 301.116855 162.984221 
L 300.224815 163.414557 
L 299.24523 163.26847 
L 294.448762 159.694264 
L 292.663187 158.8326 
L 290.683789 158.719827 
L 289.715674 158.954288 
L 288.007203 159.960204 
L 287.254493 160.796613 
L 286.400546 162.552966 
L 286.241837 163.521101 
L 286.490314 165.458175 
z
" style="fill:#f6929c;"/>
   </g>
   <g id="patch_26">
    <path clip-path="url(#p56e06f3534)" d="M 293.564129 201.110599 
L 312.324552 193.813142 
L 313.767681 192.413092 
L 314.253649 191.527309 
L 314.659083 189.557948 
L 314.562518 188.552238 
L 313.789763 186.696004 
L 312.357546 185.284768 
L 290.532697 171.024599 
L 288.418442 174.267822 
L 308.044243 187.092424 
L 309.616333 186.656395 
L 311.167231 187.133863 
L 312.214363 188.37353 
L 312.458396 189.435905 
L 312.039048 191.038402 
L 310.790894 192.152858 
L 309.698031 192.417981 
L 308.077955 191.999336 
L 306.963499 190.751182 
L 306.726704 189.085811 
L 287.102979 176.267616 
L 285.357187 178.952536 
L 296.459035 186.207107 
L 297.189168 187.289026 
L 297.08688 188.274147 
L 296.448088 189.03103 
L 290.887418 191.235571 
L 289.21638 192.302518 
L 288.080838 193.92772 
L 287.77191 194.874705 
L 287.730642 196.856885 
L 288.047088 197.936706 
L 289.093221 199.58583 
L 289.833732 200.229349 
L 291.612645 201.035245 
z
" style="fill:#f6929c;"/>
   </g>
   <g id="patch_27">
    <path clip-path="url(#p56e06f3534)" d="M 261.619627 190.536532 
L 277.990807 202.24938 
L 279.952237 202.691595 
L 280.959577 202.613866 
L 282.829948 201.875982 
L 283.619024 201.245 
L 284.7502 199.582715 
L 285.14812 197.611803 
L 285.146936 171.541198 
L 281.275431 171.545425 
L 281.275431 194.98988 
L 282.500405 196.067389 
L 282.949081 197.626861 
L 282.484135 199.181559 
L 281.728291 199.966984 
L 280.157418 200.492539 
L 278.541719 200.057316 
L 277.721961 199.287487 
L 277.186202 197.702284 
L 277.621425 196.086585 
L 278.886007 194.977367 
L 278.88178 171.538154 
L 275.679198 171.545425 
L 275.679198 184.807394 
L 275.172901 186.010435 
L 274.292284 186.463689 
L 273.30925 186.342975 
L 268.421985 182.893961 
L 266.614731 182.078745 
L 264.633079 182.017181 
L 263.671349 182.276592 
L 261.989454 183.326339 
L 261.258618 184.181927 
L 260.450362 185.959769 
L 260.316734 186.931683 
L 260.615205 188.861687 
z
" style="fill:#f6929c;"/>
   </g>
   <g id="patch_28">
    <path clip-path="url(#p56e06f3534)" d="M 276.766599 148.873843 
L 282.307525 118.89836 
L 300.502432 136.569224 
z
" style="fill:#f6929c;"/>
   </g>
   <g id="patch_29">
    <path clip-path="url(#p56e06f3534)" d="M 241.542938 169.816992 
L 224.571631 144.494944 
L 249.93519 144.432677 
z
" style="fill:#f6929c;"/>
   </g>
   <g id="patch_30">
    <path clip-path="url(#p56e06f3534)" d="M 238.593555 175.879063 
L 250.605279 153.540027 
L 268.940407 172.998096 
z
" style="fill:#f6929c;"/>
   </g>
   <g id="patch_31">
    <path clip-path="url(#p56e06f3534)" d="M 296.14316 226.616816 
L 270.078602 220.664321 
L 293.681039 201.372965 
z
" style="fill:#f6929c;"/>
   </g>
   <g id="patch_32">
    <path clip-path="url(#p56e06f3534)" d="M 249.493074 200.10961 
L 239.924855 176.619969 
L 266.603902 174.88163 
z
" style="fill:#f6929c;"/>
   </g>
   <g id="matplotlib.axis_1">
    <g id="xtick_1">
     <g id="line2d_1">
      <defs>
       <path d="M 0 0 
L 0 3.5 
" id="m7db12623e5" style="stroke:#000000;stroke-width:0.8;"/>
      </defs>
      <g>
       <use style="stroke:#000000;stroke-width:0.8;" x="69.218182" xlink:href="#m7db12623e5" y="252"/>
      </g>
     </g>
     <g id="text_1">
      <!-- 0 -->
      <defs>
       <path d="M 31.78125 66.40625 
Q 24.171875 66.40625 20.328125 58.90625 
Q 16.5 51.421875 16.5 36.375 
Q 16.5 21.390625 20.328125 13.890625 
Q 24.171875 6.390625 31.78125 6.390625 
Q 39.453125 6.390625 43.28125 13.890625 
Q 47.125 21.390625 47.125 36.375 
Q 47.125 51.421875 43.28125 58.90625 
Q 39.453125 66.40625 31.78125 66.40625 
z
M 31.78125 74.21875 
Q 44.046875 74.21875 50.515625 64.515625 
Q 56.984375 54.828125 56.984375 36.375 
Q 56.984375 17.96875 50.515625 8.265625 
Q 44.046875 -1.421875 31.78125 -1.421875 
Q 19.53125 -1.421875 13.0625 8.265625 
Q 6.59375 17.96875 6.59375 36.375 
Q 6.59375 54.828125 13.0625 64.515625 
Q 19.53125 74.21875 31.78125 74.21875 
z
" id="DejaVuSans-48"/>
      </defs>
      <g transform="translate(66.036932 266.598437)scale(0.1 -0.1)">
       <use xlink:href="#DejaVuSans-48"/>
      </g>
     </g>
    </g>
    <g id="xtick_2">
     <g id="line2d_2">
      <g>
       <use style="stroke:#000000;stroke-width:0.8;" x="111.490909" xlink:href="#m7db12623e5" y="252"/>
      </g>
     </g>
     <g id="text_2">
      <!-- 250 -->
      <defs>
       <path d="M 19.1875 8.296875 
L 53.609375 8.296875 
L 53.609375 0 
L 7.328125 0 
L 7.328125 8.296875 
Q 12.9375 14.109375 22.625 23.890625 
Q 32.328125 33.6875 34.8125 36.53125 
Q 39.546875 41.84375 41.421875 45.53125 
Q 43.3125 49.21875 43.3125 52.78125 
Q 43.3125 58.59375 39.234375 62.25 
Q 35.15625 65.921875 28.609375 65.921875 
Q 23.96875 65.921875 18.8125 64.3125 
Q 13.671875 62.703125 7.8125 59.421875 
L 7.8125 69.390625 
Q 13.765625 71.78125 18.9375 73 
Q 24.125 74.21875 28.421875 74.21875 
Q 39.75 74.21875 46.484375 68.546875 
Q 53.21875 62.890625 53.21875 53.421875 
Q 53.21875 48.921875 51.53125 44.890625 
Q 49.859375 40.875 45.40625 35.40625 
Q 44.1875 33.984375 37.640625 27.21875 
Q 31.109375 20.453125 19.1875 8.296875 
z
" id="DejaVuSans-50"/>
       <path d="M 10.796875 72.90625 
L 49.515625 72.90625 
L 49.515625 64.59375 
L 19.828125 64.59375 
L 19.828125 46.734375 
Q 21.96875 47.46875 24.109375 47.828125 
Q 26.265625 48.1875 28.421875 48.1875 
Q 40.625 48.1875 47.75 41.5 
Q 54.890625 34.8125 54.890625 23.390625 
Q 54.890625 11.625 47.5625 5.09375 
Q 40.234375 -1.421875 26.90625 -1.421875 
Q 22.3125 -1.421875 17.546875 -0.640625 
Q 12.796875 0.140625 7.71875 1.703125 
L 7.71875 11.625 
Q 12.109375 9.234375 16.796875 8.0625 
Q 21.484375 6.890625 26.703125 6.890625 
Q 35.15625 6.890625 40.078125 11.328125 
Q 45.015625 15.765625 45.015625 23.390625 
Q 45.015625 31 40.078125 35.4375 
Q 35.15625 39.890625 26.703125 39.890625 
Q 22.75 39.890625 18.8125 39.015625 
Q 14.890625 38.140625 10.796875 36.28125 
z
" id="DejaVuSans-53"/>
      </defs>
      <g transform="translate(101.947159 266.598437)scale(0.1 -0.1)">
       <use xlink:href="#DejaVuSans-50"/>
       <use x="63.623047" xlink:href="#DejaVuSans-53"/>
       <use x="127.246094" xlink:href="#DejaVuSans-48"/>
      </g>
     </g>
    </g>
    <g id="xtick_3">
     <g id="line2d_3">
      <g>
       <use style="stroke:#000000;stroke-width:0.8;" x="153.763636" xlink:href="#m7db12623e5" y="252"/>
      </g>
     </g>
     <g id="text_3">
      <!-- 500 -->
      <g transform="translate(144.219886 266.598437)scale(0.1 -0.1)">
       <use xlink:href="#DejaVuSans-53"/>
       <use x="63.623047" xlink:href="#DejaVuSans-48"/>
       <use x="127.246094" xlink:href="#DejaVuSans-48"/>
      </g>
     </g>
    </g>
    <g id="xtick_4">
     <g id="line2d_4">
      <g>
       <use style="stroke:#000000;stroke-width:0.8;" x="196.036364" xlink:href="#m7db12623e5" y="252"/>
      </g>
     </g>
     <g id="text_4">
      <!-- 750 -->
      <defs>
       <path d="M 8.203125 72.90625 
L 55.078125 72.90625 
L 55.078125 68.703125 
L 28.609375 0 
L 18.3125 0 
L 43.21875 64.59375 
L 8.203125 64.59375 
z
" id="DejaVuSans-55"/>
      </defs>
      <g transform="translate(186.492614 266.598437)scale(0.1 -0.1)">
       <use xlink:href="#DejaVuSans-55"/>
       <use x="63.623047" xlink:href="#DejaVuSans-53"/>
       <use x="127.246094" xlink:href="#DejaVuSans-48"/>
      </g>
     </g>
    </g>
    <g id="xtick_5">
     <g id="line2d_5">
      <g>
       <use style="stroke:#000000;stroke-width:0.8;" x="238.309091" xlink:href="#m7db12623e5" y="252"/>
      </g>
     </g>
     <g id="text_5">
      <!-- 1000 -->
      <defs>
       <path d="M 12.40625 8.296875 
L 28.515625 8.296875 
L 28.515625 63.921875 
L 10.984375 60.40625 
L 10.984375 69.390625 
L 28.421875 72.90625 
L 38.28125 72.90625 
L 38.28125 8.296875 
L 54.390625 8.296875 
L 54.390625 0 
L 12.40625 0 
z
" id="DejaVuSans-49"/>
      </defs>
      <g transform="translate(225.584091 266.598437)scale(0.1 -0.1)">
       <use xlink:href="#DejaVuSans-49"/>
       <use x="63.623047" xlink:href="#DejaVuSans-48"/>
       <use x="127.246094" xlink:href="#DejaVuSans-48"/>
       <use x="190.869141" xlink:href="#DejaVuSans-48"/>
      </g>
     </g>
    </g>
    <g id="xtick_6">
     <g id="line2d_6">
      <g>
       <use style="stroke:#000000;stroke-width:0.8;" x="280.581818" xlink:href="#m7db12623e5" y="252"/>
      </g>
     </g>
     <g id="text_6">
      <!-- 1250 -->
      <g transform="translate(267.856818 266.598437)scale(0.1 -0.1)">
       <use xlink:href="#DejaVuSans-49"/>
       <use x="63.623047" xlink:href="#DejaVuSans-50"/>
       <use x="127.246094" xlink:href="#DejaVuSans-53"/>
       <use x="190.869141" xlink:href="#DejaVuSans-48"/>
      </g>
     </g>
    </g>
    <g id="xtick_7">
     <g id="line2d_7">
      <g>
       <use style="stroke:#000000;stroke-width:0.8;" x="322.854545" xlink:href="#m7db12623e5" y="252"/>
      </g>
     </g>
     <g id="text_7">
      <!-- 1500 -->
      <g transform="translate(310.129545 266.598437)scale(0.1 -0.1)">
       <use xlink:href="#DejaVuSans-49"/>
       <use x="63.623047" xlink:href="#DejaVuSans-53"/>
       <use x="127.246094" xlink:href="#DejaVuSans-48"/>
       <use x="190.869141" xlink:href="#DejaVuSans-48"/>
      </g>
     </g>
    </g>
    <g id="xtick_8">
     <g id="line2d_8">
      <g>
       <use style="stroke:#000000;stroke-width:0.8;" x="365.127273" xlink:href="#m7db12623e5" y="252"/>
      </g>
     </g>
     <g id="text_8">
      <!-- 1750 -->
      <g transform="translate(352.402273 266.598437)scale(0.1 -0.1)">
       <use xlink:href="#DejaVuSans-49"/>
       <use x="63.623047" xlink:href="#DejaVuSans-55"/>
       <use x="127.246094" xlink:href="#DejaVuSans-53"/>
       <use x="190.869141" xlink:href="#DejaVuSans-48"/>
      </g>
     </g>
    </g>
   </g>
   <g id="matplotlib.axis_2">
    <g id="ytick_1">
     <g id="line2d_9">
      <defs>
       <path d="M 0 0 
L -3.5 0 
" id="mf40c2b2df9" style="stroke:#000000;stroke-width:0.8;"/>
      </defs>
      <g>
       <use style="stroke:#000000;stroke-width:0.8;" x="54" xlink:href="#mf40c2b2df9" y="227.825455"/>
      </g>
     </g>
     <g id="text_9">
      <!-- 0 -->
      <g transform="translate(40.6375 231.624673)scale(0.1 -0.1)">
       <use xlink:href="#DejaVuSans-48"/>
      </g>
     </g>
    </g>
    <g id="ytick_2">
     <g id="line2d_10">
      <g>
       <use style="stroke:#000000;stroke-width:0.8;" x="54" xlink:href="#mf40c2b2df9" y="194.007273"/>
      </g>
     </g>
     <g id="text_10">
      <!-- 200 -->
      <g transform="translate(27.9125 197.806491)scale(0.1 -0.1)">
       <use xlink:href="#DejaVuSans-50"/>
       <use x="63.623047" xlink:href="#DejaVuSans-48"/>
       <use x="127.246094" xlink:href="#DejaVuSans-48"/>
      </g>
     </g>
    </g>
    <g id="ytick_3">
     <g id="line2d_11">
      <g>
       <use style="stroke:#000000;stroke-width:0.8;" x="54" xlink:href="#mf40c2b2df9" y="160.189091"/>
      </g>
     </g>
     <g id="text_11">
      <!-- 400 -->
      <defs>
       <path d="M 37.796875 64.3125 
L 12.890625 25.390625 
L 37.796875 25.390625 
z
M 35.203125 72.90625 
L 47.609375 72.90625 
L 47.609375 25.390625 
L 58.015625 25.390625 
L 58.015625 17.1875 
L 47.609375 17.1875 
L 47.609375 0 
L 37.796875 0 
L 37.796875 17.1875 
L 4.890625 17.1875 
L 4.890625 26.703125 
z
" id="DejaVuSans-52"/>
      </defs>
      <g transform="translate(27.9125 163.98831)scale(0.1 -0.1)">
       <use xlink:href="#DejaVuSans-52"/>
       <use x="63.623047" xlink:href="#DejaVuSans-48"/>
       <use x="127.246094" xlink:href="#DejaVuSans-48"/>
      </g>
     </g>
    </g>
    <g id="ytick_4">
     <g id="line2d_12">
      <g>
       <use style="stroke:#000000;stroke-width:0.8;" x="54" xlink:href="#mf40c2b2df9" y="126.370909"/>
      </g>
     </g>
     <g id="text_12">
      <!-- 600 -->
      <defs>
       <path d="M 33.015625 40.375 
Q 26.375 40.375 22.484375 35.828125 
Q 18.609375 31.296875 18.609375 23.390625 
Q 18.609375 15.53125 22.484375 10.953125 
Q 26.375 6.390625 33.015625 6.390625 
Q 39.65625 6.390625 43.53125 10.953125 
Q 47.40625 15.53125 47.40625 23.390625 
Q 47.40625 31.296875 43.53125 35.828125 
Q 39.65625 40.375 33.015625 40.375 
z
M 52.59375 71.296875 
L 52.59375 62.3125 
Q 48.875 64.0625 45.09375 64.984375 
Q 41.3125 65.921875 37.59375 65.921875 
Q 27.828125 65.921875 22.671875 59.328125 
Q 17.53125 52.734375 16.796875 39.40625 
Q 19.671875 43.65625 24.015625 45.921875 
Q 28.375 48.1875 33.59375 48.1875 
Q 44.578125 48.1875 50.953125 41.515625 
Q 57.328125 34.859375 57.328125 23.390625 
Q 57.328125 12.15625 50.6875 5.359375 
Q 44.046875 -1.421875 33.015625 -1.421875 
Q 20.359375 -1.421875 13.671875 8.265625 
Q 6.984375 17.96875 6.984375 36.375 
Q 6.984375 53.65625 15.1875 63.9375 
Q 23.390625 74.21875 37.203125 74.21875 
Q 40.921875 74.21875 44.703125 73.484375 
Q 48.484375 72.75 52.59375 71.296875 
z
" id="DejaVuSans-54"/>
      </defs>
      <g transform="translate(27.9125 130.170128)scale(0.1 -0.1)">
       <use xlink:href="#DejaVuSans-54"/>
       <use x="63.623047" xlink:href="#DejaVuSans-48"/>
       <use x="127.246094" xlink:href="#DejaVuSans-48"/>
      </g>
     </g>
    </g>
    <g id="ytick_5">
     <g id="line2d_13">
      <g>
       <use style="stroke:#000000;stroke-width:0.8;" x="54" xlink:href="#mf40c2b2df9" y="92.552727"/>
      </g>
     </g>
     <g id="text_13">
      <!-- 800 -->
      <defs>
       <path d="M 31.78125 34.625 
Q 24.75 34.625 20.71875 30.859375 
Q 16.703125 27.09375 16.703125 20.515625 
Q 16.703125 13.921875 20.71875 10.15625 
Q 24.75 6.390625 31.78125 6.390625 
Q 38.8125 6.390625 42.859375 10.171875 
Q 46.921875 13.96875 46.921875 20.515625 
Q 46.921875 27.09375 42.890625 30.859375 
Q 38.875 34.625 31.78125 34.625 
z
M 21.921875 38.8125 
Q 15.578125 40.375 12.03125 44.71875 
Q 8.5 49.078125 8.5 55.328125 
Q 8.5 64.0625 14.71875 69.140625 
Q 20.953125 74.21875 31.78125 74.21875 
Q 42.671875 74.21875 48.875 69.140625 
Q 55.078125 64.0625 55.078125 55.328125 
Q 55.078125 49.078125 51.53125 44.71875 
Q 48 40.375 41.703125 38.8125 
Q 48.828125 37.15625 52.796875 32.3125 
Q 56.78125 27.484375 56.78125 20.515625 
Q 56.78125 9.90625 50.3125 4.234375 
Q 43.84375 -1.421875 31.78125 -1.421875 
Q 19.734375 -1.421875 13.25 4.234375 
Q 6.78125 9.90625 6.78125 20.515625 
Q 6.78125 27.484375 10.78125 32.3125 
Q 14.796875 37.15625 21.921875 38.8125 
z
M 18.3125 54.390625 
Q 18.3125 48.734375 21.84375 45.5625 
Q 25.390625 42.390625 31.78125 42.390625 
Q 38.140625 42.390625 41.71875 45.5625 
Q 45.3125 48.734375 45.3125 54.390625 
Q 45.3125 60.0625 41.71875 63.234375 
Q 38.140625 66.40625 31.78125 66.40625 
Q 25.390625 66.40625 21.84375 63.234375 
Q 18.3125 60.0625 18.3125 54.390625 
z
" id="DejaVuSans-56"/>
      </defs>
      <g transform="translate(27.9125 96.351946)scale(0.1 -0.1)">
       <use xlink:href="#DejaVuSans-56"/>
       <use x="63.623047" xlink:href="#DejaVuSans-48"/>
       <use x="127.246094" xlink:href="#DejaVuSans-48"/>
      </g>
     </g>
    </g>
    <g id="ytick_6">
     <g id="line2d_14">
      <g>
       <use style="stroke:#000000;stroke-width:0.8;" x="54" xlink:href="#mf40c2b2df9" y="58.734545"/>
      </g>
     </g>
     <g id="text_14">
      <!-- 1000 -->
      <g transform="translate(21.55 62.533764)scale(0.1 -0.1)">
       <use xlink:href="#DejaVuSans-49"/>
       <use x="63.623047" xlink:href="#DejaVuSans-48"/>
       <use x="127.246094" xlink:href="#DejaVuSans-48"/>
       <use x="190.869141" xlink:href="#DejaVuSans-48"/>
      </g>
     </g>
    </g>
   </g>
   <g id="line2d_15">
    <path clip-path="url(#p56e06f3534)" d="M 69.218182 227.825455 
L 373.581818 227.825455 
L 373.581818 58.734545 
L 69.218182 58.734545 
L 69.218182 227.825455 
" style="fill:none;stroke:#000000;stroke-linecap:square;stroke-width:1.5;"/>
   </g>
   <g id="line2d_16">
    <path clip-path="url(#p56e06f3534)" d="M 69.218182 172.860638 
L 69.218182 227.825455 
L 174.907336 227.825455 
L 69.218182 172.860638 
" style="fill:none;stroke:#000000;stroke-dasharray:5.55,2.4;stroke-dashoffset:0;stroke-width:1.5;"/>
   </g>
   <g id="line2d_17">
    <path clip-path="url(#p56e06f3534)" d="M 105.040687 136.800432 
L 107.85789 170.606875 
L 145.608419 168.916553 
L 140.537452 132.292906 
L 105.040687 136.800432 
" style="fill:none;stroke:#000000;stroke-dasharray:5.55,2.4;stroke-dashoffset:0;stroke-width:1.5;"/>
   </g>
   <g id="line2d_18">
    <path clip-path="url(#p56e06f3534)" d="M 89.827787 58.734545 
L 88.700906 58.734545 
L 97.152516 91.725174 
L 207.412119 122.702872 
L 206.460017 144.125161 
L 276.890108 144.125161 
L 292.666448 58.734545 
L 117.436383 58.734545 
L 89.827787 58.734545 
" style="fill:none;stroke:#000000;stroke-dasharray:5.55,2.4;stroke-dashoffset:0;stroke-width:1.5;"/>
   </g>
   <g id="line2d_19">
    <path clip-path="url(#p56e06f3534)" d="M 321.105646 85.367748 
L 340.811925 65.635882 
L 334.083984 58.903636 
L 310.639615 82.353984 
L 349.966205 121.678901 
L 373.412727 98.236684 
L 367.744374 92.568331 
L 348.024465 112.286566 
L 321.105646 85.367748 
" style="fill:none;stroke:#ff0000;stroke-linecap:square;stroke-width:1.5;"/>
   </g>
   <g id="line2d_20">
    <path clip-path="url(#p56e06f3534)" d="M 294.888378 110.623367 
L 313.223144 89.610982 
L 306.057711 83.346409 
L 284.243371 108.320233 
L 326.125417 144.911545 
L 347.94245 119.945688 
L 341.905749 114.671345 
L 323.556467 135.671047 
L 294.888378 110.623367 
" style="fill:none;stroke:#ff0000;stroke-linecap:square;stroke-width:1.5;"/>
   </g>
   <g id="line2d_21">
    <path clip-path="url(#p56e06f3534)" d="M 328.97149 162.833352 
L 317.296979 137.507678 
L 308.649506 141.483798 
L 322.515614 171.605025 
L 373.037205 148.354247 
L 359.179469 118.23382 
L 351.897294 121.584996 
L 363.554294 146.918729 
L 328.97149 162.833352 
" style="fill:none;stroke:#ff0000;stroke-linecap:square;stroke-width:1.5;"/>
   </g>
   <g id="line2d_22">
    <path clip-path="url(#p56e06f3534)" d="M 326.877935 195.964462 
L 320.865209 168.733393 
L 311.5693 170.776526 
L 318.70197 203.15989 
L 373.016403 191.202791 
L 365.891742 158.821992 
L 358.062908 160.545303 
L 364.056808 187.780516 
L 326.877935 195.964462 
" style="fill:none;stroke:#ff0000;stroke-linecap:square;stroke-width:1.5;"/>
   </g>
   <g id="line2d_23">
    <path clip-path="url(#p56e06f3534)" d="M 274.956916 164.601167 
L 255.590905 144.535236 
L 248.736032 151.138193 
L 271.75113 175.009986 
L 311.792842 136.413469 
L 288.785912 112.539673 
L 283.014243 118.102792 
L 302.366376 138.1821 
L 274.956916 164.601167 
" style="fill:none;stroke:#ff0000;stroke-linecap:square;stroke-width:1.5;"/>
   </g>
   <g id="line2d_24">
    <path clip-path="url(#p56e06f3534)" d="M 315.008471 126.012547 
L 313.781593 125.600676 
L 297.206109 111.162752 
L 296.629811 110.003983 
L 297.041682 108.777105 
L 311.479606 92.201621 
L 312.638376 91.625323 
L 313.865253 92.037194 
L 330.440737 106.475118 
L 331.017035 107.633887 
L 330.605165 108.860765 
L 316.16724 125.436249 
L 315.008471 126.012547 
" style="fill:none;stroke:#ff0000;stroke-linecap:square;stroke-width:1.5;"/>
   </g>
   <g id="line2d_25">
    <path clip-path="url(#p56e06f3534)" d="M 357.404163 93.29086 
L 356.177286 92.87899 
L 339.601802 78.441065 
L 339.025504 77.282296 
L 339.437374 76.055418 
L 353.875299 59.479934 
L 355.034068 58.903636 
L 356.260945 59.315507 
L 372.836429 73.753431 
L 373.412727 74.912201 
L 373.000857 76.139078 
L 358.562932 92.714562 
L 357.404163 93.29086 
" style="fill:none;stroke:#ff0000;stroke-linecap:square;stroke-width:1.5;"/>
   </g>
   <g id="line2d_26">
    <path clip-path="url(#p56e06f3534)" d="M 349.921843 223.328381 
L 348.692697 222.923329 
L 348.109976 221.767776 
L 346.476769 199.846714 
L 346.881821 198.617569 
L 348.037374 198.034847 
L 369.958436 196.401641 
L 371.187581 196.806692 
L 371.770303 197.962245 
L 373.403509 219.883307 
L 372.998457 221.112453 
L 371.842905 221.695174 
L 349.921843 223.328381 
" style="fill:none;stroke:#ff0000;stroke-linecap:square;stroke-width:1.5;"/>
   </g>
   <g id="line2d_27">
    <path clip-path="url(#p56e06f3534)" d="M 147.831408 132.752096 
L 126.610828 127.017349 
L 125.585786 126.227315 
L 125.41961 124.943862 
L 131.154357 103.723282 
L 131.944391 102.69824 
L 133.227844 102.532064 
L 154.448424 108.266811 
L 155.473466 109.056845 
L 155.639642 110.340298 
L 149.904895 131.560878 
L 149.114861 132.58592 
L 147.831408 132.752096 
" style="fill:none;stroke:#ff0000;stroke-linecap:square;stroke-width:1.5;"/>
   </g>
   <g id="line2d_28">
    <path clip-path="url(#p56e06f3534)" d="M 299.006501 88.566319 
L 297.361226 88.541626 
L 295.85002 87.890628 
L 294.701854 86.711961 
L 294.090691 85.184212 
L 294.303326 58.998415 
L 319.66537 59.282657 
L 319.646421 60.973459 
L 301.719584 86.81729 
L 300.536562 87.960967 
L 299.006501 88.566319 
" style="fill:none;stroke:#ff0000;stroke-linecap:square;stroke-width:1.5;"/>
   </g>
   <g id="line2d_29">
    <path clip-path="url(#p56e06f3534)" d="M 350.52072 152.407124 
L 325.31151 149.612533 
L 325.497816 147.931919 
L 345.895982 123.990535 
L 347.186453 122.969643 
L 348.768944 122.518797 
L 350.403685 122.706309 
L 351.842989 123.50377 
L 352.868781 124.790353 
L 353.325637 126.371118 
L 350.52072 152.407124 
" style="fill:none;stroke:#ff0000;stroke-linecap:square;stroke-width:1.5;"/>
   </g>
   <g id="line2d_30">
    <path clip-path="url(#p56e06f3534)" d="M 337.832167 192.740198 
L 337.441434 191.095053 
L 348.5822 161.681478 
L 349.453336 160.285534 
L 350.791455 159.327946 
L 352.393815 158.953801 
L 354.017634 159.219792 
L 355.41688 160.085616 
L 356.379547 161.420086 
L 362.509339 186.879207 
L 337.832167 192.740198 
" style="fill:none;stroke:#ff0000;stroke-linecap:square;stroke-width:1.5;"/>
   </g>
   <g id="line2d_31">
    <path clip-path="url(#p56e06f3534)" d="M 317.281846 227.275432 
L 315.663042 226.980457 
L 314.279496 226.089761 
L 313.340835 224.738297 
L 312.989282 223.130829 
L 313.278102 221.510914 
L 314.163532 220.123994 
L 335.568007 205.037918 
L 350.115875 225.814674 
L 348.730758 226.784532 
L 317.281846 227.275432 
" style="fill:none;stroke:#ff0000;stroke-linecap:square;stroke-width:1.5;"/>
   </g>
   <g id="line2d_32">
    <path clip-path="url(#p56e06f3534)" d="M 91.447458 95.932216 
L 89.802 95.929088 
L 88.282393 95.297955 
L 69.708557 76.838436 
L 87.643357 58.903636 
L 88.83901 60.09929 
L 94.783671 90.985145 
L 94.774289 92.630578 
L 94.137384 94.147776 
L 92.969454 95.306862 
L 91.447458 95.932216 
" style="fill:none;stroke:#ff0000;stroke-linecap:square;stroke-width:1.5;"/>
   </g>
   <g id="line2d_33">
    <path clip-path="url(#p56e06f3534)" d="M 100.793604 117.80063 
L 96.435366 92.814237 
L 98.101126 92.523688 
L 126.787295 105.422476 
L 128.128015 106.376419 
L 129.002946 107.769988 
L 129.279524 109.392038 
L 128.91584 110.996804 
L 127.966999 112.341141 
L 126.576767 113.221362 
L 100.793604 117.80063 
" style="fill:none;stroke:#ff0000;stroke-linecap:square;stroke-width:1.5;"/>
   </g>
   <g id="line2d_34">
    <path clip-path="url(#p56e06f3534)" d="M 74.519938 115.118796 
L 94.312666 111.450788 
L 95.99173 110.344667 
L 96.634472 109.565142 
L 97.400322 107.706048 
L 97.493148 106.699985 
L 97.080398 104.732146 
L 95.936721 103.078412 
L 77.156684 84.995639 
L 74.474296 87.787299 
L 91.36184 104.049321 
L 92.987685 103.91435 
L 94.422225 104.672871 
L 95.219602 106.086183 
L 95.261077 107.175436 
L 94.550025 108.671516 
L 93.11581 109.53345 
L 91.992669 109.589955 
L 90.479188 108.876313 
L 89.617254 107.442098 
L 89.695426 105.761794 
L 72.808726 89.506454 
L 70.592523 91.818386 
L 80.145404 101.017424 
L 80.660792 102.216598 
L 80.376449 103.16532 
L 79.607624 103.789688 
L 73.733221 104.917715 
L 71.892419 105.654052 
L 70.473519 107.038775 
L 69.993283 107.911468 
L 69.582808 109.85112 
L 69.692169 110.971027 
L 70.412148 112.786415 
L 71.019549 113.556828 
L 72.616803 114.680562 
L 74.519938 115.118796 
" style="fill:none;stroke:#ff0000;stroke-linecap:square;stroke-width:1.5;"/>
   </g>
   <g id="line2d_35">
    <path clip-path="url(#p56e06f3534)" d="M 90.282792 116.86765 
L 90.984063 136.985169 
L 91.829772 138.809322 
L 92.505698 139.560255 
L 94.231125 140.592562 
L 95.212406 140.833118 
L 97.219643 140.715855 
L 99.024298 139.829259 
L 119.685022 123.929228 
L 117.320644 120.863565 
L 98.740473 135.161106 
L 98.633573 136.789038 
L 97.671287 138.095662 
L 96.155613 138.675312 
L 95.0722 138.555282 
L 93.697695 137.630844 
L 93.057287 136.084952 
L 93.167463 134.9658 
L 94.097036 133.574468 
L 95.642927 132.934061 
L 97.293205 133.259812 
L 115.866644 118.962118 
L 113.907796 116.428445 
L 103.397436 124.516224 
L 102.135239 124.848645 
L 101.238985 124.427155 
L 100.735153 123.574465 
L 100.488074 117.597844 
L 100.031999 115.668404 
L 98.872284 114.060362 
L 98.080188 113.456374 
L 96.222544 112.763626 
L 95.098776 112.706203 
L 93.19689 113.149857 
L 92.345137 113.636674 
L 90.997595 115.050226 
L 90.282792 116.86765 
" style="fill:none;stroke:#ff0000;stroke-linecap:square;stroke-width:1.5;"/>
   </g>
   <g id="line2d_36">
    <path clip-path="url(#p56e06f3534)" d="M 296.309395 203.435373 
L 296.055447 223.563509 
L 296.81366 225.425731 
L 297.453199 226.207887 
L 299.127708 227.32089 
L 300.096471 227.607729 
L 302.107012 227.585828 
L 303.951697 226.785848 
L 325.343497 211.883922 
L 323.127224 208.709539 
L 303.889661 222.109486 
L 303.705648 223.730513 
L 302.682456 224.990012 
L 301.140989 225.497102 
L 300.06449 225.325807 
L 298.73539 224.337199 
L 298.169045 222.762666 
L 298.332193 221.650001 
L 299.326727 220.304338 
L 300.901261 219.737993 
L 302.534226 220.141671 
L 321.765072 206.74125 
L 319.928633 204.117498 
L 309.046402 211.697529 
L 307.769856 211.969694 
L 306.894608 211.506158 
L 306.431796 210.630525 
L 306.468544 204.648912 
L 306.10452 202.700007 
L 305.022401 201.038756 
L 304.259851 200.397869 
L 302.437165 199.617769 
L 301.317387 199.507096 
L 299.396594 199.86002 
L 298.522704 200.30588 
L 297.109616 201.653908 
L 296.309395 203.435373 
" style="fill:none;stroke:#ff0000;stroke-linecap:square;stroke-width:1.5;"/>
   </g>
   <g id="line2d_37">
    <path clip-path="url(#p56e06f3534)" d="M 82.76236 161.901556 
L 100.102284 172.125714 
L 102.095058 172.393311 
L 103.091626 172.227089 
L 104.889672 171.327206 
L 105.620057 170.629125 
L 106.600301 168.873599 
L 106.822939 166.875284 
L 104.523675 140.906266 
L 100.667613 141.251745 
L 102.734207 164.604938 
L 104.049393 165.570274 
L 104.633788 167.084125 
L 104.307696 168.673755 
L 103.624029 169.522749 
L 102.105598 170.184729 
L 100.457824 169.893621 
L 99.573398 169.19905 
L 98.89999 167.667243 
L 99.191098 166.019469 
L 100.352981 164.803098 
L 98.282639 141.455499 
L 95.093164 141.745044 
L 96.262187 154.955389 
L 95.863907 156.198377 
L 95.026672 156.72749 
L 94.036824 156.693899 
L 88.864558 153.689117 
L 86.992479 153.036381 
L 85.013114 153.149736 
L 84.077994 153.492912 
L 82.49518 154.686829 
L 81.842607 155.603509 
L 81.194212 157.445677 
L 81.146777 158.425587 
L 81.614213 160.321768 
L 82.76236 161.901556 
" style="fill:none;stroke:#ff0000;stroke-linecap:square;stroke-width:1.5;"/>
   </g>
   <g id="line2d_38">
    <path clip-path="url(#p56e06f3534)" d="M 287.451103 167.158427 
L 303.514012 179.290586 
L 305.463354 179.78336 
L 306.472367 179.731698 
L 308.361188 179.042414 
L 309.166313 178.432042 
L 310.340084 176.799556 
L 310.788823 174.839589 
L 311.461614 148.777667 
L 307.591293 148.681807 
L 306.98521 172.118426 
L 308.181918 173.227243 
L 308.590129 174.797793 
L 308.085147 176.339951 
L 307.309252 177.105574 
L 305.725317 177.590343 
L 304.121409 177.113497 
L 303.321827 176.322733 
L 302.827227 174.724209 
L 303.304073 173.120301 
L 304.596908 172.044146 
L 305.19863 148.612658 
L 301.996931 148.537134 
L 301.654084 161.79467 
L 301.116855 162.984221 
L 300.224815 163.414557 
L 299.24523 163.26847 
L 294.448762 159.694264 
L 292.663187 158.8326 
L 290.683789 158.719827 
L 289.715674 158.954288 
L 288.007203 159.960204 
L 287.254493 160.796613 
L 286.400546 162.552966 
L 286.241837 163.521101 
L 286.490314 165.458175 
L 287.451103 167.158427 
" style="fill:none;stroke:#ff0000;stroke-linecap:square;stroke-width:1.5;"/>
   </g>
   <g id="line2d_39">
    <path clip-path="url(#p56e06f3534)" d="M 293.564129 201.110599 
L 312.324552 193.813142 
L 313.767681 192.413092 
L 314.253649 191.527309 
L 314.659083 189.557948 
L 314.562518 188.552238 
L 313.789763 186.696004 
L 312.357546 185.284768 
L 290.532697 171.024599 
L 288.418442 174.267822 
L 308.044243 187.092424 
L 309.616333 186.656395 
L 311.167231 187.133863 
L 312.214363 188.37353 
L 312.458396 189.435905 
L 312.039048 191.038402 
L 310.790894 192.152858 
L 309.698031 192.417981 
L 308.077955 191.999336 
L 306.963499 190.751182 
L 306.726704 189.085811 
L 287.102979 176.267616 
L 285.357187 178.952536 
L 296.459035 186.207107 
L 297.189168 187.289026 
L 297.08688 188.274147 
L 296.448088 189.03103 
L 290.887418 191.235571 
L 289.21638 192.302518 
L 288.080838 193.92772 
L 287.77191 194.874705 
L 287.730642 196.856885 
L 288.047088 197.936706 
L 289.093221 199.58583 
L 289.833732 200.229349 
L 291.612645 201.035245 
L 293.564129 201.110599 
" style="fill:none;stroke:#ff0000;stroke-linecap:square;stroke-width:1.5;"/>
   </g>
   <g id="line2d_40">
    <path clip-path="url(#p56e06f3534)" d="M 261.619627 190.536532 
L 277.990807 202.24938 
L 279.952237 202.691595 
L 280.959577 202.613866 
L 282.829948 201.875982 
L 283.619024 201.245 
L 284.7502 199.582715 
L 285.14812 197.611803 
L 285.146936 171.541198 
L 281.275431 171.545425 
L 281.275431 194.98988 
L 282.500405 196.067389 
L 282.949081 197.626861 
L 282.484135 199.181559 
L 281.728291 199.966984 
L 280.157418 200.492539 
L 278.541719 200.057316 
L 277.721961 199.287487 
L 277.186202 197.702284 
L 277.621425 196.086585 
L 278.886007 194.977367 
L 278.88178 171.538154 
L 275.679198 171.545425 
L 275.679198 184.807394 
L 275.172901 186.010435 
L 274.292284 186.463689 
L 273.30925 186.342975 
L 268.421985 182.893961 
L 266.614731 182.078745 
L 264.633079 182.017181 
L 263.671349 182.276592 
L 261.989454 183.326339 
L 261.258618 184.181927 
L 260.450362 185.959769 
L 260.316734 186.931683 
L 260.615205 188.861687 
L 261.619627 190.536532 
" style="fill:none;stroke:#ff0000;stroke-linecap:square;stroke-width:1.5;"/>
   </g>
   <g id="line2d_41">
    <path clip-path="url(#p56e06f3534)" d="M 276.766599 148.873843 
L 282.307525 118.89836 
L 300.502432 136.569224 
L 276.766599 148.873843 
" style="fill:none;stroke:#ff0000;stroke-linecap:square;stroke-width:1.5;"/>
   </g>
   <g id="line2d_42">
    <path clip-path="url(#p56e06f3534)" d="M 241.542938 169.816992 
L 224.571631 144.494944 
L 249.93519 144.432677 
L 241.542938 169.816992 
" style="fill:none;stroke:#ff0000;stroke-linecap:square;stroke-width:1.5;"/>
   </g>
   <g id="line2d_43">
    <path clip-path="url(#p56e06f3534)" d="M 238.593555 175.879063 
L 250.605279 153.540027 
L 268.940407 172.998096 
L 238.593555 175.879063 
" style="fill:none;stroke:#ff0000;stroke-linecap:square;stroke-width:1.5;"/>
   </g>
   <g id="line2d_44">
    <path clip-path="url(#p56e06f3534)" d="M 296.14316 226.616816 
L 270.078602 220.664321 
L 293.681039 201.372965 
L 296.14316 226.616816 
" style="fill:none;stroke:#ff0000;stroke-linecap:square;stroke-width:1.5;"/>
   </g>
   <g id="line2d_45">
    <path clip-path="url(#p56e06f3534)" d="M 249.493074 200.10961 
L 239.924855 176.619969 
L 266.603902 174.88163 
L 249.493074 200.10961 
" style="fill:none;stroke:#ff0000;stroke-linecap:square;stroke-width:1.5;"/>
   </g>
   <g id="patch_33">
    <path d="M 54 252 
L 54 34.56 
" style="fill:none;stroke:#000000;stroke-linecap:square;stroke-linejoin:miter;stroke-width:0.8;"/>
   </g>
   <g id="patch_34">
    <path d="M 388.8 252 
L 388.8 34.56 
" style="fill:none;stroke:#000000;stroke-linecap:square;stroke-linejoin:miter;stroke-width:0.8;"/>
   </g>
   <g id="patch_35">
    <path d="M 54 252 
L 388.8 252 
" style="fill:none;stroke:#000000;stroke-linecap:square;stroke-linejoin:miter;stroke-width:0.8;"/>
   </g>
   <g id="patch_36">
    <path d="M 54 34.56 
L 388.8 34.56 
" style="fill:none;stroke:#000000;stroke-linecap:square;stroke-linejoin:miter;stroke-width:0.8;"/>
   </g>
  </g>
 </g>
 <defs>
  <clipPath id="p56e06f3534">
   <rect height="217.44" width="334.8" x="54" y="34.56"/>
  </clipPath>
 </defs>
</svg>
