<?xml version="1.0" encoding="utf-8" standalone="no"?>
<!DOCTYPE svg PUBLIC "-//W3C//DTD SVG 1.1//EN"
  "http://www.w3.org/Graphics/SVG/1.1/DTD/svg11.dtd">
<!-- Created with matplotlib (https://matplotlib.org/) -->
<svg height="288pt" version="1.1" viewBox="0 0 432 288" width="432pt" xmlns="http://www.w3.org/2000/svg" xmlns:xlink="http://www.w3.org/1999/xlink">
 <defs>
  <style type="text/css">
*{stroke-linecap:butt;stroke-linejoin:round;}
  </style>
 </defs>
 <g id="figure_1">
  <g id="patch_1">
   <path d="M 0 288 
L 432 288 
L 432 0 
L 0 0 
z
" style="fill:#ffffff;"/>
  </g>
  <g id="axes_1">
   <g id="patch_2">
    <path d="M 54 252 
L 388.8 252 
L 388.8 34.56 
L 54 34.56 
z
" style="fill:#ffffff;"/>
   </g>
   <g id="patch_3">
    <path clip-path="url(#pe3e22d2bba)" d="M 69.218182 172.860638 
L 69.218182 227.825455 
L 174.907336 227.825455 
z
" style="fill:#aaaaaa;"/>
   </g>
   <g id="patch_4">
    <path clip-path="url(#pe3e22d2bba)" d="M 105.040687 136.800432 
L 107.85789 170.606875 
L 145.608419 168.916553 
L 140.537452 132.292906 
z
" style="fill:#aaaaaa;"/>
   </g>
   <g id="patch_5">
    <path clip-path="url(#pe3e22d2bba)" d="M 89.827787 58.734545 
L 88.700906 58.734545 
L 97.152516 91.725174 
L 207.412119 122.702872 
L 206.460017 144.125161 
L 276.890108 144.125161 
L 292.666448 58.734545 
L 117.436383 58.734545 
z
" style="fill:#aaaaaa;"/>
   </g>
   <g id="patch_6">
    <path clip-path="url(#pe3e22d2bba)" d="M 97.277296 162.996851 
L 69.390316 163.014943 
L 69.387273 172.532733 
L 102.546845 172.528505 
L 102.545662 116.913491 
L 69.390316 116.910447 
L 69.390316 124.926709 
L 97.277296 124.927893 
z
" style="fill:#f6929c;"/>
   </g>
   <g id="patch_7">
    <path clip-path="url(#pe3e22d2bba)" d="M 149.117423 169.520901 
L 121.313162 171.667299 
L 122.036533 181.15756 
L 155.099066 178.622578 
L 150.853301 123.169865 
L 117.794427 125.697275 
L 118.406235 133.690156 
L 146.211968 131.562978 
z
" style="fill:#f6929c;"/>
   </g>
   <g id="patch_8">
    <path clip-path="url(#pe3e22d2bba)" d="M 177.51594 181.868419 
L 149.712359 179.713226 
L 148.967604 189.201833 
L 182.026663 191.781742 
L 186.359557 136.33577 
L 153.30528 133.748941 
L 152.680573 141.740824 
L 180.482652 143.915235 
z
" style="fill:#f6929c;"/>
   </g>
   <g id="patch_9">
    <path clip-path="url(#pe3e22d2bba)" d="M 69.387273 116.732727 
L 69.387273 91.369091 
L 94.750909 91.369091 
L 94.750909 116.732727 
z
" style="fill:#f6929c;"/>
   </g>
   <g id="patch_10">
    <path clip-path="url(#pe3e22d2bba)" d="M 69.387273 162.741749 
L 69.387273 137.378113 
L 94.750909 137.378113 
L 94.750909 162.741749 
z
" style="fill:#f6929c;"/>
   </g>
   <g id="patch_11">
    <path clip-path="url(#pe3e22d2bba)" d="M 171.366154 224.503111 
L 148.531658 213.462286 
L 159.572483 190.62779 
L 182.406979 201.668615 
z
" style="fill:#f6929c;"/>
   </g>
   <g id="patch_12">
    <path clip-path="url(#pe3e22d2bba)" d="M 205.301675 227.325412 
L 180.12202 224.275978 
L 183.171453 199.096324 
L 208.351108 202.145757 
z
" style="fill:#f6929c;"/>
   </g>
   <g id="patch_13">
    <path clip-path="url(#pe3e22d2bba)" d="M 207.239721 200.901729 
L 181.979914 198.609087 
L 184.272555 173.349281 
L 209.532362 175.641922 
z
" style="fill:#f6929c;"/>
   </g>
   <g id="patch_14">
    <path clip-path="url(#pe3e22d2bba)" d="M 208.935906 175.228004 
L 183.680328 172.889237 
L 186.019095 147.633659 
L 211.274673 149.972426 
z
" style="fill:#f6929c;"/>
   </g>
   <g id="patch_15">
    <path clip-path="url(#pe3e22d2bba)" d="M 231.657539 227.656364 
L 206.401961 225.317597 
L 208.740728 200.062019 
L 233.996306 202.400786 
z
" style="fill:#f6929c;"/>
   </g>
   <g id="patch_16">
    <path clip-path="url(#pe3e22d2bba)" d="M 122.742431 124.913212 
L 96.699323 107.277125 
L 95.542461 106.106994 
L 94.92 104.583813 
L 94.926253 102.938364 
L 95.560275 101.419958 
L 96.726001 100.258655 
L 98.246804 99.63041 
L 124.43334 99.549576 
L 124.43334 124.913212 
z
" style="fill:#f6929c;"/>
   </g>
   <g id="patch_17">
    <path clip-path="url(#pe3e22d2bba)" d="M 155.944738 131.239171 
L 147.9606 107.16496 
L 149.565548 106.632685 
L 179.836294 115.174169 
L 181.302686 115.920649 
L 182.37298 117.170453 
L 182.88501 118.734219 
L 182.761195 120.375015 
L 182.020294 121.844235 
L 180.774568 122.919271 
z
" style="fill:#f6929c;"/>
   </g>
   <g id="patch_18">
    <path clip-path="url(#pe3e22d2bba)" d="M 117.967994 198.016999 
L 90.487486 182.716778 
L 89.233083 181.651879 
L 88.480293 180.188717 
L 88.343174 178.548979 
L 88.842505 176.981111 
L 89.902629 175.722669 
L 91.36292 174.964323 
L 117.442853 172.602486 
L 119.652474 197.869691 
z
" style="fill:#f6929c;"/>
   </g>
   <g id="patch_19">
    <path clip-path="url(#pe3e22d2bba)" d="M 148.227733 204.758421 
L 120.94254 189.11255 
L 119.701678 188.031903 
L 118.967417 186.559354 
L 118.851006 184.918017 
L 119.370088 183.356577 
L 120.446012 182.111615 
L 121.915758 181.371762 
L 148.023426 179.339305 
L 149.913939 204.632387 
z
" style="fill:#f6929c;"/>
   </g>
   <g id="patch_20">
    <path clip-path="url(#pe3e22d2bba)" d="M 159.602847 173.595906 
L 157.957398 173.589653 
L 156.438992 172.955631 
L 155.277689 171.789905 
L 154.649444 170.269101 
L 154.56861 144.082565 
L 179.932246 144.082565 
L 179.932246 145.773475 
L 162.296159 171.816582 
L 161.126028 172.973445 
z
" style="fill:#f6929c;"/>
   </g>
   <g id="patch_21">
    <path clip-path="url(#pe3e22d2bba)" d="M 233.263436 201.82229 
L 208.043814 199.123271 
L 208.223748 197.441962 
L 228.531022 173.423435 
L 229.817614 172.397658 
L 231.398385 171.940817 
L 233.033825 172.122132 
L 234.476142 172.914132 
L 235.506802 174.196817 
L 235.969647 175.775839 
z
" style="fill:#f6929c;"/>
   </g>
   <g id="patch_22">
    <path clip-path="url(#pe3e22d2bba)" d="M 214.862229 187.279989 
L 213.219173 187.191061 
L 211.734544 186.481542 
L 210.633285 185.258934 
L 210.082253 183.708483 
L 211.317374 157.550966 
L 236.648969 158.825469 
L 236.564002 160.514242 
L 217.641548 185.63825 
L 216.414764 186.734853 
z
" style="fill:#f6929c;"/>
   </g>
   <g id="patch_23">
    <path clip-path="url(#pe3e22d2bba)" d="M 69.662772 91.000634 
L 69.429444 64.266032 
L 93.653915 82.770258 
z
" style="fill:#f6929c;"/>
   </g>
   <g id="patch_24">
    <path clip-path="url(#pe3e22d2bba)" d="M 199.690496 148.722706 
L 180.989766 124.649607 
L 206.286863 122.813608 
z
" style="fill:#f6929c;"/>
   </g>
   <g id="patch_25">
    <path clip-path="url(#pe3e22d2bba)" d="M 245.216213 170.012302 
L 227.829555 144.973621 
L 253.188638 144.493019 
z
" style="fill:#f6929c;"/>
   </g>
   <g id="patch_26">
    <path clip-path="url(#pe3e22d2bba)" d="M 232.981242 225.532739 
L 234.479769 200.213409 
L 259.29959 210.151713 
z
" style="fill:#f6929c;"/>
   </g>
   <g id="patch_27">
    <path clip-path="url(#pe3e22d2bba)" d="M 234.175904 199.94013 
L 236.858063 174.71871 
L 261.185431 185.808009 
z
" style="fill:#f6929c;"/>
   </g>
   <g id="patch_28">
    <path clip-path="url(#pe3e22d2bba)" d="M 261.910902 185.283707 
L 237.405628 174.593294 
L 264.180692 160.021837 
z
" style="fill:#f6929c;"/>
   </g>
   <g id="patch_29">
    <path clip-path="url(#pe3e22d2bba)" d="M 260.494277 210.459464 
L 235.989003 199.769051 
L 262.764067 185.197594 
z
" style="fill:#f6929c;"/>
   </g>
   <g id="patch_30">
    <path clip-path="url(#pe3e22d2bba)" d="M 277.34291 227.574256 
L 270.591101 227.116571 
L 263.86507 226.41735 
L 260.885594 220.341387 
L 258.128055 214.167033 
L 261.900229 208.548698 
L 265.868678 203.073189 
L 272.620487 203.530875 
L 279.346519 204.230096 
L 282.325994 210.306058 
L 285.083533 216.480413 
L 281.311359 222.098748 
z
" style="fill:#f6929c;"/>
   </g>
   <g id="patch_31">
    <path clip-path="url(#pe3e22d2bba)" d="M 273.478233 203.242002 
L 267.840934 199.498279 
L 262.345648 195.557657 
L 262.769109 188.80372 
L 263.434088 182.074115 
L 269.495015 179.06387 
L 275.655507 176.275189 
L 281.292806 180.018911 
L 286.788092 183.959533 
L 286.364631 190.71347 
L 285.699652 197.443075 
L 279.638726 200.45332 
z
" style="fill:#f6929c;"/>
   </g>
   <g id="patch_32">
    <path clip-path="url(#pe3e22d2bba)" d="M 279.389193 170.427207 
L 272.822209 168.793282 
L 266.322693 166.92618 
L 264.454238 160.421929 
L 262.821665 153.85968 
L 267.520194 148.989524 
L 272.3868 144.294545 
L 278.953783 145.928471 
L 285.4533 147.795573 
L 287.321754 154.299824 
L 288.954327 160.862073 
L 284.255798 165.732229 
z
" style="fill:#f6929c;"/>
   </g>
   <g id="patch_33">
    <path clip-path="url(#pe3e22d2bba)" d="M 288.306205 150.004617 
L 283.06136 145.72838 
L 277.977074 141.27005 
L 279.057937 134.589726 
L 280.376788 127.9572 
L 286.702663 125.553099 
L 293.105997 123.379225 
L 298.350841 127.655462 
L 303.435127 132.113792 
L 302.354265 138.794116 
L 301.035414 145.426642 
L 294.709538 147.830743 
z
" style="fill:#f6929c;"/>
   </g>
   <g id="patch_34">
    <path clip-path="url(#pe3e22d2bba)" d="M 296.567371 186.535967 
L 290.206856 184.225377 
L 283.937782 181.689929 
L 282.758582 175.026154 
L 281.82003 168.329325 
L 287.001328 163.976308 
L 292.331495 159.81506 
L 298.692011 162.125651 
L 304.961084 164.661099 
L 306.140284 171.324874 
L 307.078837 178.021703 
L 301.897539 182.374719 
z
" style="fill:#f6929c;"/>
   </g>
   <g id="patch_35">
    <path clip-path="url(#pe3e22d2bba)" d="M 297.249423 217.698167 
L 290.739805 215.848881 
L 284.305296 213.768766 
L 282.652036 207.206516 
L 281.236439 200.594066 
L 286.092792 195.88127 
L 291.111361 191.349093 
L 297.620979 193.198379 
L 304.055488 195.278493 
L 305.708748 201.840744 
L 307.124344 208.453194 
L 302.267992 213.165989 
z
" style="fill:#f6929c;"/>
   </g>
   <g id="patch_36">
    <path clip-path="url(#pe3e22d2bba)" d="M 292.182118 123.167266 
L 287.370326 118.408983 
L 282.735773 113.484799 
L 284.45063 106.938483 
L 286.397813 100.462507 
L 292.92463 98.674476 
L 299.50653 97.123025 
L 304.318322 101.881308 
L 308.952874 106.805492 
L 307.238018 113.351808 
L 305.290835 119.827784 
L 298.764018 121.615815 
z
" style="fill:#f6929c;"/>
   </g>
   <g id="matplotlib.axis_1">
    <g id="xtick_1">
     <g id="line2d_1">
      <defs>
       <path d="M 0 0 
L 0 3.5 
" id="m905148d263" style="stroke:#000000;stroke-width:0.8;"/>
      </defs>
      <g>
       <use style="stroke:#000000;stroke-width:0.8;" x="69.218182" xlink:href="#m905148d263" y="252"/>
      </g>
     </g>
     <g id="text_1">
      <!-- 0 -->
      <defs>
       <path d="M 31.78125 66.40625 
Q 24.171875 66.40625 20.328125 58.90625 
Q 16.5 51.421875 16.5 36.375 
Q 16.5 21.390625 20.328125 13.890625 
Q 24.171875 6.390625 31.78125 6.390625 
Q 39.453125 6.390625 43.28125 13.890625 
Q 47.125 21.390625 47.125 36.375 
Q 47.125 51.421875 43.28125 58.90625 
Q 39.453125 66.40625 31.78125 66.40625 
z
M 31.78125 74.21875 
Q 44.046875 74.21875 50.515625 64.515625 
Q 56.984375 54.828125 56.984375 36.375 
Q 56.984375 17.96875 50.515625 8.265625 
Q 44.046875 -1.421875 31.78125 -1.421875 
Q 19.53125 -1.421875 13.0625 8.265625 
Q 6.59375 17.96875 6.59375 36.375 
Q 6.59375 54.828125 13.0625 64.515625 
Q 19.53125 74.21875 31.78125 74.21875 
z
" id="DejaVuSans-48"/>
      </defs>
      <g transform="translate(66.036932 266.598437)scale(0.1 -0.1)">
       <use xlink:href="#DejaVuSans-48"/>
      </g>
     </g>
    </g>
    <g id="xtick_2">
     <g id="line2d_2">
      <g>
       <use style="stroke:#000000;stroke-width:0.8;" x="111.490909" xlink:href="#m905148d263" y="252"/>
      </g>
     </g>
     <g id="text_2">
      <!-- 250 -->
      <defs>
       <path d="M 19.1875 8.296875 
L 53.609375 8.296875 
L 53.609375 0 
L 7.328125 0 
L 7.328125 8.296875 
Q 12.9375 14.109375 22.625 23.890625 
Q 32.328125 33.6875 34.8125 36.53125 
Q 39.546875 41.84375 41.421875 45.53125 
Q 43.3125 49.21875 43.3125 52.78125 
Q 43.3125 58.59375 39.234375 62.25 
Q 35.15625 65.921875 28.609375 65.921875 
Q 23.96875 65.921875 18.8125 64.3125 
Q 13.671875 62.703125 7.8125 59.421875 
L 7.8125 69.390625 
Q 13.765625 71.78125 18.9375 73 
Q 24.125 74.21875 28.421875 74.21875 
Q 39.75 74.21875 46.484375 68.546875 
Q 53.21875 62.890625 53.21875 53.421875 
Q 53.21875 48.921875 51.53125 44.890625 
Q 49.859375 40.875 45.40625 35.40625 
Q 44.1875 33.984375 37.640625 27.21875 
Q 31.109375 20.453125 19.1875 8.296875 
z
" id="DejaVuSans-50"/>
       <path d="M 10.796875 72.90625 
L 49.515625 72.90625 
L 49.515625 64.59375 
L 19.828125 64.59375 
L 19.828125 46.734375 
Q 21.96875 47.46875 24.109375 47.828125 
Q 26.265625 48.1875 28.421875 48.1875 
Q 40.625 48.1875 47.75 41.5 
Q 54.890625 34.8125 54.890625 23.390625 
Q 54.890625 11.625 47.5625 5.09375 
Q 40.234375 -1.421875 26.90625 -1.421875 
Q 22.3125 -1.421875 17.546875 -0.640625 
Q 12.796875 0.140625 7.71875 1.703125 
L 7.71875 11.625 
Q 12.109375 9.234375 16.796875 8.0625 
Q 21.484375 6.890625 26.703125 6.890625 
Q 35.15625 6.890625 40.078125 11.328125 
Q 45.015625 15.765625 45.015625 23.390625 
Q 45.015625 31 40.078125 35.4375 
Q 35.15625 39.890625 26.703125 39.890625 
Q 22.75 39.890625 18.8125 39.015625 
Q 14.890625 38.140625 10.796875 36.28125 
z
" id="DejaVuSans-53"/>
      </defs>
      <g transform="translate(101.947159 266.598437)scale(0.1 -0.1)">
       <use xlink:href="#DejaVuSans-50"/>
       <use x="63.623047" xlink:href="#DejaVuSans-53"/>
       <use x="127.246094" xlink:href="#DejaVuSans-48"/>
      </g>
     </g>
    </g>
    <g id="xtick_3">
     <g id="line2d_3">
      <g>
       <use style="stroke:#000000;stroke-width:0.8;" x="153.763636" xlink:href="#m905148d263" y="252"/>
      </g>
     </g>
     <g id="text_3">
      <!-- 500 -->
      <g transform="translate(144.219886 266.598437)scale(0.1 -0.1)">
       <use xlink:href="#DejaVuSans-53"/>
       <use x="63.623047" xlink:href="#DejaVuSans-48"/>
       <use x="127.246094" xlink:href="#DejaVuSans-48"/>
      </g>
     </g>
    </g>
    <g id="xtick_4">
     <g id="line2d_4">
      <g>
       <use style="stroke:#000000;stroke-width:0.8;" x="196.036364" xlink:href="#m905148d263" y="252"/>
      </g>
     </g>
     <g id="text_4">
      <!-- 750 -->
      <defs>
       <path d="M 8.203125 72.90625 
L 55.078125 72.90625 
L 55.078125 68.703125 
L 28.609375 0 
L 18.3125 0 
L 43.21875 64.59375 
L 8.203125 64.59375 
z
" id="DejaVuSans-55"/>
      </defs>
      <g transform="translate(186.492614 266.598437)scale(0.1 -0.1)">
       <use xlink:href="#DejaVuSans-55"/>
       <use x="63.623047" xlink:href="#DejaVuSans-53"/>
       <use x="127.246094" xlink:href="#DejaVuSans-48"/>
      </g>
     </g>
    </g>
    <g id="xtick_5">
     <g id="line2d_5">
      <g>
       <use style="stroke:#000000;stroke-width:0.8;" x="238.309091" xlink:href="#m905148d263" y="252"/>
      </g>
     </g>
     <g id="text_5">
      <!-- 1000 -->
      <defs>
       <path d="M 12.40625 8.296875 
L 28.515625 8.296875 
L 28.515625 63.921875 
L 10.984375 60.40625 
L 10.984375 69.390625 
L 28.421875 72.90625 
L 38.28125 72.90625 
L 38.28125 8.296875 
L 54.390625 8.296875 
L 54.390625 0 
L 12.40625 0 
z
" id="DejaVuSans-49"/>
      </defs>
      <g transform="translate(225.584091 266.598437)scale(0.1 -0.1)">
       <use xlink:href="#DejaVuSans-49"/>
       <use x="63.623047" xlink:href="#DejaVuSans-48"/>
       <use x="127.246094" xlink:href="#DejaVuSans-48"/>
       <use x="190.869141" xlink:href="#DejaVuSans-48"/>
      </g>
     </g>
    </g>
    <g id="xtick_6">
     <g id="line2d_6">
      <g>
       <use style="stroke:#000000;stroke-width:0.8;" x="280.581818" xlink:href="#m905148d263" y="252"/>
      </g>
     </g>
     <g id="text_6">
      <!-- 1250 -->
      <g transform="translate(267.856818 266.598437)scale(0.1 -0.1)">
       <use xlink:href="#DejaVuSans-49"/>
       <use x="63.623047" xlink:href="#DejaVuSans-50"/>
       <use x="127.246094" xlink:href="#DejaVuSans-53"/>
       <use x="190.869141" xlink:href="#DejaVuSans-48"/>
      </g>
     </g>
    </g>
    <g id="xtick_7">
     <g id="line2d_7">
      <g>
       <use style="stroke:#000000;stroke-width:0.8;" x="322.854545" xlink:href="#m905148d263" y="252"/>
      </g>
     </g>
     <g id="text_7">
      <!-- 1500 -->
      <g transform="translate(310.129545 266.598437)scale(0.1 -0.1)">
       <use xlink:href="#DejaVuSans-49"/>
       <use x="63.623047" xlink:href="#DejaVuSans-53"/>
       <use x="127.246094" xlink:href="#DejaVuSans-48"/>
       <use x="190.869141" xlink:href="#DejaVuSans-48"/>
      </g>
     </g>
    </g>
    <g id="xtick_8">
     <g id="line2d_8">
      <g>
       <use style="stroke:#000000;stroke-width:0.8;" x="365.127273" xlink:href="#m905148d263" y="252"/>
      </g>
     </g>
     <g id="text_8">
      <!-- 1750 -->
      <g transform="translate(352.402273 266.598437)scale(0.1 -0.1)">
       <use xlink:href="#DejaVuSans-49"/>
       <use x="63.623047" xlink:href="#DejaVuSans-55"/>
       <use x="127.246094" xlink:href="#DejaVuSans-53"/>
       <use x="190.869141" xlink:href="#DejaVuSans-48"/>
      </g>
     </g>
    </g>
   </g>
   <g id="matplotlib.axis_2">
    <g id="ytick_1">
     <g id="line2d_9">
      <defs>
       <path d="M 0 0 
L -3.5 0 
" id="m11a2e01c56" style="stroke:#000000;stroke-width:0.8;"/>
      </defs>
      <g>
       <use style="stroke:#000000;stroke-width:0.8;" x="54" xlink:href="#m11a2e01c56" y="227.825455"/>
      </g>
     </g>
     <g id="text_9">
      <!-- 0 -->
      <g transform="translate(40.6375 231.624673)scale(0.1 -0.1)">
       <use xlink:href="#DejaVuSans-48"/>
      </g>
     </g>
    </g>
    <g id="ytick_2">
     <g id="line2d_10">
      <g>
       <use style="stroke:#000000;stroke-width:0.8;" x="54" xlink:href="#m11a2e01c56" y="194.007273"/>
      </g>
     </g>
     <g id="text_10">
      <!-- 200 -->
      <g transform="translate(27.9125 197.806491)scale(0.1 -0.1)">
       <use xlink:href="#DejaVuSans-50"/>
       <use x="63.623047" xlink:href="#DejaVuSans-48"/>
       <use x="127.246094" xlink:href="#DejaVuSans-48"/>
      </g>
     </g>
    </g>
    <g id="ytick_3">
     <g id="line2d_11">
      <g>
       <use style="stroke:#000000;stroke-width:0.8;" x="54" xlink:href="#m11a2e01c56" y="160.189091"/>
      </g>
     </g>
     <g id="text_11">
      <!-- 400 -->
      <defs>
       <path d="M 37.796875 64.3125 
L 12.890625 25.390625 
L 37.796875 25.390625 
z
M 35.203125 72.90625 
L 47.609375 72.90625 
L 47.609375 25.390625 
L 58.015625 25.390625 
L 58.015625 17.1875 
L 47.609375 17.1875 
L 47.609375 0 
L 37.796875 0 
L 37.796875 17.1875 
L 4.890625 17.1875 
L 4.890625 26.703125 
z
" id="DejaVuSans-52"/>
      </defs>
      <g transform="translate(27.9125 163.98831)scale(0.1 -0.1)">
       <use xlink:href="#DejaVuSans-52"/>
       <use x="63.623047" xlink:href="#DejaVuSans-48"/>
       <use x="127.246094" xlink:href="#DejaVuSans-48"/>
      </g>
     </g>
    </g>
    <g id="ytick_4">
     <g id="line2d_12">
      <g>
       <use style="stroke:#000000;stroke-width:0.8;" x="54" xlink:href="#m11a2e01c56" y="126.370909"/>
      </g>
     </g>
     <g id="text_12">
      <!-- 600 -->
      <defs>
       <path d="M 33.015625 40.375 
Q 26.375 40.375 22.484375 35.828125 
Q 18.609375 31.296875 18.609375 23.390625 
Q 18.609375 15.53125 22.484375 10.953125 
Q 26.375 6.390625 33.015625 6.390625 
Q 39.65625 6.390625 43.53125 10.953125 
Q 47.40625 15.53125 47.40625 23.390625 
Q 47.40625 31.296875 43.53125 35.828125 
Q 39.65625 40.375 33.015625 40.375 
z
M 52.59375 71.296875 
L 52.59375 62.3125 
Q 48.875 64.0625 45.09375 64.984375 
Q 41.3125 65.921875 37.59375 65.921875 
Q 27.828125 65.921875 22.671875 59.328125 
Q 17.53125 52.734375 16.796875 39.40625 
Q 19.671875 43.65625 24.015625 45.921875 
Q 28.375 48.1875 33.59375 48.1875 
Q 44.578125 48.1875 50.953125 41.515625 
Q 57.328125 34.859375 57.328125 23.390625 
Q 57.328125 12.15625 50.6875 5.359375 
Q 44.046875 -1.421875 33.015625 -1.421875 
Q 20.359375 -1.421875 13.671875 8.265625 
Q 6.984375 17.96875 6.984375 36.375 
Q 6.984375 53.65625 15.1875 63.9375 
Q 23.390625 74.21875 37.203125 74.21875 
Q 40.921875 74.21875 44.703125 73.484375 
Q 48.484375 72.75 52.59375 71.296875 
z
" id="DejaVuSans-54"/>
      </defs>
      <g transform="translate(27.9125 130.170128)scale(0.1 -0.1)">
       <use xlink:href="#DejaVuSans-54"/>
       <use x="63.623047" xlink:href="#DejaVuSans-48"/>
       <use x="127.246094" xlink:href="#DejaVuSans-48"/>
      </g>
     </g>
    </g>
    <g id="ytick_5">
     <g id="line2d_13">
      <g>
       <use style="stroke:#000000;stroke-width:0.8;" x="54" xlink:href="#m11a2e01c56" y="92.552727"/>
      </g>
     </g>
     <g id="text_13">
      <!-- 800 -->
      <defs>
       <path d="M 31.78125 34.625 
Q 24.75 34.625 20.71875 30.859375 
Q 16.703125 27.09375 16.703125 20.515625 
Q 16.703125 13.921875 20.71875 10.15625 
Q 24.75 6.390625 31.78125 6.390625 
Q 38.8125 6.390625 42.859375 10.171875 
Q 46.921875 13.96875 46.921875 20.515625 
Q 46.921875 27.09375 42.890625 30.859375 
Q 38.875 34.625 31.78125 34.625 
z
M 21.921875 38.8125 
Q 15.578125 40.375 12.03125 44.71875 
Q 8.5 49.078125 8.5 55.328125 
Q 8.5 64.0625 14.71875 69.140625 
Q 20.953125 74.21875 31.78125 74.21875 
Q 42.671875 74.21875 48.875 69.140625 
Q 55.078125 64.0625 55.078125 55.328125 
Q 55.078125 49.078125 51.53125 44.71875 
Q 48 40.375 41.703125 38.8125 
Q 48.828125 37.15625 52.796875 32.3125 
Q 56.78125 27.484375 56.78125 20.515625 
Q 56.78125 9.90625 50.3125 4.234375 
Q 43.84375 -1.421875 31.78125 -1.421875 
Q 19.734375 -1.421875 13.25 4.234375 
Q 6.78125 9.90625 6.78125 20.515625 
Q 6.78125 27.484375 10.78125 32.3125 
Q 14.796875 37.15625 21.921875 38.8125 
z
M 18.3125 54.390625 
Q 18.3125 48.734375 21.84375 45.5625 
Q 25.390625 42.390625 31.78125 42.390625 
Q 38.140625 42.390625 41.71875 45.5625 
Q 45.3125 48.734375 45.3125 54.390625 
Q 45.3125 60.0625 41.71875 63.234375 
Q 38.140625 66.40625 31.78125 66.40625 
Q 25.390625 66.40625 21.84375 63.234375 
Q 18.3125 60.0625 18.3125 54.390625 
z
" id="DejaVuSans-56"/>
      </defs>
      <g transform="translate(27.9125 96.351946)scale(0.1 -0.1)">
       <use xlink:href="#DejaVuSans-56"/>
       <use x="63.623047" xlink:href="#DejaVuSans-48"/>
       <use x="127.246094" xlink:href="#DejaVuSans-48"/>
      </g>
     </g>
    </g>
    <g id="ytick_6">
     <g id="line2d_14">
      <g>
       <use style="stroke:#000000;stroke-width:0.8;" x="54" xlink:href="#m11a2e01c56" y="58.734545"/>
      </g>
     </g>
     <g id="text_14">
      <!-- 1000 -->
      <g transform="translate(21.55 62.533764)scale(0.1 -0.1)">
       <use xlink:href="#DejaVuSans-49"/>
       <use x="63.623047" xlink:href="#DejaVuSans-48"/>
       <use x="127.246094" xlink:href="#DejaVuSans-48"/>
       <use x="190.869141" xlink:href="#DejaVuSans-48"/>
      </g>
     </g>
    </g>
   </g>
   <g id="line2d_15">
    <path clip-path="url(#pe3e22d2bba)" d="M 69.218182 227.825455 
L 373.581818 227.825455 
L 373.581818 58.734545 
L 69.218182 58.734545 
L 69.218182 227.825455 
" style="fill:none;stroke:#000000;stroke-linecap:square;stroke-width:1.5;"/>
   </g>
   <g id="line2d_16">
    <path clip-path="url(#pe3e22d2bba)" d="M 69.218182 172.860638 
L 69.218182 227.825455 
L 174.907336 227.825455 
L 69.218182 172.860638 
" style="fill:none;stroke:#000000;stroke-dasharray:5.55,2.4;stroke-dashoffset:0;stroke-width:1.5;"/>
   </g>
   <g id="line2d_17">
    <path clip-path="url(#pe3e22d2bba)" d="M 105.040687 136.800432 
L 107.85789 170.606875 
L 145.608419 168.916553 
L 140.537452 132.292906 
L 105.040687 136.800432 
" style="fill:none;stroke:#000000;stroke-dasharray:5.55,2.4;stroke-dashoffset:0;stroke-width:1.5;"/>
   </g>
   <g id="line2d_18">
    <path clip-path="url(#pe3e22d2bba)" d="M 89.827787 58.734545 
L 88.700906 58.734545 
L 97.152516 91.725174 
L 207.412119 122.702872 
L 206.460017 144.125161 
L 276.890108 144.125161 
L 292.666448 58.734545 
L 117.436383 58.734545 
L 89.827787 58.734545 
" style="fill:none;stroke:#000000;stroke-dasharray:5.55,2.4;stroke-dashoffset:0;stroke-width:1.5;"/>
   </g>
   <g id="line2d_19">
    <path clip-path="url(#pe3e22d2bba)" d="M 97.277296 162.996851 
L 69.390316 163.014943 
L 69.387273 172.532733 
L 102.546845 172.528505 
L 102.545662 116.913491 
L 69.390316 116.910447 
L 69.390316 124.926709 
L 97.277296 124.927893 
L 97.277296 162.996851 
" style="fill:none;stroke:#ff0000;stroke-linecap:square;stroke-width:1.5;"/>
   </g>
   <g id="line2d_20">
    <path clip-path="url(#pe3e22d2bba)" d="M 149.117423 169.520901 
L 121.313162 171.667299 
L 122.036533 181.15756 
L 155.099066 178.622578 
L 150.853301 123.169865 
L 117.794427 125.697275 
L 118.406235 133.690156 
L 146.211968 131.562978 
L 149.117423 169.520901 
" style="fill:none;stroke:#ff0000;stroke-linecap:square;stroke-width:1.5;"/>
   </g>
   <g id="line2d_21">
    <path clip-path="url(#pe3e22d2bba)" d="M 177.51594 181.868419 
L 149.712359 179.713226 
L 148.967604 189.201833 
L 182.026663 191.781742 
L 186.359557 136.33577 
L 153.30528 133.748941 
L 152.680573 141.740824 
L 180.482652 143.915235 
L 177.51594 181.868419 
" style="fill:none;stroke:#ff0000;stroke-linecap:square;stroke-width:1.5;"/>
   </g>
   <g id="line2d_22">
    <path clip-path="url(#pe3e22d2bba)" d="M 69.387273 116.732727 
L 69.387273 91.369091 
L 94.750909 91.369091 
L 94.750909 116.732727 
L 69.387273 116.732727 
" style="fill:none;stroke:#ff0000;stroke-linecap:square;stroke-width:1.5;"/>
   </g>
   <g id="line2d_23">
    <path clip-path="url(#pe3e22d2bba)" d="M 69.387273 162.741749 
L 69.387273 137.378113 
L 94.750909 137.378113 
L 94.750909 162.741749 
L 69.387273 162.741749 
" style="fill:none;stroke:#ff0000;stroke-linecap:square;stroke-width:1.5;"/>
   </g>
   <g id="line2d_24">
    <path clip-path="url(#pe3e22d2bba)" d="M 171.366154 224.503111 
L 148.531658 213.462286 
L 159.572483 190.62779 
L 182.406979 201.668615 
L 171.366154 224.503111 
" style="fill:none;stroke:#ff0000;stroke-linecap:square;stroke-width:1.5;"/>
   </g>
   <g id="line2d_25">
    <path clip-path="url(#pe3e22d2bba)" d="M 205.301675 227.325412 
L 180.12202 224.275978 
L 183.171453 199.096324 
L 208.351108 202.145757 
L 205.301675 227.325412 
" style="fill:none;stroke:#ff0000;stroke-linecap:square;stroke-width:1.5;"/>
   </g>
   <g id="line2d_26">
    <path clip-path="url(#pe3e22d2bba)" d="M 207.239721 200.901729 
L 181.979914 198.609087 
L 184.272555 173.349281 
L 209.532362 175.641922 
L 207.239721 200.901729 
" style="fill:none;stroke:#ff0000;stroke-linecap:square;stroke-width:1.5;"/>
   </g>
   <g id="line2d_27">
    <path clip-path="url(#pe3e22d2bba)" d="M 208.935906 175.228004 
L 183.680328 172.889237 
L 186.019095 147.633659 
L 211.274673 149.972426 
L 208.935906 175.228004 
" style="fill:none;stroke:#ff0000;stroke-linecap:square;stroke-width:1.5;"/>
   </g>
   <g id="line2d_28">
    <path clip-path="url(#pe3e22d2bba)" d="M 231.657539 227.656364 
L 206.401961 225.317597 
L 208.740728 200.062019 
L 233.996306 202.400786 
L 231.657539 227.656364 
" style="fill:none;stroke:#ff0000;stroke-linecap:square;stroke-width:1.5;"/>
   </g>
   <g id="line2d_29">
    <path clip-path="url(#pe3e22d2bba)" d="M 122.742431 124.913212 
L 96.699323 107.277125 
L 95.542461 106.106994 
L 94.92 104.583813 
L 94.926253 102.938364 
L 95.560275 101.419958 
L 96.726001 100.258655 
L 98.246804 99.63041 
L 124.43334 99.549576 
L 124.43334 124.913212 
L 122.742431 124.913212 
" style="fill:none;stroke:#ff0000;stroke-linecap:square;stroke-width:1.5;"/>
   </g>
   <g id="line2d_30">
    <path clip-path="url(#pe3e22d2bba)" d="M 155.944738 131.239171 
L 147.9606 107.16496 
L 149.565548 106.632685 
L 179.836294 115.174169 
L 181.302686 115.920649 
L 182.37298 117.170453 
L 182.88501 118.734219 
L 182.761195 120.375015 
L 182.020294 121.844235 
L 180.774568 122.919271 
L 155.944738 131.239171 
" style="fill:none;stroke:#ff0000;stroke-linecap:square;stroke-width:1.5;"/>
   </g>
   <g id="line2d_31">
    <path clip-path="url(#pe3e22d2bba)" d="M 117.967994 198.016999 
L 90.487486 182.716778 
L 89.233083 181.651879 
L 88.480293 180.188717 
L 88.343174 178.548979 
L 88.842505 176.981111 
L 89.902629 175.722669 
L 91.36292 174.964323 
L 117.442853 172.602486 
L 119.652474 197.869691 
L 117.967994 198.016999 
" style="fill:none;stroke:#ff0000;stroke-linecap:square;stroke-width:1.5;"/>
   </g>
   <g id="line2d_32">
    <path clip-path="url(#pe3e22d2bba)" d="M 148.227733 204.758421 
L 120.94254 189.11255 
L 119.701678 188.031903 
L 118.967417 186.559354 
L 118.851006 184.918017 
L 119.370088 183.356577 
L 120.446012 182.111615 
L 121.915758 181.371762 
L 148.023426 179.339305 
L 149.913939 204.632387 
L 148.227733 204.758421 
" style="fill:none;stroke:#ff0000;stroke-linecap:square;stroke-width:1.5;"/>
   </g>
   <g id="line2d_33">
    <path clip-path="url(#pe3e22d2bba)" d="M 159.602847 173.595906 
L 157.957398 173.589653 
L 156.438992 172.955631 
L 155.277689 171.789905 
L 154.649444 170.269101 
L 154.56861 144.082565 
L 179.932246 144.082565 
L 179.932246 145.773475 
L 162.296159 171.816582 
L 161.126028 172.973445 
L 159.602847 173.595906 
" style="fill:none;stroke:#ff0000;stroke-linecap:square;stroke-width:1.5;"/>
   </g>
   <g id="line2d_34">
    <path clip-path="url(#pe3e22d2bba)" d="M 233.263436 201.82229 
L 208.043814 199.123271 
L 208.223748 197.441962 
L 228.531022 173.423435 
L 229.817614 172.397658 
L 231.398385 171.940817 
L 233.033825 172.122132 
L 234.476142 172.914132 
L 235.506802 174.196817 
L 235.969647 175.775839 
L 233.263436 201.82229 
" style="fill:none;stroke:#ff0000;stroke-linecap:square;stroke-width:1.5;"/>
   </g>
   <g id="line2d_35">
    <path clip-path="url(#pe3e22d2bba)" d="M 214.862229 187.279989 
L 213.219173 187.191061 
L 211.734544 186.481542 
L 210.633285 185.258934 
L 210.082253 183.708483 
L 211.317374 157.550966 
L 236.648969 158.825469 
L 236.564002 160.514242 
L 217.641548 185.63825 
L 216.414764 186.734853 
L 214.862229 187.279989 
" style="fill:none;stroke:#ff0000;stroke-linecap:square;stroke-width:1.5;"/>
   </g>
   <g id="line2d_36">
    <path clip-path="url(#pe3e22d2bba)" d="M 69.662772 91.000634 
L 69.429444 64.266032 
L 93.653915 82.770258 
L 69.662772 91.000634 
" style="fill:none;stroke:#ff0000;stroke-linecap:square;stroke-width:1.5;"/>
   </g>
   <g id="line2d_37">
    <path clip-path="url(#pe3e22d2bba)" d="M 199.690496 148.722706 
L 180.989766 124.649607 
L 206.286863 122.813608 
L 199.690496 148.722706 
" style="fill:none;stroke:#ff0000;stroke-linecap:square;stroke-width:1.5;"/>
   </g>
   <g id="line2d_38">
    <path clip-path="url(#pe3e22d2bba)" d="M 245.216213 170.012302 
L 227.829555 144.973621 
L 253.188638 144.493019 
L 245.216213 170.012302 
" style="fill:none;stroke:#ff0000;stroke-linecap:square;stroke-width:1.5;"/>
   </g>
   <g id="line2d_39">
    <path clip-path="url(#pe3e22d2bba)" d="M 232.981242 225.532739 
L 234.479769 200.213409 
L 259.29959 210.151713 
L 232.981242 225.532739 
" style="fill:none;stroke:#ff0000;stroke-linecap:square;stroke-width:1.5;"/>
   </g>
   <g id="line2d_40">
    <path clip-path="url(#pe3e22d2bba)" d="M 234.175904 199.94013 
L 236.858063 174.71871 
L 261.185431 185.808009 
L 234.175904 199.94013 
" style="fill:none;stroke:#ff0000;stroke-linecap:square;stroke-width:1.5;"/>
   </g>
   <g id="line2d_41">
    <path clip-path="url(#pe3e22d2bba)" d="M 261.910902 185.283707 
L 237.405628 174.593294 
L 264.180692 160.021837 
L 261.910902 185.283707 
" style="fill:none;stroke:#ff0000;stroke-linecap:square;stroke-width:1.5;"/>
   </g>
   <g id="line2d_42">
    <path clip-path="url(#pe3e22d2bba)" d="M 260.494277 210.459464 
L 235.989003 199.769051 
L 262.764067 185.197594 
L 260.494277 210.459464 
" style="fill:none;stroke:#ff0000;stroke-linecap:square;stroke-width:1.5;"/>
   </g>
   <g id="line2d_43">
    <path clip-path="url(#pe3e22d2bba)" d="M 277.34291 227.574256 
L 270.591101 227.116571 
L 263.86507 226.41735 
L 260.885594 220.341387 
L 258.128055 214.167033 
L 261.900229 208.548698 
L 265.868678 203.073189 
L 272.620487 203.530875 
L 279.346519 204.230096 
L 282.325994 210.306058 
L 285.083533 216.480413 
L 281.311359 222.098748 
L 277.34291 227.574256 
" style="fill:none;stroke:#ff0000;stroke-linecap:square;stroke-width:1.5;"/>
   </g>
   <g id="line2d_44">
    <path clip-path="url(#pe3e22d2bba)" d="M 273.478233 203.242002 
L 267.840934 199.498279 
L 262.345648 195.557657 
L 262.769109 188.80372 
L 263.434088 182.074115 
L 269.495015 179.06387 
L 275.655507 176.275189 
L 281.292806 180.018911 
L 286.788092 183.959533 
L 286.364631 190.71347 
L 285.699652 197.443075 
L 279.638726 200.45332 
L 273.478233 203.242002 
" style="fill:none;stroke:#ff0000;stroke-linecap:square;stroke-width:1.5;"/>
   </g>
   <g id="line2d_45">
    <path clip-path="url(#pe3e22d2bba)" d="M 279.389193 170.427207 
L 272.822209 168.793282 
L 266.322693 166.92618 
L 264.454238 160.421929 
L 262.821665 153.85968 
L 267.520194 148.989524 
L 272.3868 144.294545 
L 278.953783 145.928471 
L 285.4533 147.795573 
L 287.321754 154.299824 
L 288.954327 160.862073 
L 284.255798 165.732229 
L 279.389193 170.427207 
" style="fill:none;stroke:#ff0000;stroke-linecap:square;stroke-width:1.5;"/>
   </g>
   <g id="line2d_46">
    <path clip-path="url(#pe3e22d2bba)" d="M 288.306205 150.004617 
L 283.06136 145.72838 
L 277.977074 141.27005 
L 279.057937 134.589726 
L 280.376788 127.9572 
L 286.702663 125.553099 
L 293.105997 123.379225 
L 298.350841 127.655462 
L 303.435127 132.113792 
L 302.354265 138.794116 
L 301.035414 145.426642 
L 294.709538 147.830743 
L 288.306205 150.004617 
" style="fill:none;stroke:#ff0000;stroke-linecap:square;stroke-width:1.5;"/>
   </g>
   <g id="line2d_47">
    <path clip-path="url(#pe3e22d2bba)" d="M 296.567371 186.535967 
L 290.206856 184.225377 
L 283.937782 181.689929 
L 282.758582 175.026154 
L 281.82003 168.329325 
L 287.001328 163.976308 
L 292.331495 159.81506 
L 298.692011 162.125651 
L 304.961084 164.661099 
L 306.140284 171.324874 
L 307.078837 178.021703 
L 301.897539 182.374719 
L 296.567371 186.535967 
" style="fill:none;stroke:#ff0000;stroke-linecap:square;stroke-width:1.5;"/>
   </g>
   <g id="line2d_48">
    <path clip-path="url(#pe3e22d2bba)" d="M 297.249423 217.698167 
L 290.739805 215.848881 
L 284.305296 213.768766 
L 282.652036 207.206516 
L 281.236439 200.594066 
L 286.092792 195.88127 
L 291.111361 191.349093 
L 297.620979 193.198379 
L 304.055488 195.278493 
L 305.708748 201.840744 
L 307.124344 208.453194 
L 302.267992 213.165989 
L 297.249423 217.698167 
" style="fill:none;stroke:#ff0000;stroke-linecap:square;stroke-width:1.5;"/>
   </g>
   <g id="line2d_49">
    <path clip-path="url(#pe3e22d2bba)" d="M 292.182118 123.167266 
L 287.370326 118.408983 
L 282.735773 113.484799 
L 284.45063 106.938483 
L 286.397813 100.462507 
L 292.92463 98.674476 
L 299.50653 97.123025 
L 304.318322 101.881308 
L 308.952874 106.805492 
L 307.238018 113.351808 
L 305.290835 119.827784 
L 298.764018 121.615815 
L 292.182118 123.167266 
" style="fill:none;stroke:#ff0000;stroke-linecap:square;stroke-width:1.5;"/>
   </g>
   <g id="patch_37">
    <path d="M 54 252 
L 54 34.56 
" style="fill:none;stroke:#000000;stroke-linecap:square;stroke-linejoin:miter;stroke-width:0.8;"/>
   </g>
   <g id="patch_38">
    <path d="M 388.8 252 
L 388.8 34.56 
" style="fill:none;stroke:#000000;stroke-linecap:square;stroke-linejoin:miter;stroke-width:0.8;"/>
   </g>
   <g id="patch_39">
    <path d="M 54 252 
L 388.8 252 
" style="fill:none;stroke:#000000;stroke-linecap:square;stroke-linejoin:miter;stroke-width:0.8;"/>
   </g>
   <g id="patch_40">
    <path d="M 54 34.56 
L 388.8 34.56 
" style="fill:none;stroke:#000000;stroke-linecap:square;stroke-linejoin:miter;stroke-width:0.8;"/>
   </g>
  </g>
 </g>
 <defs>
  <clipPath id="pe3e22d2bba">
   <rect height="217.44" width="334.8" x="54" y="34.56"/>
  </clipPath>
 </defs>
</svg>
