<?xml version="1.0" encoding="utf-8" standalone="no"?>
<!DOCTYPE svg PUBLIC "-//W3C//DTD SVG 1.1//EN"
  "http://www.w3.org/Graphics/SVG/1.1/DTD/svg11.dtd">
<!-- Created with matplotlib (https://matplotlib.org/) -->
<svg height="288pt" version="1.1" viewBox="0 0 432 288" width="432pt" xmlns="http://www.w3.org/2000/svg" xmlns:xlink="http://www.w3.org/1999/xlink">
 <defs>
  <style type="text/css">
*{stroke-linecap:butt;stroke-linejoin:round;}
  </style>
 </defs>
 <g id="figure_1">
  <g id="patch_1">
   <path d="M 0 288 
L 432 288 
L 432 0 
L 0 0 
z
" style="fill:#ffffff;"/>
  </g>
  <g id="axes_1">
   <g id="patch_2">
    <path d="M 54 252 
L 388.8 252 
L 388.8 34.56 
L 54 34.56 
z
" style="fill:#ffffff;"/>
   </g>
   <g id="patch_3">
    <path clip-path="url(#p515eea82ef)" d="M 69.218182 172.860638 
L 69.218182 227.825455 
L 174.907336 227.825455 
z
" style="fill:#aaaaaa;"/>
   </g>
   <g id="patch_4">
    <path clip-path="url(#p515eea82ef)" d="M 105.040687 136.800432 
L 107.85789 170.606875 
L 145.608419 168.916553 
L 140.537452 132.292906 
z
" style="fill:#aaaaaa;"/>
   </g>
   <g id="patch_5">
    <path clip-path="url(#p515eea82ef)" d="M 89.827787 58.734545 
L 88.700906 58.734545 
L 97.152516 91.725174 
L 207.412119 122.702872 
L 206.460017 144.125161 
L 276.890108 144.125161 
L 292.666448 58.734545 
L 117.436383 58.734545 
z
" style="fill:#aaaaaa;"/>
   </g>
   <g id="patch_6">
    <path clip-path="url(#p515eea82ef)" d="M 319.802429 86.777405 
L 337.015465 64.836681 
L 329.53282 58.954645 
L 309.051721 85.033025 
L 352.786557 119.388432 
L 373.270762 93.317869 
L 366.966996 88.365799 
L 349.738802 110.294615 
z
" style="fill:#f6929c;"/>
   </g>
   <g id="patch_7">
    <path clip-path="url(#p515eea82ef)" d="M 319.944395 129.363439 
L 337.157431 107.422715 
L 329.674786 101.540679 
L 309.193687 127.619058 
L 352.928522 161.974466 
L 373.412727 135.903902 
L 367.108961 130.951833 
L 349.880767 152.880649 
z
" style="fill:#f6929c;"/>
   </g>
   <g id="patch_8">
    <path clip-path="url(#p515eea82ef)" d="M 327.025217 176.793881 
L 326.411637 148.913646 
L 316.895953 149.113843 
L 317.60826 182.265765 
L 373.210568 181.076993 
L 372.505621 147.929143 
L 364.491187 148.10032 
L 365.085494 175.980967 
z
" style="fill:#f6929c;"/>
   </g>
   <g id="patch_9">
    <path clip-path="url(#p515eea82ef)" d="M 290.412865 104.331313 
L 318.072767 107.882902 
L 319.294063 98.443794 
L 286.406714 94.203562 
L 279.289167 149.361248 
L 312.171393 153.60815 
L 313.197474 145.657829 
L 285.540039 142.087122 
z
" style="fill:#f6929c;"/>
   </g>
   <g id="patch_10">
    <path clip-path="url(#p515eea82ef)" d="M 292.760433 186.207742 
L 315.545928 170.129645 
L 310.06603 162.347676 
L 282.962524 181.451529 
L 314.998552 226.912752 
L 342.102791 207.817277 
L 337.485307 201.264468 
L 314.688709 217.326808 
z
" style="fill:#f6929c;"/>
   </g>
   <g id="patch_11">
    <path clip-path="url(#p515eea82ef)" d="M 349.74 84.267273 
L 348.544346 83.772017 
L 348.049091 82.576364 
L 348.049091 60.594545 
L 348.544346 59.398892 
L 349.74 58.903636 
L 371.721818 58.903636 
L 372.917472 59.398892 
L 373.412727 60.594545 
L 373.412727 82.576364 
L 372.917472 83.772017 
L 371.721818 84.267273 
z
" style="fill:#f6929c;"/>
   </g>
   <g id="patch_12">
    <path clip-path="url(#p515eea82ef)" d="M 349.74 207.189207 
L 348.544346 206.693951 
L 348.049091 205.498297 
L 348.049091 183.516479 
L 348.544346 182.320826 
L 349.74 181.82557 
L 371.721818 181.82557 
L 372.917472 182.320826 
L 373.412727 183.516479 
L 373.412727 205.498297 
L 372.917472 206.693951 
L 371.721818 207.189207 
z
" style="fill:#f6929c;"/>
   </g>
   <g id="patch_13">
    <path clip-path="url(#p515eea82ef)" d="M 144.955213 132.508105 
L 123.956327 126.008326 
L 122.96058 125.181675 
L 122.841012 123.893044 
L 129.340791 102.894158 
L 130.167442 101.898411 
L 131.456073 101.778843 
L 152.454958 108.278622 
L 153.450706 109.105273 
L 153.570274 110.393904 
L 147.070495 131.392789 
L 146.243844 132.388537 
z
" style="fill:#f6929c;"/>
   </g>
   <g id="patch_14">
    <path clip-path="url(#p515eea82ef)" d="M 120.18496 124.947007 
L 99.081261 118.796054 
L 98.071953 117.986015 
L 97.931049 116.699542 
L 104.082002 95.595843 
L 104.892041 94.586535 
L 106.178514 94.445632 
L 127.282213 100.596585 
L 128.291521 101.406624 
L 128.432424 102.693096 
L 122.281471 123.796795 
L 121.471432 124.806103 
z
" style="fill:#f6929c;"/>
   </g>
   <g id="patch_15">
    <path clip-path="url(#p515eea82ef)" d="M 322.534392 88.416977 
L 322.534392 86.726068 
L 340.170479 60.68296 
L 341.34061 59.526097 
L 342.863791 58.903636 
L 344.50924 58.909889 
L 346.027646 59.543911 
L 347.188949 60.709637 
L 347.817194 62.230441 
L 347.898028 88.416977 
z
" style="fill:#f6929c;"/>
   </g>
   <g id="patch_16">
    <path clip-path="url(#p515eea82ef)" d="M 349.90183 148.992467 
L 348.260279 148.879108 
L 346.786369 148.147583 
L 345.703419 146.908728 
L 345.175511 145.350251 
L 346.799603 119.214002 
L 372.109436 120.865186 
L 371.999357 122.552508 
L 352.705264 147.392254 
L 351.462303 148.470487 
z
" style="fill:#f6929c;"/>
   </g>
   <g id="patch_17">
    <path clip-path="url(#p515eea82ef)" d="M 313.351029 143.864775 
L 287.225865 142.071166 
L 289.041204 116.772577 
L 290.727777 116.893599 
L 315.441836 136.348427 
L 316.511982 137.598357 
L 317.023829 139.162183 
L 316.899823 140.802964 
L 316.158751 142.272097 
L 314.912897 143.346988 
z
" style="fill:#f6929c;"/>
   </g>
   <g id="patch_18">
    <path clip-path="url(#p515eea82ef)" d="M 318.729371 211.535211 
L 317.085322 211.467093 
L 315.591828 210.77643 
L 314.475177 209.567864 
L 313.904558 208.024512 
L 313.966427 206.380216 
L 324.794036 182.536892 
L 347.855501 193.095436 
L 347.151598 194.632867 
L 320.27488 210.970463 
z
" style="fill:#f6929c;"/>
   </g>
   <g id="patch_19">
    <path clip-path="url(#p515eea82ef)" d="M 305.058903 88.416977 
L 303.413454 88.410724 
L 301.895048 87.776702 
L 300.733745 86.610976 
L 300.105499 85.090172 
L 300.024665 58.903636 
L 325.388302 58.903636 
L 325.388302 60.594545 
L 307.752215 86.637653 
L 306.582084 87.794516 
z
" style="fill:#f6929c;"/>
   </g>
   <g id="patch_20">
    <path clip-path="url(#p515eea82ef)" d="M 353.810588 175.436204 
L 327.682381 173.687499 
L 329.454236 148.385828 
L 331.141014 148.503951 
L 355.888474 167.916274 
L 356.960767 169.164363 
L 357.4753 170.727306 
L 357.354115 172.368299 
L 356.615569 173.838704 
L 355.371564 174.915734 
z
" style="fill:#f6929c;"/>
   </g>
   <g id="patch_21">
    <path clip-path="url(#p515eea82ef)" d="M 75.653613 97.239415 
L 69.388456 97.236372 
L 69.387273 71.165766 
L 69.785193 69.194854 
L 70.916369 67.532569 
L 71.705445 66.901588 
L 73.575815 66.163704 
L 74.583156 66.085974 
L 76.544585 66.528189 
L 92.915765 78.241037 
L 93.920187 79.915882 
L 94.218658 81.845886 
L 94.085031 82.8178 
L 93.276775 84.595642 
L 92.545938 85.451231 
L 78.856195 97.232144 
z
" style="fill:#f6929c;"/>
   </g>
   <g id="patch_22">
    <path clip-path="url(#p515eea82ef)" d="M 92.212104 121.850677 
L 90.233827 121.491267 
L 73.384963 110.476633 
L 72.311056 108.84547 
L 71.931755 106.929712 
L 72.024428 105.953041 
L 72.75727 104.142808 
L 73.451512 103.257268 
L 86.634165 90.911554 
L 89.833613 90.769726 
L 96.093365 90.509523 
L 97.18996 116.557055 
L 96.875204 118.542946 
L 95.814872 120.251292 
L 95.053004 120.914871 
L 93.215289 121.730691 
z
" style="fill:#f6929c;"/>
   </g>
   <g id="patch_23">
    <path clip-path="url(#p515eea82ef)" d="M 95.960475 147.812319 
L 94.98019 147.773402 
L 93.132457 147.141038 
L 92.210141 146.496456 
L 79.15937 134.01141 
L 78.84212 130.824572 
L 78.238674 124.588544 
L 104.186731 122.0637 
L 106.186906 122.268964 
L 107.950884 123.233917 
L 108.655285 123.958207 
L 109.570758 125.748366 
L 109.745634 126.743451 
L 109.495365 128.738476 
L 99.422274 146.166591 
L 97.852523 147.328423 
z
" style="fill:#f6929c;"/>
   </g>
   <g id="patch_24">
    <path clip-path="url(#p515eea82ef)" d="M 103.538686 178.368483 
L 101.532538 178.23385 
L 83.55176 169.184099 
L 82.301209 167.684068 
L 81.70885 165.823125 
L 81.691088 164.842228 
L 82.215683 162.961058 
L 82.805923 162.003055 
L 94.516408 148.253018 
L 97.679605 147.752247 
L 103.870374 146.789659 
L 107.889583 172.548588 
L 107.800178 174.557279 
L 106.938711 176.374042 
L 106.25631 177.119098 
L 104.522011 178.13643 
z
" style="fill:#f6929c;"/>
   </g>
   <g id="patch_25">
    <path clip-path="url(#p515eea82ef)" d="M 283.350043 179.164239 
L 282.374386 178.901804 
L 280.67247 177.831178 
L 280.013502 177.06532 
L 279.208789 175.222714 
L 278.957483 155.094545 
L 279.71274 153.293557 
L 281.09155 151.910488 
L 281.953974 151.442836 
L 283.865304 151.041815 
L 284.987508 151.124349 
L 302.5864 155.18366 
L 304.488111 157.760495 
L 308.194479 162.811735 
L 287.183427 178.245857 
L 285.3594 179.091884 
z
" style="fill:#f6929c;"/>
   </g>
   <g id="patch_26">
    <path clip-path="url(#p515eea82ef)" d="M 273.855221 176.597677 
L 271.887623 176.183775 
L 255.349345 164.708074 
L 254.32089 163.047878 
L 253.994637 161.122376 
L 254.114244 160.148637 
L 254.896795 158.359331 
L 255.615225 157.493299 
L 269.133769 145.516322 
L 272.335913 145.462898 
L 278.600463 145.375653 
L 278.977358 171.443534 
L 278.607883 173.419975 
L 277.50078 175.09839 
L 276.720879 175.740677 
L 274.861337 176.505439 
z
" style="fill:#f6929c;"/>
   </g>
   <g id="patch_27">
    <path clip-path="url(#p515eea82ef)" d="M 243.698412 169.230066 
L 242.725547 169.10355 
L 240.941841 168.308318 
L 240.080931 167.583758 
L 228.200211 153.980541 
L 228.169519 150.778098 
L 228.126742 144.513087 
L 254.196641 144.321235 
L 256.17041 144.70473 
L 257.840924 145.823718 
L 258.47766 146.608159 
L 259.229203 148.473082 
L 259.314298 149.479827 
L 258.886439 151.444438 
L 247.293636 167.900844 
L 245.626181 168.917488 
z
" style="fill:#f6929c;"/>
   </g>
   <g id="patch_28">
    <path clip-path="url(#p515eea82ef)" d="M 336.355902 227.57588 
L 344.766825 202.197744 
L 361.719501 227.53227 
z
" style="fill:#f6929c;"/>
   </g>
   <g id="patch_29">
    <path clip-path="url(#p515eea82ef)" d="M 315.918867 199.977479 
L 295.339267 185.152025 
L 317.024588 169.514242 
z
" style="fill:#f6929c;"/>
   </g>
   <g id="patch_30">
    <path clip-path="url(#p515eea82ef)" d="M 345.031228 144.906692 
L 324.451628 130.081238 
L 346.136949 114.443456 
z
" style="fill:#f6929c;"/>
   </g>
   <g id="patch_31">
    <path clip-path="url(#p515eea82ef)" d="M 293.578602 200.973529 
L 268.260307 199.457617 
L 278.215651 174.644626 
z
" style="fill:#f6929c;"/>
   </g>
   <g id="patch_32">
    <path clip-path="url(#p515eea82ef)" d="M 287.060473 227.249376 
L 294.890906 201.686166 
L 312.416492 226.627803 
z
" style="fill:#f6929c;"/>
   </g>
   <g id="matplotlib.axis_1">
    <g id="xtick_1">
     <g id="line2d_1">
      <defs>
       <path d="M 0 0 
L 0 3.5 
" id="m79636ce14d" style="stroke:#000000;stroke-width:0.8;"/>
      </defs>
      <g>
       <use style="stroke:#000000;stroke-width:0.8;" x="69.218182" xlink:href="#m79636ce14d" y="252"/>
      </g>
     </g>
     <g id="text_1">
      <!-- 0 -->
      <defs>
       <path d="M 31.78125 66.40625 
Q 24.171875 66.40625 20.328125 58.90625 
Q 16.5 51.421875 16.5 36.375 
Q 16.5 21.390625 20.328125 13.890625 
Q 24.171875 6.390625 31.78125 6.390625 
Q 39.453125 6.390625 43.28125 13.890625 
Q 47.125 21.390625 47.125 36.375 
Q 47.125 51.421875 43.28125 58.90625 
Q 39.453125 66.40625 31.78125 66.40625 
z
M 31.78125 74.21875 
Q 44.046875 74.21875 50.515625 64.515625 
Q 56.984375 54.828125 56.984375 36.375 
Q 56.984375 17.96875 50.515625 8.265625 
Q 44.046875 -1.421875 31.78125 -1.421875 
Q 19.53125 -1.421875 13.0625 8.265625 
Q 6.59375 17.96875 6.59375 36.375 
Q 6.59375 54.828125 13.0625 64.515625 
Q 19.53125 74.21875 31.78125 74.21875 
z
" id="DejaVuSans-48"/>
      </defs>
      <g transform="translate(66.036932 266.598437)scale(0.1 -0.1)">
       <use xlink:href="#DejaVuSans-48"/>
      </g>
     </g>
    </g>
    <g id="xtick_2">
     <g id="line2d_2">
      <g>
       <use style="stroke:#000000;stroke-width:0.8;" x="111.490909" xlink:href="#m79636ce14d" y="252"/>
      </g>
     </g>
     <g id="text_2">
      <!-- 250 -->
      <defs>
       <path d="M 19.1875 8.296875 
L 53.609375 8.296875 
L 53.609375 0 
L 7.328125 0 
L 7.328125 8.296875 
Q 12.9375 14.109375 22.625 23.890625 
Q 32.328125 33.6875 34.8125 36.53125 
Q 39.546875 41.84375 41.421875 45.53125 
Q 43.3125 49.21875 43.3125 52.78125 
Q 43.3125 58.59375 39.234375 62.25 
Q 35.15625 65.921875 28.609375 65.921875 
Q 23.96875 65.921875 18.8125 64.3125 
Q 13.671875 62.703125 7.8125 59.421875 
L 7.8125 69.390625 
Q 13.765625 71.78125 18.9375 73 
Q 24.125 74.21875 28.421875 74.21875 
Q 39.75 74.21875 46.484375 68.546875 
Q 53.21875 62.890625 53.21875 53.421875 
Q 53.21875 48.921875 51.53125 44.890625 
Q 49.859375 40.875 45.40625 35.40625 
Q 44.1875 33.984375 37.640625 27.21875 
Q 31.109375 20.453125 19.1875 8.296875 
z
" id="DejaVuSans-50"/>
       <path d="M 10.796875 72.90625 
L 49.515625 72.90625 
L 49.515625 64.59375 
L 19.828125 64.59375 
L 19.828125 46.734375 
Q 21.96875 47.46875 24.109375 47.828125 
Q 26.265625 48.1875 28.421875 48.1875 
Q 40.625 48.1875 47.75 41.5 
Q 54.890625 34.8125 54.890625 23.390625 
Q 54.890625 11.625 47.5625 5.09375 
Q 40.234375 -1.421875 26.90625 -1.421875 
Q 22.3125 -1.421875 17.546875 -0.640625 
Q 12.796875 0.140625 7.71875 1.703125 
L 7.71875 11.625 
Q 12.109375 9.234375 16.796875 8.0625 
Q 21.484375 6.890625 26.703125 6.890625 
Q 35.15625 6.890625 40.078125 11.328125 
Q 45.015625 15.765625 45.015625 23.390625 
Q 45.015625 31 40.078125 35.4375 
Q 35.15625 39.890625 26.703125 39.890625 
Q 22.75 39.890625 18.8125 39.015625 
Q 14.890625 38.140625 10.796875 36.28125 
z
" id="DejaVuSans-53"/>
      </defs>
      <g transform="translate(101.947159 266.598437)scale(0.1 -0.1)">
       <use xlink:href="#DejaVuSans-50"/>
       <use x="63.623047" xlink:href="#DejaVuSans-53"/>
       <use x="127.246094" xlink:href="#DejaVuSans-48"/>
      </g>
     </g>
    </g>
    <g id="xtick_3">
     <g id="line2d_3">
      <g>
       <use style="stroke:#000000;stroke-width:0.8;" x="153.763636" xlink:href="#m79636ce14d" y="252"/>
      </g>
     </g>
     <g id="text_3">
      <!-- 500 -->
      <g transform="translate(144.219886 266.598437)scale(0.1 -0.1)">
       <use xlink:href="#DejaVuSans-53"/>
       <use x="63.623047" xlink:href="#DejaVuSans-48"/>
       <use x="127.246094" xlink:href="#DejaVuSans-48"/>
      </g>
     </g>
    </g>
    <g id="xtick_4">
     <g id="line2d_4">
      <g>
       <use style="stroke:#000000;stroke-width:0.8;" x="196.036364" xlink:href="#m79636ce14d" y="252"/>
      </g>
     </g>
     <g id="text_4">
      <!-- 750 -->
      <defs>
       <path d="M 8.203125 72.90625 
L 55.078125 72.90625 
L 55.078125 68.703125 
L 28.609375 0 
L 18.3125 0 
L 43.21875 64.59375 
L 8.203125 64.59375 
z
" id="DejaVuSans-55"/>
      </defs>
      <g transform="translate(186.492614 266.598437)scale(0.1 -0.1)">
       <use xlink:href="#DejaVuSans-55"/>
       <use x="63.623047" xlink:href="#DejaVuSans-53"/>
       <use x="127.246094" xlink:href="#DejaVuSans-48"/>
      </g>
     </g>
    </g>
    <g id="xtick_5">
     <g id="line2d_5">
      <g>
       <use style="stroke:#000000;stroke-width:0.8;" x="238.309091" xlink:href="#m79636ce14d" y="252"/>
      </g>
     </g>
     <g id="text_5">
      <!-- 1000 -->
      <defs>
       <path d="M 12.40625 8.296875 
L 28.515625 8.296875 
L 28.515625 63.921875 
L 10.984375 60.40625 
L 10.984375 69.390625 
L 28.421875 72.90625 
L 38.28125 72.90625 
L 38.28125 8.296875 
L 54.390625 8.296875 
L 54.390625 0 
L 12.40625 0 
z
" id="DejaVuSans-49"/>
      </defs>
      <g transform="translate(225.584091 266.598437)scale(0.1 -0.1)">
       <use xlink:href="#DejaVuSans-49"/>
       <use x="63.623047" xlink:href="#DejaVuSans-48"/>
       <use x="127.246094" xlink:href="#DejaVuSans-48"/>
       <use x="190.869141" xlink:href="#DejaVuSans-48"/>
      </g>
     </g>
    </g>
    <g id="xtick_6">
     <g id="line2d_6">
      <g>
       <use style="stroke:#000000;stroke-width:0.8;" x="280.581818" xlink:href="#m79636ce14d" y="252"/>
      </g>
     </g>
     <g id="text_6">
      <!-- 1250 -->
      <g transform="translate(267.856818 266.598437)scale(0.1 -0.1)">
       <use xlink:href="#DejaVuSans-49"/>
       <use x="63.623047" xlink:href="#DejaVuSans-50"/>
       <use x="127.246094" xlink:href="#DejaVuSans-53"/>
       <use x="190.869141" xlink:href="#DejaVuSans-48"/>
      </g>
     </g>
    </g>
    <g id="xtick_7">
     <g id="line2d_7">
      <g>
       <use style="stroke:#000000;stroke-width:0.8;" x="322.854545" xlink:href="#m79636ce14d" y="252"/>
      </g>
     </g>
     <g id="text_7">
      <!-- 1500 -->
      <g transform="translate(310.129545 266.598437)scale(0.1 -0.1)">
       <use xlink:href="#DejaVuSans-49"/>
       <use x="63.623047" xlink:href="#DejaVuSans-53"/>
       <use x="127.246094" xlink:href="#DejaVuSans-48"/>
       <use x="190.869141" xlink:href="#DejaVuSans-48"/>
      </g>
     </g>
    </g>
    <g id="xtick_8">
     <g id="line2d_8">
      <g>
       <use style="stroke:#000000;stroke-width:0.8;" x="365.127273" xlink:href="#m79636ce14d" y="252"/>
      </g>
     </g>
     <g id="text_8">
      <!-- 1750 -->
      <g transform="translate(352.402273 266.598437)scale(0.1 -0.1)">
       <use xlink:href="#DejaVuSans-49"/>
       <use x="63.623047" xlink:href="#DejaVuSans-55"/>
       <use x="127.246094" xlink:href="#DejaVuSans-53"/>
       <use x="190.869141" xlink:href="#DejaVuSans-48"/>
      </g>
     </g>
    </g>
   </g>
   <g id="matplotlib.axis_2">
    <g id="ytick_1">
     <g id="line2d_9">
      <defs>
       <path d="M 0 0 
L -3.5 0 
" id="m948f46a53e" style="stroke:#000000;stroke-width:0.8;"/>
      </defs>
      <g>
       <use style="stroke:#000000;stroke-width:0.8;" x="54" xlink:href="#m948f46a53e" y="227.825455"/>
      </g>
     </g>
     <g id="text_9">
      <!-- 0 -->
      <g transform="translate(40.6375 231.624673)scale(0.1 -0.1)">
       <use xlink:href="#DejaVuSans-48"/>
      </g>
     </g>
    </g>
    <g id="ytick_2">
     <g id="line2d_10">
      <g>
       <use style="stroke:#000000;stroke-width:0.8;" x="54" xlink:href="#m948f46a53e" y="194.007273"/>
      </g>
     </g>
     <g id="text_10">
      <!-- 200 -->
      <g transform="translate(27.9125 197.806491)scale(0.1 -0.1)">
       <use xlink:href="#DejaVuSans-50"/>
       <use x="63.623047" xlink:href="#DejaVuSans-48"/>
       <use x="127.246094" xlink:href="#DejaVuSans-48"/>
      </g>
     </g>
    </g>
    <g id="ytick_3">
     <g id="line2d_11">
      <g>
       <use style="stroke:#000000;stroke-width:0.8;" x="54" xlink:href="#m948f46a53e" y="160.189091"/>
      </g>
     </g>
     <g id="text_11">
      <!-- 400 -->
      <defs>
       <path d="M 37.796875 64.3125 
L 12.890625 25.390625 
L 37.796875 25.390625 
z
M 35.203125 72.90625 
L 47.609375 72.90625 
L 47.609375 25.390625 
L 58.015625 25.390625 
L 58.015625 17.1875 
L 47.609375 17.1875 
L 47.609375 0 
L 37.796875 0 
L 37.796875 17.1875 
L 4.890625 17.1875 
L 4.890625 26.703125 
z
" id="DejaVuSans-52"/>
      </defs>
      <g transform="translate(27.9125 163.98831)scale(0.1 -0.1)">
       <use xlink:href="#DejaVuSans-52"/>
       <use x="63.623047" xlink:href="#DejaVuSans-48"/>
       <use x="127.246094" xlink:href="#DejaVuSans-48"/>
      </g>
     </g>
    </g>
    <g id="ytick_4">
     <g id="line2d_12">
      <g>
       <use style="stroke:#000000;stroke-width:0.8;" x="54" xlink:href="#m948f46a53e" y="126.370909"/>
      </g>
     </g>
     <g id="text_12">
      <!-- 600 -->
      <defs>
       <path d="M 33.015625 40.375 
Q 26.375 40.375 22.484375 35.828125 
Q 18.609375 31.296875 18.609375 23.390625 
Q 18.609375 15.53125 22.484375 10.953125 
Q 26.375 6.390625 33.015625 6.390625 
Q 39.65625 6.390625 43.53125 10.953125 
Q 47.40625 15.53125 47.40625 23.390625 
Q 47.40625 31.296875 43.53125 35.828125 
Q 39.65625 40.375 33.015625 40.375 
z
M 52.59375 71.296875 
L 52.59375 62.3125 
Q 48.875 64.0625 45.09375 64.984375 
Q 41.3125 65.921875 37.59375 65.921875 
Q 27.828125 65.921875 22.671875 59.328125 
Q 17.53125 52.734375 16.796875 39.40625 
Q 19.671875 43.65625 24.015625 45.921875 
Q 28.375 48.1875 33.59375 48.1875 
Q 44.578125 48.1875 50.953125 41.515625 
Q 57.328125 34.859375 57.328125 23.390625 
Q 57.328125 12.15625 50.6875 5.359375 
Q 44.046875 -1.421875 33.015625 -1.421875 
Q 20.359375 -1.421875 13.671875 8.265625 
Q 6.984375 17.96875 6.984375 36.375 
Q 6.984375 53.65625 15.1875 63.9375 
Q 23.390625 74.21875 37.203125 74.21875 
Q 40.921875 74.21875 44.703125 73.484375 
Q 48.484375 72.75 52.59375 71.296875 
z
" id="DejaVuSans-54"/>
      </defs>
      <g transform="translate(27.9125 130.170128)scale(0.1 -0.1)">
       <use xlink:href="#DejaVuSans-54"/>
       <use x="63.623047" xlink:href="#DejaVuSans-48"/>
       <use x="127.246094" xlink:href="#DejaVuSans-48"/>
      </g>
     </g>
    </g>
    <g id="ytick_5">
     <g id="line2d_13">
      <g>
       <use style="stroke:#000000;stroke-width:0.8;" x="54" xlink:href="#m948f46a53e" y="92.552727"/>
      </g>
     </g>
     <g id="text_13">
      <!-- 800 -->
      <defs>
       <path d="M 31.78125 34.625 
Q 24.75 34.625 20.71875 30.859375 
Q 16.703125 27.09375 16.703125 20.515625 
Q 16.703125 13.921875 20.71875 10.15625 
Q 24.75 6.390625 31.78125 6.390625 
Q 38.8125 6.390625 42.859375 10.171875 
Q 46.921875 13.96875 46.921875 20.515625 
Q 46.921875 27.09375 42.890625 30.859375 
Q 38.875 34.625 31.78125 34.625 
z
M 21.921875 38.8125 
Q 15.578125 40.375 12.03125 44.71875 
Q 8.5 49.078125 8.5 55.328125 
Q 8.5 64.0625 14.71875 69.140625 
Q 20.953125 74.21875 31.78125 74.21875 
Q 42.671875 74.21875 48.875 69.140625 
Q 55.078125 64.0625 55.078125 55.328125 
Q 55.078125 49.078125 51.53125 44.71875 
Q 48 40.375 41.703125 38.8125 
Q 48.828125 37.15625 52.796875 32.3125 
Q 56.78125 27.484375 56.78125 20.515625 
Q 56.78125 9.90625 50.3125 4.234375 
Q 43.84375 -1.421875 31.78125 -1.421875 
Q 19.734375 -1.421875 13.25 4.234375 
Q 6.78125 9.90625 6.78125 20.515625 
Q 6.78125 27.484375 10.78125 32.3125 
Q 14.796875 37.15625 21.921875 38.8125 
z
M 18.3125 54.390625 
Q 18.3125 48.734375 21.84375 45.5625 
Q 25.390625 42.390625 31.78125 42.390625 
Q 38.140625 42.390625 41.71875 45.5625 
Q 45.3125 48.734375 45.3125 54.390625 
Q 45.3125 60.0625 41.71875 63.234375 
Q 38.140625 66.40625 31.78125 66.40625 
Q 25.390625 66.40625 21.84375 63.234375 
Q 18.3125 60.0625 18.3125 54.390625 
z
" id="DejaVuSans-56"/>
      </defs>
      <g transform="translate(27.9125 96.351946)scale(0.1 -0.1)">
       <use xlink:href="#DejaVuSans-56"/>
       <use x="63.623047" xlink:href="#DejaVuSans-48"/>
       <use x="127.246094" xlink:href="#DejaVuSans-48"/>
      </g>
     </g>
    </g>
    <g id="ytick_6">
     <g id="line2d_14">
      <g>
       <use style="stroke:#000000;stroke-width:0.8;" x="54" xlink:href="#m948f46a53e" y="58.734545"/>
      </g>
     </g>
     <g id="text_14">
      <!-- 1000 -->
      <g transform="translate(21.55 62.533764)scale(0.1 -0.1)">
       <use xlink:href="#DejaVuSans-49"/>
       <use x="63.623047" xlink:href="#DejaVuSans-48"/>
       <use x="127.246094" xlink:href="#DejaVuSans-48"/>
       <use x="190.869141" xlink:href="#DejaVuSans-48"/>
      </g>
     </g>
    </g>
   </g>
   <g id="line2d_15">
    <path clip-path="url(#p515eea82ef)" d="M 69.218182 227.825455 
L 373.581818 227.825455 
L 373.581818 58.734545 
L 69.218182 58.734545 
L 69.218182 227.825455 
" style="fill:none;stroke:#000000;stroke-linecap:square;stroke-width:1.5;"/>
   </g>
   <g id="line2d_16">
    <path clip-path="url(#p515eea82ef)" d="M 69.218182 172.860638 
L 69.218182 227.825455 
L 174.907336 227.825455 
L 69.218182 172.860638 
" style="fill:none;stroke:#000000;stroke-dasharray:5.55,2.4;stroke-dashoffset:0;stroke-width:1.5;"/>
   </g>
   <g id="line2d_17">
    <path clip-path="url(#p515eea82ef)" d="M 105.040687 136.800432 
L 107.85789 170.606875 
L 145.608419 168.916553 
L 140.537452 132.292906 
L 105.040687 136.800432 
" style="fill:none;stroke:#000000;stroke-dasharray:5.55,2.4;stroke-dashoffset:0;stroke-width:1.5;"/>
   </g>
   <g id="line2d_18">
    <path clip-path="url(#p515eea82ef)" d="M 89.827787 58.734545 
L 88.700906 58.734545 
L 97.152516 91.725174 
L 207.412119 122.702872 
L 206.460017 144.125161 
L 276.890108 144.125161 
L 292.666448 58.734545 
L 117.436383 58.734545 
L 89.827787 58.734545 
" style="fill:none;stroke:#000000;stroke-dasharray:5.55,2.4;stroke-dashoffset:0;stroke-width:1.5;"/>
   </g>
   <g id="line2d_19">
    <path clip-path="url(#p515eea82ef)" d="M 319.802429 86.777405 
L 337.015465 64.836681 
L 329.53282 58.954645 
L 309.051721 85.033025 
L 352.786557 119.388432 
L 373.270762 93.317869 
L 366.966996 88.365799 
L 349.738802 110.294615 
L 319.802429 86.777405 
" style="fill:none;stroke:#ff0000;stroke-linecap:square;stroke-width:1.5;"/>
   </g>
   <g id="line2d_20">
    <path clip-path="url(#p515eea82ef)" d="M 319.944395 129.363439 
L 337.157431 107.422715 
L 329.674786 101.540679 
L 309.193687 127.619058 
L 352.928522 161.974466 
L 373.412727 135.903902 
L 367.108961 130.951833 
L 349.880767 152.880649 
L 319.944395 129.363439 
" style="fill:none;stroke:#ff0000;stroke-linecap:square;stroke-width:1.5;"/>
   </g>
   <g id="line2d_21">
    <path clip-path="url(#p515eea82ef)" d="M 327.025217 176.793881 
L 326.411637 148.913646 
L 316.895953 149.113843 
L 317.60826 182.265765 
L 373.210568 181.076993 
L 372.505621 147.929143 
L 364.491187 148.10032 
L 365.085494 175.980967 
L 327.025217 176.793881 
" style="fill:none;stroke:#ff0000;stroke-linecap:square;stroke-width:1.5;"/>
   </g>
   <g id="line2d_22">
    <path clip-path="url(#p515eea82ef)" d="M 290.412865 104.331313 
L 318.072767 107.882902 
L 319.294063 98.443794 
L 286.406714 94.203562 
L 279.289167 149.361248 
L 312.171393 153.60815 
L 313.197474 145.657829 
L 285.540039 142.087122 
L 290.412865 104.331313 
" style="fill:none;stroke:#ff0000;stroke-linecap:square;stroke-width:1.5;"/>
   </g>
   <g id="line2d_23">
    <path clip-path="url(#p515eea82ef)" d="M 292.760433 186.207742 
L 315.545928 170.129645 
L 310.06603 162.347676 
L 282.962524 181.451529 
L 314.998552 226.912752 
L 342.102791 207.817277 
L 337.485307 201.264468 
L 314.688709 217.326808 
L 292.760433 186.207742 
" style="fill:none;stroke:#ff0000;stroke-linecap:square;stroke-width:1.5;"/>
   </g>
   <g id="line2d_24">
    <path clip-path="url(#p515eea82ef)" d="M 349.74 84.267273 
L 348.544346 83.772017 
L 348.049091 82.576364 
L 348.049091 60.594545 
L 348.544346 59.398892 
L 349.74 58.903636 
L 371.721818 58.903636 
L 372.917472 59.398892 
L 373.412727 60.594545 
L 373.412727 82.576364 
L 372.917472 83.772017 
L 371.721818 84.267273 
L 349.74 84.267273 
" style="fill:none;stroke:#ff0000;stroke-linecap:square;stroke-width:1.5;"/>
   </g>
   <g id="line2d_25">
    <path clip-path="url(#p515eea82ef)" d="M 349.74 207.189207 
L 348.544346 206.693951 
L 348.049091 205.498297 
L 348.049091 183.516479 
L 348.544346 182.320826 
L 349.74 181.82557 
L 371.721818 181.82557 
L 372.917472 182.320826 
L 373.412727 183.516479 
L 373.412727 205.498297 
L 372.917472 206.693951 
L 371.721818 207.189207 
L 349.74 207.189207 
" style="fill:none;stroke:#ff0000;stroke-linecap:square;stroke-width:1.5;"/>
   </g>
   <g id="line2d_26">
    <path clip-path="url(#p515eea82ef)" d="M 144.955213 132.508105 
L 123.956327 126.008326 
L 122.96058 125.181675 
L 122.841012 123.893044 
L 129.340791 102.894158 
L 130.167442 101.898411 
L 131.456073 101.778843 
L 152.454958 108.278622 
L 153.450706 109.105273 
L 153.570274 110.393904 
L 147.070495 131.392789 
L 146.243844 132.388537 
L 144.955213 132.508105 
" style="fill:none;stroke:#ff0000;stroke-linecap:square;stroke-width:1.5;"/>
   </g>
   <g id="line2d_27">
    <path clip-path="url(#p515eea82ef)" d="M 120.18496 124.947007 
L 99.081261 118.796054 
L 98.071953 117.986015 
L 97.931049 116.699542 
L 104.082002 95.595843 
L 104.892041 94.586535 
L 106.178514 94.445632 
L 127.282213 100.596585 
L 128.291521 101.406624 
L 128.432424 102.693096 
L 122.281471 123.796795 
L 121.471432 124.806103 
L 120.18496 124.947007 
" style="fill:none;stroke:#ff0000;stroke-linecap:square;stroke-width:1.5;"/>
   </g>
   <g id="line2d_28">
    <path clip-path="url(#p515eea82ef)" d="M 322.534392 88.416977 
L 322.534392 86.726068 
L 340.170479 60.68296 
L 341.34061 59.526097 
L 342.863791 58.903636 
L 344.50924 58.909889 
L 346.027646 59.543911 
L 347.188949 60.709637 
L 347.817194 62.230441 
L 347.898028 88.416977 
L 322.534392 88.416977 
" style="fill:none;stroke:#ff0000;stroke-linecap:square;stroke-width:1.5;"/>
   </g>
   <g id="line2d_29">
    <path clip-path="url(#p515eea82ef)" d="M 349.90183 148.992467 
L 348.260279 148.879108 
L 346.786369 148.147583 
L 345.703419 146.908728 
L 345.175511 145.350251 
L 346.799603 119.214002 
L 372.109436 120.865186 
L 371.999357 122.552508 
L 352.705264 147.392254 
L 351.462303 148.470487 
L 349.90183 148.992467 
" style="fill:none;stroke:#ff0000;stroke-linecap:square;stroke-width:1.5;"/>
   </g>
   <g id="line2d_30">
    <path clip-path="url(#p515eea82ef)" d="M 313.351029 143.864775 
L 287.225865 142.071166 
L 289.041204 116.772577 
L 290.727777 116.893599 
L 315.441836 136.348427 
L 316.511982 137.598357 
L 317.023829 139.162183 
L 316.899823 140.802964 
L 316.158751 142.272097 
L 314.912897 143.346988 
L 313.351029 143.864775 
" style="fill:none;stroke:#ff0000;stroke-linecap:square;stroke-width:1.5;"/>
   </g>
   <g id="line2d_31">
    <path clip-path="url(#p515eea82ef)" d="M 318.729371 211.535211 
L 317.085322 211.467093 
L 315.591828 210.77643 
L 314.475177 209.567864 
L 313.904558 208.024512 
L 313.966427 206.380216 
L 324.794036 182.536892 
L 347.855501 193.095436 
L 347.151598 194.632867 
L 320.27488 210.970463 
L 318.729371 211.535211 
" style="fill:none;stroke:#ff0000;stroke-linecap:square;stroke-width:1.5;"/>
   </g>
   <g id="line2d_32">
    <path clip-path="url(#p515eea82ef)" d="M 305.058903 88.416977 
L 303.413454 88.410724 
L 301.895048 87.776702 
L 300.733745 86.610976 
L 300.105499 85.090172 
L 300.024665 58.903636 
L 325.388302 58.903636 
L 325.388302 60.594545 
L 307.752215 86.637653 
L 306.582084 87.794516 
L 305.058903 88.416977 
" style="fill:none;stroke:#ff0000;stroke-linecap:square;stroke-width:1.5;"/>
   </g>
   <g id="line2d_33">
    <path clip-path="url(#p515eea82ef)" d="M 353.810588 175.436204 
L 327.682381 173.687499 
L 329.454236 148.385828 
L 331.141014 148.503951 
L 355.888474 167.916274 
L 356.960767 169.164363 
L 357.4753 170.727306 
L 357.354115 172.368299 
L 356.615569 173.838704 
L 355.371564 174.915734 
L 353.810588 175.436204 
" style="fill:none;stroke:#ff0000;stroke-linecap:square;stroke-width:1.5;"/>
   </g>
   <g id="line2d_34">
    <path clip-path="url(#p515eea82ef)" d="M 75.653613 97.239415 
L 69.388456 97.236372 
L 69.387273 71.165766 
L 69.785193 69.194854 
L 70.916369 67.532569 
L 71.705445 66.901588 
L 73.575815 66.163704 
L 74.583156 66.085974 
L 76.544585 66.528189 
L 92.915765 78.241037 
L 93.920187 79.915882 
L 94.218658 81.845886 
L 94.085031 82.8178 
L 93.276775 84.595642 
L 92.545938 85.451231 
L 78.856195 97.232144 
L 75.653613 97.239415 
" style="fill:none;stroke:#ff0000;stroke-linecap:square;stroke-width:1.5;"/>
   </g>
   <g id="line2d_35">
    <path clip-path="url(#p515eea82ef)" d="M 92.212104 121.850677 
L 90.233827 121.491267 
L 73.384963 110.476633 
L 72.311056 108.84547 
L 71.931755 106.929712 
L 72.024428 105.953041 
L 72.75727 104.142808 
L 73.451512 103.257268 
L 86.634165 90.911554 
L 89.833613 90.769726 
L 96.093365 90.509523 
L 97.18996 116.557055 
L 96.875204 118.542946 
L 95.814872 120.251292 
L 95.053004 120.914871 
L 93.215289 121.730691 
L 92.212104 121.850677 
" style="fill:none;stroke:#ff0000;stroke-linecap:square;stroke-width:1.5;"/>
   </g>
   <g id="line2d_36">
    <path clip-path="url(#p515eea82ef)" d="M 95.960475 147.812319 
L 94.98019 147.773402 
L 93.132457 147.141038 
L 92.210141 146.496456 
L 79.15937 134.01141 
L 78.84212 130.824572 
L 78.238674 124.588544 
L 104.186731 122.0637 
L 106.186906 122.268964 
L 107.950884 123.233917 
L 108.655285 123.958207 
L 109.570758 125.748366 
L 109.745634 126.743451 
L 109.495365 128.738476 
L 99.422274 146.166591 
L 97.852523 147.328423 
L 95.960475 147.812319 
" style="fill:none;stroke:#ff0000;stroke-linecap:square;stroke-width:1.5;"/>
   </g>
   <g id="line2d_37">
    <path clip-path="url(#p515eea82ef)" d="M 103.538686 178.368483 
L 101.532538 178.23385 
L 83.55176 169.184099 
L 82.301209 167.684068 
L 81.70885 165.823125 
L 81.691088 164.842228 
L 82.215683 162.961058 
L 82.805923 162.003055 
L 94.516408 148.253018 
L 97.679605 147.752247 
L 103.870374 146.789659 
L 107.889583 172.548588 
L 107.800178 174.557279 
L 106.938711 176.374042 
L 106.25631 177.119098 
L 104.522011 178.13643 
L 103.538686 178.368483 
" style="fill:none;stroke:#ff0000;stroke-linecap:square;stroke-width:1.5;"/>
   </g>
   <g id="line2d_38">
    <path clip-path="url(#p515eea82ef)" d="M 283.350043 179.164239 
L 282.374386 178.901804 
L 280.67247 177.831178 
L 280.013502 177.06532 
L 279.208789 175.222714 
L 278.957483 155.094545 
L 279.71274 153.293557 
L 281.09155 151.910488 
L 281.953974 151.442836 
L 283.865304 151.041815 
L 284.987508 151.124349 
L 302.5864 155.18366 
L 304.488111 157.760495 
L 308.194479 162.811735 
L 287.183427 178.245857 
L 285.3594 179.091884 
L 283.350043 179.164239 
" style="fill:none;stroke:#ff0000;stroke-linecap:square;stroke-width:1.5;"/>
   </g>
   <g id="line2d_39">
    <path clip-path="url(#p515eea82ef)" d="M 273.855221 176.597677 
L 271.887623 176.183775 
L 255.349345 164.708074 
L 254.32089 163.047878 
L 253.994637 161.122376 
L 254.114244 160.148637 
L 254.896795 158.359331 
L 255.615225 157.493299 
L 269.133769 145.516322 
L 272.335913 145.462898 
L 278.600463 145.375653 
L 278.977358 171.443534 
L 278.607883 173.419975 
L 277.50078 175.09839 
L 276.720879 175.740677 
L 274.861337 176.505439 
L 273.855221 176.597677 
" style="fill:none;stroke:#ff0000;stroke-linecap:square;stroke-width:1.5;"/>
   </g>
   <g id="line2d_40">
    <path clip-path="url(#p515eea82ef)" d="M 243.698412 169.230066 
L 242.725547 169.10355 
L 240.941841 168.308318 
L 240.080931 167.583758 
L 228.200211 153.980541 
L 228.169519 150.778098 
L 228.126742 144.513087 
L 254.196641 144.321235 
L 256.17041 144.70473 
L 257.840924 145.823718 
L 258.47766 146.608159 
L 259.229203 148.473082 
L 259.314298 149.479827 
L 258.886439 151.444438 
L 247.293636 167.900844 
L 245.626181 168.917488 
L 243.698412 169.230066 
" style="fill:none;stroke:#ff0000;stroke-linecap:square;stroke-width:1.5;"/>
   </g>
   <g id="line2d_41">
    <path clip-path="url(#p515eea82ef)" d="M 336.355902 227.57588 
L 344.766825 202.197744 
L 361.719501 227.53227 
L 336.355902 227.57588 
" style="fill:none;stroke:#ff0000;stroke-linecap:square;stroke-width:1.5;"/>
   </g>
   <g id="line2d_42">
    <path clip-path="url(#p515eea82ef)" d="M 315.918867 199.977479 
L 295.339267 185.152025 
L 317.024588 169.514242 
L 315.918867 199.977479 
" style="fill:none;stroke:#ff0000;stroke-linecap:square;stroke-width:1.5;"/>
   </g>
   <g id="line2d_43">
    <path clip-path="url(#p515eea82ef)" d="M 345.031228 144.906692 
L 324.451628 130.081238 
L 346.136949 114.443456 
L 345.031228 144.906692 
" style="fill:none;stroke:#ff0000;stroke-linecap:square;stroke-width:1.5;"/>
   </g>
   <g id="line2d_44">
    <path clip-path="url(#p515eea82ef)" d="M 293.578602 200.973529 
L 268.260307 199.457617 
L 278.215651 174.644626 
L 293.578602 200.973529 
" style="fill:none;stroke:#ff0000;stroke-linecap:square;stroke-width:1.5;"/>
   </g>
   <g id="line2d_45">
    <path clip-path="url(#p515eea82ef)" d="M 287.060473 227.249376 
L 294.890906 201.686166 
L 312.416492 226.627803 
L 287.060473 227.249376 
" style="fill:none;stroke:#ff0000;stroke-linecap:square;stroke-width:1.5;"/>
   </g>
   <g id="patch_33">
    <path d="M 54 252 
L 54 34.56 
" style="fill:none;stroke:#000000;stroke-linecap:square;stroke-linejoin:miter;stroke-width:0.8;"/>
   </g>
   <g id="patch_34">
    <path d="M 388.8 252 
L 388.8 34.56 
" style="fill:none;stroke:#000000;stroke-linecap:square;stroke-linejoin:miter;stroke-width:0.8;"/>
   </g>
   <g id="patch_35">
    <path d="M 54 252 
L 388.8 252 
" style="fill:none;stroke:#000000;stroke-linecap:square;stroke-linejoin:miter;stroke-width:0.8;"/>
   </g>
   <g id="patch_36">
    <path d="M 54 34.56 
L 388.8 34.56 
" style="fill:none;stroke:#000000;stroke-linecap:square;stroke-linejoin:miter;stroke-width:0.8;"/>
   </g>
  </g>
 </g>
 <defs>
  <clipPath id="p515eea82ef">
   <rect height="217.44" width="334.8" x="54" y="34.56"/>
  </clipPath>
 </defs>
</svg>
