<?xml version="1.0" encoding="utf-8" standalone="no"?>
<!DOCTYPE svg PUBLIC "-//W3C//DTD SVG 1.1//EN"
  "http://www.w3.org/Graphics/SVG/1.1/DTD/svg11.dtd">
<!-- Created with matplotlib (https://matplotlib.org/) -->
<svg height="288pt" version="1.1" viewBox="0 0 432 288" width="432pt" xmlns="http://www.w3.org/2000/svg" xmlns:xlink="http://www.w3.org/1999/xlink">
 <defs>
  <style type="text/css">
*{stroke-linecap:butt;stroke-linejoin:round;}
  </style>
 </defs>
 <g id="figure_1">
  <g id="patch_1">
   <path d="M 0 288 
L 432 288 
L 432 0 
L 0 0 
z
" style="fill:#ffffff;"/>
  </g>
  <g id="axes_1">
   <g id="patch_2">
    <path d="M 54 252 
L 388.8 252 
L 388.8 34.56 
L 54 34.56 
z
" style="fill:#ffffff;"/>
   </g>
   <g id="patch_3">
    <path clip-path="url(#p43a185562a)" d="M 69.218182 172.860638 
L 69.218182 227.825455 
L 174.907336 227.825455 
z
" style="fill:#aaaaaa;"/>
   </g>
   <g id="patch_4">
    <path clip-path="url(#p43a185562a)" d="M 105.040687 136.800432 
L 107.85789 170.606875 
L 145.608419 168.916553 
L 140.537452 132.292906 
z
" style="fill:#aaaaaa;"/>
   </g>
   <g id="patch_5">
    <path clip-path="url(#p43a185562a)" d="M 89.827787 58.734545 
L 88.700906 58.734545 
L 97.152516 91.725174 
L 207.412119 122.702872 
L 206.460017 144.125161 
L 276.890108 144.125161 
L 292.666448 58.734545 
L 117.436383 58.734545 
z
" style="fill:#aaaaaa;"/>
   </g>
   <g id="patch_6">
    <path clip-path="url(#p43a185562a)" d="M 97.277296 162.996851 
L 69.390316 163.014943 
L 69.387273 172.532733 
L 102.546845 172.528505 
L 102.545662 116.913491 
L 69.390316 116.910447 
L 69.390316 124.926709 
L 97.277296 124.927893 
z
" style="fill:#f6929c;"/>
   </g>
   <g id="patch_7">
    <path clip-path="url(#p43a185562a)" d="M 149.97718 170.189357 
L 122.0902 170.20745 
L 122.087156 179.725239 
L 155.246729 179.721012 
L 155.245545 124.105997 
L 122.0902 124.102954 
L 122.0902 132.119215 
L 149.97718 132.120399 
z
" style="fill:#f6929c;"/>
   </g>
   <g id="patch_8">
    <path clip-path="url(#p43a185562a)" d="M 148.253963 201.673302 
L 128.522097 181.967023 
L 121.789851 188.694964 
L 145.240199 212.139334 
L 184.565116 172.812743 
L 161.122899 149.366221 
L 155.454545 155.034574 
L 175.172781 174.754484 
z
" style="fill:#f6929c;"/>
   </g>
   <g id="patch_9">
    <path clip-path="url(#p43a185562a)" d="M 69.387273 116.732727 
L 69.387273 91.369091 
L 94.750909 91.369091 
L 94.750909 116.732727 
z
" style="fill:#f6929c;"/>
   </g>
   <g id="patch_10">
    <path clip-path="url(#p43a185562a)" d="M 69.387273 162.741749 
L 69.387273 137.378113 
L 94.750909 137.378113 
L 94.750909 162.741749 
z
" style="fill:#f6929c;"/>
   </g>
   <g id="patch_11">
    <path clip-path="url(#p43a185562a)" d="M 155.454545 149.198182 
L 155.454545 123.834545 
L 180.818182 123.834545 
L 180.818182 149.198182 
z
" style="fill:#f6929c;"/>
   </g>
   <g id="patch_12">
    <path clip-path="url(#p43a185562a)" d="M 168.962683 224.532811 
L 151.027884 206.598012 
L 168.962683 188.663212 
L 186.897483 206.598012 
z
" style="fill:#f6929c;"/>
   </g>
   <g id="patch_13">
    <path clip-path="url(#p43a185562a)" d="M 187.041317 206.416732 
L 169.106518 188.481933 
L 187.041317 170.547133 
L 204.976116 188.481933 
z
" style="fill:#f6929c;"/>
   </g>
   <g id="patch_14">
    <path clip-path="url(#p43a185562a)" d="M 191.467566 174.657527 
L 173.532767 156.722727 
L 191.467566 138.787928 
L 209.402366 156.722727 
z
" style="fill:#f6929c;"/>
   </g>
   <g id="patch_15">
    <path clip-path="url(#p43a185562a)" d="M 201.906898 227.656364 
L 183.972099 209.721564 
L 201.906898 191.786765 
L 219.841698 209.721564 
z
" style="fill:#f6929c;"/>
   </g>
   <g id="patch_16">
    <path clip-path="url(#p43a185562a)" d="M 106.360399 130.896531 
L 105.164746 129.700878 
L 99.220084 98.815023 
L 99.229466 97.16959 
L 99.866372 95.652392 
L 101.034301 94.493305 
L 102.556298 93.867951 
L 104.201756 93.871079 
L 105.721363 94.502213 
L 124.295198 112.961732 
z
" style="fill:#f6929c;"/>
   </g>
   <g id="patch_17">
    <path clip-path="url(#p43a185562a)" d="M 118.198666 198.011866 
L 92.155558 180.375779 
L 90.998696 179.205648 
L 90.376235 177.682467 
L 90.382488 176.037018 
L 91.016509 174.518612 
L 92.182236 173.357309 
L 93.703039 172.729064 
L 119.889575 172.64823 
L 119.889575 198.011866 
z
" style="fill:#f6929c;"/>
   </g>
   <g id="patch_18">
    <path clip-path="url(#p43a185562a)" d="M 215.126106 201.760413 
L 213.563909 201.11333 
L 196.252253 174.853444 
L 195.631242 173.329672 
L 195.639059 171.684231 
L 196.274522 170.166427 
L 197.44135 169.006232 
L 198.962752 168.379432 
L 200.608211 168.380996 
L 224.832349 178.327468 
z
" style="fill:#f6929c;"/>
   </g>
   <g id="patch_19">
    <path clip-path="url(#p43a185562a)" d="M 223.093095 177.402155 
L 199.660151 167.695911 
L 200.307234 166.133715 
L 226.56712 148.822059 
L 228.090892 148.201047 
L 229.736333 148.208865 
L 231.254137 148.844328 
L 232.414331 150.011156 
L 233.041131 151.532558 
L 233.039568 153.178016 
z
" style="fill:#f6929c;"/>
   </g>
   <g id="patch_20">
    <path clip-path="url(#p43a185562a)" d="M 209.089784 227.656364 
L 209.089784 225.965455 
L 226.725871 199.922347 
L 227.896002 198.765484 
L 229.419183 198.143023 
L 231.064632 198.149276 
L 232.583038 198.783298 
L 233.744341 199.949024 
L 234.372586 201.469828 
L 234.45342 227.656364 
z
" style="fill:#f6929c;"/>
   </g>
   <g id="patch_21">
    <path clip-path="url(#p43a185562a)" d="M 221.204301 201.255361 
L 220.557218 199.693165 
L 226.884572 168.883432 
L 227.52292 167.366841 
L 228.691951 166.208866 
L 230.21454 165.584957 
L 231.859994 165.589648 
L 233.379002 166.222227 
L 234.541411 167.386847 
L 244.637246 191.549118 
z
" style="fill:#f6929c;"/>
   </g>
   <g id="patch_22">
    <path clip-path="url(#p43a185562a)" d="M 241.225056 181.30859 
L 240.029403 180.112937 
L 234.084741 149.227082 
L 234.094124 147.581649 
L 234.731029 146.064451 
L 235.898959 144.905364 
L 237.420955 144.28001 
L 239.066413 144.283138 
L 240.58602 144.914272 
L 259.159855 163.373791 
z
" style="fill:#f6929c;"/>
   </g>
   <g id="patch_23">
    <path clip-path="url(#p43a185562a)" d="M 69.387273 91.2 
L 75.365539 61.308668 
L 93.300338 79.243467 
z
" style="fill:#f6929c;"/>
   </g>
   <g id="patch_24">
    <path clip-path="url(#p43a185562a)" d="M 119.779928 124.467961 
L 129.486171 101.035016 
L 149.683701 118.552241 
z
" style="fill:#f6929c;"/>
   </g>
   <g id="patch_25">
    <path clip-path="url(#p43a185562a)" d="M 182.273001 141.92012 
L 180.37774 115.251761 
L 205.705946 132.213877 
z
" style="fill:#f6929c;"/>
   </g>
   <g id="patch_26">
    <path clip-path="url(#p43a185562a)" d="M 239.476501 226.136411 
L 233.560782 196.232638 
L 256.993726 205.938881 
z
" style="fill:#f6929c;"/>
   </g>
   <g id="patch_27">
    <path clip-path="url(#p43a185562a)" d="M 261.646761 205.606978 
L 236.283125 197.152432 
L 261.646761 180.243341 
z
" style="fill:#f6929c;"/>
   </g>
   <g id="patch_28">
    <path clip-path="url(#p43a185562a)" d="M 263.481404 169.658182 
L 246.572313 144.294545 
L 271.935949 144.294545 
z
" style="fill:#f6929c;"/>
   </g>
   <g id="patch_29">
    <path clip-path="url(#p43a185562a)" d="M 247.181931 227.656364 
L 264.144046 202.328157 
L 273.85029 225.761102 
z
" style="fill:#f6929c;"/>
   </g>
   <g id="patch_30">
    <path clip-path="url(#p43a185562a)" d="M 276.568792 190.105729 
L 270.001808 188.471803 
L 263.502292 186.604702 
L 261.633837 180.100451 
L 260.001265 173.538202 
L 264.699794 168.668045 
L 269.566399 163.973067 
L 276.133383 165.606993 
L 282.632899 167.474094 
L 284.501354 173.978345 
L 286.133926 180.540594 
L 281.435397 185.410751 
z
" style="fill:#f6929c;"/>
   </g>
   <g id="patch_31">
    <path clip-path="url(#p43a185562a)" d="M 282.241746 214.569562 
L 275.517575 213.80672 
L 268.830089 212.803756 
L 266.1287 206.599153 
L 263.653475 200.306306 
L 267.676101 194.86448 
L 271.888336 189.574219 
L 278.612507 190.337061 
L 285.299993 191.340025 
L 288.001381 197.544628 
L 290.476606 203.837475 
L 286.45398 209.279301 
z
" style="fill:#f6929c;"/>
   </g>
   <g id="patch_32">
    <path clip-path="url(#p43a185562a)" d="M 286.311326 168.136868 
L 279.744343 166.502943 
L 273.244826 164.635841 
L 271.376372 158.13159 
L 269.743799 151.569341 
L 274.442328 146.699184 
L 279.308934 142.004206 
L 285.875917 143.638132 
L 292.375434 145.505233 
L 294.243888 152.009484 
L 295.876461 158.571733 
L 291.177932 163.44189 
z
" style="fill:#f6929c;"/>
   </g>
   <g id="patch_33">
    <path clip-path="url(#p43a185562a)" d="M 289.894673 144.623663 
L 284.452847 140.601037 
L 279.162586 136.388803 
L 279.925428 129.664632 
L 280.928391 122.977146 
L 287.132995 120.275757 
L 293.425842 117.800532 
L 298.867668 121.823159 
L 304.157929 126.035393 
L 303.395087 132.759564 
L 302.392123 139.44705 
L 296.18752 142.148439 
z
" style="fill:#f6929c;"/>
   </g>
   <g id="patch_34">
    <path clip-path="url(#p43a185562a)" d="M 301.568299 199.167647 
L 294.844128 198.404804 
L 288.156642 197.401841 
L 285.455253 191.197238 
L 282.980028 184.90439 
L 287.002654 179.462565 
L 291.214889 174.172304 
L 297.93906 174.935146 
L 304.626546 175.938109 
L 307.327934 182.142712 
L 309.803159 188.43556 
L 305.780533 193.877385 
z
" style="fill:#f6929c;"/>
   </g>
   <g id="patch_35">
    <path clip-path="url(#p43a185562a)" d="M 294.709149 118.480537 
L 289.267324 114.457911 
L 283.977063 110.245677 
L 284.739905 103.521506 
L 285.742868 96.83402 
L 291.947471 94.132631 
L 298.240319 91.657406 
L 303.682144 95.680032 
L 308.972406 99.892267 
L 308.209563 106.616437 
L 307.2066 113.303924 
L 301.001997 116.005312 
z
" style="fill:#f6929c;"/>
   </g>
   <g id="patch_36">
    <path clip-path="url(#p43a185562a)" d="M 302.184605 227.656364 
L 295.460434 226.893521 
L 288.772948 225.890558 
L 286.071559 219.685955 
L 283.596334 213.393107 
L 287.61896 207.951282 
L 291.831195 202.661021 
L 298.555365 203.423863 
L 305.242852 204.426826 
L 307.94424 210.631429 
L 310.419465 216.924277 
L 306.396839 222.366102 
z
" style="fill:#f6929c;"/>
   </g>
   <g id="matplotlib.axis_1">
    <g id="xtick_1">
     <g id="line2d_1">
      <defs>
       <path d="M 0 0 
L 0 3.5 
" id="m51678e143e" style="stroke:#000000;stroke-width:0.8;"/>
      </defs>
      <g>
       <use style="stroke:#000000;stroke-width:0.8;" x="69.218182" xlink:href="#m51678e143e" y="252"/>
      </g>
     </g>
     <g id="text_1">
      <!-- 0 -->
      <defs>
       <path d="M 31.78125 66.40625 
Q 24.171875 66.40625 20.328125 58.90625 
Q 16.5 51.421875 16.5 36.375 
Q 16.5 21.390625 20.328125 13.890625 
Q 24.171875 6.390625 31.78125 6.390625 
Q 39.453125 6.390625 43.28125 13.890625 
Q 47.125 21.390625 47.125 36.375 
Q 47.125 51.421875 43.28125 58.90625 
Q 39.453125 66.40625 31.78125 66.40625 
z
M 31.78125 74.21875 
Q 44.046875 74.21875 50.515625 64.515625 
Q 56.984375 54.828125 56.984375 36.375 
Q 56.984375 17.96875 50.515625 8.265625 
Q 44.046875 -1.421875 31.78125 -1.421875 
Q 19.53125 -1.421875 13.0625 8.265625 
Q 6.59375 17.96875 6.59375 36.375 
Q 6.59375 54.828125 13.0625 64.515625 
Q 19.53125 74.21875 31.78125 74.21875 
z
" id="DejaVuSans-48"/>
      </defs>
      <g transform="translate(66.036932 266.598437)scale(0.1 -0.1)">
       <use xlink:href="#DejaVuSans-48"/>
      </g>
     </g>
    </g>
    <g id="xtick_2">
     <g id="line2d_2">
      <g>
       <use style="stroke:#000000;stroke-width:0.8;" x="111.490909" xlink:href="#m51678e143e" y="252"/>
      </g>
     </g>
     <g id="text_2">
      <!-- 250 -->
      <defs>
       <path d="M 19.1875 8.296875 
L 53.609375 8.296875 
L 53.609375 0 
L 7.328125 0 
L 7.328125 8.296875 
Q 12.9375 14.109375 22.625 23.890625 
Q 32.328125 33.6875 34.8125 36.53125 
Q 39.546875 41.84375 41.421875 45.53125 
Q 43.3125 49.21875 43.3125 52.78125 
Q 43.3125 58.59375 39.234375 62.25 
Q 35.15625 65.921875 28.609375 65.921875 
Q 23.96875 65.921875 18.8125 64.3125 
Q 13.671875 62.703125 7.8125 59.421875 
L 7.8125 69.390625 
Q 13.765625 71.78125 18.9375 73 
Q 24.125 74.21875 28.421875 74.21875 
Q 39.75 74.21875 46.484375 68.546875 
Q 53.21875 62.890625 53.21875 53.421875 
Q 53.21875 48.921875 51.53125 44.890625 
Q 49.859375 40.875 45.40625 35.40625 
Q 44.1875 33.984375 37.640625 27.21875 
Q 31.109375 20.453125 19.1875 8.296875 
z
" id="DejaVuSans-50"/>
       <path d="M 10.796875 72.90625 
L 49.515625 72.90625 
L 49.515625 64.59375 
L 19.828125 64.59375 
L 19.828125 46.734375 
Q 21.96875 47.46875 24.109375 47.828125 
Q 26.265625 48.1875 28.421875 48.1875 
Q 40.625 48.1875 47.75 41.5 
Q 54.890625 34.8125 54.890625 23.390625 
Q 54.890625 11.625 47.5625 5.09375 
Q 40.234375 -1.421875 26.90625 -1.421875 
Q 22.3125 -1.421875 17.546875 -0.640625 
Q 12.796875 0.140625 7.71875 1.703125 
L 7.71875 11.625 
Q 12.109375 9.234375 16.796875 8.0625 
Q 21.484375 6.890625 26.703125 6.890625 
Q 35.15625 6.890625 40.078125 11.328125 
Q 45.015625 15.765625 45.015625 23.390625 
Q 45.015625 31 40.078125 35.4375 
Q 35.15625 39.890625 26.703125 39.890625 
Q 22.75 39.890625 18.8125 39.015625 
Q 14.890625 38.140625 10.796875 36.28125 
z
" id="DejaVuSans-53"/>
      </defs>
      <g transform="translate(101.947159 266.598437)scale(0.1 -0.1)">
       <use xlink:href="#DejaVuSans-50"/>
       <use x="63.623047" xlink:href="#DejaVuSans-53"/>
       <use x="127.246094" xlink:href="#DejaVuSans-48"/>
      </g>
     </g>
    </g>
    <g id="xtick_3">
     <g id="line2d_3">
      <g>
       <use style="stroke:#000000;stroke-width:0.8;" x="153.763636" xlink:href="#m51678e143e" y="252"/>
      </g>
     </g>
     <g id="text_3">
      <!-- 500 -->
      <g transform="translate(144.219886 266.598437)scale(0.1 -0.1)">
       <use xlink:href="#DejaVuSans-53"/>
       <use x="63.623047" xlink:href="#DejaVuSans-48"/>
       <use x="127.246094" xlink:href="#DejaVuSans-48"/>
      </g>
     </g>
    </g>
    <g id="xtick_4">
     <g id="line2d_4">
      <g>
       <use style="stroke:#000000;stroke-width:0.8;" x="196.036364" xlink:href="#m51678e143e" y="252"/>
      </g>
     </g>
     <g id="text_4">
      <!-- 750 -->
      <defs>
       <path d="M 8.203125 72.90625 
L 55.078125 72.90625 
L 55.078125 68.703125 
L 28.609375 0 
L 18.3125 0 
L 43.21875 64.59375 
L 8.203125 64.59375 
z
" id="DejaVuSans-55"/>
      </defs>
      <g transform="translate(186.492614 266.598437)scale(0.1 -0.1)">
       <use xlink:href="#DejaVuSans-55"/>
       <use x="63.623047" xlink:href="#DejaVuSans-53"/>
       <use x="127.246094" xlink:href="#DejaVuSans-48"/>
      </g>
     </g>
    </g>
    <g id="xtick_5">
     <g id="line2d_5">
      <g>
       <use style="stroke:#000000;stroke-width:0.8;" x="238.309091" xlink:href="#m51678e143e" y="252"/>
      </g>
     </g>
     <g id="text_5">
      <!-- 1000 -->
      <defs>
       <path d="M 12.40625 8.296875 
L 28.515625 8.296875 
L 28.515625 63.921875 
L 10.984375 60.40625 
L 10.984375 69.390625 
L 28.421875 72.90625 
L 38.28125 72.90625 
L 38.28125 8.296875 
L 54.390625 8.296875 
L 54.390625 0 
L 12.40625 0 
z
" id="DejaVuSans-49"/>
      </defs>
      <g transform="translate(225.584091 266.598437)scale(0.1 -0.1)">
       <use xlink:href="#DejaVuSans-49"/>
       <use x="63.623047" xlink:href="#DejaVuSans-48"/>
       <use x="127.246094" xlink:href="#DejaVuSans-48"/>
       <use x="190.869141" xlink:href="#DejaVuSans-48"/>
      </g>
     </g>
    </g>
    <g id="xtick_6">
     <g id="line2d_6">
      <g>
       <use style="stroke:#000000;stroke-width:0.8;" x="280.581818" xlink:href="#m51678e143e" y="252"/>
      </g>
     </g>
     <g id="text_6">
      <!-- 1250 -->
      <g transform="translate(267.856818 266.598437)scale(0.1 -0.1)">
       <use xlink:href="#DejaVuSans-49"/>
       <use x="63.623047" xlink:href="#DejaVuSans-50"/>
       <use x="127.246094" xlink:href="#DejaVuSans-53"/>
       <use x="190.869141" xlink:href="#DejaVuSans-48"/>
      </g>
     </g>
    </g>
    <g id="xtick_7">
     <g id="line2d_7">
      <g>
       <use style="stroke:#000000;stroke-width:0.8;" x="322.854545" xlink:href="#m51678e143e" y="252"/>
      </g>
     </g>
     <g id="text_7">
      <!-- 1500 -->
      <g transform="translate(310.129545 266.598437)scale(0.1 -0.1)">
       <use xlink:href="#DejaVuSans-49"/>
       <use x="63.623047" xlink:href="#DejaVuSans-53"/>
       <use x="127.246094" xlink:href="#DejaVuSans-48"/>
       <use x="190.869141" xlink:href="#DejaVuSans-48"/>
      </g>
     </g>
    </g>
    <g id="xtick_8">
     <g id="line2d_8">
      <g>
       <use style="stroke:#000000;stroke-width:0.8;" x="365.127273" xlink:href="#m51678e143e" y="252"/>
      </g>
     </g>
     <g id="text_8">
      <!-- 1750 -->
      <g transform="translate(352.402273 266.598437)scale(0.1 -0.1)">
       <use xlink:href="#DejaVuSans-49"/>
       <use x="63.623047" xlink:href="#DejaVuSans-55"/>
       <use x="127.246094" xlink:href="#DejaVuSans-53"/>
       <use x="190.869141" xlink:href="#DejaVuSans-48"/>
      </g>
     </g>
    </g>
   </g>
   <g id="matplotlib.axis_2">
    <g id="ytick_1">
     <g id="line2d_9">
      <defs>
       <path d="M 0 0 
L -3.5 0 
" id="m2545571c5f" style="stroke:#000000;stroke-width:0.8;"/>
      </defs>
      <g>
       <use style="stroke:#000000;stroke-width:0.8;" x="54" xlink:href="#m2545571c5f" y="227.825455"/>
      </g>
     </g>
     <g id="text_9">
      <!-- 0 -->
      <g transform="translate(40.6375 231.624673)scale(0.1 -0.1)">
       <use xlink:href="#DejaVuSans-48"/>
      </g>
     </g>
    </g>
    <g id="ytick_2">
     <g id="line2d_10">
      <g>
       <use style="stroke:#000000;stroke-width:0.8;" x="54" xlink:href="#m2545571c5f" y="194.007273"/>
      </g>
     </g>
     <g id="text_10">
      <!-- 200 -->
      <g transform="translate(27.9125 197.806491)scale(0.1 -0.1)">
       <use xlink:href="#DejaVuSans-50"/>
       <use x="63.623047" xlink:href="#DejaVuSans-48"/>
       <use x="127.246094" xlink:href="#DejaVuSans-48"/>
      </g>
     </g>
    </g>
    <g id="ytick_3">
     <g id="line2d_11">
      <g>
       <use style="stroke:#000000;stroke-width:0.8;" x="54" xlink:href="#m2545571c5f" y="160.189091"/>
      </g>
     </g>
     <g id="text_11">
      <!-- 400 -->
      <defs>
       <path d="M 37.796875 64.3125 
L 12.890625 25.390625 
L 37.796875 25.390625 
z
M 35.203125 72.90625 
L 47.609375 72.90625 
L 47.609375 25.390625 
L 58.015625 25.390625 
L 58.015625 17.1875 
L 47.609375 17.1875 
L 47.609375 0 
L 37.796875 0 
L 37.796875 17.1875 
L 4.890625 17.1875 
L 4.890625 26.703125 
z
" id="DejaVuSans-52"/>
      </defs>
      <g transform="translate(27.9125 163.98831)scale(0.1 -0.1)">
       <use xlink:href="#DejaVuSans-52"/>
       <use x="63.623047" xlink:href="#DejaVuSans-48"/>
       <use x="127.246094" xlink:href="#DejaVuSans-48"/>
      </g>
     </g>
    </g>
    <g id="ytick_4">
     <g id="line2d_12">
      <g>
       <use style="stroke:#000000;stroke-width:0.8;" x="54" xlink:href="#m2545571c5f" y="126.370909"/>
      </g>
     </g>
     <g id="text_12">
      <!-- 600 -->
      <defs>
       <path d="M 33.015625 40.375 
Q 26.375 40.375 22.484375 35.828125 
Q 18.609375 31.296875 18.609375 23.390625 
Q 18.609375 15.53125 22.484375 10.953125 
Q 26.375 6.390625 33.015625 6.390625 
Q 39.65625 6.390625 43.53125 10.953125 
Q 47.40625 15.53125 47.40625 23.390625 
Q 47.40625 31.296875 43.53125 35.828125 
Q 39.65625 40.375 33.015625 40.375 
z
M 52.59375 71.296875 
L 52.59375 62.3125 
Q 48.875 64.0625 45.09375 64.984375 
Q 41.3125 65.921875 37.59375 65.921875 
Q 27.828125 65.921875 22.671875 59.328125 
Q 17.53125 52.734375 16.796875 39.40625 
Q 19.671875 43.65625 24.015625 45.921875 
Q 28.375 48.1875 33.59375 48.1875 
Q 44.578125 48.1875 50.953125 41.515625 
Q 57.328125 34.859375 57.328125 23.390625 
Q 57.328125 12.15625 50.6875 5.359375 
Q 44.046875 -1.421875 33.015625 -1.421875 
Q 20.359375 -1.421875 13.671875 8.265625 
Q 6.984375 17.96875 6.984375 36.375 
Q 6.984375 53.65625 15.1875 63.9375 
Q 23.390625 74.21875 37.203125 74.21875 
Q 40.921875 74.21875 44.703125 73.484375 
Q 48.484375 72.75 52.59375 71.296875 
z
" id="DejaVuSans-54"/>
      </defs>
      <g transform="translate(27.9125 130.170128)scale(0.1 -0.1)">
       <use xlink:href="#DejaVuSans-54"/>
       <use x="63.623047" xlink:href="#DejaVuSans-48"/>
       <use x="127.246094" xlink:href="#DejaVuSans-48"/>
      </g>
     </g>
    </g>
    <g id="ytick_5">
     <g id="line2d_13">
      <g>
       <use style="stroke:#000000;stroke-width:0.8;" x="54" xlink:href="#m2545571c5f" y="92.552727"/>
      </g>
     </g>
     <g id="text_13">
      <!-- 800 -->
      <defs>
       <path d="M 31.78125 34.625 
Q 24.75 34.625 20.71875 30.859375 
Q 16.703125 27.09375 16.703125 20.515625 
Q 16.703125 13.921875 20.71875 10.15625 
Q 24.75 6.390625 31.78125 6.390625 
Q 38.8125 6.390625 42.859375 10.171875 
Q 46.921875 13.96875 46.921875 20.515625 
Q 46.921875 27.09375 42.890625 30.859375 
Q 38.875 34.625 31.78125 34.625 
z
M 21.921875 38.8125 
Q 15.578125 40.375 12.03125 44.71875 
Q 8.5 49.078125 8.5 55.328125 
Q 8.5 64.0625 14.71875 69.140625 
Q 20.953125 74.21875 31.78125 74.21875 
Q 42.671875 74.21875 48.875 69.140625 
Q 55.078125 64.0625 55.078125 55.328125 
Q 55.078125 49.078125 51.53125 44.71875 
Q 48 40.375 41.703125 38.8125 
Q 48.828125 37.15625 52.796875 32.3125 
Q 56.78125 27.484375 56.78125 20.515625 
Q 56.78125 9.90625 50.3125 4.234375 
Q 43.84375 -1.421875 31.78125 -1.421875 
Q 19.734375 -1.421875 13.25 4.234375 
Q 6.78125 9.90625 6.78125 20.515625 
Q 6.78125 27.484375 10.78125 32.3125 
Q 14.796875 37.15625 21.921875 38.8125 
z
M 18.3125 54.390625 
Q 18.3125 48.734375 21.84375 45.5625 
Q 25.390625 42.390625 31.78125 42.390625 
Q 38.140625 42.390625 41.71875 45.5625 
Q 45.3125 48.734375 45.3125 54.390625 
Q 45.3125 60.0625 41.71875 63.234375 
Q 38.140625 66.40625 31.78125 66.40625 
Q 25.390625 66.40625 21.84375 63.234375 
Q 18.3125 60.0625 18.3125 54.390625 
z
" id="DejaVuSans-56"/>
      </defs>
      <g transform="translate(27.9125 96.351946)scale(0.1 -0.1)">
       <use xlink:href="#DejaVuSans-56"/>
       <use x="63.623047" xlink:href="#DejaVuSans-48"/>
       <use x="127.246094" xlink:href="#DejaVuSans-48"/>
      </g>
     </g>
    </g>
    <g id="ytick_6">
     <g id="line2d_14">
      <g>
       <use style="stroke:#000000;stroke-width:0.8;" x="54" xlink:href="#m2545571c5f" y="58.734545"/>
      </g>
     </g>
     <g id="text_14">
      <!-- 1000 -->
      <g transform="translate(21.55 62.533764)scale(0.1 -0.1)">
       <use xlink:href="#DejaVuSans-49"/>
       <use x="63.623047" xlink:href="#DejaVuSans-48"/>
       <use x="127.246094" xlink:href="#DejaVuSans-48"/>
       <use x="190.869141" xlink:href="#DejaVuSans-48"/>
      </g>
     </g>
    </g>
   </g>
   <g id="line2d_15">
    <path clip-path="url(#p43a185562a)" d="M 69.218182 227.825455 
L 373.581818 227.825455 
L 373.581818 58.734545 
L 69.218182 58.734545 
L 69.218182 227.825455 
" style="fill:none;stroke:#000000;stroke-linecap:square;stroke-width:1.5;"/>
   </g>
   <g id="line2d_16">
    <path clip-path="url(#p43a185562a)" d="M 69.218182 172.860638 
L 69.218182 227.825455 
L 174.907336 227.825455 
L 69.218182 172.860638 
" style="fill:none;stroke:#000000;stroke-dasharray:5.55,2.4;stroke-dashoffset:0;stroke-width:1.5;"/>
   </g>
   <g id="line2d_17">
    <path clip-path="url(#p43a185562a)" d="M 105.040687 136.800432 
L 107.85789 170.606875 
L 145.608419 168.916553 
L 140.537452 132.292906 
L 105.040687 136.800432 
" style="fill:none;stroke:#000000;stroke-dasharray:5.55,2.4;stroke-dashoffset:0;stroke-width:1.5;"/>
   </g>
   <g id="line2d_18">
    <path clip-path="url(#p43a185562a)" d="M 89.827787 58.734545 
L 88.700906 58.734545 
L 97.152516 91.725174 
L 207.412119 122.702872 
L 206.460017 144.125161 
L 276.890108 144.125161 
L 292.666448 58.734545 
L 117.436383 58.734545 
L 89.827787 58.734545 
" style="fill:none;stroke:#000000;stroke-dasharray:5.55,2.4;stroke-dashoffset:0;stroke-width:1.5;"/>
   </g>
   <g id="line2d_19">
    <path clip-path="url(#p43a185562a)" d="M 97.277296 162.996851 
L 69.390316 163.014943 
L 69.387273 172.532733 
L 102.546845 172.528505 
L 102.545662 116.913491 
L 69.390316 116.910447 
L 69.390316 124.926709 
L 97.277296 124.927893 
L 97.277296 162.996851 
" style="fill:none;stroke:#ff0000;stroke-linecap:square;stroke-width:1.5;"/>
   </g>
   <g id="line2d_20">
    <path clip-path="url(#p43a185562a)" d="M 149.97718 170.189357 
L 122.0902 170.20745 
L 122.087156 179.725239 
L 155.246729 179.721012 
L 155.245545 124.105997 
L 122.0902 124.102954 
L 122.0902 132.119215 
L 149.97718 132.120399 
L 149.97718 170.189357 
" style="fill:none;stroke:#ff0000;stroke-linecap:square;stroke-width:1.5;"/>
   </g>
   <g id="line2d_21">
    <path clip-path="url(#p43a185562a)" d="M 148.253963 201.673302 
L 128.522097 181.967023 
L 121.789851 188.694964 
L 145.240199 212.139334 
L 184.565116 172.812743 
L 161.122899 149.366221 
L 155.454545 155.034574 
L 175.172781 174.754484 
L 148.253963 201.673302 
" style="fill:none;stroke:#ff0000;stroke-linecap:square;stroke-width:1.5;"/>
   </g>
   <g id="line2d_22">
    <path clip-path="url(#p43a185562a)" d="M 69.387273 116.732727 
L 69.387273 91.369091 
L 94.750909 91.369091 
L 94.750909 116.732727 
L 69.387273 116.732727 
" style="fill:none;stroke:#ff0000;stroke-linecap:square;stroke-width:1.5;"/>
   </g>
   <g id="line2d_23">
    <path clip-path="url(#p43a185562a)" d="M 69.387273 162.741749 
L 69.387273 137.378113 
L 94.750909 137.378113 
L 94.750909 162.741749 
L 69.387273 162.741749 
" style="fill:none;stroke:#ff0000;stroke-linecap:square;stroke-width:1.5;"/>
   </g>
   <g id="line2d_24">
    <path clip-path="url(#p43a185562a)" d="M 155.454545 149.198182 
L 155.454545 123.834545 
L 180.818182 123.834545 
L 180.818182 149.198182 
L 155.454545 149.198182 
" style="fill:none;stroke:#ff0000;stroke-linecap:square;stroke-width:1.5;"/>
   </g>
   <g id="line2d_25">
    <path clip-path="url(#p43a185562a)" d="M 168.962683 224.532811 
L 151.027884 206.598012 
L 168.962683 188.663212 
L 186.897483 206.598012 
L 168.962683 224.532811 
" style="fill:none;stroke:#ff0000;stroke-linecap:square;stroke-width:1.5;"/>
   </g>
   <g id="line2d_26">
    <path clip-path="url(#p43a185562a)" d="M 187.041317 206.416732 
L 169.106518 188.481933 
L 187.041317 170.547133 
L 204.976116 188.481933 
L 187.041317 206.416732 
" style="fill:none;stroke:#ff0000;stroke-linecap:square;stroke-width:1.5;"/>
   </g>
   <g id="line2d_27">
    <path clip-path="url(#p43a185562a)" d="M 191.467566 174.657527 
L 173.532767 156.722727 
L 191.467566 138.787928 
L 209.402366 156.722727 
L 191.467566 174.657527 
" style="fill:none;stroke:#ff0000;stroke-linecap:square;stroke-width:1.5;"/>
   </g>
   <g id="line2d_28">
    <path clip-path="url(#p43a185562a)" d="M 201.906898 227.656364 
L 183.972099 209.721564 
L 201.906898 191.786765 
L 219.841698 209.721564 
L 201.906898 227.656364 
" style="fill:none;stroke:#ff0000;stroke-linecap:square;stroke-width:1.5;"/>
   </g>
   <g id="line2d_29">
    <path clip-path="url(#p43a185562a)" d="M 106.360399 130.896531 
L 105.164746 129.700878 
L 99.220084 98.815023 
L 99.229466 97.16959 
L 99.866372 95.652392 
L 101.034301 94.493305 
L 102.556298 93.867951 
L 104.201756 93.871079 
L 105.721363 94.502213 
L 124.295198 112.961732 
L 106.360399 130.896531 
" style="fill:none;stroke:#ff0000;stroke-linecap:square;stroke-width:1.5;"/>
   </g>
   <g id="line2d_30">
    <path clip-path="url(#p43a185562a)" d="M 118.198666 198.011866 
L 92.155558 180.375779 
L 90.998696 179.205648 
L 90.376235 177.682467 
L 90.382488 176.037018 
L 91.016509 174.518612 
L 92.182236 173.357309 
L 93.703039 172.729064 
L 119.889575 172.64823 
L 119.889575 198.011866 
L 118.198666 198.011866 
" style="fill:none;stroke:#ff0000;stroke-linecap:square;stroke-width:1.5;"/>
   </g>
   <g id="line2d_31">
    <path clip-path="url(#p43a185562a)" d="M 215.126106 201.760413 
L 213.563909 201.11333 
L 196.252253 174.853444 
L 195.631242 173.329672 
L 195.639059 171.684231 
L 196.274522 170.166427 
L 197.44135 169.006232 
L 198.962752 168.379432 
L 200.608211 168.380996 
L 224.832349 178.327468 
L 215.126106 201.760413 
" style="fill:none;stroke:#ff0000;stroke-linecap:square;stroke-width:1.5;"/>
   </g>
   <g id="line2d_32">
    <path clip-path="url(#p43a185562a)" d="M 223.093095 177.402155 
L 199.660151 167.695911 
L 200.307234 166.133715 
L 226.56712 148.822059 
L 228.090892 148.201047 
L 229.736333 148.208865 
L 231.254137 148.844328 
L 232.414331 150.011156 
L 233.041131 151.532558 
L 233.039568 153.178016 
L 223.093095 177.402155 
" style="fill:none;stroke:#ff0000;stroke-linecap:square;stroke-width:1.5;"/>
   </g>
   <g id="line2d_33">
    <path clip-path="url(#p43a185562a)" d="M 209.089784 227.656364 
L 209.089784 225.965455 
L 226.725871 199.922347 
L 227.896002 198.765484 
L 229.419183 198.143023 
L 231.064632 198.149276 
L 232.583038 198.783298 
L 233.744341 199.949024 
L 234.372586 201.469828 
L 234.45342 227.656364 
L 209.089784 227.656364 
" style="fill:none;stroke:#ff0000;stroke-linecap:square;stroke-width:1.5;"/>
   </g>
   <g id="line2d_34">
    <path clip-path="url(#p43a185562a)" d="M 221.204301 201.255361 
L 220.557218 199.693165 
L 226.884572 168.883432 
L 227.52292 167.366841 
L 228.691951 166.208866 
L 230.21454 165.584957 
L 231.859994 165.589648 
L 233.379002 166.222227 
L 234.541411 167.386847 
L 244.637246 191.549118 
L 221.204301 201.255361 
" style="fill:none;stroke:#ff0000;stroke-linecap:square;stroke-width:1.5;"/>
   </g>
   <g id="line2d_35">
    <path clip-path="url(#p43a185562a)" d="M 241.225056 181.30859 
L 240.029403 180.112937 
L 234.084741 149.227082 
L 234.094124 147.581649 
L 234.731029 146.064451 
L 235.898959 144.905364 
L 237.420955 144.28001 
L 239.066413 144.283138 
L 240.58602 144.914272 
L 259.159855 163.373791 
L 241.225056 181.30859 
" style="fill:none;stroke:#ff0000;stroke-linecap:square;stroke-width:1.5;"/>
   </g>
   <g id="line2d_36">
    <path clip-path="url(#p43a185562a)" d="M 69.387273 91.2 
L 75.365539 61.308668 
L 93.300338 79.243467 
L 69.387273 91.2 
" style="fill:none;stroke:#ff0000;stroke-linecap:square;stroke-width:1.5;"/>
   </g>
   <g id="line2d_37">
    <path clip-path="url(#p43a185562a)" d="M 119.779928 124.467961 
L 129.486171 101.035016 
L 149.683701 118.552241 
L 119.779928 124.467961 
" style="fill:none;stroke:#ff0000;stroke-linecap:square;stroke-width:1.5;"/>
   </g>
   <g id="line2d_38">
    <path clip-path="url(#p43a185562a)" d="M 182.273001 141.92012 
L 180.37774 115.251761 
L 205.705946 132.213877 
L 182.273001 141.92012 
" style="fill:none;stroke:#ff0000;stroke-linecap:square;stroke-width:1.5;"/>
   </g>
   <g id="line2d_39">
    <path clip-path="url(#p43a185562a)" d="M 239.476501 226.136411 
L 233.560782 196.232638 
L 256.993726 205.938881 
L 239.476501 226.136411 
" style="fill:none;stroke:#ff0000;stroke-linecap:square;stroke-width:1.5;"/>
   </g>
   <g id="line2d_40">
    <path clip-path="url(#p43a185562a)" d="M 261.646761 205.606978 
L 236.283125 197.152432 
L 261.646761 180.243341 
L 261.646761 205.606978 
" style="fill:none;stroke:#ff0000;stroke-linecap:square;stroke-width:1.5;"/>
   </g>
   <g id="line2d_41">
    <path clip-path="url(#p43a185562a)" d="M 263.481404 169.658182 
L 246.572313 144.294545 
L 271.935949 144.294545 
L 263.481404 169.658182 
" style="fill:none;stroke:#ff0000;stroke-linecap:square;stroke-width:1.5;"/>
   </g>
   <g id="line2d_42">
    <path clip-path="url(#p43a185562a)" d="M 247.181931 227.656364 
L 264.144046 202.328157 
L 273.85029 225.761102 
L 247.181931 227.656364 
" style="fill:none;stroke:#ff0000;stroke-linecap:square;stroke-width:1.5;"/>
   </g>
   <g id="line2d_43">
    <path clip-path="url(#p43a185562a)" d="M 276.568792 190.105729 
L 270.001808 188.471803 
L 263.502292 186.604702 
L 261.633837 180.100451 
L 260.001265 173.538202 
L 264.699794 168.668045 
L 269.566399 163.973067 
L 276.133383 165.606993 
L 282.632899 167.474094 
L 284.501354 173.978345 
L 286.133926 180.540594 
L 281.435397 185.410751 
L 276.568792 190.105729 
" style="fill:none;stroke:#ff0000;stroke-linecap:square;stroke-width:1.5;"/>
   </g>
   <g id="line2d_44">
    <path clip-path="url(#p43a185562a)" d="M 282.241746 214.569562 
L 275.517575 213.80672 
L 268.830089 212.803756 
L 266.1287 206.599153 
L 263.653475 200.306306 
L 267.676101 194.86448 
L 271.888336 189.574219 
L 278.612507 190.337061 
L 285.299993 191.340025 
L 288.001381 197.544628 
L 290.476606 203.837475 
L 286.45398 209.279301 
L 282.241746 214.569562 
" style="fill:none;stroke:#ff0000;stroke-linecap:square;stroke-width:1.5;"/>
   </g>
   <g id="line2d_45">
    <path clip-path="url(#p43a185562a)" d="M 286.311326 168.136868 
L 279.744343 166.502943 
L 273.244826 164.635841 
L 271.376372 158.13159 
L 269.743799 151.569341 
L 274.442328 146.699184 
L 279.308934 142.004206 
L 285.875917 143.638132 
L 292.375434 145.505233 
L 294.243888 152.009484 
L 295.876461 158.571733 
L 291.177932 163.44189 
L 286.311326 168.136868 
" style="fill:none;stroke:#ff0000;stroke-linecap:square;stroke-width:1.5;"/>
   </g>
   <g id="line2d_46">
    <path clip-path="url(#p43a185562a)" d="M 289.894673 144.623663 
L 284.452847 140.601037 
L 279.162586 136.388803 
L 279.925428 129.664632 
L 280.928391 122.977146 
L 287.132995 120.275757 
L 293.425842 117.800532 
L 298.867668 121.823159 
L 304.157929 126.035393 
L 303.395087 132.759564 
L 302.392123 139.44705 
L 296.18752 142.148439 
L 289.894673 144.623663 
" style="fill:none;stroke:#ff0000;stroke-linecap:square;stroke-width:1.5;"/>
   </g>
   <g id="line2d_47">
    <path clip-path="url(#p43a185562a)" d="M 301.568299 199.167647 
L 294.844128 198.404804 
L 288.156642 197.401841 
L 285.455253 191.197238 
L 282.980028 184.90439 
L 287.002654 179.462565 
L 291.214889 174.172304 
L 297.93906 174.935146 
L 304.626546 175.938109 
L 307.327934 182.142712 
L 309.803159 188.43556 
L 305.780533 193.877385 
L 301.568299 199.167647 
" style="fill:none;stroke:#ff0000;stroke-linecap:square;stroke-width:1.5;"/>
   </g>
   <g id="line2d_48">
    <path clip-path="url(#p43a185562a)" d="M 294.709149 118.480537 
L 289.267324 114.457911 
L 283.977063 110.245677 
L 284.739905 103.521506 
L 285.742868 96.83402 
L 291.947471 94.132631 
L 298.240319 91.657406 
L 303.682144 95.680032 
L 308.972406 99.892267 
L 308.209563 106.616437 
L 307.2066 113.303924 
L 301.001997 116.005312 
L 294.709149 118.480537 
" style="fill:none;stroke:#ff0000;stroke-linecap:square;stroke-width:1.5;"/>
   </g>
   <g id="line2d_49">
    <path clip-path="url(#p43a185562a)" d="M 302.184605 227.656364 
L 295.460434 226.893521 
L 288.772948 225.890558 
L 286.071559 219.685955 
L 283.596334 213.393107 
L 287.61896 207.951282 
L 291.831195 202.661021 
L 298.555365 203.423863 
L 305.242852 204.426826 
L 307.94424 210.631429 
L 310.419465 216.924277 
L 306.396839 222.366102 
L 302.184605 227.656364 
" style="fill:none;stroke:#ff0000;stroke-linecap:square;stroke-width:1.5;"/>
   </g>
   <g id="patch_37">
    <path d="M 54 252 
L 54 34.56 
" style="fill:none;stroke:#000000;stroke-linecap:square;stroke-linejoin:miter;stroke-width:0.8;"/>
   </g>
   <g id="patch_38">
    <path d="M 388.8 252 
L 388.8 34.56 
" style="fill:none;stroke:#000000;stroke-linecap:square;stroke-linejoin:miter;stroke-width:0.8;"/>
   </g>
   <g id="patch_39">
    <path d="M 54 252 
L 388.8 252 
" style="fill:none;stroke:#000000;stroke-linecap:square;stroke-linejoin:miter;stroke-width:0.8;"/>
   </g>
   <g id="patch_40">
    <path d="M 54 34.56 
L 388.8 34.56 
" style="fill:none;stroke:#000000;stroke-linecap:square;stroke-linejoin:miter;stroke-width:0.8;"/>
   </g>
  </g>
 </g>
 <defs>
  <clipPath id="p43a185562a">
   <rect height="217.44" width="334.8" x="54" y="34.56"/>
  </clipPath>
 </defs>
</svg>
