<?xml version="1.0" encoding="utf-8" standalone="no"?>
<!DOCTYPE svg PUBLIC "-//W3C//DTD SVG 1.1//EN"
  "http://www.w3.org/Graphics/SVG/1.1/DTD/svg11.dtd">
<!-- Created with matplotlib (https://matplotlib.org/) -->
<svg height="288pt" version="1.1" viewBox="0 0 432 288" width="432pt" xmlns="http://www.w3.org/2000/svg" xmlns:xlink="http://www.w3.org/1999/xlink">
 <defs>
  <style type="text/css">
*{stroke-linecap:butt;stroke-linejoin:round;}
  </style>
 </defs>
 <g id="figure_1">
  <g id="patch_1">
   <path d="M 0 288 
L 432 288 
L 432 0 
L 0 0 
z
" style="fill:#ffffff;"/>
  </g>
  <g id="axes_1">
   <g id="patch_2">
    <path d="M 54 252 
L 388.8 252 
L 388.8 34.56 
L 54 34.56 
z
" style="fill:#ffffff;"/>
   </g>
   <g id="patch_3">
    <path clip-path="url(#p1a1e1762d4)" d="M 69.218182 172.860638 
L 69.218182 227.825455 
L 174.907336 227.825455 
z
" style="fill:#aaaaaa;"/>
   </g>
   <g id="patch_4">
    <path clip-path="url(#p1a1e1762d4)" d="M 105.040687 136.800432 
L 107.85789 170.606875 
L 145.608419 168.916553 
L 140.537452 132.292906 
z
" style="fill:#aaaaaa;"/>
   </g>
   <g id="patch_5">
    <path clip-path="url(#p1a1e1762d4)" d="M 89.827787 58.734545 
L 88.700906 58.734545 
L 97.152516 91.725174 
L 207.412119 122.702872 
L 206.460017 144.125161 
L 276.890108 144.125161 
L 292.666448 58.734545 
L 117.436383 58.734545 
z
" style="fill:#aaaaaa;"/>
   </g>
   <g id="patch_6">
    <path clip-path="url(#p1a1e1762d4)" d="M 78.923155 128.787024 
L 78.905062 100.900044 
L 69.387273 100.897 
L 69.3915 134.056573 
L 125.006515 134.055389 
L 125.009558 100.900044 
L 116.993296 100.900044 
L 116.992113 128.787024 
z
" style="fill:#f6929c;"/>
   </g>
   <g id="patch_7">
    <path clip-path="url(#p1a1e1762d4)" d="M 174.00805 175.214179 
L 174.026143 203.101159 
L 183.543932 203.104203 
L 183.539704 169.94463 
L 127.92469 169.945814 
L 127.921646 203.101159 
L 135.937908 203.101159 
L 135.939092 175.214179 
z
" style="fill:#f6929c;"/>
   </g>
   <g id="patch_8">
    <path clip-path="url(#p1a1e1762d4)" d="M 160.240384 160.421095 
L 151.521218 133.932227 
L 142.477726 136.899309 
L 152.829002 168.401822 
L 205.666651 151.046343 
L 195.323603 119.545577 
L 187.707613 122.047006 
L 196.408465 148.54189 
z
" style="fill:#f6929c;"/>
   </g>
   <g id="patch_9">
    <path clip-path="url(#p1a1e1762d4)" d="M 116.055859 124.427968 
L 90.704282 123.645905 
L 91.486345 98.294329 
L 116.837921 99.076391 
z
" style="fill:#f6929c;"/>
   </g>
   <g id="patch_10">
    <path clip-path="url(#p1a1e1762d4)" d="M 179.454617 142.132558 
L 155.211093 134.678325 
L 162.665326 110.434801 
L 186.90885 117.889034 
z
" style="fill:#f6929c;"/>
   </g>
   <g id="patch_11">
    <path clip-path="url(#p1a1e1762d4)" d="M 149.542011 133.265172 
L 125.184171 126.193419 
L 132.255923 101.835579 
L 156.613763 108.907332 
z
" style="fill:#f6929c;"/>
   </g>
   <g id="patch_12">
    <path clip-path="url(#p1a1e1762d4)" d="M 136.156194 204.215014 
L 136.144188 178.851381 
L 161.507821 178.839374 
L 161.519828 204.203007 
z
" style="fill:#f6929c;"/>
   </g>
   <g id="patch_13">
    <path clip-path="url(#p1a1e1762d4)" d="M 69.387273 172.532727 
L 69.387273 147.169091 
L 94.750909 147.169091 
L 94.750909 172.532727 
z
" style="fill:#f6929c;"/>
   </g>
   <g id="patch_14">
    <path clip-path="url(#p1a1e1762d4)" d="M 186.17852 185.442103 
L 182.315483 160.374375 
L 207.383211 156.511337 
L 211.246248 181.579065 
z
" style="fill:#f6929c;"/>
   </g>
   <g id="patch_15">
    <path clip-path="url(#p1a1e1762d4)" d="M 186.552984 211.250368 
L 183.775969 186.039215 
L 208.987122 183.262199 
L 211.764137 208.473352 
z
" style="fill:#f6929c;"/>
   </g>
   <g id="patch_16">
    <path clip-path="url(#p1a1e1762d4)" d="M 125.501951 200.829741 
L 97.182572 187.144428 
L 95.868681 186.153858 
L 95.032531 184.736681 
L 94.80081 183.107618 
L 95.20863 181.513496 
L 96.194199 180.195849 
L 97.608187 179.354318 
L 123.507875 175.488137 
L 127.175093 200.58526 
z
" style="fill:#f6929c;"/>
   </g>
   <g id="patch_17">
    <path clip-path="url(#p1a1e1762d4)" d="M 234.43722 170.414237 
L 207.949291 153.453557 
L 206.762727 152.313556 
L 206.10131 150.806882 
L 206.065256 149.161816 
L 206.660029 147.627611 
L 207.795513 146.436721 
L 209.299661 145.769583 
L 235.475462 145.015511 
L 236.12757 170.370763 
z
" style="fill:#f6929c;"/>
   </g>
   <g id="patch_18">
    <path clip-path="url(#p1a1e1762d4)" d="M 213.077715 207.35184 
L 209.369411 182.260756 
L 211.04215 182.013535 
L 239.383898 195.652463 
L 240.699409 196.64088 
L 241.537879 198.056686 
L 241.772266 199.685368 
L 241.367057 201.280155 
L 240.383647 202.599414 
L 238.971038 203.443258 
z
" style="fill:#f6929c;"/>
   </g>
   <g id="patch_19">
    <path clip-path="url(#p1a1e1762d4)" d="M 241.700924 196.168229 
L 213.59107 182.057555 
L 212.292261 181.047291 
L 211.47757 179.61767 
L 211.270434 177.985299 
L 211.702239 176.397506 
L 212.70756 175.094866 
L 214.134073 174.274747 
L 240.089101 170.799444 
L 243.377561 195.948999 
z
" style="fill:#f6929c;"/>
   </g>
   <g id="patch_20">
    <path clip-path="url(#p1a1e1762d4)" d="M 250.948059 227.546511 
L 222.404839 214.334409 
L 221.074644 213.365843 
L 220.215024 211.962778 
L 219.956222 210.337797 
L 220.337455 208.73711 
L 221.300959 207.403242 
L 222.700745 206.538295 
L 248.532502 202.241604 
L 252.6169 227.274218 
z
" style="fill:#f6929c;"/>
   </g>
   <g id="patch_21">
    <path clip-path="url(#p1a1e1762d4)" d="M 236.757788 169.770448 
L 236.740466 144.406817 
L 238.431375 144.405663 
L 264.486521 162.02396 
L 265.644182 163.193301 
L 266.267683 164.716057 
L 266.262554 166.36151 
L 265.629569 167.880348 
L 264.464636 169.042447 
L 262.944262 169.671731 
z
" style="fill:#f6929c;"/>
   </g>
   <g id="patch_22">
    <path clip-path="url(#p1a1e1762d4)" d="M 270.608095 194.87464 
L 243.279149 179.305318 
L 242.035263 178.228153 
L 241.296876 176.757669 
L 241.175865 175.116664 
L 241.690568 173.553775 
L 242.762998 172.305803 
L 244.230664 171.561832 
L 270.332532 169.456196 
L 272.29394 194.743879 
z
" style="fill:#f6929c;"/>
   </g>
   <g id="patch_23">
    <path clip-path="url(#p1a1e1762d4)" d="M 86.296364 111.693349 
L 69.387273 86.329712 
L 94.750909 86.329712 
z
" style="fill:#f6929c;"/>
   </g>
   <g id="patch_24">
    <path clip-path="url(#p1a1e1762d4)" d="M 69.387273 86.127273 
L 77.841818 60.763636 
L 94.750909 86.127273 
z
" style="fill:#f6929c;"/>
   </g>
   <g id="patch_25">
    <path clip-path="url(#p1a1e1762d4)" d="M 162.070053 220.865239 
L 162.170439 194.129807 
L 186.162057 212.934957 
z
" style="fill:#f6929c;"/>
   </g>
   <g id="patch_26">
    <path clip-path="url(#p1a1e1762d4)" d="M 255.919923 218.165654 
L 243.365367 190.387704 
L 268.390666 194.51668 
z
" style="fill:#f6929c;"/>
   </g>
   <g id="patch_27">
    <path clip-path="url(#p1a1e1762d4)" d="M 271.97265 170.613935 
L 253.370043 146.464931 
L 278.674403 144.731897 
z
" style="fill:#f6929c;"/>
   </g>
   <g id="patch_28">
    <path clip-path="url(#p1a1e1762d4)" d="M 256.058774 227.656364 
L 264.51332 202.292727 
L 281.422411 227.656364 
z
" style="fill:#f6929c;"/>
   </g>
   <g id="patch_29">
    <path clip-path="url(#p1a1e1762d4)" d="M 281.514102 227.481774 
L 264.605011 202.118138 
L 289.968647 202.118138 
z
" style="fill:#f6929c;"/>
   </g>
   <g id="patch_30">
    <path clip-path="url(#p1a1e1762d4)" d="M 285.101633 189.550138 
L 278.784411 187.123683 
L 272.562725 184.474077 
L 271.505516 177.789864 
L 270.689519 171.076999 
L 275.949511 166.819409 
L 281.354844 162.756275 
L 287.672066 165.182731 
L 293.893752 167.832336 
L 294.950961 174.51655 
L 295.766958 181.229415 
L 290.506965 185.487005 
z
" style="fill:#f6929c;"/>
   </g>
   <g id="patch_31">
    <path clip-path="url(#p1a1e1762d4)" d="M 287.95242 164.674819 
L 282.398452 160.8085 
L 276.990596 156.748342 
L 277.561998 150.005205 
L 278.374466 143.291912 
L 284.499776 140.415251 
L 290.719723 137.762154 
L 296.273692 141.628472 
L 301.681547 145.68863 
L 301.110146 152.431768 
L 300.297677 159.145061 
L 294.172368 162.021722 
z
" style="fill:#f6929c;"/>
   </g>
   <g id="patch_32">
    <path clip-path="url(#p1a1e1762d4)" d="M 295.189967 140.598235 
L 288.979763 137.909674 
L 282.874347 135.002155 
L 282.097641 128.279572 
L 281.563135 121.538451 
L 286.996606 117.504595 
L 292.567155 113.671104 
L 298.777359 116.359665 
L 304.882776 119.267184 
L 305.659481 125.989768 
L 306.193987 132.730889 
L 300.760516 136.764745 
z
" style="fill:#f6929c;"/>
   </g>
   <g id="patch_33">
    <path clip-path="url(#p1a1e1762d4)" d="M 299.803936 116.385496 
L 293.539007 113.827049 
L 287.374274 111.047506 
L 286.457522 104.342585 
L 285.78253 97.614079 
L 291.130682 93.467772 
L 296.620063 89.518928 
L 302.884992 92.077375 
L 309.049724 94.856918 
L 309.966476 101.561839 
L 310.641469 108.290345 
L 305.293316 112.436652 
z
" style="fill:#f6929c;"/>
   </g>
   <g id="patch_34">
    <path clip-path="url(#p1a1e1762d4)" d="M 303.284021 206.739631 
L 296.750616 204.976226 
L 290.289273 202.981023 
L 288.549742 196.441112 
L 287.047193 189.847877 
L 291.841065 185.07154 
L 296.799518 180.473669 
L 303.332923 182.237074 
L 309.794266 184.232276 
L 311.533797 190.772187 
L 313.036345 197.365423 
L 308.242474 202.14176 
z
" style="fill:#f6929c;"/>
   </g>
   <g id="patch_35">
    <path clip-path="url(#p1a1e1762d4)" d="M 306.16595 92.255814 
L 299.645316 90.445752 
L 293.198401 88.404414 
L 291.505663 81.852235 
L 290.050282 75.248428 
L 294.878174 70.50648 
L 299.869366 65.944171 
L 306.39 67.754233 
L 312.836915 69.795571 
L 314.529653 76.34775 
L 315.985034 82.951557 
L 311.157142 87.693504 
z
" style="fill:#f6929c;"/>
   </g>
   <g id="patch_36">
    <path clip-path="url(#p1a1e1762d4)" d="M 308.481897 183.551835 
L 302.187646 181.066399 
L 295.991014 178.358717 
L 294.99637 171.664907 
L 294.243196 164.944704 
L 299.54278 160.736498 
L 304.98588 156.724099 
L 311.280131 159.209535 
L 317.476762 161.917217 
L 318.471406 168.611027 
L 319.224581 175.33123 
L 313.924996 179.539436 
z
" style="fill:#f6929c;"/>
   </g>
   <g id="matplotlib.axis_1">
    <g id="xtick_1">
     <g id="line2d_1">
      <defs>
       <path d="M 0 0 
L 0 3.5 
" id="m7b1417755e" style="stroke:#000000;stroke-width:0.8;"/>
      </defs>
      <g>
       <use style="stroke:#000000;stroke-width:0.8;" x="69.218182" xlink:href="#m7b1417755e" y="252"/>
      </g>
     </g>
     <g id="text_1">
      <!-- 0 -->
      <defs>
       <path d="M 31.78125 66.40625 
Q 24.171875 66.40625 20.328125 58.90625 
Q 16.5 51.421875 16.5 36.375 
Q 16.5 21.390625 20.328125 13.890625 
Q 24.171875 6.390625 31.78125 6.390625 
Q 39.453125 6.390625 43.28125 13.890625 
Q 47.125 21.390625 47.125 36.375 
Q 47.125 51.421875 43.28125 58.90625 
Q 39.453125 66.40625 31.78125 66.40625 
z
M 31.78125 74.21875 
Q 44.046875 74.21875 50.515625 64.515625 
Q 56.984375 54.828125 56.984375 36.375 
Q 56.984375 17.96875 50.515625 8.265625 
Q 44.046875 -1.421875 31.78125 -1.421875 
Q 19.53125 -1.421875 13.0625 8.265625 
Q 6.59375 17.96875 6.59375 36.375 
Q 6.59375 54.828125 13.0625 64.515625 
Q 19.53125 74.21875 31.78125 74.21875 
z
" id="DejaVuSans-48"/>
      </defs>
      <g transform="translate(66.036932 266.598437)scale(0.1 -0.1)">
       <use xlink:href="#DejaVuSans-48"/>
      </g>
     </g>
    </g>
    <g id="xtick_2">
     <g id="line2d_2">
      <g>
       <use style="stroke:#000000;stroke-width:0.8;" x="111.490909" xlink:href="#m7b1417755e" y="252"/>
      </g>
     </g>
     <g id="text_2">
      <!-- 250 -->
      <defs>
       <path d="M 19.1875 8.296875 
L 53.609375 8.296875 
L 53.609375 0 
L 7.328125 0 
L 7.328125 8.296875 
Q 12.9375 14.109375 22.625 23.890625 
Q 32.328125 33.6875 34.8125 36.53125 
Q 39.546875 41.84375 41.421875 45.53125 
Q 43.3125 49.21875 43.3125 52.78125 
Q 43.3125 58.59375 39.234375 62.25 
Q 35.15625 65.921875 28.609375 65.921875 
Q 23.96875 65.921875 18.8125 64.3125 
Q 13.671875 62.703125 7.8125 59.421875 
L 7.8125 69.390625 
Q 13.765625 71.78125 18.9375 73 
Q 24.125 74.21875 28.421875 74.21875 
Q 39.75 74.21875 46.484375 68.546875 
Q 53.21875 62.890625 53.21875 53.421875 
Q 53.21875 48.921875 51.53125 44.890625 
Q 49.859375 40.875 45.40625 35.40625 
Q 44.1875 33.984375 37.640625 27.21875 
Q 31.109375 20.453125 19.1875 8.296875 
z
" id="DejaVuSans-50"/>
       <path d="M 10.796875 72.90625 
L 49.515625 72.90625 
L 49.515625 64.59375 
L 19.828125 64.59375 
L 19.828125 46.734375 
Q 21.96875 47.46875 24.109375 47.828125 
Q 26.265625 48.1875 28.421875 48.1875 
Q 40.625 48.1875 47.75 41.5 
Q 54.890625 34.8125 54.890625 23.390625 
Q 54.890625 11.625 47.5625 5.09375 
Q 40.234375 -1.421875 26.90625 -1.421875 
Q 22.3125 -1.421875 17.546875 -0.640625 
Q 12.796875 0.140625 7.71875 1.703125 
L 7.71875 11.625 
Q 12.109375 9.234375 16.796875 8.0625 
Q 21.484375 6.890625 26.703125 6.890625 
Q 35.15625 6.890625 40.078125 11.328125 
Q 45.015625 15.765625 45.015625 23.390625 
Q 45.015625 31 40.078125 35.4375 
Q 35.15625 39.890625 26.703125 39.890625 
Q 22.75 39.890625 18.8125 39.015625 
Q 14.890625 38.140625 10.796875 36.28125 
z
" id="DejaVuSans-53"/>
      </defs>
      <g transform="translate(101.947159 266.598437)scale(0.1 -0.1)">
       <use xlink:href="#DejaVuSans-50"/>
       <use x="63.623047" xlink:href="#DejaVuSans-53"/>
       <use x="127.246094" xlink:href="#DejaVuSans-48"/>
      </g>
     </g>
    </g>
    <g id="xtick_3">
     <g id="line2d_3">
      <g>
       <use style="stroke:#000000;stroke-width:0.8;" x="153.763636" xlink:href="#m7b1417755e" y="252"/>
      </g>
     </g>
     <g id="text_3">
      <!-- 500 -->
      <g transform="translate(144.219886 266.598437)scale(0.1 -0.1)">
       <use xlink:href="#DejaVuSans-53"/>
       <use x="63.623047" xlink:href="#DejaVuSans-48"/>
       <use x="127.246094" xlink:href="#DejaVuSans-48"/>
      </g>
     </g>
    </g>
    <g id="xtick_4">
     <g id="line2d_4">
      <g>
       <use style="stroke:#000000;stroke-width:0.8;" x="196.036364" xlink:href="#m7b1417755e" y="252"/>
      </g>
     </g>
     <g id="text_4">
      <!-- 750 -->
      <defs>
       <path d="M 8.203125 72.90625 
L 55.078125 72.90625 
L 55.078125 68.703125 
L 28.609375 0 
L 18.3125 0 
L 43.21875 64.59375 
L 8.203125 64.59375 
z
" id="DejaVuSans-55"/>
      </defs>
      <g transform="translate(186.492614 266.598437)scale(0.1 -0.1)">
       <use xlink:href="#DejaVuSans-55"/>
       <use x="63.623047" xlink:href="#DejaVuSans-53"/>
       <use x="127.246094" xlink:href="#DejaVuSans-48"/>
      </g>
     </g>
    </g>
    <g id="xtick_5">
     <g id="line2d_5">
      <g>
       <use style="stroke:#000000;stroke-width:0.8;" x="238.309091" xlink:href="#m7b1417755e" y="252"/>
      </g>
     </g>
     <g id="text_5">
      <!-- 1000 -->
      <defs>
       <path d="M 12.40625 8.296875 
L 28.515625 8.296875 
L 28.515625 63.921875 
L 10.984375 60.40625 
L 10.984375 69.390625 
L 28.421875 72.90625 
L 38.28125 72.90625 
L 38.28125 8.296875 
L 54.390625 8.296875 
L 54.390625 0 
L 12.40625 0 
z
" id="DejaVuSans-49"/>
      </defs>
      <g transform="translate(225.584091 266.598437)scale(0.1 -0.1)">
       <use xlink:href="#DejaVuSans-49"/>
       <use x="63.623047" xlink:href="#DejaVuSans-48"/>
       <use x="127.246094" xlink:href="#DejaVuSans-48"/>
       <use x="190.869141" xlink:href="#DejaVuSans-48"/>
      </g>
     </g>
    </g>
    <g id="xtick_6">
     <g id="line2d_6">
      <g>
       <use style="stroke:#000000;stroke-width:0.8;" x="280.581818" xlink:href="#m7b1417755e" y="252"/>
      </g>
     </g>
     <g id="text_6">
      <!-- 1250 -->
      <g transform="translate(267.856818 266.598437)scale(0.1 -0.1)">
       <use xlink:href="#DejaVuSans-49"/>
       <use x="63.623047" xlink:href="#DejaVuSans-50"/>
       <use x="127.246094" xlink:href="#DejaVuSans-53"/>
       <use x="190.869141" xlink:href="#DejaVuSans-48"/>
      </g>
     </g>
    </g>
    <g id="xtick_7">
     <g id="line2d_7">
      <g>
       <use style="stroke:#000000;stroke-width:0.8;" x="322.854545" xlink:href="#m7b1417755e" y="252"/>
      </g>
     </g>
     <g id="text_7">
      <!-- 1500 -->
      <g transform="translate(310.129545 266.598437)scale(0.1 -0.1)">
       <use xlink:href="#DejaVuSans-49"/>
       <use x="63.623047" xlink:href="#DejaVuSans-53"/>
       <use x="127.246094" xlink:href="#DejaVuSans-48"/>
       <use x="190.869141" xlink:href="#DejaVuSans-48"/>
      </g>
     </g>
    </g>
    <g id="xtick_8">
     <g id="line2d_8">
      <g>
       <use style="stroke:#000000;stroke-width:0.8;" x="365.127273" xlink:href="#m7b1417755e" y="252"/>
      </g>
     </g>
     <g id="text_8">
      <!-- 1750 -->
      <g transform="translate(352.402273 266.598437)scale(0.1 -0.1)">
       <use xlink:href="#DejaVuSans-49"/>
       <use x="63.623047" xlink:href="#DejaVuSans-55"/>
       <use x="127.246094" xlink:href="#DejaVuSans-53"/>
       <use x="190.869141" xlink:href="#DejaVuSans-48"/>
      </g>
     </g>
    </g>
   </g>
   <g id="matplotlib.axis_2">
    <g id="ytick_1">
     <g id="line2d_9">
      <defs>
       <path d="M 0 0 
L -3.5 0 
" id="m260e4b4386" style="stroke:#000000;stroke-width:0.8;"/>
      </defs>
      <g>
       <use style="stroke:#000000;stroke-width:0.8;" x="54" xlink:href="#m260e4b4386" y="227.825455"/>
      </g>
     </g>
     <g id="text_9">
      <!-- 0 -->
      <g transform="translate(40.6375 231.624673)scale(0.1 -0.1)">
       <use xlink:href="#DejaVuSans-48"/>
      </g>
     </g>
    </g>
    <g id="ytick_2">
     <g id="line2d_10">
      <g>
       <use style="stroke:#000000;stroke-width:0.8;" x="54" xlink:href="#m260e4b4386" y="194.007273"/>
      </g>
     </g>
     <g id="text_10">
      <!-- 200 -->
      <g transform="translate(27.9125 197.806491)scale(0.1 -0.1)">
       <use xlink:href="#DejaVuSans-50"/>
       <use x="63.623047" xlink:href="#DejaVuSans-48"/>
       <use x="127.246094" xlink:href="#DejaVuSans-48"/>
      </g>
     </g>
    </g>
    <g id="ytick_3">
     <g id="line2d_11">
      <g>
       <use style="stroke:#000000;stroke-width:0.8;" x="54" xlink:href="#m260e4b4386" y="160.189091"/>
      </g>
     </g>
     <g id="text_11">
      <!-- 400 -->
      <defs>
       <path d="M 37.796875 64.3125 
L 12.890625 25.390625 
L 37.796875 25.390625 
z
M 35.203125 72.90625 
L 47.609375 72.90625 
L 47.609375 25.390625 
L 58.015625 25.390625 
L 58.015625 17.1875 
L 47.609375 17.1875 
L 47.609375 0 
L 37.796875 0 
L 37.796875 17.1875 
L 4.890625 17.1875 
L 4.890625 26.703125 
z
" id="DejaVuSans-52"/>
      </defs>
      <g transform="translate(27.9125 163.98831)scale(0.1 -0.1)">
       <use xlink:href="#DejaVuSans-52"/>
       <use x="63.623047" xlink:href="#DejaVuSans-48"/>
       <use x="127.246094" xlink:href="#DejaVuSans-48"/>
      </g>
     </g>
    </g>
    <g id="ytick_4">
     <g id="line2d_12">
      <g>
       <use style="stroke:#000000;stroke-width:0.8;" x="54" xlink:href="#m260e4b4386" y="126.370909"/>
      </g>
     </g>
     <g id="text_12">
      <!-- 600 -->
      <defs>
       <path d="M 33.015625 40.375 
Q 26.375 40.375 22.484375 35.828125 
Q 18.609375 31.296875 18.609375 23.390625 
Q 18.609375 15.53125 22.484375 10.953125 
Q 26.375 6.390625 33.015625 6.390625 
Q 39.65625 6.390625 43.53125 10.953125 
Q 47.40625 15.53125 47.40625 23.390625 
Q 47.40625 31.296875 43.53125 35.828125 
Q 39.65625 40.375 33.015625 40.375 
z
M 52.59375 71.296875 
L 52.59375 62.3125 
Q 48.875 64.0625 45.09375 64.984375 
Q 41.3125 65.921875 37.59375 65.921875 
Q 27.828125 65.921875 22.671875 59.328125 
Q 17.53125 52.734375 16.796875 39.40625 
Q 19.671875 43.65625 24.015625 45.921875 
Q 28.375 48.1875 33.59375 48.1875 
Q 44.578125 48.1875 50.953125 41.515625 
Q 57.328125 34.859375 57.328125 23.390625 
Q 57.328125 12.15625 50.6875 5.359375 
Q 44.046875 -1.421875 33.015625 -1.421875 
Q 20.359375 -1.421875 13.671875 8.265625 
Q 6.984375 17.96875 6.984375 36.375 
Q 6.984375 53.65625 15.1875 63.9375 
Q 23.390625 74.21875 37.203125 74.21875 
Q 40.921875 74.21875 44.703125 73.484375 
Q 48.484375 72.75 52.59375 71.296875 
z
" id="DejaVuSans-54"/>
      </defs>
      <g transform="translate(27.9125 130.170128)scale(0.1 -0.1)">
       <use xlink:href="#DejaVuSans-54"/>
       <use x="63.623047" xlink:href="#DejaVuSans-48"/>
       <use x="127.246094" xlink:href="#DejaVuSans-48"/>
      </g>
     </g>
    </g>
    <g id="ytick_5">
     <g id="line2d_13">
      <g>
       <use style="stroke:#000000;stroke-width:0.8;" x="54" xlink:href="#m260e4b4386" y="92.552727"/>
      </g>
     </g>
     <g id="text_13">
      <!-- 800 -->
      <defs>
       <path d="M 31.78125 34.625 
Q 24.75 34.625 20.71875 30.859375 
Q 16.703125 27.09375 16.703125 20.515625 
Q 16.703125 13.921875 20.71875 10.15625 
Q 24.75 6.390625 31.78125 6.390625 
Q 38.8125 6.390625 42.859375 10.171875 
Q 46.921875 13.96875 46.921875 20.515625 
Q 46.921875 27.09375 42.890625 30.859375 
Q 38.875 34.625 31.78125 34.625 
z
M 21.921875 38.8125 
Q 15.578125 40.375 12.03125 44.71875 
Q 8.5 49.078125 8.5 55.328125 
Q 8.5 64.0625 14.71875 69.140625 
Q 20.953125 74.21875 31.78125 74.21875 
Q 42.671875 74.21875 48.875 69.140625 
Q 55.078125 64.0625 55.078125 55.328125 
Q 55.078125 49.078125 51.53125 44.71875 
Q 48 40.375 41.703125 38.8125 
Q 48.828125 37.15625 52.796875 32.3125 
Q 56.78125 27.484375 56.78125 20.515625 
Q 56.78125 9.90625 50.3125 4.234375 
Q 43.84375 -1.421875 31.78125 -1.421875 
Q 19.734375 -1.421875 13.25 4.234375 
Q 6.78125 9.90625 6.78125 20.515625 
Q 6.78125 27.484375 10.78125 32.3125 
Q 14.796875 37.15625 21.921875 38.8125 
z
M 18.3125 54.390625 
Q 18.3125 48.734375 21.84375 45.5625 
Q 25.390625 42.390625 31.78125 42.390625 
Q 38.140625 42.390625 41.71875 45.5625 
Q 45.3125 48.734375 45.3125 54.390625 
Q 45.3125 60.0625 41.71875 63.234375 
Q 38.140625 66.40625 31.78125 66.40625 
Q 25.390625 66.40625 21.84375 63.234375 
Q 18.3125 60.0625 18.3125 54.390625 
z
" id="DejaVuSans-56"/>
      </defs>
      <g transform="translate(27.9125 96.351946)scale(0.1 -0.1)">
       <use xlink:href="#DejaVuSans-56"/>
       <use x="63.623047" xlink:href="#DejaVuSans-48"/>
       <use x="127.246094" xlink:href="#DejaVuSans-48"/>
      </g>
     </g>
    </g>
    <g id="ytick_6">
     <g id="line2d_14">
      <g>
       <use style="stroke:#000000;stroke-width:0.8;" x="54" xlink:href="#m260e4b4386" y="58.734545"/>
      </g>
     </g>
     <g id="text_14">
      <!-- 1000 -->
      <g transform="translate(21.55 62.533764)scale(0.1 -0.1)">
       <use xlink:href="#DejaVuSans-49"/>
       <use x="63.623047" xlink:href="#DejaVuSans-48"/>
       <use x="127.246094" xlink:href="#DejaVuSans-48"/>
       <use x="190.869141" xlink:href="#DejaVuSans-48"/>
      </g>
     </g>
    </g>
   </g>
   <g id="line2d_15">
    <path clip-path="url(#p1a1e1762d4)" d="M 69.218182 227.825455 
L 373.581818 227.825455 
L 373.581818 58.734545 
L 69.218182 58.734545 
L 69.218182 227.825455 
" style="fill:none;stroke:#000000;stroke-linecap:square;stroke-width:1.5;"/>
   </g>
   <g id="line2d_16">
    <path clip-path="url(#p1a1e1762d4)" d="M 69.218182 172.860638 
L 69.218182 227.825455 
L 174.907336 227.825455 
L 69.218182 172.860638 
" style="fill:none;stroke:#000000;stroke-dasharray:5.55,2.4;stroke-dashoffset:0;stroke-width:1.5;"/>
   </g>
   <g id="line2d_17">
    <path clip-path="url(#p1a1e1762d4)" d="M 105.040687 136.800432 
L 107.85789 170.606875 
L 145.608419 168.916553 
L 140.537452 132.292906 
L 105.040687 136.800432 
" style="fill:none;stroke:#000000;stroke-dasharray:5.55,2.4;stroke-dashoffset:0;stroke-width:1.5;"/>
   </g>
   <g id="line2d_18">
    <path clip-path="url(#p1a1e1762d4)" d="M 89.827787 58.734545 
L 88.700906 58.734545 
L 97.152516 91.725174 
L 207.412119 122.702872 
L 206.460017 144.125161 
L 276.890108 144.125161 
L 292.666448 58.734545 
L 117.436383 58.734545 
L 89.827787 58.734545 
" style="fill:none;stroke:#000000;stroke-dasharray:5.55,2.4;stroke-dashoffset:0;stroke-width:1.5;"/>
   </g>
   <g id="line2d_19">
    <path clip-path="url(#p1a1e1762d4)" d="M 78.923155 128.787024 
L 78.905062 100.900044 
L 69.387273 100.897 
L 69.3915 134.056573 
L 125.006515 134.055389 
L 125.009558 100.900044 
L 116.993296 100.900044 
L 116.992113 128.787024 
L 78.923155 128.787024 
" style="fill:none;stroke:#ff0000;stroke-linecap:square;stroke-width:1.5;"/>
   </g>
   <g id="line2d_20">
    <path clip-path="url(#p1a1e1762d4)" d="M 174.00805 175.214179 
L 174.026143 203.101159 
L 183.543932 203.104203 
L 183.539704 169.94463 
L 127.92469 169.945814 
L 127.921646 203.101159 
L 135.937908 203.101159 
L 135.939092 175.214179 
L 174.00805 175.214179 
" style="fill:none;stroke:#ff0000;stroke-linecap:square;stroke-width:1.5;"/>
   </g>
   <g id="line2d_21">
    <path clip-path="url(#p1a1e1762d4)" d="M 160.240384 160.421095 
L 151.521218 133.932227 
L 142.477726 136.899309 
L 152.829002 168.401822 
L 205.666651 151.046343 
L 195.323603 119.545577 
L 187.707613 122.047006 
L 196.408465 148.54189 
L 160.240384 160.421095 
" style="fill:none;stroke:#ff0000;stroke-linecap:square;stroke-width:1.5;"/>
   </g>
   <g id="line2d_22">
    <path clip-path="url(#p1a1e1762d4)" d="M 116.055859 124.427968 
L 90.704282 123.645905 
L 91.486345 98.294329 
L 116.837921 99.076391 
L 116.055859 124.427968 
" style="fill:none;stroke:#ff0000;stroke-linecap:square;stroke-width:1.5;"/>
   </g>
   <g id="line2d_23">
    <path clip-path="url(#p1a1e1762d4)" d="M 179.454617 142.132558 
L 155.211093 134.678325 
L 162.665326 110.434801 
L 186.90885 117.889034 
L 179.454617 142.132558 
" style="fill:none;stroke:#ff0000;stroke-linecap:square;stroke-width:1.5;"/>
   </g>
   <g id="line2d_24">
    <path clip-path="url(#p1a1e1762d4)" d="M 149.542011 133.265172 
L 125.184171 126.193419 
L 132.255923 101.835579 
L 156.613763 108.907332 
L 149.542011 133.265172 
" style="fill:none;stroke:#ff0000;stroke-linecap:square;stroke-width:1.5;"/>
   </g>
   <g id="line2d_25">
    <path clip-path="url(#p1a1e1762d4)" d="M 136.156194 204.215014 
L 136.144188 178.851381 
L 161.507821 178.839374 
L 161.519828 204.203007 
L 136.156194 204.215014 
" style="fill:none;stroke:#ff0000;stroke-linecap:square;stroke-width:1.5;"/>
   </g>
   <g id="line2d_26">
    <path clip-path="url(#p1a1e1762d4)" d="M 69.387273 172.532727 
L 69.387273 147.169091 
L 94.750909 147.169091 
L 94.750909 172.532727 
L 69.387273 172.532727 
" style="fill:none;stroke:#ff0000;stroke-linecap:square;stroke-width:1.5;"/>
   </g>
   <g id="line2d_27">
    <path clip-path="url(#p1a1e1762d4)" d="M 186.17852 185.442103 
L 182.315483 160.374375 
L 207.383211 156.511337 
L 211.246248 181.579065 
L 186.17852 185.442103 
" style="fill:none;stroke:#ff0000;stroke-linecap:square;stroke-width:1.5;"/>
   </g>
   <g id="line2d_28">
    <path clip-path="url(#p1a1e1762d4)" d="M 186.552984 211.250368 
L 183.775969 186.039215 
L 208.987122 183.262199 
L 211.764137 208.473352 
L 186.552984 211.250368 
" style="fill:none;stroke:#ff0000;stroke-linecap:square;stroke-width:1.5;"/>
   </g>
   <g id="line2d_29">
    <path clip-path="url(#p1a1e1762d4)" d="M 125.501951 200.829741 
L 97.182572 187.144428 
L 95.868681 186.153858 
L 95.032531 184.736681 
L 94.80081 183.107618 
L 95.20863 181.513496 
L 96.194199 180.195849 
L 97.608187 179.354318 
L 123.507875 175.488137 
L 127.175093 200.58526 
L 125.501951 200.829741 
" style="fill:none;stroke:#ff0000;stroke-linecap:square;stroke-width:1.5;"/>
   </g>
   <g id="line2d_30">
    <path clip-path="url(#p1a1e1762d4)" d="M 234.43722 170.414237 
L 207.949291 153.453557 
L 206.762727 152.313556 
L 206.10131 150.806882 
L 206.065256 149.161816 
L 206.660029 147.627611 
L 207.795513 146.436721 
L 209.299661 145.769583 
L 235.475462 145.015511 
L 236.12757 170.370763 
L 234.43722 170.414237 
" style="fill:none;stroke:#ff0000;stroke-linecap:square;stroke-width:1.5;"/>
   </g>
   <g id="line2d_31">
    <path clip-path="url(#p1a1e1762d4)" d="M 213.077715 207.35184 
L 209.369411 182.260756 
L 211.04215 182.013535 
L 239.383898 195.652463 
L 240.699409 196.64088 
L 241.537879 198.056686 
L 241.772266 199.685368 
L 241.367057 201.280155 
L 240.383647 202.599414 
L 238.971038 203.443258 
L 213.077715 207.35184 
" style="fill:none;stroke:#ff0000;stroke-linecap:square;stroke-width:1.5;"/>
   </g>
   <g id="line2d_32">
    <path clip-path="url(#p1a1e1762d4)" d="M 241.700924 196.168229 
L 213.59107 182.057555 
L 212.292261 181.047291 
L 211.47757 179.61767 
L 211.270434 177.985299 
L 211.702239 176.397506 
L 212.70756 175.094866 
L 214.134073 174.274747 
L 240.089101 170.799444 
L 243.377561 195.948999 
L 241.700924 196.168229 
" style="fill:none;stroke:#ff0000;stroke-linecap:square;stroke-width:1.5;"/>
   </g>
   <g id="line2d_33">
    <path clip-path="url(#p1a1e1762d4)" d="M 250.948059 227.546511 
L 222.404839 214.334409 
L 221.074644 213.365843 
L 220.215024 211.962778 
L 219.956222 210.337797 
L 220.337455 208.73711 
L 221.300959 207.403242 
L 222.700745 206.538295 
L 248.532502 202.241604 
L 252.6169 227.274218 
L 250.948059 227.546511 
" style="fill:none;stroke:#ff0000;stroke-linecap:square;stroke-width:1.5;"/>
   </g>
   <g id="line2d_34">
    <path clip-path="url(#p1a1e1762d4)" d="M 236.757788 169.770448 
L 236.740466 144.406817 
L 238.431375 144.405663 
L 264.486521 162.02396 
L 265.644182 163.193301 
L 266.267683 164.716057 
L 266.262554 166.36151 
L 265.629569 167.880348 
L 264.464636 169.042447 
L 262.944262 169.671731 
L 236.757788 169.770448 
" style="fill:none;stroke:#ff0000;stroke-linecap:square;stroke-width:1.5;"/>
   </g>
   <g id="line2d_35">
    <path clip-path="url(#p1a1e1762d4)" d="M 270.608095 194.87464 
L 243.279149 179.305318 
L 242.035263 178.228153 
L 241.296876 176.757669 
L 241.175865 175.116664 
L 241.690568 173.553775 
L 242.762998 172.305803 
L 244.230664 171.561832 
L 270.332532 169.456196 
L 272.29394 194.743879 
L 270.608095 194.87464 
" style="fill:none;stroke:#ff0000;stroke-linecap:square;stroke-width:1.5;"/>
   </g>
   <g id="line2d_36">
    <path clip-path="url(#p1a1e1762d4)" d="M 86.296364 111.693349 
L 69.387273 86.329712 
L 94.750909 86.329712 
L 86.296364 111.693349 
" style="fill:none;stroke:#ff0000;stroke-linecap:square;stroke-width:1.5;"/>
   </g>
   <g id="line2d_37">
    <path clip-path="url(#p1a1e1762d4)" d="M 69.387273 86.127273 
L 77.841818 60.763636 
L 94.750909 86.127273 
L 69.387273 86.127273 
" style="fill:none;stroke:#ff0000;stroke-linecap:square;stroke-width:1.5;"/>
   </g>
   <g id="line2d_38">
    <path clip-path="url(#p1a1e1762d4)" d="M 162.070053 220.865239 
L 162.170439 194.129807 
L 186.162057 212.934957 
L 162.070053 220.865239 
" style="fill:none;stroke:#ff0000;stroke-linecap:square;stroke-width:1.5;"/>
   </g>
   <g id="line2d_39">
    <path clip-path="url(#p1a1e1762d4)" d="M 255.919923 218.165654 
L 243.365367 190.387704 
L 268.390666 194.51668 
L 255.919923 218.165654 
" style="fill:none;stroke:#ff0000;stroke-linecap:square;stroke-width:1.5;"/>
   </g>
   <g id="line2d_40">
    <path clip-path="url(#p1a1e1762d4)" d="M 271.97265 170.613935 
L 253.370043 146.464931 
L 278.674403 144.731897 
L 271.97265 170.613935 
" style="fill:none;stroke:#ff0000;stroke-linecap:square;stroke-width:1.5;"/>
   </g>
   <g id="line2d_41">
    <path clip-path="url(#p1a1e1762d4)" d="M 256.058774 227.656364 
L 264.51332 202.292727 
L 281.422411 227.656364 
L 256.058774 227.656364 
" style="fill:none;stroke:#ff0000;stroke-linecap:square;stroke-width:1.5;"/>
   </g>
   <g id="line2d_42">
    <path clip-path="url(#p1a1e1762d4)" d="M 281.514102 227.481774 
L 264.605011 202.118138 
L 289.968647 202.118138 
L 281.514102 227.481774 
" style="fill:none;stroke:#ff0000;stroke-linecap:square;stroke-width:1.5;"/>
   </g>
   <g id="line2d_43">
    <path clip-path="url(#p1a1e1762d4)" d="M 285.101633 189.550138 
L 278.784411 187.123683 
L 272.562725 184.474077 
L 271.505516 177.789864 
L 270.689519 171.076999 
L 275.949511 166.819409 
L 281.354844 162.756275 
L 287.672066 165.182731 
L 293.893752 167.832336 
L 294.950961 174.51655 
L 295.766958 181.229415 
L 290.506965 185.487005 
L 285.101633 189.550138 
" style="fill:none;stroke:#ff0000;stroke-linecap:square;stroke-width:1.5;"/>
   </g>
   <g id="line2d_44">
    <path clip-path="url(#p1a1e1762d4)" d="M 287.95242 164.674819 
L 282.398452 160.8085 
L 276.990596 156.748342 
L 277.561998 150.005205 
L 278.374466 143.291912 
L 284.499776 140.415251 
L 290.719723 137.762154 
L 296.273692 141.628472 
L 301.681547 145.68863 
L 301.110146 152.431768 
L 300.297677 159.145061 
L 294.172368 162.021722 
L 287.95242 164.674819 
" style="fill:none;stroke:#ff0000;stroke-linecap:square;stroke-width:1.5;"/>
   </g>
   <g id="line2d_45">
    <path clip-path="url(#p1a1e1762d4)" d="M 295.189967 140.598235 
L 288.979763 137.909674 
L 282.874347 135.002155 
L 282.097641 128.279572 
L 281.563135 121.538451 
L 286.996606 117.504595 
L 292.567155 113.671104 
L 298.777359 116.359665 
L 304.882776 119.267184 
L 305.659481 125.989768 
L 306.193987 132.730889 
L 300.760516 136.764745 
L 295.189967 140.598235 
" style="fill:none;stroke:#ff0000;stroke-linecap:square;stroke-width:1.5;"/>
   </g>
   <g id="line2d_46">
    <path clip-path="url(#p1a1e1762d4)" d="M 299.803936 116.385496 
L 293.539007 113.827049 
L 287.374274 111.047506 
L 286.457522 104.342585 
L 285.78253 97.614079 
L 291.130682 93.467772 
L 296.620063 89.518928 
L 302.884992 92.077375 
L 309.049724 94.856918 
L 309.966476 101.561839 
L 310.641469 108.290345 
L 305.293316 112.436652 
L 299.803936 116.385496 
" style="fill:none;stroke:#ff0000;stroke-linecap:square;stroke-width:1.5;"/>
   </g>
   <g id="line2d_47">
    <path clip-path="url(#p1a1e1762d4)" d="M 303.284021 206.739631 
L 296.750616 204.976226 
L 290.289273 202.981023 
L 288.549742 196.441112 
L 287.047193 189.847877 
L 291.841065 185.07154 
L 296.799518 180.473669 
L 303.332923 182.237074 
L 309.794266 184.232276 
L 311.533797 190.772187 
L 313.036345 197.365423 
L 308.242474 202.14176 
L 303.284021 206.739631 
" style="fill:none;stroke:#ff0000;stroke-linecap:square;stroke-width:1.5;"/>
   </g>
   <g id="line2d_48">
    <path clip-path="url(#p1a1e1762d4)" d="M 306.16595 92.255814 
L 299.645316 90.445752 
L 293.198401 88.404414 
L 291.505663 81.852235 
L 290.050282 75.248428 
L 294.878174 70.50648 
L 299.869366 65.944171 
L 306.39 67.754233 
L 312.836915 69.795571 
L 314.529653 76.34775 
L 315.985034 82.951557 
L 311.157142 87.693504 
L 306.16595 92.255814 
" style="fill:none;stroke:#ff0000;stroke-linecap:square;stroke-width:1.5;"/>
   </g>
   <g id="line2d_49">
    <path clip-path="url(#p1a1e1762d4)" d="M 308.481897 183.551835 
L 302.187646 181.066399 
L 295.991014 178.358717 
L 294.99637 171.664907 
L 294.243196 164.944704 
L 299.54278 160.736498 
L 304.98588 156.724099 
L 311.280131 159.209535 
L 317.476762 161.917217 
L 318.471406 168.611027 
L 319.224581 175.33123 
L 313.924996 179.539436 
L 308.481897 183.551835 
" style="fill:none;stroke:#ff0000;stroke-linecap:square;stroke-width:1.5;"/>
   </g>
   <g id="patch_37">
    <path d="M 54 252 
L 54 34.56 
" style="fill:none;stroke:#000000;stroke-linecap:square;stroke-linejoin:miter;stroke-width:0.8;"/>
   </g>
   <g id="patch_38">
    <path d="M 388.8 252 
L 388.8 34.56 
" style="fill:none;stroke:#000000;stroke-linecap:square;stroke-linejoin:miter;stroke-width:0.8;"/>
   </g>
   <g id="patch_39">
    <path d="M 54 252 
L 388.8 252 
" style="fill:none;stroke:#000000;stroke-linecap:square;stroke-linejoin:miter;stroke-width:0.8;"/>
   </g>
   <g id="patch_40">
    <path d="M 54 34.56 
L 388.8 34.56 
" style="fill:none;stroke:#000000;stroke-linecap:square;stroke-linejoin:miter;stroke-width:0.8;"/>
   </g>
  </g>
 </g>
 <defs>
  <clipPath id="p1a1e1762d4">
   <rect height="217.44" width="334.8" x="54" y="34.56"/>
  </clipPath>
 </defs>
</svg>
