<?xml version="1.0" encoding="utf-8" standalone="no"?>
<!DOCTYPE svg PUBLIC "-//W3C//DTD SVG 1.1//EN"
  "http://www.w3.org/Graphics/SVG/1.1/DTD/svg11.dtd">
<!-- Created with matplotlib (https://matplotlib.org/) -->
<svg height="288pt" version="1.1" viewBox="0 0 432 288" width="432pt" xmlns="http://www.w3.org/2000/svg" xmlns:xlink="http://www.w3.org/1999/xlink">
 <defs>
  <style type="text/css">
*{stroke-linecap:butt;stroke-linejoin:round;}
  </style>
 </defs>
 <g id="figure_1">
  <g id="patch_1">
   <path d="M 0 288 
L 432 288 
L 432 0 
L 0 0 
z
" style="fill:#ffffff;"/>
  </g>
  <g id="axes_1">
   <g id="patch_2">
    <path d="M 54 252 
L 388.8 252 
L 388.8 34.56 
L 54 34.56 
z
" style="fill:#ffffff;"/>
   </g>
   <g id="patch_3">
    <path clip-path="url(#p39c1c6dbaa)" d="M 69.218182 172.860638 
L 69.218182 227.825455 
L 174.907336 227.825455 
z
" style="fill:#aaaaaa;"/>
   </g>
   <g id="patch_4">
    <path clip-path="url(#p39c1c6dbaa)" d="M 105.040687 136.800432 
L 107.85789 170.606875 
L 145.608419 168.916553 
L 140.537452 132.292906 
z
" style="fill:#aaaaaa;"/>
   </g>
   <g id="patch_5">
    <path clip-path="url(#p39c1c6dbaa)" d="M 89.827787 58.734545 
L 88.700906 58.734545 
L 97.152516 91.725174 
L 207.412119 122.702872 
L 206.460017 144.125161 
L 276.890108 144.125161 
L 292.666448 58.734545 
L 117.436383 58.734545 
z
" style="fill:#aaaaaa;"/>
   </g>
   <g id="patch_6">
    <path clip-path="url(#p39c1c6dbaa)" d="M 97.277296 162.996851 
L 69.390316 163.014943 
L 69.387273 172.532733 
L 102.546845 172.528505 
L 102.545662 116.913491 
L 69.390316 116.910447 
L 69.390316 124.926709 
L 97.277296 124.927893 
z
" style="fill:#f6929c;"/>
   </g>
   <g id="patch_7">
    <path clip-path="url(#p39c1c6dbaa)" d="M 149.88089 168.543803 
L 122.27205 172.472663 
L 123.603837 181.896816 
L 156.435106 177.242242 
L 148.634333 122.177028 
L 115.80623 126.823811 
L 116.930452 134.760849 
L 144.541995 130.851075 
z
" style="fill:#f6929c;"/>
   </g>
   <g id="patch_8">
    <path clip-path="url(#p39c1c6dbaa)" d="M 149.330444 201.656099 
L 128.726172 182.863868 
L 122.305602 189.889862 
L 146.793868 212.247906 
L 184.296991 171.180332 
L 159.81675 148.81977 
L 154.410982 154.739071 
L 175.002255 173.545537 
z
" style="fill:#f6929c;"/>
   </g>
   <g id="patch_9">
    <path clip-path="url(#p39c1c6dbaa)" d="M 69.387273 116.732727 
L 69.387273 91.369091 
L 94.750909 91.369091 
L 94.750909 116.732727 
z
" style="fill:#f6929c;"/>
   </g>
   <g id="patch_10">
    <path clip-path="url(#p39c1c6dbaa)" d="M 69.387273 162.741749 
L 69.387273 137.378113 
L 94.750909 137.378113 
L 94.750909 162.741749 
z
" style="fill:#f6929c;"/>
   </g>
   <g id="patch_11">
    <path clip-path="url(#p39c1c6dbaa)" d="M 175.042499 140.951309 
L 150.781468 133.554256 
L 158.17852 109.293224 
L 182.439552 116.690277 
z
" style="fill:#f6929c;"/>
   </g>
   <g id="patch_12">
    <path clip-path="url(#p39c1c6dbaa)" d="M 175.546949 227.484622 
L 153.386447 215.146624 
L 165.724446 192.986122 
L 187.884948 205.32412 
z
" style="fill:#f6929c;"/>
   </g>
   <g id="patch_13">
    <path clip-path="url(#p39c1c6dbaa)" d="M 185.134061 169.529447 
L 165.367607 153.636011 
L 181.261043 133.869556 
L 201.027498 149.762992 
z
" style="fill:#f6929c;"/>
   </g>
   <g id="patch_14">
    <path clip-path="url(#p39c1c6dbaa)" d="M 189.085999 206.056926 
L 169.319544 190.16349 
L 185.21298 170.397035 
L 204.979435 186.290471 
z
" style="fill:#f6929c;"/>
   </g>
   <g id="patch_15">
    <path clip-path="url(#p39c1c6dbaa)" d="M 204.496682 227.656364 
L 184.730228 211.762927 
L 200.623664 191.996473 
L 220.390119 207.889909 
z
" style="fill:#f6929c;"/>
   </g>
   <g id="patch_16">
    <path clip-path="url(#p39c1c6dbaa)" d="M 110.749257 130.790058 
L 109.284289 129.945639 
L 95.528345 101.660501 
L 95.110413 100.069001 
L 95.331784 98.438501 
L 96.158919 97.016041 
L 97.466495 96.01715 
L 99.056396 95.593171 
L 100.687726 95.808344 
L 123.415547 108.815547 
z
" style="fill:#f6929c;"/>
   </g>
   <g id="patch_17">
    <path clip-path="url(#p39c1c6dbaa)" d="M 118.820399 198.304977 
L 91.273192 183.125174 
L 90.01414 182.065775 
L 89.254953 180.605921 
L 89.110659 178.9668 
L 89.603124 177.396762 
L 90.65773 176.133691 
L 92.114688 175.368961 
L 118.184034 172.893006 
L 120.504219 198.150298 
z
" style="fill:#f6929c;"/>
   </g>
   <g id="patch_18">
    <path clip-path="url(#p39c1c6dbaa)" d="M 211.541579 174.639718 
L 186.508789 170.556402 
L 186.78101 168.88755 
L 208.379754 146.023401 
L 209.720866 145.070009 
L 211.324389 144.700886 
L 212.947368 144.97196 
L 214.343896 145.842161 
L 215.302379 147.17964 
L 215.677594 148.781748 
z
" style="fill:#f6929c;"/>
   </g>
   <g id="patch_19">
    <path clip-path="url(#p39c1c6dbaa)" d="M 223.753832 202.749819 
L 222.088103 202.459092 
L 199.465092 180.607904 
L 198.526644 179.256293 
L 198.175342 177.648772 
L 198.464413 176.028901 
L 199.35006 174.642118 
L 200.698096 173.698539 
L 202.30427 173.341129 
L 228.11474 177.763892 
z
" style="fill:#f6929c;"/>
   </g>
   <g id="patch_20">
    <path clip-path="url(#p39c1c6dbaa)" d="M 209.063454 227.590239 
L 209.052731 225.899364 
L 226.523319 199.744945 
L 227.68609 198.580686 
L 229.205293 197.948579 
L 230.850749 197.944397 
L 232.373145 198.568778 
L 233.541817 199.727116 
L 234.179693 201.243906 
L 234.42658 227.429402 
z
" style="fill:#f6929c;"/>
   </g>
   <g id="patch_21">
    <path clip-path="url(#p39c1c6dbaa)" d="M 237.319887 176.034468 
L 212.005981 174.446951 
L 212.111816 172.759357 
L 231.343369 147.871159 
L 232.583614 146.789804 
L 234.142768 146.2639 
L 235.7846 146.37313 
L 237.260345 147.100945 
L 238.346408 148.337072 
L 238.878234 149.894216 
z
" style="fill:#f6929c;"/>
   </g>
   <g id="patch_22">
    <path clip-path="url(#p39c1c6dbaa)" d="M 240.251809 212.688531 
L 238.892708 211.68254 
L 228.452477 182.013084 
L 228.218785 180.384304 
L 228.624672 178.78969 
L 229.608643 177.470848 
L 231.021612 176.627605 
L 232.649494 176.387723 
L 234.245638 176.787546 
L 255.34167 192.302012 
z
" style="fill:#f6929c;"/>
   </g>
   <g id="patch_23">
    <path clip-path="url(#p39c1c6dbaa)" d="M 69.397912 91.13011 
L 69.740062 60.648733 
L 90.684638 74.953934 
z
" style="fill:#f6929c;"/>
   </g>
   <g id="patch_24">
    <path clip-path="url(#p39c1c6dbaa)" d="M 115.552989 123.893885 
L 128.320141 101.97782 
L 145.980488 122.050326 
z
" style="fill:#f6929c;"/>
   </g>
   <g id="patch_25">
    <path clip-path="url(#p39c1c6dbaa)" d="M 149.211583 200.384366 
L 129.014053 182.867141 
L 158.917826 176.951421 
z
" style="fill:#f6929c;"/>
   </g>
   <g id="patch_26">
    <path clip-path="url(#p39c1c6dbaa)" d="M 205.688953 148.595181 
L 180.181297 131.904138 
L 203.509399 121.948551 
z
" style="fill:#f6929c;"/>
   </g>
   <g id="patch_27">
    <path clip-path="url(#p39c1c6dbaa)" d="M 237.749773 177.246609 
L 239.341324 146.804888 
L 259.681799 161.956756 
z
" style="fill:#f6929c;"/>
   </g>
   <g id="patch_28">
    <path clip-path="url(#p39c1c6dbaa)" d="M 234.695689 226.899885 
L 249.684788 200.356368 
L 261.143023 222.984291 
z
" style="fill:#f6929c;"/>
   </g>
   <g id="patch_29">
    <path clip-path="url(#p39c1c6dbaa)" d="M 261.976187 195.003012 
L 236.77011 177.859934 
L 260.271968 168.321763 
z
" style="fill:#f6929c;"/>
   </g>
   <g id="patch_30">
    <path clip-path="url(#p39c1c6dbaa)" d="M 260.529724 217.291847 
L 256.639343 211.754707 
L 252.95271 206.085623 
L 255.80291 199.947808 
L 258.869305 193.920734 
L 265.609776 193.320188 
L 272.362438 192.962104 
L 276.252819 198.499244 
L 279.939452 204.168329 
L 277.089252 210.306143 
L 274.022857 216.333217 
L 267.282386 216.933764 
z
" style="fill:#f6929c;"/>
   </g>
   <g id="patch_31">
    <path clip-path="url(#p39c1c6dbaa)" d="M 262.476782 169.062833 
L 258.852781 163.3478 
L 255.438544 157.510612 
L 258.575997 151.514547 
L 261.924164 145.639329 
L 268.685502 145.35842 
L 275.447544 145.320279 
L 279.071545 151.035312 
L 282.485782 156.872501 
L 279.348329 162.868565 
L 276.000162 168.743783 
L 269.238824 169.024692 
z
" style="fill:#f6929c;"/>
   </g>
   <g id="patch_32">
    <path clip-path="url(#p39c1c6dbaa)" d="M 280.087092 194.249629 
L 273.355234 193.55921 
L 266.65745 192.628425 
L 263.889383 186.453249 
L 261.346415 180.187223 
L 265.31034 174.702362 
L 269.465497 169.367282 
L 276.197355 170.057701 
L 282.895139 170.988486 
L 285.663206 177.163661 
L 288.206174 183.429688 
L 284.242249 188.914549 
z
" style="fill:#f6929c;"/>
   </g>
   <g id="patch_33">
    <path clip-path="url(#p39c1c6dbaa)" d="M 281.726421 227.538994 
L 278.107206 221.820929 
L 274.697857 215.980884 
L 277.840329 209.987448 
L 281.193413 204.115035 
L 287.954984 203.839787 
L 294.717056 203.807308 
L 298.336271 209.525373 
L 301.74562 215.365417 
L 298.603147 221.358853 
L 295.250063 227.231266 
L 288.488493 227.506514 
z
" style="fill:#f6929c;"/>
   </g>
   <g id="patch_34">
    <path clip-path="url(#p39c1c6dbaa)" d="M 284.30863 155.756957 
L 279.957242 150.574291 
L 275.797669 145.242816 
L 278.110258 138.883027 
L 280.647676 132.614751 
L 287.311821 131.437645 
L 294.008945 130.501197 
L 298.360333 135.683862 
L 302.519906 141.015337 
L 300.207317 147.375126 
L 297.669899 153.643403 
L 291.005754 154.820509 
z
" style="fill:#f6929c;"/>
   </g>
   <g id="patch_35">
    <path clip-path="url(#p39c1c6dbaa)" d="M 292.900362 130.261441 
L 287.443032 126.259876 
L 282.136532 122.068117 
L 282.873382 115.341048 
L 283.850494 108.649736 
L 290.044611 105.92439 
L 296.327846 103.424864 
L 301.785176 107.42643 
L 307.091676 111.618188 
L 306.354826 118.345257 
L 305.377714 125.036569 
L 299.183597 127.761916 
z
" style="fill:#f6929c;"/>
   </g>
   <g id="patch_36">
    <path clip-path="url(#p39c1c6dbaa)" d="M 289.736376 179.853799 
L 285.076262 174.946687 
L 280.598616 169.879233 
L 282.518208 163.390029 
L 284.667765 156.978627 
L 291.247393 155.396385 
L 297.874818 154.052132 
L 302.534931 158.959243 
L 307.012577 164.026698 
L 305.092985 170.515901 
L 302.943428 176.927303 
L 296.363801 178.509545 
z
" style="fill:#f6929c;"/>
   </g>
   <g id="matplotlib.axis_1">
    <g id="xtick_1">
     <g id="line2d_1">
      <defs>
       <path d="M 0 0 
L 0 3.5 
" id="m1e7e464a74" style="stroke:#000000;stroke-width:0.8;"/>
      </defs>
      <g>
       <use style="stroke:#000000;stroke-width:0.8;" x="69.218182" xlink:href="#m1e7e464a74" y="252"/>
      </g>
     </g>
     <g id="text_1">
      <!-- 0 -->
      <defs>
       <path d="M 31.78125 66.40625 
Q 24.171875 66.40625 20.328125 58.90625 
Q 16.5 51.421875 16.5 36.375 
Q 16.5 21.390625 20.328125 13.890625 
Q 24.171875 6.390625 31.78125 6.390625 
Q 39.453125 6.390625 43.28125 13.890625 
Q 47.125 21.390625 47.125 36.375 
Q 47.125 51.421875 43.28125 58.90625 
Q 39.453125 66.40625 31.78125 66.40625 
z
M 31.78125 74.21875 
Q 44.046875 74.21875 50.515625 64.515625 
Q 56.984375 54.828125 56.984375 36.375 
Q 56.984375 17.96875 50.515625 8.265625 
Q 44.046875 -1.421875 31.78125 -1.421875 
Q 19.53125 -1.421875 13.0625 8.265625 
Q 6.59375 17.96875 6.59375 36.375 
Q 6.59375 54.828125 13.0625 64.515625 
Q 19.53125 74.21875 31.78125 74.21875 
z
" id="DejaVuSans-48"/>
      </defs>
      <g transform="translate(66.036932 266.598437)scale(0.1 -0.1)">
       <use xlink:href="#DejaVuSans-48"/>
      </g>
     </g>
    </g>
    <g id="xtick_2">
     <g id="line2d_2">
      <g>
       <use style="stroke:#000000;stroke-width:0.8;" x="111.490909" xlink:href="#m1e7e464a74" y="252"/>
      </g>
     </g>
     <g id="text_2">
      <!-- 250 -->
      <defs>
       <path d="M 19.1875 8.296875 
L 53.609375 8.296875 
L 53.609375 0 
L 7.328125 0 
L 7.328125 8.296875 
Q 12.9375 14.109375 22.625 23.890625 
Q 32.328125 33.6875 34.8125 36.53125 
Q 39.546875 41.84375 41.421875 45.53125 
Q 43.3125 49.21875 43.3125 52.78125 
Q 43.3125 58.59375 39.234375 62.25 
Q 35.15625 65.921875 28.609375 65.921875 
Q 23.96875 65.921875 18.8125 64.3125 
Q 13.671875 62.703125 7.8125 59.421875 
L 7.8125 69.390625 
Q 13.765625 71.78125 18.9375 73 
Q 24.125 74.21875 28.421875 74.21875 
Q 39.75 74.21875 46.484375 68.546875 
Q 53.21875 62.890625 53.21875 53.421875 
Q 53.21875 48.921875 51.53125 44.890625 
Q 49.859375 40.875 45.40625 35.40625 
Q 44.1875 33.984375 37.640625 27.21875 
Q 31.109375 20.453125 19.1875 8.296875 
z
" id="DejaVuSans-50"/>
       <path d="M 10.796875 72.90625 
L 49.515625 72.90625 
L 49.515625 64.59375 
L 19.828125 64.59375 
L 19.828125 46.734375 
Q 21.96875 47.46875 24.109375 47.828125 
Q 26.265625 48.1875 28.421875 48.1875 
Q 40.625 48.1875 47.75 41.5 
Q 54.890625 34.8125 54.890625 23.390625 
Q 54.890625 11.625 47.5625 5.09375 
Q 40.234375 -1.421875 26.90625 -1.421875 
Q 22.3125 -1.421875 17.546875 -0.640625 
Q 12.796875 0.140625 7.71875 1.703125 
L 7.71875 11.625 
Q 12.109375 9.234375 16.796875 8.0625 
Q 21.484375 6.890625 26.703125 6.890625 
Q 35.15625 6.890625 40.078125 11.328125 
Q 45.015625 15.765625 45.015625 23.390625 
Q 45.015625 31 40.078125 35.4375 
Q 35.15625 39.890625 26.703125 39.890625 
Q 22.75 39.890625 18.8125 39.015625 
Q 14.890625 38.140625 10.796875 36.28125 
z
" id="DejaVuSans-53"/>
      </defs>
      <g transform="translate(101.947159 266.598437)scale(0.1 -0.1)">
       <use xlink:href="#DejaVuSans-50"/>
       <use x="63.623047" xlink:href="#DejaVuSans-53"/>
       <use x="127.246094" xlink:href="#DejaVuSans-48"/>
      </g>
     </g>
    </g>
    <g id="xtick_3">
     <g id="line2d_3">
      <g>
       <use style="stroke:#000000;stroke-width:0.8;" x="153.763636" xlink:href="#m1e7e464a74" y="252"/>
      </g>
     </g>
     <g id="text_3">
      <!-- 500 -->
      <g transform="translate(144.219886 266.598437)scale(0.1 -0.1)">
       <use xlink:href="#DejaVuSans-53"/>
       <use x="63.623047" xlink:href="#DejaVuSans-48"/>
       <use x="127.246094" xlink:href="#DejaVuSans-48"/>
      </g>
     </g>
    </g>
    <g id="xtick_4">
     <g id="line2d_4">
      <g>
       <use style="stroke:#000000;stroke-width:0.8;" x="196.036364" xlink:href="#m1e7e464a74" y="252"/>
      </g>
     </g>
     <g id="text_4">
      <!-- 750 -->
      <defs>
       <path d="M 8.203125 72.90625 
L 55.078125 72.90625 
L 55.078125 68.703125 
L 28.609375 0 
L 18.3125 0 
L 43.21875 64.59375 
L 8.203125 64.59375 
z
" id="DejaVuSans-55"/>
      </defs>
      <g transform="translate(186.492614 266.598437)scale(0.1 -0.1)">
       <use xlink:href="#DejaVuSans-55"/>
       <use x="63.623047" xlink:href="#DejaVuSans-53"/>
       <use x="127.246094" xlink:href="#DejaVuSans-48"/>
      </g>
     </g>
    </g>
    <g id="xtick_5">
     <g id="line2d_5">
      <g>
       <use style="stroke:#000000;stroke-width:0.8;" x="238.309091" xlink:href="#m1e7e464a74" y="252"/>
      </g>
     </g>
     <g id="text_5">
      <!-- 1000 -->
      <defs>
       <path d="M 12.40625 8.296875 
L 28.515625 8.296875 
L 28.515625 63.921875 
L 10.984375 60.40625 
L 10.984375 69.390625 
L 28.421875 72.90625 
L 38.28125 72.90625 
L 38.28125 8.296875 
L 54.390625 8.296875 
L 54.390625 0 
L 12.40625 0 
z
" id="DejaVuSans-49"/>
      </defs>
      <g transform="translate(225.584091 266.598437)scale(0.1 -0.1)">
       <use xlink:href="#DejaVuSans-49"/>
       <use x="63.623047" xlink:href="#DejaVuSans-48"/>
       <use x="127.246094" xlink:href="#DejaVuSans-48"/>
       <use x="190.869141" xlink:href="#DejaVuSans-48"/>
      </g>
     </g>
    </g>
    <g id="xtick_6">
     <g id="line2d_6">
      <g>
       <use style="stroke:#000000;stroke-width:0.8;" x="280.581818" xlink:href="#m1e7e464a74" y="252"/>
      </g>
     </g>
     <g id="text_6">
      <!-- 1250 -->
      <g transform="translate(267.856818 266.598437)scale(0.1 -0.1)">
       <use xlink:href="#DejaVuSans-49"/>
       <use x="63.623047" xlink:href="#DejaVuSans-50"/>
       <use x="127.246094" xlink:href="#DejaVuSans-53"/>
       <use x="190.869141" xlink:href="#DejaVuSans-48"/>
      </g>
     </g>
    </g>
    <g id="xtick_7">
     <g id="line2d_7">
      <g>
       <use style="stroke:#000000;stroke-width:0.8;" x="322.854545" xlink:href="#m1e7e464a74" y="252"/>
      </g>
     </g>
     <g id="text_7">
      <!-- 1500 -->
      <g transform="translate(310.129545 266.598437)scale(0.1 -0.1)">
       <use xlink:href="#DejaVuSans-49"/>
       <use x="63.623047" xlink:href="#DejaVuSans-53"/>
       <use x="127.246094" xlink:href="#DejaVuSans-48"/>
       <use x="190.869141" xlink:href="#DejaVuSans-48"/>
      </g>
     </g>
    </g>
    <g id="xtick_8">
     <g id="line2d_8">
      <g>
       <use style="stroke:#000000;stroke-width:0.8;" x="365.127273" xlink:href="#m1e7e464a74" y="252"/>
      </g>
     </g>
     <g id="text_8">
      <!-- 1750 -->
      <g transform="translate(352.402273 266.598437)scale(0.1 -0.1)">
       <use xlink:href="#DejaVuSans-49"/>
       <use x="63.623047" xlink:href="#DejaVuSans-55"/>
       <use x="127.246094" xlink:href="#DejaVuSans-53"/>
       <use x="190.869141" xlink:href="#DejaVuSans-48"/>
      </g>
     </g>
    </g>
   </g>
   <g id="matplotlib.axis_2">
    <g id="ytick_1">
     <g id="line2d_9">
      <defs>
       <path d="M 0 0 
L -3.5 0 
" id="m63053029f4" style="stroke:#000000;stroke-width:0.8;"/>
      </defs>
      <g>
       <use style="stroke:#000000;stroke-width:0.8;" x="54" xlink:href="#m63053029f4" y="227.825455"/>
      </g>
     </g>
     <g id="text_9">
      <!-- 0 -->
      <g transform="translate(40.6375 231.624673)scale(0.1 -0.1)">
       <use xlink:href="#DejaVuSans-48"/>
      </g>
     </g>
    </g>
    <g id="ytick_2">
     <g id="line2d_10">
      <g>
       <use style="stroke:#000000;stroke-width:0.8;" x="54" xlink:href="#m63053029f4" y="194.007273"/>
      </g>
     </g>
     <g id="text_10">
      <!-- 200 -->
      <g transform="translate(27.9125 197.806491)scale(0.1 -0.1)">
       <use xlink:href="#DejaVuSans-50"/>
       <use x="63.623047" xlink:href="#DejaVuSans-48"/>
       <use x="127.246094" xlink:href="#DejaVuSans-48"/>
      </g>
     </g>
    </g>
    <g id="ytick_3">
     <g id="line2d_11">
      <g>
       <use style="stroke:#000000;stroke-width:0.8;" x="54" xlink:href="#m63053029f4" y="160.189091"/>
      </g>
     </g>
     <g id="text_11">
      <!-- 400 -->
      <defs>
       <path d="M 37.796875 64.3125 
L 12.890625 25.390625 
L 37.796875 25.390625 
z
M 35.203125 72.90625 
L 47.609375 72.90625 
L 47.609375 25.390625 
L 58.015625 25.390625 
L 58.015625 17.1875 
L 47.609375 17.1875 
L 47.609375 0 
L 37.796875 0 
L 37.796875 17.1875 
L 4.890625 17.1875 
L 4.890625 26.703125 
z
" id="DejaVuSans-52"/>
      </defs>
      <g transform="translate(27.9125 163.98831)scale(0.1 -0.1)">
       <use xlink:href="#DejaVuSans-52"/>
       <use x="63.623047" xlink:href="#DejaVuSans-48"/>
       <use x="127.246094" xlink:href="#DejaVuSans-48"/>
      </g>
     </g>
    </g>
    <g id="ytick_4">
     <g id="line2d_12">
      <g>
       <use style="stroke:#000000;stroke-width:0.8;" x="54" xlink:href="#m63053029f4" y="126.370909"/>
      </g>
     </g>
     <g id="text_12">
      <!-- 600 -->
      <defs>
       <path d="M 33.015625 40.375 
Q 26.375 40.375 22.484375 35.828125 
Q 18.609375 31.296875 18.609375 23.390625 
Q 18.609375 15.53125 22.484375 10.953125 
Q 26.375 6.390625 33.015625 6.390625 
Q 39.65625 6.390625 43.53125 10.953125 
Q 47.40625 15.53125 47.40625 23.390625 
Q 47.40625 31.296875 43.53125 35.828125 
Q 39.65625 40.375 33.015625 40.375 
z
M 52.59375 71.296875 
L 52.59375 62.3125 
Q 48.875 64.0625 45.09375 64.984375 
Q 41.3125 65.921875 37.59375 65.921875 
Q 27.828125 65.921875 22.671875 59.328125 
Q 17.53125 52.734375 16.796875 39.40625 
Q 19.671875 43.65625 24.015625 45.921875 
Q 28.375 48.1875 33.59375 48.1875 
Q 44.578125 48.1875 50.953125 41.515625 
Q 57.328125 34.859375 57.328125 23.390625 
Q 57.328125 12.15625 50.6875 5.359375 
Q 44.046875 -1.421875 33.015625 -1.421875 
Q 20.359375 -1.421875 13.671875 8.265625 
Q 6.984375 17.96875 6.984375 36.375 
Q 6.984375 53.65625 15.1875 63.9375 
Q 23.390625 74.21875 37.203125 74.21875 
Q 40.921875 74.21875 44.703125 73.484375 
Q 48.484375 72.75 52.59375 71.296875 
z
" id="DejaVuSans-54"/>
      </defs>
      <g transform="translate(27.9125 130.170128)scale(0.1 -0.1)">
       <use xlink:href="#DejaVuSans-54"/>
       <use x="63.623047" xlink:href="#DejaVuSans-48"/>
       <use x="127.246094" xlink:href="#DejaVuSans-48"/>
      </g>
     </g>
    </g>
    <g id="ytick_5">
     <g id="line2d_13">
      <g>
       <use style="stroke:#000000;stroke-width:0.8;" x="54" xlink:href="#m63053029f4" y="92.552727"/>
      </g>
     </g>
     <g id="text_13">
      <!-- 800 -->
      <defs>
       <path d="M 31.78125 34.625 
Q 24.75 34.625 20.71875 30.859375 
Q 16.703125 27.09375 16.703125 20.515625 
Q 16.703125 13.921875 20.71875 10.15625 
Q 24.75 6.390625 31.78125 6.390625 
Q 38.8125 6.390625 42.859375 10.171875 
Q 46.921875 13.96875 46.921875 20.515625 
Q 46.921875 27.09375 42.890625 30.859375 
Q 38.875 34.625 31.78125 34.625 
z
M 21.921875 38.8125 
Q 15.578125 40.375 12.03125 44.71875 
Q 8.5 49.078125 8.5 55.328125 
Q 8.5 64.0625 14.71875 69.140625 
Q 20.953125 74.21875 31.78125 74.21875 
Q 42.671875 74.21875 48.875 69.140625 
Q 55.078125 64.0625 55.078125 55.328125 
Q 55.078125 49.078125 51.53125 44.71875 
Q 48 40.375 41.703125 38.8125 
Q 48.828125 37.15625 52.796875 32.3125 
Q 56.78125 27.484375 56.78125 20.515625 
Q 56.78125 9.90625 50.3125 4.234375 
Q 43.84375 -1.421875 31.78125 -1.421875 
Q 19.734375 -1.421875 13.25 4.234375 
Q 6.78125 9.90625 6.78125 20.515625 
Q 6.78125 27.484375 10.78125 32.3125 
Q 14.796875 37.15625 21.921875 38.8125 
z
M 18.3125 54.390625 
Q 18.3125 48.734375 21.84375 45.5625 
Q 25.390625 42.390625 31.78125 42.390625 
Q 38.140625 42.390625 41.71875 45.5625 
Q 45.3125 48.734375 45.3125 54.390625 
Q 45.3125 60.0625 41.71875 63.234375 
Q 38.140625 66.40625 31.78125 66.40625 
Q 25.390625 66.40625 21.84375 63.234375 
Q 18.3125 60.0625 18.3125 54.390625 
z
" id="DejaVuSans-56"/>
      </defs>
      <g transform="translate(27.9125 96.351946)scale(0.1 -0.1)">
       <use xlink:href="#DejaVuSans-56"/>
       <use x="63.623047" xlink:href="#DejaVuSans-48"/>
       <use x="127.246094" xlink:href="#DejaVuSans-48"/>
      </g>
     </g>
    </g>
    <g id="ytick_6">
     <g id="line2d_14">
      <g>
       <use style="stroke:#000000;stroke-width:0.8;" x="54" xlink:href="#m63053029f4" y="58.734545"/>
      </g>
     </g>
     <g id="text_14">
      <!-- 1000 -->
      <g transform="translate(21.55 62.533764)scale(0.1 -0.1)">
       <use xlink:href="#DejaVuSans-49"/>
       <use x="63.623047" xlink:href="#DejaVuSans-48"/>
       <use x="127.246094" xlink:href="#DejaVuSans-48"/>
       <use x="190.869141" xlink:href="#DejaVuSans-48"/>
      </g>
     </g>
    </g>
   </g>
   <g id="line2d_15">
    <path clip-path="url(#p39c1c6dbaa)" d="M 69.218182 227.825455 
L 373.581818 227.825455 
L 373.581818 58.734545 
L 69.218182 58.734545 
L 69.218182 227.825455 
" style="fill:none;stroke:#000000;stroke-linecap:square;stroke-width:1.5;"/>
   </g>
   <g id="line2d_16">
    <path clip-path="url(#p39c1c6dbaa)" d="M 69.218182 172.860638 
L 69.218182 227.825455 
L 174.907336 227.825455 
L 69.218182 172.860638 
" style="fill:none;stroke:#000000;stroke-dasharray:5.55,2.4;stroke-dashoffset:0;stroke-width:1.5;"/>
   </g>
   <g id="line2d_17">
    <path clip-path="url(#p39c1c6dbaa)" d="M 105.040687 136.800432 
L 107.85789 170.606875 
L 145.608419 168.916553 
L 140.537452 132.292906 
L 105.040687 136.800432 
" style="fill:none;stroke:#000000;stroke-dasharray:5.55,2.4;stroke-dashoffset:0;stroke-width:1.5;"/>
   </g>
   <g id="line2d_18">
    <path clip-path="url(#p39c1c6dbaa)" d="M 89.827787 58.734545 
L 88.700906 58.734545 
L 97.152516 91.725174 
L 207.412119 122.702872 
L 206.460017 144.125161 
L 276.890108 144.125161 
L 292.666448 58.734545 
L 117.436383 58.734545 
L 89.827787 58.734545 
" style="fill:none;stroke:#000000;stroke-dasharray:5.55,2.4;stroke-dashoffset:0;stroke-width:1.5;"/>
   </g>
   <g id="line2d_19">
    <path clip-path="url(#p39c1c6dbaa)" d="M 97.277296 162.996851 
L 69.390316 163.014943 
L 69.387273 172.532733 
L 102.546845 172.528505 
L 102.545662 116.913491 
L 69.390316 116.910447 
L 69.390316 124.926709 
L 97.277296 124.927893 
L 97.277296 162.996851 
" style="fill:none;stroke:#ff0000;stroke-linecap:square;stroke-width:1.5;"/>
   </g>
   <g id="line2d_20">
    <path clip-path="url(#p39c1c6dbaa)" d="M 149.88089 168.543803 
L 122.27205 172.472663 
L 123.603837 181.896816 
L 156.435106 177.242242 
L 148.634333 122.177028 
L 115.80623 126.823811 
L 116.930452 134.760849 
L 144.541995 130.851075 
L 149.88089 168.543803 
" style="fill:none;stroke:#ff0000;stroke-linecap:square;stroke-width:1.5;"/>
   </g>
   <g id="line2d_21">
    <path clip-path="url(#p39c1c6dbaa)" d="M 149.330444 201.656099 
L 128.726172 182.863868 
L 122.305602 189.889862 
L 146.793868 212.247906 
L 184.296991 171.180332 
L 159.81675 148.81977 
L 154.410982 154.739071 
L 175.002255 173.545537 
L 149.330444 201.656099 
" style="fill:none;stroke:#ff0000;stroke-linecap:square;stroke-width:1.5;"/>
   </g>
   <g id="line2d_22">
    <path clip-path="url(#p39c1c6dbaa)" d="M 69.387273 116.732727 
L 69.387273 91.369091 
L 94.750909 91.369091 
L 94.750909 116.732727 
L 69.387273 116.732727 
" style="fill:none;stroke:#ff0000;stroke-linecap:square;stroke-width:1.5;"/>
   </g>
   <g id="line2d_23">
    <path clip-path="url(#p39c1c6dbaa)" d="M 69.387273 162.741749 
L 69.387273 137.378113 
L 94.750909 137.378113 
L 94.750909 162.741749 
L 69.387273 162.741749 
" style="fill:none;stroke:#ff0000;stroke-linecap:square;stroke-width:1.5;"/>
   </g>
   <g id="line2d_24">
    <path clip-path="url(#p39c1c6dbaa)" d="M 175.042499 140.951309 
L 150.781468 133.554256 
L 158.17852 109.293224 
L 182.439552 116.690277 
L 175.042499 140.951309 
" style="fill:none;stroke:#ff0000;stroke-linecap:square;stroke-width:1.5;"/>
   </g>
   <g id="line2d_25">
    <path clip-path="url(#p39c1c6dbaa)" d="M 175.546949 227.484622 
L 153.386447 215.146624 
L 165.724446 192.986122 
L 187.884948 205.32412 
L 175.546949 227.484622 
" style="fill:none;stroke:#ff0000;stroke-linecap:square;stroke-width:1.5;"/>
   </g>
   <g id="line2d_26">
    <path clip-path="url(#p39c1c6dbaa)" d="M 185.134061 169.529447 
L 165.367607 153.636011 
L 181.261043 133.869556 
L 201.027498 149.762992 
L 185.134061 169.529447 
" style="fill:none;stroke:#ff0000;stroke-linecap:square;stroke-width:1.5;"/>
   </g>
   <g id="line2d_27">
    <path clip-path="url(#p39c1c6dbaa)" d="M 189.085999 206.056926 
L 169.319544 190.16349 
L 185.21298 170.397035 
L 204.979435 186.290471 
L 189.085999 206.056926 
" style="fill:none;stroke:#ff0000;stroke-linecap:square;stroke-width:1.5;"/>
   </g>
   <g id="line2d_28">
    <path clip-path="url(#p39c1c6dbaa)" d="M 204.496682 227.656364 
L 184.730228 211.762927 
L 200.623664 191.996473 
L 220.390119 207.889909 
L 204.496682 227.656364 
" style="fill:none;stroke:#ff0000;stroke-linecap:square;stroke-width:1.5;"/>
   </g>
   <g id="line2d_29">
    <path clip-path="url(#p39c1c6dbaa)" d="M 110.749257 130.790058 
L 109.284289 129.945639 
L 95.528345 101.660501 
L 95.110413 100.069001 
L 95.331784 98.438501 
L 96.158919 97.016041 
L 97.466495 96.01715 
L 99.056396 95.593171 
L 100.687726 95.808344 
L 123.415547 108.815547 
L 110.749257 130.790058 
" style="fill:none;stroke:#ff0000;stroke-linecap:square;stroke-width:1.5;"/>
   </g>
   <g id="line2d_30">
    <path clip-path="url(#p39c1c6dbaa)" d="M 118.820399 198.304977 
L 91.273192 183.125174 
L 90.01414 182.065775 
L 89.254953 180.605921 
L 89.110659 178.9668 
L 89.603124 177.396762 
L 90.65773 176.133691 
L 92.114688 175.368961 
L 118.184034 172.893006 
L 120.504219 198.150298 
L 118.820399 198.304977 
" style="fill:none;stroke:#ff0000;stroke-linecap:square;stroke-width:1.5;"/>
   </g>
   <g id="line2d_31">
    <path clip-path="url(#p39c1c6dbaa)" d="M 211.541579 174.639718 
L 186.508789 170.556402 
L 186.78101 168.88755 
L 208.379754 146.023401 
L 209.720866 145.070009 
L 211.324389 144.700886 
L 212.947368 144.97196 
L 214.343896 145.842161 
L 215.302379 147.17964 
L 215.677594 148.781748 
L 211.541579 174.639718 
" style="fill:none;stroke:#ff0000;stroke-linecap:square;stroke-width:1.5;"/>
   </g>
   <g id="line2d_32">
    <path clip-path="url(#p39c1c6dbaa)" d="M 223.753832 202.749819 
L 222.088103 202.459092 
L 199.465092 180.607904 
L 198.526644 179.256293 
L 198.175342 177.648772 
L 198.464413 176.028901 
L 199.35006 174.642118 
L 200.698096 173.698539 
L 202.30427 173.341129 
L 228.11474 177.763892 
L 223.753832 202.749819 
" style="fill:none;stroke:#ff0000;stroke-linecap:square;stroke-width:1.5;"/>
   </g>
   <g id="line2d_33">
    <path clip-path="url(#p39c1c6dbaa)" d="M 209.063454 227.590239 
L 209.052731 225.899364 
L 226.523319 199.744945 
L 227.68609 198.580686 
L 229.205293 197.948579 
L 230.850749 197.944397 
L 232.373145 198.568778 
L 233.541817 199.727116 
L 234.179693 201.243906 
L 234.42658 227.429402 
L 209.063454 227.590239 
" style="fill:none;stroke:#ff0000;stroke-linecap:square;stroke-width:1.5;"/>
   </g>
   <g id="line2d_34">
    <path clip-path="url(#p39c1c6dbaa)" d="M 237.319887 176.034468 
L 212.005981 174.446951 
L 212.111816 172.759357 
L 231.343369 147.871159 
L 232.583614 146.789804 
L 234.142768 146.2639 
L 235.7846 146.37313 
L 237.260345 147.100945 
L 238.346408 148.337072 
L 238.878234 149.894216 
L 237.319887 176.034468 
" style="fill:none;stroke:#ff0000;stroke-linecap:square;stroke-width:1.5;"/>
   </g>
   <g id="line2d_35">
    <path clip-path="url(#p39c1c6dbaa)" d="M 240.251809 212.688531 
L 238.892708 211.68254 
L 228.452477 182.013084 
L 228.218785 180.384304 
L 228.624672 178.78969 
L 229.608643 177.470848 
L 231.021612 176.627605 
L 232.649494 176.387723 
L 234.245638 176.787546 
L 255.34167 192.302012 
L 240.251809 212.688531 
" style="fill:none;stroke:#ff0000;stroke-linecap:square;stroke-width:1.5;"/>
   </g>
   <g id="line2d_36">
    <path clip-path="url(#p39c1c6dbaa)" d="M 69.397912 91.13011 
L 69.740062 60.648733 
L 90.684638 74.953934 
L 69.397912 91.13011 
" style="fill:none;stroke:#ff0000;stroke-linecap:square;stroke-width:1.5;"/>
   </g>
   <g id="line2d_37">
    <path clip-path="url(#p39c1c6dbaa)" d="M 115.552989 123.893885 
L 128.320141 101.97782 
L 145.980488 122.050326 
L 115.552989 123.893885 
" style="fill:none;stroke:#ff0000;stroke-linecap:square;stroke-width:1.5;"/>
   </g>
   <g id="line2d_38">
    <path clip-path="url(#p39c1c6dbaa)" d="M 149.211583 200.384366 
L 129.014053 182.867141 
L 158.917826 176.951421 
L 149.211583 200.384366 
" style="fill:none;stroke:#ff0000;stroke-linecap:square;stroke-width:1.5;"/>
   </g>
   <g id="line2d_39">
    <path clip-path="url(#p39c1c6dbaa)" d="M 205.688953 148.595181 
L 180.181297 131.904138 
L 203.509399 121.948551 
L 205.688953 148.595181 
" style="fill:none;stroke:#ff0000;stroke-linecap:square;stroke-width:1.5;"/>
   </g>
   <g id="line2d_40">
    <path clip-path="url(#p39c1c6dbaa)" d="M 237.749773 177.246609 
L 239.341324 146.804888 
L 259.681799 161.956756 
L 237.749773 177.246609 
" style="fill:none;stroke:#ff0000;stroke-linecap:square;stroke-width:1.5;"/>
   </g>
   <g id="line2d_41">
    <path clip-path="url(#p39c1c6dbaa)" d="M 234.695689 226.899885 
L 249.684788 200.356368 
L 261.143023 222.984291 
L 234.695689 226.899885 
" style="fill:none;stroke:#ff0000;stroke-linecap:square;stroke-width:1.5;"/>
   </g>
   <g id="line2d_42">
    <path clip-path="url(#p39c1c6dbaa)" d="M 261.976187 195.003012 
L 236.77011 177.859934 
L 260.271968 168.321763 
L 261.976187 195.003012 
" style="fill:none;stroke:#ff0000;stroke-linecap:square;stroke-width:1.5;"/>
   </g>
   <g id="line2d_43">
    <path clip-path="url(#p39c1c6dbaa)" d="M 260.529724 217.291847 
L 256.639343 211.754707 
L 252.95271 206.085623 
L 255.80291 199.947808 
L 258.869305 193.920734 
L 265.609776 193.320188 
L 272.362438 192.962104 
L 276.252819 198.499244 
L 279.939452 204.168329 
L 277.089252 210.306143 
L 274.022857 216.333217 
L 267.282386 216.933764 
L 260.529724 217.291847 
" style="fill:none;stroke:#ff0000;stroke-linecap:square;stroke-width:1.5;"/>
   </g>
   <g id="line2d_44">
    <path clip-path="url(#p39c1c6dbaa)" d="M 262.476782 169.062833 
L 258.852781 163.3478 
L 255.438544 157.510612 
L 258.575997 151.514547 
L 261.924164 145.639329 
L 268.685502 145.35842 
L 275.447544 145.320279 
L 279.071545 151.035312 
L 282.485782 156.872501 
L 279.348329 162.868565 
L 276.000162 168.743783 
L 269.238824 169.024692 
L 262.476782 169.062833 
" style="fill:none;stroke:#ff0000;stroke-linecap:square;stroke-width:1.5;"/>
   </g>
   <g id="line2d_45">
    <path clip-path="url(#p39c1c6dbaa)" d="M 280.087092 194.249629 
L 273.355234 193.55921 
L 266.65745 192.628425 
L 263.889383 186.453249 
L 261.346415 180.187223 
L 265.31034 174.702362 
L 269.465497 169.367282 
L 276.197355 170.057701 
L 282.895139 170.988486 
L 285.663206 177.163661 
L 288.206174 183.429688 
L 284.242249 188.914549 
L 280.087092 194.249629 
" style="fill:none;stroke:#ff0000;stroke-linecap:square;stroke-width:1.5;"/>
   </g>
   <g id="line2d_46">
    <path clip-path="url(#p39c1c6dbaa)" d="M 281.726421 227.538994 
L 278.107206 221.820929 
L 274.697857 215.980884 
L 277.840329 209.987448 
L 281.193413 204.115035 
L 287.954984 203.839787 
L 294.717056 203.807308 
L 298.336271 209.525373 
L 301.74562 215.365417 
L 298.603147 221.358853 
L 295.250063 227.231266 
L 288.488493 227.506514 
L 281.726421 227.538994 
" style="fill:none;stroke:#ff0000;stroke-linecap:square;stroke-width:1.5;"/>
   </g>
   <g id="line2d_47">
    <path clip-path="url(#p39c1c6dbaa)" d="M 284.30863 155.756957 
L 279.957242 150.574291 
L 275.797669 145.242816 
L 278.110258 138.883027 
L 280.647676 132.614751 
L 287.311821 131.437645 
L 294.008945 130.501197 
L 298.360333 135.683862 
L 302.519906 141.015337 
L 300.207317 147.375126 
L 297.669899 153.643403 
L 291.005754 154.820509 
L 284.30863 155.756957 
" style="fill:none;stroke:#ff0000;stroke-linecap:square;stroke-width:1.5;"/>
   </g>
   <g id="line2d_48">
    <path clip-path="url(#p39c1c6dbaa)" d="M 292.900362 130.261441 
L 287.443032 126.259876 
L 282.136532 122.068117 
L 282.873382 115.341048 
L 283.850494 108.649736 
L 290.044611 105.92439 
L 296.327846 103.424864 
L 301.785176 107.42643 
L 307.091676 111.618188 
L 306.354826 118.345257 
L 305.377714 125.036569 
L 299.183597 127.761916 
L 292.900362 130.261441 
" style="fill:none;stroke:#ff0000;stroke-linecap:square;stroke-width:1.5;"/>
   </g>
   <g id="line2d_49">
    <path clip-path="url(#p39c1c6dbaa)" d="M 289.736376 179.853799 
L 285.076262 174.946687 
L 280.598616 169.879233 
L 282.518208 163.390029 
L 284.667765 156.978627 
L 291.247393 155.396385 
L 297.874818 154.052132 
L 302.534931 158.959243 
L 307.012577 164.026698 
L 305.092985 170.515901 
L 302.943428 176.927303 
L 296.363801 178.509545 
L 289.736376 179.853799 
" style="fill:none;stroke:#ff0000;stroke-linecap:square;stroke-width:1.5;"/>
   </g>
   <g id="patch_37">
    <path d="M 54 252 
L 54 34.56 
" style="fill:none;stroke:#000000;stroke-linecap:square;stroke-linejoin:miter;stroke-width:0.8;"/>
   </g>
   <g id="patch_38">
    <path d="M 388.8 252 
L 388.8 34.56 
" style="fill:none;stroke:#000000;stroke-linecap:square;stroke-linejoin:miter;stroke-width:0.8;"/>
   </g>
   <g id="patch_39">
    <path d="M 54 252 
L 388.8 252 
" style="fill:none;stroke:#000000;stroke-linecap:square;stroke-linejoin:miter;stroke-width:0.8;"/>
   </g>
   <g id="patch_40">
    <path d="M 54 34.56 
L 388.8 34.56 
" style="fill:none;stroke:#000000;stroke-linecap:square;stroke-linejoin:miter;stroke-width:0.8;"/>
   </g>
  </g>
 </g>
 <defs>
  <clipPath id="p39c1c6dbaa">
   <rect height="217.44" width="334.8" x="54" y="34.56"/>
  </clipPath>
 </defs>
</svg>
