<?xml version="1.0" encoding="utf-8" standalone="no"?>
<!DOCTYPE svg PUBLIC "-//W3C//DTD SVG 1.1//EN"
  "http://www.w3.org/Graphics/SVG/1.1/DTD/svg11.dtd">
<!-- Created with matplotlib (https://matplotlib.org/) -->
<svg height="288pt" version="1.1" viewBox="0 0 432 288" width="432pt" xmlns="http://www.w3.org/2000/svg" xmlns:xlink="http://www.w3.org/1999/xlink">
 <defs>
  <style type="text/css">
*{stroke-linecap:butt;stroke-linejoin:round;}
  </style>
 </defs>
 <g id="figure_1">
  <g id="patch_1">
   <path d="M 0 288 
L 432 288 
L 432 0 
L 0 0 
z
" style="fill:#ffffff;"/>
  </g>
  <g id="axes_1">
   <g id="patch_2">
    <path d="M 54 252 
L 388.8 252 
L 388.8 34.56 
L 54 34.56 
z
" style="fill:#ffffff;"/>
   </g>
   <g id="patch_3">
    <path clip-path="url(#p2a4e616489)" d="M 69.218182 172.860638 
L 69.218182 227.825455 
L 174.907336 227.825455 
z
" style="fill:#aaaaaa;"/>
   </g>
   <g id="patch_4">
    <path clip-path="url(#p2a4e616489)" d="M 105.040687 136.800432 
L 107.85789 170.606875 
L 145.608419 168.916553 
L 140.537452 132.292906 
z
" style="fill:#aaaaaa;"/>
   </g>
   <g id="patch_5">
    <path clip-path="url(#p2a4e616489)" d="M 89.827787 58.734545 
L 88.700906 58.734545 
L 97.152516 91.725174 
L 207.412119 122.702872 
L 206.460017 144.125161 
L 276.890108 144.125161 
L 292.666448 58.734545 
L 117.436383 58.734545 
z
" style="fill:#aaaaaa;"/>
   </g>
   <g id="patch_6">
    <path clip-path="url(#p2a4e616489)" d="M 78.923155 128.787024 
L 78.905062 100.900044 
L 69.387273 100.897 
L 69.3915 134.056573 
L 125.006515 134.055389 
L 125.009558 100.900044 
L 116.993296 100.900044 
L 116.992113 128.787024 
z
" style="fill:#f6929c;"/>
   </g>
   <g id="patch_7">
    <path clip-path="url(#p2a4e616489)" d="M 137.462247 197.835762 
L 137.444155 169.948782 
L 127.926365 169.945739 
L 127.930593 203.105311 
L 183.545607 203.104128 
L 183.548651 169.948782 
L 175.532389 169.948782 
L 175.531205 197.835762 
z
" style="fill:#f6929c;"/>
   </g>
   <g id="patch_8">
    <path clip-path="url(#p2a4e616489)" d="M 153.24065 148.457337 
L 153.222557 120.570357 
L 143.704768 120.567313 
L 143.708995 153.726886 
L 199.32401 153.725703 
L 199.327053 120.570357 
L 191.310791 120.570357 
L 191.309608 148.457337 
z
" style="fill:#f6929c;"/>
   </g>
   <g id="patch_9">
    <path clip-path="url(#p2a4e616489)" d="M 153.544855 140.203017 
L 153.544855 114.83938 
L 178.908492 114.83938 
L 178.908492 140.203017 
z
" style="fill:#f6929c;"/>
   </g>
   <g id="patch_10">
    <path clip-path="url(#p2a4e616489)" d="M 79.138145 119.318925 
L 79.138145 93.955288 
L 104.501782 93.955288 
L 104.501782 119.318925 
z
" style="fill:#f6929c;"/>
   </g>
   <g id="patch_11">
    <path clip-path="url(#p2a4e616489)" d="M 137.83377 194.829961 
L 137.83377 169.466325 
L 163.197407 169.466325 
L 163.197407 194.829961 
z
" style="fill:#f6929c;"/>
   </g>
   <g id="patch_12">
    <path clip-path="url(#p2a4e616489)" d="M 69.387273 172.532727 
L 69.387273 147.169091 
L 94.750909 147.169091 
L 94.750909 172.532727 
z
" style="fill:#f6929c;"/>
   </g>
   <g id="patch_13">
    <path clip-path="url(#p2a4e616489)" d="M 183.651276 179.296364 
L 183.651276 153.932727 
L 209.014912 153.932727 
L 209.014912 179.296364 
z
" style="fill:#f6929c;"/>
   </g>
   <g id="patch_14">
    <path clip-path="url(#p2a4e616489)" d="M 183.673161 204.828963 
L 183.673161 179.465327 
L 209.036797 179.465327 
L 209.036797 204.828963 
z
" style="fill:#f6929c;"/>
   </g>
   <g id="patch_15">
    <path clip-path="url(#p2a4e616489)" d="M 209.225455 227.656364 
L 209.225455 202.292727 
L 234.589091 202.292727 
L 234.589091 227.656364 
z
" style="fill:#f6929c;"/>
   </g>
   <g id="patch_16">
    <path clip-path="url(#p2a4e616489)" d="M 209.225455 202.123636 
L 209.225455 176.76 
L 210.916364 176.76 
L 236.959472 194.396087 
L 238.116334 195.566218 
L 238.738795 197.089399 
L 238.732542 198.734848 
L 238.09852 200.253254 
L 236.932794 201.414557 
L 235.41199 202.042802 
z
" style="fill:#f6929c;"/>
   </g>
   <g id="patch_17">
    <path clip-path="url(#p2a4e616489)" d="M 209.225455 176.590909 
L 209.225455 151.227273 
L 210.916364 151.227273 
L 236.959472 168.86336 
L 238.116334 170.033491 
L 238.738795 171.556672 
L 238.732542 173.202121 
L 238.09852 174.720527 
L 236.932794 175.88183 
L 235.41199 176.510075 
z
" style="fill:#f6929c;"/>
   </g>
   <g id="patch_18">
    <path clip-path="url(#p2a4e616489)" d="M 234.758182 227.656364 
L 234.758182 202.292727 
L 236.449091 202.292727 
L 262.492199 219.928814 
L 263.649061 221.098945 
L 264.271522 222.622127 
L 264.265269 224.267576 
L 263.631248 225.785981 
L 262.465521 226.947284 
L 260.944718 227.57553 
z
" style="fill:#f6929c;"/>
   </g>
   <g id="patch_19">
    <path clip-path="url(#p2a4e616489)" d="M 238.02529 169.642523 
L 238.02529 144.278886 
L 239.716199 144.278886 
L 265.759307 161.914973 
L 266.916169 163.085104 
L 267.53863 164.608286 
L 267.532377 166.253735 
L 266.898355 167.77214 
L 265.732629 168.933443 
L 264.211826 169.561689 
z
" style="fill:#f6929c;"/>
   </g>
   <g id="patch_20">
    <path clip-path="url(#p2a4e616489)" d="M 238.985455 203.801559 
L 238.985455 178.437922 
L 240.676364 178.437922 
L 266.719472 196.074009 
L 267.876334 197.24414 
L 268.498795 198.767321 
L 268.492542 200.41277 
L 267.85852 201.931176 
L 266.692794 203.092479 
L 265.17199 203.720725 
z
" style="fill:#f6929c;"/>
   </g>
   <g id="patch_21">
    <path clip-path="url(#p2a4e616489)" d="M 265.06942 194.720105 
L 265.06942 169.356468 
L 266.76033 169.356468 
L 292.803437 186.992555 
L 293.9603 188.162686 
L 294.582761 189.685867 
L 294.576508 191.331316 
L 293.942486 192.849722 
L 292.77676 194.011025 
L 291.255956 194.639271 
z
" style="fill:#f6929c;"/>
   </g>
   <g id="patch_22">
    <path clip-path="url(#p2a4e616489)" d="M 267.730909 169.807081 
L 267.730909 144.443445 
L 269.421818 144.443445 
L 295.464926 162.079532 
L 296.621789 163.249663 
L 297.244249 164.772844 
L 297.237996 166.418293 
L 296.603975 167.936699 
L 295.438249 169.098002 
L 293.917445 169.726247 
z
" style="fill:#f6929c;"/>
   </g>
   <g id="patch_23">
    <path clip-path="url(#p2a4e616489)" d="M 91.14213 183.893776 
L 99.596676 158.53014 
L 116.505767 183.893776 
z
" style="fill:#f6929c;"/>
   </g>
   <g id="patch_24">
    <path clip-path="url(#p2a4e616489)" d="M 69.387273 93.736364 
L 77.841818 68.372727 
L 94.750909 93.736364 
z
" style="fill:#f6929c;"/>
   </g>
   <g id="patch_25">
    <path clip-path="url(#p2a4e616489)" d="M 262.880759 220.087151 
L 271.335304 194.723515 
L 288.244395 220.087151 
z
" style="fill:#f6929c;"/>
   </g>
   <g id="patch_26">
    <path clip-path="url(#p2a4e616489)" d="M 275.597953 148.430495 
L 284.052498 123.066858 
L 300.961589 148.430495 
z
" style="fill:#f6929c;"/>
   </g>
   <g id="patch_27">
    <path clip-path="url(#p2a4e616489)" d="M 280.957331 122.82 
L 289.411877 97.456364 
L 306.320968 122.82 
z
" style="fill:#f6929c;"/>
   </g>
   <g id="patch_28">
    <path clip-path="url(#p2a4e616489)" d="M 285.659398 97.287273 
L 294.113943 71.923636 
L 311.023034 97.287273 
z
" style="fill:#f6929c;"/>
   </g>
   <g id="patch_29">
    <path clip-path="url(#p2a4e616489)" d="M 285.832783 227.656364 
L 294.287328 202.292727 
L 311.196419 227.656364 
z
" style="fill:#f6929c;"/>
   </g>
   <g id="patch_30">
    <path clip-path="url(#p2a4e616489)" d="M 306.855842 191.281769 
L 300.288858 189.647843 
L 293.789342 187.780741 
L 291.920887 181.27649 
L 290.288315 174.714241 
L 294.986844 169.844085 
L 299.853449 165.149107 
L 306.420433 166.783032 
L 312.919949 168.650134 
L 314.788404 175.154385 
L 316.420976 181.716634 
L 311.722447 186.58679 
z
" style="fill:#f6929c;"/>
   </g>
   <g id="patch_31">
    <path clip-path="url(#p2a4e616489)" d="M 312.486631 149.116391 
L 305.919648 147.482466 
L 299.420131 145.615364 
L 297.551677 139.111113 
L 295.919104 132.548864 
L 300.617633 127.678708 
L 305.484239 122.98373 
L 312.051222 124.617655 
L 318.550739 126.484757 
L 320.419193 132.989008 
L 322.051766 139.551257 
L 317.353237 144.421413 
z
" style="fill:#f6929c;"/>
   </g>
   <g id="patch_32">
    <path clip-path="url(#p2a4e616489)" d="M 313.786569 85.036298 
L 307.219586 83.402373 
L 300.720069 81.535271 
L 298.851615 75.03102 
L 297.219042 68.468771 
L 301.917571 63.598615 
L 306.784177 58.903636 
L 313.35116 60.537562 
L 319.850677 62.404664 
L 321.719131 68.908915 
L 323.351704 75.471164 
L 318.653175 80.34132 
z
" style="fill:#f6929c;"/>
   </g>
   <g id="patch_33">
    <path clip-path="url(#p2a4e616489)" d="M 314.808266 216.684298 
L 308.241283 215.050373 
L 301.741766 213.183271 
L 299.873312 206.67902 
L 298.240739 200.116771 
L 302.939268 195.246615 
L 307.805874 190.551636 
L 314.372857 192.185562 
L 320.872374 194.052664 
L 322.740828 200.556915 
L 324.373401 207.119164 
L 319.674872 211.98932 
z
" style="fill:#f6929c;"/>
   </g>
   <g id="patch_34">
    <path clip-path="url(#p2a4e616489)" d="M 317.730729 123.587084 
L 311.163746 121.953159 
L 304.664229 120.086057 
L 302.795775 113.581806 
L 301.163202 107.019557 
L 305.861731 102.1494 
L 310.728337 97.454422 
L 317.29532 99.088348 
L 323.794837 100.955449 
L 325.663291 107.4597 
L 327.295864 114.021949 
L 322.597335 118.892106 
z
" style="fill:#f6929c;"/>
   </g>
   <g id="patch_35">
    <path clip-path="url(#p2a4e616489)" d="M 323.814433 171.438451 
L 317.247449 169.804526 
L 310.747933 167.937424 
L 308.879478 161.433173 
L 307.246905 154.870924 
L 311.945435 150.000768 
L 316.81204 145.30579 
L 323.379024 146.939715 
L 329.87854 148.806817 
L 331.746995 155.311068 
L 333.379567 161.873317 
L 328.681038 166.743473 
z
" style="fill:#f6929c;"/>
   </g>
   <g id="patch_36">
    <path clip-path="url(#p2a4e616489)" d="M 329.985226 102.344704 
L 323.418242 100.710778 
L 316.918726 98.843677 
L 315.050271 92.339426 
L 313.417698 85.777177 
L 318.116227 80.90702 
L 322.982833 76.212042 
L 329.549817 77.845967 
L 336.049333 79.713069 
L 337.917787 86.21732 
L 339.55036 92.779569 
L 334.851831 97.649726 
z
" style="fill:#f6929c;"/>
   </g>
   <g id="matplotlib.axis_1">
    <g id="xtick_1">
     <g id="line2d_1">
      <defs>
       <path d="M 0 0 
L 0 3.5 
" id="m8508dc7c6f" style="stroke:#000000;stroke-width:0.8;"/>
      </defs>
      <g>
       <use style="stroke:#000000;stroke-width:0.8;" x="69.218182" xlink:href="#m8508dc7c6f" y="252"/>
      </g>
     </g>
     <g id="text_1">
      <!-- 0 -->
      <defs>
       <path d="M 31.78125 66.40625 
Q 24.171875 66.40625 20.328125 58.90625 
Q 16.5 51.421875 16.5 36.375 
Q 16.5 21.390625 20.328125 13.890625 
Q 24.171875 6.390625 31.78125 6.390625 
Q 39.453125 6.390625 43.28125 13.890625 
Q 47.125 21.390625 47.125 36.375 
Q 47.125 51.421875 43.28125 58.90625 
Q 39.453125 66.40625 31.78125 66.40625 
z
M 31.78125 74.21875 
Q 44.046875 74.21875 50.515625 64.515625 
Q 56.984375 54.828125 56.984375 36.375 
Q 56.984375 17.96875 50.515625 8.265625 
Q 44.046875 -1.421875 31.78125 -1.421875 
Q 19.53125 -1.421875 13.0625 8.265625 
Q 6.59375 17.96875 6.59375 36.375 
Q 6.59375 54.828125 13.0625 64.515625 
Q 19.53125 74.21875 31.78125 74.21875 
z
" id="DejaVuSans-48"/>
      </defs>
      <g transform="translate(66.036932 266.598437)scale(0.1 -0.1)">
       <use xlink:href="#DejaVuSans-48"/>
      </g>
     </g>
    </g>
    <g id="xtick_2">
     <g id="line2d_2">
      <g>
       <use style="stroke:#000000;stroke-width:0.8;" x="111.490909" xlink:href="#m8508dc7c6f" y="252"/>
      </g>
     </g>
     <g id="text_2">
      <!-- 250 -->
      <defs>
       <path d="M 19.1875 8.296875 
L 53.609375 8.296875 
L 53.609375 0 
L 7.328125 0 
L 7.328125 8.296875 
Q 12.9375 14.109375 22.625 23.890625 
Q 32.328125 33.6875 34.8125 36.53125 
Q 39.546875 41.84375 41.421875 45.53125 
Q 43.3125 49.21875 43.3125 52.78125 
Q 43.3125 58.59375 39.234375 62.25 
Q 35.15625 65.921875 28.609375 65.921875 
Q 23.96875 65.921875 18.8125 64.3125 
Q 13.671875 62.703125 7.8125 59.421875 
L 7.8125 69.390625 
Q 13.765625 71.78125 18.9375 73 
Q 24.125 74.21875 28.421875 74.21875 
Q 39.75 74.21875 46.484375 68.546875 
Q 53.21875 62.890625 53.21875 53.421875 
Q 53.21875 48.921875 51.53125 44.890625 
Q 49.859375 40.875 45.40625 35.40625 
Q 44.1875 33.984375 37.640625 27.21875 
Q 31.109375 20.453125 19.1875 8.296875 
z
" id="DejaVuSans-50"/>
       <path d="M 10.796875 72.90625 
L 49.515625 72.90625 
L 49.515625 64.59375 
L 19.828125 64.59375 
L 19.828125 46.734375 
Q 21.96875 47.46875 24.109375 47.828125 
Q 26.265625 48.1875 28.421875 48.1875 
Q 40.625 48.1875 47.75 41.5 
Q 54.890625 34.8125 54.890625 23.390625 
Q 54.890625 11.625 47.5625 5.09375 
Q 40.234375 -1.421875 26.90625 -1.421875 
Q 22.3125 -1.421875 17.546875 -0.640625 
Q 12.796875 0.140625 7.71875 1.703125 
L 7.71875 11.625 
Q 12.109375 9.234375 16.796875 8.0625 
Q 21.484375 6.890625 26.703125 6.890625 
Q 35.15625 6.890625 40.078125 11.328125 
Q 45.015625 15.765625 45.015625 23.390625 
Q 45.015625 31 40.078125 35.4375 
Q 35.15625 39.890625 26.703125 39.890625 
Q 22.75 39.890625 18.8125 39.015625 
Q 14.890625 38.140625 10.796875 36.28125 
z
" id="DejaVuSans-53"/>
      </defs>
      <g transform="translate(101.947159 266.598437)scale(0.1 -0.1)">
       <use xlink:href="#DejaVuSans-50"/>
       <use x="63.623047" xlink:href="#DejaVuSans-53"/>
       <use x="127.246094" xlink:href="#DejaVuSans-48"/>
      </g>
     </g>
    </g>
    <g id="xtick_3">
     <g id="line2d_3">
      <g>
       <use style="stroke:#000000;stroke-width:0.8;" x="153.763636" xlink:href="#m8508dc7c6f" y="252"/>
      </g>
     </g>
     <g id="text_3">
      <!-- 500 -->
      <g transform="translate(144.219886 266.598437)scale(0.1 -0.1)">
       <use xlink:href="#DejaVuSans-53"/>
       <use x="63.623047" xlink:href="#DejaVuSans-48"/>
       <use x="127.246094" xlink:href="#DejaVuSans-48"/>
      </g>
     </g>
    </g>
    <g id="xtick_4">
     <g id="line2d_4">
      <g>
       <use style="stroke:#000000;stroke-width:0.8;" x="196.036364" xlink:href="#m8508dc7c6f" y="252"/>
      </g>
     </g>
     <g id="text_4">
      <!-- 750 -->
      <defs>
       <path d="M 8.203125 72.90625 
L 55.078125 72.90625 
L 55.078125 68.703125 
L 28.609375 0 
L 18.3125 0 
L 43.21875 64.59375 
L 8.203125 64.59375 
z
" id="DejaVuSans-55"/>
      </defs>
      <g transform="translate(186.492614 266.598437)scale(0.1 -0.1)">
       <use xlink:href="#DejaVuSans-55"/>
       <use x="63.623047" xlink:href="#DejaVuSans-53"/>
       <use x="127.246094" xlink:href="#DejaVuSans-48"/>
      </g>
     </g>
    </g>
    <g id="xtick_5">
     <g id="line2d_5">
      <g>
       <use style="stroke:#000000;stroke-width:0.8;" x="238.309091" xlink:href="#m8508dc7c6f" y="252"/>
      </g>
     </g>
     <g id="text_5">
      <!-- 1000 -->
      <defs>
       <path d="M 12.40625 8.296875 
L 28.515625 8.296875 
L 28.515625 63.921875 
L 10.984375 60.40625 
L 10.984375 69.390625 
L 28.421875 72.90625 
L 38.28125 72.90625 
L 38.28125 8.296875 
L 54.390625 8.296875 
L 54.390625 0 
L 12.40625 0 
z
" id="DejaVuSans-49"/>
      </defs>
      <g transform="translate(225.584091 266.598437)scale(0.1 -0.1)">
       <use xlink:href="#DejaVuSans-49"/>
       <use x="63.623047" xlink:href="#DejaVuSans-48"/>
       <use x="127.246094" xlink:href="#DejaVuSans-48"/>
       <use x="190.869141" xlink:href="#DejaVuSans-48"/>
      </g>
     </g>
    </g>
    <g id="xtick_6">
     <g id="line2d_6">
      <g>
       <use style="stroke:#000000;stroke-width:0.8;" x="280.581818" xlink:href="#m8508dc7c6f" y="252"/>
      </g>
     </g>
     <g id="text_6">
      <!-- 1250 -->
      <g transform="translate(267.856818 266.598437)scale(0.1 -0.1)">
       <use xlink:href="#DejaVuSans-49"/>
       <use x="63.623047" xlink:href="#DejaVuSans-50"/>
       <use x="127.246094" xlink:href="#DejaVuSans-53"/>
       <use x="190.869141" xlink:href="#DejaVuSans-48"/>
      </g>
     </g>
    </g>
    <g id="xtick_7">
     <g id="line2d_7">
      <g>
       <use style="stroke:#000000;stroke-width:0.8;" x="322.854545" xlink:href="#m8508dc7c6f" y="252"/>
      </g>
     </g>
     <g id="text_7">
      <!-- 1500 -->
      <g transform="translate(310.129545 266.598437)scale(0.1 -0.1)">
       <use xlink:href="#DejaVuSans-49"/>
       <use x="63.623047" xlink:href="#DejaVuSans-53"/>
       <use x="127.246094" xlink:href="#DejaVuSans-48"/>
       <use x="190.869141" xlink:href="#DejaVuSans-48"/>
      </g>
     </g>
    </g>
    <g id="xtick_8">
     <g id="line2d_8">
      <g>
       <use style="stroke:#000000;stroke-width:0.8;" x="365.127273" xlink:href="#m8508dc7c6f" y="252"/>
      </g>
     </g>
     <g id="text_8">
      <!-- 1750 -->
      <g transform="translate(352.402273 266.598437)scale(0.1 -0.1)">
       <use xlink:href="#DejaVuSans-49"/>
       <use x="63.623047" xlink:href="#DejaVuSans-55"/>
       <use x="127.246094" xlink:href="#DejaVuSans-53"/>
       <use x="190.869141" xlink:href="#DejaVuSans-48"/>
      </g>
     </g>
    </g>
   </g>
   <g id="matplotlib.axis_2">
    <g id="ytick_1">
     <g id="line2d_9">
      <defs>
       <path d="M 0 0 
L -3.5 0 
" id="m7c5f5f25c4" style="stroke:#000000;stroke-width:0.8;"/>
      </defs>
      <g>
       <use style="stroke:#000000;stroke-width:0.8;" x="54" xlink:href="#m7c5f5f25c4" y="227.825455"/>
      </g>
     </g>
     <g id="text_9">
      <!-- 0 -->
      <g transform="translate(40.6375 231.624673)scale(0.1 -0.1)">
       <use xlink:href="#DejaVuSans-48"/>
      </g>
     </g>
    </g>
    <g id="ytick_2">
     <g id="line2d_10">
      <g>
       <use style="stroke:#000000;stroke-width:0.8;" x="54" xlink:href="#m7c5f5f25c4" y="194.007273"/>
      </g>
     </g>
     <g id="text_10">
      <!-- 200 -->
      <g transform="translate(27.9125 197.806491)scale(0.1 -0.1)">
       <use xlink:href="#DejaVuSans-50"/>
       <use x="63.623047" xlink:href="#DejaVuSans-48"/>
       <use x="127.246094" xlink:href="#DejaVuSans-48"/>
      </g>
     </g>
    </g>
    <g id="ytick_3">
     <g id="line2d_11">
      <g>
       <use style="stroke:#000000;stroke-width:0.8;" x="54" xlink:href="#m7c5f5f25c4" y="160.189091"/>
      </g>
     </g>
     <g id="text_11">
      <!-- 400 -->
      <defs>
       <path d="M 37.796875 64.3125 
L 12.890625 25.390625 
L 37.796875 25.390625 
z
M 35.203125 72.90625 
L 47.609375 72.90625 
L 47.609375 25.390625 
L 58.015625 25.390625 
L 58.015625 17.1875 
L 47.609375 17.1875 
L 47.609375 0 
L 37.796875 0 
L 37.796875 17.1875 
L 4.890625 17.1875 
L 4.890625 26.703125 
z
" id="DejaVuSans-52"/>
      </defs>
      <g transform="translate(27.9125 163.98831)scale(0.1 -0.1)">
       <use xlink:href="#DejaVuSans-52"/>
       <use x="63.623047" xlink:href="#DejaVuSans-48"/>
       <use x="127.246094" xlink:href="#DejaVuSans-48"/>
      </g>
     </g>
    </g>
    <g id="ytick_4">
     <g id="line2d_12">
      <g>
       <use style="stroke:#000000;stroke-width:0.8;" x="54" xlink:href="#m7c5f5f25c4" y="126.370909"/>
      </g>
     </g>
     <g id="text_12">
      <!-- 600 -->
      <defs>
       <path d="M 33.015625 40.375 
Q 26.375 40.375 22.484375 35.828125 
Q 18.609375 31.296875 18.609375 23.390625 
Q 18.609375 15.53125 22.484375 10.953125 
Q 26.375 6.390625 33.015625 6.390625 
Q 39.65625 6.390625 43.53125 10.953125 
Q 47.40625 15.53125 47.40625 23.390625 
Q 47.40625 31.296875 43.53125 35.828125 
Q 39.65625 40.375 33.015625 40.375 
z
M 52.59375 71.296875 
L 52.59375 62.3125 
Q 48.875 64.0625 45.09375 64.984375 
Q 41.3125 65.921875 37.59375 65.921875 
Q 27.828125 65.921875 22.671875 59.328125 
Q 17.53125 52.734375 16.796875 39.40625 
Q 19.671875 43.65625 24.015625 45.921875 
Q 28.375 48.1875 33.59375 48.1875 
Q 44.578125 48.1875 50.953125 41.515625 
Q 57.328125 34.859375 57.328125 23.390625 
Q 57.328125 12.15625 50.6875 5.359375 
Q 44.046875 -1.421875 33.015625 -1.421875 
Q 20.359375 -1.421875 13.671875 8.265625 
Q 6.984375 17.96875 6.984375 36.375 
Q 6.984375 53.65625 15.1875 63.9375 
Q 23.390625 74.21875 37.203125 74.21875 
Q 40.921875 74.21875 44.703125 73.484375 
Q 48.484375 72.75 52.59375 71.296875 
z
" id="DejaVuSans-54"/>
      </defs>
      <g transform="translate(27.9125 130.170128)scale(0.1 -0.1)">
       <use xlink:href="#DejaVuSans-54"/>
       <use x="63.623047" xlink:href="#DejaVuSans-48"/>
       <use x="127.246094" xlink:href="#DejaVuSans-48"/>
      </g>
     </g>
    </g>
    <g id="ytick_5">
     <g id="line2d_13">
      <g>
       <use style="stroke:#000000;stroke-width:0.8;" x="54" xlink:href="#m7c5f5f25c4" y="92.552727"/>
      </g>
     </g>
     <g id="text_13">
      <!-- 800 -->
      <defs>
       <path d="M 31.78125 34.625 
Q 24.75 34.625 20.71875 30.859375 
Q 16.703125 27.09375 16.703125 20.515625 
Q 16.703125 13.921875 20.71875 10.15625 
Q 24.75 6.390625 31.78125 6.390625 
Q 38.8125 6.390625 42.859375 10.171875 
Q 46.921875 13.96875 46.921875 20.515625 
Q 46.921875 27.09375 42.890625 30.859375 
Q 38.875 34.625 31.78125 34.625 
z
M 21.921875 38.8125 
Q 15.578125 40.375 12.03125 44.71875 
Q 8.5 49.078125 8.5 55.328125 
Q 8.5 64.0625 14.71875 69.140625 
Q 20.953125 74.21875 31.78125 74.21875 
Q 42.671875 74.21875 48.875 69.140625 
Q 55.078125 64.0625 55.078125 55.328125 
Q 55.078125 49.078125 51.53125 44.71875 
Q 48 40.375 41.703125 38.8125 
Q 48.828125 37.15625 52.796875 32.3125 
Q 56.78125 27.484375 56.78125 20.515625 
Q 56.78125 9.90625 50.3125 4.234375 
Q 43.84375 -1.421875 31.78125 -1.421875 
Q 19.734375 -1.421875 13.25 4.234375 
Q 6.78125 9.90625 6.78125 20.515625 
Q 6.78125 27.484375 10.78125 32.3125 
Q 14.796875 37.15625 21.921875 38.8125 
z
M 18.3125 54.390625 
Q 18.3125 48.734375 21.84375 45.5625 
Q 25.390625 42.390625 31.78125 42.390625 
Q 38.140625 42.390625 41.71875 45.5625 
Q 45.3125 48.734375 45.3125 54.390625 
Q 45.3125 60.0625 41.71875 63.234375 
Q 38.140625 66.40625 31.78125 66.40625 
Q 25.390625 66.40625 21.84375 63.234375 
Q 18.3125 60.0625 18.3125 54.390625 
z
" id="DejaVuSans-56"/>
      </defs>
      <g transform="translate(27.9125 96.351946)scale(0.1 -0.1)">
       <use xlink:href="#DejaVuSans-56"/>
       <use x="63.623047" xlink:href="#DejaVuSans-48"/>
       <use x="127.246094" xlink:href="#DejaVuSans-48"/>
      </g>
     </g>
    </g>
    <g id="ytick_6">
     <g id="line2d_14">
      <g>
       <use style="stroke:#000000;stroke-width:0.8;" x="54" xlink:href="#m7c5f5f25c4" y="58.734545"/>
      </g>
     </g>
     <g id="text_14">
      <!-- 1000 -->
      <g transform="translate(21.55 62.533764)scale(0.1 -0.1)">
       <use xlink:href="#DejaVuSans-49"/>
       <use x="63.623047" xlink:href="#DejaVuSans-48"/>
       <use x="127.246094" xlink:href="#DejaVuSans-48"/>
       <use x="190.869141" xlink:href="#DejaVuSans-48"/>
      </g>
     </g>
    </g>
   </g>
   <g id="line2d_15">
    <path clip-path="url(#p2a4e616489)" d="M 69.218182 227.825455 
L 373.581818 227.825455 
L 373.581818 58.734545 
L 69.218182 58.734545 
L 69.218182 227.825455 
" style="fill:none;stroke:#000000;stroke-linecap:square;stroke-width:1.5;"/>
   </g>
   <g id="line2d_16">
    <path clip-path="url(#p2a4e616489)" d="M 69.218182 172.860638 
L 69.218182 227.825455 
L 174.907336 227.825455 
L 69.218182 172.860638 
" style="fill:none;stroke:#000000;stroke-dasharray:5.55,2.4;stroke-dashoffset:0;stroke-width:1.5;"/>
   </g>
   <g id="line2d_17">
    <path clip-path="url(#p2a4e616489)" d="M 105.040687 136.800432 
L 107.85789 170.606875 
L 145.608419 168.916553 
L 140.537452 132.292906 
L 105.040687 136.800432 
" style="fill:none;stroke:#000000;stroke-dasharray:5.55,2.4;stroke-dashoffset:0;stroke-width:1.5;"/>
   </g>
   <g id="line2d_18">
    <path clip-path="url(#p2a4e616489)" d="M 89.827787 58.734545 
L 88.700906 58.734545 
L 97.152516 91.725174 
L 207.412119 122.702872 
L 206.460017 144.125161 
L 276.890108 144.125161 
L 292.666448 58.734545 
L 117.436383 58.734545 
L 89.827787 58.734545 
" style="fill:none;stroke:#000000;stroke-dasharray:5.55,2.4;stroke-dashoffset:0;stroke-width:1.5;"/>
   </g>
   <g id="line2d_19">
    <path clip-path="url(#p2a4e616489)" d="M 78.923155 128.787024 
L 78.905062 100.900044 
L 69.387273 100.897 
L 69.3915 134.056573 
L 125.006515 134.055389 
L 125.009558 100.900044 
L 116.993296 100.900044 
L 116.992113 128.787024 
L 78.923155 128.787024 
" style="fill:none;stroke:#ff0000;stroke-linecap:square;stroke-width:1.5;"/>
   </g>
   <g id="line2d_20">
    <path clip-path="url(#p2a4e616489)" d="M 137.462247 197.835762 
L 137.444155 169.948782 
L 127.926365 169.945739 
L 127.930593 203.105311 
L 183.545607 203.104128 
L 183.548651 169.948782 
L 175.532389 169.948782 
L 175.531205 197.835762 
L 137.462247 197.835762 
" style="fill:none;stroke:#ff0000;stroke-linecap:square;stroke-width:1.5;"/>
   </g>
   <g id="line2d_21">
    <path clip-path="url(#p2a4e616489)" d="M 153.24065 148.457337 
L 153.222557 120.570357 
L 143.704768 120.567313 
L 143.708995 153.726886 
L 199.32401 153.725703 
L 199.327053 120.570357 
L 191.310791 120.570357 
L 191.309608 148.457337 
L 153.24065 148.457337 
" style="fill:none;stroke:#ff0000;stroke-linecap:square;stroke-width:1.5;"/>
   </g>
   <g id="line2d_22">
    <path clip-path="url(#p2a4e616489)" d="M 153.544855 140.203017 
L 153.544855 114.83938 
L 178.908492 114.83938 
L 178.908492 140.203017 
L 153.544855 140.203017 
" style="fill:none;stroke:#ff0000;stroke-linecap:square;stroke-width:1.5;"/>
   </g>
   <g id="line2d_23">
    <path clip-path="url(#p2a4e616489)" d="M 79.138145 119.318925 
L 79.138145 93.955288 
L 104.501782 93.955288 
L 104.501782 119.318925 
L 79.138145 119.318925 
" style="fill:none;stroke:#ff0000;stroke-linecap:square;stroke-width:1.5;"/>
   </g>
   <g id="line2d_24">
    <path clip-path="url(#p2a4e616489)" d="M 137.83377 194.829961 
L 137.83377 169.466325 
L 163.197407 169.466325 
L 163.197407 194.829961 
L 137.83377 194.829961 
" style="fill:none;stroke:#ff0000;stroke-linecap:square;stroke-width:1.5;"/>
   </g>
   <g id="line2d_25">
    <path clip-path="url(#p2a4e616489)" d="M 69.387273 172.532727 
L 69.387273 147.169091 
L 94.750909 147.169091 
L 94.750909 172.532727 
L 69.387273 172.532727 
" style="fill:none;stroke:#ff0000;stroke-linecap:square;stroke-width:1.5;"/>
   </g>
   <g id="line2d_26">
    <path clip-path="url(#p2a4e616489)" d="M 183.651276 179.296364 
L 183.651276 153.932727 
L 209.014912 153.932727 
L 209.014912 179.296364 
L 183.651276 179.296364 
" style="fill:none;stroke:#ff0000;stroke-linecap:square;stroke-width:1.5;"/>
   </g>
   <g id="line2d_27">
    <path clip-path="url(#p2a4e616489)" d="M 183.673161 204.828963 
L 183.673161 179.465327 
L 209.036797 179.465327 
L 209.036797 204.828963 
L 183.673161 204.828963 
" style="fill:none;stroke:#ff0000;stroke-linecap:square;stroke-width:1.5;"/>
   </g>
   <g id="line2d_28">
    <path clip-path="url(#p2a4e616489)" d="M 209.225455 227.656364 
L 209.225455 202.292727 
L 234.589091 202.292727 
L 234.589091 227.656364 
L 209.225455 227.656364 
" style="fill:none;stroke:#ff0000;stroke-linecap:square;stroke-width:1.5;"/>
   </g>
   <g id="line2d_29">
    <path clip-path="url(#p2a4e616489)" d="M 209.225455 202.123636 
L 209.225455 176.76 
L 210.916364 176.76 
L 236.959472 194.396087 
L 238.116334 195.566218 
L 238.738795 197.089399 
L 238.732542 198.734848 
L 238.09852 200.253254 
L 236.932794 201.414557 
L 235.41199 202.042802 
L 209.225455 202.123636 
" style="fill:none;stroke:#ff0000;stroke-linecap:square;stroke-width:1.5;"/>
   </g>
   <g id="line2d_30">
    <path clip-path="url(#p2a4e616489)" d="M 209.225455 176.590909 
L 209.225455 151.227273 
L 210.916364 151.227273 
L 236.959472 168.86336 
L 238.116334 170.033491 
L 238.738795 171.556672 
L 238.732542 173.202121 
L 238.09852 174.720527 
L 236.932794 175.88183 
L 235.41199 176.510075 
L 209.225455 176.590909 
" style="fill:none;stroke:#ff0000;stroke-linecap:square;stroke-width:1.5;"/>
   </g>
   <g id="line2d_31">
    <path clip-path="url(#p2a4e616489)" d="M 234.758182 227.656364 
L 234.758182 202.292727 
L 236.449091 202.292727 
L 262.492199 219.928814 
L 263.649061 221.098945 
L 264.271522 222.622127 
L 264.265269 224.267576 
L 263.631248 225.785981 
L 262.465521 226.947284 
L 260.944718 227.57553 
L 234.758182 227.656364 
" style="fill:none;stroke:#ff0000;stroke-linecap:square;stroke-width:1.5;"/>
   </g>
   <g id="line2d_32">
    <path clip-path="url(#p2a4e616489)" d="M 238.02529 169.642523 
L 238.02529 144.278886 
L 239.716199 144.278886 
L 265.759307 161.914973 
L 266.916169 163.085104 
L 267.53863 164.608286 
L 267.532377 166.253735 
L 266.898355 167.77214 
L 265.732629 168.933443 
L 264.211826 169.561689 
L 238.02529 169.642523 
" style="fill:none;stroke:#ff0000;stroke-linecap:square;stroke-width:1.5;"/>
   </g>
   <g id="line2d_33">
    <path clip-path="url(#p2a4e616489)" d="M 238.985455 203.801559 
L 238.985455 178.437922 
L 240.676364 178.437922 
L 266.719472 196.074009 
L 267.876334 197.24414 
L 268.498795 198.767321 
L 268.492542 200.41277 
L 267.85852 201.931176 
L 266.692794 203.092479 
L 265.17199 203.720725 
L 238.985455 203.801559 
" style="fill:none;stroke:#ff0000;stroke-linecap:square;stroke-width:1.5;"/>
   </g>
   <g id="line2d_34">
    <path clip-path="url(#p2a4e616489)" d="M 265.06942 194.720105 
L 265.06942 169.356468 
L 266.76033 169.356468 
L 292.803437 186.992555 
L 293.9603 188.162686 
L 294.582761 189.685867 
L 294.576508 191.331316 
L 293.942486 192.849722 
L 292.77676 194.011025 
L 291.255956 194.639271 
L 265.06942 194.720105 
" style="fill:none;stroke:#ff0000;stroke-linecap:square;stroke-width:1.5;"/>
   </g>
   <g id="line2d_35">
    <path clip-path="url(#p2a4e616489)" d="M 267.730909 169.807081 
L 267.730909 144.443445 
L 269.421818 144.443445 
L 295.464926 162.079532 
L 296.621789 163.249663 
L 297.244249 164.772844 
L 297.237996 166.418293 
L 296.603975 167.936699 
L 295.438249 169.098002 
L 293.917445 169.726247 
L 267.730909 169.807081 
" style="fill:none;stroke:#ff0000;stroke-linecap:square;stroke-width:1.5;"/>
   </g>
   <g id="line2d_36">
    <path clip-path="url(#p2a4e616489)" d="M 91.14213 183.893776 
L 99.596676 158.53014 
L 116.505767 183.893776 
L 91.14213 183.893776 
" style="fill:none;stroke:#ff0000;stroke-linecap:square;stroke-width:1.5;"/>
   </g>
   <g id="line2d_37">
    <path clip-path="url(#p2a4e616489)" d="M 69.387273 93.736364 
L 77.841818 68.372727 
L 94.750909 93.736364 
L 69.387273 93.736364 
" style="fill:none;stroke:#ff0000;stroke-linecap:square;stroke-width:1.5;"/>
   </g>
   <g id="line2d_38">
    <path clip-path="url(#p2a4e616489)" d="M 262.880759 220.087151 
L 271.335304 194.723515 
L 288.244395 220.087151 
L 262.880759 220.087151 
" style="fill:none;stroke:#ff0000;stroke-linecap:square;stroke-width:1.5;"/>
   </g>
   <g id="line2d_39">
    <path clip-path="url(#p2a4e616489)" d="M 275.597953 148.430495 
L 284.052498 123.066858 
L 300.961589 148.430495 
L 275.597953 148.430495 
" style="fill:none;stroke:#ff0000;stroke-linecap:square;stroke-width:1.5;"/>
   </g>
   <g id="line2d_40">
    <path clip-path="url(#p2a4e616489)" d="M 280.957331 122.82 
L 289.411877 97.456364 
L 306.320968 122.82 
L 280.957331 122.82 
" style="fill:none;stroke:#ff0000;stroke-linecap:square;stroke-width:1.5;"/>
   </g>
   <g id="line2d_41">
    <path clip-path="url(#p2a4e616489)" d="M 285.659398 97.287273 
L 294.113943 71.923636 
L 311.023034 97.287273 
L 285.659398 97.287273 
" style="fill:none;stroke:#ff0000;stroke-linecap:square;stroke-width:1.5;"/>
   </g>
   <g id="line2d_42">
    <path clip-path="url(#p2a4e616489)" d="M 285.832783 227.656364 
L 294.287328 202.292727 
L 311.196419 227.656364 
L 285.832783 227.656364 
" style="fill:none;stroke:#ff0000;stroke-linecap:square;stroke-width:1.5;"/>
   </g>
   <g id="line2d_43">
    <path clip-path="url(#p2a4e616489)" d="M 306.855842 191.281769 
L 300.288858 189.647843 
L 293.789342 187.780741 
L 291.920887 181.27649 
L 290.288315 174.714241 
L 294.986844 169.844085 
L 299.853449 165.149107 
L 306.420433 166.783032 
L 312.919949 168.650134 
L 314.788404 175.154385 
L 316.420976 181.716634 
L 311.722447 186.58679 
L 306.855842 191.281769 
" style="fill:none;stroke:#ff0000;stroke-linecap:square;stroke-width:1.5;"/>
   </g>
   <g id="line2d_44">
    <path clip-path="url(#p2a4e616489)" d="M 312.486631 149.116391 
L 305.919648 147.482466 
L 299.420131 145.615364 
L 297.551677 139.111113 
L 295.919104 132.548864 
L 300.617633 127.678708 
L 305.484239 122.98373 
L 312.051222 124.617655 
L 318.550739 126.484757 
L 320.419193 132.989008 
L 322.051766 139.551257 
L 317.353237 144.421413 
L 312.486631 149.116391 
" style="fill:none;stroke:#ff0000;stroke-linecap:square;stroke-width:1.5;"/>
   </g>
   <g id="line2d_45">
    <path clip-path="url(#p2a4e616489)" d="M 313.786569 85.036298 
L 307.219586 83.402373 
L 300.720069 81.535271 
L 298.851615 75.03102 
L 297.219042 68.468771 
L 301.917571 63.598615 
L 306.784177 58.903636 
L 313.35116 60.537562 
L 319.850677 62.404664 
L 321.719131 68.908915 
L 323.351704 75.471164 
L 318.653175 80.34132 
L 313.786569 85.036298 
" style="fill:none;stroke:#ff0000;stroke-linecap:square;stroke-width:1.5;"/>
   </g>
   <g id="line2d_46">
    <path clip-path="url(#p2a4e616489)" d="M 314.808266 216.684298 
L 308.241283 215.050373 
L 301.741766 213.183271 
L 299.873312 206.67902 
L 298.240739 200.116771 
L 302.939268 195.246615 
L 307.805874 190.551636 
L 314.372857 192.185562 
L 320.872374 194.052664 
L 322.740828 200.556915 
L 324.373401 207.119164 
L 319.674872 211.98932 
L 314.808266 216.684298 
" style="fill:none;stroke:#ff0000;stroke-linecap:square;stroke-width:1.5;"/>
   </g>
   <g id="line2d_47">
    <path clip-path="url(#p2a4e616489)" d="M 317.730729 123.587084 
L 311.163746 121.953159 
L 304.664229 120.086057 
L 302.795775 113.581806 
L 301.163202 107.019557 
L 305.861731 102.1494 
L 310.728337 97.454422 
L 317.29532 99.088348 
L 323.794837 100.955449 
L 325.663291 107.4597 
L 327.295864 114.021949 
L 322.597335 118.892106 
L 317.730729 123.587084 
" style="fill:none;stroke:#ff0000;stroke-linecap:square;stroke-width:1.5;"/>
   </g>
   <g id="line2d_48">
    <path clip-path="url(#p2a4e616489)" d="M 323.814433 171.438451 
L 317.247449 169.804526 
L 310.747933 167.937424 
L 308.879478 161.433173 
L 307.246905 154.870924 
L 311.945435 150.000768 
L 316.81204 145.30579 
L 323.379024 146.939715 
L 329.87854 148.806817 
L 331.746995 155.311068 
L 333.379567 161.873317 
L 328.681038 166.743473 
L 323.814433 171.438451 
" style="fill:none;stroke:#ff0000;stroke-linecap:square;stroke-width:1.5;"/>
   </g>
   <g id="line2d_49">
    <path clip-path="url(#p2a4e616489)" d="M 329.985226 102.344704 
L 323.418242 100.710778 
L 316.918726 98.843677 
L 315.050271 92.339426 
L 313.417698 85.777177 
L 318.116227 80.90702 
L 322.982833 76.212042 
L 329.549817 77.845967 
L 336.049333 79.713069 
L 337.917787 86.21732 
L 339.55036 92.779569 
L 334.851831 97.649726 
L 329.985226 102.344704 
" style="fill:none;stroke:#ff0000;stroke-linecap:square;stroke-width:1.5;"/>
   </g>
   <g id="patch_37">
    <path d="M 54 252 
L 54 34.56 
" style="fill:none;stroke:#000000;stroke-linecap:square;stroke-linejoin:miter;stroke-width:0.8;"/>
   </g>
   <g id="patch_38">
    <path d="M 388.8 252 
L 388.8 34.56 
" style="fill:none;stroke:#000000;stroke-linecap:square;stroke-linejoin:miter;stroke-width:0.8;"/>
   </g>
   <g id="patch_39">
    <path d="M 54 252 
L 388.8 252 
" style="fill:none;stroke:#000000;stroke-linecap:square;stroke-linejoin:miter;stroke-width:0.8;"/>
   </g>
   <g id="patch_40">
    <path d="M 54 34.56 
L 388.8 34.56 
" style="fill:none;stroke:#000000;stroke-linecap:square;stroke-linejoin:miter;stroke-width:0.8;"/>
   </g>
  </g>
 </g>
 <defs>
  <clipPath id="p2a4e616489">
   <rect height="217.44" width="334.8" x="54" y="34.56"/>
  </clipPath>
 </defs>
</svg>
