<?xml version="1.0" encoding="utf-8" standalone="no"?>
<!DOCTYPE svg PUBLIC "-//W3C//DTD SVG 1.1//EN"
  "http://www.w3.org/Graphics/SVG/1.1/DTD/svg11.dtd">
<!-- Created with matplotlib (https://matplotlib.org/) -->
<svg height="288pt" version="1.1" viewBox="0 0 432 288" width="432pt" xmlns="http://www.w3.org/2000/svg" xmlns:xlink="http://www.w3.org/1999/xlink">
 <defs>
  <style type="text/css">
*{stroke-linecap:butt;stroke-linejoin:round;}
  </style>
 </defs>
 <g id="figure_1">
  <g id="patch_1">
   <path d="M 0 288 
L 432 288 
L 432 0 
L 0 0 
z
" style="fill:#ffffff;"/>
  </g>
  <g id="axes_1">
   <g id="patch_2">
    <path d="M 54 252 
L 388.8 252 
L 388.8 34.56 
L 54 34.56 
z
" style="fill:#ffffff;"/>
   </g>
   <g id="patch_3">
    <path clip-path="url(#p89422fa9a0)" d="M 69.218182 172.860638 
L 69.218182 227.825455 
L 174.907336 227.825455 
z
" style="fill:#aaaaaa;"/>
   </g>
   <g id="patch_4">
    <path clip-path="url(#p89422fa9a0)" d="M 105.040687 136.800432 
L 107.85789 170.606875 
L 145.608419 168.916553 
L 140.537452 132.292906 
z
" style="fill:#aaaaaa;"/>
   </g>
   <g id="patch_5">
    <path clip-path="url(#p89422fa9a0)" d="M 89.827787 58.734545 
L 88.700906 58.734545 
L 97.152516 91.725174 
L 207.412119 122.702872 
L 206.460017 144.125161 
L 276.890108 144.125161 
L 292.666448 58.734545 
L 117.436383 58.734545 
z
" style="fill:#aaaaaa;"/>
   </g>
   <g id="patch_6">
    <path clip-path="url(#p89422fa9a0)" d="M 78.923155 128.787024 
L 78.905062 100.900044 
L 69.387273 100.897 
L 69.3915 134.056573 
L 125.006515 134.055389 
L 125.009558 100.900044 
L 116.993296 100.900044 
L 116.992113 128.787024 
z
" style="fill:#f6929c;"/>
   </g>
   <g id="patch_7">
    <path clip-path="url(#p89422fa9a0)" d="M 137.462247 197.835762 
L 137.444155 169.948782 
L 127.926365 169.945739 
L 127.930593 203.105311 
L 183.545607 203.104128 
L 183.548651 169.948782 
L 175.532389 169.948782 
L 175.531205 197.835762 
z
" style="fill:#f6929c;"/>
   </g>
   <g id="patch_8">
    <path clip-path="url(#p89422fa9a0)" d="M 153.187436 137.460043 
L 160.869513 110.652028 
L 151.722519 108.021285 
L 142.571376 139.89312 
L 196.024975 155.247032 
L 205.181939 123.381268 
L 197.477267 121.168015 
L 189.776663 147.970707 
z
" style="fill:#f6929c;"/>
   </g>
   <g id="patch_9">
    <path clip-path="url(#p89422fa9a0)" d="M 79.565558 125.529036 
L 79.165155 100.168561 
L 104.525631 99.768158 
L 104.926034 125.128634 
z
" style="fill:#f6929c;"/>
   </g>
   <g id="patch_10">
    <path clip-path="url(#p89422fa9a0)" d="M 163.278804 194.957838 
L 137.915345 194.863128 
L 138.010055 169.499668 
L 163.373515 169.594379 
z
" style="fill:#f6929c;"/>
   </g>
   <g id="patch_11">
    <path clip-path="url(#p89422fa9a0)" d="M 69.387273 172.532727 
L 69.387273 147.169091 
L 94.750909 147.169091 
L 94.750909 172.532727 
z
" style="fill:#f6929c;"/>
   </g>
   <g id="patch_12">
    <path clip-path="url(#p89422fa9a0)" d="M 208.98531 182.889487 
L 183.78255 180.037305 
L 186.634732 154.834545 
L 211.837492 157.686727 
z
" style="fill:#f6929c;"/>
   </g>
   <g id="patch_13">
    <path clip-path="url(#p89422fa9a0)" d="M 209.175293 227.088819 
L 183.814807 226.689041 
L 184.214585 201.328555 
L 209.57507 201.728333 
z
" style="fill:#f6929c;"/>
   </g>
   <g id="patch_14">
    <path clip-path="url(#p89422fa9a0)" d="M 210.971975 227.52526 
L 210.566446 202.164866 
L 235.92684 201.759337 
L 236.332369 227.119731 
z
" style="fill:#f6929c;"/>
   </g>
   <g id="patch_15">
    <path clip-path="url(#p89422fa9a0)" d="M 234.615921 200.841284 
L 209.265931 200.009401 
L 210.097814 174.65941 
L 235.447804 175.491293 
z
" style="fill:#f6929c;"/>
   </g>
   <g id="patch_16">
    <path clip-path="url(#p89422fa9a0)" d="M 95.581338 99.760396 
L 69.430146 98.397908 
L 70.827994 73.07282 
L 72.516333 73.16601 
L 97.547895 92.210588 
L 98.63851 93.442698 
L 99.176079 94.997869 
L 99.079151 96.640473 
L 98.36241 98.121629 
L 97.134454 99.216921 
z
" style="fill:#f6929c;"/>
   </g>
   <g id="patch_17">
    <path clip-path="url(#p89422fa9a0)" d="M 146.559267 166.189631 
L 142.138637 141.214201 
L 143.803666 140.919493 
L 172.521962 153.746594 
L 173.86506 154.697186 
L 174.743469 156.088565 
L 175.024097 157.709919 
L 174.664423 159.315588 
L 173.718942 160.662291 
L 172.330912 161.545982 
z
" style="fill:#f6929c;"/>
   </g>
   <g id="patch_18">
    <path clip-path="url(#p89422fa9a0)" d="M 179.113694 142.683164 
L 154.254457 134.451547 
L 162.301648 110.39834 
L 163.905195 110.934819 
L 183.007318 135.922495 
L 183.73316 137.399211 
L 183.840197 139.041186 
L 183.312211 140.599638 
L 182.229198 141.838436 
L 180.75525 142.569887 
z
" style="fill:#f6929c;"/>
   </g>
   <g id="patch_19">
    <path clip-path="url(#p89422fa9a0)" d="M 236.582624 174.834794 
L 210.543314 172.060718 
L 213.308043 146.848215 
L 214.988876 147.03253 
L 238.954404 167.402324 
L 239.976825 168.691585 
L 240.429544 170.273541 
L 240.243969 171.908503 
L 239.448213 173.348751 
L 238.162847 174.376066 
z
" style="fill:#f6929c;"/>
   </g>
   <g id="patch_20">
    <path clip-path="url(#p89422fa9a0)" d="M 262.089284 200.575592 
L 235.902991 200.436821 
L 236.115692 175.074076 
L 237.806542 175.088256 
L 263.700837 192.942122 
L 264.847846 194.121914 
L 265.457511 195.650261 
L 265.437459 197.2956 
L 264.790727 198.808636 
L 263.615303 199.960122 
z
" style="fill:#f6929c;"/>
   </g>
   <g id="patch_21">
    <path clip-path="url(#p89422fa9a0)" d="M 237.682796 227.280943 
L 237.068933 201.924736 
L 238.759346 201.883812 
L 265.221663 218.884425 
L 266.406507 220.026215 
L 267.06565 221.533884 
L 267.099223 223.179003 
L 266.502136 224.712309 
L 265.364858 225.901485 
L 263.859705 226.566354 
z
" style="fill:#f6929c;"/>
   </g>
   <g id="patch_22">
    <path clip-path="url(#p89422fa9a0)" d="M 240.758254 170.332159 
L 238.639287 145.057191 
L 240.324285 144.915927 
L 267.74973 160.314628 
L 269.000305 161.38402 
L 269.747842 162.849874 
L 269.879077 164.490093 
L 269.374125 166.056159 
L 268.309493 167.310791 
L 266.846492 168.063894 
z
" style="fill:#f6929c;"/>
   </g>
   <g id="patch_23">
    <path clip-path="url(#p89422fa9a0)" d="M 114.898576 186.576583 
L 89.781691 183.047255 
L 101.683313 159.106813 
z
" style="fill:#f6929c;"/>
   </g>
   <g id="patch_24">
    <path clip-path="url(#p89422fa9a0)" d="M 273.028568 223.586959 
L 251.95372 209.474383 
L 273.091245 193.103726 
z
" style="fill:#f6929c;"/>
   </g>
   <g id="patch_25">
    <path clip-path="url(#p89422fa9a0)" d="M 268.737444 196.257694 
L 248.983729 180.348427 
L 271.477567 165.897801 
z
" style="fill:#f6929c;"/>
   </g>
   <g id="patch_26">
    <path clip-path="url(#p89422fa9a0)" d="M 273.623527 168.585098 
L 264.432783 144.94521 
L 291.136252 143.634429 
z
" style="fill:#f6929c;"/>
   </g>
   <g id="patch_27">
    <path clip-path="url(#p89422fa9a0)" d="M 134.378016 132.373808 
L 125.187273 108.73392 
L 151.890741 107.423139 
z
" style="fill:#f6929c;"/>
   </g>
   <g id="patch_28">
    <path clip-path="url(#p89422fa9a0)" d="M 269.41323 192.682163 
L 275.836785 166.729681 
L 294.69753 190.677619 
z
" style="fill:#f6929c;"/>
   </g>
   <g id="patch_29">
    <path clip-path="url(#p89422fa9a0)" d="M 272.082188 227.462006 
L 279.567825 201.795712 
L 297.427543 226.499191 
z
" style="fill:#f6929c;"/>
   </g>
   <g id="patch_30">
    <path clip-path="url(#p89422fa9a0)" d="M 297.462065 176.981456 
L 290.698711 176.75335 
L 283.9527 176.283123 
L 280.768561 170.31172 
L 277.803016 164.234389 
L 281.382266 158.491257 
L 285.162437 152.884388 
L 291.925791 153.112494 
L 298.671802 153.582721 
L 301.855941 159.554124 
L 304.821486 165.631455 
L 301.242236 171.374587 
z
" style="fill:#f6929c;"/>
   </g>
   <g id="patch_31">
    <path clip-path="url(#p89422fa9a0)" d="M 298.290204 145.157947 
L 291.558593 144.46484 
L 284.860949 143.53138 
L 282.095392 137.354965 
L 279.555202 131.087921 
L 283.52128 125.604781 
L 287.678423 120.271412 
L 294.410034 120.964519 
L 301.107678 121.897979 
L 303.873235 128.074393 
L 306.413425 134.341437 
L 302.447347 139.824577 
z
" style="fill:#f6929c;"/>
   </g>
   <g id="patch_32">
    <path clip-path="url(#p89422fa9a0)" d="M 289.77604 215.516466 
L 285.880045 209.983147 
L 282.187918 204.31776 
L 285.031862 198.177192 
L 288.091994 192.147078 
L 294.831878 191.53967 
L 301.5844 191.174672 
L 305.480396 196.707992 
L 309.172523 202.373378 
L 306.328578 208.513947 
L 303.268447 214.54406 
L 296.528563 215.151469 
z
" style="fill:#f6929c;"/>
   </g>
   <g id="patch_33">
    <path clip-path="url(#p89422fa9a0)" d="M 294.517872 120.473336 
L 289.097294 116.42195 
L 283.829545 112.181758 
L 284.627847 105.461839 
L 285.665937 98.779846 
L 291.884716 96.111179 
L 298.190723 93.669038 
L 303.611301 97.720424 
L 308.879051 101.960616 
L 308.080749 108.680535 
L 307.042658 115.362528 
L 300.82388 118.031195 
z
" style="fill:#f6929c;"/>
   </g>
   <g id="patch_34">
    <path clip-path="url(#p89422fa9a0)" d="M 301.449318 95.19928 
L 295.55306 91.878053 
L 289.784102 88.349947 
L 289.712245 81.583158 
L 289.883062 74.823166 
L 295.707343 71.377483 
L 301.64724 68.145239 
L 307.543498 71.466466 
L 313.312456 74.994571 
L 313.384314 81.76136 
L 313.213497 88.521352 
L 307.389215 91.967035 
z
" style="fill:#f6929c;"/>
   </g>
   <g id="patch_35">
    <path clip-path="url(#p89422fa9a0)" d="M 310.023964 196.38828 
L 303.810354 193.707602 
L 297.701252 190.807833 
L 296.916017 184.08624 
L 296.372956 177.345803 
L 301.801304 173.305055 
L 307.366984 169.464499 
L 313.580594 172.145176 
L 319.689696 175.044945 
L 320.474931 181.766538 
L 321.017992 188.506975 
L 315.589644 192.547723 
z
" style="fill:#f6929c;"/>
   </g>
   <g id="patch_36">
    <path clip-path="url(#p89422fa9a0)" d="M 316.246092 161.727927 
L 309.493034 161.290668 
L 302.764802 160.61194 
L 299.766947 154.544876 
L 296.990859 148.378699 
L 300.746092 142.749061 
L 304.697933 137.261838 
L 311.450991 137.699097 
L 318.179223 138.377825 
L 321.177079 144.444889 
L 323.953167 150.611066 
L 320.197934 156.240704 
z
" style="fill:#f6929c;"/>
   </g>
   <g id="matplotlib.axis_1">
    <g id="xtick_1">
     <g id="line2d_1">
      <defs>
       <path d="M 0 0 
L 0 3.5 
" id="m311df674cb" style="stroke:#000000;stroke-width:0.8;"/>
      </defs>
      <g>
       <use style="stroke:#000000;stroke-width:0.8;" x="69.218182" xlink:href="#m311df674cb" y="252"/>
      </g>
     </g>
     <g id="text_1">
      <!-- 0 -->
      <defs>
       <path d="M 31.78125 66.40625 
Q 24.171875 66.40625 20.328125 58.90625 
Q 16.5 51.421875 16.5 36.375 
Q 16.5 21.390625 20.328125 13.890625 
Q 24.171875 6.390625 31.78125 6.390625 
Q 39.453125 6.390625 43.28125 13.890625 
Q 47.125 21.390625 47.125 36.375 
Q 47.125 51.421875 43.28125 58.90625 
Q 39.453125 66.40625 31.78125 66.40625 
z
M 31.78125 74.21875 
Q 44.046875 74.21875 50.515625 64.515625 
Q 56.984375 54.828125 56.984375 36.375 
Q 56.984375 17.96875 50.515625 8.265625 
Q 44.046875 -1.421875 31.78125 -1.421875 
Q 19.53125 -1.421875 13.0625 8.265625 
Q 6.59375 17.96875 6.59375 36.375 
Q 6.59375 54.828125 13.0625 64.515625 
Q 19.53125 74.21875 31.78125 74.21875 
z
" id="DejaVuSans-48"/>
      </defs>
      <g transform="translate(66.036932 266.598437)scale(0.1 -0.1)">
       <use xlink:href="#DejaVuSans-48"/>
      </g>
     </g>
    </g>
    <g id="xtick_2">
     <g id="line2d_2">
      <g>
       <use style="stroke:#000000;stroke-width:0.8;" x="111.490909" xlink:href="#m311df674cb" y="252"/>
      </g>
     </g>
     <g id="text_2">
      <!-- 250 -->
      <defs>
       <path d="M 19.1875 8.296875 
L 53.609375 8.296875 
L 53.609375 0 
L 7.328125 0 
L 7.328125 8.296875 
Q 12.9375 14.109375 22.625 23.890625 
Q 32.328125 33.6875 34.8125 36.53125 
Q 39.546875 41.84375 41.421875 45.53125 
Q 43.3125 49.21875 43.3125 52.78125 
Q 43.3125 58.59375 39.234375 62.25 
Q 35.15625 65.921875 28.609375 65.921875 
Q 23.96875 65.921875 18.8125 64.3125 
Q 13.671875 62.703125 7.8125 59.421875 
L 7.8125 69.390625 
Q 13.765625 71.78125 18.9375 73 
Q 24.125 74.21875 28.421875 74.21875 
Q 39.75 74.21875 46.484375 68.546875 
Q 53.21875 62.890625 53.21875 53.421875 
Q 53.21875 48.921875 51.53125 44.890625 
Q 49.859375 40.875 45.40625 35.40625 
Q 44.1875 33.984375 37.640625 27.21875 
Q 31.109375 20.453125 19.1875 8.296875 
z
" id="DejaVuSans-50"/>
       <path d="M 10.796875 72.90625 
L 49.515625 72.90625 
L 49.515625 64.59375 
L 19.828125 64.59375 
L 19.828125 46.734375 
Q 21.96875 47.46875 24.109375 47.828125 
Q 26.265625 48.1875 28.421875 48.1875 
Q 40.625 48.1875 47.75 41.5 
Q 54.890625 34.8125 54.890625 23.390625 
Q 54.890625 11.625 47.5625 5.09375 
Q 40.234375 -1.421875 26.90625 -1.421875 
Q 22.3125 -1.421875 17.546875 -0.640625 
Q 12.796875 0.140625 7.71875 1.703125 
L 7.71875 11.625 
Q 12.109375 9.234375 16.796875 8.0625 
Q 21.484375 6.890625 26.703125 6.890625 
Q 35.15625 6.890625 40.078125 11.328125 
Q 45.015625 15.765625 45.015625 23.390625 
Q 45.015625 31 40.078125 35.4375 
Q 35.15625 39.890625 26.703125 39.890625 
Q 22.75 39.890625 18.8125 39.015625 
Q 14.890625 38.140625 10.796875 36.28125 
z
" id="DejaVuSans-53"/>
      </defs>
      <g transform="translate(101.947159 266.598437)scale(0.1 -0.1)">
       <use xlink:href="#DejaVuSans-50"/>
       <use x="63.623047" xlink:href="#DejaVuSans-53"/>
       <use x="127.246094" xlink:href="#DejaVuSans-48"/>
      </g>
     </g>
    </g>
    <g id="xtick_3">
     <g id="line2d_3">
      <g>
       <use style="stroke:#000000;stroke-width:0.8;" x="153.763636" xlink:href="#m311df674cb" y="252"/>
      </g>
     </g>
     <g id="text_3">
      <!-- 500 -->
      <g transform="translate(144.219886 266.598437)scale(0.1 -0.1)">
       <use xlink:href="#DejaVuSans-53"/>
       <use x="63.623047" xlink:href="#DejaVuSans-48"/>
       <use x="127.246094" xlink:href="#DejaVuSans-48"/>
      </g>
     </g>
    </g>
    <g id="xtick_4">
     <g id="line2d_4">
      <g>
       <use style="stroke:#000000;stroke-width:0.8;" x="196.036364" xlink:href="#m311df674cb" y="252"/>
      </g>
     </g>
     <g id="text_4">
      <!-- 750 -->
      <defs>
       <path d="M 8.203125 72.90625 
L 55.078125 72.90625 
L 55.078125 68.703125 
L 28.609375 0 
L 18.3125 0 
L 43.21875 64.59375 
L 8.203125 64.59375 
z
" id="DejaVuSans-55"/>
      </defs>
      <g transform="translate(186.492614 266.598437)scale(0.1 -0.1)">
       <use xlink:href="#DejaVuSans-55"/>
       <use x="63.623047" xlink:href="#DejaVuSans-53"/>
       <use x="127.246094" xlink:href="#DejaVuSans-48"/>
      </g>
     </g>
    </g>
    <g id="xtick_5">
     <g id="line2d_5">
      <g>
       <use style="stroke:#000000;stroke-width:0.8;" x="238.309091" xlink:href="#m311df674cb" y="252"/>
      </g>
     </g>
     <g id="text_5">
      <!-- 1000 -->
      <defs>
       <path d="M 12.40625 8.296875 
L 28.515625 8.296875 
L 28.515625 63.921875 
L 10.984375 60.40625 
L 10.984375 69.390625 
L 28.421875 72.90625 
L 38.28125 72.90625 
L 38.28125 8.296875 
L 54.390625 8.296875 
L 54.390625 0 
L 12.40625 0 
z
" id="DejaVuSans-49"/>
      </defs>
      <g transform="translate(225.584091 266.598437)scale(0.1 -0.1)">
       <use xlink:href="#DejaVuSans-49"/>
       <use x="63.623047" xlink:href="#DejaVuSans-48"/>
       <use x="127.246094" xlink:href="#DejaVuSans-48"/>
       <use x="190.869141" xlink:href="#DejaVuSans-48"/>
      </g>
     </g>
    </g>
    <g id="xtick_6">
     <g id="line2d_6">
      <g>
       <use style="stroke:#000000;stroke-width:0.8;" x="280.581818" xlink:href="#m311df674cb" y="252"/>
      </g>
     </g>
     <g id="text_6">
      <!-- 1250 -->
      <g transform="translate(267.856818 266.598437)scale(0.1 -0.1)">
       <use xlink:href="#DejaVuSans-49"/>
       <use x="63.623047" xlink:href="#DejaVuSans-50"/>
       <use x="127.246094" xlink:href="#DejaVuSans-53"/>
       <use x="190.869141" xlink:href="#DejaVuSans-48"/>
      </g>
     </g>
    </g>
    <g id="xtick_7">
     <g id="line2d_7">
      <g>
       <use style="stroke:#000000;stroke-width:0.8;" x="322.854545" xlink:href="#m311df674cb" y="252"/>
      </g>
     </g>
     <g id="text_7">
      <!-- 1500 -->
      <g transform="translate(310.129545 266.598437)scale(0.1 -0.1)">
       <use xlink:href="#DejaVuSans-49"/>
       <use x="63.623047" xlink:href="#DejaVuSans-53"/>
       <use x="127.246094" xlink:href="#DejaVuSans-48"/>
       <use x="190.869141" xlink:href="#DejaVuSans-48"/>
      </g>
     </g>
    </g>
    <g id="xtick_8">
     <g id="line2d_8">
      <g>
       <use style="stroke:#000000;stroke-width:0.8;" x="365.127273" xlink:href="#m311df674cb" y="252"/>
      </g>
     </g>
     <g id="text_8">
      <!-- 1750 -->
      <g transform="translate(352.402273 266.598437)scale(0.1 -0.1)">
       <use xlink:href="#DejaVuSans-49"/>
       <use x="63.623047" xlink:href="#DejaVuSans-55"/>
       <use x="127.246094" xlink:href="#DejaVuSans-53"/>
       <use x="190.869141" xlink:href="#DejaVuSans-48"/>
      </g>
     </g>
    </g>
   </g>
   <g id="matplotlib.axis_2">
    <g id="ytick_1">
     <g id="line2d_9">
      <defs>
       <path d="M 0 0 
L -3.5 0 
" id="mbf9e428e30" style="stroke:#000000;stroke-width:0.8;"/>
      </defs>
      <g>
       <use style="stroke:#000000;stroke-width:0.8;" x="54" xlink:href="#mbf9e428e30" y="227.825455"/>
      </g>
     </g>
     <g id="text_9">
      <!-- 0 -->
      <g transform="translate(40.6375 231.624673)scale(0.1 -0.1)">
       <use xlink:href="#DejaVuSans-48"/>
      </g>
     </g>
    </g>
    <g id="ytick_2">
     <g id="line2d_10">
      <g>
       <use style="stroke:#000000;stroke-width:0.8;" x="54" xlink:href="#mbf9e428e30" y="194.007273"/>
      </g>
     </g>
     <g id="text_10">
      <!-- 200 -->
      <g transform="translate(27.9125 197.806491)scale(0.1 -0.1)">
       <use xlink:href="#DejaVuSans-50"/>
       <use x="63.623047" xlink:href="#DejaVuSans-48"/>
       <use x="127.246094" xlink:href="#DejaVuSans-48"/>
      </g>
     </g>
    </g>
    <g id="ytick_3">
     <g id="line2d_11">
      <g>
       <use style="stroke:#000000;stroke-width:0.8;" x="54" xlink:href="#mbf9e428e30" y="160.189091"/>
      </g>
     </g>
     <g id="text_11">
      <!-- 400 -->
      <defs>
       <path d="M 37.796875 64.3125 
L 12.890625 25.390625 
L 37.796875 25.390625 
z
M 35.203125 72.90625 
L 47.609375 72.90625 
L 47.609375 25.390625 
L 58.015625 25.390625 
L 58.015625 17.1875 
L 47.609375 17.1875 
L 47.609375 0 
L 37.796875 0 
L 37.796875 17.1875 
L 4.890625 17.1875 
L 4.890625 26.703125 
z
" id="DejaVuSans-52"/>
      </defs>
      <g transform="translate(27.9125 163.98831)scale(0.1 -0.1)">
       <use xlink:href="#DejaVuSans-52"/>
       <use x="63.623047" xlink:href="#DejaVuSans-48"/>
       <use x="127.246094" xlink:href="#DejaVuSans-48"/>
      </g>
     </g>
    </g>
    <g id="ytick_4">
     <g id="line2d_12">
      <g>
       <use style="stroke:#000000;stroke-width:0.8;" x="54" xlink:href="#mbf9e428e30" y="126.370909"/>
      </g>
     </g>
     <g id="text_12">
      <!-- 600 -->
      <defs>
       <path d="M 33.015625 40.375 
Q 26.375 40.375 22.484375 35.828125 
Q 18.609375 31.296875 18.609375 23.390625 
Q 18.609375 15.53125 22.484375 10.953125 
Q 26.375 6.390625 33.015625 6.390625 
Q 39.65625 6.390625 43.53125 10.953125 
Q 47.40625 15.53125 47.40625 23.390625 
Q 47.40625 31.296875 43.53125 35.828125 
Q 39.65625 40.375 33.015625 40.375 
z
M 52.59375 71.296875 
L 52.59375 62.3125 
Q 48.875 64.0625 45.09375 64.984375 
Q 41.3125 65.921875 37.59375 65.921875 
Q 27.828125 65.921875 22.671875 59.328125 
Q 17.53125 52.734375 16.796875 39.40625 
Q 19.671875 43.65625 24.015625 45.921875 
Q 28.375 48.1875 33.59375 48.1875 
Q 44.578125 48.1875 50.953125 41.515625 
Q 57.328125 34.859375 57.328125 23.390625 
Q 57.328125 12.15625 50.6875 5.359375 
Q 44.046875 -1.421875 33.015625 -1.421875 
Q 20.359375 -1.421875 13.671875 8.265625 
Q 6.984375 17.96875 6.984375 36.375 
Q 6.984375 53.65625 15.1875 63.9375 
Q 23.390625 74.21875 37.203125 74.21875 
Q 40.921875 74.21875 44.703125 73.484375 
Q 48.484375 72.75 52.59375 71.296875 
z
" id="DejaVuSans-54"/>
      </defs>
      <g transform="translate(27.9125 130.170128)scale(0.1 -0.1)">
       <use xlink:href="#DejaVuSans-54"/>
       <use x="63.623047" xlink:href="#DejaVuSans-48"/>
       <use x="127.246094" xlink:href="#DejaVuSans-48"/>
      </g>
     </g>
    </g>
    <g id="ytick_5">
     <g id="line2d_13">
      <g>
       <use style="stroke:#000000;stroke-width:0.8;" x="54" xlink:href="#mbf9e428e30" y="92.552727"/>
      </g>
     </g>
     <g id="text_13">
      <!-- 800 -->
      <defs>
       <path d="M 31.78125 34.625 
Q 24.75 34.625 20.71875 30.859375 
Q 16.703125 27.09375 16.703125 20.515625 
Q 16.703125 13.921875 20.71875 10.15625 
Q 24.75 6.390625 31.78125 6.390625 
Q 38.8125 6.390625 42.859375 10.171875 
Q 46.921875 13.96875 46.921875 20.515625 
Q 46.921875 27.09375 42.890625 30.859375 
Q 38.875 34.625 31.78125 34.625 
z
M 21.921875 38.8125 
Q 15.578125 40.375 12.03125 44.71875 
Q 8.5 49.078125 8.5 55.328125 
Q 8.5 64.0625 14.71875 69.140625 
Q 20.953125 74.21875 31.78125 74.21875 
Q 42.671875 74.21875 48.875 69.140625 
Q 55.078125 64.0625 55.078125 55.328125 
Q 55.078125 49.078125 51.53125 44.71875 
Q 48 40.375 41.703125 38.8125 
Q 48.828125 37.15625 52.796875 32.3125 
Q 56.78125 27.484375 56.78125 20.515625 
Q 56.78125 9.90625 50.3125 4.234375 
Q 43.84375 -1.421875 31.78125 -1.421875 
Q 19.734375 -1.421875 13.25 4.234375 
Q 6.78125 9.90625 6.78125 20.515625 
Q 6.78125 27.484375 10.78125 32.3125 
Q 14.796875 37.15625 21.921875 38.8125 
z
M 18.3125 54.390625 
Q 18.3125 48.734375 21.84375 45.5625 
Q 25.390625 42.390625 31.78125 42.390625 
Q 38.140625 42.390625 41.71875 45.5625 
Q 45.3125 48.734375 45.3125 54.390625 
Q 45.3125 60.0625 41.71875 63.234375 
Q 38.140625 66.40625 31.78125 66.40625 
Q 25.390625 66.40625 21.84375 63.234375 
Q 18.3125 60.0625 18.3125 54.390625 
z
" id="DejaVuSans-56"/>
      </defs>
      <g transform="translate(27.9125 96.351946)scale(0.1 -0.1)">
       <use xlink:href="#DejaVuSans-56"/>
       <use x="63.623047" xlink:href="#DejaVuSans-48"/>
       <use x="127.246094" xlink:href="#DejaVuSans-48"/>
      </g>
     </g>
    </g>
    <g id="ytick_6">
     <g id="line2d_14">
      <g>
       <use style="stroke:#000000;stroke-width:0.8;" x="54" xlink:href="#mbf9e428e30" y="58.734545"/>
      </g>
     </g>
     <g id="text_14">
      <!-- 1000 -->
      <g transform="translate(21.55 62.533764)scale(0.1 -0.1)">
       <use xlink:href="#DejaVuSans-49"/>
       <use x="63.623047" xlink:href="#DejaVuSans-48"/>
       <use x="127.246094" xlink:href="#DejaVuSans-48"/>
       <use x="190.869141" xlink:href="#DejaVuSans-48"/>
      </g>
     </g>
    </g>
   </g>
   <g id="line2d_15">
    <path clip-path="url(#p89422fa9a0)" d="M 69.218182 227.825455 
L 373.581818 227.825455 
L 373.581818 58.734545 
L 69.218182 58.734545 
L 69.218182 227.825455 
" style="fill:none;stroke:#000000;stroke-linecap:square;stroke-width:1.5;"/>
   </g>
   <g id="line2d_16">
    <path clip-path="url(#p89422fa9a0)" d="M 69.218182 172.860638 
L 69.218182 227.825455 
L 174.907336 227.825455 
L 69.218182 172.860638 
" style="fill:none;stroke:#000000;stroke-dasharray:5.55,2.4;stroke-dashoffset:0;stroke-width:1.5;"/>
   </g>
   <g id="line2d_17">
    <path clip-path="url(#p89422fa9a0)" d="M 105.040687 136.800432 
L 107.85789 170.606875 
L 145.608419 168.916553 
L 140.537452 132.292906 
L 105.040687 136.800432 
" style="fill:none;stroke:#000000;stroke-dasharray:5.55,2.4;stroke-dashoffset:0;stroke-width:1.5;"/>
   </g>
   <g id="line2d_18">
    <path clip-path="url(#p89422fa9a0)" d="M 89.827787 58.734545 
L 88.700906 58.734545 
L 97.152516 91.725174 
L 207.412119 122.702872 
L 206.460017 144.125161 
L 276.890108 144.125161 
L 292.666448 58.734545 
L 117.436383 58.734545 
L 89.827787 58.734545 
" style="fill:none;stroke:#000000;stroke-dasharray:5.55,2.4;stroke-dashoffset:0;stroke-width:1.5;"/>
   </g>
   <g id="line2d_19">
    <path clip-path="url(#p89422fa9a0)" d="M 78.923155 128.787024 
L 78.905062 100.900044 
L 69.387273 100.897 
L 69.3915 134.056573 
L 125.006515 134.055389 
L 125.009558 100.900044 
L 116.993296 100.900044 
L 116.992113 128.787024 
L 78.923155 128.787024 
" style="fill:none;stroke:#ff0000;stroke-linecap:square;stroke-width:1.5;"/>
   </g>
   <g id="line2d_20">
    <path clip-path="url(#p89422fa9a0)" d="M 137.462247 197.835762 
L 137.444155 169.948782 
L 127.926365 169.945739 
L 127.930593 203.105311 
L 183.545607 203.104128 
L 183.548651 169.948782 
L 175.532389 169.948782 
L 175.531205 197.835762 
L 137.462247 197.835762 
" style="fill:none;stroke:#ff0000;stroke-linecap:square;stroke-width:1.5;"/>
   </g>
   <g id="line2d_21">
    <path clip-path="url(#p89422fa9a0)" d="M 153.187436 137.460043 
L 160.869513 110.652028 
L 151.722519 108.021285 
L 142.571376 139.89312 
L 196.024975 155.247032 
L 205.181939 123.381268 
L 197.477267 121.168015 
L 189.776663 147.970707 
L 153.187436 137.460043 
" style="fill:none;stroke:#ff0000;stroke-linecap:square;stroke-width:1.5;"/>
   </g>
   <g id="line2d_22">
    <path clip-path="url(#p89422fa9a0)" d="M 79.565558 125.529036 
L 79.165155 100.168561 
L 104.525631 99.768158 
L 104.926034 125.128634 
L 79.565558 125.529036 
" style="fill:none;stroke:#ff0000;stroke-linecap:square;stroke-width:1.5;"/>
   </g>
   <g id="line2d_23">
    <path clip-path="url(#p89422fa9a0)" d="M 163.278804 194.957838 
L 137.915345 194.863128 
L 138.010055 169.499668 
L 163.373515 169.594379 
L 163.278804 194.957838 
" style="fill:none;stroke:#ff0000;stroke-linecap:square;stroke-width:1.5;"/>
   </g>
   <g id="line2d_24">
    <path clip-path="url(#p89422fa9a0)" d="M 69.387273 172.532727 
L 69.387273 147.169091 
L 94.750909 147.169091 
L 94.750909 172.532727 
L 69.387273 172.532727 
" style="fill:none;stroke:#ff0000;stroke-linecap:square;stroke-width:1.5;"/>
   </g>
   <g id="line2d_25">
    <path clip-path="url(#p89422fa9a0)" d="M 208.98531 182.889487 
L 183.78255 180.037305 
L 186.634732 154.834545 
L 211.837492 157.686727 
L 208.98531 182.889487 
" style="fill:none;stroke:#ff0000;stroke-linecap:square;stroke-width:1.5;"/>
   </g>
   <g id="line2d_26">
    <path clip-path="url(#p89422fa9a0)" d="M 209.175293 227.088819 
L 183.814807 226.689041 
L 184.214585 201.328555 
L 209.57507 201.728333 
L 209.175293 227.088819 
" style="fill:none;stroke:#ff0000;stroke-linecap:square;stroke-width:1.5;"/>
   </g>
   <g id="line2d_27">
    <path clip-path="url(#p89422fa9a0)" d="M 210.971975 227.52526 
L 210.566446 202.164866 
L 235.92684 201.759337 
L 236.332369 227.119731 
L 210.971975 227.52526 
" style="fill:none;stroke:#ff0000;stroke-linecap:square;stroke-width:1.5;"/>
   </g>
   <g id="line2d_28">
    <path clip-path="url(#p89422fa9a0)" d="M 234.615921 200.841284 
L 209.265931 200.009401 
L 210.097814 174.65941 
L 235.447804 175.491293 
L 234.615921 200.841284 
" style="fill:none;stroke:#ff0000;stroke-linecap:square;stroke-width:1.5;"/>
   </g>
   <g id="line2d_29">
    <path clip-path="url(#p89422fa9a0)" d="M 95.581338 99.760396 
L 69.430146 98.397908 
L 70.827994 73.07282 
L 72.516333 73.16601 
L 97.547895 92.210588 
L 98.63851 93.442698 
L 99.176079 94.997869 
L 99.079151 96.640473 
L 98.36241 98.121629 
L 97.134454 99.216921 
L 95.581338 99.760396 
" style="fill:none;stroke:#ff0000;stroke-linecap:square;stroke-width:1.5;"/>
   </g>
   <g id="line2d_30">
    <path clip-path="url(#p89422fa9a0)" d="M 146.559267 166.189631 
L 142.138637 141.214201 
L 143.803666 140.919493 
L 172.521962 153.746594 
L 173.86506 154.697186 
L 174.743469 156.088565 
L 175.024097 157.709919 
L 174.664423 159.315588 
L 173.718942 160.662291 
L 172.330912 161.545982 
L 146.559267 166.189631 
" style="fill:none;stroke:#ff0000;stroke-linecap:square;stroke-width:1.5;"/>
   </g>
   <g id="line2d_31">
    <path clip-path="url(#p89422fa9a0)" d="M 179.113694 142.683164 
L 154.254457 134.451547 
L 162.301648 110.39834 
L 163.905195 110.934819 
L 183.007318 135.922495 
L 183.73316 137.399211 
L 183.840197 139.041186 
L 183.312211 140.599638 
L 182.229198 141.838436 
L 180.75525 142.569887 
L 179.113694 142.683164 
" style="fill:none;stroke:#ff0000;stroke-linecap:square;stroke-width:1.5;"/>
   </g>
   <g id="line2d_32">
    <path clip-path="url(#p89422fa9a0)" d="M 236.582624 174.834794 
L 210.543314 172.060718 
L 213.308043 146.848215 
L 214.988876 147.03253 
L 238.954404 167.402324 
L 239.976825 168.691585 
L 240.429544 170.273541 
L 240.243969 171.908503 
L 239.448213 173.348751 
L 238.162847 174.376066 
L 236.582624 174.834794 
" style="fill:none;stroke:#ff0000;stroke-linecap:square;stroke-width:1.5;"/>
   </g>
   <g id="line2d_33">
    <path clip-path="url(#p89422fa9a0)" d="M 262.089284 200.575592 
L 235.902991 200.436821 
L 236.115692 175.074076 
L 237.806542 175.088256 
L 263.700837 192.942122 
L 264.847846 194.121914 
L 265.457511 195.650261 
L 265.437459 197.2956 
L 264.790727 198.808636 
L 263.615303 199.960122 
L 262.089284 200.575592 
" style="fill:none;stroke:#ff0000;stroke-linecap:square;stroke-width:1.5;"/>
   </g>
   <g id="line2d_34">
    <path clip-path="url(#p89422fa9a0)" d="M 237.682796 227.280943 
L 237.068933 201.924736 
L 238.759346 201.883812 
L 265.221663 218.884425 
L 266.406507 220.026215 
L 267.06565 221.533884 
L 267.099223 223.179003 
L 266.502136 224.712309 
L 265.364858 225.901485 
L 263.859705 226.566354 
L 237.682796 227.280943 
" style="fill:none;stroke:#ff0000;stroke-linecap:square;stroke-width:1.5;"/>
   </g>
   <g id="line2d_35">
    <path clip-path="url(#p89422fa9a0)" d="M 240.758254 170.332159 
L 238.639287 145.057191 
L 240.324285 144.915927 
L 267.74973 160.314628 
L 269.000305 161.38402 
L 269.747842 162.849874 
L 269.879077 164.490093 
L 269.374125 166.056159 
L 268.309493 167.310791 
L 266.846492 168.063894 
L 240.758254 170.332159 
" style="fill:none;stroke:#ff0000;stroke-linecap:square;stroke-width:1.5;"/>
   </g>
   <g id="line2d_36">
    <path clip-path="url(#p89422fa9a0)" d="M 114.898576 186.576583 
L 89.781691 183.047255 
L 101.683313 159.106813 
L 114.898576 186.576583 
" style="fill:none;stroke:#ff0000;stroke-linecap:square;stroke-width:1.5;"/>
   </g>
   <g id="line2d_37">
    <path clip-path="url(#p89422fa9a0)" d="M 273.028568 223.586959 
L 251.95372 209.474383 
L 273.091245 193.103726 
L 273.028568 223.586959 
" style="fill:none;stroke:#ff0000;stroke-linecap:square;stroke-width:1.5;"/>
   </g>
   <g id="line2d_38">
    <path clip-path="url(#p89422fa9a0)" d="M 268.737444 196.257694 
L 248.983729 180.348427 
L 271.477567 165.897801 
L 268.737444 196.257694 
" style="fill:none;stroke:#ff0000;stroke-linecap:square;stroke-width:1.5;"/>
   </g>
   <g id="line2d_39">
    <path clip-path="url(#p89422fa9a0)" d="M 273.623527 168.585098 
L 264.432783 144.94521 
L 291.136252 143.634429 
L 273.623527 168.585098 
" style="fill:none;stroke:#ff0000;stroke-linecap:square;stroke-width:1.5;"/>
   </g>
   <g id="line2d_40">
    <path clip-path="url(#p89422fa9a0)" d="M 134.378016 132.373808 
L 125.187273 108.73392 
L 151.890741 107.423139 
L 134.378016 132.373808 
" style="fill:none;stroke:#ff0000;stroke-linecap:square;stroke-width:1.5;"/>
   </g>
   <g id="line2d_41">
    <path clip-path="url(#p89422fa9a0)" d="M 269.41323 192.682163 
L 275.836785 166.729681 
L 294.69753 190.677619 
L 269.41323 192.682163 
" style="fill:none;stroke:#ff0000;stroke-linecap:square;stroke-width:1.5;"/>
   </g>
   <g id="line2d_42">
    <path clip-path="url(#p89422fa9a0)" d="M 272.082188 227.462006 
L 279.567825 201.795712 
L 297.427543 226.499191 
L 272.082188 227.462006 
" style="fill:none;stroke:#ff0000;stroke-linecap:square;stroke-width:1.5;"/>
   </g>
   <g id="line2d_43">
    <path clip-path="url(#p89422fa9a0)" d="M 297.462065 176.981456 
L 290.698711 176.75335 
L 283.9527 176.283123 
L 280.768561 170.31172 
L 277.803016 164.234389 
L 281.382266 158.491257 
L 285.162437 152.884388 
L 291.925791 153.112494 
L 298.671802 153.582721 
L 301.855941 159.554124 
L 304.821486 165.631455 
L 301.242236 171.374587 
L 297.462065 176.981456 
" style="fill:none;stroke:#ff0000;stroke-linecap:square;stroke-width:1.5;"/>
   </g>
   <g id="line2d_44">
    <path clip-path="url(#p89422fa9a0)" d="M 298.290204 145.157947 
L 291.558593 144.46484 
L 284.860949 143.53138 
L 282.095392 137.354965 
L 279.555202 131.087921 
L 283.52128 125.604781 
L 287.678423 120.271412 
L 294.410034 120.964519 
L 301.107678 121.897979 
L 303.873235 128.074393 
L 306.413425 134.341437 
L 302.447347 139.824577 
L 298.290204 145.157947 
" style="fill:none;stroke:#ff0000;stroke-linecap:square;stroke-width:1.5;"/>
   </g>
   <g id="line2d_45">
    <path clip-path="url(#p89422fa9a0)" d="M 289.77604 215.516466 
L 285.880045 209.983147 
L 282.187918 204.31776 
L 285.031862 198.177192 
L 288.091994 192.147078 
L 294.831878 191.53967 
L 301.5844 191.174672 
L 305.480396 196.707992 
L 309.172523 202.373378 
L 306.328578 208.513947 
L 303.268447 214.54406 
L 296.528563 215.151469 
L 289.77604 215.516466 
" style="fill:none;stroke:#ff0000;stroke-linecap:square;stroke-width:1.5;"/>
   </g>
   <g id="line2d_46">
    <path clip-path="url(#p89422fa9a0)" d="M 294.517872 120.473336 
L 289.097294 116.42195 
L 283.829545 112.181758 
L 284.627847 105.461839 
L 285.665937 98.779846 
L 291.884716 96.111179 
L 298.190723 93.669038 
L 303.611301 97.720424 
L 308.879051 101.960616 
L 308.080749 108.680535 
L 307.042658 115.362528 
L 300.82388 118.031195 
L 294.517872 120.473336 
" style="fill:none;stroke:#ff0000;stroke-linecap:square;stroke-width:1.5;"/>
   </g>
   <g id="line2d_47">
    <path clip-path="url(#p89422fa9a0)" d="M 301.449318 95.19928 
L 295.55306 91.878053 
L 289.784102 88.349947 
L 289.712245 81.583158 
L 289.883062 74.823166 
L 295.707343 71.377483 
L 301.64724 68.145239 
L 307.543498 71.466466 
L 313.312456 74.994571 
L 313.384314 81.76136 
L 313.213497 88.521352 
L 307.389215 91.967035 
L 301.449318 95.19928 
" style="fill:none;stroke:#ff0000;stroke-linecap:square;stroke-width:1.5;"/>
   </g>
   <g id="line2d_48">
    <path clip-path="url(#p89422fa9a0)" d="M 310.023964 196.38828 
L 303.810354 193.707602 
L 297.701252 190.807833 
L 296.916017 184.08624 
L 296.372956 177.345803 
L 301.801304 173.305055 
L 307.366984 169.464499 
L 313.580594 172.145176 
L 319.689696 175.044945 
L 320.474931 181.766538 
L 321.017992 188.506975 
L 315.589644 192.547723 
L 310.023964 196.38828 
" style="fill:none;stroke:#ff0000;stroke-linecap:square;stroke-width:1.5;"/>
   </g>
   <g id="line2d_49">
    <path clip-path="url(#p89422fa9a0)" d="M 316.246092 161.727927 
L 309.493034 161.290668 
L 302.764802 160.61194 
L 299.766947 154.544876 
L 296.990859 148.378699 
L 300.746092 142.749061 
L 304.697933 137.261838 
L 311.450991 137.699097 
L 318.179223 138.377825 
L 321.177079 144.444889 
L 323.953167 150.611066 
L 320.197934 156.240704 
L 316.246092 161.727927 
" style="fill:none;stroke:#ff0000;stroke-linecap:square;stroke-width:1.5;"/>
   </g>
   <g id="patch_37">
    <path d="M 54 252 
L 54 34.56 
" style="fill:none;stroke:#000000;stroke-linecap:square;stroke-linejoin:miter;stroke-width:0.8;"/>
   </g>
   <g id="patch_38">
    <path d="M 388.8 252 
L 388.8 34.56 
" style="fill:none;stroke:#000000;stroke-linecap:square;stroke-linejoin:miter;stroke-width:0.8;"/>
   </g>
   <g id="patch_39">
    <path d="M 54 252 
L 388.8 252 
" style="fill:none;stroke:#000000;stroke-linecap:square;stroke-linejoin:miter;stroke-width:0.8;"/>
   </g>
   <g id="patch_40">
    <path d="M 54 34.56 
L 388.8 34.56 
" style="fill:none;stroke:#000000;stroke-linecap:square;stroke-linejoin:miter;stroke-width:0.8;"/>
   </g>
  </g>
 </g>
 <defs>
  <clipPath id="p89422fa9a0">
   <rect height="217.44" width="334.8" x="54" y="34.56"/>
  </clipPath>
 </defs>
</svg>
