<?xml version="1.0" encoding="utf-8" standalone="no"?>
<!DOCTYPE svg PUBLIC "-//W3C//DTD SVG 1.1//EN"
  "http://www.w3.org/Graphics/SVG/1.1/DTD/svg11.dtd">
<!-- Created with matplotlib (https://matplotlib.org/) -->
<svg height="288pt" version="1.1" viewBox="0 0 432 288" width="432pt" xmlns="http://www.w3.org/2000/svg" xmlns:xlink="http://www.w3.org/1999/xlink">
 <defs>
  <style type="text/css">
*{stroke-linecap:butt;stroke-linejoin:round;}
  </style>
 </defs>
 <g id="figure_1">
  <g id="patch_1">
   <path d="M 0 288 
L 432 288 
L 432 0 
L 0 0 
z
" style="fill:#ffffff;"/>
  </g>
  <g id="axes_1">
   <g id="patch_2">
    <path d="M 54 252 
L 388.8 252 
L 388.8 34.56 
L 54 34.56 
z
" style="fill:#ffffff;"/>
   </g>
   <g id="patch_3">
    <path clip-path="url(#pb55df61e53)" d="M 69.218182 172.860638 
L 69.218182 227.825455 
L 174.907336 227.825455 
z
" style="fill:#aaaaaa;"/>
   </g>
   <g id="patch_4">
    <path clip-path="url(#pb55df61e53)" d="M 105.040687 136.800432 
L 107.85789 170.606875 
L 145.608419 168.916553 
L 140.537452 132.292906 
z
" style="fill:#aaaaaa;"/>
   </g>
   <g id="patch_5">
    <path clip-path="url(#pb55df61e53)" d="M 89.827787 58.734545 
L 88.700906 58.734545 
L 97.152516 91.725174 
L 207.412119 122.702872 
L 206.460017 144.125161 
L 276.890108 144.125161 
L 292.666448 58.734545 
L 117.436383 58.734545 
z
" style="fill:#aaaaaa;"/>
   </g>
   <g id="patch_6">
    <path clip-path="url(#pb55df61e53)" d="M 81.858362 128.422124 
L 81.840269 100.535144 
L 72.32248 100.532101 
L 72.326707 133.691673 
L 127.941722 133.69049 
L 127.944765 100.535144 
L 119.928503 100.535144 
L 119.92732 128.422124 
z
" style="fill:#f6929c;"/>
   </g>
   <g id="patch_7">
    <path clip-path="url(#pb55df61e53)" d="M 345.522704 68.439518 
L 373.409684 68.421425 
L 373.412727 58.903636 
L 340.253155 58.907864 
L 340.254338 114.522878 
L 373.409684 114.525922 
L 373.409684 106.50966 
L 345.522704 106.508476 
z
" style="fill:#f6929c;"/>
   </g>
   <g id="patch_8">
    <path clip-path="url(#pb55df61e53)" d="M 312.211795 68.439518 
L 340.098775 68.421425 
L 340.101818 58.903636 
L 306.942245 58.907864 
L 306.943429 114.522878 
L 340.098775 114.525922 
L 340.098775 106.50966 
L 312.211795 106.508476 
z
" style="fill:#f6929c;"/>
   </g>
   <g id="patch_9">
    <path clip-path="url(#pb55df61e53)" d="M 345.522704 124.239518 
L 373.409684 124.221425 
L 373.412727 114.703636 
L 340.253155 114.707864 
L 340.254338 170.322878 
L 373.409684 170.325922 
L 373.409684 162.30966 
L 345.522704 162.308476 
z
" style="fill:#f6929c;"/>
   </g>
   <g id="patch_10">
    <path clip-path="url(#pb55df61e53)" d="M 294.015415 142.590793 
L 293.997322 114.703813 
L 284.479533 114.700769 
L 284.48376 147.860342 
L 340.098775 147.859159 
L 340.101818 114.703813 
L 332.085556 114.703813 
L 332.084373 142.590793 
z
" style="fill:#f6929c;"/>
   </g>
   <g id="patch_11">
    <path clip-path="url(#pb55df61e53)" d="M 308.312727 140.067273 
L 307.117074 139.572017 
L 306.621818 138.376364 
L 306.621818 116.394545 
L 307.117074 115.198892 
L 308.312727 114.703636 
L 330.294545 114.703636 
L 331.490199 115.198892 
L 331.985455 116.394545 
L 331.985455 138.376364 
L 331.490199 139.572017 
L 330.294545 140.067273 
z
" style="fill:#f6929c;"/>
   </g>
   <g id="patch_12">
    <path clip-path="url(#pb55df61e53)" d="M 316.429091 93.895147 
L 315.233437 93.399892 
L 314.738182 92.204238 
L 314.738182 70.22242 
L 315.233437 69.026766 
L 316.429091 68.531511 
L 338.410909 68.531511 
L 339.606563 69.026766 
L 340.101818 70.22242 
L 340.101818 92.204238 
L 339.606563 93.399892 
L 338.410909 93.895147 
z
" style="fill:#f6929c;"/>
   </g>
   <g id="patch_13">
    <path clip-path="url(#pb55df61e53)" d="M 349.74 93.895147 
L 348.544346 93.399892 
L 348.049091 92.204238 
L 348.049091 70.22242 
L 348.544346 69.026766 
L 349.74 68.531511 
L 371.721818 68.531511 
L 372.917472 69.026766 
L 373.412727 70.22242 
L 373.412727 92.204238 
L 372.917472 93.399892 
L 371.721818 93.895147 
z
" style="fill:#f6929c;"/>
   </g>
   <g id="patch_14">
    <path clip-path="url(#pb55df61e53)" d="M 349.74 149.695147 
L 348.544346 149.199892 
L 348.049091 148.004238 
L 348.049091 126.02242 
L 348.544346 124.826766 
L 349.74 124.331511 
L 371.721818 124.331511 
L 372.917472 124.826766 
L 373.412727 126.02242 
L 373.412727 148.004238 
L 372.917472 149.199892 
L 371.721818 149.695147 
z
" style="fill:#f6929c;"/>
   </g>
   <g id="patch_15">
    <path clip-path="url(#pb55df61e53)" d="M 70.414879 100.33661 
L 70.414879 74.972973 
L 72.105788 74.972973 
L 98.148896 92.60906 
L 99.305758 93.779191 
L 99.928219 95.302372 
L 99.921966 96.947821 
L 99.287944 98.466227 
L 98.122218 99.62753 
L 96.601414 100.255776 
z
" style="fill:#f6929c;"/>
   </g>
   <g id="patch_16">
    <path clip-path="url(#pb55df61e53)" d="M 94.412727 126.798419 
L 94.412727 125.10751 
L 112.048814 99.064402 
L 113.218945 97.90754 
L 114.742127 97.285079 
L 116.387576 97.291332 
L 117.905981 97.925353 
L 119.067284 99.09108 
L 119.69553 100.611883 
L 119.776364 126.798419 
z
" style="fill:#f6929c;"/>
   </g>
   <g id="patch_17">
    <path clip-path="url(#pb55df61e53)" d="M 85.502477 163.324249 
L 83.857028 163.317996 
L 82.338622 162.683975 
L 81.177319 161.518249 
L 80.549073 159.997445 
L 80.46824 133.810909 
L 105.831876 133.810909 
L 105.831876 135.501818 
L 88.195789 161.544926 
L 87.025658 162.701789 
z
" style="fill:#f6929c;"/>
   </g>
   <g id="patch_18">
    <path clip-path="url(#pb55df61e53)" d="M 353.083328 200.016977 
L 351.437879 200.010724 
L 349.919473 199.376702 
L 348.75817 198.210976 
L 348.129925 196.690172 
L 348.049091 170.503636 
L 373.412727 170.503636 
L 373.412727 172.194545 
L 355.77664 198.237653 
L 354.606509 199.394516 
z
" style="fill:#f6929c;"/>
   </g>
   <g id="patch_19">
    <path clip-path="url(#pb55df61e53)" d="M 319.772419 177.527886 
L 318.12697 177.521633 
L 316.608564 176.887611 
L 315.447261 175.721885 
L 314.819016 174.201081 
L 314.738182 148.014545 
L 340.101818 148.014545 
L 340.101818 149.705455 
L 322.465731 175.748562 
L 321.2956 176.905425 
z
" style="fill:#f6929c;"/>
   </g>
   <g id="patch_20">
    <path clip-path="url(#pb55df61e53)" d="M 343.899387 222.061395 
L 343.899387 196.697759 
L 345.590296 196.697759 
L 371.633404 214.333846 
L 372.790266 215.503977 
L 373.412727 217.027158 
L 373.406474 218.672607 
L 372.772453 220.191013 
L 371.606726 221.352316 
L 370.085923 221.980561 
z
" style="fill:#f6929c;"/>
   </g>
   <g id="patch_21">
    <path clip-path="url(#pb55df61e53)" d="M 332.120261 202.60481 
L 331.148347 202.471183 
L 329.370505 201.662927 
L 328.514917 200.93209 
L 316.734003 187.242347 
L 316.726732 184.039765 
L 316.729776 177.774609 
L 342.800381 177.773425 
L 344.771293 178.171345 
L 346.433579 179.302521 
L 347.06456 180.091597 
L 347.802444 181.961967 
L 347.880173 182.969308 
L 347.437958 184.930737 
L 335.725111 201.301918 
L 334.050265 202.30634 
z
" style="fill:#f6929c;"/>
   </g>
   <g id="patch_22">
    <path clip-path="url(#pb55df61e53)" d="M 298.809179 172.845931 
L 297.837265 172.712304 
L 296.059423 171.904047 
L 295.203834 171.173211 
L 283.422921 157.483467 
L 283.41565 154.280885 
L 283.418694 148.015729 
L 309.489299 148.014545 
L 311.460211 148.412465 
L 313.122496 149.543641 
L 313.753478 150.332718 
L 314.491362 152.203088 
L 314.569091 153.210428 
L 314.126876 155.171858 
L 302.414028 171.543038 
L 300.739183 172.54746 
z
" style="fill:#f6929c;"/>
   </g>
   <g id="patch_23">
    <path clip-path="url(#pb55df61e53)" d="M 300.056575 197.701762 
L 299.084661 197.568135 
L 297.306818 196.759879 
L 296.45123 196.029042 
L 284.670317 182.339299 
L 284.663046 179.136717 
L 284.666089 172.87156 
L 310.736695 172.870377 
L 312.707607 173.268297 
L 314.369892 174.399473 
L 315.000873 175.188549 
L 315.738757 177.058919 
L 315.816487 178.06626 
L 315.374272 180.027689 
L 303.661424 196.39887 
L 301.986578 197.403292 
z
" style="fill:#f6929c;"/>
   </g>
   <g id="patch_24">
    <path clip-path="url(#pb55df61e53)" d="M 327.967476 227.462008 
L 326.995562 227.32838 
L 325.21772 226.520124 
L 324.362131 225.789288 
L 312.581218 212.099544 
L 312.573947 208.896962 
L 312.57699 202.631806 
L 338.647596 202.630622 
L 340.618508 203.028542 
L 342.280793 204.159718 
L 342.911774 204.948794 
L 343.649658 206.819164 
L 343.727388 207.826505 
L 343.285173 209.787934 
L 331.572325 226.159115 
L 329.89748 227.163537 
z
" style="fill:#f6929c;"/>
   </g>
   <g id="patch_25">
    <path clip-path="url(#pb55df61e53)" d="M 267.527361 169.095974 
L 266.555447 168.962346 
L 264.777604 168.15409 
L 263.922016 167.423254 
L 252.141103 153.73351 
L 252.133832 150.530928 
L 252.136875 144.265772 
L 278.207481 144.264588 
L 280.178393 144.662508 
L 281.840678 145.793684 
L 282.471659 146.58276 
L 283.209543 148.453131 
L 283.287273 149.460471 
L 282.845058 151.4219 
L 271.13221 167.793081 
L 269.457364 168.797503 
z
" style="fill:#f6929c;"/>
   </g>
   <g id="patch_26">
    <path clip-path="url(#pb55df61e53)" d="M 268.723531 193.981765 
L 267.751616 193.848137 
L 265.973774 193.039881 
L 265.118186 192.309045 
L 253.337273 178.619301 
L 253.330002 175.416719 
L 253.333045 169.151563 
L 279.403651 169.150379 
L 281.374563 169.548299 
L 283.036848 170.679475 
L 283.667829 171.468551 
L 284.405713 173.338922 
L 284.483443 174.346262 
L 284.041228 176.307691 
L 272.32838 192.678872 
L 270.653534 193.683294 
z
" style="fill:#f6929c;"/>
   </g>
   <g id="patch_27">
    <path clip-path="url(#pb55df61e53)" d="M 296.610997 222.556106 
L 295.639083 222.422478 
L 293.861241 221.614222 
L 293.005653 220.883386 
L 281.224739 207.193642 
L 281.217468 203.99106 
L 281.220512 197.725904 
L 307.291117 197.72472 
L 309.262029 198.12264 
L 310.924314 199.253816 
L 311.555296 200.042892 
L 312.29318 201.913262 
L 312.370909 202.920603 
L 311.928694 204.882032 
L 300.215846 221.253213 
L 298.541001 222.257635 
z
" style="fill:#f6929c;"/>
   </g>
   <g id="patch_28">
    <path clip-path="url(#pb55df61e53)" d="M 243.550909 169.658182 
L 226.641818 144.294545 
L 252.005455 144.294545 
z
" style="fill:#f6929c;"/>
   </g>
   <g id="patch_29">
    <path clip-path="url(#pb55df61e53)" d="M 273.868959 219.360228 
L 256.959868 193.996592 
L 282.323505 193.996592 
z
" style="fill:#f6929c;"/>
   </g>
   <g id="patch_30">
    <path clip-path="url(#pb55df61e53)" d="M 236.500175 191.683278 
L 244.954721 166.319641 
L 261.863812 191.683278 
z
" style="fill:#f6929c;"/>
   </g>
   <g id="patch_31">
    <path clip-path="url(#pb55df61e53)" d="M 181.775599 141.007742 
L 181.775599 115.644105 
L 207.139235 124.098651 
z
" style="fill:#f6929c;"/>
   </g>
   <g id="patch_32">
    <path clip-path="url(#pb55df61e53)" d="M 206.804838 169.658182 
L 206.804838 144.294545 
L 232.168474 152.749091 
z
" style="fill:#f6929c;"/>
   </g>
   <g id="matplotlib.axis_1">
    <g id="xtick_1">
     <g id="line2d_1">
      <defs>
       <path d="M 0 0 
L 0 3.5 
" id="m18f07ece4a" style="stroke:#000000;stroke-width:0.8;"/>
      </defs>
      <g>
       <use style="stroke:#000000;stroke-width:0.8;" x="69.218182" xlink:href="#m18f07ece4a" y="252"/>
      </g>
     </g>
     <g id="text_1">
      <!-- 0 -->
      <defs>
       <path d="M 31.78125 66.40625 
Q 24.171875 66.40625 20.328125 58.90625 
Q 16.5 51.421875 16.5 36.375 
Q 16.5 21.390625 20.328125 13.890625 
Q 24.171875 6.390625 31.78125 6.390625 
Q 39.453125 6.390625 43.28125 13.890625 
Q 47.125 21.390625 47.125 36.375 
Q 47.125 51.421875 43.28125 58.90625 
Q 39.453125 66.40625 31.78125 66.40625 
z
M 31.78125 74.21875 
Q 44.046875 74.21875 50.515625 64.515625 
Q 56.984375 54.828125 56.984375 36.375 
Q 56.984375 17.96875 50.515625 8.265625 
Q 44.046875 -1.421875 31.78125 -1.421875 
Q 19.53125 -1.421875 13.0625 8.265625 
Q 6.59375 17.96875 6.59375 36.375 
Q 6.59375 54.828125 13.0625 64.515625 
Q 19.53125 74.21875 31.78125 74.21875 
z
" id="DejaVuSans-48"/>
      </defs>
      <g transform="translate(66.036932 266.598437)scale(0.1 -0.1)">
       <use xlink:href="#DejaVuSans-48"/>
      </g>
     </g>
    </g>
    <g id="xtick_2">
     <g id="line2d_2">
      <g>
       <use style="stroke:#000000;stroke-width:0.8;" x="111.490909" xlink:href="#m18f07ece4a" y="252"/>
      </g>
     </g>
     <g id="text_2">
      <!-- 250 -->
      <defs>
       <path d="M 19.1875 8.296875 
L 53.609375 8.296875 
L 53.609375 0 
L 7.328125 0 
L 7.328125 8.296875 
Q 12.9375 14.109375 22.625 23.890625 
Q 32.328125 33.6875 34.8125 36.53125 
Q 39.546875 41.84375 41.421875 45.53125 
Q 43.3125 49.21875 43.3125 52.78125 
Q 43.3125 58.59375 39.234375 62.25 
Q 35.15625 65.921875 28.609375 65.921875 
Q 23.96875 65.921875 18.8125 64.3125 
Q 13.671875 62.703125 7.8125 59.421875 
L 7.8125 69.390625 
Q 13.765625 71.78125 18.9375 73 
Q 24.125 74.21875 28.421875 74.21875 
Q 39.75 74.21875 46.484375 68.546875 
Q 53.21875 62.890625 53.21875 53.421875 
Q 53.21875 48.921875 51.53125 44.890625 
Q 49.859375 40.875 45.40625 35.40625 
Q 44.1875 33.984375 37.640625 27.21875 
Q 31.109375 20.453125 19.1875 8.296875 
z
" id="DejaVuSans-50"/>
       <path d="M 10.796875 72.90625 
L 49.515625 72.90625 
L 49.515625 64.59375 
L 19.828125 64.59375 
L 19.828125 46.734375 
Q 21.96875 47.46875 24.109375 47.828125 
Q 26.265625 48.1875 28.421875 48.1875 
Q 40.625 48.1875 47.75 41.5 
Q 54.890625 34.8125 54.890625 23.390625 
Q 54.890625 11.625 47.5625 5.09375 
Q 40.234375 -1.421875 26.90625 -1.421875 
Q 22.3125 -1.421875 17.546875 -0.640625 
Q 12.796875 0.140625 7.71875 1.703125 
L 7.71875 11.625 
Q 12.109375 9.234375 16.796875 8.0625 
Q 21.484375 6.890625 26.703125 6.890625 
Q 35.15625 6.890625 40.078125 11.328125 
Q 45.015625 15.765625 45.015625 23.390625 
Q 45.015625 31 40.078125 35.4375 
Q 35.15625 39.890625 26.703125 39.890625 
Q 22.75 39.890625 18.8125 39.015625 
Q 14.890625 38.140625 10.796875 36.28125 
z
" id="DejaVuSans-53"/>
      </defs>
      <g transform="translate(101.947159 266.598437)scale(0.1 -0.1)">
       <use xlink:href="#DejaVuSans-50"/>
       <use x="63.623047" xlink:href="#DejaVuSans-53"/>
       <use x="127.246094" xlink:href="#DejaVuSans-48"/>
      </g>
     </g>
    </g>
    <g id="xtick_3">
     <g id="line2d_3">
      <g>
       <use style="stroke:#000000;stroke-width:0.8;" x="153.763636" xlink:href="#m18f07ece4a" y="252"/>
      </g>
     </g>
     <g id="text_3">
      <!-- 500 -->
      <g transform="translate(144.219886 266.598437)scale(0.1 -0.1)">
       <use xlink:href="#DejaVuSans-53"/>
       <use x="63.623047" xlink:href="#DejaVuSans-48"/>
       <use x="127.246094" xlink:href="#DejaVuSans-48"/>
      </g>
     </g>
    </g>
    <g id="xtick_4">
     <g id="line2d_4">
      <g>
       <use style="stroke:#000000;stroke-width:0.8;" x="196.036364" xlink:href="#m18f07ece4a" y="252"/>
      </g>
     </g>
     <g id="text_4">
      <!-- 750 -->
      <defs>
       <path d="M 8.203125 72.90625 
L 55.078125 72.90625 
L 55.078125 68.703125 
L 28.609375 0 
L 18.3125 0 
L 43.21875 64.59375 
L 8.203125 64.59375 
z
" id="DejaVuSans-55"/>
      </defs>
      <g transform="translate(186.492614 266.598437)scale(0.1 -0.1)">
       <use xlink:href="#DejaVuSans-55"/>
       <use x="63.623047" xlink:href="#DejaVuSans-53"/>
       <use x="127.246094" xlink:href="#DejaVuSans-48"/>
      </g>
     </g>
    </g>
    <g id="xtick_5">
     <g id="line2d_5">
      <g>
       <use style="stroke:#000000;stroke-width:0.8;" x="238.309091" xlink:href="#m18f07ece4a" y="252"/>
      </g>
     </g>
     <g id="text_5">
      <!-- 1000 -->
      <defs>
       <path d="M 12.40625 8.296875 
L 28.515625 8.296875 
L 28.515625 63.921875 
L 10.984375 60.40625 
L 10.984375 69.390625 
L 28.421875 72.90625 
L 38.28125 72.90625 
L 38.28125 8.296875 
L 54.390625 8.296875 
L 54.390625 0 
L 12.40625 0 
z
" id="DejaVuSans-49"/>
      </defs>
      <g transform="translate(225.584091 266.598437)scale(0.1 -0.1)">
       <use xlink:href="#DejaVuSans-49"/>
       <use x="63.623047" xlink:href="#DejaVuSans-48"/>
       <use x="127.246094" xlink:href="#DejaVuSans-48"/>
       <use x="190.869141" xlink:href="#DejaVuSans-48"/>
      </g>
     </g>
    </g>
    <g id="xtick_6">
     <g id="line2d_6">
      <g>
       <use style="stroke:#000000;stroke-width:0.8;" x="280.581818" xlink:href="#m18f07ece4a" y="252"/>
      </g>
     </g>
     <g id="text_6">
      <!-- 1250 -->
      <g transform="translate(267.856818 266.598437)scale(0.1 -0.1)">
       <use xlink:href="#DejaVuSans-49"/>
       <use x="63.623047" xlink:href="#DejaVuSans-50"/>
       <use x="127.246094" xlink:href="#DejaVuSans-53"/>
       <use x="190.869141" xlink:href="#DejaVuSans-48"/>
      </g>
     </g>
    </g>
    <g id="xtick_7">
     <g id="line2d_7">
      <g>
       <use style="stroke:#000000;stroke-width:0.8;" x="322.854545" xlink:href="#m18f07ece4a" y="252"/>
      </g>
     </g>
     <g id="text_7">
      <!-- 1500 -->
      <g transform="translate(310.129545 266.598437)scale(0.1 -0.1)">
       <use xlink:href="#DejaVuSans-49"/>
       <use x="63.623047" xlink:href="#DejaVuSans-53"/>
       <use x="127.246094" xlink:href="#DejaVuSans-48"/>
       <use x="190.869141" xlink:href="#DejaVuSans-48"/>
      </g>
     </g>
    </g>
    <g id="xtick_8">
     <g id="line2d_8">
      <g>
       <use style="stroke:#000000;stroke-width:0.8;" x="365.127273" xlink:href="#m18f07ece4a" y="252"/>
      </g>
     </g>
     <g id="text_8">
      <!-- 1750 -->
      <g transform="translate(352.402273 266.598437)scale(0.1 -0.1)">
       <use xlink:href="#DejaVuSans-49"/>
       <use x="63.623047" xlink:href="#DejaVuSans-55"/>
       <use x="127.246094" xlink:href="#DejaVuSans-53"/>
       <use x="190.869141" xlink:href="#DejaVuSans-48"/>
      </g>
     </g>
    </g>
   </g>
   <g id="matplotlib.axis_2">
    <g id="ytick_1">
     <g id="line2d_9">
      <defs>
       <path d="M 0 0 
L -3.5 0 
" id="m75f26ea8dc" style="stroke:#000000;stroke-width:0.8;"/>
      </defs>
      <g>
       <use style="stroke:#000000;stroke-width:0.8;" x="54" xlink:href="#m75f26ea8dc" y="227.825455"/>
      </g>
     </g>
     <g id="text_9">
      <!-- 0 -->
      <g transform="translate(40.6375 231.624673)scale(0.1 -0.1)">
       <use xlink:href="#DejaVuSans-48"/>
      </g>
     </g>
    </g>
    <g id="ytick_2">
     <g id="line2d_10">
      <g>
       <use style="stroke:#000000;stroke-width:0.8;" x="54" xlink:href="#m75f26ea8dc" y="194.007273"/>
      </g>
     </g>
     <g id="text_10">
      <!-- 200 -->
      <g transform="translate(27.9125 197.806491)scale(0.1 -0.1)">
       <use xlink:href="#DejaVuSans-50"/>
       <use x="63.623047" xlink:href="#DejaVuSans-48"/>
       <use x="127.246094" xlink:href="#DejaVuSans-48"/>
      </g>
     </g>
    </g>
    <g id="ytick_3">
     <g id="line2d_11">
      <g>
       <use style="stroke:#000000;stroke-width:0.8;" x="54" xlink:href="#m75f26ea8dc" y="160.189091"/>
      </g>
     </g>
     <g id="text_11">
      <!-- 400 -->
      <defs>
       <path d="M 37.796875 64.3125 
L 12.890625 25.390625 
L 37.796875 25.390625 
z
M 35.203125 72.90625 
L 47.609375 72.90625 
L 47.609375 25.390625 
L 58.015625 25.390625 
L 58.015625 17.1875 
L 47.609375 17.1875 
L 47.609375 0 
L 37.796875 0 
L 37.796875 17.1875 
L 4.890625 17.1875 
L 4.890625 26.703125 
z
" id="DejaVuSans-52"/>
      </defs>
      <g transform="translate(27.9125 163.98831)scale(0.1 -0.1)">
       <use xlink:href="#DejaVuSans-52"/>
       <use x="63.623047" xlink:href="#DejaVuSans-48"/>
       <use x="127.246094" xlink:href="#DejaVuSans-48"/>
      </g>
     </g>
    </g>
    <g id="ytick_4">
     <g id="line2d_12">
      <g>
       <use style="stroke:#000000;stroke-width:0.8;" x="54" xlink:href="#m75f26ea8dc" y="126.370909"/>
      </g>
     </g>
     <g id="text_12">
      <!-- 600 -->
      <defs>
       <path d="M 33.015625 40.375 
Q 26.375 40.375 22.484375 35.828125 
Q 18.609375 31.296875 18.609375 23.390625 
Q 18.609375 15.53125 22.484375 10.953125 
Q 26.375 6.390625 33.015625 6.390625 
Q 39.65625 6.390625 43.53125 10.953125 
Q 47.40625 15.53125 47.40625 23.390625 
Q 47.40625 31.296875 43.53125 35.828125 
Q 39.65625 40.375 33.015625 40.375 
z
M 52.59375 71.296875 
L 52.59375 62.3125 
Q 48.875 64.0625 45.09375 64.984375 
Q 41.3125 65.921875 37.59375 65.921875 
Q 27.828125 65.921875 22.671875 59.328125 
Q 17.53125 52.734375 16.796875 39.40625 
Q 19.671875 43.65625 24.015625 45.921875 
Q 28.375 48.1875 33.59375 48.1875 
Q 44.578125 48.1875 50.953125 41.515625 
Q 57.328125 34.859375 57.328125 23.390625 
Q 57.328125 12.15625 50.6875 5.359375 
Q 44.046875 -1.421875 33.015625 -1.421875 
Q 20.359375 -1.421875 13.671875 8.265625 
Q 6.984375 17.96875 6.984375 36.375 
Q 6.984375 53.65625 15.1875 63.9375 
Q 23.390625 74.21875 37.203125 74.21875 
Q 40.921875 74.21875 44.703125 73.484375 
Q 48.484375 72.75 52.59375 71.296875 
z
" id="DejaVuSans-54"/>
      </defs>
      <g transform="translate(27.9125 130.170128)scale(0.1 -0.1)">
       <use xlink:href="#DejaVuSans-54"/>
       <use x="63.623047" xlink:href="#DejaVuSans-48"/>
       <use x="127.246094" xlink:href="#DejaVuSans-48"/>
      </g>
     </g>
    </g>
    <g id="ytick_5">
     <g id="line2d_13">
      <g>
       <use style="stroke:#000000;stroke-width:0.8;" x="54" xlink:href="#m75f26ea8dc" y="92.552727"/>
      </g>
     </g>
     <g id="text_13">
      <!-- 800 -->
      <defs>
       <path d="M 31.78125 34.625 
Q 24.75 34.625 20.71875 30.859375 
Q 16.703125 27.09375 16.703125 20.515625 
Q 16.703125 13.921875 20.71875 10.15625 
Q 24.75 6.390625 31.78125 6.390625 
Q 38.8125 6.390625 42.859375 10.171875 
Q 46.921875 13.96875 46.921875 20.515625 
Q 46.921875 27.09375 42.890625 30.859375 
Q 38.875 34.625 31.78125 34.625 
z
M 21.921875 38.8125 
Q 15.578125 40.375 12.03125 44.71875 
Q 8.5 49.078125 8.5 55.328125 
Q 8.5 64.0625 14.71875 69.140625 
Q 20.953125 74.21875 31.78125 74.21875 
Q 42.671875 74.21875 48.875 69.140625 
Q 55.078125 64.0625 55.078125 55.328125 
Q 55.078125 49.078125 51.53125 44.71875 
Q 48 40.375 41.703125 38.8125 
Q 48.828125 37.15625 52.796875 32.3125 
Q 56.78125 27.484375 56.78125 20.515625 
Q 56.78125 9.90625 50.3125 4.234375 
Q 43.84375 -1.421875 31.78125 -1.421875 
Q 19.734375 -1.421875 13.25 4.234375 
Q 6.78125 9.90625 6.78125 20.515625 
Q 6.78125 27.484375 10.78125 32.3125 
Q 14.796875 37.15625 21.921875 38.8125 
z
M 18.3125 54.390625 
Q 18.3125 48.734375 21.84375 45.5625 
Q 25.390625 42.390625 31.78125 42.390625 
Q 38.140625 42.390625 41.71875 45.5625 
Q 45.3125 48.734375 45.3125 54.390625 
Q 45.3125 60.0625 41.71875 63.234375 
Q 38.140625 66.40625 31.78125 66.40625 
Q 25.390625 66.40625 21.84375 63.234375 
Q 18.3125 60.0625 18.3125 54.390625 
z
" id="DejaVuSans-56"/>
      </defs>
      <g transform="translate(27.9125 96.351946)scale(0.1 -0.1)">
       <use xlink:href="#DejaVuSans-56"/>
       <use x="63.623047" xlink:href="#DejaVuSans-48"/>
       <use x="127.246094" xlink:href="#DejaVuSans-48"/>
      </g>
     </g>
    </g>
    <g id="ytick_6">
     <g id="line2d_14">
      <g>
       <use style="stroke:#000000;stroke-width:0.8;" x="54" xlink:href="#m75f26ea8dc" y="58.734545"/>
      </g>
     </g>
     <g id="text_14">
      <!-- 1000 -->
      <g transform="translate(21.55 62.533764)scale(0.1 -0.1)">
       <use xlink:href="#DejaVuSans-49"/>
       <use x="63.623047" xlink:href="#DejaVuSans-48"/>
       <use x="127.246094" xlink:href="#DejaVuSans-48"/>
       <use x="190.869141" xlink:href="#DejaVuSans-48"/>
      </g>
     </g>
    </g>
   </g>
   <g id="line2d_15">
    <path clip-path="url(#pb55df61e53)" d="M 69.218182 227.825455 
L 373.581818 227.825455 
L 373.581818 58.734545 
L 69.218182 58.734545 
L 69.218182 227.825455 
" style="fill:none;stroke:#000000;stroke-linecap:square;stroke-width:1.5;"/>
   </g>
   <g id="line2d_16">
    <path clip-path="url(#pb55df61e53)" d="M 69.218182 172.860638 
L 69.218182 227.825455 
L 174.907336 227.825455 
L 69.218182 172.860638 
" style="fill:none;stroke:#000000;stroke-dasharray:5.55,2.4;stroke-dashoffset:0;stroke-width:1.5;"/>
   </g>
   <g id="line2d_17">
    <path clip-path="url(#pb55df61e53)" d="M 105.040687 136.800432 
L 107.85789 170.606875 
L 145.608419 168.916553 
L 140.537452 132.292906 
L 105.040687 136.800432 
" style="fill:none;stroke:#000000;stroke-dasharray:5.55,2.4;stroke-dashoffset:0;stroke-width:1.5;"/>
   </g>
   <g id="line2d_18">
    <path clip-path="url(#pb55df61e53)" d="M 89.827787 58.734545 
L 88.700906 58.734545 
L 97.152516 91.725174 
L 207.412119 122.702872 
L 206.460017 144.125161 
L 276.890108 144.125161 
L 292.666448 58.734545 
L 117.436383 58.734545 
L 89.827787 58.734545 
" style="fill:none;stroke:#000000;stroke-dasharray:5.55,2.4;stroke-dashoffset:0;stroke-width:1.5;"/>
   </g>
   <g id="line2d_19">
    <path clip-path="url(#pb55df61e53)" d="M 81.858362 128.422124 
L 81.840269 100.535144 
L 72.32248 100.532101 
L 72.326707 133.691673 
L 127.941722 133.69049 
L 127.944765 100.535144 
L 119.928503 100.535144 
L 119.92732 128.422124 
L 81.858362 128.422124 
" style="fill:none;stroke:#ff0000;stroke-linecap:square;stroke-width:1.5;"/>
   </g>
   <g id="line2d_20">
    <path clip-path="url(#pb55df61e53)" d="M 345.522704 68.439518 
L 373.409684 68.421425 
L 373.412727 58.903636 
L 340.253155 58.907864 
L 340.254338 114.522878 
L 373.409684 114.525922 
L 373.409684 106.50966 
L 345.522704 106.508476 
L 345.522704 68.439518 
" style="fill:none;stroke:#ff0000;stroke-linecap:square;stroke-width:1.5;"/>
   </g>
   <g id="line2d_21">
    <path clip-path="url(#pb55df61e53)" d="M 312.211795 68.439518 
L 340.098775 68.421425 
L 340.101818 58.903636 
L 306.942245 58.907864 
L 306.943429 114.522878 
L 340.098775 114.525922 
L 340.098775 106.50966 
L 312.211795 106.508476 
L 312.211795 68.439518 
" style="fill:none;stroke:#ff0000;stroke-linecap:square;stroke-width:1.5;"/>
   </g>
   <g id="line2d_22">
    <path clip-path="url(#pb55df61e53)" d="M 345.522704 124.239518 
L 373.409684 124.221425 
L 373.412727 114.703636 
L 340.253155 114.707864 
L 340.254338 170.322878 
L 373.409684 170.325922 
L 373.409684 162.30966 
L 345.522704 162.308476 
L 345.522704 124.239518 
" style="fill:none;stroke:#ff0000;stroke-linecap:square;stroke-width:1.5;"/>
   </g>
   <g id="line2d_23">
    <path clip-path="url(#pb55df61e53)" d="M 294.015415 142.590793 
L 293.997322 114.703813 
L 284.479533 114.700769 
L 284.48376 147.860342 
L 340.098775 147.859159 
L 340.101818 114.703813 
L 332.085556 114.703813 
L 332.084373 142.590793 
L 294.015415 142.590793 
" style="fill:none;stroke:#ff0000;stroke-linecap:square;stroke-width:1.5;"/>
   </g>
   <g id="line2d_24">
    <path clip-path="url(#pb55df61e53)" d="M 308.312727 140.067273 
L 307.117074 139.572017 
L 306.621818 138.376364 
L 306.621818 116.394545 
L 307.117074 115.198892 
L 308.312727 114.703636 
L 330.294545 114.703636 
L 331.490199 115.198892 
L 331.985455 116.394545 
L 331.985455 138.376364 
L 331.490199 139.572017 
L 330.294545 140.067273 
L 308.312727 140.067273 
" style="fill:none;stroke:#ff0000;stroke-linecap:square;stroke-width:1.5;"/>
   </g>
   <g id="line2d_25">
    <path clip-path="url(#pb55df61e53)" d="M 316.429091 93.895147 
L 315.233437 93.399892 
L 314.738182 92.204238 
L 314.738182 70.22242 
L 315.233437 69.026766 
L 316.429091 68.531511 
L 338.410909 68.531511 
L 339.606563 69.026766 
L 340.101818 70.22242 
L 340.101818 92.204238 
L 339.606563 93.399892 
L 338.410909 93.895147 
L 316.429091 93.895147 
" style="fill:none;stroke:#ff0000;stroke-linecap:square;stroke-width:1.5;"/>
   </g>
   <g id="line2d_26">
    <path clip-path="url(#pb55df61e53)" d="M 349.74 93.895147 
L 348.544346 93.399892 
L 348.049091 92.204238 
L 348.049091 70.22242 
L 348.544346 69.026766 
L 349.74 68.531511 
L 371.721818 68.531511 
L 372.917472 69.026766 
L 373.412727 70.22242 
L 373.412727 92.204238 
L 372.917472 93.399892 
L 371.721818 93.895147 
L 349.74 93.895147 
" style="fill:none;stroke:#ff0000;stroke-linecap:square;stroke-width:1.5;"/>
   </g>
   <g id="line2d_27">
    <path clip-path="url(#pb55df61e53)" d="M 349.74 149.695147 
L 348.544346 149.199892 
L 348.049091 148.004238 
L 348.049091 126.02242 
L 348.544346 124.826766 
L 349.74 124.331511 
L 371.721818 124.331511 
L 372.917472 124.826766 
L 373.412727 126.02242 
L 373.412727 148.004238 
L 372.917472 149.199892 
L 371.721818 149.695147 
L 349.74 149.695147 
" style="fill:none;stroke:#ff0000;stroke-linecap:square;stroke-width:1.5;"/>
   </g>
   <g id="line2d_28">
    <path clip-path="url(#pb55df61e53)" d="M 70.414879 100.33661 
L 70.414879 74.972973 
L 72.105788 74.972973 
L 98.148896 92.60906 
L 99.305758 93.779191 
L 99.928219 95.302372 
L 99.921966 96.947821 
L 99.287944 98.466227 
L 98.122218 99.62753 
L 96.601414 100.255776 
L 70.414879 100.33661 
" style="fill:none;stroke:#ff0000;stroke-linecap:square;stroke-width:1.5;"/>
   </g>
   <g id="line2d_29">
    <path clip-path="url(#pb55df61e53)" d="M 94.412727 126.798419 
L 94.412727 125.10751 
L 112.048814 99.064402 
L 113.218945 97.90754 
L 114.742127 97.285079 
L 116.387576 97.291332 
L 117.905981 97.925353 
L 119.067284 99.09108 
L 119.69553 100.611883 
L 119.776364 126.798419 
L 94.412727 126.798419 
" style="fill:none;stroke:#ff0000;stroke-linecap:square;stroke-width:1.5;"/>
   </g>
   <g id="line2d_30">
    <path clip-path="url(#pb55df61e53)" d="M 85.502477 163.324249 
L 83.857028 163.317996 
L 82.338622 162.683975 
L 81.177319 161.518249 
L 80.549073 159.997445 
L 80.46824 133.810909 
L 105.831876 133.810909 
L 105.831876 135.501818 
L 88.195789 161.544926 
L 87.025658 162.701789 
L 85.502477 163.324249 
" style="fill:none;stroke:#ff0000;stroke-linecap:square;stroke-width:1.5;"/>
   </g>
   <g id="line2d_31">
    <path clip-path="url(#pb55df61e53)" d="M 353.083328 200.016977 
L 351.437879 200.010724 
L 349.919473 199.376702 
L 348.75817 198.210976 
L 348.129925 196.690172 
L 348.049091 170.503636 
L 373.412727 170.503636 
L 373.412727 172.194545 
L 355.77664 198.237653 
L 354.606509 199.394516 
L 353.083328 200.016977 
" style="fill:none;stroke:#ff0000;stroke-linecap:square;stroke-width:1.5;"/>
   </g>
   <g id="line2d_32">
    <path clip-path="url(#pb55df61e53)" d="M 319.772419 177.527886 
L 318.12697 177.521633 
L 316.608564 176.887611 
L 315.447261 175.721885 
L 314.819016 174.201081 
L 314.738182 148.014545 
L 340.101818 148.014545 
L 340.101818 149.705455 
L 322.465731 175.748562 
L 321.2956 176.905425 
L 319.772419 177.527886 
" style="fill:none;stroke:#ff0000;stroke-linecap:square;stroke-width:1.5;"/>
   </g>
   <g id="line2d_33">
    <path clip-path="url(#pb55df61e53)" d="M 343.899387 222.061395 
L 343.899387 196.697759 
L 345.590296 196.697759 
L 371.633404 214.333846 
L 372.790266 215.503977 
L 373.412727 217.027158 
L 373.406474 218.672607 
L 372.772453 220.191013 
L 371.606726 221.352316 
L 370.085923 221.980561 
L 343.899387 222.061395 
" style="fill:none;stroke:#ff0000;stroke-linecap:square;stroke-width:1.5;"/>
   </g>
   <g id="line2d_34">
    <path clip-path="url(#pb55df61e53)" d="M 332.120261 202.60481 
L 331.148347 202.471183 
L 329.370505 201.662927 
L 328.514917 200.93209 
L 316.734003 187.242347 
L 316.726732 184.039765 
L 316.729776 177.774609 
L 342.800381 177.773425 
L 344.771293 178.171345 
L 346.433579 179.302521 
L 347.06456 180.091597 
L 347.802444 181.961967 
L 347.880173 182.969308 
L 347.437958 184.930737 
L 335.725111 201.301918 
L 334.050265 202.30634 
L 332.120261 202.60481 
" style="fill:none;stroke:#ff0000;stroke-linecap:square;stroke-width:1.5;"/>
   </g>
   <g id="line2d_35">
    <path clip-path="url(#pb55df61e53)" d="M 298.809179 172.845931 
L 297.837265 172.712304 
L 296.059423 171.904047 
L 295.203834 171.173211 
L 283.422921 157.483467 
L 283.41565 154.280885 
L 283.418694 148.015729 
L 309.489299 148.014545 
L 311.460211 148.412465 
L 313.122496 149.543641 
L 313.753478 150.332718 
L 314.491362 152.203088 
L 314.569091 153.210428 
L 314.126876 155.171858 
L 302.414028 171.543038 
L 300.739183 172.54746 
L 298.809179 172.845931 
" style="fill:none;stroke:#ff0000;stroke-linecap:square;stroke-width:1.5;"/>
   </g>
   <g id="line2d_36">
    <path clip-path="url(#pb55df61e53)" d="M 300.056575 197.701762 
L 299.084661 197.568135 
L 297.306818 196.759879 
L 296.45123 196.029042 
L 284.670317 182.339299 
L 284.663046 179.136717 
L 284.666089 172.87156 
L 310.736695 172.870377 
L 312.707607 173.268297 
L 314.369892 174.399473 
L 315.000873 175.188549 
L 315.738757 177.058919 
L 315.816487 178.06626 
L 315.374272 180.027689 
L 303.661424 196.39887 
L 301.986578 197.403292 
L 300.056575 197.701762 
" style="fill:none;stroke:#ff0000;stroke-linecap:square;stroke-width:1.5;"/>
   </g>
   <g id="line2d_37">
    <path clip-path="url(#pb55df61e53)" d="M 327.967476 227.462008 
L 326.995562 227.32838 
L 325.21772 226.520124 
L 324.362131 225.789288 
L 312.581218 212.099544 
L 312.573947 208.896962 
L 312.57699 202.631806 
L 338.647596 202.630622 
L 340.618508 203.028542 
L 342.280793 204.159718 
L 342.911774 204.948794 
L 343.649658 206.819164 
L 343.727388 207.826505 
L 343.285173 209.787934 
L 331.572325 226.159115 
L 329.89748 227.163537 
L 327.967476 227.462008 
" style="fill:none;stroke:#ff0000;stroke-linecap:square;stroke-width:1.5;"/>
   </g>
   <g id="line2d_38">
    <path clip-path="url(#pb55df61e53)" d="M 267.527361 169.095974 
L 266.555447 168.962346 
L 264.777604 168.15409 
L 263.922016 167.423254 
L 252.141103 153.73351 
L 252.133832 150.530928 
L 252.136875 144.265772 
L 278.207481 144.264588 
L 280.178393 144.662508 
L 281.840678 145.793684 
L 282.471659 146.58276 
L 283.209543 148.453131 
L 283.287273 149.460471 
L 282.845058 151.4219 
L 271.13221 167.793081 
L 269.457364 168.797503 
L 267.527361 169.095974 
" style="fill:none;stroke:#ff0000;stroke-linecap:square;stroke-width:1.5;"/>
   </g>
   <g id="line2d_39">
    <path clip-path="url(#pb55df61e53)" d="M 268.723531 193.981765 
L 267.751616 193.848137 
L 265.973774 193.039881 
L 265.118186 192.309045 
L 253.337273 178.619301 
L 253.330002 175.416719 
L 253.333045 169.151563 
L 279.403651 169.150379 
L 281.374563 169.548299 
L 283.036848 170.679475 
L 283.667829 171.468551 
L 284.405713 173.338922 
L 284.483443 174.346262 
L 284.041228 176.307691 
L 272.32838 192.678872 
L 270.653534 193.683294 
L 268.723531 193.981765 
" style="fill:none;stroke:#ff0000;stroke-linecap:square;stroke-width:1.5;"/>
   </g>
   <g id="line2d_40">
    <path clip-path="url(#pb55df61e53)" d="M 296.610997 222.556106 
L 295.639083 222.422478 
L 293.861241 221.614222 
L 293.005653 220.883386 
L 281.224739 207.193642 
L 281.217468 203.99106 
L 281.220512 197.725904 
L 307.291117 197.72472 
L 309.262029 198.12264 
L 310.924314 199.253816 
L 311.555296 200.042892 
L 312.29318 201.913262 
L 312.370909 202.920603 
L 311.928694 204.882032 
L 300.215846 221.253213 
L 298.541001 222.257635 
L 296.610997 222.556106 
" style="fill:none;stroke:#ff0000;stroke-linecap:square;stroke-width:1.5;"/>
   </g>
   <g id="line2d_41">
    <path clip-path="url(#pb55df61e53)" d="M 243.550909 169.658182 
L 226.641818 144.294545 
L 252.005455 144.294545 
L 243.550909 169.658182 
" style="fill:none;stroke:#ff0000;stroke-linecap:square;stroke-width:1.5;"/>
   </g>
   <g id="line2d_42">
    <path clip-path="url(#pb55df61e53)" d="M 273.868959 219.360228 
L 256.959868 193.996592 
L 282.323505 193.996592 
L 273.868959 219.360228 
" style="fill:none;stroke:#ff0000;stroke-linecap:square;stroke-width:1.5;"/>
   </g>
   <g id="line2d_43">
    <path clip-path="url(#pb55df61e53)" d="M 236.500175 191.683278 
L 244.954721 166.319641 
L 261.863812 191.683278 
L 236.500175 191.683278 
" style="fill:none;stroke:#ff0000;stroke-linecap:square;stroke-width:1.5;"/>
   </g>
   <g id="line2d_44">
    <path clip-path="url(#pb55df61e53)" d="M 181.775599 141.007742 
L 181.775599 115.644105 
L 207.139235 124.098651 
L 181.775599 141.007742 
" style="fill:none;stroke:#ff0000;stroke-linecap:square;stroke-width:1.5;"/>
   </g>
   <g id="line2d_45">
    <path clip-path="url(#pb55df61e53)" d="M 206.804838 169.658182 
L 206.804838 144.294545 
L 232.168474 152.749091 
L 206.804838 169.658182 
" style="fill:none;stroke:#ff0000;stroke-linecap:square;stroke-width:1.5;"/>
   </g>
   <g id="patch_33">
    <path d="M 54 252 
L 54 34.56 
" style="fill:none;stroke:#000000;stroke-linecap:square;stroke-linejoin:miter;stroke-width:0.8;"/>
   </g>
   <g id="patch_34">
    <path d="M 388.8 252 
L 388.8 34.56 
" style="fill:none;stroke:#000000;stroke-linecap:square;stroke-linejoin:miter;stroke-width:0.8;"/>
   </g>
   <g id="patch_35">
    <path d="M 54 252 
L 388.8 252 
" style="fill:none;stroke:#000000;stroke-linecap:square;stroke-linejoin:miter;stroke-width:0.8;"/>
   </g>
   <g id="patch_36">
    <path d="M 54 34.56 
L 388.8 34.56 
" style="fill:none;stroke:#000000;stroke-linecap:square;stroke-linejoin:miter;stroke-width:0.8;"/>
   </g>
  </g>
 </g>
 <defs>
  <clipPath id="pb55df61e53">
   <rect height="217.44" width="334.8" x="54" y="34.56"/>
  </clipPath>
 </defs>
</svg>
