<?xml version="1.0" encoding="utf-8" standalone="no"?>
<!DOCTYPE svg PUBLIC "-//W3C//DTD SVG 1.1//EN"
  "http://www.w3.org/Graphics/SVG/1.1/DTD/svg11.dtd">
<!-- Created with matplotlib (https://matplotlib.org/) -->
<svg height="288pt" version="1.1" viewBox="0 0 432 288" width="432pt" xmlns="http://www.w3.org/2000/svg" xmlns:xlink="http://www.w3.org/1999/xlink">
 <defs>
  <style type="text/css">
*{stroke-linecap:butt;stroke-linejoin:round;}
  </style>
 </defs>
 <g id="figure_1">
  <g id="patch_1">
   <path d="M 0 288 
L 432 288 
L 432 0 
L 0 0 
z
" style="fill:#ffffff;"/>
  </g>
  <g id="axes_1">
   <g id="patch_2">
    <path d="M 54 252 
L 388.8 252 
L 388.8 34.56 
L 54 34.56 
z
" style="fill:#ffffff;"/>
   </g>
   <g id="patch_3">
    <path clip-path="url(#pcf45bfed1f)" d="M 69.218182 172.860638 
L 69.218182 227.825455 
L 174.907336 227.825455 
z
" style="fill:#aaaaaa;"/>
   </g>
   <g id="patch_4">
    <path clip-path="url(#pcf45bfed1f)" d="M 105.040687 136.800432 
L 107.85789 170.606875 
L 145.608419 168.916553 
L 140.537452 132.292906 
z
" style="fill:#aaaaaa;"/>
   </g>
   <g id="patch_5">
    <path clip-path="url(#pcf45bfed1f)" d="M 89.827787 58.734545 
L 88.700906 58.734545 
L 97.152516 91.725174 
L 207.412119 122.702872 
L 206.460017 144.125161 
L 276.890108 144.125161 
L 292.666448 58.734545 
L 117.436383 58.734545 
z
" style="fill:#aaaaaa;"/>
   </g>
   <g id="patch_6">
    <path clip-path="url(#pcf45bfed1f)" d="M 97.277296 162.996851 
L 69.390316 163.014943 
L 69.387273 172.532733 
L 102.546845 172.528505 
L 102.545662 116.913491 
L 69.390316 116.910447 
L 69.390316 124.926709 
L 97.277296 124.927893 
z
" style="fill:#f6929c;"/>
   </g>
   <g id="patch_7">
    <path clip-path="url(#pcf45bfed1f)" d="M 146.408291 169.03206 
L 118.816163 173.076621 
L 120.187445 182.495109 
L 152.998913 177.702947 
L 144.967375 122.670917 
L 112.15904 127.455275 
L 113.316524 135.38753 
L 140.911435 131.362043 
z
" style="fill:#f6929c;"/>
   </g>
   <g id="patch_8">
    <path clip-path="url(#pcf45bfed1f)" d="M 146.993698 200.525087 
L 125.464156 182.800449 
L 119.407648 190.142589 
L 144.996786 211.231764 
L 180.371967 168.317589 
L 154.790715 147.225493 
L 149.69166 153.410967 
L 171.208941 171.150479 
z
" style="fill:#f6929c;"/>
   </g>
   <g id="patch_9">
    <path clip-path="url(#pcf45bfed1f)" d="M 69.387273 116.732727 
L 69.387273 91.369091 
L 94.750909 91.369091 
L 94.750909 116.732727 
z
" style="fill:#f6929c;"/>
   </g>
   <g id="patch_10">
    <path clip-path="url(#pcf45bfed1f)" d="M 69.387273 162.741749 
L 69.387273 137.378113 
L 94.750909 137.378113 
L 94.750909 162.741749 
z
" style="fill:#f6929c;"/>
   </g>
   <g id="patch_11">
    <path clip-path="url(#pcf45bfed1f)" d="M 171.459241 139.217711 
L 147.064947 132.272751 
L 154.009907 107.878457 
L 178.404201 114.823417 
z
" style="fill:#f6929c;"/>
   </g>
   <g id="patch_12">
    <path clip-path="url(#pcf45bfed1f)" d="M 172.308589 225.801389 
L 149.877265 213.962902 
L 161.715751 191.531578 
L 184.147075 203.370065 
z
" style="fill:#f6929c;"/>
   </g>
   <g id="patch_13">
    <path clip-path="url(#pcf45bfed1f)" d="M 181.42561 168.140413 
L 161.475019 152.478741 
L 177.136691 132.52815 
L 197.087282 148.189822 
z
" style="fill:#f6929c;"/>
   </g>
   <g id="patch_14">
    <path clip-path="url(#pcf45bfed1f)" d="M 186.548004 204.854943 
L 165.847431 190.198875 
L 180.503498 169.498302 
L 201.204072 184.15437 
z
" style="fill:#f6929c;"/>
   </g>
   <g id="patch_15">
    <path clip-path="url(#pcf45bfed1f)" d="M 201.773308 227.656364 
L 181.072735 213.000296 
L 195.728803 192.299723 
L 216.429376 206.95579 
z
" style="fill:#f6929c;"/>
   </g>
   <g id="patch_16">
    <path clip-path="url(#pcf45bfed1f)" d="M 117.914882 124.234223 
L 116.288673 123.770955 
L 96.073917 99.67451 
L 95.281907 98.2322 
L 95.100578 96.596762 
L 95.557404 95.015986 
L 96.583172 93.729386 
L 98.022462 92.931899 
L 99.657199 92.744355 
L 124.863897 99.841084 
z
" style="fill:#f6929c;"/>
   </g>
   <g id="patch_17">
    <path clip-path="url(#pcf45bfed1f)" d="M 201.770544 147.896943 
L 200.117808 147.539679 
L 178.388877 124.799218 
L 177.505362 123.411075 
L 177.218779 121.790764 
L 177.57255 120.183783 
L 178.513074 118.833615 
L 179.89785 117.94483 
L 181.517059 117.65209 
L 207.1295 123.105903 
z
" style="fill:#f6929c;"/>
   </g>
   <g id="patch_18">
    <path clip-path="url(#pcf45bfed1f)" d="M 211.313391 190.731302 
L 209.628957 190.583465 
L 185.227516 170.737944 
L 184.177389 169.471148 
L 183.690485 167.899378 
L 183.840577 166.260776 
L 184.604926 164.803618 
L 185.867722 163.748683 
L 187.43763 163.255808 
L 213.530954 165.464794 
z
" style="fill:#f6929c;"/>
   </g>
   <g id="patch_19">
    <path clip-path="url(#pcf45bfed1f)" d="M 226.545896 169.032144 
L 196.459053 159.863889 
L 195.008478 159.087119 
L 193.964369 157.815359 
L 193.484923 156.241296 
L 193.642785 154.603426 
L 194.414036 153.149908 
L 195.681818 152.100973 
L 220.679068 144.298492 
L 228.161551 168.533312 
z
" style="fill:#f6929c;"/>
   </g>
   <g id="patch_20">
    <path clip-path="url(#pcf45bfed1f)" d="M 203.875863 227.656364 
L 203.875863 225.965455 
L 221.51195 199.922347 
L 222.682082 198.765484 
L 224.205263 198.143023 
L 225.850712 198.149276 
L 227.369117 198.783298 
L 228.53042 199.949024 
L 229.158666 201.469828 
L 229.2395 227.656364 
z
" style="fill:#f6929c;"/>
   </g>
   <g id="patch_21">
    <path clip-path="url(#pcf45bfed1f)" d="M 234.727866 197.895238 
L 209.367315 197.499608 
L 209.393691 195.808904 
L 227.433862 170.044059 
L 228.621896 168.905589 
L 230.154601 168.306963 
L 231.799752 168.338881 
L 233.308084 168.99651 
L 234.451062 170.180209 
L 235.055509 171.710627 
z
" style="fill:#f6929c;"/>
   </g>
   <g id="patch_22">
    <path clip-path="url(#pcf45bfed1f)" d="M 241.524296 178.872609 
L 240.001176 178.138251 
L 224.201641 150.94175 
L 223.667759 149.385309 
L 223.768578 147.742941 
L 224.488825 146.263486 
L 225.719372 145.171106 
L 227.273773 144.631311 
L 228.916512 144.725888 
L 252.539654 156.025816 
z
" style="fill:#f6929c;"/>
   </g>
   <g id="patch_23">
    <path clip-path="url(#pcf45bfed1f)" d="M 69.551476 90.198361 
L 69.849896 59.716524 
L 90.814973 73.991663 
z
" style="fill:#f6929c;"/>
   </g>
   <g id="patch_24">
    <path clip-path="url(#pcf45bfed1f)" d="M 124.98088 125.33856 
L 125.189015 99.975777 
L 150.482419 108.638173 
z
" style="fill:#f6929c;"/>
   </g>
   <g id="patch_25">
    <path clip-path="url(#pcf45bfed1f)" d="M 229.88603 227.638006 
L 235.020742 197.590275 
L 253.45315 215.013258 
z
" style="fill:#f6929c;"/>
   </g>
   <g id="patch_26">
    <path clip-path="url(#pcf45bfed1f)" d="M 237.008249 198.864112 
L 246.820046 170.003064 
L 262.272249 190.11633 
z
" style="fill:#f6929c;"/>
   </g>
   <g id="patch_27">
    <path clip-path="url(#pcf45bfed1f)" d="M 259.98322 219.486821 
L 237.345501 199.071997 
L 261.927019 192.821956 
z
" style="fill:#f6929c;"/>
   </g>
   <g id="patch_28">
    <path clip-path="url(#pcf45bfed1f)" d="M 119.922151 198.905257 
L 93.046738 184.519722 
L 115.409991 172.553145 
z
" style="fill:#f6929c;"/>
   </g>
   <g id="patch_29">
    <path clip-path="url(#pcf45bfed1f)" d="M 261.846858 169.658182 
L 244.937767 144.294545 
L 270.301404 144.294545 
z
" style="fill:#f6929c;"/>
   </g>
   <g id="patch_30">
    <path clip-path="url(#pcf45bfed1f)" d="M 269.232756 191.49009 
L 262.472732 191.32057 
L 259.025931 185.49695 
L 255.792547 179.557673 
L 259.112642 173.660778 
L 262.639641 167.891143 
L 269.406416 167.817987 
L 276.16644 167.987506 
L 279.613241 173.811127 
L 282.846625 179.750404 
L 279.52653 185.647299 
L 275.999532 191.416934 
z
" style="fill:#f6929c;"/>
   </g>
   <g id="patch_31">
    <path clip-path="url(#pcf45bfed1f)" d="M 272.847484 227.656364 
L 266.927087 224.378361 
L 261.132473 220.892553 
L 261.011114 214.126471 
L 261.132473 207.36541 
L 266.931392 203.877211 
L 272.847484 200.601599 
L 278.767881 203.879602 
L 284.562495 207.36541 
L 284.683854 214.131492 
L 284.562495 220.892553 
L 278.763577 224.380752 
z
" style="fill:#f6929c;"/>
   </g>
   <g id="patch_32">
    <path clip-path="url(#pcf45bfed1f)" d="M 280.110099 167.868601 
L 273.349039 167.747242 
L 269.86084 161.948323 
L 266.585228 156.032231 
L 269.863231 150.111834 
L 273.349039 144.31722 
L 280.115121 144.195861 
L 286.876182 144.31722 
L 290.364381 150.116139 
L 293.639992 156.032231 
L 290.361989 161.952628 
L 286.876182 167.747242 
z
" style="fill:#f6929c;"/>
   </g>
   <g id="patch_33">
    <path clip-path="url(#pcf45bfed1f)" d="M 293.978885 206.264627 
L 287.252122 205.52621 
L 280.561147 204.547675 
L 277.837197 198.352913 
L 275.338986 192.068907 
L 279.341932 186.612459 
L 283.535036 181.307152 
L 290.261799 182.04557 
L 296.952774 183.024104 
L 299.676724 189.218866 
L 302.174935 195.502872 
L 298.171989 200.95932 
z
" style="fill:#f6929c;"/>
   </g>
   <g id="patch_34">
    <path clip-path="url(#pcf45bfed1f)" d="M 288.953481 145.166946 
L 283.756552 140.832603 
L 278.722199 136.317966 
L 279.87734 129.650085 
L 281.269924 123.032646 
L 287.622164 120.699096 
L 294.049294 118.596621 
L 299.246223 122.930963 
L 304.280576 127.445601 
L 303.125434 134.113482 
L 301.732851 140.73092 
L 295.380611 143.064471 
z
" style="fill:#f6929c;"/>
   </g>
   <g id="patch_35">
    <path clip-path="url(#pcf45bfed1f)" d="M 294.566806 117.219715 
L 289.242835 113.042403 
L 284.075987 108.680025 
L 285.031614 101.980639 
L 286.226083 95.324587 
L 292.505849 92.802497 
L 298.867369 90.509143 
L 304.19134 94.686455 
L 309.358188 99.048834 
L 308.40256 105.748219 
L 307.208092 112.404271 
L 300.928326 114.926361 
z
" style="fill:#f6929c;"/>
   </g>
   <g id="patch_36">
    <path clip-path="url(#pcf45bfed1f)" d="M 303.384199 183.96165 
L 296.745541 182.64909 
L 290.163131 181.100366 
L 287.980456 174.694828 
L 286.030342 168.219735 
L 290.486467 163.126666 
L 295.119089 158.200488 
L 301.757747 159.513049 
L 308.340157 161.061773 
L 310.522833 167.46731 
L 312.472946 173.942404 
L 308.016821 179.035473 
z
" style="fill:#f6929c;"/>
   </g>
   <g id="matplotlib.axis_1">
    <g id="xtick_1">
     <g id="line2d_1">
      <defs>
       <path d="M 0 0 
L 0 3.5 
" id="m9fc773b7a2" style="stroke:#000000;stroke-width:0.8;"/>
      </defs>
      <g>
       <use style="stroke:#000000;stroke-width:0.8;" x="69.218182" xlink:href="#m9fc773b7a2" y="252"/>
      </g>
     </g>
     <g id="text_1">
      <!-- 0 -->
      <defs>
       <path d="M 31.78125 66.40625 
Q 24.171875 66.40625 20.328125 58.90625 
Q 16.5 51.421875 16.5 36.375 
Q 16.5 21.390625 20.328125 13.890625 
Q 24.171875 6.390625 31.78125 6.390625 
Q 39.453125 6.390625 43.28125 13.890625 
Q 47.125 21.390625 47.125 36.375 
Q 47.125 51.421875 43.28125 58.90625 
Q 39.453125 66.40625 31.78125 66.40625 
z
M 31.78125 74.21875 
Q 44.046875 74.21875 50.515625 64.515625 
Q 56.984375 54.828125 56.984375 36.375 
Q 56.984375 17.96875 50.515625 8.265625 
Q 44.046875 -1.421875 31.78125 -1.421875 
Q 19.53125 -1.421875 13.0625 8.265625 
Q 6.59375 17.96875 6.59375 36.375 
Q 6.59375 54.828125 13.0625 64.515625 
Q 19.53125 74.21875 31.78125 74.21875 
z
" id="DejaVuSans-48"/>
      </defs>
      <g transform="translate(66.036932 266.598437)scale(0.1 -0.1)">
       <use xlink:href="#DejaVuSans-48"/>
      </g>
     </g>
    </g>
    <g id="xtick_2">
     <g id="line2d_2">
      <g>
       <use style="stroke:#000000;stroke-width:0.8;" x="111.490909" xlink:href="#m9fc773b7a2" y="252"/>
      </g>
     </g>
     <g id="text_2">
      <!-- 250 -->
      <defs>
       <path d="M 19.1875 8.296875 
L 53.609375 8.296875 
L 53.609375 0 
L 7.328125 0 
L 7.328125 8.296875 
Q 12.9375 14.109375 22.625 23.890625 
Q 32.328125 33.6875 34.8125 36.53125 
Q 39.546875 41.84375 41.421875 45.53125 
Q 43.3125 49.21875 43.3125 52.78125 
Q 43.3125 58.59375 39.234375 62.25 
Q 35.15625 65.921875 28.609375 65.921875 
Q 23.96875 65.921875 18.8125 64.3125 
Q 13.671875 62.703125 7.8125 59.421875 
L 7.8125 69.390625 
Q 13.765625 71.78125 18.9375 73 
Q 24.125 74.21875 28.421875 74.21875 
Q 39.75 74.21875 46.484375 68.546875 
Q 53.21875 62.890625 53.21875 53.421875 
Q 53.21875 48.921875 51.53125 44.890625 
Q 49.859375 40.875 45.40625 35.40625 
Q 44.1875 33.984375 37.640625 27.21875 
Q 31.109375 20.453125 19.1875 8.296875 
z
" id="DejaVuSans-50"/>
       <path d="M 10.796875 72.90625 
L 49.515625 72.90625 
L 49.515625 64.59375 
L 19.828125 64.59375 
L 19.828125 46.734375 
Q 21.96875 47.46875 24.109375 47.828125 
Q 26.265625 48.1875 28.421875 48.1875 
Q 40.625 48.1875 47.75 41.5 
Q 54.890625 34.8125 54.890625 23.390625 
Q 54.890625 11.625 47.5625 5.09375 
Q 40.234375 -1.421875 26.90625 -1.421875 
Q 22.3125 -1.421875 17.546875 -0.640625 
Q 12.796875 0.140625 7.71875 1.703125 
L 7.71875 11.625 
Q 12.109375 9.234375 16.796875 8.0625 
Q 21.484375 6.890625 26.703125 6.890625 
Q 35.15625 6.890625 40.078125 11.328125 
Q 45.015625 15.765625 45.015625 23.390625 
Q 45.015625 31 40.078125 35.4375 
Q 35.15625 39.890625 26.703125 39.890625 
Q 22.75 39.890625 18.8125 39.015625 
Q 14.890625 38.140625 10.796875 36.28125 
z
" id="DejaVuSans-53"/>
      </defs>
      <g transform="translate(101.947159 266.598437)scale(0.1 -0.1)">
       <use xlink:href="#DejaVuSans-50"/>
       <use x="63.623047" xlink:href="#DejaVuSans-53"/>
       <use x="127.246094" xlink:href="#DejaVuSans-48"/>
      </g>
     </g>
    </g>
    <g id="xtick_3">
     <g id="line2d_3">
      <g>
       <use style="stroke:#000000;stroke-width:0.8;" x="153.763636" xlink:href="#m9fc773b7a2" y="252"/>
      </g>
     </g>
     <g id="text_3">
      <!-- 500 -->
      <g transform="translate(144.219886 266.598437)scale(0.1 -0.1)">
       <use xlink:href="#DejaVuSans-53"/>
       <use x="63.623047" xlink:href="#DejaVuSans-48"/>
       <use x="127.246094" xlink:href="#DejaVuSans-48"/>
      </g>
     </g>
    </g>
    <g id="xtick_4">
     <g id="line2d_4">
      <g>
       <use style="stroke:#000000;stroke-width:0.8;" x="196.036364" xlink:href="#m9fc773b7a2" y="252"/>
      </g>
     </g>
     <g id="text_4">
      <!-- 750 -->
      <defs>
       <path d="M 8.203125 72.90625 
L 55.078125 72.90625 
L 55.078125 68.703125 
L 28.609375 0 
L 18.3125 0 
L 43.21875 64.59375 
L 8.203125 64.59375 
z
" id="DejaVuSans-55"/>
      </defs>
      <g transform="translate(186.492614 266.598437)scale(0.1 -0.1)">
       <use xlink:href="#DejaVuSans-55"/>
       <use x="63.623047" xlink:href="#DejaVuSans-53"/>
       <use x="127.246094" xlink:href="#DejaVuSans-48"/>
      </g>
     </g>
    </g>
    <g id="xtick_5">
     <g id="line2d_5">
      <g>
       <use style="stroke:#000000;stroke-width:0.8;" x="238.309091" xlink:href="#m9fc773b7a2" y="252"/>
      </g>
     </g>
     <g id="text_5">
      <!-- 1000 -->
      <defs>
       <path d="M 12.40625 8.296875 
L 28.515625 8.296875 
L 28.515625 63.921875 
L 10.984375 60.40625 
L 10.984375 69.390625 
L 28.421875 72.90625 
L 38.28125 72.90625 
L 38.28125 8.296875 
L 54.390625 8.296875 
L 54.390625 0 
L 12.40625 0 
z
" id="DejaVuSans-49"/>
      </defs>
      <g transform="translate(225.584091 266.598437)scale(0.1 -0.1)">
       <use xlink:href="#DejaVuSans-49"/>
       <use x="63.623047" xlink:href="#DejaVuSans-48"/>
       <use x="127.246094" xlink:href="#DejaVuSans-48"/>
       <use x="190.869141" xlink:href="#DejaVuSans-48"/>
      </g>
     </g>
    </g>
    <g id="xtick_6">
     <g id="line2d_6">
      <g>
       <use style="stroke:#000000;stroke-width:0.8;" x="280.581818" xlink:href="#m9fc773b7a2" y="252"/>
      </g>
     </g>
     <g id="text_6">
      <!-- 1250 -->
      <g transform="translate(267.856818 266.598437)scale(0.1 -0.1)">
       <use xlink:href="#DejaVuSans-49"/>
       <use x="63.623047" xlink:href="#DejaVuSans-50"/>
       <use x="127.246094" xlink:href="#DejaVuSans-53"/>
       <use x="190.869141" xlink:href="#DejaVuSans-48"/>
      </g>
     </g>
    </g>
    <g id="xtick_7">
     <g id="line2d_7">
      <g>
       <use style="stroke:#000000;stroke-width:0.8;" x="322.854545" xlink:href="#m9fc773b7a2" y="252"/>
      </g>
     </g>
     <g id="text_7">
      <!-- 1500 -->
      <g transform="translate(310.129545 266.598437)scale(0.1 -0.1)">
       <use xlink:href="#DejaVuSans-49"/>
       <use x="63.623047" xlink:href="#DejaVuSans-53"/>
       <use x="127.246094" xlink:href="#DejaVuSans-48"/>
       <use x="190.869141" xlink:href="#DejaVuSans-48"/>
      </g>
     </g>
    </g>
    <g id="xtick_8">
     <g id="line2d_8">
      <g>
       <use style="stroke:#000000;stroke-width:0.8;" x="365.127273" xlink:href="#m9fc773b7a2" y="252"/>
      </g>
     </g>
     <g id="text_8">
      <!-- 1750 -->
      <g transform="translate(352.402273 266.598437)scale(0.1 -0.1)">
       <use xlink:href="#DejaVuSans-49"/>
       <use x="63.623047" xlink:href="#DejaVuSans-55"/>
       <use x="127.246094" xlink:href="#DejaVuSans-53"/>
       <use x="190.869141" xlink:href="#DejaVuSans-48"/>
      </g>
     </g>
    </g>
   </g>
   <g id="matplotlib.axis_2">
    <g id="ytick_1">
     <g id="line2d_9">
      <defs>
       <path d="M 0 0 
L -3.5 0 
" id="m219db3186a" style="stroke:#000000;stroke-width:0.8;"/>
      </defs>
      <g>
       <use style="stroke:#000000;stroke-width:0.8;" x="54" xlink:href="#m219db3186a" y="227.825455"/>
      </g>
     </g>
     <g id="text_9">
      <!-- 0 -->
      <g transform="translate(40.6375 231.624673)scale(0.1 -0.1)">
       <use xlink:href="#DejaVuSans-48"/>
      </g>
     </g>
    </g>
    <g id="ytick_2">
     <g id="line2d_10">
      <g>
       <use style="stroke:#000000;stroke-width:0.8;" x="54" xlink:href="#m219db3186a" y="194.007273"/>
      </g>
     </g>
     <g id="text_10">
      <!-- 200 -->
      <g transform="translate(27.9125 197.806491)scale(0.1 -0.1)">
       <use xlink:href="#DejaVuSans-50"/>
       <use x="63.623047" xlink:href="#DejaVuSans-48"/>
       <use x="127.246094" xlink:href="#DejaVuSans-48"/>
      </g>
     </g>
    </g>
    <g id="ytick_3">
     <g id="line2d_11">
      <g>
       <use style="stroke:#000000;stroke-width:0.8;" x="54" xlink:href="#m219db3186a" y="160.189091"/>
      </g>
     </g>
     <g id="text_11">
      <!-- 400 -->
      <defs>
       <path d="M 37.796875 64.3125 
L 12.890625 25.390625 
L 37.796875 25.390625 
z
M 35.203125 72.90625 
L 47.609375 72.90625 
L 47.609375 25.390625 
L 58.015625 25.390625 
L 58.015625 17.1875 
L 47.609375 17.1875 
L 47.609375 0 
L 37.796875 0 
L 37.796875 17.1875 
L 4.890625 17.1875 
L 4.890625 26.703125 
z
" id="DejaVuSans-52"/>
      </defs>
      <g transform="translate(27.9125 163.98831)scale(0.1 -0.1)">
       <use xlink:href="#DejaVuSans-52"/>
       <use x="63.623047" xlink:href="#DejaVuSans-48"/>
       <use x="127.246094" xlink:href="#DejaVuSans-48"/>
      </g>
     </g>
    </g>
    <g id="ytick_4">
     <g id="line2d_12">
      <g>
       <use style="stroke:#000000;stroke-width:0.8;" x="54" xlink:href="#m219db3186a" y="126.370909"/>
      </g>
     </g>
     <g id="text_12">
      <!-- 600 -->
      <defs>
       <path d="M 33.015625 40.375 
Q 26.375 40.375 22.484375 35.828125 
Q 18.609375 31.296875 18.609375 23.390625 
Q 18.609375 15.53125 22.484375 10.953125 
Q 26.375 6.390625 33.015625 6.390625 
Q 39.65625 6.390625 43.53125 10.953125 
Q 47.40625 15.53125 47.40625 23.390625 
Q 47.40625 31.296875 43.53125 35.828125 
Q 39.65625 40.375 33.015625 40.375 
z
M 52.59375 71.296875 
L 52.59375 62.3125 
Q 48.875 64.0625 45.09375 64.984375 
Q 41.3125 65.921875 37.59375 65.921875 
Q 27.828125 65.921875 22.671875 59.328125 
Q 17.53125 52.734375 16.796875 39.40625 
Q 19.671875 43.65625 24.015625 45.921875 
Q 28.375 48.1875 33.59375 48.1875 
Q 44.578125 48.1875 50.953125 41.515625 
Q 57.328125 34.859375 57.328125 23.390625 
Q 57.328125 12.15625 50.6875 5.359375 
Q 44.046875 -1.421875 33.015625 -1.421875 
Q 20.359375 -1.421875 13.671875 8.265625 
Q 6.984375 17.96875 6.984375 36.375 
Q 6.984375 53.65625 15.1875 63.9375 
Q 23.390625 74.21875 37.203125 74.21875 
Q 40.921875 74.21875 44.703125 73.484375 
Q 48.484375 72.75 52.59375 71.296875 
z
" id="DejaVuSans-54"/>
      </defs>
      <g transform="translate(27.9125 130.170128)scale(0.1 -0.1)">
       <use xlink:href="#DejaVuSans-54"/>
       <use x="63.623047" xlink:href="#DejaVuSans-48"/>
       <use x="127.246094" xlink:href="#DejaVuSans-48"/>
      </g>
     </g>
    </g>
    <g id="ytick_5">
     <g id="line2d_13">
      <g>
       <use style="stroke:#000000;stroke-width:0.8;" x="54" xlink:href="#m219db3186a" y="92.552727"/>
      </g>
     </g>
     <g id="text_13">
      <!-- 800 -->
      <defs>
       <path d="M 31.78125 34.625 
Q 24.75 34.625 20.71875 30.859375 
Q 16.703125 27.09375 16.703125 20.515625 
Q 16.703125 13.921875 20.71875 10.15625 
Q 24.75 6.390625 31.78125 6.390625 
Q 38.8125 6.390625 42.859375 10.171875 
Q 46.921875 13.96875 46.921875 20.515625 
Q 46.921875 27.09375 42.890625 30.859375 
Q 38.875 34.625 31.78125 34.625 
z
M 21.921875 38.8125 
Q 15.578125 40.375 12.03125 44.71875 
Q 8.5 49.078125 8.5 55.328125 
Q 8.5 64.0625 14.71875 69.140625 
Q 20.953125 74.21875 31.78125 74.21875 
Q 42.671875 74.21875 48.875 69.140625 
Q 55.078125 64.0625 55.078125 55.328125 
Q 55.078125 49.078125 51.53125 44.71875 
Q 48 40.375 41.703125 38.8125 
Q 48.828125 37.15625 52.796875 32.3125 
Q 56.78125 27.484375 56.78125 20.515625 
Q 56.78125 9.90625 50.3125 4.234375 
Q 43.84375 -1.421875 31.78125 -1.421875 
Q 19.734375 -1.421875 13.25 4.234375 
Q 6.78125 9.90625 6.78125 20.515625 
Q 6.78125 27.484375 10.78125 32.3125 
Q 14.796875 37.15625 21.921875 38.8125 
z
M 18.3125 54.390625 
Q 18.3125 48.734375 21.84375 45.5625 
Q 25.390625 42.390625 31.78125 42.390625 
Q 38.140625 42.390625 41.71875 45.5625 
Q 45.3125 48.734375 45.3125 54.390625 
Q 45.3125 60.0625 41.71875 63.234375 
Q 38.140625 66.40625 31.78125 66.40625 
Q 25.390625 66.40625 21.84375 63.234375 
Q 18.3125 60.0625 18.3125 54.390625 
z
" id="DejaVuSans-56"/>
      </defs>
      <g transform="translate(27.9125 96.351946)scale(0.1 -0.1)">
       <use xlink:href="#DejaVuSans-56"/>
       <use x="63.623047" xlink:href="#DejaVuSans-48"/>
       <use x="127.246094" xlink:href="#DejaVuSans-48"/>
      </g>
     </g>
    </g>
    <g id="ytick_6">
     <g id="line2d_14">
      <g>
       <use style="stroke:#000000;stroke-width:0.8;" x="54" xlink:href="#m219db3186a" y="58.734545"/>
      </g>
     </g>
     <g id="text_14">
      <!-- 1000 -->
      <g transform="translate(21.55 62.533764)scale(0.1 -0.1)">
       <use xlink:href="#DejaVuSans-49"/>
       <use x="63.623047" xlink:href="#DejaVuSans-48"/>
       <use x="127.246094" xlink:href="#DejaVuSans-48"/>
       <use x="190.869141" xlink:href="#DejaVuSans-48"/>
      </g>
     </g>
    </g>
   </g>
   <g id="line2d_15">
    <path clip-path="url(#pcf45bfed1f)" d="M 69.218182 227.825455 
L 373.581818 227.825455 
L 373.581818 58.734545 
L 69.218182 58.734545 
L 69.218182 227.825455 
" style="fill:none;stroke:#000000;stroke-linecap:square;stroke-width:1.5;"/>
   </g>
   <g id="line2d_16">
    <path clip-path="url(#pcf45bfed1f)" d="M 69.218182 172.860638 
L 69.218182 227.825455 
L 174.907336 227.825455 
L 69.218182 172.860638 
" style="fill:none;stroke:#000000;stroke-dasharray:5.55,2.4;stroke-dashoffset:0;stroke-width:1.5;"/>
   </g>
   <g id="line2d_17">
    <path clip-path="url(#pcf45bfed1f)" d="M 105.040687 136.800432 
L 107.85789 170.606875 
L 145.608419 168.916553 
L 140.537452 132.292906 
L 105.040687 136.800432 
" style="fill:none;stroke:#000000;stroke-dasharray:5.55,2.4;stroke-dashoffset:0;stroke-width:1.5;"/>
   </g>
   <g id="line2d_18">
    <path clip-path="url(#pcf45bfed1f)" d="M 89.827787 58.734545 
L 88.700906 58.734545 
L 97.152516 91.725174 
L 207.412119 122.702872 
L 206.460017 144.125161 
L 276.890108 144.125161 
L 292.666448 58.734545 
L 117.436383 58.734545 
L 89.827787 58.734545 
" style="fill:none;stroke:#000000;stroke-dasharray:5.55,2.4;stroke-dashoffset:0;stroke-width:1.5;"/>
   </g>
   <g id="line2d_19">
    <path clip-path="url(#pcf45bfed1f)" d="M 97.277296 162.996851 
L 69.390316 163.014943 
L 69.387273 172.532733 
L 102.546845 172.528505 
L 102.545662 116.913491 
L 69.390316 116.910447 
L 69.390316 124.926709 
L 97.277296 124.927893 
L 97.277296 162.996851 
" style="fill:none;stroke:#ff0000;stroke-linecap:square;stroke-width:1.5;"/>
   </g>
   <g id="line2d_20">
    <path clip-path="url(#pcf45bfed1f)" d="M 146.408291 169.03206 
L 118.816163 173.076621 
L 120.187445 182.495109 
L 152.998913 177.702947 
L 144.967375 122.670917 
L 112.15904 127.455275 
L 113.316524 135.38753 
L 140.911435 131.362043 
L 146.408291 169.03206 
" style="fill:none;stroke:#ff0000;stroke-linecap:square;stroke-width:1.5;"/>
   </g>
   <g id="line2d_21">
    <path clip-path="url(#pcf45bfed1f)" d="M 146.993698 200.525087 
L 125.464156 182.800449 
L 119.407648 190.142589 
L 144.996786 211.231764 
L 180.371967 168.317589 
L 154.790715 147.225493 
L 149.69166 153.410967 
L 171.208941 171.150479 
L 146.993698 200.525087 
" style="fill:none;stroke:#ff0000;stroke-linecap:square;stroke-width:1.5;"/>
   </g>
   <g id="line2d_22">
    <path clip-path="url(#pcf45bfed1f)" d="M 69.387273 116.732727 
L 69.387273 91.369091 
L 94.750909 91.369091 
L 94.750909 116.732727 
L 69.387273 116.732727 
" style="fill:none;stroke:#ff0000;stroke-linecap:square;stroke-width:1.5;"/>
   </g>
   <g id="line2d_23">
    <path clip-path="url(#pcf45bfed1f)" d="M 69.387273 162.741749 
L 69.387273 137.378113 
L 94.750909 137.378113 
L 94.750909 162.741749 
L 69.387273 162.741749 
" style="fill:none;stroke:#ff0000;stroke-linecap:square;stroke-width:1.5;"/>
   </g>
   <g id="line2d_24">
    <path clip-path="url(#pcf45bfed1f)" d="M 171.459241 139.217711 
L 147.064947 132.272751 
L 154.009907 107.878457 
L 178.404201 114.823417 
L 171.459241 139.217711 
" style="fill:none;stroke:#ff0000;stroke-linecap:square;stroke-width:1.5;"/>
   </g>
   <g id="line2d_25">
    <path clip-path="url(#pcf45bfed1f)" d="M 172.308589 225.801389 
L 149.877265 213.962902 
L 161.715751 191.531578 
L 184.147075 203.370065 
L 172.308589 225.801389 
" style="fill:none;stroke:#ff0000;stroke-linecap:square;stroke-width:1.5;"/>
   </g>
   <g id="line2d_26">
    <path clip-path="url(#pcf45bfed1f)" d="M 181.42561 168.140413 
L 161.475019 152.478741 
L 177.136691 132.52815 
L 197.087282 148.189822 
L 181.42561 168.140413 
" style="fill:none;stroke:#ff0000;stroke-linecap:square;stroke-width:1.5;"/>
   </g>
   <g id="line2d_27">
    <path clip-path="url(#pcf45bfed1f)" d="M 186.548004 204.854943 
L 165.847431 190.198875 
L 180.503498 169.498302 
L 201.204072 184.15437 
L 186.548004 204.854943 
" style="fill:none;stroke:#ff0000;stroke-linecap:square;stroke-width:1.5;"/>
   </g>
   <g id="line2d_28">
    <path clip-path="url(#pcf45bfed1f)" d="M 201.773308 227.656364 
L 181.072735 213.000296 
L 195.728803 192.299723 
L 216.429376 206.95579 
L 201.773308 227.656364 
" style="fill:none;stroke:#ff0000;stroke-linecap:square;stroke-width:1.5;"/>
   </g>
   <g id="line2d_29">
    <path clip-path="url(#pcf45bfed1f)" d="M 117.914882 124.234223 
L 116.288673 123.770955 
L 96.073917 99.67451 
L 95.281907 98.2322 
L 95.100578 96.596762 
L 95.557404 95.015986 
L 96.583172 93.729386 
L 98.022462 92.931899 
L 99.657199 92.744355 
L 124.863897 99.841084 
L 117.914882 124.234223 
" style="fill:none;stroke:#ff0000;stroke-linecap:square;stroke-width:1.5;"/>
   </g>
   <g id="line2d_30">
    <path clip-path="url(#pcf45bfed1f)" d="M 201.770544 147.896943 
L 200.117808 147.539679 
L 178.388877 124.799218 
L 177.505362 123.411075 
L 177.218779 121.790764 
L 177.57255 120.183783 
L 178.513074 118.833615 
L 179.89785 117.94483 
L 181.517059 117.65209 
L 207.1295 123.105903 
L 201.770544 147.896943 
" style="fill:none;stroke:#ff0000;stroke-linecap:square;stroke-width:1.5;"/>
   </g>
   <g id="line2d_31">
    <path clip-path="url(#pcf45bfed1f)" d="M 211.313391 190.731302 
L 209.628957 190.583465 
L 185.227516 170.737944 
L 184.177389 169.471148 
L 183.690485 167.899378 
L 183.840577 166.260776 
L 184.604926 164.803618 
L 185.867722 163.748683 
L 187.43763 163.255808 
L 213.530954 165.464794 
L 211.313391 190.731302 
" style="fill:none;stroke:#ff0000;stroke-linecap:square;stroke-width:1.5;"/>
   </g>
   <g id="line2d_32">
    <path clip-path="url(#pcf45bfed1f)" d="M 226.545896 169.032144 
L 196.459053 159.863889 
L 195.008478 159.087119 
L 193.964369 157.815359 
L 193.484923 156.241296 
L 193.642785 154.603426 
L 194.414036 153.149908 
L 195.681818 152.100973 
L 220.679068 144.298492 
L 228.161551 168.533312 
L 226.545896 169.032144 
" style="fill:none;stroke:#ff0000;stroke-linecap:square;stroke-width:1.5;"/>
   </g>
   <g id="line2d_33">
    <path clip-path="url(#pcf45bfed1f)" d="M 203.875863 227.656364 
L 203.875863 225.965455 
L 221.51195 199.922347 
L 222.682082 198.765484 
L 224.205263 198.143023 
L 225.850712 198.149276 
L 227.369117 198.783298 
L 228.53042 199.949024 
L 229.158666 201.469828 
L 229.2395 227.656364 
L 203.875863 227.656364 
" style="fill:none;stroke:#ff0000;stroke-linecap:square;stroke-width:1.5;"/>
   </g>
   <g id="line2d_34">
    <path clip-path="url(#pcf45bfed1f)" d="M 234.727866 197.895238 
L 209.367315 197.499608 
L 209.393691 195.808904 
L 227.433862 170.044059 
L 228.621896 168.905589 
L 230.154601 168.306963 
L 231.799752 168.338881 
L 233.308084 168.99651 
L 234.451062 170.180209 
L 235.055509 171.710627 
L 234.727866 197.895238 
" style="fill:none;stroke:#ff0000;stroke-linecap:square;stroke-width:1.5;"/>
   </g>
   <g id="line2d_35">
    <path clip-path="url(#pcf45bfed1f)" d="M 241.524296 178.872609 
L 240.001176 178.138251 
L 224.201641 150.94175 
L 223.667759 149.385309 
L 223.768578 147.742941 
L 224.488825 146.263486 
L 225.719372 145.171106 
L 227.273773 144.631311 
L 228.916512 144.725888 
L 252.539654 156.025816 
L 241.524296 178.872609 
" style="fill:none;stroke:#ff0000;stroke-linecap:square;stroke-width:1.5;"/>
   </g>
   <g id="line2d_36">
    <path clip-path="url(#pcf45bfed1f)" d="M 69.551476 90.198361 
L 69.849896 59.716524 
L 90.814973 73.991663 
L 69.551476 90.198361 
" style="fill:none;stroke:#ff0000;stroke-linecap:square;stroke-width:1.5;"/>
   </g>
   <g id="line2d_37">
    <path clip-path="url(#pcf45bfed1f)" d="M 124.98088 125.33856 
L 125.189015 99.975777 
L 150.482419 108.638173 
L 124.98088 125.33856 
" style="fill:none;stroke:#ff0000;stroke-linecap:square;stroke-width:1.5;"/>
   </g>
   <g id="line2d_38">
    <path clip-path="url(#pcf45bfed1f)" d="M 229.88603 227.638006 
L 235.020742 197.590275 
L 253.45315 215.013258 
L 229.88603 227.638006 
" style="fill:none;stroke:#ff0000;stroke-linecap:square;stroke-width:1.5;"/>
   </g>
   <g id="line2d_39">
    <path clip-path="url(#pcf45bfed1f)" d="M 237.008249 198.864112 
L 246.820046 170.003064 
L 262.272249 190.11633 
L 237.008249 198.864112 
" style="fill:none;stroke:#ff0000;stroke-linecap:square;stroke-width:1.5;"/>
   </g>
   <g id="line2d_40">
    <path clip-path="url(#pcf45bfed1f)" d="M 259.98322 219.486821 
L 237.345501 199.071997 
L 261.927019 192.821956 
L 259.98322 219.486821 
" style="fill:none;stroke:#ff0000;stroke-linecap:square;stroke-width:1.5;"/>
   </g>
   <g id="line2d_41">
    <path clip-path="url(#pcf45bfed1f)" d="M 119.922151 198.905257 
L 93.046738 184.519722 
L 115.409991 172.553145 
L 119.922151 198.905257 
" style="fill:none;stroke:#ff0000;stroke-linecap:square;stroke-width:1.5;"/>
   </g>
   <g id="line2d_42">
    <path clip-path="url(#pcf45bfed1f)" d="M 261.846858 169.658182 
L 244.937767 144.294545 
L 270.301404 144.294545 
L 261.846858 169.658182 
" style="fill:none;stroke:#ff0000;stroke-linecap:square;stroke-width:1.5;"/>
   </g>
   <g id="line2d_43">
    <path clip-path="url(#pcf45bfed1f)" d="M 269.232756 191.49009 
L 262.472732 191.32057 
L 259.025931 185.49695 
L 255.792547 179.557673 
L 259.112642 173.660778 
L 262.639641 167.891143 
L 269.406416 167.817987 
L 276.16644 167.987506 
L 279.613241 173.811127 
L 282.846625 179.750404 
L 279.52653 185.647299 
L 275.999532 191.416934 
L 269.232756 191.49009 
" style="fill:none;stroke:#ff0000;stroke-linecap:square;stroke-width:1.5;"/>
   </g>
   <g id="line2d_44">
    <path clip-path="url(#pcf45bfed1f)" d="M 272.847484 227.656364 
L 266.927087 224.378361 
L 261.132473 220.892553 
L 261.011114 214.126471 
L 261.132473 207.36541 
L 266.931392 203.877211 
L 272.847484 200.601599 
L 278.767881 203.879602 
L 284.562495 207.36541 
L 284.683854 214.131492 
L 284.562495 220.892553 
L 278.763577 224.380752 
L 272.847484 227.656364 
" style="fill:none;stroke:#ff0000;stroke-linecap:square;stroke-width:1.5;"/>
   </g>
   <g id="line2d_45">
    <path clip-path="url(#pcf45bfed1f)" d="M 280.110099 167.868601 
L 273.349039 167.747242 
L 269.86084 161.948323 
L 266.585228 156.032231 
L 269.863231 150.111834 
L 273.349039 144.31722 
L 280.115121 144.195861 
L 286.876182 144.31722 
L 290.364381 150.116139 
L 293.639992 156.032231 
L 290.361989 161.952628 
L 286.876182 167.747242 
L 280.110099 167.868601 
" style="fill:none;stroke:#ff0000;stroke-linecap:square;stroke-width:1.5;"/>
   </g>
   <g id="line2d_46">
    <path clip-path="url(#pcf45bfed1f)" d="M 293.978885 206.264627 
L 287.252122 205.52621 
L 280.561147 204.547675 
L 277.837197 198.352913 
L 275.338986 192.068907 
L 279.341932 186.612459 
L 283.535036 181.307152 
L 290.261799 182.04557 
L 296.952774 183.024104 
L 299.676724 189.218866 
L 302.174935 195.502872 
L 298.171989 200.95932 
L 293.978885 206.264627 
" style="fill:none;stroke:#ff0000;stroke-linecap:square;stroke-width:1.5;"/>
   </g>
   <g id="line2d_47">
    <path clip-path="url(#pcf45bfed1f)" d="M 288.953481 145.166946 
L 283.756552 140.832603 
L 278.722199 136.317966 
L 279.87734 129.650085 
L 281.269924 123.032646 
L 287.622164 120.699096 
L 294.049294 118.596621 
L 299.246223 122.930963 
L 304.280576 127.445601 
L 303.125434 134.113482 
L 301.732851 140.73092 
L 295.380611 143.064471 
L 288.953481 145.166946 
" style="fill:none;stroke:#ff0000;stroke-linecap:square;stroke-width:1.5;"/>
   </g>
   <g id="line2d_48">
    <path clip-path="url(#pcf45bfed1f)" d="M 294.566806 117.219715 
L 289.242835 113.042403 
L 284.075987 108.680025 
L 285.031614 101.980639 
L 286.226083 95.324587 
L 292.505849 92.802497 
L 298.867369 90.509143 
L 304.19134 94.686455 
L 309.358188 99.048834 
L 308.40256 105.748219 
L 307.208092 112.404271 
L 300.928326 114.926361 
L 294.566806 117.219715 
" style="fill:none;stroke:#ff0000;stroke-linecap:square;stroke-width:1.5;"/>
   </g>
   <g id="line2d_49">
    <path clip-path="url(#pcf45bfed1f)" d="M 303.384199 183.96165 
L 296.745541 182.64909 
L 290.163131 181.100366 
L 287.980456 174.694828 
L 286.030342 168.219735 
L 290.486467 163.126666 
L 295.119089 158.200488 
L 301.757747 159.513049 
L 308.340157 161.061773 
L 310.522833 167.46731 
L 312.472946 173.942404 
L 308.016821 179.035473 
L 303.384199 183.96165 
" style="fill:none;stroke:#ff0000;stroke-linecap:square;stroke-width:1.5;"/>
   </g>
   <g id="patch_37">
    <path d="M 54 252 
L 54 34.56 
" style="fill:none;stroke:#000000;stroke-linecap:square;stroke-linejoin:miter;stroke-width:0.8;"/>
   </g>
   <g id="patch_38">
    <path d="M 388.8 252 
L 388.8 34.56 
" style="fill:none;stroke:#000000;stroke-linecap:square;stroke-linejoin:miter;stroke-width:0.8;"/>
   </g>
   <g id="patch_39">
    <path d="M 54 252 
L 388.8 252 
" style="fill:none;stroke:#000000;stroke-linecap:square;stroke-linejoin:miter;stroke-width:0.8;"/>
   </g>
   <g id="patch_40">
    <path d="M 54 34.56 
L 388.8 34.56 
" style="fill:none;stroke:#000000;stroke-linecap:square;stroke-linejoin:miter;stroke-width:0.8;"/>
   </g>
  </g>
 </g>
 <defs>
  <clipPath id="pcf45bfed1f">
   <rect height="217.44" width="334.8" x="54" y="34.56"/>
  </clipPath>
 </defs>
</svg>
