<?xml version="1.0" encoding="utf-8" standalone="no"?>
<!DOCTYPE svg PUBLIC "-//W3C//DTD SVG 1.1//EN"
  "http://www.w3.org/Graphics/SVG/1.1/DTD/svg11.dtd">
<!-- Created with matplotlib (https://matplotlib.org/) -->
<svg height="288pt" version="1.1" viewBox="0 0 432 288" width="432pt" xmlns="http://www.w3.org/2000/svg" xmlns:xlink="http://www.w3.org/1999/xlink">
 <defs>
  <style type="text/css">
*{stroke-linecap:butt;stroke-linejoin:round;}
  </style>
 </defs>
 <g id="figure_1">
  <g id="patch_1">
   <path d="M 0 288 
L 432 288 
L 432 0 
L 0 0 
z
" style="fill:#ffffff;"/>
  </g>
  <g id="axes_1">
   <g id="patch_2">
    <path d="M 54 252 
L 388.8 252 
L 388.8 34.56 
L 54 34.56 
z
" style="fill:#ffffff;"/>
   </g>
   <g id="patch_3">
    <path clip-path="url(#p8c43caf336)" d="M 69.218182 172.860638 
L 69.218182 227.825455 
L 174.907336 227.825455 
z
" style="fill:#aaaaaa;"/>
   </g>
   <g id="patch_4">
    <path clip-path="url(#p8c43caf336)" d="M 105.040687 136.800432 
L 107.85789 170.606875 
L 145.608419 168.916553 
L 140.537452 132.292906 
z
" style="fill:#aaaaaa;"/>
   </g>
   <g id="patch_5">
    <path clip-path="url(#p8c43caf336)" d="M 89.827787 58.734545 
L 88.700906 58.734545 
L 97.152516 91.725174 
L 207.412119 122.702872 
L 206.460017 144.125161 
L 276.890108 144.125161 
L 292.666448 58.734545 
L 117.436383 58.734545 
z
" style="fill:#aaaaaa;"/>
   </g>
   <g id="patch_6">
    <path clip-path="url(#p8c43caf336)" d="M 81.858362 128.422124 
L 81.840269 100.535144 
L 72.32248 100.532101 
L 72.326707 133.691673 
L 127.941722 133.69049 
L 127.944765 100.535144 
L 119.928503 100.535144 
L 119.92732 128.422124 
z
" style="fill:#f6929c;"/>
   </g>
   <g id="patch_7">
    <path clip-path="url(#p8c43caf336)" d="M 327.326324 86.79366 
L 327.308231 58.90668 
L 317.790442 58.903636 
L 317.794669 92.063209 
L 373.409684 92.062025 
L 373.412727 58.90668 
L 365.396465 58.90668 
L 365.395282 86.79366 
z
" style="fill:#f6929c;"/>
   </g>
   <g id="patch_8">
    <path clip-path="url(#p8c43caf336)" d="M 327.326324 120.104569 
L 327.308231 92.217589 
L 317.790442 92.214545 
L 317.794669 125.374118 
L 373.409684 125.372935 
L 373.412727 92.217589 
L 365.396465 92.217589 
L 365.395282 120.104569 
z
" style="fill:#f6929c;"/>
   </g>
   <g id="patch_9">
    <path clip-path="url(#p8c43caf336)" d="M 327.326324 153.415478 
L 327.308231 125.528498 
L 317.790442 125.525455 
L 317.794669 158.685027 
L 373.409684 158.683844 
L 373.412727 125.528498 
L 365.396465 125.528498 
L 365.395282 153.415478 
z
" style="fill:#f6929c;"/>
   </g>
   <g id="patch_10">
    <path clip-path="url(#p8c43caf336)" d="M 327.326324 186.726387 
L 327.308231 158.839407 
L 317.790442 158.836364 
L 317.794669 191.995936 
L 373.409684 191.994753 
L 373.412727 158.839407 
L 365.396465 158.839407 
L 365.395282 186.726387 
z
" style="fill:#f6929c;"/>
   </g>
   <g id="patch_11">
    <path clip-path="url(#p8c43caf336)" d="M 341.623636 184.2 
L 340.427983 183.704745 
L 339.932727 182.509091 
L 339.932727 160.527273 
L 340.427983 159.331619 
L 341.623636 158.836364 
L 363.605455 158.836364 
L 364.801108 159.331619 
L 365.296364 160.527273 
L 365.296364 182.509091 
L 364.801108 183.704745 
L 363.605455 184.2 
z
" style="fill:#f6929c;"/>
   </g>
   <g id="patch_12">
    <path clip-path="url(#p8c43caf336)" d="M 341.623636 117.578182 
L 340.427983 117.082926 
L 339.932727 115.887273 
L 339.932727 93.905455 
L 340.427983 92.709801 
L 341.623636 92.214545 
L 363.605455 92.214545 
L 364.801108 92.709801 
L 365.296364 93.905455 
L 365.296364 115.887273 
L 364.801108 117.082926 
L 363.605455 117.578182 
z
" style="fill:#f6929c;"/>
   </g>
   <g id="patch_13">
    <path clip-path="url(#p8c43caf336)" d="M 341.623636 84.267273 
L 340.427983 83.772017 
L 339.932727 82.576364 
L 339.932727 60.594545 
L 340.427983 59.398892 
L 341.623636 58.903636 
L 363.605455 58.903636 
L 364.801108 59.398892 
L 365.296364 60.594545 
L 365.296364 82.576364 
L 364.801108 83.772017 
L 363.605455 84.267273 
z
" style="fill:#f6929c;"/>
   </g>
   <g id="patch_14">
    <path clip-path="url(#p8c43caf336)" d="M 341.623636 150.889091 
L 340.427983 150.393835 
L 339.932727 149.198182 
L 339.932727 127.216364 
L 340.427983 126.02071 
L 341.623636 125.525455 
L 363.605455 125.525455 
L 364.801108 126.02071 
L 365.296364 127.216364 
L 365.296364 149.198182 
L 364.801108 150.393835 
L 363.605455 150.889091 
z
" style="fill:#f6929c;"/>
   </g>
   <g id="patch_15">
    <path clip-path="url(#p8c43caf336)" d="M 70.414879 100.33661 
L 70.414879 74.972973 
L 72.105788 74.972973 
L 98.148896 92.60906 
L 99.305758 93.779191 
L 99.928219 95.302372 
L 99.921966 96.947821 
L 99.287944 98.466227 
L 98.122218 99.62753 
L 96.601414 100.255776 
z
" style="fill:#f6929c;"/>
   </g>
   <g id="patch_16">
    <path clip-path="url(#p8c43caf336)" d="M 118.085455 125.792129 
L 92.042347 108.156042 
L 90.885484 106.985911 
L 90.263023 105.46273 
L 90.269276 103.817281 
L 90.903298 102.298875 
L 92.069024 101.137572 
L 93.589828 100.509326 
L 119.776364 100.428493 
L 119.776364 125.792129 
z
" style="fill:#f6929c;"/>
   </g>
   <g id="patch_17">
    <path clip-path="url(#p8c43caf336)" d="M 103.379818 159.174545 
L 77.33671 141.538458 
L 76.179847 140.368327 
L 75.557386 138.845146 
L 75.563639 137.199697 
L 76.197661 135.681291 
L 77.363387 134.519988 
L 78.884191 133.891743 
L 105.070727 133.810909 
L 105.070727 159.174545 
z
" style="fill:#f6929c;"/>
   </g>
   <g id="patch_18">
    <path clip-path="url(#p8c43caf336)" d="M 77.684284 168.511791 
L 77.684284 143.148155 
L 79.375193 143.148155 
L 105.418301 160.784242 
L 106.575163 161.954373 
L 107.197624 163.477554 
L 107.191371 165.123003 
L 106.55735 166.641409 
L 105.391623 167.802712 
L 103.87082 168.430957 
z
" style="fill:#f6929c;"/>
   </g>
   <g id="patch_19">
    <path clip-path="url(#p8c43caf336)" d="M 315.921818 105.978763 
L 289.87871 88.342676 
L 288.721848 87.172545 
L 288.099387 85.649364 
L 288.10564 84.003915 
L 288.739662 82.485509 
L 289.905388 81.324206 
L 291.426191 80.695961 
L 317.612727 80.615127 
L 317.612727 105.978763 
z
" style="fill:#f6929c;"/>
   </g>
   <g id="patch_20">
    <path clip-path="url(#p8c43caf336)" d="M 288.099387 113.831293 
L 288.099387 88.467657 
L 289.790296 88.467657 
L 315.833404 106.103744 
L 316.990266 107.273875 
L 317.612727 108.797056 
L 317.606474 110.442505 
L 316.972453 111.960911 
L 315.806726 113.122214 
L 314.285923 113.75046 
z
" style="fill:#f6929c;"/>
   </g>
   <g id="patch_21">
    <path clip-path="url(#p8c43caf336)" d="M 301.852815 138.689567 
L 300.880901 138.55594 
L 299.103059 137.747684 
L 298.247471 137.016847 
L 286.466557 123.327104 
L 286.459286 120.124522 
L 286.46233 113.859365 
L 312.532935 113.858182 
L 314.503847 114.256102 
L 316.166133 115.387278 
L 316.797114 116.176354 
L 317.534998 118.046724 
L 317.612727 119.054065 
L 317.170512 121.015494 
L 305.457664 137.386675 
L 303.782819 138.391097 
z
" style="fill:#f6929c;"/>
   </g>
   <g id="patch_22">
    <path clip-path="url(#p8c43caf336)" d="M 357.652815 216.978658 
L 356.680901 216.845031 
L 354.903059 216.036775 
L 354.047471 215.305938 
L 342.266557 201.616195 
L 342.259286 198.413613 
L 342.26233 192.148456 
L 368.332935 192.147273 
L 370.303847 192.545193 
L 371.966133 193.676369 
L 372.597114 194.465445 
L 373.334998 196.335815 
L 373.412727 197.343156 
L 372.970512 199.304585 
L 361.257664 215.675765 
L 359.582819 216.680187 
z
" style="fill:#f6929c;"/>
   </g>
   <g id="patch_23">
    <path clip-path="url(#p8c43caf336)" d="M 301.852815 163.545455 
L 300.880901 163.411828 
L 299.103059 162.603572 
L 298.247471 161.872735 
L 286.466557 148.182992 
L 286.459286 144.98041 
L 286.46233 138.715253 
L 312.532935 138.71407 
L 314.503847 139.11199 
L 316.166133 140.243166 
L 316.797114 141.032242 
L 317.534998 142.902612 
L 317.612727 143.909953 
L 317.170512 145.871382 
L 305.457664 162.242563 
L 303.782819 163.246985 
z
" style="fill:#f6929c;"/>
   </g>
   <g id="patch_24">
    <path clip-path="url(#p8c43caf336)" d="M 301.852815 188.401819 
L 300.880901 188.268191 
L 299.103059 187.459935 
L 298.247471 186.729099 
L 286.466557 173.039355 
L 286.459286 169.836773 
L 286.46233 163.571617 
L 312.532935 163.570433 
L 314.503847 163.968353 
L 316.166133 165.099529 
L 316.797114 165.888606 
L 317.534998 167.758976 
L 317.612727 168.766316 
L 317.170512 170.727746 
L 305.457664 187.098926 
L 303.782819 188.103348 
z
" style="fill:#f6929c;"/>
   </g>
   <g id="patch_25">
    <path clip-path="url(#p8c43caf336)" d="M 326.370997 216.978658 
L 325.399083 216.845031 
L 323.621241 216.036775 
L 322.765653 215.305938 
L 310.984739 201.616195 
L 310.977468 198.413613 
L 310.980512 192.148456 
L 337.051117 192.147273 
L 339.022029 192.545193 
L 340.684314 193.676369 
L 341.315296 194.465445 
L 342.05318 196.335815 
L 342.130909 197.343156 
L 341.688694 199.304585 
L 329.975846 215.675765 
L 328.301001 216.680187 
z
" style="fill:#f6929c;"/>
   </g>
   <g id="patch_26">
    <path clip-path="url(#p8c43caf336)" d="M 270.741832 169.094631 
L 269.769918 168.961003 
L 267.992076 168.152747 
L 267.136488 167.421911 
L 255.355574 153.732167 
L 255.348303 150.529585 
L 255.351347 144.264429 
L 281.421952 144.263245 
L 283.392864 144.661165 
L 285.05515 145.792341 
L 285.686131 146.581417 
L 286.424015 148.451787 
L 286.501744 149.459128 
L 286.059529 151.420557 
L 274.346682 167.791738 
L 272.671836 168.79616 
z
" style="fill:#f6929c;"/>
   </g>
   <g id="patch_27">
    <path clip-path="url(#p8c43caf336)" d="M 295.089179 213.256486 
L 294.117265 213.122858 
L 292.339423 212.314602 
L 291.483834 211.583766 
L 279.702921 197.894022 
L 279.69565 194.69144 
L 279.698694 188.426284 
L 305.769299 188.4251 
L 307.740211 188.82302 
L 309.402496 189.954196 
L 310.033478 190.743272 
L 310.771362 192.613643 
L 310.849091 193.620983 
L 310.406876 195.582412 
L 298.694028 211.953593 
L 297.019183 212.958015 
z
" style="fill:#f6929c;"/>
   </g>
   <g id="patch_28">
    <path clip-path="url(#p8c43caf336)" d="M 270.347092 187.160926 
L 278.801638 161.79729 
L 295.710729 187.160926 
z
" style="fill:#f6929c;"/>
   </g>
   <g id="patch_29">
    <path clip-path="url(#p8c43caf336)" d="M 332.742349 225.504354 
L 341.196894 200.140717 
L 358.105985 225.504354 
z
" style="fill:#f6929c;"/>
   </g>
   <g id="patch_30">
    <path clip-path="url(#p8c43caf336)" d="M 300.175914 223.590264 
L 308.630459 198.226628 
L 325.53955 223.590264 
z
" style="fill:#f6929c;"/>
   </g>
   <g id="patch_31">
    <path clip-path="url(#p8c43caf336)" d="M 240.403989 169.638998 
L 248.858534 144.275362 
L 265.767625 169.638998 
z
" style="fill:#f6929c;"/>
   </g>
   <g id="patch_32">
    <path clip-path="url(#p8c43caf336)" d="M 267.478486 195.190909 
L 250.569395 169.827273 
L 275.933031 169.827273 
z
" style="fill:#f6929c;"/>
   </g>
   <g id="matplotlib.axis_1">
    <g id="xtick_1">
     <g id="line2d_1">
      <defs>
       <path d="M 0 0 
L 0 3.5 
" id="mfdf7102ea0" style="stroke:#000000;stroke-width:0.8;"/>
      </defs>
      <g>
       <use style="stroke:#000000;stroke-width:0.8;" x="69.218182" xlink:href="#mfdf7102ea0" y="252"/>
      </g>
     </g>
     <g id="text_1">
      <!-- 0 -->
      <defs>
       <path d="M 31.78125 66.40625 
Q 24.171875 66.40625 20.328125 58.90625 
Q 16.5 51.421875 16.5 36.375 
Q 16.5 21.390625 20.328125 13.890625 
Q 24.171875 6.390625 31.78125 6.390625 
Q 39.453125 6.390625 43.28125 13.890625 
Q 47.125 21.390625 47.125 36.375 
Q 47.125 51.421875 43.28125 58.90625 
Q 39.453125 66.40625 31.78125 66.40625 
z
M 31.78125 74.21875 
Q 44.046875 74.21875 50.515625 64.515625 
Q 56.984375 54.828125 56.984375 36.375 
Q 56.984375 17.96875 50.515625 8.265625 
Q 44.046875 -1.421875 31.78125 -1.421875 
Q 19.53125 -1.421875 13.0625 8.265625 
Q 6.59375 17.96875 6.59375 36.375 
Q 6.59375 54.828125 13.0625 64.515625 
Q 19.53125 74.21875 31.78125 74.21875 
z
" id="DejaVuSans-48"/>
      </defs>
      <g transform="translate(66.036932 266.598437)scale(0.1 -0.1)">
       <use xlink:href="#DejaVuSans-48"/>
      </g>
     </g>
    </g>
    <g id="xtick_2">
     <g id="line2d_2">
      <g>
       <use style="stroke:#000000;stroke-width:0.8;" x="111.490909" xlink:href="#mfdf7102ea0" y="252"/>
      </g>
     </g>
     <g id="text_2">
      <!-- 250 -->
      <defs>
       <path d="M 19.1875 8.296875 
L 53.609375 8.296875 
L 53.609375 0 
L 7.328125 0 
L 7.328125 8.296875 
Q 12.9375 14.109375 22.625 23.890625 
Q 32.328125 33.6875 34.8125 36.53125 
Q 39.546875 41.84375 41.421875 45.53125 
Q 43.3125 49.21875 43.3125 52.78125 
Q 43.3125 58.59375 39.234375 62.25 
Q 35.15625 65.921875 28.609375 65.921875 
Q 23.96875 65.921875 18.8125 64.3125 
Q 13.671875 62.703125 7.8125 59.421875 
L 7.8125 69.390625 
Q 13.765625 71.78125 18.9375 73 
Q 24.125 74.21875 28.421875 74.21875 
Q 39.75 74.21875 46.484375 68.546875 
Q 53.21875 62.890625 53.21875 53.421875 
Q 53.21875 48.921875 51.53125 44.890625 
Q 49.859375 40.875 45.40625 35.40625 
Q 44.1875 33.984375 37.640625 27.21875 
Q 31.109375 20.453125 19.1875 8.296875 
z
" id="DejaVuSans-50"/>
       <path d="M 10.796875 72.90625 
L 49.515625 72.90625 
L 49.515625 64.59375 
L 19.828125 64.59375 
L 19.828125 46.734375 
Q 21.96875 47.46875 24.109375 47.828125 
Q 26.265625 48.1875 28.421875 48.1875 
Q 40.625 48.1875 47.75 41.5 
Q 54.890625 34.8125 54.890625 23.390625 
Q 54.890625 11.625 47.5625 5.09375 
Q 40.234375 -1.421875 26.90625 -1.421875 
Q 22.3125 -1.421875 17.546875 -0.640625 
Q 12.796875 0.140625 7.71875 1.703125 
L 7.71875 11.625 
Q 12.109375 9.234375 16.796875 8.0625 
Q 21.484375 6.890625 26.703125 6.890625 
Q 35.15625 6.890625 40.078125 11.328125 
Q 45.015625 15.765625 45.015625 23.390625 
Q 45.015625 31 40.078125 35.4375 
Q 35.15625 39.890625 26.703125 39.890625 
Q 22.75 39.890625 18.8125 39.015625 
Q 14.890625 38.140625 10.796875 36.28125 
z
" id="DejaVuSans-53"/>
      </defs>
      <g transform="translate(101.947159 266.598437)scale(0.1 -0.1)">
       <use xlink:href="#DejaVuSans-50"/>
       <use x="63.623047" xlink:href="#DejaVuSans-53"/>
       <use x="127.246094" xlink:href="#DejaVuSans-48"/>
      </g>
     </g>
    </g>
    <g id="xtick_3">
     <g id="line2d_3">
      <g>
       <use style="stroke:#000000;stroke-width:0.8;" x="153.763636" xlink:href="#mfdf7102ea0" y="252"/>
      </g>
     </g>
     <g id="text_3">
      <!-- 500 -->
      <g transform="translate(144.219886 266.598437)scale(0.1 -0.1)">
       <use xlink:href="#DejaVuSans-53"/>
       <use x="63.623047" xlink:href="#DejaVuSans-48"/>
       <use x="127.246094" xlink:href="#DejaVuSans-48"/>
      </g>
     </g>
    </g>
    <g id="xtick_4">
     <g id="line2d_4">
      <g>
       <use style="stroke:#000000;stroke-width:0.8;" x="196.036364" xlink:href="#mfdf7102ea0" y="252"/>
      </g>
     </g>
     <g id="text_4">
      <!-- 750 -->
      <defs>
       <path d="M 8.203125 72.90625 
L 55.078125 72.90625 
L 55.078125 68.703125 
L 28.609375 0 
L 18.3125 0 
L 43.21875 64.59375 
L 8.203125 64.59375 
z
" id="DejaVuSans-55"/>
      </defs>
      <g transform="translate(186.492614 266.598437)scale(0.1 -0.1)">
       <use xlink:href="#DejaVuSans-55"/>
       <use x="63.623047" xlink:href="#DejaVuSans-53"/>
       <use x="127.246094" xlink:href="#DejaVuSans-48"/>
      </g>
     </g>
    </g>
    <g id="xtick_5">
     <g id="line2d_5">
      <g>
       <use style="stroke:#000000;stroke-width:0.8;" x="238.309091" xlink:href="#mfdf7102ea0" y="252"/>
      </g>
     </g>
     <g id="text_5">
      <!-- 1000 -->
      <defs>
       <path d="M 12.40625 8.296875 
L 28.515625 8.296875 
L 28.515625 63.921875 
L 10.984375 60.40625 
L 10.984375 69.390625 
L 28.421875 72.90625 
L 38.28125 72.90625 
L 38.28125 8.296875 
L 54.390625 8.296875 
L 54.390625 0 
L 12.40625 0 
z
" id="DejaVuSans-49"/>
      </defs>
      <g transform="translate(225.584091 266.598437)scale(0.1 -0.1)">
       <use xlink:href="#DejaVuSans-49"/>
       <use x="63.623047" xlink:href="#DejaVuSans-48"/>
       <use x="127.246094" xlink:href="#DejaVuSans-48"/>
       <use x="190.869141" xlink:href="#DejaVuSans-48"/>
      </g>
     </g>
    </g>
    <g id="xtick_6">
     <g id="line2d_6">
      <g>
       <use style="stroke:#000000;stroke-width:0.8;" x="280.581818" xlink:href="#mfdf7102ea0" y="252"/>
      </g>
     </g>
     <g id="text_6">
      <!-- 1250 -->
      <g transform="translate(267.856818 266.598437)scale(0.1 -0.1)">
       <use xlink:href="#DejaVuSans-49"/>
       <use x="63.623047" xlink:href="#DejaVuSans-50"/>
       <use x="127.246094" xlink:href="#DejaVuSans-53"/>
       <use x="190.869141" xlink:href="#DejaVuSans-48"/>
      </g>
     </g>
    </g>
    <g id="xtick_7">
     <g id="line2d_7">
      <g>
       <use style="stroke:#000000;stroke-width:0.8;" x="322.854545" xlink:href="#mfdf7102ea0" y="252"/>
      </g>
     </g>
     <g id="text_7">
      <!-- 1500 -->
      <g transform="translate(310.129545 266.598437)scale(0.1 -0.1)">
       <use xlink:href="#DejaVuSans-49"/>
       <use x="63.623047" xlink:href="#DejaVuSans-53"/>
       <use x="127.246094" xlink:href="#DejaVuSans-48"/>
       <use x="190.869141" xlink:href="#DejaVuSans-48"/>
      </g>
     </g>
    </g>
    <g id="xtick_8">
     <g id="line2d_8">
      <g>
       <use style="stroke:#000000;stroke-width:0.8;" x="365.127273" xlink:href="#mfdf7102ea0" y="252"/>
      </g>
     </g>
     <g id="text_8">
      <!-- 1750 -->
      <g transform="translate(352.402273 266.598437)scale(0.1 -0.1)">
       <use xlink:href="#DejaVuSans-49"/>
       <use x="63.623047" xlink:href="#DejaVuSans-55"/>
       <use x="127.246094" xlink:href="#DejaVuSans-53"/>
       <use x="190.869141" xlink:href="#DejaVuSans-48"/>
      </g>
     </g>
    </g>
   </g>
   <g id="matplotlib.axis_2">
    <g id="ytick_1">
     <g id="line2d_9">
      <defs>
       <path d="M 0 0 
L -3.5 0 
" id="mceb48e45ac" style="stroke:#000000;stroke-width:0.8;"/>
      </defs>
      <g>
       <use style="stroke:#000000;stroke-width:0.8;" x="54" xlink:href="#mceb48e45ac" y="227.825455"/>
      </g>
     </g>
     <g id="text_9">
      <!-- 0 -->
      <g transform="translate(40.6375 231.624673)scale(0.1 -0.1)">
       <use xlink:href="#DejaVuSans-48"/>
      </g>
     </g>
    </g>
    <g id="ytick_2">
     <g id="line2d_10">
      <g>
       <use style="stroke:#000000;stroke-width:0.8;" x="54" xlink:href="#mceb48e45ac" y="194.007273"/>
      </g>
     </g>
     <g id="text_10">
      <!-- 200 -->
      <g transform="translate(27.9125 197.806491)scale(0.1 -0.1)">
       <use xlink:href="#DejaVuSans-50"/>
       <use x="63.623047" xlink:href="#DejaVuSans-48"/>
       <use x="127.246094" xlink:href="#DejaVuSans-48"/>
      </g>
     </g>
    </g>
    <g id="ytick_3">
     <g id="line2d_11">
      <g>
       <use style="stroke:#000000;stroke-width:0.8;" x="54" xlink:href="#mceb48e45ac" y="160.189091"/>
      </g>
     </g>
     <g id="text_11">
      <!-- 400 -->
      <defs>
       <path d="M 37.796875 64.3125 
L 12.890625 25.390625 
L 37.796875 25.390625 
z
M 35.203125 72.90625 
L 47.609375 72.90625 
L 47.609375 25.390625 
L 58.015625 25.390625 
L 58.015625 17.1875 
L 47.609375 17.1875 
L 47.609375 0 
L 37.796875 0 
L 37.796875 17.1875 
L 4.890625 17.1875 
L 4.890625 26.703125 
z
" id="DejaVuSans-52"/>
      </defs>
      <g transform="translate(27.9125 163.98831)scale(0.1 -0.1)">
       <use xlink:href="#DejaVuSans-52"/>
       <use x="63.623047" xlink:href="#DejaVuSans-48"/>
       <use x="127.246094" xlink:href="#DejaVuSans-48"/>
      </g>
     </g>
    </g>
    <g id="ytick_4">
     <g id="line2d_12">
      <g>
       <use style="stroke:#000000;stroke-width:0.8;" x="54" xlink:href="#mceb48e45ac" y="126.370909"/>
      </g>
     </g>
     <g id="text_12">
      <!-- 600 -->
      <defs>
       <path d="M 33.015625 40.375 
Q 26.375 40.375 22.484375 35.828125 
Q 18.609375 31.296875 18.609375 23.390625 
Q 18.609375 15.53125 22.484375 10.953125 
Q 26.375 6.390625 33.015625 6.390625 
Q 39.65625 6.390625 43.53125 10.953125 
Q 47.40625 15.53125 47.40625 23.390625 
Q 47.40625 31.296875 43.53125 35.828125 
Q 39.65625 40.375 33.015625 40.375 
z
M 52.59375 71.296875 
L 52.59375 62.3125 
Q 48.875 64.0625 45.09375 64.984375 
Q 41.3125 65.921875 37.59375 65.921875 
Q 27.828125 65.921875 22.671875 59.328125 
Q 17.53125 52.734375 16.796875 39.40625 
Q 19.671875 43.65625 24.015625 45.921875 
Q 28.375 48.1875 33.59375 48.1875 
Q 44.578125 48.1875 50.953125 41.515625 
Q 57.328125 34.859375 57.328125 23.390625 
Q 57.328125 12.15625 50.6875 5.359375 
Q 44.046875 -1.421875 33.015625 -1.421875 
Q 20.359375 -1.421875 13.671875 8.265625 
Q 6.984375 17.96875 6.984375 36.375 
Q 6.984375 53.65625 15.1875 63.9375 
Q 23.390625 74.21875 37.203125 74.21875 
Q 40.921875 74.21875 44.703125 73.484375 
Q 48.484375 72.75 52.59375 71.296875 
z
" id="DejaVuSans-54"/>
      </defs>
      <g transform="translate(27.9125 130.170128)scale(0.1 -0.1)">
       <use xlink:href="#DejaVuSans-54"/>
       <use x="63.623047" xlink:href="#DejaVuSans-48"/>
       <use x="127.246094" xlink:href="#DejaVuSans-48"/>
      </g>
     </g>
    </g>
    <g id="ytick_5">
     <g id="line2d_13">
      <g>
       <use style="stroke:#000000;stroke-width:0.8;" x="54" xlink:href="#mceb48e45ac" y="92.552727"/>
      </g>
     </g>
     <g id="text_13">
      <!-- 800 -->
      <defs>
       <path d="M 31.78125 34.625 
Q 24.75 34.625 20.71875 30.859375 
Q 16.703125 27.09375 16.703125 20.515625 
Q 16.703125 13.921875 20.71875 10.15625 
Q 24.75 6.390625 31.78125 6.390625 
Q 38.8125 6.390625 42.859375 10.171875 
Q 46.921875 13.96875 46.921875 20.515625 
Q 46.921875 27.09375 42.890625 30.859375 
Q 38.875 34.625 31.78125 34.625 
z
M 21.921875 38.8125 
Q 15.578125 40.375 12.03125 44.71875 
Q 8.5 49.078125 8.5 55.328125 
Q 8.5 64.0625 14.71875 69.140625 
Q 20.953125 74.21875 31.78125 74.21875 
Q 42.671875 74.21875 48.875 69.140625 
Q 55.078125 64.0625 55.078125 55.328125 
Q 55.078125 49.078125 51.53125 44.71875 
Q 48 40.375 41.703125 38.8125 
Q 48.828125 37.15625 52.796875 32.3125 
Q 56.78125 27.484375 56.78125 20.515625 
Q 56.78125 9.90625 50.3125 4.234375 
Q 43.84375 -1.421875 31.78125 -1.421875 
Q 19.734375 -1.421875 13.25 4.234375 
Q 6.78125 9.90625 6.78125 20.515625 
Q 6.78125 27.484375 10.78125 32.3125 
Q 14.796875 37.15625 21.921875 38.8125 
z
M 18.3125 54.390625 
Q 18.3125 48.734375 21.84375 45.5625 
Q 25.390625 42.390625 31.78125 42.390625 
Q 38.140625 42.390625 41.71875 45.5625 
Q 45.3125 48.734375 45.3125 54.390625 
Q 45.3125 60.0625 41.71875 63.234375 
Q 38.140625 66.40625 31.78125 66.40625 
Q 25.390625 66.40625 21.84375 63.234375 
Q 18.3125 60.0625 18.3125 54.390625 
z
" id="DejaVuSans-56"/>
      </defs>
      <g transform="translate(27.9125 96.351946)scale(0.1 -0.1)">
       <use xlink:href="#DejaVuSans-56"/>
       <use x="63.623047" xlink:href="#DejaVuSans-48"/>
       <use x="127.246094" xlink:href="#DejaVuSans-48"/>
      </g>
     </g>
    </g>
    <g id="ytick_6">
     <g id="line2d_14">
      <g>
       <use style="stroke:#000000;stroke-width:0.8;" x="54" xlink:href="#mceb48e45ac" y="58.734545"/>
      </g>
     </g>
     <g id="text_14">
      <!-- 1000 -->
      <g transform="translate(21.55 62.533764)scale(0.1 -0.1)">
       <use xlink:href="#DejaVuSans-49"/>
       <use x="63.623047" xlink:href="#DejaVuSans-48"/>
       <use x="127.246094" xlink:href="#DejaVuSans-48"/>
       <use x="190.869141" xlink:href="#DejaVuSans-48"/>
      </g>
     </g>
    </g>
   </g>
   <g id="line2d_15">
    <path clip-path="url(#p8c43caf336)" d="M 69.218182 227.825455 
L 373.581818 227.825455 
L 373.581818 58.734545 
L 69.218182 58.734545 
L 69.218182 227.825455 
" style="fill:none;stroke:#000000;stroke-linecap:square;stroke-width:1.5;"/>
   </g>
   <g id="line2d_16">
    <path clip-path="url(#p8c43caf336)" d="M 69.218182 172.860638 
L 69.218182 227.825455 
L 174.907336 227.825455 
L 69.218182 172.860638 
" style="fill:none;stroke:#000000;stroke-dasharray:5.55,2.4;stroke-dashoffset:0;stroke-width:1.5;"/>
   </g>
   <g id="line2d_17">
    <path clip-path="url(#p8c43caf336)" d="M 105.040687 136.800432 
L 107.85789 170.606875 
L 145.608419 168.916553 
L 140.537452 132.292906 
L 105.040687 136.800432 
" style="fill:none;stroke:#000000;stroke-dasharray:5.55,2.4;stroke-dashoffset:0;stroke-width:1.5;"/>
   </g>
   <g id="line2d_18">
    <path clip-path="url(#p8c43caf336)" d="M 89.827787 58.734545 
L 88.700906 58.734545 
L 97.152516 91.725174 
L 207.412119 122.702872 
L 206.460017 144.125161 
L 276.890108 144.125161 
L 292.666448 58.734545 
L 117.436383 58.734545 
L 89.827787 58.734545 
" style="fill:none;stroke:#000000;stroke-dasharray:5.55,2.4;stroke-dashoffset:0;stroke-width:1.5;"/>
   </g>
   <g id="line2d_19">
    <path clip-path="url(#p8c43caf336)" d="M 81.858362 128.422124 
L 81.840269 100.535144 
L 72.32248 100.532101 
L 72.326707 133.691673 
L 127.941722 133.69049 
L 127.944765 100.535144 
L 119.928503 100.535144 
L 119.92732 128.422124 
L 81.858362 128.422124 
" style="fill:none;stroke:#ff0000;stroke-linecap:square;stroke-width:1.5;"/>
   </g>
   <g id="line2d_20">
    <path clip-path="url(#p8c43caf336)" d="M 327.326324 86.79366 
L 327.308231 58.90668 
L 317.790442 58.903636 
L 317.794669 92.063209 
L 373.409684 92.062025 
L 373.412727 58.90668 
L 365.396465 58.90668 
L 365.395282 86.79366 
L 327.326324 86.79366 
" style="fill:none;stroke:#ff0000;stroke-linecap:square;stroke-width:1.5;"/>
   </g>
   <g id="line2d_21">
    <path clip-path="url(#p8c43caf336)" d="M 327.326324 120.104569 
L 327.308231 92.217589 
L 317.790442 92.214545 
L 317.794669 125.374118 
L 373.409684 125.372935 
L 373.412727 92.217589 
L 365.396465 92.217589 
L 365.395282 120.104569 
L 327.326324 120.104569 
" style="fill:none;stroke:#ff0000;stroke-linecap:square;stroke-width:1.5;"/>
   </g>
   <g id="line2d_22">
    <path clip-path="url(#p8c43caf336)" d="M 327.326324 153.415478 
L 327.308231 125.528498 
L 317.790442 125.525455 
L 317.794669 158.685027 
L 373.409684 158.683844 
L 373.412727 125.528498 
L 365.396465 125.528498 
L 365.395282 153.415478 
L 327.326324 153.415478 
" style="fill:none;stroke:#ff0000;stroke-linecap:square;stroke-width:1.5;"/>
   </g>
   <g id="line2d_23">
    <path clip-path="url(#p8c43caf336)" d="M 327.326324 186.726387 
L 327.308231 158.839407 
L 317.790442 158.836364 
L 317.794669 191.995936 
L 373.409684 191.994753 
L 373.412727 158.839407 
L 365.396465 158.839407 
L 365.395282 186.726387 
L 327.326324 186.726387 
" style="fill:none;stroke:#ff0000;stroke-linecap:square;stroke-width:1.5;"/>
   </g>
   <g id="line2d_24">
    <path clip-path="url(#p8c43caf336)" d="M 341.623636 184.2 
L 340.427983 183.704745 
L 339.932727 182.509091 
L 339.932727 160.527273 
L 340.427983 159.331619 
L 341.623636 158.836364 
L 363.605455 158.836364 
L 364.801108 159.331619 
L 365.296364 160.527273 
L 365.296364 182.509091 
L 364.801108 183.704745 
L 363.605455 184.2 
L 341.623636 184.2 
" style="fill:none;stroke:#ff0000;stroke-linecap:square;stroke-width:1.5;"/>
   </g>
   <g id="line2d_25">
    <path clip-path="url(#p8c43caf336)" d="M 341.623636 117.578182 
L 340.427983 117.082926 
L 339.932727 115.887273 
L 339.932727 93.905455 
L 340.427983 92.709801 
L 341.623636 92.214545 
L 363.605455 92.214545 
L 364.801108 92.709801 
L 365.296364 93.905455 
L 365.296364 115.887273 
L 364.801108 117.082926 
L 363.605455 117.578182 
L 341.623636 117.578182 
" style="fill:none;stroke:#ff0000;stroke-linecap:square;stroke-width:1.5;"/>
   </g>
   <g id="line2d_26">
    <path clip-path="url(#p8c43caf336)" d="M 341.623636 84.267273 
L 340.427983 83.772017 
L 339.932727 82.576364 
L 339.932727 60.594545 
L 340.427983 59.398892 
L 341.623636 58.903636 
L 363.605455 58.903636 
L 364.801108 59.398892 
L 365.296364 60.594545 
L 365.296364 82.576364 
L 364.801108 83.772017 
L 363.605455 84.267273 
L 341.623636 84.267273 
" style="fill:none;stroke:#ff0000;stroke-linecap:square;stroke-width:1.5;"/>
   </g>
   <g id="line2d_27">
    <path clip-path="url(#p8c43caf336)" d="M 341.623636 150.889091 
L 340.427983 150.393835 
L 339.932727 149.198182 
L 339.932727 127.216364 
L 340.427983 126.02071 
L 341.623636 125.525455 
L 363.605455 125.525455 
L 364.801108 126.02071 
L 365.296364 127.216364 
L 365.296364 149.198182 
L 364.801108 150.393835 
L 363.605455 150.889091 
L 341.623636 150.889091 
" style="fill:none;stroke:#ff0000;stroke-linecap:square;stroke-width:1.5;"/>
   </g>
   <g id="line2d_28">
    <path clip-path="url(#p8c43caf336)" d="M 70.414879 100.33661 
L 70.414879 74.972973 
L 72.105788 74.972973 
L 98.148896 92.60906 
L 99.305758 93.779191 
L 99.928219 95.302372 
L 99.921966 96.947821 
L 99.287944 98.466227 
L 98.122218 99.62753 
L 96.601414 100.255776 
L 70.414879 100.33661 
" style="fill:none;stroke:#ff0000;stroke-linecap:square;stroke-width:1.5;"/>
   </g>
   <g id="line2d_29">
    <path clip-path="url(#p8c43caf336)" d="M 118.085455 125.792129 
L 92.042347 108.156042 
L 90.885484 106.985911 
L 90.263023 105.46273 
L 90.269276 103.817281 
L 90.903298 102.298875 
L 92.069024 101.137572 
L 93.589828 100.509326 
L 119.776364 100.428493 
L 119.776364 125.792129 
L 118.085455 125.792129 
" style="fill:none;stroke:#ff0000;stroke-linecap:square;stroke-width:1.5;"/>
   </g>
   <g id="line2d_30">
    <path clip-path="url(#p8c43caf336)" d="M 103.379818 159.174545 
L 77.33671 141.538458 
L 76.179847 140.368327 
L 75.557386 138.845146 
L 75.563639 137.199697 
L 76.197661 135.681291 
L 77.363387 134.519988 
L 78.884191 133.891743 
L 105.070727 133.810909 
L 105.070727 159.174545 
L 103.379818 159.174545 
" style="fill:none;stroke:#ff0000;stroke-linecap:square;stroke-width:1.5;"/>
   </g>
   <g id="line2d_31">
    <path clip-path="url(#p8c43caf336)" d="M 77.684284 168.511791 
L 77.684284 143.148155 
L 79.375193 143.148155 
L 105.418301 160.784242 
L 106.575163 161.954373 
L 107.197624 163.477554 
L 107.191371 165.123003 
L 106.55735 166.641409 
L 105.391623 167.802712 
L 103.87082 168.430957 
L 77.684284 168.511791 
" style="fill:none;stroke:#ff0000;stroke-linecap:square;stroke-width:1.5;"/>
   </g>
   <g id="line2d_32">
    <path clip-path="url(#p8c43caf336)" d="M 315.921818 105.978763 
L 289.87871 88.342676 
L 288.721848 87.172545 
L 288.099387 85.649364 
L 288.10564 84.003915 
L 288.739662 82.485509 
L 289.905388 81.324206 
L 291.426191 80.695961 
L 317.612727 80.615127 
L 317.612727 105.978763 
L 315.921818 105.978763 
" style="fill:none;stroke:#ff0000;stroke-linecap:square;stroke-width:1.5;"/>
   </g>
   <g id="line2d_33">
    <path clip-path="url(#p8c43caf336)" d="M 288.099387 113.831293 
L 288.099387 88.467657 
L 289.790296 88.467657 
L 315.833404 106.103744 
L 316.990266 107.273875 
L 317.612727 108.797056 
L 317.606474 110.442505 
L 316.972453 111.960911 
L 315.806726 113.122214 
L 314.285923 113.75046 
L 288.099387 113.831293 
" style="fill:none;stroke:#ff0000;stroke-linecap:square;stroke-width:1.5;"/>
   </g>
   <g id="line2d_34">
    <path clip-path="url(#p8c43caf336)" d="M 301.852815 138.689567 
L 300.880901 138.55594 
L 299.103059 137.747684 
L 298.247471 137.016847 
L 286.466557 123.327104 
L 286.459286 120.124522 
L 286.46233 113.859365 
L 312.532935 113.858182 
L 314.503847 114.256102 
L 316.166133 115.387278 
L 316.797114 116.176354 
L 317.534998 118.046724 
L 317.612727 119.054065 
L 317.170512 121.015494 
L 305.457664 137.386675 
L 303.782819 138.391097 
L 301.852815 138.689567 
" style="fill:none;stroke:#ff0000;stroke-linecap:square;stroke-width:1.5;"/>
   </g>
   <g id="line2d_35">
    <path clip-path="url(#p8c43caf336)" d="M 357.652815 216.978658 
L 356.680901 216.845031 
L 354.903059 216.036775 
L 354.047471 215.305938 
L 342.266557 201.616195 
L 342.259286 198.413613 
L 342.26233 192.148456 
L 368.332935 192.147273 
L 370.303847 192.545193 
L 371.966133 193.676369 
L 372.597114 194.465445 
L 373.334998 196.335815 
L 373.412727 197.343156 
L 372.970512 199.304585 
L 361.257664 215.675765 
L 359.582819 216.680187 
L 357.652815 216.978658 
" style="fill:none;stroke:#ff0000;stroke-linecap:square;stroke-width:1.5;"/>
   </g>
   <g id="line2d_36">
    <path clip-path="url(#p8c43caf336)" d="M 301.852815 163.545455 
L 300.880901 163.411828 
L 299.103059 162.603572 
L 298.247471 161.872735 
L 286.466557 148.182992 
L 286.459286 144.98041 
L 286.46233 138.715253 
L 312.532935 138.71407 
L 314.503847 139.11199 
L 316.166133 140.243166 
L 316.797114 141.032242 
L 317.534998 142.902612 
L 317.612727 143.909953 
L 317.170512 145.871382 
L 305.457664 162.242563 
L 303.782819 163.246985 
L 301.852815 163.545455 
" style="fill:none;stroke:#ff0000;stroke-linecap:square;stroke-width:1.5;"/>
   </g>
   <g id="line2d_37">
    <path clip-path="url(#p8c43caf336)" d="M 301.852815 188.401819 
L 300.880901 188.268191 
L 299.103059 187.459935 
L 298.247471 186.729099 
L 286.466557 173.039355 
L 286.459286 169.836773 
L 286.46233 163.571617 
L 312.532935 163.570433 
L 314.503847 163.968353 
L 316.166133 165.099529 
L 316.797114 165.888606 
L 317.534998 167.758976 
L 317.612727 168.766316 
L 317.170512 170.727746 
L 305.457664 187.098926 
L 303.782819 188.103348 
L 301.852815 188.401819 
" style="fill:none;stroke:#ff0000;stroke-linecap:square;stroke-width:1.5;"/>
   </g>
   <g id="line2d_38">
    <path clip-path="url(#p8c43caf336)" d="M 326.370997 216.978658 
L 325.399083 216.845031 
L 323.621241 216.036775 
L 322.765653 215.305938 
L 310.984739 201.616195 
L 310.977468 198.413613 
L 310.980512 192.148456 
L 337.051117 192.147273 
L 339.022029 192.545193 
L 340.684314 193.676369 
L 341.315296 194.465445 
L 342.05318 196.335815 
L 342.130909 197.343156 
L 341.688694 199.304585 
L 329.975846 215.675765 
L 328.301001 216.680187 
L 326.370997 216.978658 
" style="fill:none;stroke:#ff0000;stroke-linecap:square;stroke-width:1.5;"/>
   </g>
   <g id="line2d_39">
    <path clip-path="url(#p8c43caf336)" d="M 270.741832 169.094631 
L 269.769918 168.961003 
L 267.992076 168.152747 
L 267.136488 167.421911 
L 255.355574 153.732167 
L 255.348303 150.529585 
L 255.351347 144.264429 
L 281.421952 144.263245 
L 283.392864 144.661165 
L 285.05515 145.792341 
L 285.686131 146.581417 
L 286.424015 148.451787 
L 286.501744 149.459128 
L 286.059529 151.420557 
L 274.346682 167.791738 
L 272.671836 168.79616 
L 270.741832 169.094631 
" style="fill:none;stroke:#ff0000;stroke-linecap:square;stroke-width:1.5;"/>
   </g>
   <g id="line2d_40">
    <path clip-path="url(#p8c43caf336)" d="M 295.089179 213.256486 
L 294.117265 213.122858 
L 292.339423 212.314602 
L 291.483834 211.583766 
L 279.702921 197.894022 
L 279.69565 194.69144 
L 279.698694 188.426284 
L 305.769299 188.4251 
L 307.740211 188.82302 
L 309.402496 189.954196 
L 310.033478 190.743272 
L 310.771362 192.613643 
L 310.849091 193.620983 
L 310.406876 195.582412 
L 298.694028 211.953593 
L 297.019183 212.958015 
L 295.089179 213.256486 
" style="fill:none;stroke:#ff0000;stroke-linecap:square;stroke-width:1.5;"/>
   </g>
   <g id="line2d_41">
    <path clip-path="url(#p8c43caf336)" d="M 270.347092 187.160926 
L 278.801638 161.79729 
L 295.710729 187.160926 
L 270.347092 187.160926 
" style="fill:none;stroke:#ff0000;stroke-linecap:square;stroke-width:1.5;"/>
   </g>
   <g id="line2d_42">
    <path clip-path="url(#p8c43caf336)" d="M 332.742349 225.504354 
L 341.196894 200.140717 
L 358.105985 225.504354 
L 332.742349 225.504354 
" style="fill:none;stroke:#ff0000;stroke-linecap:square;stroke-width:1.5;"/>
   </g>
   <g id="line2d_43">
    <path clip-path="url(#p8c43caf336)" d="M 300.175914 223.590264 
L 308.630459 198.226628 
L 325.53955 223.590264 
L 300.175914 223.590264 
" style="fill:none;stroke:#ff0000;stroke-linecap:square;stroke-width:1.5;"/>
   </g>
   <g id="line2d_44">
    <path clip-path="url(#p8c43caf336)" d="M 240.403989 169.638998 
L 248.858534 144.275362 
L 265.767625 169.638998 
L 240.403989 169.638998 
" style="fill:none;stroke:#ff0000;stroke-linecap:square;stroke-width:1.5;"/>
   </g>
   <g id="line2d_45">
    <path clip-path="url(#p8c43caf336)" d="M 267.478486 195.190909 
L 250.569395 169.827273 
L 275.933031 169.827273 
L 267.478486 195.190909 
" style="fill:none;stroke:#ff0000;stroke-linecap:square;stroke-width:1.5;"/>
   </g>
   <g id="patch_33">
    <path d="M 54 252 
L 54 34.56 
" style="fill:none;stroke:#000000;stroke-linecap:square;stroke-linejoin:miter;stroke-width:0.8;"/>
   </g>
   <g id="patch_34">
    <path d="M 388.8 252 
L 388.8 34.56 
" style="fill:none;stroke:#000000;stroke-linecap:square;stroke-linejoin:miter;stroke-width:0.8;"/>
   </g>
   <g id="patch_35">
    <path d="M 54 252 
L 388.8 252 
" style="fill:none;stroke:#000000;stroke-linecap:square;stroke-linejoin:miter;stroke-width:0.8;"/>
   </g>
   <g id="patch_36">
    <path d="M 54 34.56 
L 388.8 34.56 
" style="fill:none;stroke:#000000;stroke-linecap:square;stroke-linejoin:miter;stroke-width:0.8;"/>
   </g>
  </g>
 </g>
 <defs>
  <clipPath id="p8c43caf336">
   <rect height="217.44" width="334.8" x="54" y="34.56"/>
  </clipPath>
 </defs>
</svg>
