<?xml version="1.0" encoding="utf-8" standalone="no"?>
<!DOCTYPE svg PUBLIC "-//W3C//DTD SVG 1.1//EN"
  "http://www.w3.org/Graphics/SVG/1.1/DTD/svg11.dtd">
<!-- Created with matplotlib (https://matplotlib.org/) -->
<svg height="288pt" version="1.1" viewBox="0 0 432 288" width="432pt" xmlns="http://www.w3.org/2000/svg" xmlns:xlink="http://www.w3.org/1999/xlink">
 <defs>
  <style type="text/css">
*{stroke-linecap:butt;stroke-linejoin:round;}
  </style>
 </defs>
 <g id="figure_1">
  <g id="patch_1">
   <path d="M 0 288 
L 432 288 
L 432 0 
L 0 0 
z
" style="fill:#ffffff;"/>
  </g>
  <g id="axes_1">
   <g id="patch_2">
    <path d="M 54 252 
L 388.8 252 
L 388.8 34.56 
L 54 34.56 
z
" style="fill:#ffffff;"/>
   </g>
   <g id="patch_3">
    <path clip-path="url(#p50d1fa988d)" d="M 69.218182 172.860638 
L 69.218182 227.825455 
L 174.907336 227.825455 
z
" style="fill:#aaaaaa;"/>
   </g>
   <g id="patch_4">
    <path clip-path="url(#p50d1fa988d)" d="M 105.040687 136.800432 
L 107.85789 170.606875 
L 145.608419 168.916553 
L 140.537452 132.292906 
z
" style="fill:#aaaaaa;"/>
   </g>
   <g id="patch_5">
    <path clip-path="url(#p50d1fa988d)" d="M 89.827787 58.734545 
L 88.700906 58.734545 
L 97.152516 91.725174 
L 207.412119 122.702872 
L 206.460017 144.125161 
L 276.890108 144.125161 
L 292.666448 58.734545 
L 117.436383 58.734545 
z
" style="fill:#aaaaaa;"/>
   </g>
   <g id="patch_6">
    <path clip-path="url(#p50d1fa988d)" d="M 79.69676 129.439687 
L 79.005392 101.561272 
L 69.490304 101.788019 
L 70.295107 134.937824 
L 125.893882 133.593918 
L 125.096449 100.448163 
L 117.082524 100.641701 
L 117.754621 128.520581 
z
" style="fill:#f6929c;"/>
   </g>
   <g id="patch_7">
    <path clip-path="url(#p50d1fa988d)" d="M 327.326324 86.79366 
L 327.308231 58.90668 
L 317.790442 58.903636 
L 317.794669 92.063209 
L 373.409684 92.062025 
L 373.412727 58.90668 
L 365.396465 58.90668 
L 365.395282 86.79366 
z
" style="fill:#f6929c;"/>
   </g>
   <g id="patch_8">
    <path clip-path="url(#p50d1fa988d)" d="M 326.842571 121.118951 
L 326.959846 93.232212 
L 317.442184 93.182968 
L 317.28545 126.34217 
L 372.899815 126.610949 
L 373.063799 93.456009 
L 365.047632 93.417097 
L 364.911081 121.303743 
z
" style="fill:#f6929c;"/>
   </g>
   <g id="patch_9">
    <path clip-path="url(#p50d1fa988d)" d="M 326.783721 155.337961 
L 326.808186 127.450986 
L 317.290413 127.433417 
L 317.244036 160.592958 
L 372.858987 160.676648 
L 372.912629 127.521346 
L 364.896377 127.509112 
L 364.852635 155.396058 
z
" style="fill:#f6929c;"/>
   </g>
   <g id="patch_10">
    <path clip-path="url(#p50d1fa988d)" d="M 327.283819 188.682844 
L 327.308285 160.795869 
L 317.790511 160.778301 
L 317.744134 193.937841 
L 373.359086 194.021531 
L 373.412727 160.866229 
L 365.396475 160.853995 
L 365.352733 188.740941 
z
" style="fill:#f6929c;"/>
   </g>
   <g id="patch_11">
    <path clip-path="url(#p50d1fa988d)" d="M 149.863601 132.76499 
L 128.003883 130.451327 
L 126.866998 129.832976 
L 126.50034 128.591836 
L 128.814003 106.732117 
L 129.432354 105.595232 
L 130.673494 105.228575 
L 152.533212 107.542238 
L 153.670097 108.160589 
L 154.036755 109.401729 
L 151.723092 131.261447 
L 151.104741 132.398332 
z
" style="fill:#f6929c;"/>
   </g>
   <g id="patch_12">
    <path clip-path="url(#p50d1fa988d)" d="M 362.889283 85.352619 
L 340.913785 84.825514 
L 339.730351 84.30173 
L 339.263909 83.094545 
L 339.791014 61.119047 
L 340.314797 59.935613 
L 341.521983 59.469171 
L 363.49748 59.996275 
L 364.680915 60.520059 
L 365.147357 61.727245 
L 364.620252 83.702742 
L 364.096468 84.886176 
z
" style="fill:#f6929c;"/>
   </g>
   <g id="patch_13">
    <path clip-path="url(#p50d1fa988d)" d="M 341.480336 186.200389 
L 340.284682 185.705133 
L 339.789427 184.50948 
L 339.789427 162.527661 
L 340.284682 161.332008 
L 341.480336 160.836752 
L 363.462154 160.836752 
L 364.657808 161.332008 
L 365.153063 162.527661 
L 365.153063 184.50948 
L 364.657808 185.705133 
L 363.462154 186.200389 
z
" style="fill:#f6929c;"/>
   </g>
   <g id="patch_14">
    <path clip-path="url(#p50d1fa988d)" d="M 340.288645 155.126563 
L 339.079872 154.664249 
L 338.552047 153.482612 
L 337.949837 131.509045 
L 338.412151 130.300272 
L 339.593788 129.772446 
L 361.567355 129.170236 
L 362.776128 129.63255 
L 363.303954 130.814187 
L 363.906163 152.787755 
L 363.44385 153.996528 
L 362.262213 154.524353 
z
" style="fill:#f6929c;"/>
   </g>
   <g id="patch_15">
    <path clip-path="url(#p50d1fa988d)" d="M 362.347219 118.1105 
L 336.128322 100.736828 
L 334.959767 99.578373 
L 334.322042 98.061519 
L 334.311771 96.416091 
L 334.930512 94.891394 
L 336.084518 93.718444 
L 337.598936 93.074958 
L 363.78334 92.731162 
L 364.038043 118.093519 
z
" style="fill:#f6929c;"/>
   </g>
   <g id="patch_16">
    <path clip-path="url(#p50d1fa988d)" d="M 69.785389 100.4007 
L 69.412959 75.039798 
L 71.103686 75.014969 
L 97.402947 92.266748 
L 98.576867 93.419766 
L 99.221626 94.933643 
L 99.239535 96.579007 
L 98.627878 98.106559 
L 97.479329 99.284853 
L 95.967914 99.935362 
z
" style="fill:#f6929c;"/>
   </g>
   <g id="patch_17">
    <path clip-path="url(#p50d1fa988d)" d="M 114.969459 124.704244 
L 88.079113 108.389087 
L 86.865327 107.278114 
L 86.167667 105.787876 
L 86.091841 104.144164 
L 86.649338 102.596024 
L 87.75569 101.378022 
L 89.243265 100.674704 
L 115.393175 99.287838 
L 116.658263 124.619904 
z
" style="fill:#f6929c;"/>
   </g>
   <g id="patch_18">
    <path clip-path="url(#p50d1fa988d)" d="M 104.574419 159.883261 
L 77.178258 144.43252 
L 75.929715 143.360756 
L 75.184963 141.893486 
L 75.056841 140.25302 
L 75.564766 138.687916 
L 76.631777 137.435307 
L 78.096206 136.684984 
L 104.188703 134.46625 
L 106.259682 159.745196 
z
" style="fill:#f6929c;"/>
   </g>
   <g id="patch_19">
    <path clip-path="url(#p50d1fa988d)" d="M 70.391264 166.978611 
L 69.482074 141.631276 
L 71.171896 141.570663 
L 97.830454 158.261869 
L 99.028517 159.389779 
L 99.705179 160.889668 
L 99.757913 162.534284 
L 99.178728 164.074441 
L 98.055379 165.276784 
L 96.558073 165.959141 
z
" style="fill:#f6929c;"/>
   </g>
   <g id="patch_20">
    <path clip-path="url(#p50d1fa988d)" d="M 315.507095 108.230755 
L 289.463987 90.594667 
L 288.307125 89.424536 
L 287.684664 87.901355 
L 287.690917 86.255906 
L 288.324938 84.7375 
L 289.490665 83.576198 
L 291.011468 82.947952 
L 317.198004 82.867118 
L 317.198004 108.230755 
z
" style="fill:#f6929c;"/>
   </g>
   <g id="patch_21">
    <path clip-path="url(#p50d1fa988d)" d="M 294.45537 122.94116 
L 292.505736 122.827585 
L 290.742954 121.98699 
L 290.015194 121.329086 
L 289.001572 119.659783 
L 288.706343 118.573969 
L 286.684136 100.626554 
L 288.482197 97.976354 
L 292.013981 92.801541 
L 313.555247 107.486577 
L 314.95954 108.925603 
L 315.695778 110.796621 
L 315.77262 111.80403 
L 315.328679 113.765069 
L 314.82545 114.641161 
L 313.355167 116.012667 
z
" style="fill:#f6929c;"/>
   </g>
   <g id="patch_22">
    <path clip-path="url(#p50d1fa988d)" d="M 310.859806 145.323844 
L 309.743654 145.181166 
L 292.388143 140.182639 
L 290.627554 137.507399 
L 287.197789 132.264413 
L 309.007348 117.980869 
L 310.874175 117.234015 
L 312.884518 117.269669 
L 313.844675 117.584118 
L 315.486641 118.744594 
L 316.103531 119.544734 
L 316.808134 121.427894 
L 315.978181 141.540516 
L 315.127298 143.298347 
L 313.676206 144.605378 
L 312.789913 145.026042 
z
" style="fill:#f6929c;"/>
   </g>
   <g id="patch_23">
    <path clip-path="url(#p50d1fa988d)" d="M 358.267574 219.480697 
L 357.291317 219.383758 
L 355.484304 218.643013 
L 354.601805 217.944909 
L 342.313805 204.708442 
L 342.185957 201.508405 
L 341.953106 195.247576 
L 368.005181 194.264795 
L 369.989678 194.588225 
L 371.693375 195.656012 
L 372.353619 196.420771 
L 373.161402 198.262033 
L 373.277004 199.265732 
L 372.908953 201.242421 
L 361.820811 218.043 
L 360.184971 219.10977 
z
" style="fill:#f6929c;"/>
   </g>
   <g id="patch_24">
    <path clip-path="url(#p50d1fa988d)" d="M 297.444795 168.369206 
L 295.522137 168.026589 
L 294.64587 167.585422 
L 293.225572 166.244991 
L 292.65276 165.276467 
L 285.939909 148.509337 
L 286.970141 145.476977 
L 289.001902 139.550415 
L 313.668032 147.99189 
L 315.403877 149.006619 
L 316.610273 150.615147 
L 316.951721 151.566037 
L 317.04415 153.574573 
L 316.791478 154.552802 
L 315.737912 156.265332 
L 299.354656 167.961284 
z
" style="fill:#f6929c;"/>
   </g>
   <g id="patch_25">
    <path clip-path="url(#p50d1fa988d)" d="M 312.080602 188.419504 
L 310.961657 188.300701 
L 293.503333 183.674047 
L 291.685999 181.037025 
L 288.145021 175.868499 
L 309.644491 161.122339 
L 311.494939 160.335778 
L 313.505585 160.32848 
L 314.472239 160.622347 
L 316.13862 161.747484 
L 316.772461 162.534264 
L 317.517129 164.401944 
L 317.116993 184.527704 
L 316.303854 186.30331 
L 314.881012 187.64104 
L 314.003908 188.08054 
z
" style="fill:#f6929c;"/>
   </g>
   <g id="patch_26">
    <path clip-path="url(#p50d1fa988d)" d="M 323.083682 220.422812 
L 322.142576 220.145697 
L 320.505195 219.081279 
L 319.7682 218.23099 
L 310.161232 202.937032 
L 310.631779 199.769198 
L 311.569377 193.574595 
L 337.34846 197.462438 
L 339.237961 198.149912 
L 340.712908 199.516398 
L 341.219121 200.39077 
L 341.669741 202.350285 
L 341.596333 203.35795 
L 340.866475 205.231467 
L 326.842553 219.672241 
L 325.036615 220.415584 
z
" style="fill:#f6929c;"/>
   </g>
   <g id="patch_27">
    <path clip-path="url(#p50d1fa988d)" d="M 270.097974 169.173602 
L 269.12598 169.040562 
L 267.34765 168.23338 
L 266.49162 167.503061 
L 254.702437 153.820437 
L 254.693231 150.617861 
L 254.69249 144.352704 
L 280.76309 144.335768 
L 282.734242 144.732497 
L 284.39721 145.862669 
L 285.028668 146.651364 
L 285.767682 148.521288 
L 285.84602 149.528581 
L 285.40499 151.490277 
L 273.702036 167.868532 
L 272.027797 168.873965 
z
" style="fill:#f6929c;"/>
   </g>
   <g id="patch_28">
    <path clip-path="url(#p50d1fa988d)" d="M 286.269612 188.739311 
L 266.54128 172.798578 
L 289.058124 158.383824 
z
" style="fill:#f6929c;"/>
   </g>
   <g id="patch_29">
    <path clip-path="url(#p50d1fa988d)" d="M 299.340918 212.102906 
L 288.911461 183.459271 
L 313.555265 189.459017 
z
" style="fill:#f6929c;"/>
   </g>
   <g id="patch_30">
    <path clip-path="url(#p50d1fa988d)" d="M 324.659682 226.753514 
L 299.296055 226.73122 
L 307.772892 201.375025 
z
" style="fill:#f6929c;"/>
   </g>
   <g id="patch_31">
    <path clip-path="url(#p50d1fa988d)" d="M 240.864665 170.837567 
L 247.299237 144.887815 
L 266.149814 168.843756 
z
" style="fill:#f6929c;"/>
   </g>
   <g id="patch_32">
    <path clip-path="url(#p50d1fa988d)" d="M 270.659772 206.936874 
L 275.881479 180.716135 
L 295.824949 203.770189 
z
" style="fill:#f6929c;"/>
   </g>
   <g id="matplotlib.axis_1">
    <g id="xtick_1">
     <g id="line2d_1">
      <defs>
       <path d="M 0 0 
L 0 3.5 
" id="m066c977d99" style="stroke:#000000;stroke-width:0.8;"/>
      </defs>
      <g>
       <use style="stroke:#000000;stroke-width:0.8;" x="69.218182" xlink:href="#m066c977d99" y="252"/>
      </g>
     </g>
     <g id="text_1">
      <!-- 0 -->
      <defs>
       <path d="M 31.78125 66.40625 
Q 24.171875 66.40625 20.328125 58.90625 
Q 16.5 51.421875 16.5 36.375 
Q 16.5 21.390625 20.328125 13.890625 
Q 24.171875 6.390625 31.78125 6.390625 
Q 39.453125 6.390625 43.28125 13.890625 
Q 47.125 21.390625 47.125 36.375 
Q 47.125 51.421875 43.28125 58.90625 
Q 39.453125 66.40625 31.78125 66.40625 
z
M 31.78125 74.21875 
Q 44.046875 74.21875 50.515625 64.515625 
Q 56.984375 54.828125 56.984375 36.375 
Q 56.984375 17.96875 50.515625 8.265625 
Q 44.046875 -1.421875 31.78125 -1.421875 
Q 19.53125 -1.421875 13.0625 8.265625 
Q 6.59375 17.96875 6.59375 36.375 
Q 6.59375 54.828125 13.0625 64.515625 
Q 19.53125 74.21875 31.78125 74.21875 
z
" id="DejaVuSans-48"/>
      </defs>
      <g transform="translate(66.036932 266.598437)scale(0.1 -0.1)">
       <use xlink:href="#DejaVuSans-48"/>
      </g>
     </g>
    </g>
    <g id="xtick_2">
     <g id="line2d_2">
      <g>
       <use style="stroke:#000000;stroke-width:0.8;" x="111.490909" xlink:href="#m066c977d99" y="252"/>
      </g>
     </g>
     <g id="text_2">
      <!-- 250 -->
      <defs>
       <path d="M 19.1875 8.296875 
L 53.609375 8.296875 
L 53.609375 0 
L 7.328125 0 
L 7.328125 8.296875 
Q 12.9375 14.109375 22.625 23.890625 
Q 32.328125 33.6875 34.8125 36.53125 
Q 39.546875 41.84375 41.421875 45.53125 
Q 43.3125 49.21875 43.3125 52.78125 
Q 43.3125 58.59375 39.234375 62.25 
Q 35.15625 65.921875 28.609375 65.921875 
Q 23.96875 65.921875 18.8125 64.3125 
Q 13.671875 62.703125 7.8125 59.421875 
L 7.8125 69.390625 
Q 13.765625 71.78125 18.9375 73 
Q 24.125 74.21875 28.421875 74.21875 
Q 39.75 74.21875 46.484375 68.546875 
Q 53.21875 62.890625 53.21875 53.421875 
Q 53.21875 48.921875 51.53125 44.890625 
Q 49.859375 40.875 45.40625 35.40625 
Q 44.1875 33.984375 37.640625 27.21875 
Q 31.109375 20.453125 19.1875 8.296875 
z
" id="DejaVuSans-50"/>
       <path d="M 10.796875 72.90625 
L 49.515625 72.90625 
L 49.515625 64.59375 
L 19.828125 64.59375 
L 19.828125 46.734375 
Q 21.96875 47.46875 24.109375 47.828125 
Q 26.265625 48.1875 28.421875 48.1875 
Q 40.625 48.1875 47.75 41.5 
Q 54.890625 34.8125 54.890625 23.390625 
Q 54.890625 11.625 47.5625 5.09375 
Q 40.234375 -1.421875 26.90625 -1.421875 
Q 22.3125 -1.421875 17.546875 -0.640625 
Q 12.796875 0.140625 7.71875 1.703125 
L 7.71875 11.625 
Q 12.109375 9.234375 16.796875 8.0625 
Q 21.484375 6.890625 26.703125 6.890625 
Q 35.15625 6.890625 40.078125 11.328125 
Q 45.015625 15.765625 45.015625 23.390625 
Q 45.015625 31 40.078125 35.4375 
Q 35.15625 39.890625 26.703125 39.890625 
Q 22.75 39.890625 18.8125 39.015625 
Q 14.890625 38.140625 10.796875 36.28125 
z
" id="DejaVuSans-53"/>
      </defs>
      <g transform="translate(101.947159 266.598437)scale(0.1 -0.1)">
       <use xlink:href="#DejaVuSans-50"/>
       <use x="63.623047" xlink:href="#DejaVuSans-53"/>
       <use x="127.246094" xlink:href="#DejaVuSans-48"/>
      </g>
     </g>
    </g>
    <g id="xtick_3">
     <g id="line2d_3">
      <g>
       <use style="stroke:#000000;stroke-width:0.8;" x="153.763636" xlink:href="#m066c977d99" y="252"/>
      </g>
     </g>
     <g id="text_3">
      <!-- 500 -->
      <g transform="translate(144.219886 266.598437)scale(0.1 -0.1)">
       <use xlink:href="#DejaVuSans-53"/>
       <use x="63.623047" xlink:href="#DejaVuSans-48"/>
       <use x="127.246094" xlink:href="#DejaVuSans-48"/>
      </g>
     </g>
    </g>
    <g id="xtick_4">
     <g id="line2d_4">
      <g>
       <use style="stroke:#000000;stroke-width:0.8;" x="196.036364" xlink:href="#m066c977d99" y="252"/>
      </g>
     </g>
     <g id="text_4">
      <!-- 750 -->
      <defs>
       <path d="M 8.203125 72.90625 
L 55.078125 72.90625 
L 55.078125 68.703125 
L 28.609375 0 
L 18.3125 0 
L 43.21875 64.59375 
L 8.203125 64.59375 
z
" id="DejaVuSans-55"/>
      </defs>
      <g transform="translate(186.492614 266.598437)scale(0.1 -0.1)">
       <use xlink:href="#DejaVuSans-55"/>
       <use x="63.623047" xlink:href="#DejaVuSans-53"/>
       <use x="127.246094" xlink:href="#DejaVuSans-48"/>
      </g>
     </g>
    </g>
    <g id="xtick_5">
     <g id="line2d_5">
      <g>
       <use style="stroke:#000000;stroke-width:0.8;" x="238.309091" xlink:href="#m066c977d99" y="252"/>
      </g>
     </g>
     <g id="text_5">
      <!-- 1000 -->
      <defs>
       <path d="M 12.40625 8.296875 
L 28.515625 8.296875 
L 28.515625 63.921875 
L 10.984375 60.40625 
L 10.984375 69.390625 
L 28.421875 72.90625 
L 38.28125 72.90625 
L 38.28125 8.296875 
L 54.390625 8.296875 
L 54.390625 0 
L 12.40625 0 
z
" id="DejaVuSans-49"/>
      </defs>
      <g transform="translate(225.584091 266.598437)scale(0.1 -0.1)">
       <use xlink:href="#DejaVuSans-49"/>
       <use x="63.623047" xlink:href="#DejaVuSans-48"/>
       <use x="127.246094" xlink:href="#DejaVuSans-48"/>
       <use x="190.869141" xlink:href="#DejaVuSans-48"/>
      </g>
     </g>
    </g>
    <g id="xtick_6">
     <g id="line2d_6">
      <g>
       <use style="stroke:#000000;stroke-width:0.8;" x="280.581818" xlink:href="#m066c977d99" y="252"/>
      </g>
     </g>
     <g id="text_6">
      <!-- 1250 -->
      <g transform="translate(267.856818 266.598437)scale(0.1 -0.1)">
       <use xlink:href="#DejaVuSans-49"/>
       <use x="63.623047" xlink:href="#DejaVuSans-50"/>
       <use x="127.246094" xlink:href="#DejaVuSans-53"/>
       <use x="190.869141" xlink:href="#DejaVuSans-48"/>
      </g>
     </g>
    </g>
    <g id="xtick_7">
     <g id="line2d_7">
      <g>
       <use style="stroke:#000000;stroke-width:0.8;" x="322.854545" xlink:href="#m066c977d99" y="252"/>
      </g>
     </g>
     <g id="text_7">
      <!-- 1500 -->
      <g transform="translate(310.129545 266.598437)scale(0.1 -0.1)">
       <use xlink:href="#DejaVuSans-49"/>
       <use x="63.623047" xlink:href="#DejaVuSans-53"/>
       <use x="127.246094" xlink:href="#DejaVuSans-48"/>
       <use x="190.869141" xlink:href="#DejaVuSans-48"/>
      </g>
     </g>
    </g>
    <g id="xtick_8">
     <g id="line2d_8">
      <g>
       <use style="stroke:#000000;stroke-width:0.8;" x="365.127273" xlink:href="#m066c977d99" y="252"/>
      </g>
     </g>
     <g id="text_8">
      <!-- 1750 -->
      <g transform="translate(352.402273 266.598437)scale(0.1 -0.1)">
       <use xlink:href="#DejaVuSans-49"/>
       <use x="63.623047" xlink:href="#DejaVuSans-55"/>
       <use x="127.246094" xlink:href="#DejaVuSans-53"/>
       <use x="190.869141" xlink:href="#DejaVuSans-48"/>
      </g>
     </g>
    </g>
   </g>
   <g id="matplotlib.axis_2">
    <g id="ytick_1">
     <g id="line2d_9">
      <defs>
       <path d="M 0 0 
L -3.5 0 
" id="m68fe0cbccb" style="stroke:#000000;stroke-width:0.8;"/>
      </defs>
      <g>
       <use style="stroke:#000000;stroke-width:0.8;" x="54" xlink:href="#m68fe0cbccb" y="227.825455"/>
      </g>
     </g>
     <g id="text_9">
      <!-- 0 -->
      <g transform="translate(40.6375 231.624673)scale(0.1 -0.1)">
       <use xlink:href="#DejaVuSans-48"/>
      </g>
     </g>
    </g>
    <g id="ytick_2">
     <g id="line2d_10">
      <g>
       <use style="stroke:#000000;stroke-width:0.8;" x="54" xlink:href="#m68fe0cbccb" y="194.007273"/>
      </g>
     </g>
     <g id="text_10">
      <!-- 200 -->
      <g transform="translate(27.9125 197.806491)scale(0.1 -0.1)">
       <use xlink:href="#DejaVuSans-50"/>
       <use x="63.623047" xlink:href="#DejaVuSans-48"/>
       <use x="127.246094" xlink:href="#DejaVuSans-48"/>
      </g>
     </g>
    </g>
    <g id="ytick_3">
     <g id="line2d_11">
      <g>
       <use style="stroke:#000000;stroke-width:0.8;" x="54" xlink:href="#m68fe0cbccb" y="160.189091"/>
      </g>
     </g>
     <g id="text_11">
      <!-- 400 -->
      <defs>
       <path d="M 37.796875 64.3125 
L 12.890625 25.390625 
L 37.796875 25.390625 
z
M 35.203125 72.90625 
L 47.609375 72.90625 
L 47.609375 25.390625 
L 58.015625 25.390625 
L 58.015625 17.1875 
L 47.609375 17.1875 
L 47.609375 0 
L 37.796875 0 
L 37.796875 17.1875 
L 4.890625 17.1875 
L 4.890625 26.703125 
z
" id="DejaVuSans-52"/>
      </defs>
      <g transform="translate(27.9125 163.98831)scale(0.1 -0.1)">
       <use xlink:href="#DejaVuSans-52"/>
       <use x="63.623047" xlink:href="#DejaVuSans-48"/>
       <use x="127.246094" xlink:href="#DejaVuSans-48"/>
      </g>
     </g>
    </g>
    <g id="ytick_4">
     <g id="line2d_12">
      <g>
       <use style="stroke:#000000;stroke-width:0.8;" x="54" xlink:href="#m68fe0cbccb" y="126.370909"/>
      </g>
     </g>
     <g id="text_12">
      <!-- 600 -->
      <defs>
       <path d="M 33.015625 40.375 
Q 26.375 40.375 22.484375 35.828125 
Q 18.609375 31.296875 18.609375 23.390625 
Q 18.609375 15.53125 22.484375 10.953125 
Q 26.375 6.390625 33.015625 6.390625 
Q 39.65625 6.390625 43.53125 10.953125 
Q 47.40625 15.53125 47.40625 23.390625 
Q 47.40625 31.296875 43.53125 35.828125 
Q 39.65625 40.375 33.015625 40.375 
z
M 52.59375 71.296875 
L 52.59375 62.3125 
Q 48.875 64.0625 45.09375 64.984375 
Q 41.3125 65.921875 37.59375 65.921875 
Q 27.828125 65.921875 22.671875 59.328125 
Q 17.53125 52.734375 16.796875 39.40625 
Q 19.671875 43.65625 24.015625 45.921875 
Q 28.375 48.1875 33.59375 48.1875 
Q 44.578125 48.1875 50.953125 41.515625 
Q 57.328125 34.859375 57.328125 23.390625 
Q 57.328125 12.15625 50.6875 5.359375 
Q 44.046875 -1.421875 33.015625 -1.421875 
Q 20.359375 -1.421875 13.671875 8.265625 
Q 6.984375 17.96875 6.984375 36.375 
Q 6.984375 53.65625 15.1875 63.9375 
Q 23.390625 74.21875 37.203125 74.21875 
Q 40.921875 74.21875 44.703125 73.484375 
Q 48.484375 72.75 52.59375 71.296875 
z
" id="DejaVuSans-54"/>
      </defs>
      <g transform="translate(27.9125 130.170128)scale(0.1 -0.1)">
       <use xlink:href="#DejaVuSans-54"/>
       <use x="63.623047" xlink:href="#DejaVuSans-48"/>
       <use x="127.246094" xlink:href="#DejaVuSans-48"/>
      </g>
     </g>
    </g>
    <g id="ytick_5">
     <g id="line2d_13">
      <g>
       <use style="stroke:#000000;stroke-width:0.8;" x="54" xlink:href="#m68fe0cbccb" y="92.552727"/>
      </g>
     </g>
     <g id="text_13">
      <!-- 800 -->
      <defs>
       <path d="M 31.78125 34.625 
Q 24.75 34.625 20.71875 30.859375 
Q 16.703125 27.09375 16.703125 20.515625 
Q 16.703125 13.921875 20.71875 10.15625 
Q 24.75 6.390625 31.78125 6.390625 
Q 38.8125 6.390625 42.859375 10.171875 
Q 46.921875 13.96875 46.921875 20.515625 
Q 46.921875 27.09375 42.890625 30.859375 
Q 38.875 34.625 31.78125 34.625 
z
M 21.921875 38.8125 
Q 15.578125 40.375 12.03125 44.71875 
Q 8.5 49.078125 8.5 55.328125 
Q 8.5 64.0625 14.71875 69.140625 
Q 20.953125 74.21875 31.78125 74.21875 
Q 42.671875 74.21875 48.875 69.140625 
Q 55.078125 64.0625 55.078125 55.328125 
Q 55.078125 49.078125 51.53125 44.71875 
Q 48 40.375 41.703125 38.8125 
Q 48.828125 37.15625 52.796875 32.3125 
Q 56.78125 27.484375 56.78125 20.515625 
Q 56.78125 9.90625 50.3125 4.234375 
Q 43.84375 -1.421875 31.78125 -1.421875 
Q 19.734375 -1.421875 13.25 4.234375 
Q 6.78125 9.90625 6.78125 20.515625 
Q 6.78125 27.484375 10.78125 32.3125 
Q 14.796875 37.15625 21.921875 38.8125 
z
M 18.3125 54.390625 
Q 18.3125 48.734375 21.84375 45.5625 
Q 25.390625 42.390625 31.78125 42.390625 
Q 38.140625 42.390625 41.71875 45.5625 
Q 45.3125 48.734375 45.3125 54.390625 
Q 45.3125 60.0625 41.71875 63.234375 
Q 38.140625 66.40625 31.78125 66.40625 
Q 25.390625 66.40625 21.84375 63.234375 
Q 18.3125 60.0625 18.3125 54.390625 
z
" id="DejaVuSans-56"/>
      </defs>
      <g transform="translate(27.9125 96.351946)scale(0.1 -0.1)">
       <use xlink:href="#DejaVuSans-56"/>
       <use x="63.623047" xlink:href="#DejaVuSans-48"/>
       <use x="127.246094" xlink:href="#DejaVuSans-48"/>
      </g>
     </g>
    </g>
    <g id="ytick_6">
     <g id="line2d_14">
      <g>
       <use style="stroke:#000000;stroke-width:0.8;" x="54" xlink:href="#m68fe0cbccb" y="58.734545"/>
      </g>
     </g>
     <g id="text_14">
      <!-- 1000 -->
      <g transform="translate(21.55 62.533764)scale(0.1 -0.1)">
       <use xlink:href="#DejaVuSans-49"/>
       <use x="63.623047" xlink:href="#DejaVuSans-48"/>
       <use x="127.246094" xlink:href="#DejaVuSans-48"/>
       <use x="190.869141" xlink:href="#DejaVuSans-48"/>
      </g>
     </g>
    </g>
   </g>
   <g id="line2d_15">
    <path clip-path="url(#p50d1fa988d)" d="M 69.218182 227.825455 
L 373.581818 227.825455 
L 373.581818 58.734545 
L 69.218182 58.734545 
L 69.218182 227.825455 
" style="fill:none;stroke:#000000;stroke-linecap:square;stroke-width:1.5;"/>
   </g>
   <g id="line2d_16">
    <path clip-path="url(#p50d1fa988d)" d="M 69.218182 172.860638 
L 69.218182 227.825455 
L 174.907336 227.825455 
L 69.218182 172.860638 
" style="fill:none;stroke:#000000;stroke-dasharray:5.55,2.4;stroke-dashoffset:0;stroke-width:1.5;"/>
   </g>
   <g id="line2d_17">
    <path clip-path="url(#p50d1fa988d)" d="M 105.040687 136.800432 
L 107.85789 170.606875 
L 145.608419 168.916553 
L 140.537452 132.292906 
L 105.040687 136.800432 
" style="fill:none;stroke:#000000;stroke-dasharray:5.55,2.4;stroke-dashoffset:0;stroke-width:1.5;"/>
   </g>
   <g id="line2d_18">
    <path clip-path="url(#p50d1fa988d)" d="M 89.827787 58.734545 
L 88.700906 58.734545 
L 97.152516 91.725174 
L 207.412119 122.702872 
L 206.460017 144.125161 
L 276.890108 144.125161 
L 292.666448 58.734545 
L 117.436383 58.734545 
L 89.827787 58.734545 
" style="fill:none;stroke:#000000;stroke-dasharray:5.55,2.4;stroke-dashoffset:0;stroke-width:1.5;"/>
   </g>
   <g id="line2d_19">
    <path clip-path="url(#p50d1fa988d)" d="M 79.69676 129.439687 
L 79.005392 101.561272 
L 69.490304 101.788019 
L 70.295107 134.937824 
L 125.893882 133.593918 
L 125.096449 100.448163 
L 117.082524 100.641701 
L 117.754621 128.520581 
L 79.69676 129.439687 
" style="fill:none;stroke:#ff0000;stroke-linecap:square;stroke-width:1.5;"/>
   </g>
   <g id="line2d_20">
    <path clip-path="url(#p50d1fa988d)" d="M 327.326324 86.79366 
L 327.308231 58.90668 
L 317.790442 58.903636 
L 317.794669 92.063209 
L 373.409684 92.062025 
L 373.412727 58.90668 
L 365.396465 58.90668 
L 365.395282 86.79366 
L 327.326324 86.79366 
" style="fill:none;stroke:#ff0000;stroke-linecap:square;stroke-width:1.5;"/>
   </g>
   <g id="line2d_21">
    <path clip-path="url(#p50d1fa988d)" d="M 326.842571 121.118951 
L 326.959846 93.232212 
L 317.442184 93.182968 
L 317.28545 126.34217 
L 372.899815 126.610949 
L 373.063799 93.456009 
L 365.047632 93.417097 
L 364.911081 121.303743 
L 326.842571 121.118951 
" style="fill:none;stroke:#ff0000;stroke-linecap:square;stroke-width:1.5;"/>
   </g>
   <g id="line2d_22">
    <path clip-path="url(#p50d1fa988d)" d="M 326.783721 155.337961 
L 326.808186 127.450986 
L 317.290413 127.433417 
L 317.244036 160.592958 
L 372.858987 160.676648 
L 372.912629 127.521346 
L 364.896377 127.509112 
L 364.852635 155.396058 
L 326.783721 155.337961 
" style="fill:none;stroke:#ff0000;stroke-linecap:square;stroke-width:1.5;"/>
   </g>
   <g id="line2d_23">
    <path clip-path="url(#p50d1fa988d)" d="M 327.283819 188.682844 
L 327.308285 160.795869 
L 317.790511 160.778301 
L 317.744134 193.937841 
L 373.359086 194.021531 
L 373.412727 160.866229 
L 365.396475 160.853995 
L 365.352733 188.740941 
L 327.283819 188.682844 
" style="fill:none;stroke:#ff0000;stroke-linecap:square;stroke-width:1.5;"/>
   </g>
   <g id="line2d_24">
    <path clip-path="url(#p50d1fa988d)" d="M 149.863601 132.76499 
L 128.003883 130.451327 
L 126.866998 129.832976 
L 126.50034 128.591836 
L 128.814003 106.732117 
L 129.432354 105.595232 
L 130.673494 105.228575 
L 152.533212 107.542238 
L 153.670097 108.160589 
L 154.036755 109.401729 
L 151.723092 131.261447 
L 151.104741 132.398332 
L 149.863601 132.76499 
" style="fill:none;stroke:#ff0000;stroke-linecap:square;stroke-width:1.5;"/>
   </g>
   <g id="line2d_25">
    <path clip-path="url(#p50d1fa988d)" d="M 362.889283 85.352619 
L 340.913785 84.825514 
L 339.730351 84.30173 
L 339.263909 83.094545 
L 339.791014 61.119047 
L 340.314797 59.935613 
L 341.521983 59.469171 
L 363.49748 59.996275 
L 364.680915 60.520059 
L 365.147357 61.727245 
L 364.620252 83.702742 
L 364.096468 84.886176 
L 362.889283 85.352619 
" style="fill:none;stroke:#ff0000;stroke-linecap:square;stroke-width:1.5;"/>
   </g>
   <g id="line2d_26">
    <path clip-path="url(#p50d1fa988d)" d="M 341.480336 186.200389 
L 340.284682 185.705133 
L 339.789427 184.50948 
L 339.789427 162.527661 
L 340.284682 161.332008 
L 341.480336 160.836752 
L 363.462154 160.836752 
L 364.657808 161.332008 
L 365.153063 162.527661 
L 365.153063 184.50948 
L 364.657808 185.705133 
L 363.462154 186.200389 
L 341.480336 186.200389 
" style="fill:none;stroke:#ff0000;stroke-linecap:square;stroke-width:1.5;"/>
   </g>
   <g id="line2d_27">
    <path clip-path="url(#p50d1fa988d)" d="M 340.288645 155.126563 
L 339.079872 154.664249 
L 338.552047 153.482612 
L 337.949837 131.509045 
L 338.412151 130.300272 
L 339.593788 129.772446 
L 361.567355 129.170236 
L 362.776128 129.63255 
L 363.303954 130.814187 
L 363.906163 152.787755 
L 363.44385 153.996528 
L 362.262213 154.524353 
L 340.288645 155.126563 
" style="fill:none;stroke:#ff0000;stroke-linecap:square;stroke-width:1.5;"/>
   </g>
   <g id="line2d_28">
    <path clip-path="url(#p50d1fa988d)" d="M 362.347219 118.1105 
L 336.128322 100.736828 
L 334.959767 99.578373 
L 334.322042 98.061519 
L 334.311771 96.416091 
L 334.930512 94.891394 
L 336.084518 93.718444 
L 337.598936 93.074958 
L 363.78334 92.731162 
L 364.038043 118.093519 
L 362.347219 118.1105 
" style="fill:none;stroke:#ff0000;stroke-linecap:square;stroke-width:1.5;"/>
   </g>
   <g id="line2d_29">
    <path clip-path="url(#p50d1fa988d)" d="M 69.785389 100.4007 
L 69.412959 75.039798 
L 71.103686 75.014969 
L 97.402947 92.266748 
L 98.576867 93.419766 
L 99.221626 94.933643 
L 99.239535 96.579007 
L 98.627878 98.106559 
L 97.479329 99.284853 
L 95.967914 99.935362 
L 69.785389 100.4007 
" style="fill:none;stroke:#ff0000;stroke-linecap:square;stroke-width:1.5;"/>
   </g>
   <g id="line2d_30">
    <path clip-path="url(#p50d1fa988d)" d="M 114.969459 124.704244 
L 88.079113 108.389087 
L 86.865327 107.278114 
L 86.167667 105.787876 
L 86.091841 104.144164 
L 86.649338 102.596024 
L 87.75569 101.378022 
L 89.243265 100.674704 
L 115.393175 99.287838 
L 116.658263 124.619904 
L 114.969459 124.704244 
" style="fill:none;stroke:#ff0000;stroke-linecap:square;stroke-width:1.5;"/>
   </g>
   <g id="line2d_31">
    <path clip-path="url(#p50d1fa988d)" d="M 104.574419 159.883261 
L 77.178258 144.43252 
L 75.929715 143.360756 
L 75.184963 141.893486 
L 75.056841 140.25302 
L 75.564766 138.687916 
L 76.631777 137.435307 
L 78.096206 136.684984 
L 104.188703 134.46625 
L 106.259682 159.745196 
L 104.574419 159.883261 
" style="fill:none;stroke:#ff0000;stroke-linecap:square;stroke-width:1.5;"/>
   </g>
   <g id="line2d_32">
    <path clip-path="url(#p50d1fa988d)" d="M 70.391264 166.978611 
L 69.482074 141.631276 
L 71.171896 141.570663 
L 97.830454 158.261869 
L 99.028517 159.389779 
L 99.705179 160.889668 
L 99.757913 162.534284 
L 99.178728 164.074441 
L 98.055379 165.276784 
L 96.558073 165.959141 
L 70.391264 166.978611 
" style="fill:none;stroke:#ff0000;stroke-linecap:square;stroke-width:1.5;"/>
   </g>
   <g id="line2d_33">
    <path clip-path="url(#p50d1fa988d)" d="M 315.507095 108.230755 
L 289.463987 90.594667 
L 288.307125 89.424536 
L 287.684664 87.901355 
L 287.690917 86.255906 
L 288.324938 84.7375 
L 289.490665 83.576198 
L 291.011468 82.947952 
L 317.198004 82.867118 
L 317.198004 108.230755 
L 315.507095 108.230755 
" style="fill:none;stroke:#ff0000;stroke-linecap:square;stroke-width:1.5;"/>
   </g>
   <g id="line2d_34">
    <path clip-path="url(#p50d1fa988d)" d="M 294.45537 122.94116 
L 292.505736 122.827585 
L 290.742954 121.98699 
L 290.015194 121.329086 
L 289.001572 119.659783 
L 288.706343 118.573969 
L 286.684136 100.626554 
L 288.482197 97.976354 
L 292.013981 92.801541 
L 313.555247 107.486577 
L 314.95954 108.925603 
L 315.695778 110.796621 
L 315.77262 111.80403 
L 315.328679 113.765069 
L 314.82545 114.641161 
L 313.355167 116.012667 
L 294.45537 122.94116 
" style="fill:none;stroke:#ff0000;stroke-linecap:square;stroke-width:1.5;"/>
   </g>
   <g id="line2d_35">
    <path clip-path="url(#p50d1fa988d)" d="M 310.859806 145.323844 
L 309.743654 145.181166 
L 292.388143 140.182639 
L 290.627554 137.507399 
L 287.197789 132.264413 
L 309.007348 117.980869 
L 310.874175 117.234015 
L 312.884518 117.269669 
L 313.844675 117.584118 
L 315.486641 118.744594 
L 316.103531 119.544734 
L 316.808134 121.427894 
L 315.978181 141.540516 
L 315.127298 143.298347 
L 313.676206 144.605378 
L 312.789913 145.026042 
L 310.859806 145.323844 
" style="fill:none;stroke:#ff0000;stroke-linecap:square;stroke-width:1.5;"/>
   </g>
   <g id="line2d_36">
    <path clip-path="url(#p50d1fa988d)" d="M 358.267574 219.480697 
L 357.291317 219.383758 
L 355.484304 218.643013 
L 354.601805 217.944909 
L 342.313805 204.708442 
L 342.185957 201.508405 
L 341.953106 195.247576 
L 368.005181 194.264795 
L 369.989678 194.588225 
L 371.693375 195.656012 
L 372.353619 196.420771 
L 373.161402 198.262033 
L 373.277004 199.265732 
L 372.908953 201.242421 
L 361.820811 218.043 
L 360.184971 219.10977 
L 358.267574 219.480697 
" style="fill:none;stroke:#ff0000;stroke-linecap:square;stroke-width:1.5;"/>
   </g>
   <g id="line2d_37">
    <path clip-path="url(#p50d1fa988d)" d="M 297.444795 168.369206 
L 295.522137 168.026589 
L 294.64587 167.585422 
L 293.225572 166.244991 
L 292.65276 165.276467 
L 285.939909 148.509337 
L 286.970141 145.476977 
L 289.001902 139.550415 
L 313.668032 147.99189 
L 315.403877 149.006619 
L 316.610273 150.615147 
L 316.951721 151.566037 
L 317.04415 153.574573 
L 316.791478 154.552802 
L 315.737912 156.265332 
L 299.354656 167.961284 
L 297.444795 168.369206 
" style="fill:none;stroke:#ff0000;stroke-linecap:square;stroke-width:1.5;"/>
   </g>
   <g id="line2d_38">
    <path clip-path="url(#p50d1fa988d)" d="M 312.080602 188.419504 
L 310.961657 188.300701 
L 293.503333 183.674047 
L 291.685999 181.037025 
L 288.145021 175.868499 
L 309.644491 161.122339 
L 311.494939 160.335778 
L 313.505585 160.32848 
L 314.472239 160.622347 
L 316.13862 161.747484 
L 316.772461 162.534264 
L 317.517129 164.401944 
L 317.116993 184.527704 
L 316.303854 186.30331 
L 314.881012 187.64104 
L 314.003908 188.08054 
L 312.080602 188.419504 
" style="fill:none;stroke:#ff0000;stroke-linecap:square;stroke-width:1.5;"/>
   </g>
   <g id="line2d_39">
    <path clip-path="url(#p50d1fa988d)" d="M 323.083682 220.422812 
L 322.142576 220.145697 
L 320.505195 219.081279 
L 319.7682 218.23099 
L 310.161232 202.937032 
L 310.631779 199.769198 
L 311.569377 193.574595 
L 337.34846 197.462438 
L 339.237961 198.149912 
L 340.712908 199.516398 
L 341.219121 200.39077 
L 341.669741 202.350285 
L 341.596333 203.35795 
L 340.866475 205.231467 
L 326.842553 219.672241 
L 325.036615 220.415584 
L 323.083682 220.422812 
" style="fill:none;stroke:#ff0000;stroke-linecap:square;stroke-width:1.5;"/>
   </g>
   <g id="line2d_40">
    <path clip-path="url(#p50d1fa988d)" d="M 270.097974 169.173602 
L 269.12598 169.040562 
L 267.34765 168.23338 
L 266.49162 167.503061 
L 254.702437 153.820437 
L 254.693231 150.617861 
L 254.69249 144.352704 
L 280.76309 144.335768 
L 282.734242 144.732497 
L 284.39721 145.862669 
L 285.028668 146.651364 
L 285.767682 148.521288 
L 285.84602 149.528581 
L 285.40499 151.490277 
L 273.702036 167.868532 
L 272.027797 168.873965 
L 270.097974 169.173602 
" style="fill:none;stroke:#ff0000;stroke-linecap:square;stroke-width:1.5;"/>
   </g>
   <g id="line2d_41">
    <path clip-path="url(#p50d1fa988d)" d="M 286.269612 188.739311 
L 266.54128 172.798578 
L 289.058124 158.383824 
L 286.269612 188.739311 
" style="fill:none;stroke:#ff0000;stroke-linecap:square;stroke-width:1.5;"/>
   </g>
   <g id="line2d_42">
    <path clip-path="url(#p50d1fa988d)" d="M 299.340918 212.102906 
L 288.911461 183.459271 
L 313.555265 189.459017 
L 299.340918 212.102906 
" style="fill:none;stroke:#ff0000;stroke-linecap:square;stroke-width:1.5;"/>
   </g>
   <g id="line2d_43">
    <path clip-path="url(#p50d1fa988d)" d="M 324.659682 226.753514 
L 299.296055 226.73122 
L 307.772892 201.375025 
L 324.659682 226.753514 
" style="fill:none;stroke:#ff0000;stroke-linecap:square;stroke-width:1.5;"/>
   </g>
   <g id="line2d_44">
    <path clip-path="url(#p50d1fa988d)" d="M 240.864665 170.837567 
L 247.299237 144.887815 
L 266.149814 168.843756 
L 240.864665 170.837567 
" style="fill:none;stroke:#ff0000;stroke-linecap:square;stroke-width:1.5;"/>
   </g>
   <g id="line2d_45">
    <path clip-path="url(#p50d1fa988d)" d="M 270.659772 206.936874 
L 275.881479 180.716135 
L 295.824949 203.770189 
L 270.659772 206.936874 
" style="fill:none;stroke:#ff0000;stroke-linecap:square;stroke-width:1.5;"/>
   </g>
   <g id="patch_33">
    <path d="M 54 252 
L 54 34.56 
" style="fill:none;stroke:#000000;stroke-linecap:square;stroke-linejoin:miter;stroke-width:0.8;"/>
   </g>
   <g id="patch_34">
    <path d="M 388.8 252 
L 388.8 34.56 
" style="fill:none;stroke:#000000;stroke-linecap:square;stroke-linejoin:miter;stroke-width:0.8;"/>
   </g>
   <g id="patch_35">
    <path d="M 54 252 
L 388.8 252 
" style="fill:none;stroke:#000000;stroke-linecap:square;stroke-linejoin:miter;stroke-width:0.8;"/>
   </g>
   <g id="patch_36">
    <path d="M 54 34.56 
L 388.8 34.56 
" style="fill:none;stroke:#000000;stroke-linecap:square;stroke-linejoin:miter;stroke-width:0.8;"/>
   </g>
  </g>
 </g>
 <defs>
  <clipPath id="p50d1fa988d">
   <rect height="217.44" width="334.8" x="54" y="34.56"/>
  </clipPath>
 </defs>
</svg>
