<?xml version="1.0" encoding="utf-8" standalone="no"?>
<!DOCTYPE svg PUBLIC "-//W3C//DTD SVG 1.1//EN"
  "http://www.w3.org/Graphics/SVG/1.1/DTD/svg11.dtd">
<!-- Created with matplotlib (https://matplotlib.org/) -->
<svg height="288pt" version="1.1" viewBox="0 0 432 288" width="432pt" xmlns="http://www.w3.org/2000/svg" xmlns:xlink="http://www.w3.org/1999/xlink">
 <defs>
  <style type="text/css">
*{stroke-linecap:butt;stroke-linejoin:round;}
  </style>
 </defs>
 <g id="figure_1">
  <g id="patch_1">
   <path d="M 0 288 
L 432 288 
L 432 0 
L 0 0 
z
" style="fill:#ffffff;"/>
  </g>
  <g id="axes_1">
   <g id="patch_2">
    <path d="M 54 252 
L 388.8 252 
L 388.8 34.56 
L 54 34.56 
z
" style="fill:#ffffff;"/>
   </g>
   <g id="patch_3">
    <path clip-path="url(#p0434aeaec2)" d="M 69.218182 172.860638 
L 69.218182 227.825455 
L 174.907336 227.825455 
z
" style="fill:#aaaaaa;"/>
   </g>
   <g id="patch_4">
    <path clip-path="url(#p0434aeaec2)" d="M 105.040687 136.800432 
L 107.85789 170.606875 
L 145.608419 168.916553 
L 140.537452 132.292906 
z
" style="fill:#aaaaaa;"/>
   </g>
   <g id="patch_5">
    <path clip-path="url(#p0434aeaec2)" d="M 89.827787 58.734545 
L 88.700906 58.734545 
L 97.152516 91.725174 
L 207.412119 122.702872 
L 206.460017 144.125161 
L 276.890108 144.125161 
L 292.666448 58.734545 
L 117.436383 58.734545 
z
" style="fill:#aaaaaa;"/>
   </g>
   <g id="patch_6">
    <path clip-path="url(#p0434aeaec2)" d="M 97.277296 162.996851 
L 69.390316 163.014943 
L 69.387273 172.532733 
L 102.546845 172.528505 
L 102.545662 116.913491 
L 69.390316 116.910447 
L 69.390316 124.926709 
L 97.277296 124.927893 
z
" style="fill:#f6929c;"/>
   </g>
   <g id="patch_7">
    <path clip-path="url(#p0434aeaec2)" d="M 149.97718 170.189357 
L 122.0902 170.20745 
L 122.087156 179.725239 
L 155.246729 179.721012 
L 155.245545 124.105997 
L 122.0902 124.102954 
L 122.0902 132.119215 
L 149.97718 132.120399 
z
" style="fill:#f6929c;"/>
   </g>
   <g id="patch_8">
    <path clip-path="url(#p0434aeaec2)" d="M 148.253963 201.673302 
L 128.522097 181.967023 
L 121.789851 188.694964 
L 145.240199 212.139334 
L 184.565116 172.812743 
L 161.122899 149.366221 
L 155.454545 155.034574 
L 175.172781 174.754484 
z
" style="fill:#f6929c;"/>
   </g>
   <g id="patch_9">
    <path clip-path="url(#p0434aeaec2)" d="M 69.387273 116.732727 
L 69.387273 91.369091 
L 94.750909 91.369091 
L 94.750909 116.732727 
z
" style="fill:#f6929c;"/>
   </g>
   <g id="patch_10">
    <path clip-path="url(#p0434aeaec2)" d="M 69.387273 162.741749 
L 69.387273 137.378113 
L 94.750909 137.378113 
L 94.750909 162.741749 
z
" style="fill:#f6929c;"/>
   </g>
   <g id="patch_11">
    <path clip-path="url(#p0434aeaec2)" d="M 155.454545 149.198182 
L 155.454545 123.834545 
L 180.818182 123.834545 
L 180.818182 149.198182 
z
" style="fill:#f6929c;"/>
   </g>
   <g id="patch_12">
    <path clip-path="url(#p0434aeaec2)" d="M 168.962683 224.532811 
L 151.027884 206.598012 
L 168.962683 188.663212 
L 186.897483 206.598012 
z
" style="fill:#f6929c;"/>
   </g>
   <g id="patch_13">
    <path clip-path="url(#p0434aeaec2)" d="M 187.041317 206.416732 
L 169.106518 188.481933 
L 187.041317 170.547133 
L 204.976116 188.481933 
z
" style="fill:#f6929c;"/>
   </g>
   <g id="patch_14">
    <path clip-path="url(#p0434aeaec2)" d="M 191.467566 174.657527 
L 173.532767 156.722727 
L 191.467566 138.787928 
L 209.402366 156.722727 
z
" style="fill:#f6929c;"/>
   </g>
   <g id="patch_15">
    <path clip-path="url(#p0434aeaec2)" d="M 201.906898 227.656364 
L 183.972099 209.721564 
L 201.906898 191.786765 
L 219.841698 209.721564 
z
" style="fill:#f6929c;"/>
   </g>
   <g id="patch_16">
    <path clip-path="url(#p0434aeaec2)" d="M 106.360399 130.896531 
L 105.164746 129.700878 
L 99.220084 98.815023 
L 99.229466 97.16959 
L 99.866372 95.652392 
L 101.034301 94.493305 
L 102.556298 93.867951 
L 104.201756 93.871079 
L 105.721363 94.502213 
L 124.295198 112.961732 
z
" style="fill:#f6929c;"/>
   </g>
   <g id="patch_17">
    <path clip-path="url(#p0434aeaec2)" d="M 118.198666 198.011866 
L 92.155558 180.375779 
L 90.998696 179.205648 
L 90.376235 177.682467 
L 90.382488 176.037018 
L 91.016509 174.518612 
L 92.182236 173.357309 
L 93.703039 172.729064 
L 119.889575 172.64823 
L 119.889575 198.011866 
z
" style="fill:#f6929c;"/>
   </g>
   <g id="patch_18">
    <path clip-path="url(#p0434aeaec2)" d="M 195.753474 178.943435 
L 195.753474 177.252526 
L 213.389561 151.209418 
L 214.559693 150.052555 
L 216.082874 149.430094 
L 217.728323 149.436347 
L 219.246729 150.070369 
L 220.408031 151.236095 
L 221.036277 152.756899 
L 221.117111 178.943435 
z
" style="fill:#f6929c;"/>
   </g>
   <g id="patch_19">
    <path clip-path="url(#p0434aeaec2)" d="M 229.664768 204.459134 
L 203.62166 186.823047 
L 202.464798 185.652916 
L 201.842337 184.129735 
L 201.84859 182.484286 
L 202.482611 180.96588 
L 203.648338 179.804577 
L 205.169141 179.176332 
L 231.355677 179.095498 
L 231.355677 204.459134 
z
" style="fill:#f6929c;"/>
   </g>
   <g id="patch_20">
    <path clip-path="url(#p0434aeaec2)" d="M 217.038268 227.656364 
L 217.038268 225.965455 
L 234.674355 199.922347 
L 235.844486 198.765484 
L 237.367667 198.143023 
L 239.013116 198.149276 
L 240.531522 198.783298 
L 241.692825 199.949024 
L 242.32107 201.469828 
L 242.401904 227.656364 
z
" style="fill:#f6929c;"/>
   </g>
   <g id="patch_21">
    <path clip-path="url(#p0434aeaec2)" d="M 232.933849 181.308202 
L 231.738196 180.112549 
L 225.793535 149.226694 
L 225.802917 147.581261 
L 226.439822 146.064063 
L 227.607752 144.904977 
L 229.129748 144.279622 
L 230.775206 144.28275 
L 232.294813 144.913884 
L 250.868649 163.373403 
z
" style="fill:#f6929c;"/>
   </g>
   <g id="patch_22">
    <path clip-path="url(#p0434aeaec2)" d="M 231.545455 197.896364 
L 231.545455 196.205455 
L 249.181542 170.162347 
L 250.351673 169.005484 
L 251.874854 168.383023 
L 253.520303 168.389276 
L 255.038709 169.023298 
L 256.200012 170.189024 
L 256.828257 171.709828 
L 256.909091 197.896364 
z
" style="fill:#f6929c;"/>
   </g>
   <g id="patch_23">
    <path clip-path="url(#p0434aeaec2)" d="M 69.387273 91.2 
L 75.365539 61.308668 
L 93.300338 79.243467 
z
" style="fill:#f6929c;"/>
   </g>
   <g id="patch_24">
    <path clip-path="url(#p0434aeaec2)" d="M 180.987273 145.500414 
L 180.987273 120.136778 
L 206.350909 128.591323 
z
" style="fill:#f6929c;"/>
   </g>
   <g id="patch_25">
    <path clip-path="url(#p0434aeaec2)" d="M 255.964585 169.658182 
L 239.055494 144.294545 
L 264.419131 144.294545 
z
" style="fill:#f6929c;"/>
   </g>
   <g id="patch_26">
    <path clip-path="url(#p0434aeaec2)" d="M 242.533966 223.332617 
L 242.533966 197.968981 
L 267.897602 206.423526 
z
" style="fill:#f6929c;"/>
   </g>
   <g id="patch_27">
    <path clip-path="url(#p0434aeaec2)" d="M 256.205877 202.274631 
L 262.184143 172.383299 
L 280.118943 190.318098 
z
" style="fill:#f6929c;"/>
   </g>
   <g id="patch_28">
    <path clip-path="url(#p0434aeaec2)" d="M 274.292106 227.656364 
L 248.928469 219.201818 
L 274.292106 202.292727 
z
" style="fill:#f6929c;"/>
   </g>
   <g id="patch_29">
    <path clip-path="url(#p0434aeaec2)" d="M 256.098187 169.920153 
L 264.552732 144.556516 
L 281.461823 169.920153 
z
" style="fill:#f6929c;"/>
   </g>
   <g id="patch_30">
    <path clip-path="url(#p0434aeaec2)" d="M 285.144557 165.247226 
L 278.383497 165.125867 
L 274.895298 159.326948 
L 271.619686 153.410856 
L 274.897689 147.490459 
L 278.383497 141.695845 
L 285.149579 141.574486 
L 291.91064 141.695845 
L 295.398839 147.494764 
L 298.67445 153.410856 
L 295.396447 159.331253 
L 291.91064 165.125867 
z
" style="fill:#f6929c;"/>
   </g>
   <g id="patch_31">
    <path clip-path="url(#p0434aeaec2)" d="M 286.299586 214.074418 
L 280.379189 210.796415 
L 274.584575 207.310607 
L 274.463216 200.544525 
L 274.584575 193.783464 
L 280.383494 190.295265 
L 286.299586 187.019654 
L 292.219983 190.297657 
L 298.014597 193.783464 
L 298.135956 200.549547 
L 298.014597 207.310607 
L 292.215678 210.798806 
z
" style="fill:#f6929c;"/>
   </g>
   <g id="patch_32">
    <path clip-path="url(#p0434aeaec2)" d="M 288.82748 141.589091 
L 283.957323 136.890562 
L 279.262345 132.023956 
L 280.896271 125.456973 
L 282.763372 118.957456 
L 289.267623 117.089002 
L 295.829872 115.456429 
L 300.700029 120.154958 
L 305.395007 125.021564 
L 303.761082 131.588547 
L 301.89398 138.088064 
L 295.389729 139.956518 
z
" style="fill:#f6929c;"/>
   </g>
   <g id="patch_33">
    <path clip-path="url(#p0434aeaec2)" d="M 293.941888 191.137147 
L 288.021491 187.859144 
L 282.226877 184.373336 
L 282.105518 177.607254 
L 282.226877 170.846193 
L 288.025796 167.357994 
L 293.941888 164.082383 
L 299.862285 167.360386 
L 305.656899 170.846193 
L 305.778258 177.612276 
L 305.656899 184.373336 
L 299.85798 187.861535 
z
" style="fill:#f6929c;"/>
   </g>
   <g id="patch_34">
    <path clip-path="url(#p0434aeaec2)" d="M 293.584698 115.756883 
L 288.714542 111.058354 
L 284.019564 106.191749 
L 285.653489 99.624765 
L 287.520591 93.125249 
L 294.024842 91.256794 
L 300.587091 89.624221 
L 305.457247 94.32275 
L 310.152225 99.189356 
L 308.5183 105.75634 
L 306.651198 112.255856 
L 300.146947 114.12431 
z
" style="fill:#f6929c;"/>
   </g>
   <g id="patch_35">
    <path clip-path="url(#p0434aeaec2)" d="M 298.31784 90.055414 
L 293.447684 85.356885 
L 288.752705 80.49028 
L 290.386631 73.923296 
L 292.253733 67.42378 
L 298.757984 65.555325 
L 305.320233 63.922752 
L 310.190389 68.621282 
L 314.885367 73.487887 
L 313.251442 80.054871 
L 311.38434 86.554387 
L 304.880089 88.422842 
z
" style="fill:#f6929c;"/>
   </g>
   <g id="patch_36">
    <path clip-path="url(#p0434aeaec2)" d="M 306.917939 227.656364 
L 300.156879 227.535005 
L 296.66868 221.736086 
L 293.393068 215.819994 
L 296.671071 209.899597 
L 300.156879 204.104983 
L 306.922961 203.983624 
L 313.684022 204.104983 
L 317.172221 209.903901 
L 320.447832 215.819994 
L 317.169829 221.740391 
L 313.684022 227.535005 
z
" style="fill:#f6929c;"/>
   </g>
   <g id="matplotlib.axis_1">
    <g id="xtick_1">
     <g id="line2d_1">
      <defs>
       <path d="M 0 0 
L 0 3.5 
" id="m07008c25b1" style="stroke:#000000;stroke-width:0.8;"/>
      </defs>
      <g>
       <use style="stroke:#000000;stroke-width:0.8;" x="69.218182" xlink:href="#m07008c25b1" y="252"/>
      </g>
     </g>
     <g id="text_1">
      <!-- 0 -->
      <defs>
       <path d="M 31.78125 66.40625 
Q 24.171875 66.40625 20.328125 58.90625 
Q 16.5 51.421875 16.5 36.375 
Q 16.5 21.390625 20.328125 13.890625 
Q 24.171875 6.390625 31.78125 6.390625 
Q 39.453125 6.390625 43.28125 13.890625 
Q 47.125 21.390625 47.125 36.375 
Q 47.125 51.421875 43.28125 58.90625 
Q 39.453125 66.40625 31.78125 66.40625 
z
M 31.78125 74.21875 
Q 44.046875 74.21875 50.515625 64.515625 
Q 56.984375 54.828125 56.984375 36.375 
Q 56.984375 17.96875 50.515625 8.265625 
Q 44.046875 -1.421875 31.78125 -1.421875 
Q 19.53125 -1.421875 13.0625 8.265625 
Q 6.59375 17.96875 6.59375 36.375 
Q 6.59375 54.828125 13.0625 64.515625 
Q 19.53125 74.21875 31.78125 74.21875 
z
" id="DejaVuSans-48"/>
      </defs>
      <g transform="translate(66.036932 266.598437)scale(0.1 -0.1)">
       <use xlink:href="#DejaVuSans-48"/>
      </g>
     </g>
    </g>
    <g id="xtick_2">
     <g id="line2d_2">
      <g>
       <use style="stroke:#000000;stroke-width:0.8;" x="111.490909" xlink:href="#m07008c25b1" y="252"/>
      </g>
     </g>
     <g id="text_2">
      <!-- 250 -->
      <defs>
       <path d="M 19.1875 8.296875 
L 53.609375 8.296875 
L 53.609375 0 
L 7.328125 0 
L 7.328125 8.296875 
Q 12.9375 14.109375 22.625 23.890625 
Q 32.328125 33.6875 34.8125 36.53125 
Q 39.546875 41.84375 41.421875 45.53125 
Q 43.3125 49.21875 43.3125 52.78125 
Q 43.3125 58.59375 39.234375 62.25 
Q 35.15625 65.921875 28.609375 65.921875 
Q 23.96875 65.921875 18.8125 64.3125 
Q 13.671875 62.703125 7.8125 59.421875 
L 7.8125 69.390625 
Q 13.765625 71.78125 18.9375 73 
Q 24.125 74.21875 28.421875 74.21875 
Q 39.75 74.21875 46.484375 68.546875 
Q 53.21875 62.890625 53.21875 53.421875 
Q 53.21875 48.921875 51.53125 44.890625 
Q 49.859375 40.875 45.40625 35.40625 
Q 44.1875 33.984375 37.640625 27.21875 
Q 31.109375 20.453125 19.1875 8.296875 
z
" id="DejaVuSans-50"/>
       <path d="M 10.796875 72.90625 
L 49.515625 72.90625 
L 49.515625 64.59375 
L 19.828125 64.59375 
L 19.828125 46.734375 
Q 21.96875 47.46875 24.109375 47.828125 
Q 26.265625 48.1875 28.421875 48.1875 
Q 40.625 48.1875 47.75 41.5 
Q 54.890625 34.8125 54.890625 23.390625 
Q 54.890625 11.625 47.5625 5.09375 
Q 40.234375 -1.421875 26.90625 -1.421875 
Q 22.3125 -1.421875 17.546875 -0.640625 
Q 12.796875 0.140625 7.71875 1.703125 
L 7.71875 11.625 
Q 12.109375 9.234375 16.796875 8.0625 
Q 21.484375 6.890625 26.703125 6.890625 
Q 35.15625 6.890625 40.078125 11.328125 
Q 45.015625 15.765625 45.015625 23.390625 
Q 45.015625 31 40.078125 35.4375 
Q 35.15625 39.890625 26.703125 39.890625 
Q 22.75 39.890625 18.8125 39.015625 
Q 14.890625 38.140625 10.796875 36.28125 
z
" id="DejaVuSans-53"/>
      </defs>
      <g transform="translate(101.947159 266.598437)scale(0.1 -0.1)">
       <use xlink:href="#DejaVuSans-50"/>
       <use x="63.623047" xlink:href="#DejaVuSans-53"/>
       <use x="127.246094" xlink:href="#DejaVuSans-48"/>
      </g>
     </g>
    </g>
    <g id="xtick_3">
     <g id="line2d_3">
      <g>
       <use style="stroke:#000000;stroke-width:0.8;" x="153.763636" xlink:href="#m07008c25b1" y="252"/>
      </g>
     </g>
     <g id="text_3">
      <!-- 500 -->
      <g transform="translate(144.219886 266.598437)scale(0.1 -0.1)">
       <use xlink:href="#DejaVuSans-53"/>
       <use x="63.623047" xlink:href="#DejaVuSans-48"/>
       <use x="127.246094" xlink:href="#DejaVuSans-48"/>
      </g>
     </g>
    </g>
    <g id="xtick_4">
     <g id="line2d_4">
      <g>
       <use style="stroke:#000000;stroke-width:0.8;" x="196.036364" xlink:href="#m07008c25b1" y="252"/>
      </g>
     </g>
     <g id="text_4">
      <!-- 750 -->
      <defs>
       <path d="M 8.203125 72.90625 
L 55.078125 72.90625 
L 55.078125 68.703125 
L 28.609375 0 
L 18.3125 0 
L 43.21875 64.59375 
L 8.203125 64.59375 
z
" id="DejaVuSans-55"/>
      </defs>
      <g transform="translate(186.492614 266.598437)scale(0.1 -0.1)">
       <use xlink:href="#DejaVuSans-55"/>
       <use x="63.623047" xlink:href="#DejaVuSans-53"/>
       <use x="127.246094" xlink:href="#DejaVuSans-48"/>
      </g>
     </g>
    </g>
    <g id="xtick_5">
     <g id="line2d_5">
      <g>
       <use style="stroke:#000000;stroke-width:0.8;" x="238.309091" xlink:href="#m07008c25b1" y="252"/>
      </g>
     </g>
     <g id="text_5">
      <!-- 1000 -->
      <defs>
       <path d="M 12.40625 8.296875 
L 28.515625 8.296875 
L 28.515625 63.921875 
L 10.984375 60.40625 
L 10.984375 69.390625 
L 28.421875 72.90625 
L 38.28125 72.90625 
L 38.28125 8.296875 
L 54.390625 8.296875 
L 54.390625 0 
L 12.40625 0 
z
" id="DejaVuSans-49"/>
      </defs>
      <g transform="translate(225.584091 266.598437)scale(0.1 -0.1)">
       <use xlink:href="#DejaVuSans-49"/>
       <use x="63.623047" xlink:href="#DejaVuSans-48"/>
       <use x="127.246094" xlink:href="#DejaVuSans-48"/>
       <use x="190.869141" xlink:href="#DejaVuSans-48"/>
      </g>
     </g>
    </g>
    <g id="xtick_6">
     <g id="line2d_6">
      <g>
       <use style="stroke:#000000;stroke-width:0.8;" x="280.581818" xlink:href="#m07008c25b1" y="252"/>
      </g>
     </g>
     <g id="text_6">
      <!-- 1250 -->
      <g transform="translate(267.856818 266.598437)scale(0.1 -0.1)">
       <use xlink:href="#DejaVuSans-49"/>
       <use x="63.623047" xlink:href="#DejaVuSans-50"/>
       <use x="127.246094" xlink:href="#DejaVuSans-53"/>
       <use x="190.869141" xlink:href="#DejaVuSans-48"/>
      </g>
     </g>
    </g>
    <g id="xtick_7">
     <g id="line2d_7">
      <g>
       <use style="stroke:#000000;stroke-width:0.8;" x="322.854545" xlink:href="#m07008c25b1" y="252"/>
      </g>
     </g>
     <g id="text_7">
      <!-- 1500 -->
      <g transform="translate(310.129545 266.598437)scale(0.1 -0.1)">
       <use xlink:href="#DejaVuSans-49"/>
       <use x="63.623047" xlink:href="#DejaVuSans-53"/>
       <use x="127.246094" xlink:href="#DejaVuSans-48"/>
       <use x="190.869141" xlink:href="#DejaVuSans-48"/>
      </g>
     </g>
    </g>
    <g id="xtick_8">
     <g id="line2d_8">
      <g>
       <use style="stroke:#000000;stroke-width:0.8;" x="365.127273" xlink:href="#m07008c25b1" y="252"/>
      </g>
     </g>
     <g id="text_8">
      <!-- 1750 -->
      <g transform="translate(352.402273 266.598437)scale(0.1 -0.1)">
       <use xlink:href="#DejaVuSans-49"/>
       <use x="63.623047" xlink:href="#DejaVuSans-55"/>
       <use x="127.246094" xlink:href="#DejaVuSans-53"/>
       <use x="190.869141" xlink:href="#DejaVuSans-48"/>
      </g>
     </g>
    </g>
   </g>
   <g id="matplotlib.axis_2">
    <g id="ytick_1">
     <g id="line2d_9">
      <defs>
       <path d="M 0 0 
L -3.5 0 
" id="m84a94410d6" style="stroke:#000000;stroke-width:0.8;"/>
      </defs>
      <g>
       <use style="stroke:#000000;stroke-width:0.8;" x="54" xlink:href="#m84a94410d6" y="227.825455"/>
      </g>
     </g>
     <g id="text_9">
      <!-- 0 -->
      <g transform="translate(40.6375 231.624673)scale(0.1 -0.1)">
       <use xlink:href="#DejaVuSans-48"/>
      </g>
     </g>
    </g>
    <g id="ytick_2">
     <g id="line2d_10">
      <g>
       <use style="stroke:#000000;stroke-width:0.8;" x="54" xlink:href="#m84a94410d6" y="194.007273"/>
      </g>
     </g>
     <g id="text_10">
      <!-- 200 -->
      <g transform="translate(27.9125 197.806491)scale(0.1 -0.1)">
       <use xlink:href="#DejaVuSans-50"/>
       <use x="63.623047" xlink:href="#DejaVuSans-48"/>
       <use x="127.246094" xlink:href="#DejaVuSans-48"/>
      </g>
     </g>
    </g>
    <g id="ytick_3">
     <g id="line2d_11">
      <g>
       <use style="stroke:#000000;stroke-width:0.8;" x="54" xlink:href="#m84a94410d6" y="160.189091"/>
      </g>
     </g>
     <g id="text_11">
      <!-- 400 -->
      <defs>
       <path d="M 37.796875 64.3125 
L 12.890625 25.390625 
L 37.796875 25.390625 
z
M 35.203125 72.90625 
L 47.609375 72.90625 
L 47.609375 25.390625 
L 58.015625 25.390625 
L 58.015625 17.1875 
L 47.609375 17.1875 
L 47.609375 0 
L 37.796875 0 
L 37.796875 17.1875 
L 4.890625 17.1875 
L 4.890625 26.703125 
z
" id="DejaVuSans-52"/>
      </defs>
      <g transform="translate(27.9125 163.98831)scale(0.1 -0.1)">
       <use xlink:href="#DejaVuSans-52"/>
       <use x="63.623047" xlink:href="#DejaVuSans-48"/>
       <use x="127.246094" xlink:href="#DejaVuSans-48"/>
      </g>
     </g>
    </g>
    <g id="ytick_4">
     <g id="line2d_12">
      <g>
       <use style="stroke:#000000;stroke-width:0.8;" x="54" xlink:href="#m84a94410d6" y="126.370909"/>
      </g>
     </g>
     <g id="text_12">
      <!-- 600 -->
      <defs>
       <path d="M 33.015625 40.375 
Q 26.375 40.375 22.484375 35.828125 
Q 18.609375 31.296875 18.609375 23.390625 
Q 18.609375 15.53125 22.484375 10.953125 
Q 26.375 6.390625 33.015625 6.390625 
Q 39.65625 6.390625 43.53125 10.953125 
Q 47.40625 15.53125 47.40625 23.390625 
Q 47.40625 31.296875 43.53125 35.828125 
Q 39.65625 40.375 33.015625 40.375 
z
M 52.59375 71.296875 
L 52.59375 62.3125 
Q 48.875 64.0625 45.09375 64.984375 
Q 41.3125 65.921875 37.59375 65.921875 
Q 27.828125 65.921875 22.671875 59.328125 
Q 17.53125 52.734375 16.796875 39.40625 
Q 19.671875 43.65625 24.015625 45.921875 
Q 28.375 48.1875 33.59375 48.1875 
Q 44.578125 48.1875 50.953125 41.515625 
Q 57.328125 34.859375 57.328125 23.390625 
Q 57.328125 12.15625 50.6875 5.359375 
Q 44.046875 -1.421875 33.015625 -1.421875 
Q 20.359375 -1.421875 13.671875 8.265625 
Q 6.984375 17.96875 6.984375 36.375 
Q 6.984375 53.65625 15.1875 63.9375 
Q 23.390625 74.21875 37.203125 74.21875 
Q 40.921875 74.21875 44.703125 73.484375 
Q 48.484375 72.75 52.59375 71.296875 
z
" id="DejaVuSans-54"/>
      </defs>
      <g transform="translate(27.9125 130.170128)scale(0.1 -0.1)">
       <use xlink:href="#DejaVuSans-54"/>
       <use x="63.623047" xlink:href="#DejaVuSans-48"/>
       <use x="127.246094" xlink:href="#DejaVuSans-48"/>
      </g>
     </g>
    </g>
    <g id="ytick_5">
     <g id="line2d_13">
      <g>
       <use style="stroke:#000000;stroke-width:0.8;" x="54" xlink:href="#m84a94410d6" y="92.552727"/>
      </g>
     </g>
     <g id="text_13">
      <!-- 800 -->
      <defs>
       <path d="M 31.78125 34.625 
Q 24.75 34.625 20.71875 30.859375 
Q 16.703125 27.09375 16.703125 20.515625 
Q 16.703125 13.921875 20.71875 10.15625 
Q 24.75 6.390625 31.78125 6.390625 
Q 38.8125 6.390625 42.859375 10.171875 
Q 46.921875 13.96875 46.921875 20.515625 
Q 46.921875 27.09375 42.890625 30.859375 
Q 38.875 34.625 31.78125 34.625 
z
M 21.921875 38.8125 
Q 15.578125 40.375 12.03125 44.71875 
Q 8.5 49.078125 8.5 55.328125 
Q 8.5 64.0625 14.71875 69.140625 
Q 20.953125 74.21875 31.78125 74.21875 
Q 42.671875 74.21875 48.875 69.140625 
Q 55.078125 64.0625 55.078125 55.328125 
Q 55.078125 49.078125 51.53125 44.71875 
Q 48 40.375 41.703125 38.8125 
Q 48.828125 37.15625 52.796875 32.3125 
Q 56.78125 27.484375 56.78125 20.515625 
Q 56.78125 9.90625 50.3125 4.234375 
Q 43.84375 -1.421875 31.78125 -1.421875 
Q 19.734375 -1.421875 13.25 4.234375 
Q 6.78125 9.90625 6.78125 20.515625 
Q 6.78125 27.484375 10.78125 32.3125 
Q 14.796875 37.15625 21.921875 38.8125 
z
M 18.3125 54.390625 
Q 18.3125 48.734375 21.84375 45.5625 
Q 25.390625 42.390625 31.78125 42.390625 
Q 38.140625 42.390625 41.71875 45.5625 
Q 45.3125 48.734375 45.3125 54.390625 
Q 45.3125 60.0625 41.71875 63.234375 
Q 38.140625 66.40625 31.78125 66.40625 
Q 25.390625 66.40625 21.84375 63.234375 
Q 18.3125 60.0625 18.3125 54.390625 
z
" id="DejaVuSans-56"/>
      </defs>
      <g transform="translate(27.9125 96.351946)scale(0.1 -0.1)">
       <use xlink:href="#DejaVuSans-56"/>
       <use x="63.623047" xlink:href="#DejaVuSans-48"/>
       <use x="127.246094" xlink:href="#DejaVuSans-48"/>
      </g>
     </g>
    </g>
    <g id="ytick_6">
     <g id="line2d_14">
      <g>
       <use style="stroke:#000000;stroke-width:0.8;" x="54" xlink:href="#m84a94410d6" y="58.734545"/>
      </g>
     </g>
     <g id="text_14">
      <!-- 1000 -->
      <g transform="translate(21.55 62.533764)scale(0.1 -0.1)">
       <use xlink:href="#DejaVuSans-49"/>
       <use x="63.623047" xlink:href="#DejaVuSans-48"/>
       <use x="127.246094" xlink:href="#DejaVuSans-48"/>
       <use x="190.869141" xlink:href="#DejaVuSans-48"/>
      </g>
     </g>
    </g>
   </g>
   <g id="line2d_15">
    <path clip-path="url(#p0434aeaec2)" d="M 69.218182 227.825455 
L 373.581818 227.825455 
L 373.581818 58.734545 
L 69.218182 58.734545 
L 69.218182 227.825455 
" style="fill:none;stroke:#000000;stroke-linecap:square;stroke-width:1.5;"/>
   </g>
   <g id="line2d_16">
    <path clip-path="url(#p0434aeaec2)" d="M 69.218182 172.860638 
L 69.218182 227.825455 
L 174.907336 227.825455 
L 69.218182 172.860638 
" style="fill:none;stroke:#000000;stroke-dasharray:5.55,2.4;stroke-dashoffset:0;stroke-width:1.5;"/>
   </g>
   <g id="line2d_17">
    <path clip-path="url(#p0434aeaec2)" d="M 105.040687 136.800432 
L 107.85789 170.606875 
L 145.608419 168.916553 
L 140.537452 132.292906 
L 105.040687 136.800432 
" style="fill:none;stroke:#000000;stroke-dasharray:5.55,2.4;stroke-dashoffset:0;stroke-width:1.5;"/>
   </g>
   <g id="line2d_18">
    <path clip-path="url(#p0434aeaec2)" d="M 89.827787 58.734545 
L 88.700906 58.734545 
L 97.152516 91.725174 
L 207.412119 122.702872 
L 206.460017 144.125161 
L 276.890108 144.125161 
L 292.666448 58.734545 
L 117.436383 58.734545 
L 89.827787 58.734545 
" style="fill:none;stroke:#000000;stroke-dasharray:5.55,2.4;stroke-dashoffset:0;stroke-width:1.5;"/>
   </g>
   <g id="line2d_19">
    <path clip-path="url(#p0434aeaec2)" d="M 97.277296 162.996851 
L 69.390316 163.014943 
L 69.387273 172.532733 
L 102.546845 172.528505 
L 102.545662 116.913491 
L 69.390316 116.910447 
L 69.390316 124.926709 
L 97.277296 124.927893 
L 97.277296 162.996851 
" style="fill:none;stroke:#ff0000;stroke-linecap:square;stroke-width:1.5;"/>
   </g>
   <g id="line2d_20">
    <path clip-path="url(#p0434aeaec2)" d="M 149.97718 170.189357 
L 122.0902 170.20745 
L 122.087156 179.725239 
L 155.246729 179.721012 
L 155.245545 124.105997 
L 122.0902 124.102954 
L 122.0902 132.119215 
L 149.97718 132.120399 
L 149.97718 170.189357 
" style="fill:none;stroke:#ff0000;stroke-linecap:square;stroke-width:1.5;"/>
   </g>
   <g id="line2d_21">
    <path clip-path="url(#p0434aeaec2)" d="M 148.253963 201.673302 
L 128.522097 181.967023 
L 121.789851 188.694964 
L 145.240199 212.139334 
L 184.565116 172.812743 
L 161.122899 149.366221 
L 155.454545 155.034574 
L 175.172781 174.754484 
L 148.253963 201.673302 
" style="fill:none;stroke:#ff0000;stroke-linecap:square;stroke-width:1.5;"/>
   </g>
   <g id="line2d_22">
    <path clip-path="url(#p0434aeaec2)" d="M 69.387273 116.732727 
L 69.387273 91.369091 
L 94.750909 91.369091 
L 94.750909 116.732727 
L 69.387273 116.732727 
" style="fill:none;stroke:#ff0000;stroke-linecap:square;stroke-width:1.5;"/>
   </g>
   <g id="line2d_23">
    <path clip-path="url(#p0434aeaec2)" d="M 69.387273 162.741749 
L 69.387273 137.378113 
L 94.750909 137.378113 
L 94.750909 162.741749 
L 69.387273 162.741749 
" style="fill:none;stroke:#ff0000;stroke-linecap:square;stroke-width:1.5;"/>
   </g>
   <g id="line2d_24">
    <path clip-path="url(#p0434aeaec2)" d="M 155.454545 149.198182 
L 155.454545 123.834545 
L 180.818182 123.834545 
L 180.818182 149.198182 
L 155.454545 149.198182 
" style="fill:none;stroke:#ff0000;stroke-linecap:square;stroke-width:1.5;"/>
   </g>
   <g id="line2d_25">
    <path clip-path="url(#p0434aeaec2)" d="M 168.962683 224.532811 
L 151.027884 206.598012 
L 168.962683 188.663212 
L 186.897483 206.598012 
L 168.962683 224.532811 
" style="fill:none;stroke:#ff0000;stroke-linecap:square;stroke-width:1.5;"/>
   </g>
   <g id="line2d_26">
    <path clip-path="url(#p0434aeaec2)" d="M 187.041317 206.416732 
L 169.106518 188.481933 
L 187.041317 170.547133 
L 204.976116 188.481933 
L 187.041317 206.416732 
" style="fill:none;stroke:#ff0000;stroke-linecap:square;stroke-width:1.5;"/>
   </g>
   <g id="line2d_27">
    <path clip-path="url(#p0434aeaec2)" d="M 191.467566 174.657527 
L 173.532767 156.722727 
L 191.467566 138.787928 
L 209.402366 156.722727 
L 191.467566 174.657527 
" style="fill:none;stroke:#ff0000;stroke-linecap:square;stroke-width:1.5;"/>
   </g>
   <g id="line2d_28">
    <path clip-path="url(#p0434aeaec2)" d="M 201.906898 227.656364 
L 183.972099 209.721564 
L 201.906898 191.786765 
L 219.841698 209.721564 
L 201.906898 227.656364 
" style="fill:none;stroke:#ff0000;stroke-linecap:square;stroke-width:1.5;"/>
   </g>
   <g id="line2d_29">
    <path clip-path="url(#p0434aeaec2)" d="M 106.360399 130.896531 
L 105.164746 129.700878 
L 99.220084 98.815023 
L 99.229466 97.16959 
L 99.866372 95.652392 
L 101.034301 94.493305 
L 102.556298 93.867951 
L 104.201756 93.871079 
L 105.721363 94.502213 
L 124.295198 112.961732 
L 106.360399 130.896531 
" style="fill:none;stroke:#ff0000;stroke-linecap:square;stroke-width:1.5;"/>
   </g>
   <g id="line2d_30">
    <path clip-path="url(#p0434aeaec2)" d="M 118.198666 198.011866 
L 92.155558 180.375779 
L 90.998696 179.205648 
L 90.376235 177.682467 
L 90.382488 176.037018 
L 91.016509 174.518612 
L 92.182236 173.357309 
L 93.703039 172.729064 
L 119.889575 172.64823 
L 119.889575 198.011866 
L 118.198666 198.011866 
" style="fill:none;stroke:#ff0000;stroke-linecap:square;stroke-width:1.5;"/>
   </g>
   <g id="line2d_31">
    <path clip-path="url(#p0434aeaec2)" d="M 195.753474 178.943435 
L 195.753474 177.252526 
L 213.389561 151.209418 
L 214.559693 150.052555 
L 216.082874 149.430094 
L 217.728323 149.436347 
L 219.246729 150.070369 
L 220.408031 151.236095 
L 221.036277 152.756899 
L 221.117111 178.943435 
L 195.753474 178.943435 
" style="fill:none;stroke:#ff0000;stroke-linecap:square;stroke-width:1.5;"/>
   </g>
   <g id="line2d_32">
    <path clip-path="url(#p0434aeaec2)" d="M 229.664768 204.459134 
L 203.62166 186.823047 
L 202.464798 185.652916 
L 201.842337 184.129735 
L 201.84859 182.484286 
L 202.482611 180.96588 
L 203.648338 179.804577 
L 205.169141 179.176332 
L 231.355677 179.095498 
L 231.355677 204.459134 
L 229.664768 204.459134 
" style="fill:none;stroke:#ff0000;stroke-linecap:square;stroke-width:1.5;"/>
   </g>
   <g id="line2d_33">
    <path clip-path="url(#p0434aeaec2)" d="M 217.038268 227.656364 
L 217.038268 225.965455 
L 234.674355 199.922347 
L 235.844486 198.765484 
L 237.367667 198.143023 
L 239.013116 198.149276 
L 240.531522 198.783298 
L 241.692825 199.949024 
L 242.32107 201.469828 
L 242.401904 227.656364 
L 217.038268 227.656364 
" style="fill:none;stroke:#ff0000;stroke-linecap:square;stroke-width:1.5;"/>
   </g>
   <g id="line2d_34">
    <path clip-path="url(#p0434aeaec2)" d="M 232.933849 181.308202 
L 231.738196 180.112549 
L 225.793535 149.226694 
L 225.802917 147.581261 
L 226.439822 146.064063 
L 227.607752 144.904977 
L 229.129748 144.279622 
L 230.775206 144.28275 
L 232.294813 144.913884 
L 250.868649 163.373403 
L 232.933849 181.308202 
" style="fill:none;stroke:#ff0000;stroke-linecap:square;stroke-width:1.5;"/>
   </g>
   <g id="line2d_35">
    <path clip-path="url(#p0434aeaec2)" d="M 231.545455 197.896364 
L 231.545455 196.205455 
L 249.181542 170.162347 
L 250.351673 169.005484 
L 251.874854 168.383023 
L 253.520303 168.389276 
L 255.038709 169.023298 
L 256.200012 170.189024 
L 256.828257 171.709828 
L 256.909091 197.896364 
L 231.545455 197.896364 
" style="fill:none;stroke:#ff0000;stroke-linecap:square;stroke-width:1.5;"/>
   </g>
   <g id="line2d_36">
    <path clip-path="url(#p0434aeaec2)" d="M 69.387273 91.2 
L 75.365539 61.308668 
L 93.300338 79.243467 
L 69.387273 91.2 
" style="fill:none;stroke:#ff0000;stroke-linecap:square;stroke-width:1.5;"/>
   </g>
   <g id="line2d_37">
    <path clip-path="url(#p0434aeaec2)" d="M 180.987273 145.500414 
L 180.987273 120.136778 
L 206.350909 128.591323 
L 180.987273 145.500414 
" style="fill:none;stroke:#ff0000;stroke-linecap:square;stroke-width:1.5;"/>
   </g>
   <g id="line2d_38">
    <path clip-path="url(#p0434aeaec2)" d="M 255.964585 169.658182 
L 239.055494 144.294545 
L 264.419131 144.294545 
L 255.964585 169.658182 
" style="fill:none;stroke:#ff0000;stroke-linecap:square;stroke-width:1.5;"/>
   </g>
   <g id="line2d_39">
    <path clip-path="url(#p0434aeaec2)" d="M 242.533966 223.332617 
L 242.533966 197.968981 
L 267.897602 206.423526 
L 242.533966 223.332617 
" style="fill:none;stroke:#ff0000;stroke-linecap:square;stroke-width:1.5;"/>
   </g>
   <g id="line2d_40">
    <path clip-path="url(#p0434aeaec2)" d="M 256.205877 202.274631 
L 262.184143 172.383299 
L 280.118943 190.318098 
L 256.205877 202.274631 
" style="fill:none;stroke:#ff0000;stroke-linecap:square;stroke-width:1.5;"/>
   </g>
   <g id="line2d_41">
    <path clip-path="url(#p0434aeaec2)" d="M 274.292106 227.656364 
L 248.928469 219.201818 
L 274.292106 202.292727 
L 274.292106 227.656364 
" style="fill:none;stroke:#ff0000;stroke-linecap:square;stroke-width:1.5;"/>
   </g>
   <g id="line2d_42">
    <path clip-path="url(#p0434aeaec2)" d="M 256.098187 169.920153 
L 264.552732 144.556516 
L 281.461823 169.920153 
L 256.098187 169.920153 
" style="fill:none;stroke:#ff0000;stroke-linecap:square;stroke-width:1.5;"/>
   </g>
   <g id="line2d_43">
    <path clip-path="url(#p0434aeaec2)" d="M 285.144557 165.247226 
L 278.383497 165.125867 
L 274.895298 159.326948 
L 271.619686 153.410856 
L 274.897689 147.490459 
L 278.383497 141.695845 
L 285.149579 141.574486 
L 291.91064 141.695845 
L 295.398839 147.494764 
L 298.67445 153.410856 
L 295.396447 159.331253 
L 291.91064 165.125867 
L 285.144557 165.247226 
" style="fill:none;stroke:#ff0000;stroke-linecap:square;stroke-width:1.5;"/>
   </g>
   <g id="line2d_44">
    <path clip-path="url(#p0434aeaec2)" d="M 286.299586 214.074418 
L 280.379189 210.796415 
L 274.584575 207.310607 
L 274.463216 200.544525 
L 274.584575 193.783464 
L 280.383494 190.295265 
L 286.299586 187.019654 
L 292.219983 190.297657 
L 298.014597 193.783464 
L 298.135956 200.549547 
L 298.014597 207.310607 
L 292.215678 210.798806 
L 286.299586 214.074418 
" style="fill:none;stroke:#ff0000;stroke-linecap:square;stroke-width:1.5;"/>
   </g>
   <g id="line2d_45">
    <path clip-path="url(#p0434aeaec2)" d="M 288.82748 141.589091 
L 283.957323 136.890562 
L 279.262345 132.023956 
L 280.896271 125.456973 
L 282.763372 118.957456 
L 289.267623 117.089002 
L 295.829872 115.456429 
L 300.700029 120.154958 
L 305.395007 125.021564 
L 303.761082 131.588547 
L 301.89398 138.088064 
L 295.389729 139.956518 
L 288.82748 141.589091 
" style="fill:none;stroke:#ff0000;stroke-linecap:square;stroke-width:1.5;"/>
   </g>
   <g id="line2d_46">
    <path clip-path="url(#p0434aeaec2)" d="M 293.941888 191.137147 
L 288.021491 187.859144 
L 282.226877 184.373336 
L 282.105518 177.607254 
L 282.226877 170.846193 
L 288.025796 167.357994 
L 293.941888 164.082383 
L 299.862285 167.360386 
L 305.656899 170.846193 
L 305.778258 177.612276 
L 305.656899 184.373336 
L 299.85798 187.861535 
L 293.941888 191.137147 
" style="fill:none;stroke:#ff0000;stroke-linecap:square;stroke-width:1.5;"/>
   </g>
   <g id="line2d_47">
    <path clip-path="url(#p0434aeaec2)" d="M 293.584698 115.756883 
L 288.714542 111.058354 
L 284.019564 106.191749 
L 285.653489 99.624765 
L 287.520591 93.125249 
L 294.024842 91.256794 
L 300.587091 89.624221 
L 305.457247 94.32275 
L 310.152225 99.189356 
L 308.5183 105.75634 
L 306.651198 112.255856 
L 300.146947 114.12431 
L 293.584698 115.756883 
" style="fill:none;stroke:#ff0000;stroke-linecap:square;stroke-width:1.5;"/>
   </g>
   <g id="line2d_48">
    <path clip-path="url(#p0434aeaec2)" d="M 298.31784 90.055414 
L 293.447684 85.356885 
L 288.752705 80.49028 
L 290.386631 73.923296 
L 292.253733 67.42378 
L 298.757984 65.555325 
L 305.320233 63.922752 
L 310.190389 68.621282 
L 314.885367 73.487887 
L 313.251442 80.054871 
L 311.38434 86.554387 
L 304.880089 88.422842 
L 298.31784 90.055414 
" style="fill:none;stroke:#ff0000;stroke-linecap:square;stroke-width:1.5;"/>
   </g>
   <g id="line2d_49">
    <path clip-path="url(#p0434aeaec2)" d="M 306.917939 227.656364 
L 300.156879 227.535005 
L 296.66868 221.736086 
L 293.393068 215.819994 
L 296.671071 209.899597 
L 300.156879 204.104983 
L 306.922961 203.983624 
L 313.684022 204.104983 
L 317.172221 209.903901 
L 320.447832 215.819994 
L 317.169829 221.740391 
L 313.684022 227.535005 
L 306.917939 227.656364 
" style="fill:none;stroke:#ff0000;stroke-linecap:square;stroke-width:1.5;"/>
   </g>
   <g id="patch_37">
    <path d="M 54 252 
L 54 34.56 
" style="fill:none;stroke:#000000;stroke-linecap:square;stroke-linejoin:miter;stroke-width:0.8;"/>
   </g>
   <g id="patch_38">
    <path d="M 388.8 252 
L 388.8 34.56 
" style="fill:none;stroke:#000000;stroke-linecap:square;stroke-linejoin:miter;stroke-width:0.8;"/>
   </g>
   <g id="patch_39">
    <path d="M 54 252 
L 388.8 252 
" style="fill:none;stroke:#000000;stroke-linecap:square;stroke-linejoin:miter;stroke-width:0.8;"/>
   </g>
   <g id="patch_40">
    <path d="M 54 34.56 
L 388.8 34.56 
" style="fill:none;stroke:#000000;stroke-linecap:square;stroke-linejoin:miter;stroke-width:0.8;"/>
   </g>
  </g>
 </g>
 <defs>
  <clipPath id="p0434aeaec2">
   <rect height="217.44" width="334.8" x="54" y="34.56"/>
  </clipPath>
 </defs>
</svg>
