<?xml version="1.0" encoding="utf-8" standalone="no"?>
<!DOCTYPE svg PUBLIC "-//W3C//DTD SVG 1.1//EN"
  "http://www.w3.org/Graphics/SVG/1.1/DTD/svg11.dtd">
<!-- Created with matplotlib (https://matplotlib.org/) -->
<svg height="288pt" version="1.1" viewBox="0 0 432 288" width="432pt" xmlns="http://www.w3.org/2000/svg" xmlns:xlink="http://www.w3.org/1999/xlink">
 <defs>
  <style type="text/css">
*{stroke-linecap:butt;stroke-linejoin:round;}
  </style>
 </defs>
 <g id="figure_1">
  <g id="patch_1">
   <path d="M 0 288 
L 432 288 
L 432 0 
L 0 0 
z
" style="fill:#ffffff;"/>
  </g>
  <g id="axes_1">
   <g id="patch_2">
    <path d="M 54 252 
L 388.8 252 
L 388.8 34.56 
L 54 34.56 
z
" style="fill:#ffffff;"/>
   </g>
   <g id="patch_3">
    <path clip-path="url(#p6b9582a5bf)" d="M 69.218182 172.860638 
L 69.218182 227.825455 
L 174.907336 227.825455 
z
" style="fill:#aaaaaa;"/>
   </g>
   <g id="patch_4">
    <path clip-path="url(#p6b9582a5bf)" d="M 105.040687 136.800432 
L 107.85789 170.606875 
L 145.608419 168.916553 
L 140.537452 132.292906 
z
" style="fill:#aaaaaa;"/>
   </g>
   <g id="patch_5">
    <path clip-path="url(#p6b9582a5bf)" d="M 89.827787 58.734545 
L 88.700906 58.734545 
L 97.152516 91.725174 
L 207.412119 122.702872 
L 206.460017 144.125161 
L 276.890108 144.125161 
L 292.666448 58.734545 
L 117.436383 58.734545 
z
" style="fill:#aaaaaa;"/>
   </g>
   <g id="patch_6">
    <path clip-path="url(#p6b9582a5bf)" d="M 321.105646 85.367748 
L 340.811925 65.635882 
L 334.083984 58.903636 
L 310.639615 82.353984 
L 349.966205 121.678901 
L 373.412727 98.236684 
L 367.744374 92.568331 
L 348.024465 112.286566 
z
" style="fill:#f6929c;"/>
   </g>
   <g id="patch_7">
    <path clip-path="url(#p6b9582a5bf)" d="M 295.007411 106.371996 
L 314.71369 86.64013 
L 307.985749 79.907885 
L 284.54138 103.358233 
L 323.86797 142.683149 
L 347.314492 119.240932 
L 341.646139 113.572579 
L 321.926229 133.290815 
z
" style="fill:#f6929c;"/>
   </g>
   <g id="patch_8">
    <path clip-path="url(#p6b9582a5bf)" d="M 337.101574 174.087164 
L 317.369708 154.380885 
L 310.637462 161.108826 
L 334.08781 184.553196 
L 373.412727 145.226605 
L 349.97051 121.780083 
L 344.302157 127.448436 
L 364.020392 147.168346 
z
" style="fill:#f6929c;"/>
   </g>
   <g id="patch_9">
    <path clip-path="url(#p6b9582a5bf)" d="M 306.551408 164.929212 
L 326.257687 145.197346 
L 319.529746 138.465101 
L 296.085376 161.915449 
L 335.411967 201.240366 
L 358.858489 177.798148 
L 353.190136 172.129795 
L 333.470226 191.848031 
z
" style="fill:#f6929c;"/>
   </g>
   <g id="patch_10">
    <path clip-path="url(#p6b9582a5bf)" d="M 282.953795 167.216166 
L 263.221929 147.509886 
L 256.489683 154.237827 
L 279.940031 177.682197 
L 319.264948 138.355606 
L 295.822731 114.909084 
L 290.154377 120.577437 
L 309.872613 140.297347 
z
" style="fill:#f6929c;"/>
   </g>
   <g id="patch_11">
    <path clip-path="url(#p6b9582a5bf)" d="M 349.74 84.267273 
L 348.544346 83.772017 
L 348.049091 82.576364 
L 348.049091 60.594545 
L 348.544346 59.398892 
L 349.74 58.903636 
L 371.721818 58.903636 
L 372.917472 59.398892 
L 373.412727 60.594545 
L 373.412727 82.576364 
L 372.917472 83.772017 
L 371.721818 84.267273 
z
" style="fill:#f6929c;"/>
   </g>
   <g id="patch_12">
    <path clip-path="url(#p6b9582a5bf)" d="M 314.822727 121.621858 
L 313.627074 121.126602 
L 298.083581 105.583109 
L 297.588325 104.387456 
L 298.083581 103.191802 
L 313.627074 87.64831 
L 314.822727 87.153053 
L 316.018381 87.64831 
L 331.561873 103.191802 
L 332.05713 104.387456 
L 331.561873 105.583109 
L 316.018381 121.126602 
z
" style="fill:#f6929c;"/>
   </g>
   <g id="patch_13">
    <path clip-path="url(#p6b9582a5bf)" d="M 343.155249 161.417236 
L 341.959595 160.92198 
L 326.416103 145.378487 
L 325.920846 144.182834 
L 326.416103 142.987181 
L 341.959595 127.443688 
L 343.155249 126.948432 
L 344.350902 127.443688 
L 359.894395 142.987181 
L 360.389651 144.182834 
L 359.894395 145.378487 
L 344.350902 160.92198 
z
" style="fill:#f6929c;"/>
   </g>
   <g id="patch_14">
    <path clip-path="url(#p6b9582a5bf)" d="M 356.178325 215.538988 
L 354.982672 215.043731 
L 339.439179 199.500238 
L 338.943923 198.304585 
L 339.439179 197.108932 
L 354.982672 181.565439 
L 356.178325 181.070183 
L 357.373978 181.565439 
L 372.917471 197.108932 
L 373.412727 198.304585 
L 372.917471 199.500238 
L 357.373978 215.043731 
z
" style="fill:#f6929c;"/>
   </g>
   <g id="patch_15">
    <path clip-path="url(#p6b9582a5bf)" d="M 347.056779 100.595967 
L 345.411321 100.592839 
L 343.891714 99.961705 
L 325.317878 81.502186 
L 343.252678 63.567387 
L 344.448331 64.76304 
L 350.392992 95.648895 
L 350.38361 97.294328 
L 349.746705 98.811526 
L 348.578775 99.970613 
z
" style="fill:#f6929c;"/>
   </g>
   <g id="patch_16">
    <path clip-path="url(#p6b9582a5bf)" d="M 298.275358 88.416977 
L 296.629909 88.410724 
L 295.111503 87.776702 
L 293.950201 86.610976 
L 293.321955 85.090172 
L 293.241121 58.903636 
L 318.604758 58.903636 
L 318.604758 60.594545 
L 300.968671 86.637653 
L 299.798539 87.794516 
z
" style="fill:#f6929c;"/>
   </g>
   <g id="patch_17">
    <path clip-path="url(#p6b9582a5bf)" d="M 288.391234 154.901781 
L 287.19558 153.706128 
L 281.250919 122.820273 
L 281.260301 121.17484 
L 281.897207 119.657642 
L 283.065136 118.498555 
L 284.587132 117.873201 
L 286.232591 117.876329 
L 287.752198 118.507463 
L 306.326033 136.966982 
z
" style="fill:#f6929c;"/>
   </g>
   <g id="patch_18">
    <path clip-path="url(#p6b9582a5bf)" d="M 334.26218 227.656364 
L 334.26218 202.292727 
L 335.953089 202.292727 
L 361.996197 219.928814 
L 363.153059 221.098945 
L 363.77552 222.622127 
L 363.769267 224.267576 
L 363.135245 225.785981 
L 361.969519 226.947284 
L 360.448715 227.57553 
z
" style="fill:#f6929c;"/>
   </g>
   <g id="patch_19">
    <path clip-path="url(#p6b9582a5bf)" d="M 290.811556 192.348415 
L 290.811556 166.984779 
L 292.502465 166.984779 
L 318.545573 184.620866 
L 319.702435 185.790997 
L 320.324896 187.314178 
L 320.318643 188.959627 
L 319.684621 190.478033 
L 318.518895 191.639336 
L 316.998091 192.267581 
z
" style="fill:#f6929c;"/>
   </g>
   <g id="patch_20">
    <path clip-path="url(#p6b9582a5bf)" d="M 325.923454 225.246539 
L 324.277996 225.243411 
L 322.758389 224.612278 
L 304.184554 206.152759 
L 322.119353 188.217959 
L 323.315006 189.413613 
L 329.259668 220.299468 
L 329.250285 221.944901 
L 328.61338 223.462099 
L 327.44545 224.621185 
z
" style="fill:#f6929c;"/>
   </g>
   <g id="patch_21">
    <path clip-path="url(#p6b9582a5bf)" d="M 167.459502 132.683057 
L 164.165563 112.82465 
L 163.091316 111.125017 
L 162.324056 110.467683 
L 160.479742 109.666894 
L 159.475609 109.555104 
L 157.500334 109.930655 
L 155.825317 111.042928 
L 137.391452 129.478467 
L 140.132009 132.213046 
L 156.709742 115.635313 
L 156.605469 114.007211 
L 157.39092 112.587236 
L 158.819023 111.816665 
L 159.908865 111.795747 
L 161.391263 112.534899 
L 162.225986 113.98512 
L 162.261291 115.109127 
L 161.519222 116.608875 
L 160.069001 117.443597 
L 158.390471 117.333738 
L 141.819434 133.910754 
L 144.089143 136.17018 
L 153.466771 126.792551 
L 154.675456 126.299879 
L 155.618645 126.602071 
L 156.228397 127.382538 
L 157.245394 133.277177 
L 157.946871 135.131543 
L 159.304578 136.576316 
L 160.168055 137.07293 
L 162.099617 137.519926 
L 163.221389 137.431714 
L 165.050037 136.746113 
L 165.831773 136.153355 
L 166.985441 134.577585 
z
" style="fill:#f6929c;"/>
   </g>
   <g id="patch_22">
    <path clip-path="url(#p6b9582a5bf)" d="M 123.834882 109.428198 
L 127.128821 129.286605 
L 128.203068 130.986238 
L 128.970328 131.643573 
L 130.814642 132.444361 
L 131.818775 132.556151 
L 133.79405 132.1806 
L 135.469067 131.068327 
L 153.902932 112.632788 
L 151.162375 109.898209 
L 134.584642 126.475942 
L 134.688915 128.104044 
L 133.903464 129.524019 
L 132.47536 130.29459 
L 131.385519 130.315508 
L 129.90312 129.576356 
L 129.068398 128.126135 
L 129.033093 127.002128 
L 129.775162 125.50238 
L 131.225383 124.667658 
L 132.903912 124.777517 
L 149.47495 108.200501 
L 147.205241 105.941075 
L 137.827613 115.318704 
L 136.618928 115.811376 
L 135.675739 115.509184 
L 135.065987 114.728717 
L 134.04899 108.834078 
L 133.347513 106.979712 
L 131.989806 105.534939 
L 131.126329 105.038325 
L 129.194766 104.591329 
L 128.072995 104.679542 
L 126.244347 105.365142 
L 125.462611 105.957901 
L 124.308943 107.53367 
z
" style="fill:#f6929c;"/>
   </g>
   <g id="patch_23">
    <path clip-path="url(#p6b9582a5bf)" d="M 113.665769 122.196998 
L 125.378617 105.825817 
L 125.820832 103.864388 
L 125.743103 102.857048 
L 125.005219 100.986677 
L 124.374237 100.197601 
L 122.711952 99.066425 
L 120.74104 98.668505 
L 94.670435 98.669689 
L 94.674662 102.541194 
L 118.119116 102.541194 
L 119.196626 101.31622 
L 120.756098 100.867544 
L 122.310796 101.33249 
L 123.096221 102.088333 
L 123.621776 103.659207 
L 123.186553 105.274906 
L 122.416724 106.094663 
L 120.831521 106.630423 
L 119.215821 106.1952 
L 118.106604 104.930618 
L 94.667391 104.934845 
L 94.674662 108.137427 
L 107.936631 108.137427 
L 109.139672 108.643724 
L 109.592925 109.524341 
L 109.472211 110.507375 
L 106.023198 115.39464 
L 105.207982 117.201894 
L 105.146418 119.183546 
L 105.405829 120.145276 
L 106.455576 121.827171 
L 107.311164 122.558007 
L 109.089006 123.366263 
L 110.06092 123.499891 
L 111.990924 123.20142 
z
" style="fill:#f6929c;"/>
   </g>
   <g id="patch_24">
    <path clip-path="url(#p6b9582a5bf)" d="M 92.915765 78.241037 
L 76.544585 66.528189 
L 74.583156 66.085974 
L 73.575815 66.163704 
L 71.705445 66.901588 
L 70.916369 67.532569 
L 69.785193 69.194854 
L 69.387273 71.165766 
L 69.388456 97.236372 
L 73.259962 97.232144 
L 73.259962 73.78769 
L 72.034988 72.71018 
L 71.586312 71.150709 
L 72.051258 69.596011 
L 72.807101 68.810585 
L 74.377974 68.28503 
L 75.993673 68.720253 
L 76.813431 69.490082 
L 77.34919 71.075286 
L 76.913967 72.690985 
L 75.649385 73.800202 
L 75.653613 97.239415 
L 78.856195 97.232144 
L 78.856195 83.970175 
L 79.362492 82.767134 
L 80.243109 82.313881 
L 81.226142 82.434595 
L 86.113407 85.883608 
L 87.920661 86.698824 
L 89.902314 86.760388 
L 90.864043 86.500977 
L 92.545938 85.451231 
L 93.276775 84.595642 
L 94.085031 82.8178 
L 94.218658 81.845886 
L 93.920187 79.915882 
z
" style="fill:#f6929c;"/>
   </g>
   <g id="patch_25">
    <path clip-path="url(#p6b9582a5bf)" d="M 71.053548 105.926815 
L 87.424728 117.639663 
L 89.386157 118.081878 
L 90.393498 118.004148 
L 92.263868 117.266264 
L 93.052944 116.635283 
L 94.18412 114.972998 
L 94.58204 113.002086 
L 94.580857 86.93148 
L 90.709351 86.935708 
L 90.709351 110.380162 
L 91.934325 111.457672 
L 92.383001 113.017143 
L 91.918055 114.571841 
L 91.162212 115.357267 
L 89.591339 115.882822 
L 87.97564 115.447599 
L 87.155882 114.67777 
L 86.620123 113.092566 
L 87.055346 111.476867 
L 88.319928 110.367649 
L 88.3157 86.928437 
L 85.113119 86.935708 
L 85.113119 100.197677 
L 84.606821 101.400718 
L 83.726204 101.853971 
L 82.743171 101.733257 
L 77.855906 98.284244 
L 76.048652 97.469028 
L 74.067 97.407464 
L 73.10527 97.666874 
L 71.423375 98.716621 
L 70.692539 99.572209 
L 69.884282 101.350051 
L 69.750655 102.321966 
L 70.049126 104.251969 
z
" style="fill:#f6929c;"/>
   </g>
   <g id="patch_26">
    <path clip-path="url(#p6b9582a5bf)" d="M 81.368563 127.27656 
L 97.739744 138.989408 
L 99.701173 139.431623 
L 100.708514 139.353893 
L 102.578884 138.616009 
L 103.36796 137.985028 
L 104.499136 136.322743 
L 104.897056 134.351831 
L 104.895872 108.281225 
L 101.024367 108.285453 
L 101.024367 131.729907 
L 102.249341 132.807417 
L 102.698017 134.366888 
L 102.233071 135.921586 
L 101.477228 136.707012 
L 99.906355 137.232567 
L 98.290656 136.797344 
L 97.470898 136.027515 
L 96.935138 134.442311 
L 97.370361 132.826612 
L 98.634943 131.717395 
L 98.630716 108.278182 
L 95.428134 108.285453 
L 95.428134 121.547422 
L 94.921837 122.750463 
L 94.04122 123.203716 
L 93.058187 123.083002 
L 88.170922 119.633989 
L 86.363668 118.818773 
L 84.382015 118.757209 
L 83.420285 119.01662 
L 81.738391 120.066366 
L 81.007554 120.921955 
L 80.199298 122.699797 
L 80.065671 123.671711 
L 80.364141 125.601715 
z
" style="fill:#f6929c;"/>
   </g>
   <g id="patch_27">
    <path clip-path="url(#p6b9582a5bf)" d="M 83.308617 160.987599 
L 103.167024 157.69366 
L 104.866657 156.619413 
L 105.523991 155.852153 
L 106.32478 154.007839 
L 106.43657 153.003706 
L 106.061019 151.028431 
L 104.948746 149.353414 
L 86.513207 130.919549 
L 83.778628 133.660106 
L 100.356361 150.237839 
L 101.984463 150.133566 
L 103.404438 150.919017 
L 104.175009 152.34712 
L 104.195927 153.436962 
L 103.456775 154.91936 
L 102.006554 155.754083 
L 100.882547 155.789388 
L 99.382799 155.047319 
L 98.548077 153.597098 
L 98.657936 151.918568 
L 82.08092 135.347531 
L 79.821494 137.61724 
L 89.199123 146.994868 
L 89.691795 148.203553 
L 89.389603 149.146742 
L 88.609136 149.756494 
L 82.714497 150.773491 
L 80.860131 151.474968 
L 79.415358 152.832675 
L 78.918744 153.696152 
L 78.471748 155.627714 
L 78.55996 156.749486 
L 79.245561 158.578134 
L 79.838319 159.35987 
L 81.414089 160.513538 
z
" style="fill:#f6929c;"/>
   </g>
   <g id="patch_28">
    <path clip-path="url(#p6b9582a5bf)" d="M 295.453787 214.743446 
L 283.497254 190.83038 
L 313.388586 196.808647 
z
" style="fill:#f6929c;"/>
   </g>
   <g id="patch_29">
    <path clip-path="url(#p6b9582a5bf)" d="M 272.710447 197.860652 
L 260.753914 173.947586 
L 290.645246 179.925852 
z
" style="fill:#f6929c;"/>
   </g>
   <g id="patch_30">
    <path clip-path="url(#p6b9582a5bf)" d="M 242.298094 168.207611 
L 230.341561 144.294545 
L 260.232893 150.272812 
z
" style="fill:#f6929c;"/>
   </g>
   <g id="patch_31">
    <path clip-path="url(#p6b9582a5bf)" d="M 244.51304 190.056807 
L 232.556507 166.143741 
L 262.447839 172.122007 
z
" style="fill:#f6929c;"/>
   </g>
   <g id="patch_32">
    <path clip-path="url(#p6b9582a5bf)" d="M 270.581165 218.976977 
L 258.624632 195.063911 
L 288.515964 201.042178 
z
" style="fill:#f6929c;"/>
   </g>
   <g id="matplotlib.axis_1">
    <g id="xtick_1">
     <g id="line2d_1">
      <defs>
       <path d="M 0 0 
L 0 3.5 
" id="maef673375f" style="stroke:#000000;stroke-width:0.8;"/>
      </defs>
      <g>
       <use style="stroke:#000000;stroke-width:0.8;" x="69.218182" xlink:href="#maef673375f" y="252"/>
      </g>
     </g>
     <g id="text_1">
      <!-- 0 -->
      <defs>
       <path d="M 31.78125 66.40625 
Q 24.171875 66.40625 20.328125 58.90625 
Q 16.5 51.421875 16.5 36.375 
Q 16.5 21.390625 20.328125 13.890625 
Q 24.171875 6.390625 31.78125 6.390625 
Q 39.453125 6.390625 43.28125 13.890625 
Q 47.125 21.390625 47.125 36.375 
Q 47.125 51.421875 43.28125 58.90625 
Q 39.453125 66.40625 31.78125 66.40625 
z
M 31.78125 74.21875 
Q 44.046875 74.21875 50.515625 64.515625 
Q 56.984375 54.828125 56.984375 36.375 
Q 56.984375 17.96875 50.515625 8.265625 
Q 44.046875 -1.421875 31.78125 -1.421875 
Q 19.53125 -1.421875 13.0625 8.265625 
Q 6.59375 17.96875 6.59375 36.375 
Q 6.59375 54.828125 13.0625 64.515625 
Q 19.53125 74.21875 31.78125 74.21875 
z
" id="DejaVuSans-48"/>
      </defs>
      <g transform="translate(66.036932 266.598437)scale(0.1 -0.1)">
       <use xlink:href="#DejaVuSans-48"/>
      </g>
     </g>
    </g>
    <g id="xtick_2">
     <g id="line2d_2">
      <g>
       <use style="stroke:#000000;stroke-width:0.8;" x="111.490909" xlink:href="#maef673375f" y="252"/>
      </g>
     </g>
     <g id="text_2">
      <!-- 250 -->
      <defs>
       <path d="M 19.1875 8.296875 
L 53.609375 8.296875 
L 53.609375 0 
L 7.328125 0 
L 7.328125 8.296875 
Q 12.9375 14.109375 22.625 23.890625 
Q 32.328125 33.6875 34.8125 36.53125 
Q 39.546875 41.84375 41.421875 45.53125 
Q 43.3125 49.21875 43.3125 52.78125 
Q 43.3125 58.59375 39.234375 62.25 
Q 35.15625 65.921875 28.609375 65.921875 
Q 23.96875 65.921875 18.8125 64.3125 
Q 13.671875 62.703125 7.8125 59.421875 
L 7.8125 69.390625 
Q 13.765625 71.78125 18.9375 73 
Q 24.125 74.21875 28.421875 74.21875 
Q 39.75 74.21875 46.484375 68.546875 
Q 53.21875 62.890625 53.21875 53.421875 
Q 53.21875 48.921875 51.53125 44.890625 
Q 49.859375 40.875 45.40625 35.40625 
Q 44.1875 33.984375 37.640625 27.21875 
Q 31.109375 20.453125 19.1875 8.296875 
z
" id="DejaVuSans-50"/>
       <path d="M 10.796875 72.90625 
L 49.515625 72.90625 
L 49.515625 64.59375 
L 19.828125 64.59375 
L 19.828125 46.734375 
Q 21.96875 47.46875 24.109375 47.828125 
Q 26.265625 48.1875 28.421875 48.1875 
Q 40.625 48.1875 47.75 41.5 
Q 54.890625 34.8125 54.890625 23.390625 
Q 54.890625 11.625 47.5625 5.09375 
Q 40.234375 -1.421875 26.90625 -1.421875 
Q 22.3125 -1.421875 17.546875 -0.640625 
Q 12.796875 0.140625 7.71875 1.703125 
L 7.71875 11.625 
Q 12.109375 9.234375 16.796875 8.0625 
Q 21.484375 6.890625 26.703125 6.890625 
Q 35.15625 6.890625 40.078125 11.328125 
Q 45.015625 15.765625 45.015625 23.390625 
Q 45.015625 31 40.078125 35.4375 
Q 35.15625 39.890625 26.703125 39.890625 
Q 22.75 39.890625 18.8125 39.015625 
Q 14.890625 38.140625 10.796875 36.28125 
z
" id="DejaVuSans-53"/>
      </defs>
      <g transform="translate(101.947159 266.598437)scale(0.1 -0.1)">
       <use xlink:href="#DejaVuSans-50"/>
       <use x="63.623047" xlink:href="#DejaVuSans-53"/>
       <use x="127.246094" xlink:href="#DejaVuSans-48"/>
      </g>
     </g>
    </g>
    <g id="xtick_3">
     <g id="line2d_3">
      <g>
       <use style="stroke:#000000;stroke-width:0.8;" x="153.763636" xlink:href="#maef673375f" y="252"/>
      </g>
     </g>
     <g id="text_3">
      <!-- 500 -->
      <g transform="translate(144.219886 266.598437)scale(0.1 -0.1)">
       <use xlink:href="#DejaVuSans-53"/>
       <use x="63.623047" xlink:href="#DejaVuSans-48"/>
       <use x="127.246094" xlink:href="#DejaVuSans-48"/>
      </g>
     </g>
    </g>
    <g id="xtick_4">
     <g id="line2d_4">
      <g>
       <use style="stroke:#000000;stroke-width:0.8;" x="196.036364" xlink:href="#maef673375f" y="252"/>
      </g>
     </g>
     <g id="text_4">
      <!-- 750 -->
      <defs>
       <path d="M 8.203125 72.90625 
L 55.078125 72.90625 
L 55.078125 68.703125 
L 28.609375 0 
L 18.3125 0 
L 43.21875 64.59375 
L 8.203125 64.59375 
z
" id="DejaVuSans-55"/>
      </defs>
      <g transform="translate(186.492614 266.598437)scale(0.1 -0.1)">
       <use xlink:href="#DejaVuSans-55"/>
       <use x="63.623047" xlink:href="#DejaVuSans-53"/>
       <use x="127.246094" xlink:href="#DejaVuSans-48"/>
      </g>
     </g>
    </g>
    <g id="xtick_5">
     <g id="line2d_5">
      <g>
       <use style="stroke:#000000;stroke-width:0.8;" x="238.309091" xlink:href="#maef673375f" y="252"/>
      </g>
     </g>
     <g id="text_5">
      <!-- 1000 -->
      <defs>
       <path d="M 12.40625 8.296875 
L 28.515625 8.296875 
L 28.515625 63.921875 
L 10.984375 60.40625 
L 10.984375 69.390625 
L 28.421875 72.90625 
L 38.28125 72.90625 
L 38.28125 8.296875 
L 54.390625 8.296875 
L 54.390625 0 
L 12.40625 0 
z
" id="DejaVuSans-49"/>
      </defs>
      <g transform="translate(225.584091 266.598437)scale(0.1 -0.1)">
       <use xlink:href="#DejaVuSans-49"/>
       <use x="63.623047" xlink:href="#DejaVuSans-48"/>
       <use x="127.246094" xlink:href="#DejaVuSans-48"/>
       <use x="190.869141" xlink:href="#DejaVuSans-48"/>
      </g>
     </g>
    </g>
    <g id="xtick_6">
     <g id="line2d_6">
      <g>
       <use style="stroke:#000000;stroke-width:0.8;" x="280.581818" xlink:href="#maef673375f" y="252"/>
      </g>
     </g>
     <g id="text_6">
      <!-- 1250 -->
      <g transform="translate(267.856818 266.598437)scale(0.1 -0.1)">
       <use xlink:href="#DejaVuSans-49"/>
       <use x="63.623047" xlink:href="#DejaVuSans-50"/>
       <use x="127.246094" xlink:href="#DejaVuSans-53"/>
       <use x="190.869141" xlink:href="#DejaVuSans-48"/>
      </g>
     </g>
    </g>
    <g id="xtick_7">
     <g id="line2d_7">
      <g>
       <use style="stroke:#000000;stroke-width:0.8;" x="322.854545" xlink:href="#maef673375f" y="252"/>
      </g>
     </g>
     <g id="text_7">
      <!-- 1500 -->
      <g transform="translate(310.129545 266.598437)scale(0.1 -0.1)">
       <use xlink:href="#DejaVuSans-49"/>
       <use x="63.623047" xlink:href="#DejaVuSans-53"/>
       <use x="127.246094" xlink:href="#DejaVuSans-48"/>
       <use x="190.869141" xlink:href="#DejaVuSans-48"/>
      </g>
     </g>
    </g>
    <g id="xtick_8">
     <g id="line2d_8">
      <g>
       <use style="stroke:#000000;stroke-width:0.8;" x="365.127273" xlink:href="#maef673375f" y="252"/>
      </g>
     </g>
     <g id="text_8">
      <!-- 1750 -->
      <g transform="translate(352.402273 266.598437)scale(0.1 -0.1)">
       <use xlink:href="#DejaVuSans-49"/>
       <use x="63.623047" xlink:href="#DejaVuSans-55"/>
       <use x="127.246094" xlink:href="#DejaVuSans-53"/>
       <use x="190.869141" xlink:href="#DejaVuSans-48"/>
      </g>
     </g>
    </g>
   </g>
   <g id="matplotlib.axis_2">
    <g id="ytick_1">
     <g id="line2d_9">
      <defs>
       <path d="M 0 0 
L -3.5 0 
" id="me27af156c6" style="stroke:#000000;stroke-width:0.8;"/>
      </defs>
      <g>
       <use style="stroke:#000000;stroke-width:0.8;" x="54" xlink:href="#me27af156c6" y="227.825455"/>
      </g>
     </g>
     <g id="text_9">
      <!-- 0 -->
      <g transform="translate(40.6375 231.624673)scale(0.1 -0.1)">
       <use xlink:href="#DejaVuSans-48"/>
      </g>
     </g>
    </g>
    <g id="ytick_2">
     <g id="line2d_10">
      <g>
       <use style="stroke:#000000;stroke-width:0.8;" x="54" xlink:href="#me27af156c6" y="194.007273"/>
      </g>
     </g>
     <g id="text_10">
      <!-- 200 -->
      <g transform="translate(27.9125 197.806491)scale(0.1 -0.1)">
       <use xlink:href="#DejaVuSans-50"/>
       <use x="63.623047" xlink:href="#DejaVuSans-48"/>
       <use x="127.246094" xlink:href="#DejaVuSans-48"/>
      </g>
     </g>
    </g>
    <g id="ytick_3">
     <g id="line2d_11">
      <g>
       <use style="stroke:#000000;stroke-width:0.8;" x="54" xlink:href="#me27af156c6" y="160.189091"/>
      </g>
     </g>
     <g id="text_11">
      <!-- 400 -->
      <defs>
       <path d="M 37.796875 64.3125 
L 12.890625 25.390625 
L 37.796875 25.390625 
z
M 35.203125 72.90625 
L 47.609375 72.90625 
L 47.609375 25.390625 
L 58.015625 25.390625 
L 58.015625 17.1875 
L 47.609375 17.1875 
L 47.609375 0 
L 37.796875 0 
L 37.796875 17.1875 
L 4.890625 17.1875 
L 4.890625 26.703125 
z
" id="DejaVuSans-52"/>
      </defs>
      <g transform="translate(27.9125 163.98831)scale(0.1 -0.1)">
       <use xlink:href="#DejaVuSans-52"/>
       <use x="63.623047" xlink:href="#DejaVuSans-48"/>
       <use x="127.246094" xlink:href="#DejaVuSans-48"/>
      </g>
     </g>
    </g>
    <g id="ytick_4">
     <g id="line2d_12">
      <g>
       <use style="stroke:#000000;stroke-width:0.8;" x="54" xlink:href="#me27af156c6" y="126.370909"/>
      </g>
     </g>
     <g id="text_12">
      <!-- 600 -->
      <defs>
       <path d="M 33.015625 40.375 
Q 26.375 40.375 22.484375 35.828125 
Q 18.609375 31.296875 18.609375 23.390625 
Q 18.609375 15.53125 22.484375 10.953125 
Q 26.375 6.390625 33.015625 6.390625 
Q 39.65625 6.390625 43.53125 10.953125 
Q 47.40625 15.53125 47.40625 23.390625 
Q 47.40625 31.296875 43.53125 35.828125 
Q 39.65625 40.375 33.015625 40.375 
z
M 52.59375 71.296875 
L 52.59375 62.3125 
Q 48.875 64.0625 45.09375 64.984375 
Q 41.3125 65.921875 37.59375 65.921875 
Q 27.828125 65.921875 22.671875 59.328125 
Q 17.53125 52.734375 16.796875 39.40625 
Q 19.671875 43.65625 24.015625 45.921875 
Q 28.375 48.1875 33.59375 48.1875 
Q 44.578125 48.1875 50.953125 41.515625 
Q 57.328125 34.859375 57.328125 23.390625 
Q 57.328125 12.15625 50.6875 5.359375 
Q 44.046875 -1.421875 33.015625 -1.421875 
Q 20.359375 -1.421875 13.671875 8.265625 
Q 6.984375 17.96875 6.984375 36.375 
Q 6.984375 53.65625 15.1875 63.9375 
Q 23.390625 74.21875 37.203125 74.21875 
Q 40.921875 74.21875 44.703125 73.484375 
Q 48.484375 72.75 52.59375 71.296875 
z
" id="DejaVuSans-54"/>
      </defs>
      <g transform="translate(27.9125 130.170128)scale(0.1 -0.1)">
       <use xlink:href="#DejaVuSans-54"/>
       <use x="63.623047" xlink:href="#DejaVuSans-48"/>
       <use x="127.246094" xlink:href="#DejaVuSans-48"/>
      </g>
     </g>
    </g>
    <g id="ytick_5">
     <g id="line2d_13">
      <g>
       <use style="stroke:#000000;stroke-width:0.8;" x="54" xlink:href="#me27af156c6" y="92.552727"/>
      </g>
     </g>
     <g id="text_13">
      <!-- 800 -->
      <defs>
       <path d="M 31.78125 34.625 
Q 24.75 34.625 20.71875 30.859375 
Q 16.703125 27.09375 16.703125 20.515625 
Q 16.703125 13.921875 20.71875 10.15625 
Q 24.75 6.390625 31.78125 6.390625 
Q 38.8125 6.390625 42.859375 10.171875 
Q 46.921875 13.96875 46.921875 20.515625 
Q 46.921875 27.09375 42.890625 30.859375 
Q 38.875 34.625 31.78125 34.625 
z
M 21.921875 38.8125 
Q 15.578125 40.375 12.03125 44.71875 
Q 8.5 49.078125 8.5 55.328125 
Q 8.5 64.0625 14.71875 69.140625 
Q 20.953125 74.21875 31.78125 74.21875 
Q 42.671875 74.21875 48.875 69.140625 
Q 55.078125 64.0625 55.078125 55.328125 
Q 55.078125 49.078125 51.53125 44.71875 
Q 48 40.375 41.703125 38.8125 
Q 48.828125 37.15625 52.796875 32.3125 
Q 56.78125 27.484375 56.78125 20.515625 
Q 56.78125 9.90625 50.3125 4.234375 
Q 43.84375 -1.421875 31.78125 -1.421875 
Q 19.734375 -1.421875 13.25 4.234375 
Q 6.78125 9.90625 6.78125 20.515625 
Q 6.78125 27.484375 10.78125 32.3125 
Q 14.796875 37.15625 21.921875 38.8125 
z
M 18.3125 54.390625 
Q 18.3125 48.734375 21.84375 45.5625 
Q 25.390625 42.390625 31.78125 42.390625 
Q 38.140625 42.390625 41.71875 45.5625 
Q 45.3125 48.734375 45.3125 54.390625 
Q 45.3125 60.0625 41.71875 63.234375 
Q 38.140625 66.40625 31.78125 66.40625 
Q 25.390625 66.40625 21.84375 63.234375 
Q 18.3125 60.0625 18.3125 54.390625 
z
" id="DejaVuSans-56"/>
      </defs>
      <g transform="translate(27.9125 96.351946)scale(0.1 -0.1)">
       <use xlink:href="#DejaVuSans-56"/>
       <use x="63.623047" xlink:href="#DejaVuSans-48"/>
       <use x="127.246094" xlink:href="#DejaVuSans-48"/>
      </g>
     </g>
    </g>
    <g id="ytick_6">
     <g id="line2d_14">
      <g>
       <use style="stroke:#000000;stroke-width:0.8;" x="54" xlink:href="#me27af156c6" y="58.734545"/>
      </g>
     </g>
     <g id="text_14">
      <!-- 1000 -->
      <g transform="translate(21.55 62.533764)scale(0.1 -0.1)">
       <use xlink:href="#DejaVuSans-49"/>
       <use x="63.623047" xlink:href="#DejaVuSans-48"/>
       <use x="127.246094" xlink:href="#DejaVuSans-48"/>
       <use x="190.869141" xlink:href="#DejaVuSans-48"/>
      </g>
     </g>
    </g>
   </g>
   <g id="line2d_15">
    <path clip-path="url(#p6b9582a5bf)" d="M 69.218182 227.825455 
L 373.581818 227.825455 
L 373.581818 58.734545 
L 69.218182 58.734545 
L 69.218182 227.825455 
" style="fill:none;stroke:#000000;stroke-linecap:square;stroke-width:1.5;"/>
   </g>
   <g id="line2d_16">
    <path clip-path="url(#p6b9582a5bf)" d="M 69.218182 172.860638 
L 69.218182 227.825455 
L 174.907336 227.825455 
L 69.218182 172.860638 
" style="fill:none;stroke:#000000;stroke-dasharray:5.55,2.4;stroke-dashoffset:0;stroke-width:1.5;"/>
   </g>
   <g id="line2d_17">
    <path clip-path="url(#p6b9582a5bf)" d="M 105.040687 136.800432 
L 107.85789 170.606875 
L 145.608419 168.916553 
L 140.537452 132.292906 
L 105.040687 136.800432 
" style="fill:none;stroke:#000000;stroke-dasharray:5.55,2.4;stroke-dashoffset:0;stroke-width:1.5;"/>
   </g>
   <g id="line2d_18">
    <path clip-path="url(#p6b9582a5bf)" d="M 89.827787 58.734545 
L 88.700906 58.734545 
L 97.152516 91.725174 
L 207.412119 122.702872 
L 206.460017 144.125161 
L 276.890108 144.125161 
L 292.666448 58.734545 
L 117.436383 58.734545 
L 89.827787 58.734545 
" style="fill:none;stroke:#000000;stroke-dasharray:5.55,2.4;stroke-dashoffset:0;stroke-width:1.5;"/>
   </g>
   <g id="line2d_19">
    <path clip-path="url(#p6b9582a5bf)" d="M 321.105646 85.367748 
L 340.811925 65.635882 
L 334.083984 58.903636 
L 310.639615 82.353984 
L 349.966205 121.678901 
L 373.412727 98.236684 
L 367.744374 92.568331 
L 348.024465 112.286566 
L 321.105646 85.367748 
" style="fill:none;stroke:#ff0000;stroke-linecap:square;stroke-width:1.5;"/>
   </g>
   <g id="line2d_20">
    <path clip-path="url(#p6b9582a5bf)" d="M 295.007411 106.371996 
L 314.71369 86.64013 
L 307.985749 79.907885 
L 284.54138 103.358233 
L 323.86797 142.683149 
L 347.314492 119.240932 
L 341.646139 113.572579 
L 321.926229 133.290815 
L 295.007411 106.371996 
" style="fill:none;stroke:#ff0000;stroke-linecap:square;stroke-width:1.5;"/>
   </g>
   <g id="line2d_21">
    <path clip-path="url(#p6b9582a5bf)" d="M 337.101574 174.087164 
L 317.369708 154.380885 
L 310.637462 161.108826 
L 334.08781 184.553196 
L 373.412727 145.226605 
L 349.97051 121.780083 
L 344.302157 127.448436 
L 364.020392 147.168346 
L 337.101574 174.087164 
" style="fill:none;stroke:#ff0000;stroke-linecap:square;stroke-width:1.5;"/>
   </g>
   <g id="line2d_22">
    <path clip-path="url(#p6b9582a5bf)" d="M 306.551408 164.929212 
L 326.257687 145.197346 
L 319.529746 138.465101 
L 296.085376 161.915449 
L 335.411967 201.240366 
L 358.858489 177.798148 
L 353.190136 172.129795 
L 333.470226 191.848031 
L 306.551408 164.929212 
" style="fill:none;stroke:#ff0000;stroke-linecap:square;stroke-width:1.5;"/>
   </g>
   <g id="line2d_23">
    <path clip-path="url(#p6b9582a5bf)" d="M 282.953795 167.216166 
L 263.221929 147.509886 
L 256.489683 154.237827 
L 279.940031 177.682197 
L 319.264948 138.355606 
L 295.822731 114.909084 
L 290.154377 120.577437 
L 309.872613 140.297347 
L 282.953795 167.216166 
" style="fill:none;stroke:#ff0000;stroke-linecap:square;stroke-width:1.5;"/>
   </g>
   <g id="line2d_24">
    <path clip-path="url(#p6b9582a5bf)" d="M 349.74 84.267273 
L 348.544346 83.772017 
L 348.049091 82.576364 
L 348.049091 60.594545 
L 348.544346 59.398892 
L 349.74 58.903636 
L 371.721818 58.903636 
L 372.917472 59.398892 
L 373.412727 60.594545 
L 373.412727 82.576364 
L 372.917472 83.772017 
L 371.721818 84.267273 
L 349.74 84.267273 
" style="fill:none;stroke:#ff0000;stroke-linecap:square;stroke-width:1.5;"/>
   </g>
   <g id="line2d_25">
    <path clip-path="url(#p6b9582a5bf)" d="M 314.822727 121.621858 
L 313.627074 121.126602 
L 298.083581 105.583109 
L 297.588325 104.387456 
L 298.083581 103.191802 
L 313.627074 87.64831 
L 314.822727 87.153053 
L 316.018381 87.64831 
L 331.561873 103.191802 
L 332.05713 104.387456 
L 331.561873 105.583109 
L 316.018381 121.126602 
L 314.822727 121.621858 
" style="fill:none;stroke:#ff0000;stroke-linecap:square;stroke-width:1.5;"/>
   </g>
   <g id="line2d_26">
    <path clip-path="url(#p6b9582a5bf)" d="M 343.155249 161.417236 
L 341.959595 160.92198 
L 326.416103 145.378487 
L 325.920846 144.182834 
L 326.416103 142.987181 
L 341.959595 127.443688 
L 343.155249 126.948432 
L 344.350902 127.443688 
L 359.894395 142.987181 
L 360.389651 144.182834 
L 359.894395 145.378487 
L 344.350902 160.92198 
L 343.155249 161.417236 
" style="fill:none;stroke:#ff0000;stroke-linecap:square;stroke-width:1.5;"/>
   </g>
   <g id="line2d_27">
    <path clip-path="url(#p6b9582a5bf)" d="M 356.178325 215.538988 
L 354.982672 215.043731 
L 339.439179 199.500238 
L 338.943923 198.304585 
L 339.439179 197.108932 
L 354.982672 181.565439 
L 356.178325 181.070183 
L 357.373978 181.565439 
L 372.917471 197.108932 
L 373.412727 198.304585 
L 372.917471 199.500238 
L 357.373978 215.043731 
L 356.178325 215.538988 
" style="fill:none;stroke:#ff0000;stroke-linecap:square;stroke-width:1.5;"/>
   </g>
   <g id="line2d_28">
    <path clip-path="url(#p6b9582a5bf)" d="M 347.056779 100.595967 
L 345.411321 100.592839 
L 343.891714 99.961705 
L 325.317878 81.502186 
L 343.252678 63.567387 
L 344.448331 64.76304 
L 350.392992 95.648895 
L 350.38361 97.294328 
L 349.746705 98.811526 
L 348.578775 99.970613 
L 347.056779 100.595967 
" style="fill:none;stroke:#ff0000;stroke-linecap:square;stroke-width:1.5;"/>
   </g>
   <g id="line2d_29">
    <path clip-path="url(#p6b9582a5bf)" d="M 298.275358 88.416977 
L 296.629909 88.410724 
L 295.111503 87.776702 
L 293.950201 86.610976 
L 293.321955 85.090172 
L 293.241121 58.903636 
L 318.604758 58.903636 
L 318.604758 60.594545 
L 300.968671 86.637653 
L 299.798539 87.794516 
L 298.275358 88.416977 
" style="fill:none;stroke:#ff0000;stroke-linecap:square;stroke-width:1.5;"/>
   </g>
   <g id="line2d_30">
    <path clip-path="url(#p6b9582a5bf)" d="M 288.391234 154.901781 
L 287.19558 153.706128 
L 281.250919 122.820273 
L 281.260301 121.17484 
L 281.897207 119.657642 
L 283.065136 118.498555 
L 284.587132 117.873201 
L 286.232591 117.876329 
L 287.752198 118.507463 
L 306.326033 136.966982 
L 288.391234 154.901781 
" style="fill:none;stroke:#ff0000;stroke-linecap:square;stroke-width:1.5;"/>
   </g>
   <g id="line2d_31">
    <path clip-path="url(#p6b9582a5bf)" d="M 334.26218 227.656364 
L 334.26218 202.292727 
L 335.953089 202.292727 
L 361.996197 219.928814 
L 363.153059 221.098945 
L 363.77552 222.622127 
L 363.769267 224.267576 
L 363.135245 225.785981 
L 361.969519 226.947284 
L 360.448715 227.57553 
L 334.26218 227.656364 
" style="fill:none;stroke:#ff0000;stroke-linecap:square;stroke-width:1.5;"/>
   </g>
   <g id="line2d_32">
    <path clip-path="url(#p6b9582a5bf)" d="M 290.811556 192.348415 
L 290.811556 166.984779 
L 292.502465 166.984779 
L 318.545573 184.620866 
L 319.702435 185.790997 
L 320.324896 187.314178 
L 320.318643 188.959627 
L 319.684621 190.478033 
L 318.518895 191.639336 
L 316.998091 192.267581 
L 290.811556 192.348415 
" style="fill:none;stroke:#ff0000;stroke-linecap:square;stroke-width:1.5;"/>
   </g>
   <g id="line2d_33">
    <path clip-path="url(#p6b9582a5bf)" d="M 325.923454 225.246539 
L 324.277996 225.243411 
L 322.758389 224.612278 
L 304.184554 206.152759 
L 322.119353 188.217959 
L 323.315006 189.413613 
L 329.259668 220.299468 
L 329.250285 221.944901 
L 328.61338 223.462099 
L 327.44545 224.621185 
L 325.923454 225.246539 
" style="fill:none;stroke:#ff0000;stroke-linecap:square;stroke-width:1.5;"/>
   </g>
   <g id="line2d_34">
    <path clip-path="url(#p6b9582a5bf)" d="M 167.459502 132.683057 
L 164.165563 112.82465 
L 163.091316 111.125017 
L 162.324056 110.467683 
L 160.479742 109.666894 
L 159.475609 109.555104 
L 157.500334 109.930655 
L 155.825317 111.042928 
L 137.391452 129.478467 
L 140.132009 132.213046 
L 156.709742 115.635313 
L 156.605469 114.007211 
L 157.39092 112.587236 
L 158.819023 111.816665 
L 159.908865 111.795747 
L 161.391263 112.534899 
L 162.225986 113.98512 
L 162.261291 115.109127 
L 161.519222 116.608875 
L 160.069001 117.443597 
L 158.390471 117.333738 
L 141.819434 133.910754 
L 144.089143 136.17018 
L 153.466771 126.792551 
L 154.675456 126.299879 
L 155.618645 126.602071 
L 156.228397 127.382538 
L 157.245394 133.277177 
L 157.946871 135.131543 
L 159.304578 136.576316 
L 160.168055 137.07293 
L 162.099617 137.519926 
L 163.221389 137.431714 
L 165.050037 136.746113 
L 165.831773 136.153355 
L 166.985441 134.577585 
L 167.459502 132.683057 
" style="fill:none;stroke:#ff0000;stroke-linecap:square;stroke-width:1.5;"/>
   </g>
   <g id="line2d_35">
    <path clip-path="url(#p6b9582a5bf)" d="M 123.834882 109.428198 
L 127.128821 129.286605 
L 128.203068 130.986238 
L 128.970328 131.643573 
L 130.814642 132.444361 
L 131.818775 132.556151 
L 133.79405 132.1806 
L 135.469067 131.068327 
L 153.902932 112.632788 
L 151.162375 109.898209 
L 134.584642 126.475942 
L 134.688915 128.104044 
L 133.903464 129.524019 
L 132.47536 130.29459 
L 131.385519 130.315508 
L 129.90312 129.576356 
L 129.068398 128.126135 
L 129.033093 127.002128 
L 129.775162 125.50238 
L 131.225383 124.667658 
L 132.903912 124.777517 
L 149.47495 108.200501 
L 147.205241 105.941075 
L 137.827613 115.318704 
L 136.618928 115.811376 
L 135.675739 115.509184 
L 135.065987 114.728717 
L 134.04899 108.834078 
L 133.347513 106.979712 
L 131.989806 105.534939 
L 131.126329 105.038325 
L 129.194766 104.591329 
L 128.072995 104.679542 
L 126.244347 105.365142 
L 125.462611 105.957901 
L 124.308943 107.53367 
L 123.834882 109.428198 
" style="fill:none;stroke:#ff0000;stroke-linecap:square;stroke-width:1.5;"/>
   </g>
   <g id="line2d_36">
    <path clip-path="url(#p6b9582a5bf)" d="M 113.665769 122.196998 
L 125.378617 105.825817 
L 125.820832 103.864388 
L 125.743103 102.857048 
L 125.005219 100.986677 
L 124.374237 100.197601 
L 122.711952 99.066425 
L 120.74104 98.668505 
L 94.670435 98.669689 
L 94.674662 102.541194 
L 118.119116 102.541194 
L 119.196626 101.31622 
L 120.756098 100.867544 
L 122.310796 101.33249 
L 123.096221 102.088333 
L 123.621776 103.659207 
L 123.186553 105.274906 
L 122.416724 106.094663 
L 120.831521 106.630423 
L 119.215821 106.1952 
L 118.106604 104.930618 
L 94.667391 104.934845 
L 94.674662 108.137427 
L 107.936631 108.137427 
L 109.139672 108.643724 
L 109.592925 109.524341 
L 109.472211 110.507375 
L 106.023198 115.39464 
L 105.207982 117.201894 
L 105.146418 119.183546 
L 105.405829 120.145276 
L 106.455576 121.827171 
L 107.311164 122.558007 
L 109.089006 123.366263 
L 110.06092 123.499891 
L 111.990924 123.20142 
L 113.665769 122.196998 
" style="fill:none;stroke:#ff0000;stroke-linecap:square;stroke-width:1.5;"/>
   </g>
   <g id="line2d_37">
    <path clip-path="url(#p6b9582a5bf)" d="M 92.915765 78.241037 
L 76.544585 66.528189 
L 74.583156 66.085974 
L 73.575815 66.163704 
L 71.705445 66.901588 
L 70.916369 67.532569 
L 69.785193 69.194854 
L 69.387273 71.165766 
L 69.388456 97.236372 
L 73.259962 97.232144 
L 73.259962 73.78769 
L 72.034988 72.71018 
L 71.586312 71.150709 
L 72.051258 69.596011 
L 72.807101 68.810585 
L 74.377974 68.28503 
L 75.993673 68.720253 
L 76.813431 69.490082 
L 77.34919 71.075286 
L 76.913967 72.690985 
L 75.649385 73.800202 
L 75.653613 97.239415 
L 78.856195 97.232144 
L 78.856195 83.970175 
L 79.362492 82.767134 
L 80.243109 82.313881 
L 81.226142 82.434595 
L 86.113407 85.883608 
L 87.920661 86.698824 
L 89.902314 86.760388 
L 90.864043 86.500977 
L 92.545938 85.451231 
L 93.276775 84.595642 
L 94.085031 82.8178 
L 94.218658 81.845886 
L 93.920187 79.915882 
L 92.915765 78.241037 
" style="fill:none;stroke:#ff0000;stroke-linecap:square;stroke-width:1.5;"/>
   </g>
   <g id="line2d_38">
    <path clip-path="url(#p6b9582a5bf)" d="M 71.053548 105.926815 
L 87.424728 117.639663 
L 89.386157 118.081878 
L 90.393498 118.004148 
L 92.263868 117.266264 
L 93.052944 116.635283 
L 94.18412 114.972998 
L 94.58204 113.002086 
L 94.580857 86.93148 
L 90.709351 86.935708 
L 90.709351 110.380162 
L 91.934325 111.457672 
L 92.383001 113.017143 
L 91.918055 114.571841 
L 91.162212 115.357267 
L 89.591339 115.882822 
L 87.97564 115.447599 
L 87.155882 114.67777 
L 86.620123 113.092566 
L 87.055346 111.476867 
L 88.319928 110.367649 
L 88.3157 86.928437 
L 85.113119 86.935708 
L 85.113119 100.197677 
L 84.606821 101.400718 
L 83.726204 101.853971 
L 82.743171 101.733257 
L 77.855906 98.284244 
L 76.048652 97.469028 
L 74.067 97.407464 
L 73.10527 97.666874 
L 71.423375 98.716621 
L 70.692539 99.572209 
L 69.884282 101.350051 
L 69.750655 102.321966 
L 70.049126 104.251969 
L 71.053548 105.926815 
" style="fill:none;stroke:#ff0000;stroke-linecap:square;stroke-width:1.5;"/>
   </g>
   <g id="line2d_39">
    <path clip-path="url(#p6b9582a5bf)" d="M 81.368563 127.27656 
L 97.739744 138.989408 
L 99.701173 139.431623 
L 100.708514 139.353893 
L 102.578884 138.616009 
L 103.36796 137.985028 
L 104.499136 136.322743 
L 104.897056 134.351831 
L 104.895872 108.281225 
L 101.024367 108.285453 
L 101.024367 131.729907 
L 102.249341 132.807417 
L 102.698017 134.366888 
L 102.233071 135.921586 
L 101.477228 136.707012 
L 99.906355 137.232567 
L 98.290656 136.797344 
L 97.470898 136.027515 
L 96.935138 134.442311 
L 97.370361 132.826612 
L 98.634943 131.717395 
L 98.630716 108.278182 
L 95.428134 108.285453 
L 95.428134 121.547422 
L 94.921837 122.750463 
L 94.04122 123.203716 
L 93.058187 123.083002 
L 88.170922 119.633989 
L 86.363668 118.818773 
L 84.382015 118.757209 
L 83.420285 119.01662 
L 81.738391 120.066366 
L 81.007554 120.921955 
L 80.199298 122.699797 
L 80.065671 123.671711 
L 80.364141 125.601715 
L 81.368563 127.27656 
" style="fill:none;stroke:#ff0000;stroke-linecap:square;stroke-width:1.5;"/>
   </g>
   <g id="line2d_40">
    <path clip-path="url(#p6b9582a5bf)" d="M 83.308617 160.987599 
L 103.167024 157.69366 
L 104.866657 156.619413 
L 105.523991 155.852153 
L 106.32478 154.007839 
L 106.43657 153.003706 
L 106.061019 151.028431 
L 104.948746 149.353414 
L 86.513207 130.919549 
L 83.778628 133.660106 
L 100.356361 150.237839 
L 101.984463 150.133566 
L 103.404438 150.919017 
L 104.175009 152.34712 
L 104.195927 153.436962 
L 103.456775 154.91936 
L 102.006554 155.754083 
L 100.882547 155.789388 
L 99.382799 155.047319 
L 98.548077 153.597098 
L 98.657936 151.918568 
L 82.08092 135.347531 
L 79.821494 137.61724 
L 89.199123 146.994868 
L 89.691795 148.203553 
L 89.389603 149.146742 
L 88.609136 149.756494 
L 82.714497 150.773491 
L 80.860131 151.474968 
L 79.415358 152.832675 
L 78.918744 153.696152 
L 78.471748 155.627714 
L 78.55996 156.749486 
L 79.245561 158.578134 
L 79.838319 159.35987 
L 81.414089 160.513538 
L 83.308617 160.987599 
" style="fill:none;stroke:#ff0000;stroke-linecap:square;stroke-width:1.5;"/>
   </g>
   <g id="line2d_41">
    <path clip-path="url(#p6b9582a5bf)" d="M 295.453787 214.743446 
L 283.497254 190.83038 
L 313.388586 196.808647 
L 295.453787 214.743446 
" style="fill:none;stroke:#ff0000;stroke-linecap:square;stroke-width:1.5;"/>
   </g>
   <g id="line2d_42">
    <path clip-path="url(#p6b9582a5bf)" d="M 272.710447 197.860652 
L 260.753914 173.947586 
L 290.645246 179.925852 
L 272.710447 197.860652 
" style="fill:none;stroke:#ff0000;stroke-linecap:square;stroke-width:1.5;"/>
   </g>
   <g id="line2d_43">
    <path clip-path="url(#p6b9582a5bf)" d="M 242.298094 168.207611 
L 230.341561 144.294545 
L 260.232893 150.272812 
L 242.298094 168.207611 
" style="fill:none;stroke:#ff0000;stroke-linecap:square;stroke-width:1.5;"/>
   </g>
   <g id="line2d_44">
    <path clip-path="url(#p6b9582a5bf)" d="M 244.51304 190.056807 
L 232.556507 166.143741 
L 262.447839 172.122007 
L 244.51304 190.056807 
" style="fill:none;stroke:#ff0000;stroke-linecap:square;stroke-width:1.5;"/>
   </g>
   <g id="line2d_45">
    <path clip-path="url(#p6b9582a5bf)" d="M 270.581165 218.976977 
L 258.624632 195.063911 
L 288.515964 201.042178 
L 270.581165 218.976977 
" style="fill:none;stroke:#ff0000;stroke-linecap:square;stroke-width:1.5;"/>
   </g>
   <g id="patch_33">
    <path d="M 54 252 
L 54 34.56 
" style="fill:none;stroke:#000000;stroke-linecap:square;stroke-linejoin:miter;stroke-width:0.8;"/>
   </g>
   <g id="patch_34">
    <path d="M 388.8 252 
L 388.8 34.56 
" style="fill:none;stroke:#000000;stroke-linecap:square;stroke-linejoin:miter;stroke-width:0.8;"/>
   </g>
   <g id="patch_35">
    <path d="M 54 252 
L 388.8 252 
" style="fill:none;stroke:#000000;stroke-linecap:square;stroke-linejoin:miter;stroke-width:0.8;"/>
   </g>
   <g id="patch_36">
    <path d="M 54 34.56 
L 388.8 34.56 
" style="fill:none;stroke:#000000;stroke-linecap:square;stroke-linejoin:miter;stroke-width:0.8;"/>
   </g>
  </g>
 </g>
 <defs>
  <clipPath id="p6b9582a5bf">
   <rect height="217.44" width="334.8" x="54" y="34.56"/>
  </clipPath>
 </defs>
</svg>
