<?xml version="1.0" encoding="utf-8" standalone="no"?>
<!DOCTYPE svg PUBLIC "-//W3C//DTD SVG 1.1//EN"
  "http://www.w3.org/Graphics/SVG/1.1/DTD/svg11.dtd">
<!-- Created with matplotlib (https://matplotlib.org/) -->
<svg height="288pt" version="1.1" viewBox="0 0 432 288" width="432pt" xmlns="http://www.w3.org/2000/svg" xmlns:xlink="http://www.w3.org/1999/xlink">
 <defs>
  <style type="text/css">
*{stroke-linecap:butt;stroke-linejoin:round;}
  </style>
 </defs>
 <g id="figure_1">
  <g id="patch_1">
   <path d="M 0 288 
L 432 288 
L 432 0 
L 0 0 
z
" style="fill:#ffffff;"/>
  </g>
  <g id="axes_1">
   <g id="patch_2">
    <path d="M 54 252 
L 388.8 252 
L 388.8 34.56 
L 54 34.56 
z
" style="fill:#ffffff;"/>
   </g>
   <g id="patch_3">
    <path clip-path="url(#p787e45dc1f)" d="M 69.218182 172.860638 
L 69.218182 227.825455 
L 174.907336 227.825455 
z
" style="fill:#aaaaaa;"/>
   </g>
   <g id="patch_4">
    <path clip-path="url(#p787e45dc1f)" d="M 105.040687 136.800432 
L 107.85789 170.606875 
L 145.608419 168.916553 
L 140.537452 132.292906 
z
" style="fill:#aaaaaa;"/>
   </g>
   <g id="patch_5">
    <path clip-path="url(#p787e45dc1f)" d="M 89.827787 58.734545 
L 88.700906 58.734545 
L 97.152516 91.725174 
L 207.412119 122.702872 
L 206.460017 144.125161 
L 276.890108 144.125161 
L 292.666448 58.734545 
L 117.436383 58.734545 
z
" style="fill:#aaaaaa;"/>
   </g>
   <g id="patch_6">
    <path clip-path="url(#p787e45dc1f)" d="M 326.215854 87.134413 
L 326.122828 59.247582 
L 316.605065 59.270113 
L 316.698393 92.429555 
L 372.313204 92.278932 
L 372.227158 59.123698 
L 364.210925 59.145238 
L 364.284675 87.032121 
z
" style="fill:#f6929c;"/>
   </g>
   <g id="patch_7">
    <path clip-path="url(#p787e45dc1f)" d="M 326.582435 124.865469 
L 327.1938 96.985185 
L 317.678505 96.767311 
L 316.934267 129.918531 
L 372.53514 131.172666 
L 373.28655 98.025836 
L 365.272331 97.844896 
L 364.641695 125.724745 
z
" style="fill:#f6929c;"/>
   </g>
   <g id="patch_8">
    <path clip-path="url(#p787e45dc1f)" d="M 293.440877 113.305597 
L 317.047539 98.459404 
L 311.98836 90.397579 
L 283.909192 108.036104 
L 313.487406 155.13344 
L 341.566862 137.503321 
L 337.303648 130.714693 
L 313.686734 145.544562 
z
" style="fill:#f6929c;"/>
   </g>
   <g id="patch_9">
    <path clip-path="url(#p787e45dc1f)" d="M 351.079145 187.575483 
L 325.308011 176.920313 
L 321.662899 185.712439 
L 352.299967 198.398153 
L 373.581818 147.016126 
L 342.951438 134.325313 
L 339.883747 141.731373 
L 365.647504 152.404352 
z
" style="fill:#f6929c;"/>
   </g>
   <g id="patch_10">
    <path clip-path="url(#p787e45dc1f)" d="M 285.926255 154.409905 
L 296.826898 128.741637 
L 288.069961 125.012779 
L 275.092427 155.52738 
L 326.269001 177.298649 
L 339.251571 146.790784 
L 331.875126 143.65255 
L 320.956745 169.313272 
z
" style="fill:#f6929c;"/>
   </g>
   <g id="patch_11">
    <path clip-path="url(#p787e45dc1f)" d="M 362.874004 122.235703 
L 340.899892 121.653693 
L 339.71777 121.126954 
L 339.254346 119.918607 
L 339.836356 97.944495 
L 340.363095 96.762373 
L 341.571442 96.298949 
L 363.545554 96.880959 
L 364.727676 97.407698 
L 365.1911 98.616045 
L 364.60909 120.590157 
L 364.082351 121.772279 
z
" style="fill:#f6929c;"/>
   </g>
   <g id="patch_12">
    <path clip-path="url(#p787e45dc1f)" d="M 292.959403 89.568385 
L 291.763749 89.07313 
L 291.268494 87.877476 
L 291.268494 65.895658 
L 291.763749 64.700004 
L 292.959403 64.204749 
L 314.941221 64.204749 
L 316.136875 64.700004 
L 316.63213 65.895658 
L 316.63213 87.877476 
L 316.136875 89.07313 
L 314.941221 89.568385 
z
" style="fill:#f6929c;"/>
   </g>
   <g id="patch_13">
    <path clip-path="url(#p787e45dc1f)" d="M 339.822933 84.696768 
L 338.626248 84.204009 
L 338.128498 83.009392 
L 338.082614 61.027622 
L 338.575372 59.830937 
L 339.769989 59.333187 
L 361.75176 59.287302 
L 362.948445 59.780061 
L 363.446195 60.974678 
L 363.492079 82.956448 
L 362.999321 84.153133 
L 361.804703 84.650883 
z
" style="fill:#f6929c;"/>
   </g>
   <g id="patch_14">
    <path clip-path="url(#p787e45dc1f)" d="M 334.789422 173.124339 
L 333.252192 172.537428 
L 332.055505 171.408056 
L 331.380677 169.90734 
L 331.329952 168.262663 
L 340.501635 143.734691 
L 364.231179 152.691408 
L 363.634065 154.273378 
L 337.93755 172.410747 
L 336.434281 173.079866 
z
" style="fill:#f6929c;"/>
   </g>
   <g id="patch_15">
    <path clip-path="url(#p787e45dc1f)" d="M 373.185596 207.283581 
L 347.822265 207.15913 
L 347.830562 205.468241 
L 365.594221 179.511981 
L 366.770015 178.360874 
L 368.296231 177.745894 
L 369.94163 177.760221 
L 371.456907 178.401685 
L 372.612476 179.573096 
L 373.233252 181.096963 
z
" style="fill:#f6929c;"/>
   </g>
   <g id="patch_16">
    <path clip-path="url(#p787e45dc1f)" d="M 310.808365 164.15715 
L 286.491298 154.440079 
L 295.975628 130.916442 
L 297.54387 131.54873 
L 315.102952 157.643819 
L 315.738339 159.161654 
L 315.746074 160.807096 
L 315.124985 162.330838 
L 313.969174 163.502009 
L 312.453765 164.143161 
z
" style="fill:#f6929c;"/>
   </g>
   <g id="patch_17">
    <path clip-path="url(#p787e45dc1f)" d="M 338.63262 227.585388 
L 337.961297 202.230637 
L 339.651614 202.185882 
L 366.152389 219.126483 
L 367.339817 220.265584 
L 368.002375 221.771757 
L 368.039676 223.416795 
L 367.446066 224.95145 
L 366.311485 226.1432 
L 364.807843 226.811478 
z
" style="fill:#f6929c;"/>
   </g>
   <g id="patch_18">
    <path clip-path="url(#p787e45dc1f)" d="M 313.89338 206.537887 
L 308.959052 181.65885 
L 310.617655 181.329895 
L 339.594165 193.562511 
L 340.956566 194.485225 
L 341.863459 195.858209 
L 342.177436 197.473436 
L 341.850924 199.086176 
L 340.933394 200.452075 
L 339.563868 201.36418 
z
" style="fill:#f6929c;"/>
   </g>
   <g id="patch_19">
    <path clip-path="url(#p787e45dc1f)" d="M 288.310007 185.167088 
L 283.373839 160.288417 
L 285.032417 159.959339 
L 314.009832 172.189812 
L 315.372301 173.112426 
L 316.279295 174.485342 
L 316.593392 176.100546 
L 316.266999 177.71331 
L 315.34957 179.079277 
L 313.980112 179.991483 
z
" style="fill:#f6929c;"/>
   </g>
   <g id="patch_20">
    <path clip-path="url(#p787e45dc1f)" d="M 261.863074 169.482702 
L 260.887037 169.383573 
L 259.08169 168.638777 
L 258.200759 167.938695 
L 245.942483 154.674696 
L 245.821814 151.47438 
L 245.603008 145.213045 
L 271.657222 144.288708 
L 273.640988 144.616589 
L 275.342286 145.688194 
L 276.000812 146.454433 
L 276.804463 148.297502 
L 276.917813 149.301458 
L 276.545329 151.277316 
L 265.419527 168.052979 
L 263.781298 169.116077 
z
" style="fill:#f6929c;"/>
   </g>
   <g id="patch_21">
    <path clip-path="url(#p787e45dc1f)" d="M 296.810353 208.805585 
L 294.915619 208.332313 
L 293.941927 207.76833 
L 279.878679 196.435897 
L 279.292117 193.28748 
L 278.16162 187.125162 
L 303.80179 182.407309 
L 305.812169 182.442086 
L 307.651676 183.253854 
L 308.415004 183.915752 
L 309.479098 185.62176 
L 309.737793 186.598414 
L 309.657737 188.607481 
L 301.100046 206.827588 
L 299.634559 208.118447 
L 297.790404 208.761169 
z
" style="fill:#f6929c;"/>
   </g>
   <g id="patch_22">
    <path clip-path="url(#p787e45dc1f)" d="M 282.179038 185.522278 
L 264.121588 185.165233 
L 261.731036 183.034072 
L 257.065962 178.852054 
L 274.457881 159.430478 
L 276.069182 158.227755 
L 278.02081 157.744124 
L 279.029571 157.800512 
L 280.91514 158.498643 
L 281.717396 159.11278 
L 282.883503 160.750751 
L 287.264758 180.397913 
L 286.895623 182.315648 
L 285.830376 183.952489 
L 285.082428 184.587349 
L 283.29426 185.372496 
z
" style="fill:#f6929c;"/>
   </g>
   <g id="patch_23">
    <path clip-path="url(#p787e45dc1f)" d="M 297.943931 227.695752 
L 295.956396 227.391546 
L 294.242443 226.340301 
L 293.574828 225.581968 
L 292.74926 223.748612 
L 292.623948 222.746078 
L 292.972848 220.76592 
L 303.897849 203.8588 
L 305.523287 202.776246 
L 307.437004 202.386777 
L 308.414153 202.474261 
L 310.228252 203.19748 
L 311.117466 203.887009 
L 323.533013 217.003914 
L 323.69183 220.202564 
L 323.985272 226.460845 
z
" style="fill:#f6929c;"/>
   </g>
   <g id="patch_24">
    <path clip-path="url(#p787e45dc1f)" d="M 230.57628 169.473266 
L 229.599309 169.383814 
L 227.78667 168.656944 
L 226.898845 167.965626 
L 214.509733 154.82375 
L 214.357357 151.624787 
L 214.076515 145.365927 
L 240.120291 144.183455 
L 242.107208 144.491662 
L 243.819041 145.546356 
L 244.485129 146.306031 
L 245.307003 148.141046 
L 245.430297 149.14383 
L 245.077411 151.123282 
L 234.118391 168.008371 
L 232.490777 169.08765 
z
" style="fill:#f6929c;"/>
   </g>
   <g id="patch_25">
    <path clip-path="url(#p787e45dc1f)" d="M 274.865377 226.547382 
L 273.004557 225.954636 
L 272.193994 225.401951 
L 270.96252 223.886209 
L 270.522196 222.850706 
L 266.075101 205.345782 
L 267.495565 202.47544 
L 270.289854 196.867932 
L 293.630019 208.483146 
L 295.217171 209.717561 
L 296.20131 211.470907 
L 296.414605 212.458472 
L 296.241814 214.461695 
L 295.86256 215.398147 
L 294.592715 216.957074 
L 276.812318 226.394437 
z
" style="fill:#f6929c;"/>
   </g>
   <g id="patch_26">
    <path clip-path="url(#p787e45dc1f)" d="M 255.723976 189.839733 
L 231.714283 179.680446 
L 230.054289 178.545875 
L 228.964286 176.856305 
L 228.690719 175.883711 
L 228.740109 173.873657 
L 229.061112 172.915672 
L 230.23278 171.281673 
L 247.399771 160.769738 
L 249.333637 160.497464 
L 251.227359 160.974764 
L 252.070347 161.476606 
L 253.392619 162.913824 
L 253.895732 163.920319 
L 259.409901 181.118951 
L 258.16847 184.071142 
z
" style="fill:#f6929c;"/>
   </g>
   <g id="patch_27">
    <path clip-path="url(#p787e45dc1f)" d="M 314.589386 129.126223 
L 294.709459 113.374951 
L 317.087373 98.745448 
z
" style="fill:#f6929c;"/>
   </g>
   <g id="patch_28">
    <path clip-path="url(#p787e45dc1f)" d="M 187.292536 139.63835 
L 178.181902 114.502923 
L 207.181231 123.898152 
z
" style="fill:#f6929c;"/>
   </g>
   <g id="patch_29">
    <path clip-path="url(#p787e45dc1f)" d="M 263.758767 209.891449 
L 243.789614 192.114319 
L 273.767437 186.586073 
z
" style="fill:#f6929c;"/>
   </g>
   <g id="patch_30">
    <path clip-path="url(#p787e45dc1f)" d="M 205.912887 156.069833 
L 185.423175 141.120393 
L 207.202519 125.613828 
z
" style="fill:#f6929c;"/>
   </g>
   <g id="patch_31">
    <path clip-path="url(#p787e45dc1f)" d="M 202.196706 173.056188 
L 207.984532 146.95457 
L 227.42451 170.434745 
z
" style="fill:#f6929c;"/>
   </g>
   <g id="patch_32">
    <path clip-path="url(#p787e45dc1f)" d="M 172.110153 137.198018 
L 165.543924 135.561062 
L 159.04527 133.69096 
L 157.179818 127.185848 
L 155.550274 120.622846 
L 160.251051 115.754858 
L 165.119823 111.062127 
L 171.686052 112.699083 
L 178.184706 114.569185 
L 180.050158 121.074298 
L 181.679701 127.637299 
L 176.978925 132.505287 
z
" style="fill:#f6929c;"/>
   </g>
   <g id="patch_33">
    <path clip-path="url(#p787e45dc1f)" d="M 146.602096 130.098179 
L 139.976224 128.722389 
L 133.408645 127.110962 
L 131.28719 120.684779 
L 129.399167 114.191415 
L 133.903591 109.141191 
L 138.582815 104.259436 
L 145.208688 105.635226 
L 151.776266 107.246653 
L 153.897722 113.672836 
L 155.785744 120.1662 
L 151.28132 125.216424 
z
" style="fill:#f6929c;"/>
   </g>
   <g id="patch_34">
    <path clip-path="url(#p787e45dc1f)" d="M 118.575157 125.05883 
L 112.570614 121.93786 
L 106.68608 118.605889 
L 106.38669 111.845211 
L 106.330205 105.083168 
L 112.035319 101.443625 
L 117.863 98.013639 
L 123.867542 101.13461 
L 129.752077 104.466581 
L 130.051466 111.227259 
L 130.107952 117.989301 
L 124.402838 121.628844 
z
" style="fill:#f6929c;"/>
   </g>
   <g id="patch_35">
    <path clip-path="url(#p787e45dc1f)" d="M 85.785709 94.575004 
L 79.218725 92.941078 
L 72.719209 91.073977 
L 70.850755 84.569726 
L 69.218182 78.007477 
L 73.916711 73.13732 
L 78.783316 68.442342 
L 85.3503 70.076267 
L 91.849816 71.943369 
L 93.718271 78.44762 
L 95.350844 85.009869 
L 90.652315 89.880026 
z
" style="fill:#f6929c;"/>
   </g>
   <g id="patch_36">
    <path clip-path="url(#p787e45dc1f)" d="M 94.790942 116.626191 
L 88.797762 113.483232 
L 82.925622 110.12967 
L 82.650924 103.368077 
L 82.618994 96.606002 
L 88.337354 92.987252 
L 94.177676 89.578378 
L 100.170856 92.721338 
L 106.042996 96.0749 
L 106.317694 102.836493 
L 106.349624 109.598567 
L 100.631264 113.217317 
z
" style="fill:#f6929c;"/>
   </g>
   <g id="matplotlib.axis_1">
    <g id="xtick_1">
     <g id="line2d_1">
      <defs>
       <path d="M 0 0 
L 0 3.5 
" id="m5c7c7d6ffd" style="stroke:#000000;stroke-width:0.8;"/>
      </defs>
      <g>
       <use style="stroke:#000000;stroke-width:0.8;" x="69.218182" xlink:href="#m5c7c7d6ffd" y="252"/>
      </g>
     </g>
     <g id="text_1">
      <!-- 0 -->
      <defs>
       <path d="M 31.78125 66.40625 
Q 24.171875 66.40625 20.328125 58.90625 
Q 16.5 51.421875 16.5 36.375 
Q 16.5 21.390625 20.328125 13.890625 
Q 24.171875 6.390625 31.78125 6.390625 
Q 39.453125 6.390625 43.28125 13.890625 
Q 47.125 21.390625 47.125 36.375 
Q 47.125 51.421875 43.28125 58.90625 
Q 39.453125 66.40625 31.78125 66.40625 
z
M 31.78125 74.21875 
Q 44.046875 74.21875 50.515625 64.515625 
Q 56.984375 54.828125 56.984375 36.375 
Q 56.984375 17.96875 50.515625 8.265625 
Q 44.046875 -1.421875 31.78125 -1.421875 
Q 19.53125 -1.421875 13.0625 8.265625 
Q 6.59375 17.96875 6.59375 36.375 
Q 6.59375 54.828125 13.0625 64.515625 
Q 19.53125 74.21875 31.78125 74.21875 
z
" id="DejaVuSans-48"/>
      </defs>
      <g transform="translate(66.036932 266.598437)scale(0.1 -0.1)">
       <use xlink:href="#DejaVuSans-48"/>
      </g>
     </g>
    </g>
    <g id="xtick_2">
     <g id="line2d_2">
      <g>
       <use style="stroke:#000000;stroke-width:0.8;" x="111.490909" xlink:href="#m5c7c7d6ffd" y="252"/>
      </g>
     </g>
     <g id="text_2">
      <!-- 250 -->
      <defs>
       <path d="M 19.1875 8.296875 
L 53.609375 8.296875 
L 53.609375 0 
L 7.328125 0 
L 7.328125 8.296875 
Q 12.9375 14.109375 22.625 23.890625 
Q 32.328125 33.6875 34.8125 36.53125 
Q 39.546875 41.84375 41.421875 45.53125 
Q 43.3125 49.21875 43.3125 52.78125 
Q 43.3125 58.59375 39.234375 62.25 
Q 35.15625 65.921875 28.609375 65.921875 
Q 23.96875 65.921875 18.8125 64.3125 
Q 13.671875 62.703125 7.8125 59.421875 
L 7.8125 69.390625 
Q 13.765625 71.78125 18.9375 73 
Q 24.125 74.21875 28.421875 74.21875 
Q 39.75 74.21875 46.484375 68.546875 
Q 53.21875 62.890625 53.21875 53.421875 
Q 53.21875 48.921875 51.53125 44.890625 
Q 49.859375 40.875 45.40625 35.40625 
Q 44.1875 33.984375 37.640625 27.21875 
Q 31.109375 20.453125 19.1875 8.296875 
z
" id="DejaVuSans-50"/>
       <path d="M 10.796875 72.90625 
L 49.515625 72.90625 
L 49.515625 64.59375 
L 19.828125 64.59375 
L 19.828125 46.734375 
Q 21.96875 47.46875 24.109375 47.828125 
Q 26.265625 48.1875 28.421875 48.1875 
Q 40.625 48.1875 47.75 41.5 
Q 54.890625 34.8125 54.890625 23.390625 
Q 54.890625 11.625 47.5625 5.09375 
Q 40.234375 -1.421875 26.90625 -1.421875 
Q 22.3125 -1.421875 17.546875 -0.640625 
Q 12.796875 0.140625 7.71875 1.703125 
L 7.71875 11.625 
Q 12.109375 9.234375 16.796875 8.0625 
Q 21.484375 6.890625 26.703125 6.890625 
Q 35.15625 6.890625 40.078125 11.328125 
Q 45.015625 15.765625 45.015625 23.390625 
Q 45.015625 31 40.078125 35.4375 
Q 35.15625 39.890625 26.703125 39.890625 
Q 22.75 39.890625 18.8125 39.015625 
Q 14.890625 38.140625 10.796875 36.28125 
z
" id="DejaVuSans-53"/>
      </defs>
      <g transform="translate(101.947159 266.598437)scale(0.1 -0.1)">
       <use xlink:href="#DejaVuSans-50"/>
       <use x="63.623047" xlink:href="#DejaVuSans-53"/>
       <use x="127.246094" xlink:href="#DejaVuSans-48"/>
      </g>
     </g>
    </g>
    <g id="xtick_3">
     <g id="line2d_3">
      <g>
       <use style="stroke:#000000;stroke-width:0.8;" x="153.763636" xlink:href="#m5c7c7d6ffd" y="252"/>
      </g>
     </g>
     <g id="text_3">
      <!-- 500 -->
      <g transform="translate(144.219886 266.598437)scale(0.1 -0.1)">
       <use xlink:href="#DejaVuSans-53"/>
       <use x="63.623047" xlink:href="#DejaVuSans-48"/>
       <use x="127.246094" xlink:href="#DejaVuSans-48"/>
      </g>
     </g>
    </g>
    <g id="xtick_4">
     <g id="line2d_4">
      <g>
       <use style="stroke:#000000;stroke-width:0.8;" x="196.036364" xlink:href="#m5c7c7d6ffd" y="252"/>
      </g>
     </g>
     <g id="text_4">
      <!-- 750 -->
      <defs>
       <path d="M 8.203125 72.90625 
L 55.078125 72.90625 
L 55.078125 68.703125 
L 28.609375 0 
L 18.3125 0 
L 43.21875 64.59375 
L 8.203125 64.59375 
z
" id="DejaVuSans-55"/>
      </defs>
      <g transform="translate(186.492614 266.598437)scale(0.1 -0.1)">
       <use xlink:href="#DejaVuSans-55"/>
       <use x="63.623047" xlink:href="#DejaVuSans-53"/>
       <use x="127.246094" xlink:href="#DejaVuSans-48"/>
      </g>
     </g>
    </g>
    <g id="xtick_5">
     <g id="line2d_5">
      <g>
       <use style="stroke:#000000;stroke-width:0.8;" x="238.309091" xlink:href="#m5c7c7d6ffd" y="252"/>
      </g>
     </g>
     <g id="text_5">
      <!-- 1000 -->
      <defs>
       <path d="M 12.40625 8.296875 
L 28.515625 8.296875 
L 28.515625 63.921875 
L 10.984375 60.40625 
L 10.984375 69.390625 
L 28.421875 72.90625 
L 38.28125 72.90625 
L 38.28125 8.296875 
L 54.390625 8.296875 
L 54.390625 0 
L 12.40625 0 
z
" id="DejaVuSans-49"/>
      </defs>
      <g transform="translate(225.584091 266.598437)scale(0.1 -0.1)">
       <use xlink:href="#DejaVuSans-49"/>
       <use x="63.623047" xlink:href="#DejaVuSans-48"/>
       <use x="127.246094" xlink:href="#DejaVuSans-48"/>
       <use x="190.869141" xlink:href="#DejaVuSans-48"/>
      </g>
     </g>
    </g>
    <g id="xtick_6">
     <g id="line2d_6">
      <g>
       <use style="stroke:#000000;stroke-width:0.8;" x="280.581818" xlink:href="#m5c7c7d6ffd" y="252"/>
      </g>
     </g>
     <g id="text_6">
      <!-- 1250 -->
      <g transform="translate(267.856818 266.598437)scale(0.1 -0.1)">
       <use xlink:href="#DejaVuSans-49"/>
       <use x="63.623047" xlink:href="#DejaVuSans-50"/>
       <use x="127.246094" xlink:href="#DejaVuSans-53"/>
       <use x="190.869141" xlink:href="#DejaVuSans-48"/>
      </g>
     </g>
    </g>
    <g id="xtick_7">
     <g id="line2d_7">
      <g>
       <use style="stroke:#000000;stroke-width:0.8;" x="322.854545" xlink:href="#m5c7c7d6ffd" y="252"/>
      </g>
     </g>
     <g id="text_7">
      <!-- 1500 -->
      <g transform="translate(310.129545 266.598437)scale(0.1 -0.1)">
       <use xlink:href="#DejaVuSans-49"/>
       <use x="63.623047" xlink:href="#DejaVuSans-53"/>
       <use x="127.246094" xlink:href="#DejaVuSans-48"/>
       <use x="190.869141" xlink:href="#DejaVuSans-48"/>
      </g>
     </g>
    </g>
    <g id="xtick_8">
     <g id="line2d_8">
      <g>
       <use style="stroke:#000000;stroke-width:0.8;" x="365.127273" xlink:href="#m5c7c7d6ffd" y="252"/>
      </g>
     </g>
     <g id="text_8">
      <!-- 1750 -->
      <g transform="translate(352.402273 266.598437)scale(0.1 -0.1)">
       <use xlink:href="#DejaVuSans-49"/>
       <use x="63.623047" xlink:href="#DejaVuSans-55"/>
       <use x="127.246094" xlink:href="#DejaVuSans-53"/>
       <use x="190.869141" xlink:href="#DejaVuSans-48"/>
      </g>
     </g>
    </g>
   </g>
   <g id="matplotlib.axis_2">
    <g id="ytick_1">
     <g id="line2d_9">
      <defs>
       <path d="M 0 0 
L -3.5 0 
" id="m97753125b9" style="stroke:#000000;stroke-width:0.8;"/>
      </defs>
      <g>
       <use style="stroke:#000000;stroke-width:0.8;" x="54" xlink:href="#m97753125b9" y="227.825455"/>
      </g>
     </g>
     <g id="text_9">
      <!-- 0 -->
      <g transform="translate(40.6375 231.624673)scale(0.1 -0.1)">
       <use xlink:href="#DejaVuSans-48"/>
      </g>
     </g>
    </g>
    <g id="ytick_2">
     <g id="line2d_10">
      <g>
       <use style="stroke:#000000;stroke-width:0.8;" x="54" xlink:href="#m97753125b9" y="194.007273"/>
      </g>
     </g>
     <g id="text_10">
      <!-- 200 -->
      <g transform="translate(27.9125 197.806491)scale(0.1 -0.1)">
       <use xlink:href="#DejaVuSans-50"/>
       <use x="63.623047" xlink:href="#DejaVuSans-48"/>
       <use x="127.246094" xlink:href="#DejaVuSans-48"/>
      </g>
     </g>
    </g>
    <g id="ytick_3">
     <g id="line2d_11">
      <g>
       <use style="stroke:#000000;stroke-width:0.8;" x="54" xlink:href="#m97753125b9" y="160.189091"/>
      </g>
     </g>
     <g id="text_11">
      <!-- 400 -->
      <defs>
       <path d="M 37.796875 64.3125 
L 12.890625 25.390625 
L 37.796875 25.390625 
z
M 35.203125 72.90625 
L 47.609375 72.90625 
L 47.609375 25.390625 
L 58.015625 25.390625 
L 58.015625 17.1875 
L 47.609375 17.1875 
L 47.609375 0 
L 37.796875 0 
L 37.796875 17.1875 
L 4.890625 17.1875 
L 4.890625 26.703125 
z
" id="DejaVuSans-52"/>
      </defs>
      <g transform="translate(27.9125 163.98831)scale(0.1 -0.1)">
       <use xlink:href="#DejaVuSans-52"/>
       <use x="63.623047" xlink:href="#DejaVuSans-48"/>
       <use x="127.246094" xlink:href="#DejaVuSans-48"/>
      </g>
     </g>
    </g>
    <g id="ytick_4">
     <g id="line2d_12">
      <g>
       <use style="stroke:#000000;stroke-width:0.8;" x="54" xlink:href="#m97753125b9" y="126.370909"/>
      </g>
     </g>
     <g id="text_12">
      <!-- 600 -->
      <defs>
       <path d="M 33.015625 40.375 
Q 26.375 40.375 22.484375 35.828125 
Q 18.609375 31.296875 18.609375 23.390625 
Q 18.609375 15.53125 22.484375 10.953125 
Q 26.375 6.390625 33.015625 6.390625 
Q 39.65625 6.390625 43.53125 10.953125 
Q 47.40625 15.53125 47.40625 23.390625 
Q 47.40625 31.296875 43.53125 35.828125 
Q 39.65625 40.375 33.015625 40.375 
z
M 52.59375 71.296875 
L 52.59375 62.3125 
Q 48.875 64.0625 45.09375 64.984375 
Q 41.3125 65.921875 37.59375 65.921875 
Q 27.828125 65.921875 22.671875 59.328125 
Q 17.53125 52.734375 16.796875 39.40625 
Q 19.671875 43.65625 24.015625 45.921875 
Q 28.375 48.1875 33.59375 48.1875 
Q 44.578125 48.1875 50.953125 41.515625 
Q 57.328125 34.859375 57.328125 23.390625 
Q 57.328125 12.15625 50.6875 5.359375 
Q 44.046875 -1.421875 33.015625 -1.421875 
Q 20.359375 -1.421875 13.671875 8.265625 
Q 6.984375 17.96875 6.984375 36.375 
Q 6.984375 53.65625 15.1875 63.9375 
Q 23.390625 74.21875 37.203125 74.21875 
Q 40.921875 74.21875 44.703125 73.484375 
Q 48.484375 72.75 52.59375 71.296875 
z
" id="DejaVuSans-54"/>
      </defs>
      <g transform="translate(27.9125 130.170128)scale(0.1 -0.1)">
       <use xlink:href="#DejaVuSans-54"/>
       <use x="63.623047" xlink:href="#DejaVuSans-48"/>
       <use x="127.246094" xlink:href="#DejaVuSans-48"/>
      </g>
     </g>
    </g>
    <g id="ytick_5">
     <g id="line2d_13">
      <g>
       <use style="stroke:#000000;stroke-width:0.8;" x="54" xlink:href="#m97753125b9" y="92.552727"/>
      </g>
     </g>
     <g id="text_13">
      <!-- 800 -->
      <defs>
       <path d="M 31.78125 34.625 
Q 24.75 34.625 20.71875 30.859375 
Q 16.703125 27.09375 16.703125 20.515625 
Q 16.703125 13.921875 20.71875 10.15625 
Q 24.75 6.390625 31.78125 6.390625 
Q 38.8125 6.390625 42.859375 10.171875 
Q 46.921875 13.96875 46.921875 20.515625 
Q 46.921875 27.09375 42.890625 30.859375 
Q 38.875 34.625 31.78125 34.625 
z
M 21.921875 38.8125 
Q 15.578125 40.375 12.03125 44.71875 
Q 8.5 49.078125 8.5 55.328125 
Q 8.5 64.0625 14.71875 69.140625 
Q 20.953125 74.21875 31.78125 74.21875 
Q 42.671875 74.21875 48.875 69.140625 
Q 55.078125 64.0625 55.078125 55.328125 
Q 55.078125 49.078125 51.53125 44.71875 
Q 48 40.375 41.703125 38.8125 
Q 48.828125 37.15625 52.796875 32.3125 
Q 56.78125 27.484375 56.78125 20.515625 
Q 56.78125 9.90625 50.3125 4.234375 
Q 43.84375 -1.421875 31.78125 -1.421875 
Q 19.734375 -1.421875 13.25 4.234375 
Q 6.78125 9.90625 6.78125 20.515625 
Q 6.78125 27.484375 10.78125 32.3125 
Q 14.796875 37.15625 21.921875 38.8125 
z
M 18.3125 54.390625 
Q 18.3125 48.734375 21.84375 45.5625 
Q 25.390625 42.390625 31.78125 42.390625 
Q 38.140625 42.390625 41.71875 45.5625 
Q 45.3125 48.734375 45.3125 54.390625 
Q 45.3125 60.0625 41.71875 63.234375 
Q 38.140625 66.40625 31.78125 66.40625 
Q 25.390625 66.40625 21.84375 63.234375 
Q 18.3125 60.0625 18.3125 54.390625 
z
" id="DejaVuSans-56"/>
      </defs>
      <g transform="translate(27.9125 96.351946)scale(0.1 -0.1)">
       <use xlink:href="#DejaVuSans-56"/>
       <use x="63.623047" xlink:href="#DejaVuSans-48"/>
       <use x="127.246094" xlink:href="#DejaVuSans-48"/>
      </g>
     </g>
    </g>
    <g id="ytick_6">
     <g id="line2d_14">
      <g>
       <use style="stroke:#000000;stroke-width:0.8;" x="54" xlink:href="#m97753125b9" y="58.734545"/>
      </g>
     </g>
     <g id="text_14">
      <!-- 1000 -->
      <g transform="translate(21.55 62.533764)scale(0.1 -0.1)">
       <use xlink:href="#DejaVuSans-49"/>
       <use x="63.623047" xlink:href="#DejaVuSans-48"/>
       <use x="127.246094" xlink:href="#DejaVuSans-48"/>
       <use x="190.869141" xlink:href="#DejaVuSans-48"/>
      </g>
     </g>
    </g>
   </g>
   <g id="line2d_15">
    <path clip-path="url(#p787e45dc1f)" d="M 69.218182 227.825455 
L 373.581818 227.825455 
L 373.581818 58.734545 
L 69.218182 58.734545 
L 69.218182 227.825455 
" style="fill:none;stroke:#000000;stroke-linecap:square;stroke-width:1.5;"/>
   </g>
   <g id="line2d_16">
    <path clip-path="url(#p787e45dc1f)" d="M 69.218182 172.860638 
L 69.218182 227.825455 
L 174.907336 227.825455 
L 69.218182 172.860638 
" style="fill:none;stroke:#000000;stroke-dasharray:5.55,2.4;stroke-dashoffset:0;stroke-width:1.5;"/>
   </g>
   <g id="line2d_17">
    <path clip-path="url(#p787e45dc1f)" d="M 105.040687 136.800432 
L 107.85789 170.606875 
L 145.608419 168.916553 
L 140.537452 132.292906 
L 105.040687 136.800432 
" style="fill:none;stroke:#000000;stroke-dasharray:5.55,2.4;stroke-dashoffset:0;stroke-width:1.5;"/>
   </g>
   <g id="line2d_18">
    <path clip-path="url(#p787e45dc1f)" d="M 89.827787 58.734545 
L 88.700906 58.734545 
L 97.152516 91.725174 
L 207.412119 122.702872 
L 206.460017 144.125161 
L 276.890108 144.125161 
L 292.666448 58.734545 
L 117.436383 58.734545 
L 89.827787 58.734545 
" style="fill:none;stroke:#000000;stroke-dasharray:5.55,2.4;stroke-dashoffset:0;stroke-width:1.5;"/>
   </g>
   <g id="line2d_19">
    <path clip-path="url(#p787e45dc1f)" d="M 326.215854 87.134413 
L 326.122828 59.247582 
L 316.605065 59.270113 
L 316.698393 92.429555 
L 372.313204 92.278932 
L 372.227158 59.123698 
L 364.210925 59.145238 
L 364.284675 87.032121 
L 326.215854 87.134413 
" style="fill:none;stroke:#ff0000;stroke-linecap:square;stroke-width:1.5;"/>
   </g>
   <g id="line2d_20">
    <path clip-path="url(#p787e45dc1f)" d="M 326.582435 124.865469 
L 327.1938 96.985185 
L 317.678505 96.767311 
L 316.934267 129.918531 
L 372.53514 131.172666 
L 373.28655 98.025836 
L 365.272331 97.844896 
L 364.641695 125.724745 
L 326.582435 124.865469 
" style="fill:none;stroke:#ff0000;stroke-linecap:square;stroke-width:1.5;"/>
   </g>
   <g id="line2d_21">
    <path clip-path="url(#p787e45dc1f)" d="M 293.440877 113.305597 
L 317.047539 98.459404 
L 311.98836 90.397579 
L 283.909192 108.036104 
L 313.487406 155.13344 
L 341.566862 137.503321 
L 337.303648 130.714693 
L 313.686734 145.544562 
L 293.440877 113.305597 
" style="fill:none;stroke:#ff0000;stroke-linecap:square;stroke-width:1.5;"/>
   </g>
   <g id="line2d_22">
    <path clip-path="url(#p787e45dc1f)" d="M 351.079145 187.575483 
L 325.308011 176.920313 
L 321.662899 185.712439 
L 352.299967 198.398153 
L 373.581818 147.016126 
L 342.951438 134.325313 
L 339.883747 141.731373 
L 365.647504 152.404352 
L 351.079145 187.575483 
" style="fill:none;stroke:#ff0000;stroke-linecap:square;stroke-width:1.5;"/>
   </g>
   <g id="line2d_23">
    <path clip-path="url(#p787e45dc1f)" d="M 285.926255 154.409905 
L 296.826898 128.741637 
L 288.069961 125.012779 
L 275.092427 155.52738 
L 326.269001 177.298649 
L 339.251571 146.790784 
L 331.875126 143.65255 
L 320.956745 169.313272 
L 285.926255 154.409905 
" style="fill:none;stroke:#ff0000;stroke-linecap:square;stroke-width:1.5;"/>
   </g>
   <g id="line2d_24">
    <path clip-path="url(#p787e45dc1f)" d="M 362.874004 122.235703 
L 340.899892 121.653693 
L 339.71777 121.126954 
L 339.254346 119.918607 
L 339.836356 97.944495 
L 340.363095 96.762373 
L 341.571442 96.298949 
L 363.545554 96.880959 
L 364.727676 97.407698 
L 365.1911 98.616045 
L 364.60909 120.590157 
L 364.082351 121.772279 
L 362.874004 122.235703 
" style="fill:none;stroke:#ff0000;stroke-linecap:square;stroke-width:1.5;"/>
   </g>
   <g id="line2d_25">
    <path clip-path="url(#p787e45dc1f)" d="M 292.959403 89.568385 
L 291.763749 89.07313 
L 291.268494 87.877476 
L 291.268494 65.895658 
L 291.763749 64.700004 
L 292.959403 64.204749 
L 314.941221 64.204749 
L 316.136875 64.700004 
L 316.63213 65.895658 
L 316.63213 87.877476 
L 316.136875 89.07313 
L 314.941221 89.568385 
L 292.959403 89.568385 
" style="fill:none;stroke:#ff0000;stroke-linecap:square;stroke-width:1.5;"/>
   </g>
   <g id="line2d_26">
    <path clip-path="url(#p787e45dc1f)" d="M 339.822933 84.696768 
L 338.626248 84.204009 
L 338.128498 83.009392 
L 338.082614 61.027622 
L 338.575372 59.830937 
L 339.769989 59.333187 
L 361.75176 59.287302 
L 362.948445 59.780061 
L 363.446195 60.974678 
L 363.492079 82.956448 
L 362.999321 84.153133 
L 361.804703 84.650883 
L 339.822933 84.696768 
" style="fill:none;stroke:#ff0000;stroke-linecap:square;stroke-width:1.5;"/>
   </g>
   <g id="line2d_27">
    <path clip-path="url(#p787e45dc1f)" d="M 334.789422 173.124339 
L 333.252192 172.537428 
L 332.055505 171.408056 
L 331.380677 169.90734 
L 331.329952 168.262663 
L 340.501635 143.734691 
L 364.231179 152.691408 
L 363.634065 154.273378 
L 337.93755 172.410747 
L 336.434281 173.079866 
L 334.789422 173.124339 
" style="fill:none;stroke:#ff0000;stroke-linecap:square;stroke-width:1.5;"/>
   </g>
   <g id="line2d_28">
    <path clip-path="url(#p787e45dc1f)" d="M 373.185596 207.283581 
L 347.822265 207.15913 
L 347.830562 205.468241 
L 365.594221 179.511981 
L 366.770015 178.360874 
L 368.296231 177.745894 
L 369.94163 177.760221 
L 371.456907 178.401685 
L 372.612476 179.573096 
L 373.233252 181.096963 
L 373.185596 207.283581 
" style="fill:none;stroke:#ff0000;stroke-linecap:square;stroke-width:1.5;"/>
   </g>
   <g id="line2d_29">
    <path clip-path="url(#p787e45dc1f)" d="M 310.808365 164.15715 
L 286.491298 154.440079 
L 295.975628 130.916442 
L 297.54387 131.54873 
L 315.102952 157.643819 
L 315.738339 159.161654 
L 315.746074 160.807096 
L 315.124985 162.330838 
L 313.969174 163.502009 
L 312.453765 164.143161 
L 310.808365 164.15715 
" style="fill:none;stroke:#ff0000;stroke-linecap:square;stroke-width:1.5;"/>
   </g>
   <g id="line2d_30">
    <path clip-path="url(#p787e45dc1f)" d="M 338.63262 227.585388 
L 337.961297 202.230637 
L 339.651614 202.185882 
L 366.152389 219.126483 
L 367.339817 220.265584 
L 368.002375 221.771757 
L 368.039676 223.416795 
L 367.446066 224.95145 
L 366.311485 226.1432 
L 364.807843 226.811478 
L 338.63262 227.585388 
" style="fill:none;stroke:#ff0000;stroke-linecap:square;stroke-width:1.5;"/>
   </g>
   <g id="line2d_31">
    <path clip-path="url(#p787e45dc1f)" d="M 313.89338 206.537887 
L 308.959052 181.65885 
L 310.617655 181.329895 
L 339.594165 193.562511 
L 340.956566 194.485225 
L 341.863459 195.858209 
L 342.177436 197.473436 
L 341.850924 199.086176 
L 340.933394 200.452075 
L 339.563868 201.36418 
L 313.89338 206.537887 
" style="fill:none;stroke:#ff0000;stroke-linecap:square;stroke-width:1.5;"/>
   </g>
   <g id="line2d_32">
    <path clip-path="url(#p787e45dc1f)" d="M 288.310007 185.167088 
L 283.373839 160.288417 
L 285.032417 159.959339 
L 314.009832 172.189812 
L 315.372301 173.112426 
L 316.279295 174.485342 
L 316.593392 176.100546 
L 316.266999 177.71331 
L 315.34957 179.079277 
L 313.980112 179.991483 
L 288.310007 185.167088 
" style="fill:none;stroke:#ff0000;stroke-linecap:square;stroke-width:1.5;"/>
   </g>
   <g id="line2d_33">
    <path clip-path="url(#p787e45dc1f)" d="M 261.863074 169.482702 
L 260.887037 169.383573 
L 259.08169 168.638777 
L 258.200759 167.938695 
L 245.942483 154.674696 
L 245.821814 151.47438 
L 245.603008 145.213045 
L 271.657222 144.288708 
L 273.640988 144.616589 
L 275.342286 145.688194 
L 276.000812 146.454433 
L 276.804463 148.297502 
L 276.917813 149.301458 
L 276.545329 151.277316 
L 265.419527 168.052979 
L 263.781298 169.116077 
L 261.863074 169.482702 
" style="fill:none;stroke:#ff0000;stroke-linecap:square;stroke-width:1.5;"/>
   </g>
   <g id="line2d_34">
    <path clip-path="url(#p787e45dc1f)" d="M 296.810353 208.805585 
L 294.915619 208.332313 
L 293.941927 207.76833 
L 279.878679 196.435897 
L 279.292117 193.28748 
L 278.16162 187.125162 
L 303.80179 182.407309 
L 305.812169 182.442086 
L 307.651676 183.253854 
L 308.415004 183.915752 
L 309.479098 185.62176 
L 309.737793 186.598414 
L 309.657737 188.607481 
L 301.100046 206.827588 
L 299.634559 208.118447 
L 297.790404 208.761169 
L 296.810353 208.805585 
" style="fill:none;stroke:#ff0000;stroke-linecap:square;stroke-width:1.5;"/>
   </g>
   <g id="line2d_35">
    <path clip-path="url(#p787e45dc1f)" d="M 282.179038 185.522278 
L 264.121588 185.165233 
L 261.731036 183.034072 
L 257.065962 178.852054 
L 274.457881 159.430478 
L 276.069182 158.227755 
L 278.02081 157.744124 
L 279.029571 157.800512 
L 280.91514 158.498643 
L 281.717396 159.11278 
L 282.883503 160.750751 
L 287.264758 180.397913 
L 286.895623 182.315648 
L 285.830376 183.952489 
L 285.082428 184.587349 
L 283.29426 185.372496 
L 282.179038 185.522278 
" style="fill:none;stroke:#ff0000;stroke-linecap:square;stroke-width:1.5;"/>
   </g>
   <g id="line2d_36">
    <path clip-path="url(#p787e45dc1f)" d="M 297.943931 227.695752 
L 295.956396 227.391546 
L 294.242443 226.340301 
L 293.574828 225.581968 
L 292.74926 223.748612 
L 292.623948 222.746078 
L 292.972848 220.76592 
L 303.897849 203.8588 
L 305.523287 202.776246 
L 307.437004 202.386777 
L 308.414153 202.474261 
L 310.228252 203.19748 
L 311.117466 203.887009 
L 323.533013 217.003914 
L 323.69183 220.202564 
L 323.985272 226.460845 
L 297.943931 227.695752 
" style="fill:none;stroke:#ff0000;stroke-linecap:square;stroke-width:1.5;"/>
   </g>
   <g id="line2d_37">
    <path clip-path="url(#p787e45dc1f)" d="M 230.57628 169.473266 
L 229.599309 169.383814 
L 227.78667 168.656944 
L 226.898845 167.965626 
L 214.509733 154.82375 
L 214.357357 151.624787 
L 214.076515 145.365927 
L 240.120291 144.183455 
L 242.107208 144.491662 
L 243.819041 145.546356 
L 244.485129 146.306031 
L 245.307003 148.141046 
L 245.430297 149.14383 
L 245.077411 151.123282 
L 234.118391 168.008371 
L 232.490777 169.08765 
L 230.57628 169.473266 
" style="fill:none;stroke:#ff0000;stroke-linecap:square;stroke-width:1.5;"/>
   </g>
   <g id="line2d_38">
    <path clip-path="url(#p787e45dc1f)" d="M 274.865377 226.547382 
L 273.004557 225.954636 
L 272.193994 225.401951 
L 270.96252 223.886209 
L 270.522196 222.850706 
L 266.075101 205.345782 
L 267.495565 202.47544 
L 270.289854 196.867932 
L 293.630019 208.483146 
L 295.217171 209.717561 
L 296.20131 211.470907 
L 296.414605 212.458472 
L 296.241814 214.461695 
L 295.86256 215.398147 
L 294.592715 216.957074 
L 276.812318 226.394437 
L 274.865377 226.547382 
" style="fill:none;stroke:#ff0000;stroke-linecap:square;stroke-width:1.5;"/>
   </g>
   <g id="line2d_39">
    <path clip-path="url(#p787e45dc1f)" d="M 255.723976 189.839733 
L 231.714283 179.680446 
L 230.054289 178.545875 
L 228.964286 176.856305 
L 228.690719 175.883711 
L 228.740109 173.873657 
L 229.061112 172.915672 
L 230.23278 171.281673 
L 247.399771 160.769738 
L 249.333637 160.497464 
L 251.227359 160.974764 
L 252.070347 161.476606 
L 253.392619 162.913824 
L 253.895732 163.920319 
L 259.409901 181.118951 
L 258.16847 184.071142 
L 255.723976 189.839733 
" style="fill:none;stroke:#ff0000;stroke-linecap:square;stroke-width:1.5;"/>
   </g>
   <g id="line2d_40">
    <path clip-path="url(#p787e45dc1f)" d="M 314.589386 129.126223 
L 294.709459 113.374951 
L 317.087373 98.745448 
L 314.589386 129.126223 
" style="fill:none;stroke:#ff0000;stroke-linecap:square;stroke-width:1.5;"/>
   </g>
   <g id="line2d_41">
    <path clip-path="url(#p787e45dc1f)" d="M 187.292536 139.63835 
L 178.181902 114.502923 
L 207.181231 123.898152 
L 187.292536 139.63835 
" style="fill:none;stroke:#ff0000;stroke-linecap:square;stroke-width:1.5;"/>
   </g>
   <g id="line2d_42">
    <path clip-path="url(#p787e45dc1f)" d="M 263.758767 209.891449 
L 243.789614 192.114319 
L 273.767437 186.586073 
L 263.758767 209.891449 
" style="fill:none;stroke:#ff0000;stroke-linecap:square;stroke-width:1.5;"/>
   </g>
   <g id="line2d_43">
    <path clip-path="url(#p787e45dc1f)" d="M 205.912887 156.069833 
L 185.423175 141.120393 
L 207.202519 125.613828 
L 205.912887 156.069833 
" style="fill:none;stroke:#ff0000;stroke-linecap:square;stroke-width:1.5;"/>
   </g>
   <g id="line2d_44">
    <path clip-path="url(#p787e45dc1f)" d="M 202.196706 173.056188 
L 207.984532 146.95457 
L 227.42451 170.434745 
L 202.196706 173.056188 
" style="fill:none;stroke:#ff0000;stroke-linecap:square;stroke-width:1.5;"/>
   </g>
   <g id="line2d_45">
    <path clip-path="url(#p787e45dc1f)" d="M 172.110153 137.198018 
L 165.543924 135.561062 
L 159.04527 133.69096 
L 157.179818 127.185848 
L 155.550274 120.622846 
L 160.251051 115.754858 
L 165.119823 111.062127 
L 171.686052 112.699083 
L 178.184706 114.569185 
L 180.050158 121.074298 
L 181.679701 127.637299 
L 176.978925 132.505287 
L 172.110153 137.198018 
" style="fill:none;stroke:#ff0000;stroke-linecap:square;stroke-width:1.5;"/>
   </g>
   <g id="line2d_46">
    <path clip-path="url(#p787e45dc1f)" d="M 146.602096 130.098179 
L 139.976224 128.722389 
L 133.408645 127.110962 
L 131.28719 120.684779 
L 129.399167 114.191415 
L 133.903591 109.141191 
L 138.582815 104.259436 
L 145.208688 105.635226 
L 151.776266 107.246653 
L 153.897722 113.672836 
L 155.785744 120.1662 
L 151.28132 125.216424 
L 146.602096 130.098179 
" style="fill:none;stroke:#ff0000;stroke-linecap:square;stroke-width:1.5;"/>
   </g>
   <g id="line2d_47">
    <path clip-path="url(#p787e45dc1f)" d="M 118.575157 125.05883 
L 112.570614 121.93786 
L 106.68608 118.605889 
L 106.38669 111.845211 
L 106.330205 105.083168 
L 112.035319 101.443625 
L 117.863 98.013639 
L 123.867542 101.13461 
L 129.752077 104.466581 
L 130.051466 111.227259 
L 130.107952 117.989301 
L 124.402838 121.628844 
L 118.575157 125.05883 
" style="fill:none;stroke:#ff0000;stroke-linecap:square;stroke-width:1.5;"/>
   </g>
   <g id="line2d_48">
    <path clip-path="url(#p787e45dc1f)" d="M 85.785709 94.575004 
L 79.218725 92.941078 
L 72.719209 91.073977 
L 70.850755 84.569726 
L 69.218182 78.007477 
L 73.916711 73.13732 
L 78.783316 68.442342 
L 85.3503 70.076267 
L 91.849816 71.943369 
L 93.718271 78.44762 
L 95.350844 85.009869 
L 90.652315 89.880026 
L 85.785709 94.575004 
" style="fill:none;stroke:#ff0000;stroke-linecap:square;stroke-width:1.5;"/>
   </g>
   <g id="line2d_49">
    <path clip-path="url(#p787e45dc1f)" d="M 94.790942 116.626191 
L 88.797762 113.483232 
L 82.925622 110.12967 
L 82.650924 103.368077 
L 82.618994 96.606002 
L 88.337354 92.987252 
L 94.177676 89.578378 
L 100.170856 92.721338 
L 106.042996 96.0749 
L 106.317694 102.836493 
L 106.349624 109.598567 
L 100.631264 113.217317 
L 94.790942 116.626191 
" style="fill:none;stroke:#ff0000;stroke-linecap:square;stroke-width:1.5;"/>
   </g>
   <g id="patch_37">
    <path d="M 54 252 
L 54 34.56 
" style="fill:none;stroke:#000000;stroke-linecap:square;stroke-linejoin:miter;stroke-width:0.8;"/>
   </g>
   <g id="patch_38">
    <path d="M 388.8 252 
L 388.8 34.56 
" style="fill:none;stroke:#000000;stroke-linecap:square;stroke-linejoin:miter;stroke-width:0.8;"/>
   </g>
   <g id="patch_39">
    <path d="M 54 252 
L 388.8 252 
" style="fill:none;stroke:#000000;stroke-linecap:square;stroke-linejoin:miter;stroke-width:0.8;"/>
   </g>
   <g id="patch_40">
    <path d="M 54 34.56 
L 388.8 34.56 
" style="fill:none;stroke:#000000;stroke-linecap:square;stroke-linejoin:miter;stroke-width:0.8;"/>
   </g>
  </g>
 </g>
 <defs>
  <clipPath id="p787e45dc1f">
   <rect height="217.44" width="334.8" x="54" y="34.56"/>
  </clipPath>
 </defs>
</svg>
