<?xml version="1.0" encoding="utf-8" standalone="no"?>
<!DOCTYPE svg PUBLIC "-//W3C//DTD SVG 1.1//EN"
  "http://www.w3.org/Graphics/SVG/1.1/DTD/svg11.dtd">
<!-- Created with matplotlib (https://matplotlib.org/) -->
<svg height="288pt" version="1.1" viewBox="0 0 432 288" width="432pt" xmlns="http://www.w3.org/2000/svg" xmlns:xlink="http://www.w3.org/1999/xlink">
 <defs>
  <style type="text/css">
*{stroke-linecap:butt;stroke-linejoin:round;}
  </style>
 </defs>
 <g id="figure_1">
  <g id="patch_1">
   <path d="M 0 288 
L 432 288 
L 432 0 
L 0 0 
z
" style="fill:#ffffff;"/>
  </g>
  <g id="axes_1">
   <g id="patch_2">
    <path d="M 54 252 
L 388.8 252 
L 388.8 34.56 
L 54 34.56 
z
" style="fill:#ffffff;"/>
   </g>
   <g id="patch_3">
    <path clip-path="url(#p5eabe147ed)" d="M 69.218182 172.860638 
L 69.218182 227.825455 
L 174.907336 227.825455 
z
" style="fill:#aaaaaa;"/>
   </g>
   <g id="patch_4">
    <path clip-path="url(#p5eabe147ed)" d="M 105.040687 136.800432 
L 107.85789 170.606875 
L 145.608419 168.916553 
L 140.537452 132.292906 
z
" style="fill:#aaaaaa;"/>
   </g>
   <g id="patch_5">
    <path clip-path="url(#p5eabe147ed)" d="M 89.827787 58.734545 
L 88.700906 58.734545 
L 97.152516 91.725174 
L 207.412119 122.702872 
L 206.460017 144.125161 
L 276.890108 144.125161 
L 292.666448 58.734545 
L 117.436383 58.734545 
z
" style="fill:#aaaaaa;"/>
   </g>
   <g id="patch_6">
    <path clip-path="url(#p5eabe147ed)" d="M 328.990229 102.135259 
L 318.301628 76.377972 
L 309.507173 80.017461 
L 322.200698 110.651293 
L 373.581818 89.367255 
L 360.896629 58.734545 
L 353.490569 61.802236 
L 364.16136 87.566899 
z
" style="fill:#f6929c;"/>
   </g>
   <g id="patch_7">
    <path clip-path="url(#p5eabe147ed)" d="M 308.741501 78.217601 
L 334.498788 67.529001 
L 330.859299 58.734545 
L 300.225467 71.42807 
L 321.509505 122.809191 
L 352.142215 110.124001 
L 349.074524 102.717941 
L 323.309861 113.388733 
z
" style="fill:#f6929c;"/>
   </g>
   <g id="patch_8">
    <path clip-path="url(#p5eabe147ed)" d="M 327.975741 138.420796 
L 317.28714 112.663509 
L 308.492685 116.302998 
L 321.186209 146.93683 
L 372.56733 125.652792 
L 359.88214 95.020082 
L 352.47608 98.087773 
L 363.146872 123.852436 
z
" style="fill:#f6929c;"/>
   </g>
   <g id="patch_9">
    <path clip-path="url(#p5eabe147ed)" d="M 328.990229 173.93436 
L 318.301628 148.177074 
L 309.507173 151.816562 
L 322.200698 182.450395 
L 373.581818 161.166357 
L 360.896629 130.533647 
L 353.490569 133.601337 
L 364.16136 159.366 
z
" style="fill:#f6929c;"/>
   </g>
   <g id="patch_10">
    <path clip-path="url(#p5eabe147ed)" d="M 328.990229 209.863953 
L 318.301628 184.106667 
L 309.507173 187.746155 
L 322.200698 218.379988 
L 373.581818 197.09595 
L 360.896629 166.46324 
L 353.490569 169.530931 
L 364.16136 195.295594 
z
" style="fill:#f6929c;"/>
   </g>
   <g id="patch_11">
    <path clip-path="url(#p5eabe147ed)" d="M 342.636463 94.581829 
L 341.44081 94.086573 
L 325.897317 78.54308 
L 325.402061 77.347427 
L 325.897317 76.151774 
L 341.44081 60.608281 
L 342.636463 60.113025 
L 343.832117 60.608281 
L 359.375609 76.151774 
L 359.870866 77.347427 
L 359.375609 78.54308 
L 343.832117 94.086573 
z
" style="fill:#f6929c;"/>
   </g>
   <g id="patch_12">
    <path clip-path="url(#p5eabe147ed)" d="M 339.993356 166.113707 
L 339.078243 165.198593 
L 330.666165 144.890041 
L 330.666165 143.595875 
L 331.581279 142.680762 
L 351.889831 134.268684 
L 353.183997 134.268684 
L 354.09911 135.183798 
L 362.511188 155.49235 
L 362.511188 156.786516 
L 361.596074 157.701629 
L 341.287522 166.113707 
z
" style="fill:#f6929c;"/>
   </g>
   <g id="patch_13">
    <path clip-path="url(#p5eabe147ed)" d="M 339.976248 202.050354 
L 339.061135 201.135241 
L 330.649057 180.826689 
L 330.649056 179.532523 
L 331.56417 178.617409 
L 351.872722 170.205332 
L 353.166888 170.205331 
L 354.082001 171.120445 
L 362.494079 191.428997 
L 362.49408 192.723163 
L 361.578966 193.638276 
L 341.270414 202.050354 
z
" style="fill:#f6929c;"/>
   </g>
   <g id="patch_14">
    <path clip-path="url(#p5eabe147ed)" d="M 310.831473 110.089304 
L 309.186015 110.08774 
L 284.961876 100.141268 
L 294.66812 76.708323 
L 296.230316 77.355406 
L 313.541972 103.615292 
L 314.162984 105.139064 
L 314.155167 106.784505 
L 313.519703 108.302309 
L 312.352875 109.462504 
z
" style="fill:#f6929c;"/>
   </g>
   <g id="patch_15">
    <path clip-path="url(#p5eabe147ed)" d="M 283.649449 132.631525 
L 283.649449 107.267888 
L 285.340358 107.267888 
L 311.383466 124.903976 
L 312.540329 126.074107 
L 313.162789 127.597288 
L 313.156537 129.242737 
L 312.522515 130.761143 
L 311.356789 131.922445 
L 309.835985 132.550691 
z
" style="fill:#f6929c;"/>
   </g>
   <g id="patch_16">
    <path clip-path="url(#p5eabe147ed)" d="M 293.186441 156.546312 
L 283.480198 133.113368 
L 285.042394 132.466285 
L 315.852127 138.793639 
L 317.368718 139.431987 
L 318.526693 140.601017 
L 319.150602 142.123607 
L 319.145911 143.76906 
L 318.513332 145.288068 
L 317.348712 146.450478 
z
" style="fill:#f6929c;"/>
   </g>
   <g id="patch_17">
    <path clip-path="url(#p5eabe147ed)" d="M 372.019622 225.153919 
L 341.209889 218.826565 
L 339.693298 218.188217 
L 338.535323 217.019187 
L 337.911414 215.496597 
L 337.916105 213.851143 
L 338.548684 212.332135 
L 339.713304 211.169726 
L 363.875575 201.073892 
L 373.581818 224.506836 
z
" style="fill:#f6929c;"/>
   </g>
   <g id="patch_18">
    <path clip-path="url(#p5eabe147ed)" d="M 289.688575 180.273204 
L 289.688575 154.909567 
L 291.379484 154.909567 
L 317.422591 172.545655 
L 318.579454 173.715786 
L 319.201915 175.238967 
L 319.195662 176.884416 
L 318.56164 178.402822 
L 317.395914 179.564124 
L 315.87511 180.19237 
z
" style="fill:#f6929c;"/>
   </g>
   <g id="patch_19">
    <path clip-path="url(#p5eabe147ed)" d="M 263.751886 168.205482 
L 254.045643 144.772537 
L 255.607839 144.125455 
L 286.417572 150.452809 
L 287.934163 151.091157 
L 289.092138 152.260187 
L 289.716047 153.782777 
L 289.711356 155.42823 
L 289.078777 156.947238 
L 287.914157 158.109648 
z
" style="fill:#f6929c;"/>
   </g>
   <g id="patch_20">
    <path clip-path="url(#p5eabe147ed)" d="M 294.501894 204.973204 
L 293.52998 204.839576 
L 291.752138 204.03132 
L 290.89655 203.300484 
L 279.115636 189.61074 
L 279.108365 186.408158 
L 279.111409 180.143002 
L 305.182014 180.141818 
L 307.152926 180.539738 
L 308.815211 181.670914 
L 309.446193 182.45999 
L 310.184077 184.330361 
L 310.261806 185.337701 
L 309.819591 187.29913 
L 298.106743 203.670311 
L 296.431898 204.674733 
z
" style="fill:#f6929c;"/>
   </g>
   <g id="patch_21">
    <path clip-path="url(#p5eabe147ed)" d="M 316.897723 224.316641 
L 297.290411 219.76036 
L 295.721511 218.59738 
L 294.707179 216.928509 
L 294.458699 215.97944 
L 294.52508 214.027622 
L 294.872865 212.957483 
L 303.012179 196.8345 
L 305.968196 195.602207 
L 311.757611 193.207448 
L 321.735493 217.293093 
L 322.122098 219.266256 
L 321.713157 221.23489 
L 321.225612 222.119807 
L 319.779991 223.517282 
L 318.879075 223.974588 
z
" style="fill:#f6929c;"/>
   </g>
   <g id="patch_22">
    <path clip-path="url(#p5eabe147ed)" d="M 267.33237 192.798015 
L 266.360455 192.664387 
L 264.582613 191.856131 
L 263.727025 191.125295 
L 251.946111 177.435551 
L 251.93884 174.232969 
L 251.941884 167.967813 
L 278.01249 167.966629 
L 279.983401 168.364549 
L 281.645687 169.495725 
L 282.276668 170.284801 
L 283.014552 172.155172 
L 283.092281 173.162512 
L 282.650066 175.123941 
L 270.937219 191.495122 
L 269.262373 192.499544 
z
" style="fill:#f6929c;"/>
   </g>
   <g id="patch_23">
    <path clip-path="url(#p5eabe147ed)" d="M 239.785091 168.956301 
L 238.813176 168.822673 
L 237.035334 168.014417 
L 236.179746 167.283581 
L 224.398833 153.593837 
L 224.391562 150.391255 
L 224.394605 144.126099 
L 250.465211 144.124915 
L 252.436123 144.522835 
L 254.098408 145.654011 
L 254.729389 146.443087 
L 255.467273 148.313457 
L 255.545003 149.320798 
L 255.102788 151.282227 
L 243.38994 167.653408 
L 241.715094 168.65783 
z
" style="fill:#f6929c;"/>
   </g>
   <g id="patch_24">
    <path clip-path="url(#p5eabe147ed)" d="M 275.612119 223.866047 
L 273.714808 223.403218 
L 272.868013 222.907827 
L 271.534807 221.480745 
L 271.024026 220.478121 
L 265.378719 203.322086 
L 266.597577 200.360504 
L 268.99796 194.573419 
L 293.084512 204.549114 
L 294.75312 205.67098 
L 295.855989 207.352179 
L 296.136973 208.322656 
L 296.102929 210.333029 
L 295.789249 211.293436 
L 294.63009 212.936332 
L 277.54385 223.579018 
z
" style="fill:#f6929c;"/>
   </g>
   <g id="patch_25">
    <path clip-path="url(#p5eabe147ed)" d="M 186.557209 144.246759 
L 184.659899 143.783929 
L 183.813104 143.288538 
L 182.479898 141.861456 
L 181.969117 140.858832 
L 176.32381 123.702797 
L 177.542668 120.741215 
L 179.943051 114.95413 
L 204.029603 124.929825 
L 205.698211 126.051691 
L 206.80108 127.73289 
L 207.082064 128.703368 
L 207.04802 130.713741 
L 206.73434 131.674148 
L 205.57518 133.317043 
L 188.488941 143.959729 
z
" style="fill:#f6929c;"/>
   </g>
   <g id="patch_26">
    <path clip-path="url(#p5eabe147ed)" d="M 231.4806 192.327851 
L 229.583289 191.865021 
L 228.736495 191.36963 
L 227.403289 189.942548 
L 226.892507 188.939924 
L 221.247201 171.78389 
L 222.466058 168.822307 
L 224.866442 163.035222 
L 248.952993 173.010918 
L 250.621601 174.132783 
L 251.72447 175.813982 
L 252.005455 176.78446 
L 251.971411 178.794833 
L 251.657731 179.75524 
L 250.498571 181.398136 
L 233.412331 192.040822 
z
" style="fill:#f6929c;"/>
   </g>
   <g id="patch_27">
    <path clip-path="url(#p5eabe147ed)" d="M 206.508837 165.644981 
L 194.552304 141.731915 
L 224.443636 147.710182 
z
" style="fill:#f6929c;"/>
   </g>
   <g id="patch_28">
    <path clip-path="url(#p5eabe147ed)" d="M 251.145184 212.283907 
L 239.188651 188.370842 
L 269.079983 194.349108 
z
" style="fill:#f6929c;"/>
   </g>
   <g id="patch_29">
    <path clip-path="url(#p5eabe147ed)" d="M 162.003994 132.887734 
L 150.047461 108.974669 
L 179.938793 114.952935 
z
" style="fill:#f6929c;"/>
   </g>
   <g id="patch_30">
    <path clip-path="url(#p5eabe147ed)" d="M 245.760274 226.034907 
L 262.72239 200.706701 
L 272.428633 224.139645 
z
" style="fill:#f6929c;"/>
   </g>
   <g id="patch_31">
    <path clip-path="url(#p5eabe147ed)" d="M 135.543505 130.228909 
L 143.99805 104.865273 
L 160.907141 130.228909 
z
" style="fill:#f6929c;"/>
   </g>
   <g id="patch_32">
    <path clip-path="url(#p5eabe147ed)" d="M 130.761212 125.499713 
L 124.194229 123.865787 
L 117.694712 121.998685 
L 115.826258 115.494434 
L 114.193685 108.932185 
L 118.892214 104.062029 
L 123.75882 99.367051 
L 130.325803 101.000976 
L 136.82532 102.868078 
L 138.693774 109.372329 
L 140.326347 115.934578 
L 135.627818 120.804734 
z
" style="fill:#f6929c;"/>
   </g>
   <g id="patch_33">
    <path clip-path="url(#p5eabe147ed)" d="M 85.785709 94.575004 
L 79.218725 92.941078 
L 72.719209 91.073977 
L 70.850755 84.569726 
L 69.218182 78.007477 
L 73.916711 73.13732 
L 78.783316 68.442342 
L 85.3503 70.076267 
L 91.849816 71.943369 
L 93.718271 78.44762 
L 95.350844 85.009869 
L 90.652315 89.880026 
z
" style="fill:#f6929c;"/>
   </g>
   <g id="patch_34">
    <path clip-path="url(#p5eabe147ed)" d="M 104.907892 118.232911 
L 98.340908 116.598986 
L 91.841392 114.731884 
L 89.972937 108.227633 
L 88.340365 101.665384 
L 93.038894 96.795228 
L 97.905499 92.10025 
L 104.472483 93.734175 
L 110.971999 95.601277 
L 112.840454 102.105528 
L 114.473026 108.667777 
L 109.774497 113.537933 
z
" style="fill:#f6929c;"/>
   </g>
   <g id="patch_35">
    <path clip-path="url(#p5eabe147ed)" d="M 100.593983 141.326017 
L 94.027 139.692091 
L 87.527483 137.824989 
L 85.659029 131.320738 
L 84.026456 124.758489 
L 88.724985 119.888333 
L 93.591591 115.193355 
L 100.158574 116.82728 
L 106.658091 118.694382 
L 108.526545 125.198633 
L 110.159118 131.760882 
L 105.460589 136.631038 
z
" style="fill:#f6929c;"/>
   </g>
   <g id="patch_36">
    <path clip-path="url(#p5eabe147ed)" d="M 97.133188 164.639286 
L 90.566204 163.00536 
L 84.066688 161.138258 
L 82.198233 154.634008 
L 80.56566 148.071758 
L 85.26419 143.201602 
L 90.130795 138.506624 
L 96.697779 140.140549 
L 103.197295 142.007651 
L 105.06575 148.511902 
L 106.698322 155.074151 
L 101.999793 159.944308 
z
" style="fill:#f6929c;"/>
   </g>
   <g id="matplotlib.axis_1">
    <g id="xtick_1">
     <g id="line2d_1">
      <defs>
       <path d="M 0 0 
L 0 3.5 
" id="mf150057436" style="stroke:#000000;stroke-width:0.8;"/>
      </defs>
      <g>
       <use style="stroke:#000000;stroke-width:0.8;" x="69.218182" xlink:href="#mf150057436" y="252"/>
      </g>
     </g>
     <g id="text_1">
      <!-- 0 -->
      <defs>
       <path d="M 31.78125 66.40625 
Q 24.171875 66.40625 20.328125 58.90625 
Q 16.5 51.421875 16.5 36.375 
Q 16.5 21.390625 20.328125 13.890625 
Q 24.171875 6.390625 31.78125 6.390625 
Q 39.453125 6.390625 43.28125 13.890625 
Q 47.125 21.390625 47.125 36.375 
Q 47.125 51.421875 43.28125 58.90625 
Q 39.453125 66.40625 31.78125 66.40625 
z
M 31.78125 74.21875 
Q 44.046875 74.21875 50.515625 64.515625 
Q 56.984375 54.828125 56.984375 36.375 
Q 56.984375 17.96875 50.515625 8.265625 
Q 44.046875 -1.421875 31.78125 -1.421875 
Q 19.53125 -1.421875 13.0625 8.265625 
Q 6.59375 17.96875 6.59375 36.375 
Q 6.59375 54.828125 13.0625 64.515625 
Q 19.53125 74.21875 31.78125 74.21875 
z
" id="DejaVuSans-48"/>
      </defs>
      <g transform="translate(66.036932 266.598437)scale(0.1 -0.1)">
       <use xlink:href="#DejaVuSans-48"/>
      </g>
     </g>
    </g>
    <g id="xtick_2">
     <g id="line2d_2">
      <g>
       <use style="stroke:#000000;stroke-width:0.8;" x="111.490909" xlink:href="#mf150057436" y="252"/>
      </g>
     </g>
     <g id="text_2">
      <!-- 250 -->
      <defs>
       <path d="M 19.1875 8.296875 
L 53.609375 8.296875 
L 53.609375 0 
L 7.328125 0 
L 7.328125 8.296875 
Q 12.9375 14.109375 22.625 23.890625 
Q 32.328125 33.6875 34.8125 36.53125 
Q 39.546875 41.84375 41.421875 45.53125 
Q 43.3125 49.21875 43.3125 52.78125 
Q 43.3125 58.59375 39.234375 62.25 
Q 35.15625 65.921875 28.609375 65.921875 
Q 23.96875 65.921875 18.8125 64.3125 
Q 13.671875 62.703125 7.8125 59.421875 
L 7.8125 69.390625 
Q 13.765625 71.78125 18.9375 73 
Q 24.125 74.21875 28.421875 74.21875 
Q 39.75 74.21875 46.484375 68.546875 
Q 53.21875 62.890625 53.21875 53.421875 
Q 53.21875 48.921875 51.53125 44.890625 
Q 49.859375 40.875 45.40625 35.40625 
Q 44.1875 33.984375 37.640625 27.21875 
Q 31.109375 20.453125 19.1875 8.296875 
z
" id="DejaVuSans-50"/>
       <path d="M 10.796875 72.90625 
L 49.515625 72.90625 
L 49.515625 64.59375 
L 19.828125 64.59375 
L 19.828125 46.734375 
Q 21.96875 47.46875 24.109375 47.828125 
Q 26.265625 48.1875 28.421875 48.1875 
Q 40.625 48.1875 47.75 41.5 
Q 54.890625 34.8125 54.890625 23.390625 
Q 54.890625 11.625 47.5625 5.09375 
Q 40.234375 -1.421875 26.90625 -1.421875 
Q 22.3125 -1.421875 17.546875 -0.640625 
Q 12.796875 0.140625 7.71875 1.703125 
L 7.71875 11.625 
Q 12.109375 9.234375 16.796875 8.0625 
Q 21.484375 6.890625 26.703125 6.890625 
Q 35.15625 6.890625 40.078125 11.328125 
Q 45.015625 15.765625 45.015625 23.390625 
Q 45.015625 31 40.078125 35.4375 
Q 35.15625 39.890625 26.703125 39.890625 
Q 22.75 39.890625 18.8125 39.015625 
Q 14.890625 38.140625 10.796875 36.28125 
z
" id="DejaVuSans-53"/>
      </defs>
      <g transform="translate(101.947159 266.598437)scale(0.1 -0.1)">
       <use xlink:href="#DejaVuSans-50"/>
       <use x="63.623047" xlink:href="#DejaVuSans-53"/>
       <use x="127.246094" xlink:href="#DejaVuSans-48"/>
      </g>
     </g>
    </g>
    <g id="xtick_3">
     <g id="line2d_3">
      <g>
       <use style="stroke:#000000;stroke-width:0.8;" x="153.763636" xlink:href="#mf150057436" y="252"/>
      </g>
     </g>
     <g id="text_3">
      <!-- 500 -->
      <g transform="translate(144.219886 266.598437)scale(0.1 -0.1)">
       <use xlink:href="#DejaVuSans-53"/>
       <use x="63.623047" xlink:href="#DejaVuSans-48"/>
       <use x="127.246094" xlink:href="#DejaVuSans-48"/>
      </g>
     </g>
    </g>
    <g id="xtick_4">
     <g id="line2d_4">
      <g>
       <use style="stroke:#000000;stroke-width:0.8;" x="196.036364" xlink:href="#mf150057436" y="252"/>
      </g>
     </g>
     <g id="text_4">
      <!-- 750 -->
      <defs>
       <path d="M 8.203125 72.90625 
L 55.078125 72.90625 
L 55.078125 68.703125 
L 28.609375 0 
L 18.3125 0 
L 43.21875 64.59375 
L 8.203125 64.59375 
z
" id="DejaVuSans-55"/>
      </defs>
      <g transform="translate(186.492614 266.598437)scale(0.1 -0.1)">
       <use xlink:href="#DejaVuSans-55"/>
       <use x="63.623047" xlink:href="#DejaVuSans-53"/>
       <use x="127.246094" xlink:href="#DejaVuSans-48"/>
      </g>
     </g>
    </g>
    <g id="xtick_5">
     <g id="line2d_5">
      <g>
       <use style="stroke:#000000;stroke-width:0.8;" x="238.309091" xlink:href="#mf150057436" y="252"/>
      </g>
     </g>
     <g id="text_5">
      <!-- 1000 -->
      <defs>
       <path d="M 12.40625 8.296875 
L 28.515625 8.296875 
L 28.515625 63.921875 
L 10.984375 60.40625 
L 10.984375 69.390625 
L 28.421875 72.90625 
L 38.28125 72.90625 
L 38.28125 8.296875 
L 54.390625 8.296875 
L 54.390625 0 
L 12.40625 0 
z
" id="DejaVuSans-49"/>
      </defs>
      <g transform="translate(225.584091 266.598437)scale(0.1 -0.1)">
       <use xlink:href="#DejaVuSans-49"/>
       <use x="63.623047" xlink:href="#DejaVuSans-48"/>
       <use x="127.246094" xlink:href="#DejaVuSans-48"/>
       <use x="190.869141" xlink:href="#DejaVuSans-48"/>
      </g>
     </g>
    </g>
    <g id="xtick_6">
     <g id="line2d_6">
      <g>
       <use style="stroke:#000000;stroke-width:0.8;" x="280.581818" xlink:href="#mf150057436" y="252"/>
      </g>
     </g>
     <g id="text_6">
      <!-- 1250 -->
      <g transform="translate(267.856818 266.598437)scale(0.1 -0.1)">
       <use xlink:href="#DejaVuSans-49"/>
       <use x="63.623047" xlink:href="#DejaVuSans-50"/>
       <use x="127.246094" xlink:href="#DejaVuSans-53"/>
       <use x="190.869141" xlink:href="#DejaVuSans-48"/>
      </g>
     </g>
    </g>
    <g id="xtick_7">
     <g id="line2d_7">
      <g>
       <use style="stroke:#000000;stroke-width:0.8;" x="322.854545" xlink:href="#mf150057436" y="252"/>
      </g>
     </g>
     <g id="text_7">
      <!-- 1500 -->
      <g transform="translate(310.129545 266.598437)scale(0.1 -0.1)">
       <use xlink:href="#DejaVuSans-49"/>
       <use x="63.623047" xlink:href="#DejaVuSans-53"/>
       <use x="127.246094" xlink:href="#DejaVuSans-48"/>
       <use x="190.869141" xlink:href="#DejaVuSans-48"/>
      </g>
     </g>
    </g>
    <g id="xtick_8">
     <g id="line2d_8">
      <g>
       <use style="stroke:#000000;stroke-width:0.8;" x="365.127273" xlink:href="#mf150057436" y="252"/>
      </g>
     </g>
     <g id="text_8">
      <!-- 1750 -->
      <g transform="translate(352.402273 266.598437)scale(0.1 -0.1)">
       <use xlink:href="#DejaVuSans-49"/>
       <use x="63.623047" xlink:href="#DejaVuSans-55"/>
       <use x="127.246094" xlink:href="#DejaVuSans-53"/>
       <use x="190.869141" xlink:href="#DejaVuSans-48"/>
      </g>
     </g>
    </g>
   </g>
   <g id="matplotlib.axis_2">
    <g id="ytick_1">
     <g id="line2d_9">
      <defs>
       <path d="M 0 0 
L -3.5 0 
" id="mc25a6bfb94" style="stroke:#000000;stroke-width:0.8;"/>
      </defs>
      <g>
       <use style="stroke:#000000;stroke-width:0.8;" x="54" xlink:href="#mc25a6bfb94" y="227.825455"/>
      </g>
     </g>
     <g id="text_9">
      <!-- 0 -->
      <g transform="translate(40.6375 231.624673)scale(0.1 -0.1)">
       <use xlink:href="#DejaVuSans-48"/>
      </g>
     </g>
    </g>
    <g id="ytick_2">
     <g id="line2d_10">
      <g>
       <use style="stroke:#000000;stroke-width:0.8;" x="54" xlink:href="#mc25a6bfb94" y="194.007273"/>
      </g>
     </g>
     <g id="text_10">
      <!-- 200 -->
      <g transform="translate(27.9125 197.806491)scale(0.1 -0.1)">
       <use xlink:href="#DejaVuSans-50"/>
       <use x="63.623047" xlink:href="#DejaVuSans-48"/>
       <use x="127.246094" xlink:href="#DejaVuSans-48"/>
      </g>
     </g>
    </g>
    <g id="ytick_3">
     <g id="line2d_11">
      <g>
       <use style="stroke:#000000;stroke-width:0.8;" x="54" xlink:href="#mc25a6bfb94" y="160.189091"/>
      </g>
     </g>
     <g id="text_11">
      <!-- 400 -->
      <defs>
       <path d="M 37.796875 64.3125 
L 12.890625 25.390625 
L 37.796875 25.390625 
z
M 35.203125 72.90625 
L 47.609375 72.90625 
L 47.609375 25.390625 
L 58.015625 25.390625 
L 58.015625 17.1875 
L 47.609375 17.1875 
L 47.609375 0 
L 37.796875 0 
L 37.796875 17.1875 
L 4.890625 17.1875 
L 4.890625 26.703125 
z
" id="DejaVuSans-52"/>
      </defs>
      <g transform="translate(27.9125 163.98831)scale(0.1 -0.1)">
       <use xlink:href="#DejaVuSans-52"/>
       <use x="63.623047" xlink:href="#DejaVuSans-48"/>
       <use x="127.246094" xlink:href="#DejaVuSans-48"/>
      </g>
     </g>
    </g>
    <g id="ytick_4">
     <g id="line2d_12">
      <g>
       <use style="stroke:#000000;stroke-width:0.8;" x="54" xlink:href="#mc25a6bfb94" y="126.370909"/>
      </g>
     </g>
     <g id="text_12">
      <!-- 600 -->
      <defs>
       <path d="M 33.015625 40.375 
Q 26.375 40.375 22.484375 35.828125 
Q 18.609375 31.296875 18.609375 23.390625 
Q 18.609375 15.53125 22.484375 10.953125 
Q 26.375 6.390625 33.015625 6.390625 
Q 39.65625 6.390625 43.53125 10.953125 
Q 47.40625 15.53125 47.40625 23.390625 
Q 47.40625 31.296875 43.53125 35.828125 
Q 39.65625 40.375 33.015625 40.375 
z
M 52.59375 71.296875 
L 52.59375 62.3125 
Q 48.875 64.0625 45.09375 64.984375 
Q 41.3125 65.921875 37.59375 65.921875 
Q 27.828125 65.921875 22.671875 59.328125 
Q 17.53125 52.734375 16.796875 39.40625 
Q 19.671875 43.65625 24.015625 45.921875 
Q 28.375 48.1875 33.59375 48.1875 
Q 44.578125 48.1875 50.953125 41.515625 
Q 57.328125 34.859375 57.328125 23.390625 
Q 57.328125 12.15625 50.6875 5.359375 
Q 44.046875 -1.421875 33.015625 -1.421875 
Q 20.359375 -1.421875 13.671875 8.265625 
Q 6.984375 17.96875 6.984375 36.375 
Q 6.984375 53.65625 15.1875 63.9375 
Q 23.390625 74.21875 37.203125 74.21875 
Q 40.921875 74.21875 44.703125 73.484375 
Q 48.484375 72.75 52.59375 71.296875 
z
" id="DejaVuSans-54"/>
      </defs>
      <g transform="translate(27.9125 130.170128)scale(0.1 -0.1)">
       <use xlink:href="#DejaVuSans-54"/>
       <use x="63.623047" xlink:href="#DejaVuSans-48"/>
       <use x="127.246094" xlink:href="#DejaVuSans-48"/>
      </g>
     </g>
    </g>
    <g id="ytick_5">
     <g id="line2d_13">
      <g>
       <use style="stroke:#000000;stroke-width:0.8;" x="54" xlink:href="#mc25a6bfb94" y="92.552727"/>
      </g>
     </g>
     <g id="text_13">
      <!-- 800 -->
      <defs>
       <path d="M 31.78125 34.625 
Q 24.75 34.625 20.71875 30.859375 
Q 16.703125 27.09375 16.703125 20.515625 
Q 16.703125 13.921875 20.71875 10.15625 
Q 24.75 6.390625 31.78125 6.390625 
Q 38.8125 6.390625 42.859375 10.171875 
Q 46.921875 13.96875 46.921875 20.515625 
Q 46.921875 27.09375 42.890625 30.859375 
Q 38.875 34.625 31.78125 34.625 
z
M 21.921875 38.8125 
Q 15.578125 40.375 12.03125 44.71875 
Q 8.5 49.078125 8.5 55.328125 
Q 8.5 64.0625 14.71875 69.140625 
Q 20.953125 74.21875 31.78125 74.21875 
Q 42.671875 74.21875 48.875 69.140625 
Q 55.078125 64.0625 55.078125 55.328125 
Q 55.078125 49.078125 51.53125 44.71875 
Q 48 40.375 41.703125 38.8125 
Q 48.828125 37.15625 52.796875 32.3125 
Q 56.78125 27.484375 56.78125 20.515625 
Q 56.78125 9.90625 50.3125 4.234375 
Q 43.84375 -1.421875 31.78125 -1.421875 
Q 19.734375 -1.421875 13.25 4.234375 
Q 6.78125 9.90625 6.78125 20.515625 
Q 6.78125 27.484375 10.78125 32.3125 
Q 14.796875 37.15625 21.921875 38.8125 
z
M 18.3125 54.390625 
Q 18.3125 48.734375 21.84375 45.5625 
Q 25.390625 42.390625 31.78125 42.390625 
Q 38.140625 42.390625 41.71875 45.5625 
Q 45.3125 48.734375 45.3125 54.390625 
Q 45.3125 60.0625 41.71875 63.234375 
Q 38.140625 66.40625 31.78125 66.40625 
Q 25.390625 66.40625 21.84375 63.234375 
Q 18.3125 60.0625 18.3125 54.390625 
z
" id="DejaVuSans-56"/>
      </defs>
      <g transform="translate(27.9125 96.351946)scale(0.1 -0.1)">
       <use xlink:href="#DejaVuSans-56"/>
       <use x="63.623047" xlink:href="#DejaVuSans-48"/>
       <use x="127.246094" xlink:href="#DejaVuSans-48"/>
      </g>
     </g>
    </g>
    <g id="ytick_6">
     <g id="line2d_14">
      <g>
       <use style="stroke:#000000;stroke-width:0.8;" x="54" xlink:href="#mc25a6bfb94" y="58.734545"/>
      </g>
     </g>
     <g id="text_14">
      <!-- 1000 -->
      <g transform="translate(21.55 62.533764)scale(0.1 -0.1)">
       <use xlink:href="#DejaVuSans-49"/>
       <use x="63.623047" xlink:href="#DejaVuSans-48"/>
       <use x="127.246094" xlink:href="#DejaVuSans-48"/>
       <use x="190.869141" xlink:href="#DejaVuSans-48"/>
      </g>
     </g>
    </g>
   </g>
   <g id="line2d_15">
    <path clip-path="url(#p5eabe147ed)" d="M 69.218182 227.825455 
L 373.581818 227.825455 
L 373.581818 58.734545 
L 69.218182 58.734545 
L 69.218182 227.825455 
" style="fill:none;stroke:#000000;stroke-linecap:square;stroke-width:1.5;"/>
   </g>
   <g id="line2d_16">
    <path clip-path="url(#p5eabe147ed)" d="M 69.218182 172.860638 
L 69.218182 227.825455 
L 174.907336 227.825455 
L 69.218182 172.860638 
" style="fill:none;stroke:#000000;stroke-dasharray:5.55,2.4;stroke-dashoffset:0;stroke-width:1.5;"/>
   </g>
   <g id="line2d_17">
    <path clip-path="url(#p5eabe147ed)" d="M 105.040687 136.800432 
L 107.85789 170.606875 
L 145.608419 168.916553 
L 140.537452 132.292906 
L 105.040687 136.800432 
" style="fill:none;stroke:#000000;stroke-dasharray:5.55,2.4;stroke-dashoffset:0;stroke-width:1.5;"/>
   </g>
   <g id="line2d_18">
    <path clip-path="url(#p5eabe147ed)" d="M 89.827787 58.734545 
L 88.700906 58.734545 
L 97.152516 91.725174 
L 207.412119 122.702872 
L 206.460017 144.125161 
L 276.890108 144.125161 
L 292.666448 58.734545 
L 117.436383 58.734545 
L 89.827787 58.734545 
" style="fill:none;stroke:#000000;stroke-dasharray:5.55,2.4;stroke-dashoffset:0;stroke-width:1.5;"/>
   </g>
   <g id="line2d_19">
    <path clip-path="url(#p5eabe147ed)" d="M 328.990229 102.135259 
L 318.301628 76.377972 
L 309.507173 80.017461 
L 322.200698 110.651293 
L 373.581818 89.367255 
L 360.896629 58.734545 
L 353.490569 61.802236 
L 364.16136 87.566899 
L 328.990229 102.135259 
" style="fill:none;stroke:#ff0000;stroke-linecap:square;stroke-width:1.5;"/>
   </g>
   <g id="line2d_20">
    <path clip-path="url(#p5eabe147ed)" d="M 308.741501 78.217601 
L 334.498788 67.529001 
L 330.859299 58.734545 
L 300.225467 71.42807 
L 321.509505 122.809191 
L 352.142215 110.124001 
L 349.074524 102.717941 
L 323.309861 113.388733 
L 308.741501 78.217601 
" style="fill:none;stroke:#ff0000;stroke-linecap:square;stroke-width:1.5;"/>
   </g>
   <g id="line2d_21">
    <path clip-path="url(#p5eabe147ed)" d="M 327.975741 138.420796 
L 317.28714 112.663509 
L 308.492685 116.302998 
L 321.186209 146.93683 
L 372.56733 125.652792 
L 359.88214 95.020082 
L 352.47608 98.087773 
L 363.146872 123.852436 
L 327.975741 138.420796 
" style="fill:none;stroke:#ff0000;stroke-linecap:square;stroke-width:1.5;"/>
   </g>
   <g id="line2d_22">
    <path clip-path="url(#p5eabe147ed)" d="M 328.990229 173.93436 
L 318.301628 148.177074 
L 309.507173 151.816562 
L 322.200698 182.450395 
L 373.581818 161.166357 
L 360.896629 130.533647 
L 353.490569 133.601337 
L 364.16136 159.366 
L 328.990229 173.93436 
" style="fill:none;stroke:#ff0000;stroke-linecap:square;stroke-width:1.5;"/>
   </g>
   <g id="line2d_23">
    <path clip-path="url(#p5eabe147ed)" d="M 328.990229 209.863953 
L 318.301628 184.106667 
L 309.507173 187.746155 
L 322.200698 218.379988 
L 373.581818 197.09595 
L 360.896629 166.46324 
L 353.490569 169.530931 
L 364.16136 195.295594 
L 328.990229 209.863953 
" style="fill:none;stroke:#ff0000;stroke-linecap:square;stroke-width:1.5;"/>
   </g>
   <g id="line2d_24">
    <path clip-path="url(#p5eabe147ed)" d="M 342.636463 94.581829 
L 341.44081 94.086573 
L 325.897317 78.54308 
L 325.402061 77.347427 
L 325.897317 76.151774 
L 341.44081 60.608281 
L 342.636463 60.113025 
L 343.832117 60.608281 
L 359.375609 76.151774 
L 359.870866 77.347427 
L 359.375609 78.54308 
L 343.832117 94.086573 
L 342.636463 94.581829 
" style="fill:none;stroke:#ff0000;stroke-linecap:square;stroke-width:1.5;"/>
   </g>
   <g id="line2d_25">
    <path clip-path="url(#p5eabe147ed)" d="M 339.993356 166.113707 
L 339.078243 165.198593 
L 330.666165 144.890041 
L 330.666165 143.595875 
L 331.581279 142.680762 
L 351.889831 134.268684 
L 353.183997 134.268684 
L 354.09911 135.183798 
L 362.511188 155.49235 
L 362.511188 156.786516 
L 361.596074 157.701629 
L 341.287522 166.113707 
L 339.993356 166.113707 
" style="fill:none;stroke:#ff0000;stroke-linecap:square;stroke-width:1.5;"/>
   </g>
   <g id="line2d_26">
    <path clip-path="url(#p5eabe147ed)" d="M 339.976248 202.050354 
L 339.061135 201.135241 
L 330.649057 180.826689 
L 330.649056 179.532523 
L 331.56417 178.617409 
L 351.872722 170.205332 
L 353.166888 170.205331 
L 354.082001 171.120445 
L 362.494079 191.428997 
L 362.49408 192.723163 
L 361.578966 193.638276 
L 341.270414 202.050354 
L 339.976248 202.050354 
" style="fill:none;stroke:#ff0000;stroke-linecap:square;stroke-width:1.5;"/>
   </g>
   <g id="line2d_27">
    <path clip-path="url(#p5eabe147ed)" d="M 310.831473 110.089304 
L 309.186015 110.08774 
L 284.961876 100.141268 
L 294.66812 76.708323 
L 296.230316 77.355406 
L 313.541972 103.615292 
L 314.162984 105.139064 
L 314.155167 106.784505 
L 313.519703 108.302309 
L 312.352875 109.462504 
L 310.831473 110.089304 
" style="fill:none;stroke:#ff0000;stroke-linecap:square;stroke-width:1.5;"/>
   </g>
   <g id="line2d_28">
    <path clip-path="url(#p5eabe147ed)" d="M 283.649449 132.631525 
L 283.649449 107.267888 
L 285.340358 107.267888 
L 311.383466 124.903976 
L 312.540329 126.074107 
L 313.162789 127.597288 
L 313.156537 129.242737 
L 312.522515 130.761143 
L 311.356789 131.922445 
L 309.835985 132.550691 
L 283.649449 132.631525 
" style="fill:none;stroke:#ff0000;stroke-linecap:square;stroke-width:1.5;"/>
   </g>
   <g id="line2d_29">
    <path clip-path="url(#p5eabe147ed)" d="M 293.186441 156.546312 
L 283.480198 133.113368 
L 285.042394 132.466285 
L 315.852127 138.793639 
L 317.368718 139.431987 
L 318.526693 140.601017 
L 319.150602 142.123607 
L 319.145911 143.76906 
L 318.513332 145.288068 
L 317.348712 146.450478 
L 293.186441 156.546312 
" style="fill:none;stroke:#ff0000;stroke-linecap:square;stroke-width:1.5;"/>
   </g>
   <g id="line2d_30">
    <path clip-path="url(#p5eabe147ed)" d="M 372.019622 225.153919 
L 341.209889 218.826565 
L 339.693298 218.188217 
L 338.535323 217.019187 
L 337.911414 215.496597 
L 337.916105 213.851143 
L 338.548684 212.332135 
L 339.713304 211.169726 
L 363.875575 201.073892 
L 373.581818 224.506836 
L 372.019622 225.153919 
" style="fill:none;stroke:#ff0000;stroke-linecap:square;stroke-width:1.5;"/>
   </g>
   <g id="line2d_31">
    <path clip-path="url(#p5eabe147ed)" d="M 289.688575 180.273204 
L 289.688575 154.909567 
L 291.379484 154.909567 
L 317.422591 172.545655 
L 318.579454 173.715786 
L 319.201915 175.238967 
L 319.195662 176.884416 
L 318.56164 178.402822 
L 317.395914 179.564124 
L 315.87511 180.19237 
L 289.688575 180.273204 
" style="fill:none;stroke:#ff0000;stroke-linecap:square;stroke-width:1.5;"/>
   </g>
   <g id="line2d_32">
    <path clip-path="url(#p5eabe147ed)" d="M 263.751886 168.205482 
L 254.045643 144.772537 
L 255.607839 144.125455 
L 286.417572 150.452809 
L 287.934163 151.091157 
L 289.092138 152.260187 
L 289.716047 153.782777 
L 289.711356 155.42823 
L 289.078777 156.947238 
L 287.914157 158.109648 
L 263.751886 168.205482 
" style="fill:none;stroke:#ff0000;stroke-linecap:square;stroke-width:1.5;"/>
   </g>
   <g id="line2d_33">
    <path clip-path="url(#p5eabe147ed)" d="M 294.501894 204.973204 
L 293.52998 204.839576 
L 291.752138 204.03132 
L 290.89655 203.300484 
L 279.115636 189.61074 
L 279.108365 186.408158 
L 279.111409 180.143002 
L 305.182014 180.141818 
L 307.152926 180.539738 
L 308.815211 181.670914 
L 309.446193 182.45999 
L 310.184077 184.330361 
L 310.261806 185.337701 
L 309.819591 187.29913 
L 298.106743 203.670311 
L 296.431898 204.674733 
L 294.501894 204.973204 
" style="fill:none;stroke:#ff0000;stroke-linecap:square;stroke-width:1.5;"/>
   </g>
   <g id="line2d_34">
    <path clip-path="url(#p5eabe147ed)" d="M 316.897723 224.316641 
L 297.290411 219.76036 
L 295.721511 218.59738 
L 294.707179 216.928509 
L 294.458699 215.97944 
L 294.52508 214.027622 
L 294.872865 212.957483 
L 303.012179 196.8345 
L 305.968196 195.602207 
L 311.757611 193.207448 
L 321.735493 217.293093 
L 322.122098 219.266256 
L 321.713157 221.23489 
L 321.225612 222.119807 
L 319.779991 223.517282 
L 318.879075 223.974588 
L 316.897723 224.316641 
" style="fill:none;stroke:#ff0000;stroke-linecap:square;stroke-width:1.5;"/>
   </g>
   <g id="line2d_35">
    <path clip-path="url(#p5eabe147ed)" d="M 267.33237 192.798015 
L 266.360455 192.664387 
L 264.582613 191.856131 
L 263.727025 191.125295 
L 251.946111 177.435551 
L 251.93884 174.232969 
L 251.941884 167.967813 
L 278.01249 167.966629 
L 279.983401 168.364549 
L 281.645687 169.495725 
L 282.276668 170.284801 
L 283.014552 172.155172 
L 283.092281 173.162512 
L 282.650066 175.123941 
L 270.937219 191.495122 
L 269.262373 192.499544 
L 267.33237 192.798015 
" style="fill:none;stroke:#ff0000;stroke-linecap:square;stroke-width:1.5;"/>
   </g>
   <g id="line2d_36">
    <path clip-path="url(#p5eabe147ed)" d="M 239.785091 168.956301 
L 238.813176 168.822673 
L 237.035334 168.014417 
L 236.179746 167.283581 
L 224.398833 153.593837 
L 224.391562 150.391255 
L 224.394605 144.126099 
L 250.465211 144.124915 
L 252.436123 144.522835 
L 254.098408 145.654011 
L 254.729389 146.443087 
L 255.467273 148.313457 
L 255.545003 149.320798 
L 255.102788 151.282227 
L 243.38994 167.653408 
L 241.715094 168.65783 
L 239.785091 168.956301 
" style="fill:none;stroke:#ff0000;stroke-linecap:square;stroke-width:1.5;"/>
   </g>
   <g id="line2d_37">
    <path clip-path="url(#p5eabe147ed)" d="M 275.612119 223.866047 
L 273.714808 223.403218 
L 272.868013 222.907827 
L 271.534807 221.480745 
L 271.024026 220.478121 
L 265.378719 203.322086 
L 266.597577 200.360504 
L 268.99796 194.573419 
L 293.084512 204.549114 
L 294.75312 205.67098 
L 295.855989 207.352179 
L 296.136973 208.322656 
L 296.102929 210.333029 
L 295.789249 211.293436 
L 294.63009 212.936332 
L 277.54385 223.579018 
L 275.612119 223.866047 
" style="fill:none;stroke:#ff0000;stroke-linecap:square;stroke-width:1.5;"/>
   </g>
   <g id="line2d_38">
    <path clip-path="url(#p5eabe147ed)" d="M 186.557209 144.246759 
L 184.659899 143.783929 
L 183.813104 143.288538 
L 182.479898 141.861456 
L 181.969117 140.858832 
L 176.32381 123.702797 
L 177.542668 120.741215 
L 179.943051 114.95413 
L 204.029603 124.929825 
L 205.698211 126.051691 
L 206.80108 127.73289 
L 207.082064 128.703368 
L 207.04802 130.713741 
L 206.73434 131.674148 
L 205.57518 133.317043 
L 188.488941 143.959729 
L 186.557209 144.246759 
" style="fill:none;stroke:#ff0000;stroke-linecap:square;stroke-width:1.5;"/>
   </g>
   <g id="line2d_39">
    <path clip-path="url(#p5eabe147ed)" d="M 231.4806 192.327851 
L 229.583289 191.865021 
L 228.736495 191.36963 
L 227.403289 189.942548 
L 226.892507 188.939924 
L 221.247201 171.78389 
L 222.466058 168.822307 
L 224.866442 163.035222 
L 248.952993 173.010918 
L 250.621601 174.132783 
L 251.72447 175.813982 
L 252.005455 176.78446 
L 251.971411 178.794833 
L 251.657731 179.75524 
L 250.498571 181.398136 
L 233.412331 192.040822 
L 231.4806 192.327851 
" style="fill:none;stroke:#ff0000;stroke-linecap:square;stroke-width:1.5;"/>
   </g>
   <g id="line2d_40">
    <path clip-path="url(#p5eabe147ed)" d="M 206.508837 165.644981 
L 194.552304 141.731915 
L 224.443636 147.710182 
L 206.508837 165.644981 
" style="fill:none;stroke:#ff0000;stroke-linecap:square;stroke-width:1.5;"/>
   </g>
   <g id="line2d_41">
    <path clip-path="url(#p5eabe147ed)" d="M 251.145184 212.283907 
L 239.188651 188.370842 
L 269.079983 194.349108 
L 251.145184 212.283907 
" style="fill:none;stroke:#ff0000;stroke-linecap:square;stroke-width:1.5;"/>
   </g>
   <g id="line2d_42">
    <path clip-path="url(#p5eabe147ed)" d="M 162.003994 132.887734 
L 150.047461 108.974669 
L 179.938793 114.952935 
L 162.003994 132.887734 
" style="fill:none;stroke:#ff0000;stroke-linecap:square;stroke-width:1.5;"/>
   </g>
   <g id="line2d_43">
    <path clip-path="url(#p5eabe147ed)" d="M 245.760274 226.034907 
L 262.72239 200.706701 
L 272.428633 224.139645 
L 245.760274 226.034907 
" style="fill:none;stroke:#ff0000;stroke-linecap:square;stroke-width:1.5;"/>
   </g>
   <g id="line2d_44">
    <path clip-path="url(#p5eabe147ed)" d="M 135.543505 130.228909 
L 143.99805 104.865273 
L 160.907141 130.228909 
L 135.543505 130.228909 
" style="fill:none;stroke:#ff0000;stroke-linecap:square;stroke-width:1.5;"/>
   </g>
   <g id="line2d_45">
    <path clip-path="url(#p5eabe147ed)" d="M 130.761212 125.499713 
L 124.194229 123.865787 
L 117.694712 121.998685 
L 115.826258 115.494434 
L 114.193685 108.932185 
L 118.892214 104.062029 
L 123.75882 99.367051 
L 130.325803 101.000976 
L 136.82532 102.868078 
L 138.693774 109.372329 
L 140.326347 115.934578 
L 135.627818 120.804734 
L 130.761212 125.499713 
" style="fill:none;stroke:#ff0000;stroke-linecap:square;stroke-width:1.5;"/>
   </g>
   <g id="line2d_46">
    <path clip-path="url(#p5eabe147ed)" d="M 85.785709 94.575004 
L 79.218725 92.941078 
L 72.719209 91.073977 
L 70.850755 84.569726 
L 69.218182 78.007477 
L 73.916711 73.13732 
L 78.783316 68.442342 
L 85.3503 70.076267 
L 91.849816 71.943369 
L 93.718271 78.44762 
L 95.350844 85.009869 
L 90.652315 89.880026 
L 85.785709 94.575004 
" style="fill:none;stroke:#ff0000;stroke-linecap:square;stroke-width:1.5;"/>
   </g>
   <g id="line2d_47">
    <path clip-path="url(#p5eabe147ed)" d="M 104.907892 118.232911 
L 98.340908 116.598986 
L 91.841392 114.731884 
L 89.972937 108.227633 
L 88.340365 101.665384 
L 93.038894 96.795228 
L 97.905499 92.10025 
L 104.472483 93.734175 
L 110.971999 95.601277 
L 112.840454 102.105528 
L 114.473026 108.667777 
L 109.774497 113.537933 
L 104.907892 118.232911 
" style="fill:none;stroke:#ff0000;stroke-linecap:square;stroke-width:1.5;"/>
   </g>
   <g id="line2d_48">
    <path clip-path="url(#p5eabe147ed)" d="M 100.593983 141.326017 
L 94.027 139.692091 
L 87.527483 137.824989 
L 85.659029 131.320738 
L 84.026456 124.758489 
L 88.724985 119.888333 
L 93.591591 115.193355 
L 100.158574 116.82728 
L 106.658091 118.694382 
L 108.526545 125.198633 
L 110.159118 131.760882 
L 105.460589 136.631038 
L 100.593983 141.326017 
" style="fill:none;stroke:#ff0000;stroke-linecap:square;stroke-width:1.5;"/>
   </g>
   <g id="line2d_49">
    <path clip-path="url(#p5eabe147ed)" d="M 97.133188 164.639286 
L 90.566204 163.00536 
L 84.066688 161.138258 
L 82.198233 154.634008 
L 80.56566 148.071758 
L 85.26419 143.201602 
L 90.130795 138.506624 
L 96.697779 140.140549 
L 103.197295 142.007651 
L 105.06575 148.511902 
L 106.698322 155.074151 
L 101.999793 159.944308 
L 97.133188 164.639286 
" style="fill:none;stroke:#ff0000;stroke-linecap:square;stroke-width:1.5;"/>
   </g>
   <g id="patch_37">
    <path d="M 54 252 
L 54 34.56 
" style="fill:none;stroke:#000000;stroke-linecap:square;stroke-linejoin:miter;stroke-width:0.8;"/>
   </g>
   <g id="patch_38">
    <path d="M 388.8 252 
L 388.8 34.56 
" style="fill:none;stroke:#000000;stroke-linecap:square;stroke-linejoin:miter;stroke-width:0.8;"/>
   </g>
   <g id="patch_39">
    <path d="M 54 252 
L 388.8 252 
" style="fill:none;stroke:#000000;stroke-linecap:square;stroke-linejoin:miter;stroke-width:0.8;"/>
   </g>
   <g id="patch_40">
    <path d="M 54 34.56 
L 388.8 34.56 
" style="fill:none;stroke:#000000;stroke-linecap:square;stroke-linejoin:miter;stroke-width:0.8;"/>
   </g>
  </g>
 </g>
 <defs>
  <clipPath id="p5eabe147ed">
   <rect height="217.44" width="334.8" x="54" y="34.56"/>
  </clipPath>
 </defs>
</svg>
