<?xml version="1.0" encoding="utf-8" standalone="no"?>
<!DOCTYPE svg PUBLIC "-//W3C//DTD SVG 1.1//EN"
  "http://www.w3.org/Graphics/SVG/1.1/DTD/svg11.dtd">
<!-- Created with matplotlib (https://matplotlib.org/) -->
<svg height="288pt" version="1.1" viewBox="0 0 432 288" width="432pt" xmlns="http://www.w3.org/2000/svg" xmlns:xlink="http://www.w3.org/1999/xlink">
 <defs>
  <style type="text/css">
*{stroke-linecap:butt;stroke-linejoin:round;}
  </style>
 </defs>
 <g id="figure_1">
  <g id="patch_1">
   <path d="M 0 288 
L 432 288 
L 432 0 
L 0 0 
z
" style="fill:#ffffff;"/>
  </g>
  <g id="axes_1">
   <g id="patch_2">
    <path d="M 54 252 
L 388.8 252 
L 388.8 34.56 
L 54 34.56 
z
" style="fill:#ffffff;"/>
   </g>
   <g id="patch_3">
    <path clip-path="url(#p5bdfdd28de)" d="M 69.218182 172.860638 
L 69.218182 227.825455 
L 174.907336 227.825455 
z
" style="fill:#aaaaaa;"/>
   </g>
   <g id="patch_4">
    <path clip-path="url(#p5bdfdd28de)" d="M 105.040687 136.800432 
L 107.85789 170.606875 
L 145.608419 168.916553 
L 140.537452 132.292906 
z
" style="fill:#aaaaaa;"/>
   </g>
   <g id="patch_5">
    <path clip-path="url(#p5bdfdd28de)" d="M 89.827787 58.734545 
L 88.700906 58.734545 
L 97.152516 91.725174 
L 207.412119 122.702872 
L 206.460017 144.125161 
L 276.890108 144.125161 
L 292.666448 58.734545 
L 117.436383 58.734545 
z
" style="fill:#aaaaaa;"/>
   </g>
   <g id="patch_6">
    <path clip-path="url(#p5bdfdd28de)" d="M 81.873193 131.060507 
L 80.026558 103.234729 
L 70.529053 103.855784 
L 72.707582 136.943717 
L 128.20283 133.295796 
L 126.031833 100.211605 
L 118.032823 100.73724 
L 119.860223 128.564282 
z
" style="fill:#f6929c;"/>
   </g>
   <g id="patch_7">
    <path clip-path="url(#p5bdfdd28de)" d="M 345.522704 68.439518 
L 373.409684 68.421425 
L 373.412727 58.903636 
L 340.253155 58.907864 
L 340.254338 114.522878 
L 373.409684 114.525922 
L 373.409684 106.50966 
L 345.522704 106.508476 
z
" style="fill:#f6929c;"/>
   </g>
   <g id="patch_8">
    <path clip-path="url(#p5bdfdd28de)" d="M 309.967596 69.902991 
L 337.839541 68.987193 
L 337.536194 59.474239 
L 304.393943 60.545909 
L 306.185438 116.132062 
L 339.323698 115.067795 
L 339.065645 107.055688 
L 311.19308 107.952219 
z
" style="fill:#f6929c;"/>
   </g>
   <g id="patch_9">
    <path clip-path="url(#p5bdfdd28de)" d="M 345.522704 124.239518 
L 373.409684 124.221425 
L 373.412727 114.703636 
L 340.253155 114.707864 
L 340.254338 170.322878 
L 373.409684 170.325922 
L 373.409684 162.30966 
L 345.522704 162.308476 
z
" style="fill:#f6929c;"/>
   </g>
   <g id="patch_10">
    <path clip-path="url(#p5bdfdd28de)" d="M 288.734394 135.869278 
L 294.291682 108.541626 
L 284.966634 106.635899 
L 278.341692 139.126935 
L 332.83426 150.244031 
L 339.465481 117.758591 
L 331.611041 116.156023 
L 326.034866 143.47982 
z
" style="fill:#f6929c;"/>
   </g>
   <g id="patch_11">
    <path clip-path="url(#p5bdfdd28de)" d="M 371.229947 94.632409 
L 349.248739 94.468672 
L 348.056807 93.964524 
L 347.570472 92.765214 
L 347.734209 70.784006 
L 348.238357 69.592074 
L 349.437667 69.105739 
L 371.418875 69.269477 
L 372.610807 69.773624 
L 373.097142 70.972934 
L 372.933404 92.954142 
L 372.429256 94.146074 
z
" style="fill:#f6929c;"/>
   </g>
   <g id="patch_12">
    <path clip-path="url(#p5bdfdd28de)" d="M 371.21183 150.124701 
L 349.230552 149.970586 
L 348.0384 149.46696 
L 347.55154 148.267863 
L 347.705654 126.286585 
L 348.20928 125.094433 
L 349.408377 124.607573 
L 371.389655 124.761688 
L 372.581807 125.265314 
L 373.068667 126.46441 
L 372.914553 148.445688 
L 372.410927 149.63784 
z
" style="fill:#f6929c;"/>
   </g>
   <g id="patch_13">
    <path clip-path="url(#p5bdfdd28de)" d="M 315.425216 95.35747 
L 314.216771 94.894301 
L 313.689782 93.712291 
L 313.103125 71.738302 
L 313.566294 70.529857 
L 314.748304 70.002868 
L 336.722293 69.416211 
L 337.930738 69.87938 
L 338.457727 71.061391 
L 339.044384 93.035379 
L 338.581215 94.243824 
L 337.399204 94.770813 
z
" style="fill:#f6929c;"/>
   </g>
   <g id="patch_14">
    <path clip-path="url(#p5bdfdd28de)" d="M 95.536197 124.486783 
L 94.306929 124.082105 
L 93.723856 122.92673 
L 92.083989 101.006165 
L 92.488667 99.776896 
L 93.644043 99.193824 
L 115.564608 97.553957 
L 116.793876 97.958635 
L 117.376949 99.11401 
L 119.016816 121.034575 
L 118.612138 122.263844 
L 117.456762 122.846916 
z
" style="fill:#f6929c;"/>
   </g>
   <g id="patch_15">
    <path clip-path="url(#p5bdfdd28de)" d="M 315.659863 137.825974 
L 290.047122 132.373571 
L 295.404712 107.582237 
L 297.057468 107.93941 
L 318.787651 130.678675 
L 319.671242 132.066768 
L 319.957915 133.687064 
L 319.604233 135.294064 
L 318.663782 136.644284 
L 317.279056 137.533145 
z
" style="fill:#f6929c;"/>
   </g>
   <g id="patch_16">
    <path clip-path="url(#p5bdfdd28de)" d="M 74.382458 167.115298 
L 72.737279 167.084847 
L 71.228361 166.428564 
L 70.084328 165.245885 
L 69.478516 163.716006 
L 69.782805 137.531114 
L 95.143698 137.904126 
L 95.118831 139.594852 
L 77.101646 165.375777 
L 75.914628 166.515306 
z
" style="fill:#f6929c;"/>
   </g>
   <g id="patch_17">
    <path clip-path="url(#p5bdfdd28de)" d="M 353.083328 200.016977 
L 351.437879 200.010724 
L 349.919473 199.376702 
L 348.75817 198.210976 
L 348.129925 196.690172 
L 348.049091 170.503636 
L 373.412727 170.503636 
L 373.412727 172.194545 
L 355.77664 198.237653 
L 354.606509 199.394516 
z
" style="fill:#f6929c;"/>
   </g>
   <g id="patch_18">
    <path clip-path="url(#p5bdfdd28de)" d="M 312.708134 171.414044 
L 305.409066 147.123354 
L 307.028445 146.636749 
L 337.045122 156.032181 
L 338.489783 156.819894 
L 339.524249 158.099511 
L 339.991782 159.677153 
L 339.821544 161.313783 
L 339.039327 162.761429 
L 337.763651 163.80075 
z
" style="fill:#f6929c;"/>
   </g>
   <g id="patch_19">
    <path clip-path="url(#p5bdfdd28de)" d="M 325.153616 199.443323 
L 323.514366 199.300493 
L 322.053835 198.542608 
L 320.993315 197.284498 
L 320.493489 195.71679 
L 322.586836 169.613934 
L 347.862923 171.719522 
L 347.72255 173.404595 
L 327.985344 197.893729 
L 326.723213 198.949459 
z
" style="fill:#f6929c;"/>
   </g>
   <g id="patch_20">
    <path clip-path="url(#p5bdfdd28de)" d="M 368.934634 227.257126 
L 342.781692 225.928665 
L 344.146588 200.601779 
L 345.835047 200.692773 
L 370.891366 219.704766 
L 371.983584 220.935455 
L 372.523176 222.489926 
L 372.428385 224.132654 
L 371.713572 225.614741 
L 370.487042 226.71163 
z
" style="fill:#f6929c;"/>
   </g>
   <g id="patch_21">
    <path clip-path="url(#p5bdfdd28de)" d="M 289.968378 169.456074 
L 288.993832 169.343222 
L 287.199143 168.573099 
L 286.32815 167.860691 
L 274.257712 154.425531 
L 274.182083 151.223834 
L 274.051395 144.960041 
L 300.116036 144.402378 
L 302.094992 144.758138 
L 303.781044 145.853574 
L 304.428724 146.629002 
L 305.206364 148.483196 
L 305.305577 149.488648 
L 304.90533 151.459069 
L 293.544595 168.076532 
L 291.891571 169.116475 
z
" style="fill:#f6929c;"/>
   </g>
   <g id="patch_22">
    <path clip-path="url(#p5bdfdd28de)" d="M 336.894505 226.185539 
L 334.96753 225.611497 
L 319.427224 212.816762 
L 318.538541 211.077735 
L 318.371471 209.131948 
L 318.570617 208.171316 
L 319.497426 206.452297 
L 320.284531 205.648171 
L 334.740735 194.821483 
L 337.936456 195.031132 
L 344.18702 195.458493 
L 342.4225 221.469317 
L 341.892008 223.408753 
L 340.650847 224.990609 
L 339.820848 225.566699 
L 337.904797 226.176213 
z
" style="fill:#f6929c;"/>
   </g>
   <g id="patch_23">
    <path clip-path="url(#p5bdfdd28de)" d="M 303.926467 195.921708 
L 302.972834 195.691366 
L 301.284927 194.709036 
L 300.506875 193.896148 
L 290.156974 179.094845 
L 290.470641 175.907652 
L 291.101443 169.674332 
L 317.04096 172.285448 
L 318.962081 172.878853 
L 320.502655 174.170898 
L 321.051395 175.019228 
L 321.598153 176.954121 
L 321.574555 177.964181 
L 320.938029 179.871428 
L 307.643724 194.98658 
L 305.876664 195.818127 
z
" style="fill:#f6929c;"/>
   </g>
   <g id="patch_24">
    <path clip-path="url(#p5bdfdd28de)" d="M 257.711368 169.616831 
L 256.742029 169.465651 
L 254.979093 168.625379 
L 254.13686 167.879191 
L 242.605418 153.978656 
L 242.656059 150.776466 
L 242.772393 144.512389 
L 268.838757 144.98263 
L 270.802151 145.416124 
L 272.44371 146.577173 
L 273.06032 147.37753 
L 273.764262 149.260937 
L 273.823763 150.269519 
L 273.346153 152.222631 
L 261.339187 168.379336 
L 259.646453 169.353308 
z
" style="fill:#f6929c;"/>
   </g>
   <g id="patch_25">
    <path clip-path="url(#p5bdfdd28de)" d="M 309.416424 221.518287 
L 307.496967 221.158169 
L 306.491554 220.652899 
L 291.781242 210.174077 
L 291.009071 207.065969 
L 289.515254 200.981505 
L 314.830654 194.751978 
L 316.839559 194.667517 
L 318.723953 195.36881 
L 319.525176 195.984293 
L 320.688533 197.62422 
L 321.004669 198.583821 
L 321.043853 200.5941 
L 313.581317 219.289472 
L 312.19493 220.664936 
L 310.392119 221.41585 
z
" style="fill:#f6929c;"/>
   </g>
   <g id="patch_26">
    <path clip-path="url(#p5bdfdd28de)" d="M 275.034629 193.556691 
L 274.055241 193.499481 
L 272.219635 192.832734 
L 271.309512 192.171047 
L 258.494085 179.444546 
L 258.236381 176.252341 
L 257.749454 170.006135 
L 283.740123 167.966126 
L 285.736117 168.208694 
L 287.481774 169.206407 
L 288.172532 169.943722 
L 289.054427 171.750658 
L 289.210696 172.748835 
L 288.923228 174.73884 
L 278.526546 191.975875 
L 276.93538 193.1082 
z
" style="fill:#f6929c;"/>
   </g>
   <g id="patch_27">
    <path clip-path="url(#p5bdfdd28de)" d="M 226.260114 169.170097 
L 225.287789 169.039496 
L 223.507439 168.236778 
L 222.64958 167.508609 
L 210.826107 153.855606 
L 210.808866 150.653062 
L 210.792406 144.387927 
L 236.862881 144.305584 
L 238.835022 144.697367 
L 240.500821 145.823363 
L 241.134256 146.610471 
L 241.877959 148.478535 
L 241.958824 149.485629 
L 241.522717 151.448425 
L 229.86089 167.855989 
L 228.189179 168.86562 
z
" style="fill:#f6929c;"/>
   </g>
   <g id="patch_28">
    <path clip-path="url(#p5bdfdd28de)" d="M 69.672292 84.267273 
L 78.126838 58.903636 
L 95.035929 84.267273 
z
" style="fill:#f6929c;"/>
   </g>
   <g id="patch_29">
    <path clip-path="url(#p5bdfdd28de)" d="M 261.205796 214.971365 
L 268.38797 190.645855 
L 290.319422 205.936532 
z
" style="fill:#f6929c;"/>
   </g>
   <g id="patch_30">
    <path clip-path="url(#p5bdfdd28de)" d="M 256.880964 174.389324 
L 226.398909 174.114219 
L 240.658007 153.138229 
z
" style="fill:#f6929c;"/>
   </g>
   <g id="patch_31">
    <path clip-path="url(#p5bdfdd28de)" d="M 181.158257 140.664411 
L 179.833754 115.335381 
L 205.604285 122.453888 
z
" style="fill:#f6929c;"/>
   </g>
   <g id="patch_32">
    <path clip-path="url(#p5bdfdd28de)" d="M 242.300919 205.349073 
L 243.660181 180.021885 
L 268.534282 189.823543 
z
" style="fill:#f6929c;"/>
   </g>
   <g id="matplotlib.axis_1">
    <g id="xtick_1">
     <g id="line2d_1">
      <defs>
       <path d="M 0 0 
L 0 3.5 
" id="m8b1712d60a" style="stroke:#000000;stroke-width:0.8;"/>
      </defs>
      <g>
       <use style="stroke:#000000;stroke-width:0.8;" x="69.218182" xlink:href="#m8b1712d60a" y="252"/>
      </g>
     </g>
     <g id="text_1">
      <!-- 0 -->
      <defs>
       <path d="M 31.78125 66.40625 
Q 24.171875 66.40625 20.328125 58.90625 
Q 16.5 51.421875 16.5 36.375 
Q 16.5 21.390625 20.328125 13.890625 
Q 24.171875 6.390625 31.78125 6.390625 
Q 39.453125 6.390625 43.28125 13.890625 
Q 47.125 21.390625 47.125 36.375 
Q 47.125 51.421875 43.28125 58.90625 
Q 39.453125 66.40625 31.78125 66.40625 
z
M 31.78125 74.21875 
Q 44.046875 74.21875 50.515625 64.515625 
Q 56.984375 54.828125 56.984375 36.375 
Q 56.984375 17.96875 50.515625 8.265625 
Q 44.046875 -1.421875 31.78125 -1.421875 
Q 19.53125 -1.421875 13.0625 8.265625 
Q 6.59375 17.96875 6.59375 36.375 
Q 6.59375 54.828125 13.0625 64.515625 
Q 19.53125 74.21875 31.78125 74.21875 
z
" id="DejaVuSans-48"/>
      </defs>
      <g transform="translate(66.036932 266.598437)scale(0.1 -0.1)">
       <use xlink:href="#DejaVuSans-48"/>
      </g>
     </g>
    </g>
    <g id="xtick_2">
     <g id="line2d_2">
      <g>
       <use style="stroke:#000000;stroke-width:0.8;" x="111.490909" xlink:href="#m8b1712d60a" y="252"/>
      </g>
     </g>
     <g id="text_2">
      <!-- 250 -->
      <defs>
       <path d="M 19.1875 8.296875 
L 53.609375 8.296875 
L 53.609375 0 
L 7.328125 0 
L 7.328125 8.296875 
Q 12.9375 14.109375 22.625 23.890625 
Q 32.328125 33.6875 34.8125 36.53125 
Q 39.546875 41.84375 41.421875 45.53125 
Q 43.3125 49.21875 43.3125 52.78125 
Q 43.3125 58.59375 39.234375 62.25 
Q 35.15625 65.921875 28.609375 65.921875 
Q 23.96875 65.921875 18.8125 64.3125 
Q 13.671875 62.703125 7.8125 59.421875 
L 7.8125 69.390625 
Q 13.765625 71.78125 18.9375 73 
Q 24.125 74.21875 28.421875 74.21875 
Q 39.75 74.21875 46.484375 68.546875 
Q 53.21875 62.890625 53.21875 53.421875 
Q 53.21875 48.921875 51.53125 44.890625 
Q 49.859375 40.875 45.40625 35.40625 
Q 44.1875 33.984375 37.640625 27.21875 
Q 31.109375 20.453125 19.1875 8.296875 
z
" id="DejaVuSans-50"/>
       <path d="M 10.796875 72.90625 
L 49.515625 72.90625 
L 49.515625 64.59375 
L 19.828125 64.59375 
L 19.828125 46.734375 
Q 21.96875 47.46875 24.109375 47.828125 
Q 26.265625 48.1875 28.421875 48.1875 
Q 40.625 48.1875 47.75 41.5 
Q 54.890625 34.8125 54.890625 23.390625 
Q 54.890625 11.625 47.5625 5.09375 
Q 40.234375 -1.421875 26.90625 -1.421875 
Q 22.3125 -1.421875 17.546875 -0.640625 
Q 12.796875 0.140625 7.71875 1.703125 
L 7.71875 11.625 
Q 12.109375 9.234375 16.796875 8.0625 
Q 21.484375 6.890625 26.703125 6.890625 
Q 35.15625 6.890625 40.078125 11.328125 
Q 45.015625 15.765625 45.015625 23.390625 
Q 45.015625 31 40.078125 35.4375 
Q 35.15625 39.890625 26.703125 39.890625 
Q 22.75 39.890625 18.8125 39.015625 
Q 14.890625 38.140625 10.796875 36.28125 
z
" id="DejaVuSans-53"/>
      </defs>
      <g transform="translate(101.947159 266.598437)scale(0.1 -0.1)">
       <use xlink:href="#DejaVuSans-50"/>
       <use x="63.623047" xlink:href="#DejaVuSans-53"/>
       <use x="127.246094" xlink:href="#DejaVuSans-48"/>
      </g>
     </g>
    </g>
    <g id="xtick_3">
     <g id="line2d_3">
      <g>
       <use style="stroke:#000000;stroke-width:0.8;" x="153.763636" xlink:href="#m8b1712d60a" y="252"/>
      </g>
     </g>
     <g id="text_3">
      <!-- 500 -->
      <g transform="translate(144.219886 266.598437)scale(0.1 -0.1)">
       <use xlink:href="#DejaVuSans-53"/>
       <use x="63.623047" xlink:href="#DejaVuSans-48"/>
       <use x="127.246094" xlink:href="#DejaVuSans-48"/>
      </g>
     </g>
    </g>
    <g id="xtick_4">
     <g id="line2d_4">
      <g>
       <use style="stroke:#000000;stroke-width:0.8;" x="196.036364" xlink:href="#m8b1712d60a" y="252"/>
      </g>
     </g>
     <g id="text_4">
      <!-- 750 -->
      <defs>
       <path d="M 8.203125 72.90625 
L 55.078125 72.90625 
L 55.078125 68.703125 
L 28.609375 0 
L 18.3125 0 
L 43.21875 64.59375 
L 8.203125 64.59375 
z
" id="DejaVuSans-55"/>
      </defs>
      <g transform="translate(186.492614 266.598437)scale(0.1 -0.1)">
       <use xlink:href="#DejaVuSans-55"/>
       <use x="63.623047" xlink:href="#DejaVuSans-53"/>
       <use x="127.246094" xlink:href="#DejaVuSans-48"/>
      </g>
     </g>
    </g>
    <g id="xtick_5">
     <g id="line2d_5">
      <g>
       <use style="stroke:#000000;stroke-width:0.8;" x="238.309091" xlink:href="#m8b1712d60a" y="252"/>
      </g>
     </g>
     <g id="text_5">
      <!-- 1000 -->
      <defs>
       <path d="M 12.40625 8.296875 
L 28.515625 8.296875 
L 28.515625 63.921875 
L 10.984375 60.40625 
L 10.984375 69.390625 
L 28.421875 72.90625 
L 38.28125 72.90625 
L 38.28125 8.296875 
L 54.390625 8.296875 
L 54.390625 0 
L 12.40625 0 
z
" id="DejaVuSans-49"/>
      </defs>
      <g transform="translate(225.584091 266.598437)scale(0.1 -0.1)">
       <use xlink:href="#DejaVuSans-49"/>
       <use x="63.623047" xlink:href="#DejaVuSans-48"/>
       <use x="127.246094" xlink:href="#DejaVuSans-48"/>
       <use x="190.869141" xlink:href="#DejaVuSans-48"/>
      </g>
     </g>
    </g>
    <g id="xtick_6">
     <g id="line2d_6">
      <g>
       <use style="stroke:#000000;stroke-width:0.8;" x="280.581818" xlink:href="#m8b1712d60a" y="252"/>
      </g>
     </g>
     <g id="text_6">
      <!-- 1250 -->
      <g transform="translate(267.856818 266.598437)scale(0.1 -0.1)">
       <use xlink:href="#DejaVuSans-49"/>
       <use x="63.623047" xlink:href="#DejaVuSans-50"/>
       <use x="127.246094" xlink:href="#DejaVuSans-53"/>
       <use x="190.869141" xlink:href="#DejaVuSans-48"/>
      </g>
     </g>
    </g>
    <g id="xtick_7">
     <g id="line2d_7">
      <g>
       <use style="stroke:#000000;stroke-width:0.8;" x="322.854545" xlink:href="#m8b1712d60a" y="252"/>
      </g>
     </g>
     <g id="text_7">
      <!-- 1500 -->
      <g transform="translate(310.129545 266.598437)scale(0.1 -0.1)">
       <use xlink:href="#DejaVuSans-49"/>
       <use x="63.623047" xlink:href="#DejaVuSans-53"/>
       <use x="127.246094" xlink:href="#DejaVuSans-48"/>
       <use x="190.869141" xlink:href="#DejaVuSans-48"/>
      </g>
     </g>
    </g>
    <g id="xtick_8">
     <g id="line2d_8">
      <g>
       <use style="stroke:#000000;stroke-width:0.8;" x="365.127273" xlink:href="#m8b1712d60a" y="252"/>
      </g>
     </g>
     <g id="text_8">
      <!-- 1750 -->
      <g transform="translate(352.402273 266.598437)scale(0.1 -0.1)">
       <use xlink:href="#DejaVuSans-49"/>
       <use x="63.623047" xlink:href="#DejaVuSans-55"/>
       <use x="127.246094" xlink:href="#DejaVuSans-53"/>
       <use x="190.869141" xlink:href="#DejaVuSans-48"/>
      </g>
     </g>
    </g>
   </g>
   <g id="matplotlib.axis_2">
    <g id="ytick_1">
     <g id="line2d_9">
      <defs>
       <path d="M 0 0 
L -3.5 0 
" id="m0742cbecd8" style="stroke:#000000;stroke-width:0.8;"/>
      </defs>
      <g>
       <use style="stroke:#000000;stroke-width:0.8;" x="54" xlink:href="#m0742cbecd8" y="227.825455"/>
      </g>
     </g>
     <g id="text_9">
      <!-- 0 -->
      <g transform="translate(40.6375 231.624673)scale(0.1 -0.1)">
       <use xlink:href="#DejaVuSans-48"/>
      </g>
     </g>
    </g>
    <g id="ytick_2">
     <g id="line2d_10">
      <g>
       <use style="stroke:#000000;stroke-width:0.8;" x="54" xlink:href="#m0742cbecd8" y="194.007273"/>
      </g>
     </g>
     <g id="text_10">
      <!-- 200 -->
      <g transform="translate(27.9125 197.806491)scale(0.1 -0.1)">
       <use xlink:href="#DejaVuSans-50"/>
       <use x="63.623047" xlink:href="#DejaVuSans-48"/>
       <use x="127.246094" xlink:href="#DejaVuSans-48"/>
      </g>
     </g>
    </g>
    <g id="ytick_3">
     <g id="line2d_11">
      <g>
       <use style="stroke:#000000;stroke-width:0.8;" x="54" xlink:href="#m0742cbecd8" y="160.189091"/>
      </g>
     </g>
     <g id="text_11">
      <!-- 400 -->
      <defs>
       <path d="M 37.796875 64.3125 
L 12.890625 25.390625 
L 37.796875 25.390625 
z
M 35.203125 72.90625 
L 47.609375 72.90625 
L 47.609375 25.390625 
L 58.015625 25.390625 
L 58.015625 17.1875 
L 47.609375 17.1875 
L 47.609375 0 
L 37.796875 0 
L 37.796875 17.1875 
L 4.890625 17.1875 
L 4.890625 26.703125 
z
" id="DejaVuSans-52"/>
      </defs>
      <g transform="translate(27.9125 163.98831)scale(0.1 -0.1)">
       <use xlink:href="#DejaVuSans-52"/>
       <use x="63.623047" xlink:href="#DejaVuSans-48"/>
       <use x="127.246094" xlink:href="#DejaVuSans-48"/>
      </g>
     </g>
    </g>
    <g id="ytick_4">
     <g id="line2d_12">
      <g>
       <use style="stroke:#000000;stroke-width:0.8;" x="54" xlink:href="#m0742cbecd8" y="126.370909"/>
      </g>
     </g>
     <g id="text_12">
      <!-- 600 -->
      <defs>
       <path d="M 33.015625 40.375 
Q 26.375 40.375 22.484375 35.828125 
Q 18.609375 31.296875 18.609375 23.390625 
Q 18.609375 15.53125 22.484375 10.953125 
Q 26.375 6.390625 33.015625 6.390625 
Q 39.65625 6.390625 43.53125 10.953125 
Q 47.40625 15.53125 47.40625 23.390625 
Q 47.40625 31.296875 43.53125 35.828125 
Q 39.65625 40.375 33.015625 40.375 
z
M 52.59375 71.296875 
L 52.59375 62.3125 
Q 48.875 64.0625 45.09375 64.984375 
Q 41.3125 65.921875 37.59375 65.921875 
Q 27.828125 65.921875 22.671875 59.328125 
Q 17.53125 52.734375 16.796875 39.40625 
Q 19.671875 43.65625 24.015625 45.921875 
Q 28.375 48.1875 33.59375 48.1875 
Q 44.578125 48.1875 50.953125 41.515625 
Q 57.328125 34.859375 57.328125 23.390625 
Q 57.328125 12.15625 50.6875 5.359375 
Q 44.046875 -1.421875 33.015625 -1.421875 
Q 20.359375 -1.421875 13.671875 8.265625 
Q 6.984375 17.96875 6.984375 36.375 
Q 6.984375 53.65625 15.1875 63.9375 
Q 23.390625 74.21875 37.203125 74.21875 
Q 40.921875 74.21875 44.703125 73.484375 
Q 48.484375 72.75 52.59375 71.296875 
z
" id="DejaVuSans-54"/>
      </defs>
      <g transform="translate(27.9125 130.170128)scale(0.1 -0.1)">
       <use xlink:href="#DejaVuSans-54"/>
       <use x="63.623047" xlink:href="#DejaVuSans-48"/>
       <use x="127.246094" xlink:href="#DejaVuSans-48"/>
      </g>
     </g>
    </g>
    <g id="ytick_5">
     <g id="line2d_13">
      <g>
       <use style="stroke:#000000;stroke-width:0.8;" x="54" xlink:href="#m0742cbecd8" y="92.552727"/>
      </g>
     </g>
     <g id="text_13">
      <!-- 800 -->
      <defs>
       <path d="M 31.78125 34.625 
Q 24.75 34.625 20.71875 30.859375 
Q 16.703125 27.09375 16.703125 20.515625 
Q 16.703125 13.921875 20.71875 10.15625 
Q 24.75 6.390625 31.78125 6.390625 
Q 38.8125 6.390625 42.859375 10.171875 
Q 46.921875 13.96875 46.921875 20.515625 
Q 46.921875 27.09375 42.890625 30.859375 
Q 38.875 34.625 31.78125 34.625 
z
M 21.921875 38.8125 
Q 15.578125 40.375 12.03125 44.71875 
Q 8.5 49.078125 8.5 55.328125 
Q 8.5 64.0625 14.71875 69.140625 
Q 20.953125 74.21875 31.78125 74.21875 
Q 42.671875 74.21875 48.875 69.140625 
Q 55.078125 64.0625 55.078125 55.328125 
Q 55.078125 49.078125 51.53125 44.71875 
Q 48 40.375 41.703125 38.8125 
Q 48.828125 37.15625 52.796875 32.3125 
Q 56.78125 27.484375 56.78125 20.515625 
Q 56.78125 9.90625 50.3125 4.234375 
Q 43.84375 -1.421875 31.78125 -1.421875 
Q 19.734375 -1.421875 13.25 4.234375 
Q 6.78125 9.90625 6.78125 20.515625 
Q 6.78125 27.484375 10.78125 32.3125 
Q 14.796875 37.15625 21.921875 38.8125 
z
M 18.3125 54.390625 
Q 18.3125 48.734375 21.84375 45.5625 
Q 25.390625 42.390625 31.78125 42.390625 
Q 38.140625 42.390625 41.71875 45.5625 
Q 45.3125 48.734375 45.3125 54.390625 
Q 45.3125 60.0625 41.71875 63.234375 
Q 38.140625 66.40625 31.78125 66.40625 
Q 25.390625 66.40625 21.84375 63.234375 
Q 18.3125 60.0625 18.3125 54.390625 
z
" id="DejaVuSans-56"/>
      </defs>
      <g transform="translate(27.9125 96.351946)scale(0.1 -0.1)">
       <use xlink:href="#DejaVuSans-56"/>
       <use x="63.623047" xlink:href="#DejaVuSans-48"/>
       <use x="127.246094" xlink:href="#DejaVuSans-48"/>
      </g>
     </g>
    </g>
    <g id="ytick_6">
     <g id="line2d_14">
      <g>
       <use style="stroke:#000000;stroke-width:0.8;" x="54" xlink:href="#m0742cbecd8" y="58.734545"/>
      </g>
     </g>
     <g id="text_14">
      <!-- 1000 -->
      <g transform="translate(21.55 62.533764)scale(0.1 -0.1)">
       <use xlink:href="#DejaVuSans-49"/>
       <use x="63.623047" xlink:href="#DejaVuSans-48"/>
       <use x="127.246094" xlink:href="#DejaVuSans-48"/>
       <use x="190.869141" xlink:href="#DejaVuSans-48"/>
      </g>
     </g>
    </g>
   </g>
   <g id="line2d_15">
    <path clip-path="url(#p5bdfdd28de)" d="M 69.218182 227.825455 
L 373.581818 227.825455 
L 373.581818 58.734545 
L 69.218182 58.734545 
L 69.218182 227.825455 
" style="fill:none;stroke:#000000;stroke-linecap:square;stroke-width:1.5;"/>
   </g>
   <g id="line2d_16">
    <path clip-path="url(#p5bdfdd28de)" d="M 69.218182 172.860638 
L 69.218182 227.825455 
L 174.907336 227.825455 
L 69.218182 172.860638 
" style="fill:none;stroke:#000000;stroke-dasharray:5.55,2.4;stroke-dashoffset:0;stroke-width:1.5;"/>
   </g>
   <g id="line2d_17">
    <path clip-path="url(#p5bdfdd28de)" d="M 105.040687 136.800432 
L 107.85789 170.606875 
L 145.608419 168.916553 
L 140.537452 132.292906 
L 105.040687 136.800432 
" style="fill:none;stroke:#000000;stroke-dasharray:5.55,2.4;stroke-dashoffset:0;stroke-width:1.5;"/>
   </g>
   <g id="line2d_18">
    <path clip-path="url(#p5bdfdd28de)" d="M 89.827787 58.734545 
L 88.700906 58.734545 
L 97.152516 91.725174 
L 207.412119 122.702872 
L 206.460017 144.125161 
L 276.890108 144.125161 
L 292.666448 58.734545 
L 117.436383 58.734545 
L 89.827787 58.734545 
" style="fill:none;stroke:#000000;stroke-dasharray:5.55,2.4;stroke-dashoffset:0;stroke-width:1.5;"/>
   </g>
   <g id="line2d_19">
    <path clip-path="url(#p5bdfdd28de)" d="M 81.873193 131.060507 
L 80.026558 103.234729 
L 70.529053 103.855784 
L 72.707582 136.943717 
L 128.20283 133.295796 
L 126.031833 100.211605 
L 118.032823 100.73724 
L 119.860223 128.564282 
L 81.873193 131.060507 
" style="fill:none;stroke:#ff0000;stroke-linecap:square;stroke-width:1.5;"/>
   </g>
   <g id="line2d_20">
    <path clip-path="url(#p5bdfdd28de)" d="M 345.522704 68.439518 
L 373.409684 68.421425 
L 373.412727 58.903636 
L 340.253155 58.907864 
L 340.254338 114.522878 
L 373.409684 114.525922 
L 373.409684 106.50966 
L 345.522704 106.508476 
L 345.522704 68.439518 
" style="fill:none;stroke:#ff0000;stroke-linecap:square;stroke-width:1.5;"/>
   </g>
   <g id="line2d_21">
    <path clip-path="url(#p5bdfdd28de)" d="M 309.967596 69.902991 
L 337.839541 68.987193 
L 337.536194 59.474239 
L 304.393943 60.545909 
L 306.185438 116.132062 
L 339.323698 115.067795 
L 339.065645 107.055688 
L 311.19308 107.952219 
L 309.967596 69.902991 
" style="fill:none;stroke:#ff0000;stroke-linecap:square;stroke-width:1.5;"/>
   </g>
   <g id="line2d_22">
    <path clip-path="url(#p5bdfdd28de)" d="M 345.522704 124.239518 
L 373.409684 124.221425 
L 373.412727 114.703636 
L 340.253155 114.707864 
L 340.254338 170.322878 
L 373.409684 170.325922 
L 373.409684 162.30966 
L 345.522704 162.308476 
L 345.522704 124.239518 
" style="fill:none;stroke:#ff0000;stroke-linecap:square;stroke-width:1.5;"/>
   </g>
   <g id="line2d_23">
    <path clip-path="url(#p5bdfdd28de)" d="M 288.734394 135.869278 
L 294.291682 108.541626 
L 284.966634 106.635899 
L 278.341692 139.126935 
L 332.83426 150.244031 
L 339.465481 117.758591 
L 331.611041 116.156023 
L 326.034866 143.47982 
L 288.734394 135.869278 
" style="fill:none;stroke:#ff0000;stroke-linecap:square;stroke-width:1.5;"/>
   </g>
   <g id="line2d_24">
    <path clip-path="url(#p5bdfdd28de)" d="M 371.229947 94.632409 
L 349.248739 94.468672 
L 348.056807 93.964524 
L 347.570472 92.765214 
L 347.734209 70.784006 
L 348.238357 69.592074 
L 349.437667 69.105739 
L 371.418875 69.269477 
L 372.610807 69.773624 
L 373.097142 70.972934 
L 372.933404 92.954142 
L 372.429256 94.146074 
L 371.229947 94.632409 
" style="fill:none;stroke:#ff0000;stroke-linecap:square;stroke-width:1.5;"/>
   </g>
   <g id="line2d_25">
    <path clip-path="url(#p5bdfdd28de)" d="M 371.21183 150.124701 
L 349.230552 149.970586 
L 348.0384 149.46696 
L 347.55154 148.267863 
L 347.705654 126.286585 
L 348.20928 125.094433 
L 349.408377 124.607573 
L 371.389655 124.761688 
L 372.581807 125.265314 
L 373.068667 126.46441 
L 372.914553 148.445688 
L 372.410927 149.63784 
L 371.21183 150.124701 
" style="fill:none;stroke:#ff0000;stroke-linecap:square;stroke-width:1.5;"/>
   </g>
   <g id="line2d_26">
    <path clip-path="url(#p5bdfdd28de)" d="M 315.425216 95.35747 
L 314.216771 94.894301 
L 313.689782 93.712291 
L 313.103125 71.738302 
L 313.566294 70.529857 
L 314.748304 70.002868 
L 336.722293 69.416211 
L 337.930738 69.87938 
L 338.457727 71.061391 
L 339.044384 93.035379 
L 338.581215 94.243824 
L 337.399204 94.770813 
L 315.425216 95.35747 
" style="fill:none;stroke:#ff0000;stroke-linecap:square;stroke-width:1.5;"/>
   </g>
   <g id="line2d_27">
    <path clip-path="url(#p5bdfdd28de)" d="M 95.536197 124.486783 
L 94.306929 124.082105 
L 93.723856 122.92673 
L 92.083989 101.006165 
L 92.488667 99.776896 
L 93.644043 99.193824 
L 115.564608 97.553957 
L 116.793876 97.958635 
L 117.376949 99.11401 
L 119.016816 121.034575 
L 118.612138 122.263844 
L 117.456762 122.846916 
L 95.536197 124.486783 
" style="fill:none;stroke:#ff0000;stroke-linecap:square;stroke-width:1.5;"/>
   </g>
   <g id="line2d_28">
    <path clip-path="url(#p5bdfdd28de)" d="M 315.659863 137.825974 
L 290.047122 132.373571 
L 295.404712 107.582237 
L 297.057468 107.93941 
L 318.787651 130.678675 
L 319.671242 132.066768 
L 319.957915 133.687064 
L 319.604233 135.294064 
L 318.663782 136.644284 
L 317.279056 137.533145 
L 315.659863 137.825974 
" style="fill:none;stroke:#ff0000;stroke-linecap:square;stroke-width:1.5;"/>
   </g>
   <g id="line2d_29">
    <path clip-path="url(#p5bdfdd28de)" d="M 74.382458 167.115298 
L 72.737279 167.084847 
L 71.228361 166.428564 
L 70.084328 165.245885 
L 69.478516 163.716006 
L 69.782805 137.531114 
L 95.143698 137.904126 
L 95.118831 139.594852 
L 77.101646 165.375777 
L 75.914628 166.515306 
L 74.382458 167.115298 
" style="fill:none;stroke:#ff0000;stroke-linecap:square;stroke-width:1.5;"/>
   </g>
   <g id="line2d_30">
    <path clip-path="url(#p5bdfdd28de)" d="M 353.083328 200.016977 
L 351.437879 200.010724 
L 349.919473 199.376702 
L 348.75817 198.210976 
L 348.129925 196.690172 
L 348.049091 170.503636 
L 373.412727 170.503636 
L 373.412727 172.194545 
L 355.77664 198.237653 
L 354.606509 199.394516 
L 353.083328 200.016977 
" style="fill:none;stroke:#ff0000;stroke-linecap:square;stroke-width:1.5;"/>
   </g>
   <g id="line2d_31">
    <path clip-path="url(#p5bdfdd28de)" d="M 312.708134 171.414044 
L 305.409066 147.123354 
L 307.028445 146.636749 
L 337.045122 156.032181 
L 338.489783 156.819894 
L 339.524249 158.099511 
L 339.991782 159.677153 
L 339.821544 161.313783 
L 339.039327 162.761429 
L 337.763651 163.80075 
L 312.708134 171.414044 
" style="fill:none;stroke:#ff0000;stroke-linecap:square;stroke-width:1.5;"/>
   </g>
   <g id="line2d_32">
    <path clip-path="url(#p5bdfdd28de)" d="M 325.153616 199.443323 
L 323.514366 199.300493 
L 322.053835 198.542608 
L 320.993315 197.284498 
L 320.493489 195.71679 
L 322.586836 169.613934 
L 347.862923 171.719522 
L 347.72255 173.404595 
L 327.985344 197.893729 
L 326.723213 198.949459 
L 325.153616 199.443323 
" style="fill:none;stroke:#ff0000;stroke-linecap:square;stroke-width:1.5;"/>
   </g>
   <g id="line2d_33">
    <path clip-path="url(#p5bdfdd28de)" d="M 368.934634 227.257126 
L 342.781692 225.928665 
L 344.146588 200.601779 
L 345.835047 200.692773 
L 370.891366 219.704766 
L 371.983584 220.935455 
L 372.523176 222.489926 
L 372.428385 224.132654 
L 371.713572 225.614741 
L 370.487042 226.71163 
L 368.934634 227.257126 
" style="fill:none;stroke:#ff0000;stroke-linecap:square;stroke-width:1.5;"/>
   </g>
   <g id="line2d_34">
    <path clip-path="url(#p5bdfdd28de)" d="M 289.968378 169.456074 
L 288.993832 169.343222 
L 287.199143 168.573099 
L 286.32815 167.860691 
L 274.257712 154.425531 
L 274.182083 151.223834 
L 274.051395 144.960041 
L 300.116036 144.402378 
L 302.094992 144.758138 
L 303.781044 145.853574 
L 304.428724 146.629002 
L 305.206364 148.483196 
L 305.305577 149.488648 
L 304.90533 151.459069 
L 293.544595 168.076532 
L 291.891571 169.116475 
L 289.968378 169.456074 
" style="fill:none;stroke:#ff0000;stroke-linecap:square;stroke-width:1.5;"/>
   </g>
   <g id="line2d_35">
    <path clip-path="url(#p5bdfdd28de)" d="M 336.894505 226.185539 
L 334.96753 225.611497 
L 319.427224 212.816762 
L 318.538541 211.077735 
L 318.371471 209.131948 
L 318.570617 208.171316 
L 319.497426 206.452297 
L 320.284531 205.648171 
L 334.740735 194.821483 
L 337.936456 195.031132 
L 344.18702 195.458493 
L 342.4225 221.469317 
L 341.892008 223.408753 
L 340.650847 224.990609 
L 339.820848 225.566699 
L 337.904797 226.176213 
L 336.894505 226.185539 
" style="fill:none;stroke:#ff0000;stroke-linecap:square;stroke-width:1.5;"/>
   </g>
   <g id="line2d_36">
    <path clip-path="url(#p5bdfdd28de)" d="M 303.926467 195.921708 
L 302.972834 195.691366 
L 301.284927 194.709036 
L 300.506875 193.896148 
L 290.156974 179.094845 
L 290.470641 175.907652 
L 291.101443 169.674332 
L 317.04096 172.285448 
L 318.962081 172.878853 
L 320.502655 174.170898 
L 321.051395 175.019228 
L 321.598153 176.954121 
L 321.574555 177.964181 
L 320.938029 179.871428 
L 307.643724 194.98658 
L 305.876664 195.818127 
L 303.926467 195.921708 
" style="fill:none;stroke:#ff0000;stroke-linecap:square;stroke-width:1.5;"/>
   </g>
   <g id="line2d_37">
    <path clip-path="url(#p5bdfdd28de)" d="M 257.711368 169.616831 
L 256.742029 169.465651 
L 254.979093 168.625379 
L 254.13686 167.879191 
L 242.605418 153.978656 
L 242.656059 150.776466 
L 242.772393 144.512389 
L 268.838757 144.98263 
L 270.802151 145.416124 
L 272.44371 146.577173 
L 273.06032 147.37753 
L 273.764262 149.260937 
L 273.823763 150.269519 
L 273.346153 152.222631 
L 261.339187 168.379336 
L 259.646453 169.353308 
L 257.711368 169.616831 
" style="fill:none;stroke:#ff0000;stroke-linecap:square;stroke-width:1.5;"/>
   </g>
   <g id="line2d_38">
    <path clip-path="url(#p5bdfdd28de)" d="M 309.416424 221.518287 
L 307.496967 221.158169 
L 306.491554 220.652899 
L 291.781242 210.174077 
L 291.009071 207.065969 
L 289.515254 200.981505 
L 314.830654 194.751978 
L 316.839559 194.667517 
L 318.723953 195.36881 
L 319.525176 195.984293 
L 320.688533 197.62422 
L 321.004669 198.583821 
L 321.043853 200.5941 
L 313.581317 219.289472 
L 312.19493 220.664936 
L 310.392119 221.41585 
L 309.416424 221.518287 
" style="fill:none;stroke:#ff0000;stroke-linecap:square;stroke-width:1.5;"/>
   </g>
   <g id="line2d_39">
    <path clip-path="url(#p5bdfdd28de)" d="M 275.034629 193.556691 
L 274.055241 193.499481 
L 272.219635 192.832734 
L 271.309512 192.171047 
L 258.494085 179.444546 
L 258.236381 176.252341 
L 257.749454 170.006135 
L 283.740123 167.966126 
L 285.736117 168.208694 
L 287.481774 169.206407 
L 288.172532 169.943722 
L 289.054427 171.750658 
L 289.210696 172.748835 
L 288.923228 174.73884 
L 278.526546 191.975875 
L 276.93538 193.1082 
L 275.034629 193.556691 
" style="fill:none;stroke:#ff0000;stroke-linecap:square;stroke-width:1.5;"/>
   </g>
   <g id="line2d_40">
    <path clip-path="url(#p5bdfdd28de)" d="M 226.260114 169.170097 
L 225.287789 169.039496 
L 223.507439 168.236778 
L 222.64958 167.508609 
L 210.826107 153.855606 
L 210.808866 150.653062 
L 210.792406 144.387927 
L 236.862881 144.305584 
L 238.835022 144.697367 
L 240.500821 145.823363 
L 241.134256 146.610471 
L 241.877959 148.478535 
L 241.958824 149.485629 
L 241.522717 151.448425 
L 229.86089 167.855989 
L 228.189179 168.86562 
L 226.260114 169.170097 
" style="fill:none;stroke:#ff0000;stroke-linecap:square;stroke-width:1.5;"/>
   </g>
   <g id="line2d_41">
    <path clip-path="url(#p5bdfdd28de)" d="M 69.672292 84.267273 
L 78.126838 58.903636 
L 95.035929 84.267273 
L 69.672292 84.267273 
" style="fill:none;stroke:#ff0000;stroke-linecap:square;stroke-width:1.5;"/>
   </g>
   <g id="line2d_42">
    <path clip-path="url(#p5bdfdd28de)" d="M 261.205796 214.971365 
L 268.38797 190.645855 
L 290.319422 205.936532 
L 261.205796 214.971365 
" style="fill:none;stroke:#ff0000;stroke-linecap:square;stroke-width:1.5;"/>
   </g>
   <g id="line2d_43">
    <path clip-path="url(#p5bdfdd28de)" d="M 256.880964 174.389324 
L 226.398909 174.114219 
L 240.658007 153.138229 
L 256.880964 174.389324 
" style="fill:none;stroke:#ff0000;stroke-linecap:square;stroke-width:1.5;"/>
   </g>
   <g id="line2d_44">
    <path clip-path="url(#p5bdfdd28de)" d="M 181.158257 140.664411 
L 179.833754 115.335381 
L 205.604285 122.453888 
L 181.158257 140.664411 
" style="fill:none;stroke:#ff0000;stroke-linecap:square;stroke-width:1.5;"/>
   </g>
   <g id="line2d_45">
    <path clip-path="url(#p5bdfdd28de)" d="M 242.300919 205.349073 
L 243.660181 180.021885 
L 268.534282 189.823543 
L 242.300919 205.349073 
" style="fill:none;stroke:#ff0000;stroke-linecap:square;stroke-width:1.5;"/>
   </g>
   <g id="patch_33">
    <path d="M 54 252 
L 54 34.56 
" style="fill:none;stroke:#000000;stroke-linecap:square;stroke-linejoin:miter;stroke-width:0.8;"/>
   </g>
   <g id="patch_34">
    <path d="M 388.8 252 
L 388.8 34.56 
" style="fill:none;stroke:#000000;stroke-linecap:square;stroke-linejoin:miter;stroke-width:0.8;"/>
   </g>
   <g id="patch_35">
    <path d="M 54 252 
L 388.8 252 
" style="fill:none;stroke:#000000;stroke-linecap:square;stroke-linejoin:miter;stroke-width:0.8;"/>
   </g>
   <g id="patch_36">
    <path d="M 54 34.56 
L 388.8 34.56 
" style="fill:none;stroke:#000000;stroke-linecap:square;stroke-linejoin:miter;stroke-width:0.8;"/>
   </g>
  </g>
 </g>
 <defs>
  <clipPath id="p5bdfdd28de">
   <rect height="217.44" width="334.8" x="54" y="34.56"/>
  </clipPath>
 </defs>
</svg>
