<?xml version="1.0" encoding="utf-8" standalone="no"?>
<!DOCTYPE svg PUBLIC "-//W3C//DTD SVG 1.1//EN"
  "http://www.w3.org/Graphics/SVG/1.1/DTD/svg11.dtd">
<!-- Created with matplotlib (https://matplotlib.org/) -->
<svg height="288pt" version="1.1" viewBox="0 0 432 288" width="432pt" xmlns="http://www.w3.org/2000/svg" xmlns:xlink="http://www.w3.org/1999/xlink">
 <defs>
  <style type="text/css">
*{stroke-linecap:butt;stroke-linejoin:round;}
  </style>
 </defs>
 <g id="figure_1">
  <g id="patch_1">
   <path d="M 0 288 
L 432 288 
L 432 0 
L 0 0 
z
" style="fill:#ffffff;"/>
  </g>
  <g id="axes_1">
   <g id="patch_2">
    <path d="M 54 252 
L 388.8 252 
L 388.8 34.56 
L 54 34.56 
z
" style="fill:#ffffff;"/>
   </g>
   <g id="patch_3">
    <path clip-path="url(#p8093f6db9d)" d="M 69.218182 172.860638 
L 69.218182 227.825455 
L 174.907336 227.825455 
z
" style="fill:#aaaaaa;"/>
   </g>
   <g id="patch_4">
    <path clip-path="url(#p8093f6db9d)" d="M 105.040687 136.800432 
L 107.85789 170.606875 
L 145.608419 168.916553 
L 140.537452 132.292906 
z
" style="fill:#aaaaaa;"/>
   </g>
   <g id="patch_5">
    <path clip-path="url(#p8093f6db9d)" d="M 89.827787 58.734545 
L 88.700906 58.734545 
L 97.152516 91.725174 
L 207.412119 122.702872 
L 206.460017 144.125161 
L 276.890108 144.125161 
L 292.666448 58.734545 
L 117.436383 58.734545 
z
" style="fill:#aaaaaa;"/>
   </g>
   <g id="patch_6">
    <path clip-path="url(#p8093f6db9d)" d="M 321.105646 85.367748 
L 340.811925 65.635882 
L 334.083984 58.903636 
L 310.639615 82.353984 
L 349.966205 121.678901 
L 373.412727 98.236684 
L 367.744374 92.568331 
L 348.024465 112.286566 
z
" style="fill:#f6929c;"/>
   </g>
   <g id="patch_7">
    <path clip-path="url(#p8093f6db9d)" d="M 295.007411 106.371996 
L 314.71369 86.64013 
L 307.985749 79.907885 
L 284.54138 103.358233 
L 323.86797 142.683149 
L 347.314492 119.240932 
L 341.646139 113.572579 
L 321.926229 133.290815 
z
" style="fill:#f6929c;"/>
   </g>
   <g id="patch_8">
    <path clip-path="url(#p8093f6db9d)" d="M 337.101574 174.087164 
L 317.369708 154.380885 
L 310.637462 161.108826 
L 334.08781 184.553196 
L 373.412727 145.226605 
L 349.97051 121.780083 
L 344.302157 127.448436 
L 364.020392 147.168346 
z
" style="fill:#f6929c;"/>
   </g>
   <g id="patch_9">
    <path clip-path="url(#p8093f6db9d)" d="M 306.551408 164.929212 
L 326.257687 145.197346 
L 319.529746 138.465101 
L 296.085376 161.915449 
L 335.411967 201.240366 
L 358.858489 177.798148 
L 353.190136 172.129795 
L 333.470226 191.848031 
z
" style="fill:#f6929c;"/>
   </g>
   <g id="patch_10">
    <path clip-path="url(#p8093f6db9d)" d="M 282.953795 167.216166 
L 263.221929 147.509886 
L 256.489683 154.237827 
L 279.940031 177.682197 
L 319.264948 138.355606 
L 295.822731 114.909084 
L 290.154377 120.577437 
L 309.872613 140.297347 
z
" style="fill:#f6929c;"/>
   </g>
   <g id="patch_11">
    <path clip-path="url(#p8093f6db9d)" d="M 349.74 84.267273 
L 348.544346 83.772017 
L 348.049091 82.576364 
L 348.049091 60.594545 
L 348.544346 59.398892 
L 349.74 58.903636 
L 371.721818 58.903636 
L 372.917472 59.398892 
L 373.412727 60.594545 
L 373.412727 82.576364 
L 372.917472 83.772017 
L 371.721818 84.267273 
z
" style="fill:#f6929c;"/>
   </g>
   <g id="patch_12">
    <path clip-path="url(#p8093f6db9d)" d="M 314.822727 121.621858 
L 313.627074 121.126602 
L 298.083581 105.583109 
L 297.588325 104.387456 
L 298.083581 103.191802 
L 313.627074 87.64831 
L 314.822727 87.153053 
L 316.018381 87.64831 
L 331.561873 103.191802 
L 332.05713 104.387456 
L 331.561873 105.583109 
L 316.018381 121.126602 
z
" style="fill:#f6929c;"/>
   </g>
   <g id="patch_13">
    <path clip-path="url(#p8093f6db9d)" d="M 343.155249 161.417236 
L 341.959595 160.92198 
L 326.416103 145.378487 
L 325.920846 144.182834 
L 326.416103 142.987181 
L 341.959595 127.443688 
L 343.155249 126.948432 
L 344.350902 127.443688 
L 359.894395 142.987181 
L 360.389651 144.182834 
L 359.894395 145.378487 
L 344.350902 160.92198 
z
" style="fill:#f6929c;"/>
   </g>
   <g id="patch_14">
    <path clip-path="url(#p8093f6db9d)" d="M 356.178325 215.538988 
L 354.982672 215.043731 
L 339.439179 199.500238 
L 338.943923 198.304585 
L 339.439179 197.108932 
L 354.982672 181.565439 
L 356.178325 181.070183 
L 357.373978 181.565439 
L 372.917471 197.108932 
L 373.412727 198.304585 
L 372.917471 199.500238 
L 357.373978 215.043731 
z
" style="fill:#f6929c;"/>
   </g>
   <g id="patch_15">
    <path clip-path="url(#p8093f6db9d)" d="M 347.056779 100.595967 
L 345.411321 100.592839 
L 343.891714 99.961705 
L 325.317878 81.502186 
L 343.252678 63.567387 
L 344.448331 64.76304 
L 350.392992 95.648895 
L 350.38361 97.294328 
L 349.746705 98.811526 
L 348.578775 99.970613 
z
" style="fill:#f6929c;"/>
   </g>
   <g id="patch_16">
    <path clip-path="url(#p8093f6db9d)" d="M 298.275358 88.416977 
L 296.629909 88.410724 
L 295.111503 87.776702 
L 293.950201 86.610976 
L 293.321955 85.090172 
L 293.241121 58.903636 
L 318.604758 58.903636 
L 318.604758 60.594545 
L 300.968671 86.637653 
L 299.798539 87.794516 
z
" style="fill:#f6929c;"/>
   </g>
   <g id="patch_17">
    <path clip-path="url(#p8093f6db9d)" d="M 288.391234 154.901781 
L 287.19558 153.706128 
L 281.250919 122.820273 
L 281.260301 121.17484 
L 281.897207 119.657642 
L 283.065136 118.498555 
L 284.587132 117.873201 
L 286.232591 117.876329 
L 287.752198 118.507463 
L 306.326033 136.966982 
z
" style="fill:#f6929c;"/>
   </g>
   <g id="patch_18">
    <path clip-path="url(#p8093f6db9d)" d="M 334.26218 227.656364 
L 334.26218 202.292727 
L 335.953089 202.292727 
L 361.996197 219.928814 
L 363.153059 221.098945 
L 363.77552 222.622127 
L 363.769267 224.267576 
L 363.135245 225.785981 
L 361.969519 226.947284 
L 360.448715 227.57553 
z
" style="fill:#f6929c;"/>
   </g>
   <g id="patch_19">
    <path clip-path="url(#p8093f6db9d)" d="M 290.811556 192.348415 
L 290.811556 166.984779 
L 292.502465 166.984779 
L 318.545573 184.620866 
L 319.702435 185.790997 
L 320.324896 187.314178 
L 320.318643 188.959627 
L 319.684621 190.478033 
L 318.518895 191.639336 
L 316.998091 192.267581 
z
" style="fill:#f6929c;"/>
   </g>
   <g id="patch_20">
    <path clip-path="url(#p8093f6db9d)" d="M 325.923454 225.246539 
L 324.277996 225.243411 
L 322.758389 224.612278 
L 304.184554 206.152759 
L 322.119353 188.217959 
L 323.315006 189.413613 
L 329.259668 220.299468 
L 329.250285 221.944901 
L 328.61338 223.462099 
L 327.44545 224.621185 
z
" style="fill:#f6929c;"/>
   </g>
   <g id="patch_21">
    <path clip-path="url(#p8093f6db9d)" d="M 141.442692 132.291864 
L 139.47178 131.893944 
L 137.809495 130.762768 
L 137.178513 129.973692 
L 136.440629 128.103321 
L 136.3629 127.095981 
L 136.805115 125.134552 
L 148.517963 108.763371 
L 150.192808 107.758949 
L 152.122812 107.460478 
L 153.094726 107.594106 
L 154.872568 108.402362 
L 155.728156 109.133198 
L 167.50907 122.822942 
L 167.516341 126.025524 
L 167.513297 132.29068 
z
" style="fill:#f6929c;"/>
   </g>
   <g id="patch_22">
    <path clip-path="url(#p8093f6db9d)" d="M 130.934418 129.358557 
L 129.962504 129.224929 
L 128.184662 128.416673 
L 127.329074 127.685837 
L 115.54816 113.996093 
L 115.540889 110.793511 
L 115.543933 104.528355 
L 141.614538 104.527171 
L 143.58545 104.925091 
L 145.247735 106.056267 
L 145.878717 106.845343 
L 146.616601 108.715714 
L 146.69433 109.723054 
L 146.252115 111.684483 
L 134.539267 128.055664 
L 132.864422 129.060086 
z
" style="fill:#f6929c;"/>
   </g>
   <g id="patch_23">
    <path clip-path="url(#p8093f6db9d)" d="M 100.946763 120.941776 
L 99.974848 120.808149 
L 98.197006 119.999892 
L 97.341418 119.269056 
L 85.560505 105.579312 
L 85.553234 102.376731 
L 85.556277 96.111574 
L 111.626883 96.110391 
L 113.597795 96.508311 
L 115.26008 97.639486 
L 115.891061 98.428563 
L 116.628945 100.298933 
L 116.706675 101.306274 
L 116.26446 103.267703 
L 104.551612 119.638883 
L 102.876766 120.643305 
z
" style="fill:#f6929c;"/>
   </g>
   <g id="patch_24">
    <path clip-path="url(#p8093f6db9d)" d="M 75.653613 97.239415 
L 69.388456 97.236372 
L 69.387273 71.165766 
L 69.785193 69.194854 
L 70.916369 67.532569 
L 71.705445 66.901588 
L 73.575815 66.163704 
L 74.583156 66.085974 
L 76.544585 66.528189 
L 92.915765 78.241037 
L 93.920187 79.915882 
L 94.218658 81.845886 
L 94.085031 82.8178 
L 93.276775 84.595642 
L 92.545938 85.451231 
L 78.856195 97.232144 
z
" style="fill:#f6929c;"/>
   </g>
   <g id="patch_25">
    <path clip-path="url(#p8093f6db9d)" d="M 74.224142 129.49355 
L 72.329614 129.019489 
L 70.753845 127.865822 
L 70.161086 127.084085 
L 69.475486 125.255438 
L 69.387273 124.133666 
L 70.737019 106.123192 
L 72.996445 103.853483 
L 77.428732 99.425501 
L 95.864271 117.859366 
L 96.976544 119.534383 
L 97.352095 121.509658 
L 97.240305 122.51379 
L 96.439517 124.358105 
L 95.782182 125.125365 
L 94.082549 126.199612 
z
" style="fill:#f6929c;"/>
   </g>
   <g id="patch_26">
    <path clip-path="url(#p8093f6db9d)" d="M 99.870247 156.631583 
L 97.908817 156.189368 
L 81.537637 144.47652 
L 80.533215 142.801675 
L 80.234744 140.871671 
L 80.368371 139.899757 
L 81.176628 138.121915 
L 81.907464 137.266327 
L 95.597208 125.485413 
L 98.799789 125.478142 
L 105.064946 125.481186 
L 105.066129 151.551791 
L 104.66821 153.522703 
L 103.537034 155.184988 
L 102.747957 155.81597 
L 100.877587 156.553854 
z
" style="fill:#f6929c;"/>
   </g>
   <g id="patch_27">
    <path clip-path="url(#p8093f6db9d)" d="M 288.167409 219.868474 
L 287.163277 219.756684 
L 285.318963 218.955895 
L 284.551702 218.298561 
L 283.477456 216.598928 
L 280.183517 196.740521 
L 280.657578 194.845993 
L 281.811246 193.270223 
L 282.592982 192.677465 
L 284.42163 191.991864 
L 285.543401 191.903651 
L 303.553876 193.253398 
L 305.823584 195.512824 
L 310.251567 199.945111 
L 291.817702 218.38065 
L 290.142685 219.492923 
z
" style="fill:#f6929c;"/>
   </g>
   <g id="patch_28">
    <path clip-path="url(#p8093f6db9d)" d="M 88.831892 175.998759 
L 76.875359 152.085693 
L 106.766691 158.06396 
z
" style="fill:#f6929c;"/>
   </g>
   <g id="patch_29">
    <path clip-path="url(#p8093f6db9d)" d="M 241.249188 169.638615 
L 249.703733 144.274979 
L 266.612824 169.638615 
z
" style="fill:#f6929c;"/>
   </g>
   <g id="patch_30">
    <path clip-path="url(#p8093f6db9d)" d="M 272.710447 197.860652 
L 260.753914 173.947586 
L 290.645246 179.925852 
z
" style="fill:#f6929c;"/>
   </g>
   <g id="patch_31">
    <path clip-path="url(#p8093f6db9d)" d="M 241.005637 169.658182 
L 224.096546 144.294545 
L 249.460182 144.294545 
z
" style="fill:#f6929c;"/>
   </g>
   <g id="patch_32">
    <path clip-path="url(#p8093f6db9d)" d="M 245.917064 195.078821 
L 254.37161 169.715185 
L 271.280701 195.078821 
z
" style="fill:#f6929c;"/>
   </g>
   <g id="matplotlib.axis_1">
    <g id="xtick_1">
     <g id="line2d_1">
      <defs>
       <path d="M 0 0 
L 0 3.5 
" id="m16a34eb765" style="stroke:#000000;stroke-width:0.8;"/>
      </defs>
      <g>
       <use style="stroke:#000000;stroke-width:0.8;" x="69.218182" xlink:href="#m16a34eb765" y="252"/>
      </g>
     </g>
     <g id="text_1">
      <!-- 0 -->
      <defs>
       <path d="M 31.78125 66.40625 
Q 24.171875 66.40625 20.328125 58.90625 
Q 16.5 51.421875 16.5 36.375 
Q 16.5 21.390625 20.328125 13.890625 
Q 24.171875 6.390625 31.78125 6.390625 
Q 39.453125 6.390625 43.28125 13.890625 
Q 47.125 21.390625 47.125 36.375 
Q 47.125 51.421875 43.28125 58.90625 
Q 39.453125 66.40625 31.78125 66.40625 
z
M 31.78125 74.21875 
Q 44.046875 74.21875 50.515625 64.515625 
Q 56.984375 54.828125 56.984375 36.375 
Q 56.984375 17.96875 50.515625 8.265625 
Q 44.046875 -1.421875 31.78125 -1.421875 
Q 19.53125 -1.421875 13.0625 8.265625 
Q 6.59375 17.96875 6.59375 36.375 
Q 6.59375 54.828125 13.0625 64.515625 
Q 19.53125 74.21875 31.78125 74.21875 
z
" id="DejaVuSans-48"/>
      </defs>
      <g transform="translate(66.036932 266.598437)scale(0.1 -0.1)">
       <use xlink:href="#DejaVuSans-48"/>
      </g>
     </g>
    </g>
    <g id="xtick_2">
     <g id="line2d_2">
      <g>
       <use style="stroke:#000000;stroke-width:0.8;" x="111.490909" xlink:href="#m16a34eb765" y="252"/>
      </g>
     </g>
     <g id="text_2">
      <!-- 250 -->
      <defs>
       <path d="M 19.1875 8.296875 
L 53.609375 8.296875 
L 53.609375 0 
L 7.328125 0 
L 7.328125 8.296875 
Q 12.9375 14.109375 22.625 23.890625 
Q 32.328125 33.6875 34.8125 36.53125 
Q 39.546875 41.84375 41.421875 45.53125 
Q 43.3125 49.21875 43.3125 52.78125 
Q 43.3125 58.59375 39.234375 62.25 
Q 35.15625 65.921875 28.609375 65.921875 
Q 23.96875 65.921875 18.8125 64.3125 
Q 13.671875 62.703125 7.8125 59.421875 
L 7.8125 69.390625 
Q 13.765625 71.78125 18.9375 73 
Q 24.125 74.21875 28.421875 74.21875 
Q 39.75 74.21875 46.484375 68.546875 
Q 53.21875 62.890625 53.21875 53.421875 
Q 53.21875 48.921875 51.53125 44.890625 
Q 49.859375 40.875 45.40625 35.40625 
Q 44.1875 33.984375 37.640625 27.21875 
Q 31.109375 20.453125 19.1875 8.296875 
z
" id="DejaVuSans-50"/>
       <path d="M 10.796875 72.90625 
L 49.515625 72.90625 
L 49.515625 64.59375 
L 19.828125 64.59375 
L 19.828125 46.734375 
Q 21.96875 47.46875 24.109375 47.828125 
Q 26.265625 48.1875 28.421875 48.1875 
Q 40.625 48.1875 47.75 41.5 
Q 54.890625 34.8125 54.890625 23.390625 
Q 54.890625 11.625 47.5625 5.09375 
Q 40.234375 -1.421875 26.90625 -1.421875 
Q 22.3125 -1.421875 17.546875 -0.640625 
Q 12.796875 0.140625 7.71875 1.703125 
L 7.71875 11.625 
Q 12.109375 9.234375 16.796875 8.0625 
Q 21.484375 6.890625 26.703125 6.890625 
Q 35.15625 6.890625 40.078125 11.328125 
Q 45.015625 15.765625 45.015625 23.390625 
Q 45.015625 31 40.078125 35.4375 
Q 35.15625 39.890625 26.703125 39.890625 
Q 22.75 39.890625 18.8125 39.015625 
Q 14.890625 38.140625 10.796875 36.28125 
z
" id="DejaVuSans-53"/>
      </defs>
      <g transform="translate(101.947159 266.598437)scale(0.1 -0.1)">
       <use xlink:href="#DejaVuSans-50"/>
       <use x="63.623047" xlink:href="#DejaVuSans-53"/>
       <use x="127.246094" xlink:href="#DejaVuSans-48"/>
      </g>
     </g>
    </g>
    <g id="xtick_3">
     <g id="line2d_3">
      <g>
       <use style="stroke:#000000;stroke-width:0.8;" x="153.763636" xlink:href="#m16a34eb765" y="252"/>
      </g>
     </g>
     <g id="text_3">
      <!-- 500 -->
      <g transform="translate(144.219886 266.598437)scale(0.1 -0.1)">
       <use xlink:href="#DejaVuSans-53"/>
       <use x="63.623047" xlink:href="#DejaVuSans-48"/>
       <use x="127.246094" xlink:href="#DejaVuSans-48"/>
      </g>
     </g>
    </g>
    <g id="xtick_4">
     <g id="line2d_4">
      <g>
       <use style="stroke:#000000;stroke-width:0.8;" x="196.036364" xlink:href="#m16a34eb765" y="252"/>
      </g>
     </g>
     <g id="text_4">
      <!-- 750 -->
      <defs>
       <path d="M 8.203125 72.90625 
L 55.078125 72.90625 
L 55.078125 68.703125 
L 28.609375 0 
L 18.3125 0 
L 43.21875 64.59375 
L 8.203125 64.59375 
z
" id="DejaVuSans-55"/>
      </defs>
      <g transform="translate(186.492614 266.598437)scale(0.1 -0.1)">
       <use xlink:href="#DejaVuSans-55"/>
       <use x="63.623047" xlink:href="#DejaVuSans-53"/>
       <use x="127.246094" xlink:href="#DejaVuSans-48"/>
      </g>
     </g>
    </g>
    <g id="xtick_5">
     <g id="line2d_5">
      <g>
       <use style="stroke:#000000;stroke-width:0.8;" x="238.309091" xlink:href="#m16a34eb765" y="252"/>
      </g>
     </g>
     <g id="text_5">
      <!-- 1000 -->
      <defs>
       <path d="M 12.40625 8.296875 
L 28.515625 8.296875 
L 28.515625 63.921875 
L 10.984375 60.40625 
L 10.984375 69.390625 
L 28.421875 72.90625 
L 38.28125 72.90625 
L 38.28125 8.296875 
L 54.390625 8.296875 
L 54.390625 0 
L 12.40625 0 
z
" id="DejaVuSans-49"/>
      </defs>
      <g transform="translate(225.584091 266.598437)scale(0.1 -0.1)">
       <use xlink:href="#DejaVuSans-49"/>
       <use x="63.623047" xlink:href="#DejaVuSans-48"/>
       <use x="127.246094" xlink:href="#DejaVuSans-48"/>
       <use x="190.869141" xlink:href="#DejaVuSans-48"/>
      </g>
     </g>
    </g>
    <g id="xtick_6">
     <g id="line2d_6">
      <g>
       <use style="stroke:#000000;stroke-width:0.8;" x="280.581818" xlink:href="#m16a34eb765" y="252"/>
      </g>
     </g>
     <g id="text_6">
      <!-- 1250 -->
      <g transform="translate(267.856818 266.598437)scale(0.1 -0.1)">
       <use xlink:href="#DejaVuSans-49"/>
       <use x="63.623047" xlink:href="#DejaVuSans-50"/>
       <use x="127.246094" xlink:href="#DejaVuSans-53"/>
       <use x="190.869141" xlink:href="#DejaVuSans-48"/>
      </g>
     </g>
    </g>
    <g id="xtick_7">
     <g id="line2d_7">
      <g>
       <use style="stroke:#000000;stroke-width:0.8;" x="322.854545" xlink:href="#m16a34eb765" y="252"/>
      </g>
     </g>
     <g id="text_7">
      <!-- 1500 -->
      <g transform="translate(310.129545 266.598437)scale(0.1 -0.1)">
       <use xlink:href="#DejaVuSans-49"/>
       <use x="63.623047" xlink:href="#DejaVuSans-53"/>
       <use x="127.246094" xlink:href="#DejaVuSans-48"/>
       <use x="190.869141" xlink:href="#DejaVuSans-48"/>
      </g>
     </g>
    </g>
    <g id="xtick_8">
     <g id="line2d_8">
      <g>
       <use style="stroke:#000000;stroke-width:0.8;" x="365.127273" xlink:href="#m16a34eb765" y="252"/>
      </g>
     </g>
     <g id="text_8">
      <!-- 1750 -->
      <g transform="translate(352.402273 266.598437)scale(0.1 -0.1)">
       <use xlink:href="#DejaVuSans-49"/>
       <use x="63.623047" xlink:href="#DejaVuSans-55"/>
       <use x="127.246094" xlink:href="#DejaVuSans-53"/>
       <use x="190.869141" xlink:href="#DejaVuSans-48"/>
      </g>
     </g>
    </g>
   </g>
   <g id="matplotlib.axis_2">
    <g id="ytick_1">
     <g id="line2d_9">
      <defs>
       <path d="M 0 0 
L -3.5 0 
" id="ma5db2d7ff4" style="stroke:#000000;stroke-width:0.8;"/>
      </defs>
      <g>
       <use style="stroke:#000000;stroke-width:0.8;" x="54" xlink:href="#ma5db2d7ff4" y="227.825455"/>
      </g>
     </g>
     <g id="text_9">
      <!-- 0 -->
      <g transform="translate(40.6375 231.624673)scale(0.1 -0.1)">
       <use xlink:href="#DejaVuSans-48"/>
      </g>
     </g>
    </g>
    <g id="ytick_2">
     <g id="line2d_10">
      <g>
       <use style="stroke:#000000;stroke-width:0.8;" x="54" xlink:href="#ma5db2d7ff4" y="194.007273"/>
      </g>
     </g>
     <g id="text_10">
      <!-- 200 -->
      <g transform="translate(27.9125 197.806491)scale(0.1 -0.1)">
       <use xlink:href="#DejaVuSans-50"/>
       <use x="63.623047" xlink:href="#DejaVuSans-48"/>
       <use x="127.246094" xlink:href="#DejaVuSans-48"/>
      </g>
     </g>
    </g>
    <g id="ytick_3">
     <g id="line2d_11">
      <g>
       <use style="stroke:#000000;stroke-width:0.8;" x="54" xlink:href="#ma5db2d7ff4" y="160.189091"/>
      </g>
     </g>
     <g id="text_11">
      <!-- 400 -->
      <defs>
       <path d="M 37.796875 64.3125 
L 12.890625 25.390625 
L 37.796875 25.390625 
z
M 35.203125 72.90625 
L 47.609375 72.90625 
L 47.609375 25.390625 
L 58.015625 25.390625 
L 58.015625 17.1875 
L 47.609375 17.1875 
L 47.609375 0 
L 37.796875 0 
L 37.796875 17.1875 
L 4.890625 17.1875 
L 4.890625 26.703125 
z
" id="DejaVuSans-52"/>
      </defs>
      <g transform="translate(27.9125 163.98831)scale(0.1 -0.1)">
       <use xlink:href="#DejaVuSans-52"/>
       <use x="63.623047" xlink:href="#DejaVuSans-48"/>
       <use x="127.246094" xlink:href="#DejaVuSans-48"/>
      </g>
     </g>
    </g>
    <g id="ytick_4">
     <g id="line2d_12">
      <g>
       <use style="stroke:#000000;stroke-width:0.8;" x="54" xlink:href="#ma5db2d7ff4" y="126.370909"/>
      </g>
     </g>
     <g id="text_12">
      <!-- 600 -->
      <defs>
       <path d="M 33.015625 40.375 
Q 26.375 40.375 22.484375 35.828125 
Q 18.609375 31.296875 18.609375 23.390625 
Q 18.609375 15.53125 22.484375 10.953125 
Q 26.375 6.390625 33.015625 6.390625 
Q 39.65625 6.390625 43.53125 10.953125 
Q 47.40625 15.53125 47.40625 23.390625 
Q 47.40625 31.296875 43.53125 35.828125 
Q 39.65625 40.375 33.015625 40.375 
z
M 52.59375 71.296875 
L 52.59375 62.3125 
Q 48.875 64.0625 45.09375 64.984375 
Q 41.3125 65.921875 37.59375 65.921875 
Q 27.828125 65.921875 22.671875 59.328125 
Q 17.53125 52.734375 16.796875 39.40625 
Q 19.671875 43.65625 24.015625 45.921875 
Q 28.375 48.1875 33.59375 48.1875 
Q 44.578125 48.1875 50.953125 41.515625 
Q 57.328125 34.859375 57.328125 23.390625 
Q 57.328125 12.15625 50.6875 5.359375 
Q 44.046875 -1.421875 33.015625 -1.421875 
Q 20.359375 -1.421875 13.671875 8.265625 
Q 6.984375 17.96875 6.984375 36.375 
Q 6.984375 53.65625 15.1875 63.9375 
Q 23.390625 74.21875 37.203125 74.21875 
Q 40.921875 74.21875 44.703125 73.484375 
Q 48.484375 72.75 52.59375 71.296875 
z
" id="DejaVuSans-54"/>
      </defs>
      <g transform="translate(27.9125 130.170128)scale(0.1 -0.1)">
       <use xlink:href="#DejaVuSans-54"/>
       <use x="63.623047" xlink:href="#DejaVuSans-48"/>
       <use x="127.246094" xlink:href="#DejaVuSans-48"/>
      </g>
     </g>
    </g>
    <g id="ytick_5">
     <g id="line2d_13">
      <g>
       <use style="stroke:#000000;stroke-width:0.8;" x="54" xlink:href="#ma5db2d7ff4" y="92.552727"/>
      </g>
     </g>
     <g id="text_13">
      <!-- 800 -->
      <defs>
       <path d="M 31.78125 34.625 
Q 24.75 34.625 20.71875 30.859375 
Q 16.703125 27.09375 16.703125 20.515625 
Q 16.703125 13.921875 20.71875 10.15625 
Q 24.75 6.390625 31.78125 6.390625 
Q 38.8125 6.390625 42.859375 10.171875 
Q 46.921875 13.96875 46.921875 20.515625 
Q 46.921875 27.09375 42.890625 30.859375 
Q 38.875 34.625 31.78125 34.625 
z
M 21.921875 38.8125 
Q 15.578125 40.375 12.03125 44.71875 
Q 8.5 49.078125 8.5 55.328125 
Q 8.5 64.0625 14.71875 69.140625 
Q 20.953125 74.21875 31.78125 74.21875 
Q 42.671875 74.21875 48.875 69.140625 
Q 55.078125 64.0625 55.078125 55.328125 
Q 55.078125 49.078125 51.53125 44.71875 
Q 48 40.375 41.703125 38.8125 
Q 48.828125 37.15625 52.796875 32.3125 
Q 56.78125 27.484375 56.78125 20.515625 
Q 56.78125 9.90625 50.3125 4.234375 
Q 43.84375 -1.421875 31.78125 -1.421875 
Q 19.734375 -1.421875 13.25 4.234375 
Q 6.78125 9.90625 6.78125 20.515625 
Q 6.78125 27.484375 10.78125 32.3125 
Q 14.796875 37.15625 21.921875 38.8125 
z
M 18.3125 54.390625 
Q 18.3125 48.734375 21.84375 45.5625 
Q 25.390625 42.390625 31.78125 42.390625 
Q 38.140625 42.390625 41.71875 45.5625 
Q 45.3125 48.734375 45.3125 54.390625 
Q 45.3125 60.0625 41.71875 63.234375 
Q 38.140625 66.40625 31.78125 66.40625 
Q 25.390625 66.40625 21.84375 63.234375 
Q 18.3125 60.0625 18.3125 54.390625 
z
" id="DejaVuSans-56"/>
      </defs>
      <g transform="translate(27.9125 96.351946)scale(0.1 -0.1)">
       <use xlink:href="#DejaVuSans-56"/>
       <use x="63.623047" xlink:href="#DejaVuSans-48"/>
       <use x="127.246094" xlink:href="#DejaVuSans-48"/>
      </g>
     </g>
    </g>
    <g id="ytick_6">
     <g id="line2d_14">
      <g>
       <use style="stroke:#000000;stroke-width:0.8;" x="54" xlink:href="#ma5db2d7ff4" y="58.734545"/>
      </g>
     </g>
     <g id="text_14">
      <!-- 1000 -->
      <g transform="translate(21.55 62.533764)scale(0.1 -0.1)">
       <use xlink:href="#DejaVuSans-49"/>
       <use x="63.623047" xlink:href="#DejaVuSans-48"/>
       <use x="127.246094" xlink:href="#DejaVuSans-48"/>
       <use x="190.869141" xlink:href="#DejaVuSans-48"/>
      </g>
     </g>
    </g>
   </g>
   <g id="line2d_15">
    <path clip-path="url(#p8093f6db9d)" d="M 69.218182 227.825455 
L 373.581818 227.825455 
L 373.581818 58.734545 
L 69.218182 58.734545 
L 69.218182 227.825455 
" style="fill:none;stroke:#000000;stroke-linecap:square;stroke-width:1.5;"/>
   </g>
   <g id="line2d_16">
    <path clip-path="url(#p8093f6db9d)" d="M 69.218182 172.860638 
L 69.218182 227.825455 
L 174.907336 227.825455 
L 69.218182 172.860638 
" style="fill:none;stroke:#000000;stroke-dasharray:5.55,2.4;stroke-dashoffset:0;stroke-width:1.5;"/>
   </g>
   <g id="line2d_17">
    <path clip-path="url(#p8093f6db9d)" d="M 105.040687 136.800432 
L 107.85789 170.606875 
L 145.608419 168.916553 
L 140.537452 132.292906 
L 105.040687 136.800432 
" style="fill:none;stroke:#000000;stroke-dasharray:5.55,2.4;stroke-dashoffset:0;stroke-width:1.5;"/>
   </g>
   <g id="line2d_18">
    <path clip-path="url(#p8093f6db9d)" d="M 89.827787 58.734545 
L 88.700906 58.734545 
L 97.152516 91.725174 
L 207.412119 122.702872 
L 206.460017 144.125161 
L 276.890108 144.125161 
L 292.666448 58.734545 
L 117.436383 58.734545 
L 89.827787 58.734545 
" style="fill:none;stroke:#000000;stroke-dasharray:5.55,2.4;stroke-dashoffset:0;stroke-width:1.5;"/>
   </g>
   <g id="line2d_19">
    <path clip-path="url(#p8093f6db9d)" d="M 321.105646 85.367748 
L 340.811925 65.635882 
L 334.083984 58.903636 
L 310.639615 82.353984 
L 349.966205 121.678901 
L 373.412727 98.236684 
L 367.744374 92.568331 
L 348.024465 112.286566 
L 321.105646 85.367748 
" style="fill:none;stroke:#ff0000;stroke-linecap:square;stroke-width:1.5;"/>
   </g>
   <g id="line2d_20">
    <path clip-path="url(#p8093f6db9d)" d="M 295.007411 106.371996 
L 314.71369 86.64013 
L 307.985749 79.907885 
L 284.54138 103.358233 
L 323.86797 142.683149 
L 347.314492 119.240932 
L 341.646139 113.572579 
L 321.926229 133.290815 
L 295.007411 106.371996 
" style="fill:none;stroke:#ff0000;stroke-linecap:square;stroke-width:1.5;"/>
   </g>
   <g id="line2d_21">
    <path clip-path="url(#p8093f6db9d)" d="M 337.101574 174.087164 
L 317.369708 154.380885 
L 310.637462 161.108826 
L 334.08781 184.553196 
L 373.412727 145.226605 
L 349.97051 121.780083 
L 344.302157 127.448436 
L 364.020392 147.168346 
L 337.101574 174.087164 
" style="fill:none;stroke:#ff0000;stroke-linecap:square;stroke-width:1.5;"/>
   </g>
   <g id="line2d_22">
    <path clip-path="url(#p8093f6db9d)" d="M 306.551408 164.929212 
L 326.257687 145.197346 
L 319.529746 138.465101 
L 296.085376 161.915449 
L 335.411967 201.240366 
L 358.858489 177.798148 
L 353.190136 172.129795 
L 333.470226 191.848031 
L 306.551408 164.929212 
" style="fill:none;stroke:#ff0000;stroke-linecap:square;stroke-width:1.5;"/>
   </g>
   <g id="line2d_23">
    <path clip-path="url(#p8093f6db9d)" d="M 282.953795 167.216166 
L 263.221929 147.509886 
L 256.489683 154.237827 
L 279.940031 177.682197 
L 319.264948 138.355606 
L 295.822731 114.909084 
L 290.154377 120.577437 
L 309.872613 140.297347 
L 282.953795 167.216166 
" style="fill:none;stroke:#ff0000;stroke-linecap:square;stroke-width:1.5;"/>
   </g>
   <g id="line2d_24">
    <path clip-path="url(#p8093f6db9d)" d="M 349.74 84.267273 
L 348.544346 83.772017 
L 348.049091 82.576364 
L 348.049091 60.594545 
L 348.544346 59.398892 
L 349.74 58.903636 
L 371.721818 58.903636 
L 372.917472 59.398892 
L 373.412727 60.594545 
L 373.412727 82.576364 
L 372.917472 83.772017 
L 371.721818 84.267273 
L 349.74 84.267273 
" style="fill:none;stroke:#ff0000;stroke-linecap:square;stroke-width:1.5;"/>
   </g>
   <g id="line2d_25">
    <path clip-path="url(#p8093f6db9d)" d="M 314.822727 121.621858 
L 313.627074 121.126602 
L 298.083581 105.583109 
L 297.588325 104.387456 
L 298.083581 103.191802 
L 313.627074 87.64831 
L 314.822727 87.153053 
L 316.018381 87.64831 
L 331.561873 103.191802 
L 332.05713 104.387456 
L 331.561873 105.583109 
L 316.018381 121.126602 
L 314.822727 121.621858 
" style="fill:none;stroke:#ff0000;stroke-linecap:square;stroke-width:1.5;"/>
   </g>
   <g id="line2d_26">
    <path clip-path="url(#p8093f6db9d)" d="M 343.155249 161.417236 
L 341.959595 160.92198 
L 326.416103 145.378487 
L 325.920846 144.182834 
L 326.416103 142.987181 
L 341.959595 127.443688 
L 343.155249 126.948432 
L 344.350902 127.443688 
L 359.894395 142.987181 
L 360.389651 144.182834 
L 359.894395 145.378487 
L 344.350902 160.92198 
L 343.155249 161.417236 
" style="fill:none;stroke:#ff0000;stroke-linecap:square;stroke-width:1.5;"/>
   </g>
   <g id="line2d_27">
    <path clip-path="url(#p8093f6db9d)" d="M 356.178325 215.538988 
L 354.982672 215.043731 
L 339.439179 199.500238 
L 338.943923 198.304585 
L 339.439179 197.108932 
L 354.982672 181.565439 
L 356.178325 181.070183 
L 357.373978 181.565439 
L 372.917471 197.108932 
L 373.412727 198.304585 
L 372.917471 199.500238 
L 357.373978 215.043731 
L 356.178325 215.538988 
" style="fill:none;stroke:#ff0000;stroke-linecap:square;stroke-width:1.5;"/>
   </g>
   <g id="line2d_28">
    <path clip-path="url(#p8093f6db9d)" d="M 347.056779 100.595967 
L 345.411321 100.592839 
L 343.891714 99.961705 
L 325.317878 81.502186 
L 343.252678 63.567387 
L 344.448331 64.76304 
L 350.392992 95.648895 
L 350.38361 97.294328 
L 349.746705 98.811526 
L 348.578775 99.970613 
L 347.056779 100.595967 
" style="fill:none;stroke:#ff0000;stroke-linecap:square;stroke-width:1.5;"/>
   </g>
   <g id="line2d_29">
    <path clip-path="url(#p8093f6db9d)" d="M 298.275358 88.416977 
L 296.629909 88.410724 
L 295.111503 87.776702 
L 293.950201 86.610976 
L 293.321955 85.090172 
L 293.241121 58.903636 
L 318.604758 58.903636 
L 318.604758 60.594545 
L 300.968671 86.637653 
L 299.798539 87.794516 
L 298.275358 88.416977 
" style="fill:none;stroke:#ff0000;stroke-linecap:square;stroke-width:1.5;"/>
   </g>
   <g id="line2d_30">
    <path clip-path="url(#p8093f6db9d)" d="M 288.391234 154.901781 
L 287.19558 153.706128 
L 281.250919 122.820273 
L 281.260301 121.17484 
L 281.897207 119.657642 
L 283.065136 118.498555 
L 284.587132 117.873201 
L 286.232591 117.876329 
L 287.752198 118.507463 
L 306.326033 136.966982 
L 288.391234 154.901781 
" style="fill:none;stroke:#ff0000;stroke-linecap:square;stroke-width:1.5;"/>
   </g>
   <g id="line2d_31">
    <path clip-path="url(#p8093f6db9d)" d="M 334.26218 227.656364 
L 334.26218 202.292727 
L 335.953089 202.292727 
L 361.996197 219.928814 
L 363.153059 221.098945 
L 363.77552 222.622127 
L 363.769267 224.267576 
L 363.135245 225.785981 
L 361.969519 226.947284 
L 360.448715 227.57553 
L 334.26218 227.656364 
" style="fill:none;stroke:#ff0000;stroke-linecap:square;stroke-width:1.5;"/>
   </g>
   <g id="line2d_32">
    <path clip-path="url(#p8093f6db9d)" d="M 290.811556 192.348415 
L 290.811556 166.984779 
L 292.502465 166.984779 
L 318.545573 184.620866 
L 319.702435 185.790997 
L 320.324896 187.314178 
L 320.318643 188.959627 
L 319.684621 190.478033 
L 318.518895 191.639336 
L 316.998091 192.267581 
L 290.811556 192.348415 
" style="fill:none;stroke:#ff0000;stroke-linecap:square;stroke-width:1.5;"/>
   </g>
   <g id="line2d_33">
    <path clip-path="url(#p8093f6db9d)" d="M 325.923454 225.246539 
L 324.277996 225.243411 
L 322.758389 224.612278 
L 304.184554 206.152759 
L 322.119353 188.217959 
L 323.315006 189.413613 
L 329.259668 220.299468 
L 329.250285 221.944901 
L 328.61338 223.462099 
L 327.44545 224.621185 
L 325.923454 225.246539 
" style="fill:none;stroke:#ff0000;stroke-linecap:square;stroke-width:1.5;"/>
   </g>
   <g id="line2d_34">
    <path clip-path="url(#p8093f6db9d)" d="M 141.442692 132.291864 
L 139.47178 131.893944 
L 137.809495 130.762768 
L 137.178513 129.973692 
L 136.440629 128.103321 
L 136.3629 127.095981 
L 136.805115 125.134552 
L 148.517963 108.763371 
L 150.192808 107.758949 
L 152.122812 107.460478 
L 153.094726 107.594106 
L 154.872568 108.402362 
L 155.728156 109.133198 
L 167.50907 122.822942 
L 167.516341 126.025524 
L 167.513297 132.29068 
L 141.442692 132.291864 
" style="fill:none;stroke:#ff0000;stroke-linecap:square;stroke-width:1.5;"/>
   </g>
   <g id="line2d_35">
    <path clip-path="url(#p8093f6db9d)" d="M 130.934418 129.358557 
L 129.962504 129.224929 
L 128.184662 128.416673 
L 127.329074 127.685837 
L 115.54816 113.996093 
L 115.540889 110.793511 
L 115.543933 104.528355 
L 141.614538 104.527171 
L 143.58545 104.925091 
L 145.247735 106.056267 
L 145.878717 106.845343 
L 146.616601 108.715714 
L 146.69433 109.723054 
L 146.252115 111.684483 
L 134.539267 128.055664 
L 132.864422 129.060086 
L 130.934418 129.358557 
" style="fill:none;stroke:#ff0000;stroke-linecap:square;stroke-width:1.5;"/>
   </g>
   <g id="line2d_36">
    <path clip-path="url(#p8093f6db9d)" d="M 100.946763 120.941776 
L 99.974848 120.808149 
L 98.197006 119.999892 
L 97.341418 119.269056 
L 85.560505 105.579312 
L 85.553234 102.376731 
L 85.556277 96.111574 
L 111.626883 96.110391 
L 113.597795 96.508311 
L 115.26008 97.639486 
L 115.891061 98.428563 
L 116.628945 100.298933 
L 116.706675 101.306274 
L 116.26446 103.267703 
L 104.551612 119.638883 
L 102.876766 120.643305 
L 100.946763 120.941776 
" style="fill:none;stroke:#ff0000;stroke-linecap:square;stroke-width:1.5;"/>
   </g>
   <g id="line2d_37">
    <path clip-path="url(#p8093f6db9d)" d="M 75.653613 97.239415 
L 69.388456 97.236372 
L 69.387273 71.165766 
L 69.785193 69.194854 
L 70.916369 67.532569 
L 71.705445 66.901588 
L 73.575815 66.163704 
L 74.583156 66.085974 
L 76.544585 66.528189 
L 92.915765 78.241037 
L 93.920187 79.915882 
L 94.218658 81.845886 
L 94.085031 82.8178 
L 93.276775 84.595642 
L 92.545938 85.451231 
L 78.856195 97.232144 
L 75.653613 97.239415 
" style="fill:none;stroke:#ff0000;stroke-linecap:square;stroke-width:1.5;"/>
   </g>
   <g id="line2d_38">
    <path clip-path="url(#p8093f6db9d)" d="M 74.224142 129.49355 
L 72.329614 129.019489 
L 70.753845 127.865822 
L 70.161086 127.084085 
L 69.475486 125.255438 
L 69.387273 124.133666 
L 70.737019 106.123192 
L 72.996445 103.853483 
L 77.428732 99.425501 
L 95.864271 117.859366 
L 96.976544 119.534383 
L 97.352095 121.509658 
L 97.240305 122.51379 
L 96.439517 124.358105 
L 95.782182 125.125365 
L 94.082549 126.199612 
L 74.224142 129.49355 
" style="fill:none;stroke:#ff0000;stroke-linecap:square;stroke-width:1.5;"/>
   </g>
   <g id="line2d_39">
    <path clip-path="url(#p8093f6db9d)" d="M 99.870247 156.631583 
L 97.908817 156.189368 
L 81.537637 144.47652 
L 80.533215 142.801675 
L 80.234744 140.871671 
L 80.368371 139.899757 
L 81.176628 138.121915 
L 81.907464 137.266327 
L 95.597208 125.485413 
L 98.799789 125.478142 
L 105.064946 125.481186 
L 105.066129 151.551791 
L 104.66821 153.522703 
L 103.537034 155.184988 
L 102.747957 155.81597 
L 100.877587 156.553854 
L 99.870247 156.631583 
" style="fill:none;stroke:#ff0000;stroke-linecap:square;stroke-width:1.5;"/>
   </g>
   <g id="line2d_40">
    <path clip-path="url(#p8093f6db9d)" d="M 288.167409 219.868474 
L 287.163277 219.756684 
L 285.318963 218.955895 
L 284.551702 218.298561 
L 283.477456 216.598928 
L 280.183517 196.740521 
L 280.657578 194.845993 
L 281.811246 193.270223 
L 282.592982 192.677465 
L 284.42163 191.991864 
L 285.543401 191.903651 
L 303.553876 193.253398 
L 305.823584 195.512824 
L 310.251567 199.945111 
L 291.817702 218.38065 
L 290.142685 219.492923 
L 288.167409 219.868474 
" style="fill:none;stroke:#ff0000;stroke-linecap:square;stroke-width:1.5;"/>
   </g>
   <g id="line2d_41">
    <path clip-path="url(#p8093f6db9d)" d="M 88.831892 175.998759 
L 76.875359 152.085693 
L 106.766691 158.06396 
L 88.831892 175.998759 
" style="fill:none;stroke:#ff0000;stroke-linecap:square;stroke-width:1.5;"/>
   </g>
   <g id="line2d_42">
    <path clip-path="url(#p8093f6db9d)" d="M 241.249188 169.638615 
L 249.703733 144.274979 
L 266.612824 169.638615 
L 241.249188 169.638615 
" style="fill:none;stroke:#ff0000;stroke-linecap:square;stroke-width:1.5;"/>
   </g>
   <g id="line2d_43">
    <path clip-path="url(#p8093f6db9d)" d="M 272.710447 197.860652 
L 260.753914 173.947586 
L 290.645246 179.925852 
L 272.710447 197.860652 
" style="fill:none;stroke:#ff0000;stroke-linecap:square;stroke-width:1.5;"/>
   </g>
   <g id="line2d_44">
    <path clip-path="url(#p8093f6db9d)" d="M 241.005637 169.658182 
L 224.096546 144.294545 
L 249.460182 144.294545 
L 241.005637 169.658182 
" style="fill:none;stroke:#ff0000;stroke-linecap:square;stroke-width:1.5;"/>
   </g>
   <g id="line2d_45">
    <path clip-path="url(#p8093f6db9d)" d="M 245.917064 195.078821 
L 254.37161 169.715185 
L 271.280701 195.078821 
L 245.917064 195.078821 
" style="fill:none;stroke:#ff0000;stroke-linecap:square;stroke-width:1.5;"/>
   </g>
   <g id="patch_33">
    <path d="M 54 252 
L 54 34.56 
" style="fill:none;stroke:#000000;stroke-linecap:square;stroke-linejoin:miter;stroke-width:0.8;"/>
   </g>
   <g id="patch_34">
    <path d="M 388.8 252 
L 388.8 34.56 
" style="fill:none;stroke:#000000;stroke-linecap:square;stroke-linejoin:miter;stroke-width:0.8;"/>
   </g>
   <g id="patch_35">
    <path d="M 54 252 
L 388.8 252 
" style="fill:none;stroke:#000000;stroke-linecap:square;stroke-linejoin:miter;stroke-width:0.8;"/>
   </g>
   <g id="patch_36">
    <path d="M 54 34.56 
L 388.8 34.56 
" style="fill:none;stroke:#000000;stroke-linecap:square;stroke-linejoin:miter;stroke-width:0.8;"/>
   </g>
  </g>
 </g>
 <defs>
  <clipPath id="p8093f6db9d">
   <rect height="217.44" width="334.8" x="54" y="34.56"/>
  </clipPath>
 </defs>
</svg>
