<?xml version="1.0" encoding="utf-8" standalone="no"?>
<!DOCTYPE svg PUBLIC "-//W3C//DTD SVG 1.1//EN"
  "http://www.w3.org/Graphics/SVG/1.1/DTD/svg11.dtd">
<!-- Created with matplotlib (https://matplotlib.org/) -->
<svg height="288pt" version="1.1" viewBox="0 0 432 288" width="432pt" xmlns="http://www.w3.org/2000/svg" xmlns:xlink="http://www.w3.org/1999/xlink">
 <defs>
  <style type="text/css">
*{stroke-linecap:butt;stroke-linejoin:round;}
  </style>
 </defs>
 <g id="figure_1">
  <g id="patch_1">
   <path d="M 0 288 
L 432 288 
L 432 0 
L 0 0 
z
" style="fill:#ffffff;"/>
  </g>
  <g id="axes_1">
   <g id="patch_2">
    <path d="M 54 252 
L 388.8 252 
L 388.8 34.56 
L 54 34.56 
z
" style="fill:#ffffff;"/>
   </g>
   <g id="patch_3">
    <path clip-path="url(#pf9e11112f3)" d="M 69.218182 172.860638 
L 69.218182 227.825455 
L 174.907336 227.825455 
z
" style="fill:#aaaaaa;"/>
   </g>
   <g id="patch_4">
    <path clip-path="url(#pf9e11112f3)" d="M 105.040687 136.800432 
L 107.85789 170.606875 
L 145.608419 168.916553 
L 140.537452 132.292906 
z
" style="fill:#aaaaaa;"/>
   </g>
   <g id="patch_5">
    <path clip-path="url(#pf9e11112f3)" d="M 89.827787 58.734545 
L 88.700906 58.734545 
L 97.152516 91.725174 
L 207.412119 122.702872 
L 206.460017 144.125161 
L 276.890108 144.125161 
L 292.666448 58.734545 
L 117.436383 58.734545 
z
" style="fill:#aaaaaa;"/>
   </g>
   <g id="patch_6">
    <path clip-path="url(#pf9e11112f3)" d="M 152.791721 200.455792 
L 152.773628 172.568812 
L 143.255839 172.565769 
L 143.260067 205.725341 
L 198.875081 205.724158 
L 198.878125 172.568812 
L 190.861863 172.568812 
L 190.860679 200.455792 
z
" style="fill:#f6929c;"/>
   </g>
   <g id="patch_7">
    <path clip-path="url(#pf9e11112f3)" d="M 213.147385 206.591616 
L 213.129292 178.704636 
L 203.611503 178.701593 
L 203.61573 211.861166 
L 259.230745 211.859982 
L 259.233788 178.704636 
L 251.217526 178.704636 
L 251.216343 206.591616 
z
" style="fill:#f6929c;"/>
   </g>
   <g id="patch_8">
    <path clip-path="url(#pf9e11112f3)" d="M 272.999888 184.476462 
L 272.981795 156.589482 
L 263.464006 156.586438 
L 263.468233 189.746011 
L 319.083248 189.744827 
L 319.086291 156.589482 
L 311.07003 156.589482 
L 311.068846 184.476462 
z
" style="fill:#f6929c;"/>
   </g>
   <g id="patch_9">
    <path clip-path="url(#pf9e11112f3)" d="M 74.640254 174.551814 
L 74.640254 149.188178 
L 100.00389 149.188178 
L 100.00389 174.551814 
z
" style="fill:#f6929c;"/>
   </g>
   <g id="patch_10">
    <path clip-path="url(#pf9e11112f3)" d="M 207.884886 174.901501 
L 207.884886 149.537864 
L 233.248523 149.537864 
L 233.248523 174.901501 
z
" style="fill:#f6929c;"/>
   </g>
   <g id="patch_11">
    <path clip-path="url(#pf9e11112f3)" d="M 74.640254 143.766106 
L 74.640254 118.402469 
L 100.00389 118.402469 
L 100.00389 143.766106 
z
" style="fill:#f6929c;"/>
   </g>
   <g id="patch_12">
    <path clip-path="url(#pf9e11112f3)" d="M 105.302407 129.064539 
L 105.302407 103.700903 
L 130.666043 103.700903 
L 130.666043 129.064539 
z
" style="fill:#f6929c;"/>
   </g>
   <g id="patch_13">
    <path clip-path="url(#pf9e11112f3)" d="M 145.331122 140.310702 
L 145.331122 114.947066 
L 170.694758 114.947066 
L 170.694758 140.310702 
z
" style="fill:#f6929c;"/>
   </g>
   <g id="patch_14">
    <path clip-path="url(#pf9e11112f3)" d="M 151.348488 171.09641 
L 151.348488 145.732774 
L 176.712124 145.732774 
L 176.712124 171.09641 
z
" style="fill:#f6929c;"/>
   </g>
   <g id="patch_15">
    <path clip-path="url(#pf9e11112f3)" d="M 264.653013 222.403383 
L 264.653013 197.039746 
L 290.016649 197.039746 
L 290.016649 222.403383 
z
" style="fill:#f6929c;"/>
   </g>
   <g id="patch_16">
    <path clip-path="url(#pf9e11112f3)" d="M 278.078069 168.294863 
L 278.078069 142.931227 
L 279.768978 142.931227 
L 305.812086 160.567314 
L 306.968948 161.737445 
L 307.591409 163.260626 
L 307.585156 164.906075 
L 306.951135 166.424481 
L 305.785408 167.585784 
L 304.264605 168.214029 
z
" style="fill:#f6929c;"/>
   </g>
   <g id="patch_17">
    <path clip-path="url(#pf9e11112f3)" d="M 284.409134 145.287189 
L 284.409134 119.923553 
L 286.100043 119.923553 
L 312.143151 137.55964 
L 313.300014 138.729771 
L 313.922474 140.252952 
L 313.916221 141.898401 
L 313.2822 143.416807 
L 312.116474 144.57811 
L 310.59567 145.206356 
z
" style="fill:#f6929c;"/>
   </g>
   <g id="patch_18">
    <path clip-path="url(#pf9e11112f3)" d="M 288.919449 121.046525 
L 288.919449 95.682889 
L 290.610358 95.682889 
L 316.653466 113.318976 
L 317.810329 114.489107 
L 318.432789 116.012288 
L 318.426536 117.657737 
L 317.792515 119.176143 
L 316.626789 120.337446 
L 315.105985 120.965691 
z
" style="fill:#f6929c;"/>
   </g>
   <g id="patch_19">
    <path clip-path="url(#pf9e11112f3)" d="M 293.429764 96.805861 
L 293.429764 71.442224 
L 295.120673 71.442224 
L 321.163781 89.078311 
L 322.320643 90.248442 
L 322.943104 91.771624 
L 322.936851 93.417073 
L 322.30283 94.935478 
L 321.137103 96.096781 
L 319.6163 96.725027 
z
" style="fill:#f6929c;"/>
   </g>
   <g id="patch_20">
    <path clip-path="url(#pf9e11112f3)" d="M 295.160894 221.687435 
L 295.160894 196.323799 
L 296.851803 196.323799 
L 322.894911 213.959886 
L 324.051774 215.130017 
L 324.674235 216.653198 
L 324.667982 218.298647 
L 324.03396 219.817053 
L 322.868234 220.978356 
L 321.34743 221.606601 
z
" style="fill:#f6929c;"/>
   </g>
   <g id="patch_21">
    <path clip-path="url(#pf9e11112f3)" d="M 317.339736 145.250143 
L 317.339736 119.886507 
L 319.030645 119.886507 
L 345.073753 137.522594 
L 346.230615 138.692725 
L 346.853076 140.215906 
L 346.846823 141.861355 
L 346.212802 143.379761 
L 345.047075 144.541064 
L 343.526272 145.169309 
z
" style="fill:#f6929c;"/>
   </g>
   <g id="patch_22">
    <path clip-path="url(#pf9e11112f3)" d="M 321.908827 121.049281 
L 321.908827 95.685645 
L 323.599736 95.685645 
L 349.642844 113.321732 
L 350.799706 114.491863 
L 351.422167 116.015044 
L 351.415914 117.660493 
L 350.781893 119.178899 
L 349.616166 120.340202 
L 348.095363 120.968447 
z
" style="fill:#f6929c;"/>
   </g>
   <g id="patch_23">
    <path clip-path="url(#pf9e11112f3)" d="M 175.372823 143.991765 
L 183.827368 118.628129 
L 200.736459 143.991765 
z
" style="fill:#f6929c;"/>
   </g>
   <g id="patch_24">
    <path clip-path="url(#pf9e11112f3)" d="M 316.60228 84.833381 
L 325.056825 59.469745 
L 341.965916 84.833381 
z
" style="fill:#f6929c;"/>
   </g>
   <g id="patch_25">
    <path clip-path="url(#pf9e11112f3)" d="M 342.220621 84.833381 
L 350.675167 59.469745 
L 367.584258 84.833381 
z
" style="fill:#f6929c;"/>
   </g>
   <g id="patch_26">
    <path clip-path="url(#pf9e11112f3)" d="M 318.809091 210.037081 
L 327.263637 184.673445 
L 344.172727 210.037081 
z
" style="fill:#f6929c;"/>
   </g>
   <g id="patch_27">
    <path clip-path="url(#pf9e11112f3)" d="M 322.638387 180.457428 
L 331.092932 155.093791 
L 348.002023 180.457428 
z
" style="fill:#f6929c;"/>
   </g>
   <g id="patch_28">
    <path clip-path="url(#pf9e11112f3)" d="M 341.331244 205.392798 
L 349.785789 180.029161 
L 366.69488 205.392798 
z
" style="fill:#f6929c;"/>
   </g>
   <g id="patch_29">
    <path clip-path="url(#pf9e11112f3)" d="M 340.281475 168.494547 
L 348.73602 143.13091 
L 365.645111 168.494547 
z
" style="fill:#f6929c;"/>
   </g>
   <g id="patch_30">
    <path clip-path="url(#pf9e11112f3)" d="M 193.909794 171.998353 
L 187.34281 170.364427 
L 180.843294 168.497326 
L 178.974839 161.993075 
L 177.342267 155.430826 
L 182.040796 150.560669 
L 186.907401 145.865691 
L 193.474385 147.499616 
L 199.973901 149.366718 
L 201.842356 155.870969 
L 203.474928 162.433218 
L 198.776399 167.303375 
z
" style="fill:#f6929c;"/>
   </g>
   <g id="patch_31">
    <path clip-path="url(#pf9e11112f3)" d="M 361.249578 144.407032 
L 354.682594 142.773106 
L 348.183078 140.906004 
L 346.314623 134.401754 
L 344.68205 127.839504 
L 349.38058 122.969348 
L 354.247185 118.27437 
L 360.814169 119.908295 
L 367.313685 121.775397 
L 369.18214 128.279648 
L 370.814712 134.841897 
L 366.116183 139.712054 
z
" style="fill:#f6929c;"/>
   </g>
   <g id="patch_32">
    <path clip-path="url(#pf9e11112f3)" d="M 355.727673 111.596185 
L 349.16069 109.962259 
L 342.661173 108.095158 
L 340.792719 101.590907 
L 339.160146 95.028658 
L 343.858675 90.158501 
L 348.725281 85.463523 
L 355.292264 87.097449 
L 361.791781 88.96455 
L 363.660235 95.468801 
L 365.292808 102.03105 
L 360.594279 106.901207 
z
" style="fill:#f6929c;"/>
   </g>
   <g id="patch_33">
    <path clip-path="url(#pf9e11112f3)" d="M 169.979232 197.859214 
L 163.412248 196.225289 
L 156.912732 194.358187 
L 155.044277 187.853936 
L 153.411704 181.291687 
L 158.110233 176.421531 
L 162.976839 171.726552 
L 169.543822 173.360478 
L 176.043339 175.22758 
L 177.911793 181.731831 
L 179.544366 188.29408 
L 174.845837 193.164236 
z
" style="fill:#f6929c;"/>
   </g>
   <g id="patch_34">
    <path clip-path="url(#pf9e11112f3)" d="M 250.446192 170.850028 
L 243.879208 169.216102 
L 237.379692 167.349001 
L 235.511237 160.84475 
L 233.878665 154.282501 
L 238.577194 149.412344 
L 243.443799 144.717366 
L 250.010783 146.351292 
L 256.510299 148.218393 
L 258.378754 154.722644 
L 260.011327 161.284893 
L 255.312797 166.15505 
z
" style="fill:#f6929c;"/>
   </g>
   <g id="patch_35">
    <path clip-path="url(#pf9e11112f3)" d="M 123.39686 196.844397 
L 116.829877 195.210472 
L 110.33036 193.34337 
L 108.461906 186.839119 
L 106.829333 180.27687 
L 111.527862 175.406714 
L 116.394467 170.711736 
L 122.961451 172.345661 
L 129.460967 174.212763 
L 131.329422 180.717014 
L 132.961995 187.279263 
L 128.263466 192.149419 
z
" style="fill:#f6929c;"/>
   </g>
   <g id="patch_36">
    <path clip-path="url(#pf9e11112f3)" d="M 86.415851 117.772327 
L 79.848868 116.138402 
L 73.349351 114.2713 
L 71.480897 107.767049 
L 69.848324 101.2048 
L 74.546853 96.334644 
L 79.413458 91.639665 
L 85.980442 93.273591 
L 92.479958 95.140693 
L 94.348413 101.644944 
L 95.980986 108.207193 
L 91.282457 113.077349 
z
" style="fill:#f6929c;"/>
   </g>
   <g id="matplotlib.axis_1">
    <g id="xtick_1">
     <g id="line2d_1">
      <defs>
       <path d="M 0 0 
L 0 3.5 
" id="m6af99efbcf" style="stroke:#000000;stroke-width:0.8;"/>
      </defs>
      <g>
       <use style="stroke:#000000;stroke-width:0.8;" x="69.218182" xlink:href="#m6af99efbcf" y="252"/>
      </g>
     </g>
     <g id="text_1">
      <!-- 0 -->
      <defs>
       <path d="M 31.78125 66.40625 
Q 24.171875 66.40625 20.328125 58.90625 
Q 16.5 51.421875 16.5 36.375 
Q 16.5 21.390625 20.328125 13.890625 
Q 24.171875 6.390625 31.78125 6.390625 
Q 39.453125 6.390625 43.28125 13.890625 
Q 47.125 21.390625 47.125 36.375 
Q 47.125 51.421875 43.28125 58.90625 
Q 39.453125 66.40625 31.78125 66.40625 
z
M 31.78125 74.21875 
Q 44.046875 74.21875 50.515625 64.515625 
Q 56.984375 54.828125 56.984375 36.375 
Q 56.984375 17.96875 50.515625 8.265625 
Q 44.046875 -1.421875 31.78125 -1.421875 
Q 19.53125 -1.421875 13.0625 8.265625 
Q 6.59375 17.96875 6.59375 36.375 
Q 6.59375 54.828125 13.0625 64.515625 
Q 19.53125 74.21875 31.78125 74.21875 
z
" id="DejaVuSans-48"/>
      </defs>
      <g transform="translate(66.036932 266.598437)scale(0.1 -0.1)">
       <use xlink:href="#DejaVuSans-48"/>
      </g>
     </g>
    </g>
    <g id="xtick_2">
     <g id="line2d_2">
      <g>
       <use style="stroke:#000000;stroke-width:0.8;" x="111.490909" xlink:href="#m6af99efbcf" y="252"/>
      </g>
     </g>
     <g id="text_2">
      <!-- 250 -->
      <defs>
       <path d="M 19.1875 8.296875 
L 53.609375 8.296875 
L 53.609375 0 
L 7.328125 0 
L 7.328125 8.296875 
Q 12.9375 14.109375 22.625 23.890625 
Q 32.328125 33.6875 34.8125 36.53125 
Q 39.546875 41.84375 41.421875 45.53125 
Q 43.3125 49.21875 43.3125 52.78125 
Q 43.3125 58.59375 39.234375 62.25 
Q 35.15625 65.921875 28.609375 65.921875 
Q 23.96875 65.921875 18.8125 64.3125 
Q 13.671875 62.703125 7.8125 59.421875 
L 7.8125 69.390625 
Q 13.765625 71.78125 18.9375 73 
Q 24.125 74.21875 28.421875 74.21875 
Q 39.75 74.21875 46.484375 68.546875 
Q 53.21875 62.890625 53.21875 53.421875 
Q 53.21875 48.921875 51.53125 44.890625 
Q 49.859375 40.875 45.40625 35.40625 
Q 44.1875 33.984375 37.640625 27.21875 
Q 31.109375 20.453125 19.1875 8.296875 
z
" id="DejaVuSans-50"/>
       <path d="M 10.796875 72.90625 
L 49.515625 72.90625 
L 49.515625 64.59375 
L 19.828125 64.59375 
L 19.828125 46.734375 
Q 21.96875 47.46875 24.109375 47.828125 
Q 26.265625 48.1875 28.421875 48.1875 
Q 40.625 48.1875 47.75 41.5 
Q 54.890625 34.8125 54.890625 23.390625 
Q 54.890625 11.625 47.5625 5.09375 
Q 40.234375 -1.421875 26.90625 -1.421875 
Q 22.3125 -1.421875 17.546875 -0.640625 
Q 12.796875 0.140625 7.71875 1.703125 
L 7.71875 11.625 
Q 12.109375 9.234375 16.796875 8.0625 
Q 21.484375 6.890625 26.703125 6.890625 
Q 35.15625 6.890625 40.078125 11.328125 
Q 45.015625 15.765625 45.015625 23.390625 
Q 45.015625 31 40.078125 35.4375 
Q 35.15625 39.890625 26.703125 39.890625 
Q 22.75 39.890625 18.8125 39.015625 
Q 14.890625 38.140625 10.796875 36.28125 
z
" id="DejaVuSans-53"/>
      </defs>
      <g transform="translate(101.947159 266.598437)scale(0.1 -0.1)">
       <use xlink:href="#DejaVuSans-50"/>
       <use x="63.623047" xlink:href="#DejaVuSans-53"/>
       <use x="127.246094" xlink:href="#DejaVuSans-48"/>
      </g>
     </g>
    </g>
    <g id="xtick_3">
     <g id="line2d_3">
      <g>
       <use style="stroke:#000000;stroke-width:0.8;" x="153.763636" xlink:href="#m6af99efbcf" y="252"/>
      </g>
     </g>
     <g id="text_3">
      <!-- 500 -->
      <g transform="translate(144.219886 266.598437)scale(0.1 -0.1)">
       <use xlink:href="#DejaVuSans-53"/>
       <use x="63.623047" xlink:href="#DejaVuSans-48"/>
       <use x="127.246094" xlink:href="#DejaVuSans-48"/>
      </g>
     </g>
    </g>
    <g id="xtick_4">
     <g id="line2d_4">
      <g>
       <use style="stroke:#000000;stroke-width:0.8;" x="196.036364" xlink:href="#m6af99efbcf" y="252"/>
      </g>
     </g>
     <g id="text_4">
      <!-- 750 -->
      <defs>
       <path d="M 8.203125 72.90625 
L 55.078125 72.90625 
L 55.078125 68.703125 
L 28.609375 0 
L 18.3125 0 
L 43.21875 64.59375 
L 8.203125 64.59375 
z
" id="DejaVuSans-55"/>
      </defs>
      <g transform="translate(186.492614 266.598437)scale(0.1 -0.1)">
       <use xlink:href="#DejaVuSans-55"/>
       <use x="63.623047" xlink:href="#DejaVuSans-53"/>
       <use x="127.246094" xlink:href="#DejaVuSans-48"/>
      </g>
     </g>
    </g>
    <g id="xtick_5">
     <g id="line2d_5">
      <g>
       <use style="stroke:#000000;stroke-width:0.8;" x="238.309091" xlink:href="#m6af99efbcf" y="252"/>
      </g>
     </g>
     <g id="text_5">
      <!-- 1000 -->
      <defs>
       <path d="M 12.40625 8.296875 
L 28.515625 8.296875 
L 28.515625 63.921875 
L 10.984375 60.40625 
L 10.984375 69.390625 
L 28.421875 72.90625 
L 38.28125 72.90625 
L 38.28125 8.296875 
L 54.390625 8.296875 
L 54.390625 0 
L 12.40625 0 
z
" id="DejaVuSans-49"/>
      </defs>
      <g transform="translate(225.584091 266.598437)scale(0.1 -0.1)">
       <use xlink:href="#DejaVuSans-49"/>
       <use x="63.623047" xlink:href="#DejaVuSans-48"/>
       <use x="127.246094" xlink:href="#DejaVuSans-48"/>
       <use x="190.869141" xlink:href="#DejaVuSans-48"/>
      </g>
     </g>
    </g>
    <g id="xtick_6">
     <g id="line2d_6">
      <g>
       <use style="stroke:#000000;stroke-width:0.8;" x="280.581818" xlink:href="#m6af99efbcf" y="252"/>
      </g>
     </g>
     <g id="text_6">
      <!-- 1250 -->
      <g transform="translate(267.856818 266.598437)scale(0.1 -0.1)">
       <use xlink:href="#DejaVuSans-49"/>
       <use x="63.623047" xlink:href="#DejaVuSans-50"/>
       <use x="127.246094" xlink:href="#DejaVuSans-53"/>
       <use x="190.869141" xlink:href="#DejaVuSans-48"/>
      </g>
     </g>
    </g>
    <g id="xtick_7">
     <g id="line2d_7">
      <g>
       <use style="stroke:#000000;stroke-width:0.8;" x="322.854545" xlink:href="#m6af99efbcf" y="252"/>
      </g>
     </g>
     <g id="text_7">
      <!-- 1500 -->
      <g transform="translate(310.129545 266.598437)scale(0.1 -0.1)">
       <use xlink:href="#DejaVuSans-49"/>
       <use x="63.623047" xlink:href="#DejaVuSans-53"/>
       <use x="127.246094" xlink:href="#DejaVuSans-48"/>
       <use x="190.869141" xlink:href="#DejaVuSans-48"/>
      </g>
     </g>
    </g>
    <g id="xtick_8">
     <g id="line2d_8">
      <g>
       <use style="stroke:#000000;stroke-width:0.8;" x="365.127273" xlink:href="#m6af99efbcf" y="252"/>
      </g>
     </g>
     <g id="text_8">
      <!-- 1750 -->
      <g transform="translate(352.402273 266.598437)scale(0.1 -0.1)">
       <use xlink:href="#DejaVuSans-49"/>
       <use x="63.623047" xlink:href="#DejaVuSans-55"/>
       <use x="127.246094" xlink:href="#DejaVuSans-53"/>
       <use x="190.869141" xlink:href="#DejaVuSans-48"/>
      </g>
     </g>
    </g>
   </g>
   <g id="matplotlib.axis_2">
    <g id="ytick_1">
     <g id="line2d_9">
      <defs>
       <path d="M 0 0 
L -3.5 0 
" id="m1a374733e9" style="stroke:#000000;stroke-width:0.8;"/>
      </defs>
      <g>
       <use style="stroke:#000000;stroke-width:0.8;" x="54" xlink:href="#m1a374733e9" y="227.825455"/>
      </g>
     </g>
     <g id="text_9">
      <!-- 0 -->
      <g transform="translate(40.6375 231.624673)scale(0.1 -0.1)">
       <use xlink:href="#DejaVuSans-48"/>
      </g>
     </g>
    </g>
    <g id="ytick_2">
     <g id="line2d_10">
      <g>
       <use style="stroke:#000000;stroke-width:0.8;" x="54" xlink:href="#m1a374733e9" y="194.007273"/>
      </g>
     </g>
     <g id="text_10">
      <!-- 200 -->
      <g transform="translate(27.9125 197.806491)scale(0.1 -0.1)">
       <use xlink:href="#DejaVuSans-50"/>
       <use x="63.623047" xlink:href="#DejaVuSans-48"/>
       <use x="127.246094" xlink:href="#DejaVuSans-48"/>
      </g>
     </g>
    </g>
    <g id="ytick_3">
     <g id="line2d_11">
      <g>
       <use style="stroke:#000000;stroke-width:0.8;" x="54" xlink:href="#m1a374733e9" y="160.189091"/>
      </g>
     </g>
     <g id="text_11">
      <!-- 400 -->
      <defs>
       <path d="M 37.796875 64.3125 
L 12.890625 25.390625 
L 37.796875 25.390625 
z
M 35.203125 72.90625 
L 47.609375 72.90625 
L 47.609375 25.390625 
L 58.015625 25.390625 
L 58.015625 17.1875 
L 47.609375 17.1875 
L 47.609375 0 
L 37.796875 0 
L 37.796875 17.1875 
L 4.890625 17.1875 
L 4.890625 26.703125 
z
" id="DejaVuSans-52"/>
      </defs>
      <g transform="translate(27.9125 163.98831)scale(0.1 -0.1)">
       <use xlink:href="#DejaVuSans-52"/>
       <use x="63.623047" xlink:href="#DejaVuSans-48"/>
       <use x="127.246094" xlink:href="#DejaVuSans-48"/>
      </g>
     </g>
    </g>
    <g id="ytick_4">
     <g id="line2d_12">
      <g>
       <use style="stroke:#000000;stroke-width:0.8;" x="54" xlink:href="#m1a374733e9" y="126.370909"/>
      </g>
     </g>
     <g id="text_12">
      <!-- 600 -->
      <defs>
       <path d="M 33.015625 40.375 
Q 26.375 40.375 22.484375 35.828125 
Q 18.609375 31.296875 18.609375 23.390625 
Q 18.609375 15.53125 22.484375 10.953125 
Q 26.375 6.390625 33.015625 6.390625 
Q 39.65625 6.390625 43.53125 10.953125 
Q 47.40625 15.53125 47.40625 23.390625 
Q 47.40625 31.296875 43.53125 35.828125 
Q 39.65625 40.375 33.015625 40.375 
z
M 52.59375 71.296875 
L 52.59375 62.3125 
Q 48.875 64.0625 45.09375 64.984375 
Q 41.3125 65.921875 37.59375 65.921875 
Q 27.828125 65.921875 22.671875 59.328125 
Q 17.53125 52.734375 16.796875 39.40625 
Q 19.671875 43.65625 24.015625 45.921875 
Q 28.375 48.1875 33.59375 48.1875 
Q 44.578125 48.1875 50.953125 41.515625 
Q 57.328125 34.859375 57.328125 23.390625 
Q 57.328125 12.15625 50.6875 5.359375 
Q 44.046875 -1.421875 33.015625 -1.421875 
Q 20.359375 -1.421875 13.671875 8.265625 
Q 6.984375 17.96875 6.984375 36.375 
Q 6.984375 53.65625 15.1875 63.9375 
Q 23.390625 74.21875 37.203125 74.21875 
Q 40.921875 74.21875 44.703125 73.484375 
Q 48.484375 72.75 52.59375 71.296875 
z
" id="DejaVuSans-54"/>
      </defs>
      <g transform="translate(27.9125 130.170128)scale(0.1 -0.1)">
       <use xlink:href="#DejaVuSans-54"/>
       <use x="63.623047" xlink:href="#DejaVuSans-48"/>
       <use x="127.246094" xlink:href="#DejaVuSans-48"/>
      </g>
     </g>
    </g>
    <g id="ytick_5">
     <g id="line2d_13">
      <g>
       <use style="stroke:#000000;stroke-width:0.8;" x="54" xlink:href="#m1a374733e9" y="92.552727"/>
      </g>
     </g>
     <g id="text_13">
      <!-- 800 -->
      <defs>
       <path d="M 31.78125 34.625 
Q 24.75 34.625 20.71875 30.859375 
Q 16.703125 27.09375 16.703125 20.515625 
Q 16.703125 13.921875 20.71875 10.15625 
Q 24.75 6.390625 31.78125 6.390625 
Q 38.8125 6.390625 42.859375 10.171875 
Q 46.921875 13.96875 46.921875 20.515625 
Q 46.921875 27.09375 42.890625 30.859375 
Q 38.875 34.625 31.78125 34.625 
z
M 21.921875 38.8125 
Q 15.578125 40.375 12.03125 44.71875 
Q 8.5 49.078125 8.5 55.328125 
Q 8.5 64.0625 14.71875 69.140625 
Q 20.953125 74.21875 31.78125 74.21875 
Q 42.671875 74.21875 48.875 69.140625 
Q 55.078125 64.0625 55.078125 55.328125 
Q 55.078125 49.078125 51.53125 44.71875 
Q 48 40.375 41.703125 38.8125 
Q 48.828125 37.15625 52.796875 32.3125 
Q 56.78125 27.484375 56.78125 20.515625 
Q 56.78125 9.90625 50.3125 4.234375 
Q 43.84375 -1.421875 31.78125 -1.421875 
Q 19.734375 -1.421875 13.25 4.234375 
Q 6.78125 9.90625 6.78125 20.515625 
Q 6.78125 27.484375 10.78125 32.3125 
Q 14.796875 37.15625 21.921875 38.8125 
z
M 18.3125 54.390625 
Q 18.3125 48.734375 21.84375 45.5625 
Q 25.390625 42.390625 31.78125 42.390625 
Q 38.140625 42.390625 41.71875 45.5625 
Q 45.3125 48.734375 45.3125 54.390625 
Q 45.3125 60.0625 41.71875 63.234375 
Q 38.140625 66.40625 31.78125 66.40625 
Q 25.390625 66.40625 21.84375 63.234375 
Q 18.3125 60.0625 18.3125 54.390625 
z
" id="DejaVuSans-56"/>
      </defs>
      <g transform="translate(27.9125 96.351946)scale(0.1 -0.1)">
       <use xlink:href="#DejaVuSans-56"/>
       <use x="63.623047" xlink:href="#DejaVuSans-48"/>
       <use x="127.246094" xlink:href="#DejaVuSans-48"/>
      </g>
     </g>
    </g>
    <g id="ytick_6">
     <g id="line2d_14">
      <g>
       <use style="stroke:#000000;stroke-width:0.8;" x="54" xlink:href="#m1a374733e9" y="58.734545"/>
      </g>
     </g>
     <g id="text_14">
      <!-- 1000 -->
      <g transform="translate(21.55 62.533764)scale(0.1 -0.1)">
       <use xlink:href="#DejaVuSans-49"/>
       <use x="63.623047" xlink:href="#DejaVuSans-48"/>
       <use x="127.246094" xlink:href="#DejaVuSans-48"/>
       <use x="190.869141" xlink:href="#DejaVuSans-48"/>
      </g>
     </g>
    </g>
   </g>
   <g id="line2d_15">
    <path clip-path="url(#pf9e11112f3)" d="M 69.218182 227.825455 
L 373.581818 227.825455 
L 373.581818 58.734545 
L 69.218182 58.734545 
L 69.218182 227.825455 
" style="fill:none;stroke:#000000;stroke-linecap:square;stroke-width:1.5;"/>
   </g>
   <g id="line2d_16">
    <path clip-path="url(#pf9e11112f3)" d="M 69.218182 172.860638 
L 69.218182 227.825455 
L 174.907336 227.825455 
L 69.218182 172.860638 
" style="fill:none;stroke:#000000;stroke-dasharray:5.55,2.4;stroke-dashoffset:0;stroke-width:1.5;"/>
   </g>
   <g id="line2d_17">
    <path clip-path="url(#pf9e11112f3)" d="M 105.040687 136.800432 
L 107.85789 170.606875 
L 145.608419 168.916553 
L 140.537452 132.292906 
L 105.040687 136.800432 
" style="fill:none;stroke:#000000;stroke-dasharray:5.55,2.4;stroke-dashoffset:0;stroke-width:1.5;"/>
   </g>
   <g id="line2d_18">
    <path clip-path="url(#pf9e11112f3)" d="M 89.827787 58.734545 
L 88.700906 58.734545 
L 97.152516 91.725174 
L 207.412119 122.702872 
L 206.460017 144.125161 
L 276.890108 144.125161 
L 292.666448 58.734545 
L 117.436383 58.734545 
L 89.827787 58.734545 
" style="fill:none;stroke:#000000;stroke-dasharray:5.55,2.4;stroke-dashoffset:0;stroke-width:1.5;"/>
   </g>
   <g id="line2d_19">
    <path clip-path="url(#pf9e11112f3)" d="M 152.791721 200.455792 
L 152.773628 172.568812 
L 143.255839 172.565769 
L 143.260067 205.725341 
L 198.875081 205.724158 
L 198.878125 172.568812 
L 190.861863 172.568812 
L 190.860679 200.455792 
L 152.791721 200.455792 
" style="fill:none;stroke:#ff0000;stroke-linecap:square;stroke-width:1.5;"/>
   </g>
   <g id="line2d_20">
    <path clip-path="url(#pf9e11112f3)" d="M 213.147385 206.591616 
L 213.129292 178.704636 
L 203.611503 178.701593 
L 203.61573 211.861166 
L 259.230745 211.859982 
L 259.233788 178.704636 
L 251.217526 178.704636 
L 251.216343 206.591616 
L 213.147385 206.591616 
" style="fill:none;stroke:#ff0000;stroke-linecap:square;stroke-width:1.5;"/>
   </g>
   <g id="line2d_21">
    <path clip-path="url(#pf9e11112f3)" d="M 272.999888 184.476462 
L 272.981795 156.589482 
L 263.464006 156.586438 
L 263.468233 189.746011 
L 319.083248 189.744827 
L 319.086291 156.589482 
L 311.07003 156.589482 
L 311.068846 184.476462 
L 272.999888 184.476462 
" style="fill:none;stroke:#ff0000;stroke-linecap:square;stroke-width:1.5;"/>
   </g>
   <g id="line2d_22">
    <path clip-path="url(#pf9e11112f3)" d="M 74.640254 174.551814 
L 74.640254 149.188178 
L 100.00389 149.188178 
L 100.00389 174.551814 
L 74.640254 174.551814 
" style="fill:none;stroke:#ff0000;stroke-linecap:square;stroke-width:1.5;"/>
   </g>
   <g id="line2d_23">
    <path clip-path="url(#pf9e11112f3)" d="M 207.884886 174.901501 
L 207.884886 149.537864 
L 233.248523 149.537864 
L 233.248523 174.901501 
L 207.884886 174.901501 
" style="fill:none;stroke:#ff0000;stroke-linecap:square;stroke-width:1.5;"/>
   </g>
   <g id="line2d_24">
    <path clip-path="url(#pf9e11112f3)" d="M 74.640254 143.766106 
L 74.640254 118.402469 
L 100.00389 118.402469 
L 100.00389 143.766106 
L 74.640254 143.766106 
" style="fill:none;stroke:#ff0000;stroke-linecap:square;stroke-width:1.5;"/>
   </g>
   <g id="line2d_25">
    <path clip-path="url(#pf9e11112f3)" d="M 105.302407 129.064539 
L 105.302407 103.700903 
L 130.666043 103.700903 
L 130.666043 129.064539 
L 105.302407 129.064539 
" style="fill:none;stroke:#ff0000;stroke-linecap:square;stroke-width:1.5;"/>
   </g>
   <g id="line2d_26">
    <path clip-path="url(#pf9e11112f3)" d="M 145.331122 140.310702 
L 145.331122 114.947066 
L 170.694758 114.947066 
L 170.694758 140.310702 
L 145.331122 140.310702 
" style="fill:none;stroke:#ff0000;stroke-linecap:square;stroke-width:1.5;"/>
   </g>
   <g id="line2d_27">
    <path clip-path="url(#pf9e11112f3)" d="M 151.348488 171.09641 
L 151.348488 145.732774 
L 176.712124 145.732774 
L 176.712124 171.09641 
L 151.348488 171.09641 
" style="fill:none;stroke:#ff0000;stroke-linecap:square;stroke-width:1.5;"/>
   </g>
   <g id="line2d_28">
    <path clip-path="url(#pf9e11112f3)" d="M 264.653013 222.403383 
L 264.653013 197.039746 
L 290.016649 197.039746 
L 290.016649 222.403383 
L 264.653013 222.403383 
" style="fill:none;stroke:#ff0000;stroke-linecap:square;stroke-width:1.5;"/>
   </g>
   <g id="line2d_29">
    <path clip-path="url(#pf9e11112f3)" d="M 278.078069 168.294863 
L 278.078069 142.931227 
L 279.768978 142.931227 
L 305.812086 160.567314 
L 306.968948 161.737445 
L 307.591409 163.260626 
L 307.585156 164.906075 
L 306.951135 166.424481 
L 305.785408 167.585784 
L 304.264605 168.214029 
L 278.078069 168.294863 
" style="fill:none;stroke:#ff0000;stroke-linecap:square;stroke-width:1.5;"/>
   </g>
   <g id="line2d_30">
    <path clip-path="url(#pf9e11112f3)" d="M 284.409134 145.287189 
L 284.409134 119.923553 
L 286.100043 119.923553 
L 312.143151 137.55964 
L 313.300014 138.729771 
L 313.922474 140.252952 
L 313.916221 141.898401 
L 313.2822 143.416807 
L 312.116474 144.57811 
L 310.59567 145.206356 
L 284.409134 145.287189 
" style="fill:none;stroke:#ff0000;stroke-linecap:square;stroke-width:1.5;"/>
   </g>
   <g id="line2d_31">
    <path clip-path="url(#pf9e11112f3)" d="M 288.919449 121.046525 
L 288.919449 95.682889 
L 290.610358 95.682889 
L 316.653466 113.318976 
L 317.810329 114.489107 
L 318.432789 116.012288 
L 318.426536 117.657737 
L 317.792515 119.176143 
L 316.626789 120.337446 
L 315.105985 120.965691 
L 288.919449 121.046525 
" style="fill:none;stroke:#ff0000;stroke-linecap:square;stroke-width:1.5;"/>
   </g>
   <g id="line2d_32">
    <path clip-path="url(#pf9e11112f3)" d="M 293.429764 96.805861 
L 293.429764 71.442224 
L 295.120673 71.442224 
L 321.163781 89.078311 
L 322.320643 90.248442 
L 322.943104 91.771624 
L 322.936851 93.417073 
L 322.30283 94.935478 
L 321.137103 96.096781 
L 319.6163 96.725027 
L 293.429764 96.805861 
" style="fill:none;stroke:#ff0000;stroke-linecap:square;stroke-width:1.5;"/>
   </g>
   <g id="line2d_33">
    <path clip-path="url(#pf9e11112f3)" d="M 295.160894 221.687435 
L 295.160894 196.323799 
L 296.851803 196.323799 
L 322.894911 213.959886 
L 324.051774 215.130017 
L 324.674235 216.653198 
L 324.667982 218.298647 
L 324.03396 219.817053 
L 322.868234 220.978356 
L 321.34743 221.606601 
L 295.160894 221.687435 
" style="fill:none;stroke:#ff0000;stroke-linecap:square;stroke-width:1.5;"/>
   </g>
   <g id="line2d_34">
    <path clip-path="url(#pf9e11112f3)" d="M 317.339736 145.250143 
L 317.339736 119.886507 
L 319.030645 119.886507 
L 345.073753 137.522594 
L 346.230615 138.692725 
L 346.853076 140.215906 
L 346.846823 141.861355 
L 346.212802 143.379761 
L 345.047075 144.541064 
L 343.526272 145.169309 
L 317.339736 145.250143 
" style="fill:none;stroke:#ff0000;stroke-linecap:square;stroke-width:1.5;"/>
   </g>
   <g id="line2d_35">
    <path clip-path="url(#pf9e11112f3)" d="M 321.908827 121.049281 
L 321.908827 95.685645 
L 323.599736 95.685645 
L 349.642844 113.321732 
L 350.799706 114.491863 
L 351.422167 116.015044 
L 351.415914 117.660493 
L 350.781893 119.178899 
L 349.616166 120.340202 
L 348.095363 120.968447 
L 321.908827 121.049281 
" style="fill:none;stroke:#ff0000;stroke-linecap:square;stroke-width:1.5;"/>
   </g>
   <g id="line2d_36">
    <path clip-path="url(#pf9e11112f3)" d="M 175.372823 143.991765 
L 183.827368 118.628129 
L 200.736459 143.991765 
L 175.372823 143.991765 
" style="fill:none;stroke:#ff0000;stroke-linecap:square;stroke-width:1.5;"/>
   </g>
   <g id="line2d_37">
    <path clip-path="url(#pf9e11112f3)" d="M 316.60228 84.833381 
L 325.056825 59.469745 
L 341.965916 84.833381 
L 316.60228 84.833381 
" style="fill:none;stroke:#ff0000;stroke-linecap:square;stroke-width:1.5;"/>
   </g>
   <g id="line2d_38">
    <path clip-path="url(#pf9e11112f3)" d="M 342.220621 84.833381 
L 350.675167 59.469745 
L 367.584258 84.833381 
L 342.220621 84.833381 
" style="fill:none;stroke:#ff0000;stroke-linecap:square;stroke-width:1.5;"/>
   </g>
   <g id="line2d_39">
    <path clip-path="url(#pf9e11112f3)" d="M 318.809091 210.037081 
L 327.263637 184.673445 
L 344.172727 210.037081 
L 318.809091 210.037081 
" style="fill:none;stroke:#ff0000;stroke-linecap:square;stroke-width:1.5;"/>
   </g>
   <g id="line2d_40">
    <path clip-path="url(#pf9e11112f3)" d="M 322.638387 180.457428 
L 331.092932 155.093791 
L 348.002023 180.457428 
L 322.638387 180.457428 
" style="fill:none;stroke:#ff0000;stroke-linecap:square;stroke-width:1.5;"/>
   </g>
   <g id="line2d_41">
    <path clip-path="url(#pf9e11112f3)" d="M 341.331244 205.392798 
L 349.785789 180.029161 
L 366.69488 205.392798 
L 341.331244 205.392798 
" style="fill:none;stroke:#ff0000;stroke-linecap:square;stroke-width:1.5;"/>
   </g>
   <g id="line2d_42">
    <path clip-path="url(#pf9e11112f3)" d="M 340.281475 168.494547 
L 348.73602 143.13091 
L 365.645111 168.494547 
L 340.281475 168.494547 
" style="fill:none;stroke:#ff0000;stroke-linecap:square;stroke-width:1.5;"/>
   </g>
   <g id="line2d_43">
    <path clip-path="url(#pf9e11112f3)" d="M 193.909794 171.998353 
L 187.34281 170.364427 
L 180.843294 168.497326 
L 178.974839 161.993075 
L 177.342267 155.430826 
L 182.040796 150.560669 
L 186.907401 145.865691 
L 193.474385 147.499616 
L 199.973901 149.366718 
L 201.842356 155.870969 
L 203.474928 162.433218 
L 198.776399 167.303375 
L 193.909794 171.998353 
" style="fill:none;stroke:#ff0000;stroke-linecap:square;stroke-width:1.5;"/>
   </g>
   <g id="line2d_44">
    <path clip-path="url(#pf9e11112f3)" d="M 361.249578 144.407032 
L 354.682594 142.773106 
L 348.183078 140.906004 
L 346.314623 134.401754 
L 344.68205 127.839504 
L 349.38058 122.969348 
L 354.247185 118.27437 
L 360.814169 119.908295 
L 367.313685 121.775397 
L 369.18214 128.279648 
L 370.814712 134.841897 
L 366.116183 139.712054 
L 361.249578 144.407032 
" style="fill:none;stroke:#ff0000;stroke-linecap:square;stroke-width:1.5;"/>
   </g>
   <g id="line2d_45">
    <path clip-path="url(#pf9e11112f3)" d="M 355.727673 111.596185 
L 349.16069 109.962259 
L 342.661173 108.095158 
L 340.792719 101.590907 
L 339.160146 95.028658 
L 343.858675 90.158501 
L 348.725281 85.463523 
L 355.292264 87.097449 
L 361.791781 88.96455 
L 363.660235 95.468801 
L 365.292808 102.03105 
L 360.594279 106.901207 
L 355.727673 111.596185 
" style="fill:none;stroke:#ff0000;stroke-linecap:square;stroke-width:1.5;"/>
   </g>
   <g id="line2d_46">
    <path clip-path="url(#pf9e11112f3)" d="M 169.979232 197.859214 
L 163.412248 196.225289 
L 156.912732 194.358187 
L 155.044277 187.853936 
L 153.411704 181.291687 
L 158.110233 176.421531 
L 162.976839 171.726552 
L 169.543822 173.360478 
L 176.043339 175.22758 
L 177.911793 181.731831 
L 179.544366 188.29408 
L 174.845837 193.164236 
L 169.979232 197.859214 
" style="fill:none;stroke:#ff0000;stroke-linecap:square;stroke-width:1.5;"/>
   </g>
   <g id="line2d_47">
    <path clip-path="url(#pf9e11112f3)" d="M 250.446192 170.850028 
L 243.879208 169.216102 
L 237.379692 167.349001 
L 235.511237 160.84475 
L 233.878665 154.282501 
L 238.577194 149.412344 
L 243.443799 144.717366 
L 250.010783 146.351292 
L 256.510299 148.218393 
L 258.378754 154.722644 
L 260.011327 161.284893 
L 255.312797 166.15505 
L 250.446192 170.850028 
" style="fill:none;stroke:#ff0000;stroke-linecap:square;stroke-width:1.5;"/>
   </g>
   <g id="line2d_48">
    <path clip-path="url(#pf9e11112f3)" d="M 123.39686 196.844397 
L 116.829877 195.210472 
L 110.33036 193.34337 
L 108.461906 186.839119 
L 106.829333 180.27687 
L 111.527862 175.406714 
L 116.394467 170.711736 
L 122.961451 172.345661 
L 129.460967 174.212763 
L 131.329422 180.717014 
L 132.961995 187.279263 
L 128.263466 192.149419 
L 123.39686 196.844397 
" style="fill:none;stroke:#ff0000;stroke-linecap:square;stroke-width:1.5;"/>
   </g>
   <g id="line2d_49">
    <path clip-path="url(#pf9e11112f3)" d="M 86.415851 117.772327 
L 79.848868 116.138402 
L 73.349351 114.2713 
L 71.480897 107.767049 
L 69.848324 101.2048 
L 74.546853 96.334644 
L 79.413458 91.639665 
L 85.980442 93.273591 
L 92.479958 95.140693 
L 94.348413 101.644944 
L 95.980986 108.207193 
L 91.282457 113.077349 
L 86.415851 117.772327 
" style="fill:none;stroke:#ff0000;stroke-linecap:square;stroke-width:1.5;"/>
   </g>
   <g id="patch_37">
    <path d="M 54 252 
L 54 34.56 
" style="fill:none;stroke:#000000;stroke-linecap:square;stroke-linejoin:miter;stroke-width:0.8;"/>
   </g>
   <g id="patch_38">
    <path d="M 388.8 252 
L 388.8 34.56 
" style="fill:none;stroke:#000000;stroke-linecap:square;stroke-linejoin:miter;stroke-width:0.8;"/>
   </g>
   <g id="patch_39">
    <path d="M 54 252 
L 388.8 252 
" style="fill:none;stroke:#000000;stroke-linecap:square;stroke-linejoin:miter;stroke-width:0.8;"/>
   </g>
   <g id="patch_40">
    <path d="M 54 34.56 
L 388.8 34.56 
" style="fill:none;stroke:#000000;stroke-linecap:square;stroke-linejoin:miter;stroke-width:0.8;"/>
   </g>
  </g>
 </g>
 <defs>
  <clipPath id="pf9e11112f3">
   <rect height="217.44" width="334.8" x="54" y="34.56"/>
  </clipPath>
 </defs>
</svg>
